<?xml version="1.0" encoding="UTF-8"?>
<svg id="Layer_2" data-name="Layer 2" xmlns="http://www.w3.org/2000/svg" viewBox="0 0 123.4 9.53">
  <defs>
    <style>
      .cls-1 {
        fill: #243746;
      }
    </style>
  </defs>
  <g id="Layer_1-2" data-name="Layer 1">
    <path class="cls-1" d="M2.54,2.22c1.42,0,2.29,1.12,2.29,2.37v.38c0,.09-.06.16-.16.16H.93c.11.81.69,1.45,1.69,1.45.56,0,1.06-.2,1.57-.57.09-.06.17-.05.22.03l.29.44c.05.07.04.16-.03.22-.56.5-1.32.76-2.06.76-1.64,0-2.62-1.09-2.62-2.59,0-1.64,1.14-2.65,2.54-2.65ZM.97,4.31h2.93c-.04-.64-.5-1.23-1.36-1.23-.81,0-1.39.47-1.57,1.23Z"/>
    <path class="cls-1" d="M5.97,7.32c-.09,0-.16-.06-.16-.16V2.69c0-.08.04-.15.12-.18l.59-.22c.1-.04.18.01.18.12v.53c.38-.56.98-.74,1.52-.74,1.12,0,2.01.76,2.01,2.23v2.72c0,.09-.06.16-.16.16h-.58c-.09,0-.16-.06-.16-.16v-2.69c0-.89-.52-1.38-1.29-1.38s-1.35.5-1.35,1.38v2.69c0,.09-.06.16-.16.16h-.58Z"/>
    <path class="cls-1" d="M13.69,2.22c1.42,0,2.29,1.12,2.29,2.37v.38c0,.09-.06.16-.16.16h-3.75c.11.81.69,1.45,1.69,1.45.56,0,1.06-.2,1.57-.57.09-.06.17-.05.22.03l.29.44c.05.07.04.16-.03.22-.56.5-1.32.76-2.06.76-1.64,0-2.62-1.09-2.62-2.59,0-1.64,1.14-2.65,2.54-2.65ZM12.12,4.31h2.93c-.04-.64-.5-1.23-1.36-1.23-.81,0-1.39.47-1.57,1.23Z"/>
    <path class="cls-1" d="M20.33,2.82c.03.09,0,.17-.09.21l-2.38.99v3.16c0,.09-.06.16-.16.16h-.58c-.09,0-.16-.06-.16-.16V2.69c0-.08.04-.15.12-.18l.59-.22c.1-.04.18.01.18.12v.72l2.08-.86c.09-.04.17-.01.21.08l.19.46Z"/>
    <path class="cls-1" d="M23.07,9.53c-.74,0-1.47-.18-2.19-.72-.07-.06-.08-.13-.04-.22l.3-.52c.05-.09.12-.1.22-.04.49.37,1.09.62,1.72.62,1.11,0,1.71-.71,1.71-1.83v-.06c-.27.33-.9.69-1.72.69-1.53,0-2.46-1.2-2.46-2.62,0-1.6,1.18-2.62,2.54-2.62.69,0,1.32.26,1.64.7v-.22c0-.08.04-.15.12-.18l.59-.22c.1-.04.18,0,.18.11v4.23c0,2.01-1.02,2.89-2.62,2.89ZM23.17,6.57c.9,0,1.63-.59,1.63-1.74s-.73-1.73-1.63-1.73-1.65.59-1.65,1.73.75,1.74,1.65,1.74Z"/>
    <path class="cls-1" d="M31.06,2.34c.11,0,.17.07.12.18l-2.9,6.77c-.03.08-.09.11-.18.11h-.65c-.11,0-.17-.07-.12-.18l1-2.34-1.87-4.37c-.04-.1.01-.18.12-.18h.66c.08,0,.16.04.19.12l1.38,3.28,1.39-3.28c.03-.08.09-.12.18-.12h.67Z"/>
    <path class="cls-1" d="M36.66,7.45c-1.48,0-2.58-1.11-2.58-2.62s1.09-2.62,2.58-2.62c.66,0,1.2.18,1.6.47.08.06.08.13.04.22l-.27.47c-.05.09-.12.11-.21.06-.23-.15-.54-.34-1.1-.34-1.09,0-1.72.77-1.72,1.74s.63,1.74,1.72,1.74c.55,0,.87-.18,1.12-.33.08-.04.16-.02.21.06l.25.46c.04.08.05.15.02.18-.31.25-.93.51-1.66.51Z"/>
    <path class="cls-1" d="M39.48,7.32c-.09,0-.16-.06-.16-.16V.41c0-.08.04-.15.12-.18l.59-.22c.1-.04.18.01.18.12v2.81c.35-.52,1-.74,1.56-.74,1.1,0,1.97.76,1.97,2.23v2.72c0,.09-.06.16-.16.16h-.58c-.09,0-.16-.06-.16-.16v-2.69c0-.89-.52-1.38-1.29-1.38s-1.35.5-1.35,1.38v2.69c0,.09-.06.16-.16.16h-.58Z"/>
    <path class="cls-1" d="M47.15,7.45c-1.58,0-2.49-1.2-2.49-2.63,0-1.59,1.18-2.61,2.54-2.61.69,0,1.32.26,1.64.7v-.22c0-.08.04-.15.12-.18l.59-.22c.1-.04.18,0,.18.11v4.76c0,.09-.06.16-.16.16h-.58c-.09,0-.16-.06-.16-.16v-.4c-.29.36-.98.69-1.69.69ZM47.21,6.57c.92,0,1.64-.59,1.64-1.74s-.72-1.73-1.64-1.73-1.64.59-1.64,1.73.76,1.74,1.64,1.74Z"/>
    <path class="cls-1" d="M51.03,7.32c-.09,0-.16-.06-.16-.16V.41c0-.08.04-.15.12-.18l.59-.22c.1-.04.18.01.18.12v7.03c0,.09-.06.16-.16.16h-.58Z"/>
    <path class="cls-1" d="M53.07,7.32c-.09,0-.16-.06-.16-.16V.41c0-.08.04-.15.12-.18l.59-.22c.1-.04.18.01.18.12v7.03c0,.09-.06.16-.16.16h-.58Z"/>
    <path class="cls-1" d="M57.33,2.22c1.42,0,2.29,1.12,2.29,2.37v.38c0,.09-.06.16-.16.16h-3.75c.11.81.69,1.45,1.69,1.45.56,0,1.06-.2,1.57-.57.09-.06.17-.05.22.03l.29.44c.05.07.04.16-.03.22-.56.5-1.32.76-2.06.76-1.64,0-2.62-1.09-2.62-2.59,0-1.64,1.14-2.65,2.54-2.65ZM55.75,4.31h2.93c-.04-.64-.5-1.23-1.36-1.23-.81,0-1.39.47-1.57,1.23Z"/>
    <path class="cls-1" d="M60.75,7.32c-.09,0-.16-.06-.16-.16V2.69c0-.08.04-.15.12-.18l.59-.22c.1-.04.18.01.18.12v.53c.38-.56.98-.74,1.52-.74,1.12,0,2.01.76,2.01,2.23v2.72c0,.09-.06.16-.16.16h-.58c-.09,0-.16-.06-.16-.16v-2.69c0-.89-.52-1.38-1.29-1.38s-1.35.5-1.35,1.38v2.69c0,.09-.06.16-.16.16h-.58Z"/>
    <path class="cls-1" d="M68.39,9.53c-.74,0-1.47-.18-2.19-.72-.07-.06-.08-.13-.04-.22l.3-.52c.05-.09.12-.1.22-.04.49.37,1.09.62,1.72.62,1.11,0,1.71-.71,1.71-1.83v-.06c-.27.33-.9.69-1.72.69-1.53,0-2.46-1.2-2.46-2.62,0-1.6,1.18-2.62,2.54-2.62.69,0,1.32.26,1.64.7v-.22c0-.08.04-.15.12-.18l.59-.22c.1-.04.18,0,.18.11v4.23c0,2.01-1.02,2.89-2.62,2.89ZM68.5,6.57c.9,0,1.63-.59,1.63-1.74s-.73-1.73-1.63-1.73-1.65.59-1.65,1.73.75,1.74,1.65,1.74Z"/>
    <path class="cls-1" d="M74.53,2.22c1.42,0,2.29,1.12,2.29,2.37v.38c0,.09-.06.16-.16.16h-3.75c.11.81.69,1.45,1.69,1.45.56,0,1.06-.2,1.57-.57.09-.06.17-.05.22.03l.29.44c.05.07.04.16-.03.22-.56.5-1.32.76-2.06.76-1.64,0-2.62-1.09-2.62-2.59,0-1.64,1.14-2.65,2.54-2.65ZM72.95,4.31h2.93c-.04-.64-.5-1.23-1.36-1.23-.81,0-1.39.47-1.57,1.23Z"/>
    <path class="cls-1" d="M79.54,7.45c-.74,0-1.48-.24-1.93-.76-.06-.06-.05-.15,0-.22l.33-.43c.06-.08.13-.08.22-.02.31.27.73.55,1.4.55s1-.21,1-.61-.36-.58-1.04-.75c-.84-.21-1.77-.46-1.77-1.47,0-.89.71-1.53,1.82-1.53.72,0,1.23.25,1.56.52.07.07.07.13.01.22l-.33.42c-.06.07-.13.09-.22.03-.24-.17-.57-.31-1-.31-.51,0-.94.2-.94.6,0,.37.37.52,1.08.69,1.03.24,1.7.62,1.7,1.53,0,1.27-1.13,1.55-1.89,1.55Z"/>
    <path class="cls-1" d="M87.22,7.09c.03.08,0,.17-.1.22-.23.1-.43.15-.64.15-1.15,0-1.42-.75-1.42-1.64v-2.66h-.65c-.09,0-.16-.06-.16-.16v-.5c0-.09.06-.16.16-.16h.65v-.79c0-.08.04-.15.12-.18l.59-.22c.1-.04.18.01.18.12v1.06h.89c.09,0,.16.06.16.16v.5c0,.09-.06.16-.16.16h-.89v2.67c0,.43.16.74.6.74.09,0,.19-.02.3-.06.1-.03.18-.01.21.09l.17.5Z"/>
    <path class="cls-1" d="M90.3,7.45c-1.5,0-2.56-1.11-2.56-2.62s1.07-2.62,2.56-2.62,2.55,1.11,2.55,2.62-1.06,2.62-2.55,2.62ZM90.3,6.58c1.02,0,1.64-.77,1.64-1.74s-.62-1.74-1.64-1.74-1.65.77-1.65,1.74.62,1.74,1.65,1.74Z"/>
    <path class="cls-1" d="M96.12,9.53c-.74,0-1.47-.18-2.19-.72-.07-.06-.08-.13-.04-.22l.3-.52c.05-.09.12-.1.22-.04.49.37,1.09.62,1.72.62,1.11,0,1.71-.71,1.71-1.83v-.06c-.27.33-.9.69-1.72.69-1.53,0-2.46-1.2-2.46-2.62,0-1.6,1.18-2.62,2.54-2.62.69,0,1.32.26,1.64.7v-.22c0-.08.04-.15.12-.18l.59-.22c.1-.04.18,0,.18.11v4.23c0,2.01-1.02,2.89-2.62,2.89ZM96.23,6.57c.9,0,1.63-.59,1.63-1.74s-.73-1.73-1.63-1.73-1.65.59-1.65,1.73.75,1.74,1.65,1.74Z"/>
    <path class="cls-1" d="M102.26,2.22c1.42,0,2.29,1.12,2.29,2.37v.38c0,.09-.06.16-.16.16h-3.75c.11.81.69,1.45,1.69,1.45.56,0,1.06-.2,1.57-.57.09-.06.17-.05.22.03l.29.44c.05.07.04.16-.03.22-.56.5-1.32.76-2.06.76-1.64,0-2.62-1.09-2.62-2.59,0-1.64,1.14-2.65,2.54-2.65ZM100.68,4.31h2.93c-.04-.64-.5-1.23-1.36-1.23-.81,0-1.39.47-1.57,1.23Z"/>
    <path class="cls-1" d="M108.01,7.09c.03.08,0,.17-.1.22-.23.1-.43.15-.64.15-1.15,0-1.42-.75-1.42-1.64v-2.66h-.65c-.09,0-.16-.06-.16-.16v-.5c0-.09.06-.16.16-.16h.65v-.79c0-.08.04-.15.12-.18l.59-.22c.1-.04.18.01.18.12v1.06h.89c.09,0,.16.06.16.16v.5c0,.09-.06.16-.16.16h-.89v2.67c0,.43.16.74.6.74.09,0,.19-.02.3-.06.1-.03.18-.01.21.09l.17.5Z"/>
    <path class="cls-1" d="M109.03,7.32c-.09,0-.16-.06-.16-.16V.41c0-.08.04-.15.12-.18l.59-.22c.1-.04.18.01.18.12v2.81c.35-.52,1-.74,1.56-.74,1.1,0,1.97.76,1.97,2.23v2.72c0,.09-.06.16-.16.16h-.58c-.09,0-.16-.06-.16-.16v-2.69c0-.89-.52-1.38-1.29-1.38s-1.35.5-1.35,1.38v2.69c0,.09-.06.16-.16.16h-.58Z"/>
    <path class="cls-1" d="M116.75,2.22c1.42,0,2.29,1.12,2.29,2.37v.38c0,.09-.06.16-.16.16h-3.75c.11.81.69,1.45,1.69,1.45.56,0,1.06-.2,1.57-.57.09-.06.17-.05.22.03l.29.44c.05.07.04.16-.03.22-.56.5-1.32.76-2.06.76-1.64,0-2.62-1.09-2.62-2.59,0-1.64,1.14-2.65,2.54-2.65ZM115.17,4.31h2.93c-.04-.64-.5-1.23-1.36-1.23-.81,0-1.39.47-1.57,1.23Z"/>
    <path class="cls-1" d="M123.38,2.82c.03.09,0,.17-.09.21l-2.38.99v3.16c0,.09-.06.16-.16.16h-.58c-.09,0-.16-.06-.16-.16V2.69c0-.08.04-.15.12-.18l.59-.22c.1-.04.18.01.18.12v.72l2.08-.86c.09-.04.17-.01.21.08l.19.46Z"/>
  </g>
</svg>