<?xml version="1.0" encoding="UTF-8"?>
<svg id="Layer_2" data-name="Layer 2" xmlns="http://www.w3.org/2000/svg" viewBox="0 0 124.41 9.71">
  <defs>
    <style>
      .cls-1 {
        fill: #243746;
      }
    </style>
  </defs>
  <g id="Layer_1-2" data-name="Layer 1">
    <path class="cls-1" d="M2.4,7.47c-.08,0-.15-.03-.18-.13L0,.25C-.02.13.03.07.15.07h.71c.08,0,.16.05.18.14l1.72,5.77L4.48.21c.02-.08.1-.14.18-.14h.8c.08,0,.16.05.18.14l1.72,5.77L9.09.21c.02-.08.1-.14.18-.14h.71c.12,0,.17.06.14.18l-2.21,7.09c-.03.1-.1.13-.18.13h-.72c-.08,0-.16-.05-.18-.14l-1.77-5.81-1.77,5.81c-.02.08-.1.14-.18.14h-.72Z"/>
    <path class="cls-1" d="M12.64,2.27c1.45,0,2.34,1.14,2.34,2.41v.39c0,.1-.06.16-.16.16h-3.82c.12.82.7,1.48,1.72,1.48.57,0,1.08-.2,1.6-.58.1-.06.17-.05.22.03l.3.44c.05.07.04.16-.03.22-.57.51-1.34.77-2.09.77-1.67,0-2.66-1.11-2.66-2.63,0-1.67,1.16-2.7,2.59-2.7ZM11.04,4.4h2.98c-.04-.66-.51-1.25-1.38-1.25-.82,0-1.42.48-1.6,1.25Z"/>
    <path class="cls-1" d="M18.46,7.47c-.1,0-.16-.06-.16-.16V.43c0-.08.04-.15.13-.18l.6-.22c.11-.04.18.01.18.13v7.16c0,.1-.06.16-.16.16h-.59Z"/>
    <path class="cls-1" d="M22.82,7.6c-1.52,0-2.61-1.13-2.61-2.66s1.09-2.66,2.61-2.66,2.6,1.13,2.6,2.66-1.08,2.66-2.6,2.66ZM22.82,6.71c1.04,0,1.67-.78,1.67-1.78s-.63-1.78-1.67-1.78-1.68.78-1.68,1.78.63,1.78,1.68,1.78Z"/>
    <path class="cls-1" d="M28.85,7.6c-1.52,0-2.61-1.13-2.61-2.66s1.09-2.66,2.61-2.66,2.6,1.13,2.6,2.66-1.08,2.66-2.6,2.66ZM28.85,6.71c1.04,0,1.67-.78,1.67-1.78s-.63-1.78-1.67-1.78-1.68.78-1.68,1.78.63,1.78,1.68,1.78Z"/>
    <path class="cls-1" d="M36.42,7.28c.08.1.05.19-.08.19h-.78c-.07,0-.14-.02-.19-.08l-2.01-2.19v2.11c0,.1-.06.16-.16.16h-.59c-.1,0-.16-.06-.16-.16V.43c0-.08.04-.15.13-.18l.6-.22c.11-.04.18.01.18.13v4.2l1.88-1.87c.06-.06.13-.08.2-.08h.78c.14,0,.18.1.08.19l-2.16,2.16,2.27,2.54Z"/>
    <path class="cls-1" d="M41.97.17c.1.05.13.12.1.2l-.18.52c-.03.1-.11.13-.21.07-.13-.05-.2-.05-.31-.05-.45,0-.61.32-.61.75v.73h.87c.1,0,.16.06.16.16v.51c0,.1-.06.16-.16.16h-.87v4.09c0,.1-.06.16-.16.16h-.59c-.1,0-.16-.06-.16-.16V3.22h-.44c-.1,0-.16-.06-.16-.16v-.51c0-.1.06-.16.16-.16h.44v-.72c0-.72.17-1.67,1.42-1.67.25,0,.5.05.71.17Z"/>
    <path class="cls-1" d="M44.97,7.6c-1.52,0-2.61-1.13-2.61-2.66s1.09-2.66,2.61-2.66,2.6,1.13,2.6,2.66-1.08,2.66-2.6,2.66ZM44.97,6.71c1.04,0,1.67-.78,1.67-1.78s-.63-1.78-1.67-1.78-1.68.78-1.68,1.78.63,1.78,1.68,1.78Z"/>
    <path class="cls-1" d="M51.99,2.88c.03.1,0,.17-.1.21l-2.42,1v3.21c0,.1-.06.16-.16.16h-.59c-.1,0-.16-.06-.16-.16V2.75c0-.08.04-.15.13-.18l.6-.22c.11-.04.18.01.18.13v.73l2.11-.88c.1-.04.17-.01.21.08l.19.47Z"/>
    <path class="cls-1" d="M54.13,7.47c-.08,0-.15-.03-.18-.13l-1.54-4.77c-.03-.11.01-.18.13-.18h.6c.08,0,.16.04.18.13l1.09,3.54,1.06-3.53c.02-.08.1-.14.18-.14h.6c.08,0,.16.05.18.14l1.06,3.53,1.09-3.54c.02-.08.1-.13.18-.13h.58c.12,0,.17.06.14.18l-1.53,4.77c-.03.1-.1.13-.18.13h-.55c-.08,0-.16-.04-.18-.13l-1.08-3.52-1.09,3.52c-.02.08-.1.13-.18.13h-.55Z"/>
    <path class="cls-1" d="M62.46,7.6c-1.61,0-2.54-1.23-2.54-2.67,0-1.62,1.21-2.65,2.59-2.65.7,0,1.34.26,1.67.71v-.22c0-.08.04-.15.13-.18l.6-.22c.11-.04.18,0,.18.12v4.84c0,.1-.06.16-.16.16h-.59c-.1,0-.16-.06-.16-.16v-.41c-.3.37-.99.7-1.72.7ZM62.52,6.7c.94,0,1.67-.6,1.67-1.78s-.73-1.77-1.67-1.77-1.67.6-1.67,1.77.77,1.78,1.67,1.78Z"/>
    <path class="cls-1" d="M69.67,2.88c.03.1,0,.17-.1.21l-2.42,1v3.21c0,.1-.06.16-.16.16h-.59c-.1,0-.16-.06-.16-.16V2.75c0-.08.04-.15.13-.18l.6-.22c.11-.04.18.01.18.13v.73l2.11-.88c.1-.04.17-.01.21.08l.19.47Z"/>
    <path class="cls-1" d="M72.5,7.6c-1.61,0-2.54-1.23-2.54-2.67,0-1.62,1.21-2.65,2.59-2.65.7,0,1.34.26,1.67.71V.42c0-.08.04-.15.13-.18l.6-.22c.11-.04.18,0,.18.12v7.18c0,.1-.06.16-.16.16h-.59c-.1,0-.16-.06-.16-.16v-.41c-.3.37-.99.7-1.72.7ZM72.56,6.7c.94,0,1.67-.6,1.67-1.78s-.73-1.77-1.67-1.77-1.67.6-1.67,1.77.77,1.78,1.67,1.78Z"/>
    <path class="cls-1" d="M81.23,7.23c.03.08,0,.17-.11.22-.23.11-.43.15-.66.15-1.17,0-1.45-.76-1.45-1.67v-2.71h-.67c-.1,0-.16-.06-.16-.16v-.51c0-.1.06-.16.16-.16h.67v-.8c0-.08.04-.15.13-.18l.6-.22c.11-.04.18.01.18.13v1.08h.91c.1,0,.16.06.16.16v.51c0,.1-.06.16-.16.16h-.91v2.72c0,.43.16.75.61.75.1,0,.19-.02.31-.06.11-.03.18-.01.21.1l.17.51Z"/>
    <path class="cls-1" d="M84.36,7.6c-1.52,0-2.61-1.13-2.61-2.66s1.09-2.66,2.61-2.66,2.6,1.13,2.6,2.66-1.08,2.66-2.6,2.66ZM84.36,6.71c1.04,0,1.67-.78,1.67-1.78s-.63-1.78-1.67-1.78-1.68.78-1.68,1.78.63,1.78,1.68,1.78Z"/>
    <path class="cls-1" d="M92.9,7.23c.03.08,0,.17-.11.22-.23.11-.43.15-.66.15-1.17,0-1.45-.76-1.45-1.67v-2.71h-.67c-.1,0-.16-.06-.16-.16v-.51c0-.1.06-.16.16-.16h.67v-.8c0-.08.04-.15.13-.18l.6-.22c.11-.04.18.01.18.13v1.08h.91c.1,0,.16.06.16.16v.51c0,.1-.06.16-.16.16h-.91v2.72c0,.43.16.75.61.75.1,0,.19-.02.31-.06.11-.03.18-.01.21.1l.17.51Z"/>
    <path class="cls-1" d="M95.96,7.6c-1.61,0-2.54-1.23-2.54-2.67,0-1.62,1.21-2.65,2.59-2.65.7,0,1.34.26,1.67.71v-.22c0-.08.04-.15.13-.18l.6-.22c.11-.04.18,0,.18.12v4.84c0,.1-.06.16-.16.16h-.59c-.1,0-.16-.06-.16-.16v-.41c-.3.37-.99.7-1.72.7ZM96.02,6.7c.94,0,1.67-.6,1.67-1.78s-.73-1.77-1.67-1.77-1.67.6-1.67,1.77.77,1.78,1.67,1.78Z"/>
    <path class="cls-1" d="M102.2,7.6c-1.51,0-2.62-1.13-2.62-2.66s1.11-2.66,2.62-2.66c.68,0,1.23.18,1.63.48.08.06.08.14.04.22l-.27.48c-.05.1-.13.12-.21.06-.23-.15-.55-.35-1.12-.35-1.11,0-1.75.78-1.75,1.78s.64,1.78,1.75,1.78c.56,0,.89-.18,1.14-.34.08-.04.16-.02.21.06l.25.47c.04.08.05.15.02.18-.32.25-.95.52-1.69.52Z"/>
    <path class="cls-1" d="M108.88,7.28c.08.1.05.19-.08.19h-.78c-.07,0-.14-.02-.19-.08l-2.01-2.19v2.11c0,.1-.06.16-.16.16h-.59c-.1,0-.16-.06-.16-.16V.43c0-.08.04-.15.13-.18l.6-.22c.11-.04.18.01.18.13v4.2l1.88-1.87c.06-.06.13-.08.2-.08h.78c.14,0,.18.1.08.19l-2.16,2.16,2.27,2.54Z"/>
    <path class="cls-1" d="M109.82,7.47c-.1,0-.16-.06-.16-.16V.43c0-.08.04-.15.13-.18l.6-.22c.11-.04.18.01.18.13v7.16c0,.1-.06.16-.16.16h-.59Z"/>
    <path class="cls-1" d="M111.88,1.81c-.11.03-.18-.01-.18-.13v-.75c0-.08.04-.15.13-.18l.67-.25c.11-.04.18.01.18.13v.78c0,.08-.04.15-.13.18l-.67.22ZM111.89,7.47c-.1,0-.16-.06-.16-.16V2.75c0-.08.04-.15.13-.18l.6-.22c.11-.04.18.01.18.13v4.83c0,.1-.06.16-.16.16h-.59Z"/>
    <path class="cls-1" d="M113.97,7.47c-.1,0-.16-.06-.16-.16V2.75c0-.08.04-.15.13-.18l.6-.22c.11-.04.18.01.18.13v.54c.39-.57.99-.75,1.54-.75,1.14,0,2.05.77,2.05,2.27v2.77c0,.1-.06.16-.16.16h-.59c-.1,0-.16-.06-.16-.16v-2.74c0-.91-.53-1.41-1.31-1.41s-1.37.51-1.37,1.41v2.74c0,.1-.06.16-.16.16h-.59Z"/>
    <path class="cls-1" d="M121.75,9.71c-.75,0-1.5-.18-2.23-.73-.07-.06-.08-.14-.04-.22l.31-.53c.05-.1.13-.11.22-.04.5.38,1.11.63,1.75.63,1.13,0,1.74-.72,1.74-1.86v-.06c-.27.34-.92.7-1.75.7-1.55,0-2.51-1.23-2.51-2.66,0-1.63,1.21-2.66,2.59-2.66.7,0,1.34.26,1.67.71v-.22c0-.08.04-.15.13-.18l.6-.22c.11-.04.18,0,.18.12v4.3c0,2.05-1.04,2.94-2.66,2.94ZM121.85,6.7c.92,0,1.66-.6,1.66-1.78s-.74-1.77-1.66-1.77-1.68.6-1.68,1.77.76,1.78,1.68,1.78Z"/>
  </g>
</svg>