<?xml version="1.0" encoding="UTF-8"?>
<svg id="Layer_2" data-name="Layer 2" xmlns="http://www.w3.org/2000/svg" viewBox="0 0 148.34 22.65">
  <defs>
    <style>
      .cls-1 {
        fill: #243746;
      }
    </style>
  </defs>
  <g id="Layer_1-2" data-name="Layer 1">
    <path class="cls-1" d="M8.1,6.8c.07.22,0,.4-.23.5l-5.72,2.38v7.6c0,.23-.15.38-.38.38H.38c-.22,0-.38-.15-.38-.38V6.5c0-.2.1-.35.3-.43l1.43-.52c.25-.1.43.02.43.3v1.72l5-2.07c.22-.1.4-.03.5.2l.45,1.1Z"/>
    <path class="cls-1" d="M15.15,5.35c3.42,0,5.52,2.7,5.52,5.7v.93c0,.22-.15.38-.38.38h-9.02c.28,1.95,1.65,3.5,4.07,3.5,1.35,0,2.55-.48,3.78-1.38.23-.15.4-.12.52.07l.7,1.05c.12.17.1.38-.08.52-1.35,1.2-3.17,1.83-4.95,1.83-3.95,0-6.3-2.63-6.3-6.23,0-3.95,2.75-6.38,6.12-6.38ZM11.35,10.4h7.05c-.1-1.55-1.2-2.95-3.27-2.95-1.95,0-3.35,1.12-3.78,2.95Z"/>
    <path class="cls-1" d="M33.32,22.65c-.23,0-.38-.15-.38-.38v-5.98c-.7.88-2.35,1.65-4.08,1.65-3.8,0-6-2.9-6-6.33,0-3.82,2.85-6.28,6.12-6.28,1.65,0,3.17.62,3.95,1.68v-.53c0-.2.1-.35.3-.43l1.42-.52c.25-.1.42,0,.42.27v16.45c0,.23-.15.38-.38.38h-1.4ZM29.02,15.82c2.23,0,3.95-1.43,3.95-4.2s-1.72-4.18-3.95-4.18-3.95,1.43-3.95,4.18,1.82,4.2,3.95,4.2Z"/>
    <path class="cls-1" d="M42.79,17.95c-2.7,0-4.85-1.83-4.85-5.38v-6.07c0-.2.1-.35.3-.43l1.42-.52c.25-.1.42.02.42.3v6.65c0,2.15,1.25,3.32,3.1,3.32s3.25-1.2,3.25-3.32v-6c0-.2.1-.35.3-.43l1.42-.52c.25-.1.42.02.42.3v11.42c0,.23-.15.38-.38.38h-1.4c-.23,0-.38-.15-.38-.38v-1.1c-.93,1.35-2.35,1.78-3.65,1.78Z"/>
    <path class="cls-1" d="M51.94,4.28c-.25.07-.42-.03-.42-.3v-1.77c0-.2.1-.35.3-.43l1.58-.6c.25-.1.42.03.42.3v1.85c0,.2-.1.35-.3.42l-1.58.53ZM51.96,17.65c-.22,0-.38-.15-.38-.38V6.5c0-.2.1-.35.3-.43l1.42-.52c.25-.1.42.02.42.3v11.42c0,.23-.15.38-.38.38h-1.4Z"/>
    <path class="cls-1" d="M64.84,6.8c.07.22,0,.4-.23.5l-5.72,2.38v7.6c0,.23-.15.38-.38.38h-1.4c-.22,0-.38-.15-.38-.38V6.5c0-.2.1-.35.3-.43l1.42-.52c.25-.1.43.02.43.3v1.72l5-2.07c.22-.1.4-.03.5.2l.45,1.1Z"/>
    <path class="cls-1" d="M71.89,5.35c3.43,0,5.53,2.7,5.53,5.7v.93c0,.22-.15.38-.38.38h-9.03c.28,1.95,1.65,3.5,4.07,3.5,1.35,0,2.55-.48,3.78-1.38.22-.15.4-.12.53.07l.7,1.05c.12.17.1.38-.07.52-1.35,1.2-3.18,1.83-4.95,1.83-3.95,0-6.3-2.63-6.3-6.23,0-3.95,2.75-6.38,6.12-6.38ZM68.09,10.4h7.05c-.1-1.55-1.2-2.95-3.28-2.95-1.95,0-3.35,1.12-3.78,2.95Z"/>
    <path class="cls-1" d="M84.2,17.95c-1.78,0-3.58-.58-4.65-1.83-.15-.15-.12-.35,0-.52l.8-1.03c.15-.2.33-.2.53-.05.75.65,1.75,1.33,3.38,1.33s2.4-.5,2.4-1.48-.88-1.4-2.5-1.8c-2.03-.5-4.25-1.1-4.25-3.55,0-2.15,1.7-3.67,4.38-3.67,1.72,0,2.95.6,3.75,1.25.18.18.18.33.03.53l-.8,1c-.15.18-.32.23-.53.07-.57-.4-1.38-.75-2.4-.75-1.23,0-2.28.48-2.28,1.45,0,.9.9,1.25,2.6,1.65,2.47.57,4.1,1.5,4.1,3.68,0,3.05-2.72,3.73-4.55,3.73Z"/>
    <path class="cls-1" d="M102.62,17.95c-3.8,0-6-2.9-6-6.33,0-3.82,2.85-6.28,6.12-6.28,1.65,0,3.17.62,3.95,1.68v-.53c0-.2.1-.35.3-.43l1.42-.52c.25-.1.43,0,.43.27v11.45c0,.23-.15.38-.38.38h-1.4c-.22,0-.38-.15-.38-.38v-.98c-.7.88-2.35,1.65-4.07,1.65ZM102.77,15.82c2.22,0,3.95-1.43,3.95-4.2s-1.72-4.18-3.95-4.18-3.95,1.43-3.95,4.18,1.82,4.2,3.95,4.2Z"/>
    <path class="cls-1" d="M112.22,17.65c-.23,0-.38-.15-.38-.38V1c0-.2.1-.35.3-.42l1.43-.53c.25-.1.42.03.42.3v16.92c0,.23-.15.38-.38.38h-1.4Z"/>
    <path class="cls-1" d="M117.37,17.65c-.22,0-.38-.15-.38-.38V1c0-.2.1-.35.3-.42l1.43-.53c.25-.1.42.03.42.3v16.92c0,.23-.15.38-.38.38h-1.4Z"/>
    <path class="cls-1" d="M133.68,17.95c-3.6,0-6.17-2.68-6.17-6.3s2.58-6.3,6.17-6.3,6.15,2.67,6.15,6.3-2.55,6.3-6.15,6.3ZM133.68,15.85c2.45,0,3.95-1.85,3.95-4.2s-1.5-4.2-3.95-4.2-3.97,1.85-3.97,4.2,1.5,4.2,3.97,4.2Z"/>
    <path class="cls-1" d="M148.08.4c.23.12.3.28.23.47l-.43,1.22c-.07.23-.25.3-.5.18-.3-.12-.48-.12-.73-.12-1.07,0-1.45.75-1.45,1.77v1.73h2.05c.22,0,.38.15.38.38v1.2c0,.22-.15.38-.38.38h-2.05v9.67c0,.23-.15.38-.38.38h-1.4c-.23,0-.38-.15-.38-.38V7.6h-1.05c-.23,0-.38-.15-.38-.38v-1.2c0-.22.15-.38.38-.38h1.05v-1.7c0-1.7.4-3.95,3.35-3.95.6,0,1.18.12,1.68.4Z"/>
  </g>
</svg>