<?xml version="1.0" encoding="UTF-8"?>
<svg id="Layer_2" data-name="Layer 2" xmlns="http://www.w3.org/2000/svg" viewBox="0 0 100.64 11.88">
  <defs>
    <style>
      .cls-1 {
        fill: #243746;
      }
    </style>
  </defs>
  <g id="Layer_1-2" data-name="Layer 1">
    <path class="cls-1" d="M7.36.09c.2,0,.31.12.31.3v1.36c0,.18-.12.3-.31.3H2.14v3.31h3.91c.2,0,.31.12.31.3v1.36c0,.18-.12.3-.31.3h-3.91v4.08c0,.18-.1.3-.3.3H.31c-.2,0-.31-.12-.31-.3V.39C0,.2.12.09.31.09h7.04Z"/>
    <path class="cls-1" d="M9.38,3.17c-.22.07-.36-.03-.36-.25v-1.47c0-.17.08-.28.25-.35l1.49-.53c.22-.08.35.03.35.25v1.51c0,.17-.07.28-.25.35l-1.47.5ZM9.38,11.68c-.18,0-.3-.12-.3-.3v-6.91c0-.17.08-.28.25-.35l1.36-.46c.22-.08.35.03.35.25v7.47c0,.18-.12.3-.31.3h-1.34Z"/>
    <path class="cls-1" d="M12.97,11.68c-.2,0-.31-.12-.31-.3v-6.91c0-.17.08-.28.25-.35l1.36-.46c.22-.08.35.03.35.25v.8c.56-.8,1.44-1.18,2.49-1.18,1.69,0,3.15,1.21,3.15,3.56v4.29c0,.18-.1.3-.3.3h-1.34c-.2,0-.31-.12-.31-.3v-4.06c0-1.24-.71-1.92-1.79-1.92s-1.89.7-1.89,1.92v4.06c0,.18-.1.3-.3.3h-1.34Z"/>
    <path class="cls-1" d="M25.49,11.88c-2.55,0-3.93-1.92-3.93-4.17,0-2.55,1.74-4.17,3.94-4.17,1.14,0,2.07.46,2.5,1.06V.88c0-.17.1-.28.25-.35L29.61.02c.22-.07.35.02.35.25v11.12c0,.18-.1.3-.3.3h-1.34c-.2,0-.31-.12-.31-.3v-.55c-.43.55-1.36,1.04-2.52,1.04ZM25.79,10.08c1.29,0,2.24-.83,2.24-2.37s-.94-2.37-2.24-2.37-2.22.81-2.22,2.37.96,2.37,2.22,2.37Z"/>
    <path class="cls-1" d="M39.22,11.88c-2.47,0-4.19-1.77-4.19-4.17s1.72-4.17,4.19-4.17,4.19,1.77,4.19,4.17-1.72,4.17-4.19,4.17ZM39.22,10.03c1.39,0,2.17-1.01,2.17-2.32s-.78-2.32-2.17-2.32-2.17,1.01-2.17,2.32.78,2.32,2.17,2.32Z"/>
    <path class="cls-1" d="M47.88,11.88c-1.69,0-3.15-1.21-3.15-3.56v-3.81c0-.18.08-.3.25-.36l1.36-.48c.2-.08.35.03.35.25v4.17c0,1.24.73,1.92,1.81,1.92s1.87-.7,1.87-1.92v-3.58c0-.18.08-.3.25-.36l1.36-.48c.2-.08.35.03.35.25v7.47c0,.18-.12.3-.31.3h-1.34c-.18,0-.3-.12-.3-.3v-.68c-.56.8-1.44,1.18-2.48,1.18Z"/>
    <path class="cls-1" d="M58.63,11.17c.05.17.02.3-.15.38-.43.22-.83.33-1.44.33-1.84,0-2.5-1.19-2.5-2.62v-3.78h-.88c-.2,0-.3-.12-.3-.31v-1.14c0-.18.1-.3.3-.3h.88v-1.08c0-.17.07-.28.23-.35l1.36-.5c.22-.08.36.03.36.25v1.67h1.38c.2,0,.3.12.3.3v1.14c0,.2-.1.31-.3.31h-1.38v3.48c0,.6.17,1.03.81,1.03.2,0,.36-.05.58-.13.2-.1.33-.05.4.17l.35,1.14Z"/>
    <path class="cls-1" d="M63.84,11.68c-.2,0-.31-.12-.31-.3v-6.91c0-.17.08-.28.25-.35l1.36-.46c.22-.08.35.03.35.25v.68c.33-.53,1.24-1.06,2.25-1.06s1.77.51,2.14,1.24c.51-.84,1.44-1.24,2.42-1.24,1.52,0,2.93,1.04,2.93,3.4v4.46c0,.18-.12.3-.31.3h-1.34c-.2,0-.3-.12-.3-.3v-4.27c0-1.11-.55-1.71-1.41-1.71s-1.51.58-1.51,1.71v4.27c0,.18-.1.3-.3.3h-1.34c-.2,0-.31-.12-.31-.3v-4.27c0-1.16-.51-1.71-1.41-1.71-.8,0-1.51.6-1.51,1.71v4.27c0,.18-.1.3-.3.3h-1.34Z"/>
    <path class="cls-1" d="M80.73,11.88c-2.47,0-4.19-1.77-4.19-4.17s1.72-4.17,4.19-4.17,4.19,1.77,4.19,4.17-1.72,4.17-4.19,4.17ZM80.73,10.03c1.39,0,2.17-1.01,2.17-2.32s-.78-2.32-2.17-2.32-2.17,1.01-2.17,2.32.78,2.32,2.17,2.32Z"/>
    <path class="cls-1" d="M92.34,4.86c.07.18.02.33-.17.4l-3.88,1.59v4.54c0,.18-.1.3-.3.3h-1.34c-.2,0-.31-.12-.31-.3v-6.91c0-.17.08-.28.25-.35l1.36-.46c.22-.08.35.03.35.25v1.08l3.2-1.34c.2-.07.33-.02.41.17l.43,1.04Z"/>
    <path class="cls-1" d="M96.92,3.53c2.34,0,3.73,1.82,3.73,3.78v.7c0,.2-.12.3-.31.3h-5.6c.22,1.01,1.01,1.79,2.32,1.79.88,0,1.61-.28,2.24-.68.18-.1.33-.07.41.12l.53.96c.08.17.07.31-.05.4-.83.63-1.84.99-3.15.99-2.65,0-4.22-1.76-4.22-4.12,0-2.57,1.84-4.22,4.11-4.22ZM94.78,6.86h4.03c-.12-.83-.73-1.54-1.89-1.54-1.08,0-1.87.58-2.14,1.54Z"/>
  </g>
</svg>