<svg width="359" height="39" viewBox="0 0 359 39" fill="none" xmlns="http://www.w3.org/2000/svg">
<path d="M4.26601 12.762C4.12201 12.762 4.01401 12.708 3.96001 12.546L0.198015 0.467993C0.144015 0.269993 0.234015 0.161993 0.432015 0.161993H1.63801C1.78201 0.161993 1.90801 0.251992 1.94401 0.395993L4.87801 10.224L7.81202 0.395993C7.84802 0.251992 7.97402 0.161993 8.11801 0.161993H9.48602C9.63001 0.161993 9.75602 0.251992 9.79201 0.395993L12.726 10.224L15.66 0.395993C15.696 0.251992 15.822 0.161993 15.966 0.161993H17.172C17.37 0.161993 17.46 0.269993 17.406 0.467993L13.644 12.546C13.59 12.708 13.482 12.762 13.338 12.762H12.114C11.97 12.762 11.844 12.672 11.808 12.528L8.80201 2.62799L5.79601 12.528C5.76001 12.672 5.63401 12.762 5.49001 12.762H4.26601ZM21.7128 3.90599C24.1788 3.90599 25.6908 5.84999 25.6908 8.00999V8.67599C25.6908 8.83799 25.5828 8.94599 25.4208 8.94599H18.9228C19.1208 10.35 20.1108 11.466 21.8568 11.466C22.8288 11.466 23.6928 11.124 24.5748 10.476C24.7368 10.368 24.8628 10.386 24.9528 10.53L25.4568 11.286C25.5468 11.412 25.5288 11.556 25.4028 11.664C24.4308 12.528 23.1168 12.978 21.8388 12.978C18.9948 12.978 17.3028 11.088 17.3028 8.49599C17.3028 5.65199 19.2828 3.90599 21.7128 3.90599ZM18.9768 7.54199H24.0528C23.9808 6.42599 23.1888 5.41799 21.6948 5.41799C20.2908 5.41799 19.2828 6.22799 18.9768 7.54199ZM31.616 12.762C31.454 12.762 31.346 12.654 31.346 12.492V0.773993C31.346 0.629993 31.418 0.521993 31.562 0.467993L32.588 0.0899924C32.768 0.0179933 32.894 0.107993 32.894 0.305993V12.492C32.894 12.654 32.786 12.762 32.624 12.762H31.616ZM39.033 12.978C36.441 12.978 34.587 11.052 34.587 8.44199C34.587 5.83199 36.441 3.90599 39.033 3.90599C41.625 3.90599 43.461 5.83199 43.461 8.44199C43.461 11.052 41.625 12.978 39.033 12.978ZM39.033 11.466C40.797 11.466 41.877 10.134 41.877 8.44199C41.877 6.74999 40.797 5.41799 39.033 5.41799C37.251 5.41799 36.171 6.74999 36.171 8.44199C36.171 10.134 37.251 11.466 39.033 11.466ZM49.312 12.978C46.72 12.978 44.866 11.052 44.866 8.44199C44.866 5.83199 46.72 3.90599 49.312 3.90599C51.904 3.90599 53.74 5.83199 53.74 8.44199C53.74 11.052 51.904 12.978 49.312 12.978ZM49.312 11.466C51.076 11.466 52.156 10.134 52.156 8.44199C52.156 6.74999 51.076 5.41799 49.312 5.41799C47.53 5.41799 46.45 6.74999 46.45 8.44199C46.45 10.134 47.53 11.466 49.312 11.466ZM62.201 12.438C62.345 12.6 62.291 12.762 62.057 12.762H60.725C60.599 12.762 60.491 12.726 60.401 12.618L56.981 8.89199V12.492C56.981 12.654 56.873 12.762 56.711 12.762H55.703C55.541 12.762 55.433 12.654 55.433 12.492V0.773993C55.433 0.629993 55.505 0.521993 55.649 0.467993L56.675 0.0899924C56.855 0.0179933 56.981 0.107993 56.981 0.305993V7.45199L60.185 4.26599C60.293 4.15799 60.401 4.12199 60.527 4.12199H61.859C62.093 4.12199 62.165 4.28399 62.003 4.44599L58.331 8.11799L62.201 12.438ZM71.6407 0.341992C71.8027 0.431992 71.8567 0.539993 71.8027 0.683993L71.4967 1.56599C71.4427 1.72799 71.3167 1.78199 71.1367 1.69199C70.9207 1.60199 70.7947 1.60199 70.6147 1.60199C69.8407 1.60199 69.5707 2.14199 69.5707 2.87999V4.12199H71.0467C71.2087 4.12199 71.3167 4.22999 71.3167 4.39199V5.25599C71.3167 5.41799 71.2087 5.52599 71.0467 5.52599H69.5707V12.492C69.5707 12.654 69.4627 12.762 69.3007 12.762H68.2927C68.1307 12.762 68.0227 12.654 68.0227 12.492V5.52599H67.2667C67.1047 5.52599 66.9967 5.41799 66.9967 5.25599V4.39199C66.9967 4.22999 67.1047 4.12199 67.2667 4.12199H68.0227V2.89799C68.0227 1.67399 68.3107 0.0539929 70.4347 0.0539929C70.8667 0.0539929 71.2807 0.143993 71.6407 0.341992ZM76.7522 12.978C74.1602 12.978 72.3062 11.052 72.3062 8.44199C72.3062 5.83199 74.1602 3.90599 76.7522 3.90599C79.3442 3.90599 81.1802 5.83199 81.1802 8.44199C81.1802 11.052 79.3442 12.978 76.7522 12.978ZM76.7522 11.466C78.5162 11.466 79.5962 10.134 79.5962 8.44199C79.5962 6.74999 78.5162 5.41799 76.7522 5.41799C74.9702 5.41799 73.8902 6.74999 73.8902 8.44199C73.8902 10.134 74.9702 11.466 76.7522 11.466ZM88.7051 4.94999C88.7591 5.11199 88.7051 5.23799 88.5431 5.30999L84.4211 7.01999V12.492C84.4211 12.654 84.3131 12.762 84.1511 12.762H83.1431C82.9811 12.762 82.8731 12.654 82.8731 12.492V4.73399C82.8731 4.58999 82.9451 4.48199 83.0891 4.42799L84.1151 4.04999C84.2951 3.97799 84.4211 4.06799 84.4211 4.26599V5.50799L88.0211 4.01399C88.1831 3.94199 88.3091 3.99599 88.3811 4.15799L88.7051 4.94999ZM92.3624 12.762C92.2184 12.762 92.1104 12.708 92.0564 12.546L89.4284 4.42799C89.3744 4.24799 89.4464 4.12199 89.6444 4.12199H90.6704C90.8144 4.12199 90.9404 4.19399 90.9764 4.33799L92.8304 10.368L94.6304 4.35599C94.6664 4.21199 94.7924 4.12199 94.9364 4.12199H95.9624C96.1064 4.12199 96.2324 4.21199 96.2684 4.35599L98.0684 10.368L99.9224 4.33799C99.9584 4.19399 100.084 4.12199 100.228 4.12199H101.218C101.416 4.12199 101.506 4.22999 101.452 4.42799L98.8424 12.546C98.7884 12.708 98.6804 12.762 98.5364 12.762H97.6004C97.4564 12.762 97.3304 12.69 97.2944 12.546L95.4584 6.55199L93.6044 12.546C93.5684 12.69 93.4424 12.762 93.2984 12.762H92.3624ZM106.531 12.978C103.795 12.978 102.211 10.89 102.211 8.42399C102.211 5.66999 104.263 3.90599 106.621 3.90599C107.809 3.90599 108.907 4.35599 109.465 5.11199V4.73399C109.465 4.58999 109.537 4.48199 109.681 4.42799L110.707 4.04999C110.887 3.97799 111.013 4.04999 111.013 4.24799V12.492C111.013 12.654 110.905 12.762 110.743 12.762H109.735C109.573 12.762 109.465 12.654 109.465 12.492V11.79C108.961 12.42 107.773 12.978 106.531 12.978ZM106.639 11.448C108.241 11.448 109.483 10.422 109.483 8.42399C109.483 6.44399 108.241 5.41799 106.639 5.41799C105.109 5.41799 103.795 6.44399 103.795 8.42399C103.795 10.404 105.109 11.448 106.639 11.448ZM118.821 4.94999C118.875 5.11199 118.821 5.23799 118.659 5.30999L114.537 7.01999V12.492C114.537 12.654 114.429 12.762 114.267 12.762H113.259C113.097 12.762 112.989 12.654 112.989 12.492V4.73399C112.989 4.58999 113.061 4.48199 113.205 4.42799L114.231 4.04999C114.411 3.97799 114.537 4.06799 114.537 4.26599V5.50799L118.137 4.01399C118.299 3.94199 118.425 3.99599 118.497 4.15799L118.821 4.94999ZM123.627 12.978C120.891 12.978 119.307 10.89 119.307 8.42399C119.307 5.66999 121.359 3.90599 123.717 3.90599C124.905 3.90599 126.003 4.35599 126.561 5.11199V0.755992C126.561 0.611993 126.633 0.503992 126.777 0.449993L127.803 0.0719926C127.983 -7.51019e-06 128.109 0.0719926 128.109 0.269993V12.492C128.109 12.654 128.001 12.762 127.839 12.762H126.831C126.669 12.762 126.561 12.654 126.561 12.492V11.79C126.057 12.42 124.869 12.978 123.627 12.978ZM123.735 11.448C125.337 11.448 126.579 10.422 126.579 8.42399C126.579 6.44399 125.337 5.41799 123.735 5.41799C122.205 5.41799 120.891 6.44399 120.891 8.42399C120.891 10.404 122.205 11.448 123.735 11.448ZM138.499 12.348C138.553 12.492 138.499 12.636 138.319 12.726C137.923 12.906 137.581 12.978 137.203 12.978C135.205 12.978 134.737 11.682 134.737 10.134V5.52599H133.603C133.441 5.52599 133.333 5.41799 133.333 5.25599V4.39199C133.333 4.22999 133.441 4.12199 133.603 4.12199H134.737V2.75399C134.737 2.60999 134.809 2.50199 134.953 2.44799L135.979 2.06999C136.159 1.99799 136.285 2.08799 136.285 2.28599V4.12199H137.833C137.995 4.12199 138.103 4.22999 138.103 4.39199V5.25599C138.103 5.41799 137.995 5.52599 137.833 5.52599H136.285V10.152C136.285 10.89 136.555 11.43 137.329 11.43C137.491 11.43 137.653 11.394 137.851 11.322C138.031 11.268 138.157 11.304 138.211 11.484L138.499 12.348ZM143.832 12.978C141.24 12.978 139.386 11.052 139.386 8.44199C139.386 5.83199 141.24 3.90599 143.832 3.90599C146.424 3.90599 148.26 5.83199 148.26 8.44199C148.26 11.052 146.424 12.978 143.832 12.978ZM143.832 11.466C145.596 11.466 146.676 10.134 146.676 8.44199C146.676 6.74999 145.596 5.41799 143.832 5.41799C142.05 5.41799 140.97 6.74999 140.97 8.44199C140.97 10.134 142.05 11.466 143.832 11.466ZM158.367 12.348C158.421 12.492 158.367 12.636 158.187 12.726C157.791 12.906 157.449 12.978 157.071 12.978C155.073 12.978 154.605 11.682 154.605 10.134V5.52599H153.471C153.309 5.52599 153.201 5.41799 153.201 5.25599V4.39199C153.201 4.22999 153.309 4.12199 153.471 4.12199H154.605V2.75399C154.605 2.60999 154.677 2.50199 154.821 2.44799L155.847 2.06999C156.027 1.99799 156.153 2.08799 156.153 2.28599V4.12199H157.701C157.863 4.12199 157.971 4.22999 157.971 4.39199V5.25599C157.971 5.41799 157.863 5.52599 157.701 5.52599H156.153V10.152C156.153 10.89 156.423 11.43 157.197 11.43C157.359 11.43 157.521 11.394 157.719 11.322C157.899 11.268 158.025 11.304 158.079 11.484L158.367 12.348ZM163.574 12.978C160.838 12.978 159.254 10.89 159.254 8.42399C159.254 5.66999 161.306 3.90599 163.664 3.90599C164.852 3.90599 165.95 4.35599 166.508 5.11199V4.73399C166.508 4.58999 166.58 4.48199 166.724 4.42799L167.75 4.04999C167.93 3.97799 168.056 4.04999 168.056 4.24799V12.492C168.056 12.654 167.948 12.762 167.786 12.762H166.778C166.616 12.762 166.508 12.654 166.508 12.492V11.79C166.004 12.42 164.816 12.978 163.574 12.978ZM163.682 11.448C165.284 11.448 166.526 10.422 166.526 8.42399C166.526 6.44399 165.284 5.41799 163.682 5.41799C162.152 5.41799 160.838 6.44399 160.838 8.42399C160.838 10.404 162.152 11.448 163.682 11.448ZM174.208 12.978C171.634 12.978 169.744 11.052 169.744 8.44199C169.744 5.83199 171.634 3.90599 174.208 3.90599C175.36 3.90599 176.296 4.21199 176.98 4.71599C177.124 4.82399 177.124 4.94999 177.052 5.09399L176.584 5.90399C176.494 6.06599 176.368 6.10199 176.224 6.01199C175.828 5.75999 175.288 5.41799 174.316 5.41799C172.426 5.41799 171.328 6.74999 171.328 8.44199C171.328 10.134 172.426 11.466 174.316 11.466C175.27 11.466 175.828 11.16 176.26 10.89C176.404 10.818 176.53 10.854 176.62 10.998L177.052 11.79C177.124 11.934 177.142 12.042 177.088 12.096C176.548 12.528 175.468 12.978 174.208 12.978ZM185.585 12.438C185.729 12.6 185.675 12.762 185.441 12.762H184.109C183.983 12.762 183.875 12.726 183.785 12.618L180.365 8.89199V12.492C180.365 12.654 180.257 12.762 180.095 12.762H179.087C178.925 12.762 178.817 12.654 178.817 12.492V0.773993C178.817 0.629993 178.889 0.521993 179.033 0.467993L180.059 0.0899924C180.239 0.0179933 180.365 0.107993 180.365 0.305993V7.45199L183.569 4.26599C183.677 4.15799 183.785 4.12199 183.911 4.12199H185.243C185.477 4.12199 185.549 4.28399 185.387 4.44599L181.715 8.11799L185.585 12.438ZM187.186 12.762C187.024 12.762 186.916 12.654 186.916 12.492V0.773993C186.916 0.629993 186.988 0.521993 187.132 0.467993L188.158 0.0899924C188.338 0.0179933 188.464 0.107993 188.464 0.305993V12.492C188.464 12.654 188.356 12.762 188.194 12.762H187.186ZM190.697 3.13199C190.517 3.18599 190.391 3.11399 190.391 2.91599V1.63799C190.391 1.49399 190.463 1.38599 190.607 1.33199L191.741 0.899993C191.921 0.827993 192.047 0.917992 192.047 1.11599V2.44799C192.047 2.59199 191.975 2.69999 191.831 2.75399L190.697 3.13199ZM190.715 12.762C190.553 12.762 190.445 12.654 190.445 12.492V4.73399C190.445 4.58999 190.517 4.48199 190.661 4.42799L191.687 4.04999C191.867 3.97799 191.993 4.06799 191.993 4.26599V12.492C191.993 12.654 191.885 12.762 191.723 12.762H190.715ZM194.244 12.762C194.082 12.762 193.974 12.654 193.974 12.492V4.73399C193.974 4.58999 194.046 4.48199 194.19 4.42799L195.216 4.04999C195.396 3.97799 195.522 4.06799 195.522 4.26599V5.18399C196.188 4.21199 197.214 3.90599 198.15 3.90599C200.094 3.90599 201.642 5.21999 201.642 7.77599V12.492C201.642 12.654 201.534 12.762 201.372 12.762H200.364C200.202 12.762 200.094 12.654 200.094 12.492V7.82999C200.094 6.28199 199.194 5.43599 197.862 5.43599C196.512 5.43599 195.522 6.29999 195.522 7.82999V12.492C195.522 12.654 195.414 12.762 195.252 12.762H194.244ZM207.493 16.578C206.215 16.578 204.937 16.272 203.695 15.336C203.569 15.228 203.551 15.102 203.623 14.958L204.145 14.058C204.235 13.896 204.361 13.878 204.523 13.986C205.369 14.634 206.413 15.066 207.511 15.066C209.437 15.066 210.481 13.842 210.481 11.898V11.79C210.013 12.366 208.915 12.978 207.493 12.978C204.847 12.978 203.227 10.89 203.227 8.44199C203.227 5.66999 205.279 3.90599 207.637 3.90599C208.825 3.90599 209.923 4.35599 210.481 5.11199V4.73399C210.481 4.58999 210.553 4.48199 210.697 4.42799L211.723 4.04999C211.903 3.97799 212.029 4.04999 212.029 4.24799V11.574C212.029 15.066 210.265 16.578 207.493 16.578ZM207.673 11.448C209.239 11.448 210.499 10.422 210.499 8.42399C210.499 6.44399 209.239 5.41799 207.673 5.41799C206.107 5.41799 204.811 6.44399 204.811 8.42399C204.811 10.404 206.107 11.448 207.673 11.448ZM222.095 3.90599C224.561 3.90599 226.073 5.84999 226.073 8.00999V8.67599C226.073 8.83799 225.965 8.94599 225.803 8.94599H219.305C219.503 10.35 220.493 11.466 222.239 11.466C223.211 11.466 224.075 11.124 224.957 10.476C225.119 10.368 225.245 10.386 225.335 10.53L225.839 11.286C225.929 11.412 225.911 11.556 225.785 11.664C224.813 12.528 223.499 12.978 222.221 12.978C219.377 12.978 217.685 11.088 217.685 8.49599C217.685 5.65199 219.665 3.90599 222.095 3.90599ZM219.359 7.54199H224.435C224.363 6.42599 223.571 5.41799 222.077 5.41799C220.673 5.41799 219.665 6.22799 219.359 7.54199ZM228.03 12.762C227.868 12.762 227.76 12.654 227.76 12.492V4.73399C227.76 4.58999 227.832 4.48199 227.976 4.42799L229.002 4.04999C229.182 3.97799 229.308 4.06799 229.308 4.26599V5.18399C229.974 4.21199 231 3.90599 231.936 3.90599C233.88 3.90599 235.428 5.21999 235.428 7.77599V12.492C235.428 12.654 235.32 12.762 235.158 12.762H234.15C233.988 12.762 233.88 12.654 233.88 12.492V7.82999C233.88 6.28199 232.98 5.43599 231.648 5.43599C230.298 5.43599 229.308 6.29999 229.308 7.82999V12.492C229.308 12.654 229.2 12.762 229.038 12.762H228.03ZM241.422 3.90599C243.888 3.90599 245.4 5.84999 245.4 8.00999V8.67599C245.4 8.83799 245.292 8.94599 245.13 8.94599H238.632C238.83 10.35 239.82 11.466 241.566 11.466C242.538 11.466 243.402 11.124 244.284 10.476C244.446 10.368 244.572 10.386 244.662 10.53L245.166 11.286C245.256 11.412 245.238 11.556 245.112 11.664C244.14 12.528 242.826 12.978 241.548 12.978C238.704 12.978 237.012 11.088 237.012 8.49599C237.012 5.65199 238.992 3.90599 241.422 3.90599ZM238.686 7.54199H243.762C243.69 6.42599 242.898 5.41799 241.404 5.41799C240 5.41799 238.992 6.22799 238.686 7.54199ZM252.919 4.94999C252.973 5.11199 252.919 5.23799 252.757 5.30999L248.635 7.01999V12.492C248.635 12.654 248.527 12.762 248.365 12.762H247.357C247.195 12.762 247.087 12.654 247.087 12.492V4.73399C247.087 4.58999 247.159 4.48199 247.303 4.42799L248.329 4.04999C248.509 3.97799 248.635 4.06799 248.635 4.26599V5.50799L252.235 4.01399C252.397 3.94199 252.523 3.99599 252.595 4.15799L252.919 4.94999ZM257.67 16.578C256.392 16.578 255.114 16.272 253.872 15.336C253.746 15.228 253.728 15.102 253.8 14.958L254.322 14.058C254.412 13.896 254.538 13.878 254.7 13.986C255.546 14.634 256.59 15.066 257.688 15.066C259.614 15.066 260.658 13.842 260.658 11.898V11.79C260.19 12.366 259.092 12.978 257.67 12.978C255.024 12.978 253.404 10.89 253.404 8.44199C253.404 5.66999 255.456 3.90599 257.814 3.90599C259.002 3.90599 260.1 4.35599 260.658 5.11199V4.73399C260.658 4.58999 260.73 4.48199 260.874 4.42799L261.9 4.04999C262.08 3.97799 262.206 4.04999 262.206 4.24799V11.574C262.206 15.066 260.442 16.578 257.67 16.578ZM257.85 11.448C259.416 11.448 260.676 10.422 260.676 8.42399C260.676 6.44399 259.416 5.41799 257.85 5.41799C256.284 5.41799 254.988 6.44399 254.988 8.42399C254.988 10.404 256.284 11.448 257.85 11.448ZM271.526 4.12199C271.724 4.12199 271.814 4.24799 271.742 4.42799L266.72 16.164C266.666 16.308 266.558 16.362 266.414 16.362H265.28C265.082 16.362 264.992 16.236 265.064 16.056L266.792 12.006L263.552 4.42799C263.48 4.24799 263.57 4.12199 263.768 4.12199H264.92C265.064 4.12199 265.19 4.19399 265.244 4.33799L267.638 10.026L270.05 4.33799C270.104 4.19399 270.212 4.12199 270.356 4.12199H271.526ZM281.235 12.978C278.661 12.978 276.771 11.052 276.771 8.44199C276.771 5.83199 278.661 3.90599 281.235 3.90599C282.387 3.90599 283.323 4.21199 284.007 4.71599C284.151 4.82399 284.151 4.94999 284.079 5.09399L283.611 5.90399C283.521 6.06599 283.395 6.10199 283.251 6.01199C282.855 5.75999 282.315 5.41799 281.343 5.41799C279.453 5.41799 278.355 6.74999 278.355 8.44199C278.355 10.134 279.453 11.466 281.343 11.466C282.297 11.466 282.855 11.16 283.287 10.89C283.431 10.818 283.557 10.854 283.647 10.998L284.079 11.79C284.151 11.934 284.169 12.042 284.115 12.096C283.575 12.528 282.495 12.978 281.235 12.978ZM286.114 12.762C285.952 12.762 285.844 12.654 285.844 12.492V0.773993C285.844 0.629993 285.916 0.521993 286.06 0.467993L287.086 0.0899924C287.266 0.0179933 287.392 0.107993 287.392 0.305993V5.18399C288.004 4.28399 289.12 3.90599 290.092 3.90599C292 3.90599 293.512 5.21999 293.512 7.77599V12.492C293.512 12.654 293.404 12.762 293.242 12.762H292.234C292.072 12.762 291.964 12.654 291.964 12.492V7.82999C291.964 6.28199 291.064 5.43599 289.732 5.43599C288.382 5.43599 287.392 6.29999 287.392 7.82999V12.492C287.392 12.654 287.284 12.762 287.122 12.762H286.114ZM299.416 12.978C296.68 12.978 295.096 10.89 295.096 8.42399C295.096 5.66999 297.148 3.90599 299.506 3.90599C300.694 3.90599 301.792 4.35599 302.35 5.11199V4.73399C302.35 4.58999 302.422 4.48199 302.566 4.42799L303.592 4.04999C303.772 3.97799 303.898 4.04999 303.898 4.24799V12.492C303.898 12.654 303.79 12.762 303.628 12.762H302.62C302.458 12.762 302.35 12.654 302.35 12.492V11.79C301.846 12.42 300.658 12.978 299.416 12.978ZM299.524 11.448C301.126 11.448 302.368 10.422 302.368 8.42399C302.368 6.44399 301.126 5.41799 299.524 5.41799C297.994 5.41799 296.68 6.44399 296.68 8.42399C296.68 10.404 297.994 11.448 299.524 11.448ZM306.144 12.762C305.982 12.762 305.874 12.654 305.874 12.492V0.773993C305.874 0.629993 305.946 0.521993 306.09 0.467993L307.116 0.0899924C307.296 0.0179933 307.422 0.107993 307.422 0.305993V12.492C307.422 12.654 307.314 12.762 307.152 12.762H306.144ZM309.673 12.762C309.511 12.762 309.403 12.654 309.403 12.492V0.773993C309.403 0.629993 309.475 0.521993 309.619 0.467993L310.645 0.0899924C310.825 0.0179933 310.951 0.107993 310.951 0.305993V12.492C310.951 12.654 310.843 12.762 310.681 12.762H309.673ZM317.054 3.90599C319.52 3.90599 321.032 5.84999 321.032 8.00999V8.67599C321.032 8.83799 320.924 8.94599 320.762 8.94599H314.264C314.462 10.35 315.452 11.466 317.198 11.466C318.17 11.466 319.034 11.124 319.916 10.476C320.078 10.368 320.204 10.386 320.294 10.53L320.798 11.286C320.888 11.412 320.87 11.556 320.744 11.664C319.772 12.528 318.458 12.978 317.18 12.978C314.336 12.978 312.644 11.088 312.644 8.49599C312.644 5.65199 314.624 3.90599 317.054 3.90599ZM314.318 7.54199H319.394C319.322 6.42599 318.53 5.41799 317.036 5.41799C315.632 5.41799 314.624 6.22799 314.318 7.54199ZM322.989 12.762C322.827 12.762 322.719 12.654 322.719 12.492V4.73399C322.719 4.58999 322.791 4.48199 322.935 4.42799L323.961 4.04999C324.141 3.97799 324.267 4.06799 324.267 4.26599V5.18399C324.933 4.21199 325.959 3.90599 326.895 3.90599C328.839 3.90599 330.387 5.21999 330.387 7.77599V12.492C330.387 12.654 330.279 12.762 330.117 12.762H329.109C328.947 12.762 328.839 12.654 328.839 12.492V7.82999C328.839 6.28199 327.939 5.43599 326.607 5.43599C325.257 5.43599 324.267 6.29999 324.267 7.82999V12.492C324.267 12.654 324.159 12.762 323.997 12.762H322.989ZM336.238 16.578C334.96 16.578 333.682 16.272 332.44 15.336C332.314 15.228 332.296 15.102 332.368 14.958L332.89 14.058C332.98 13.896 333.106 13.878 333.268 13.986C334.114 14.634 335.158 15.066 336.256 15.066C338.182 15.066 339.226 13.842 339.226 11.898V11.79C338.758 12.366 337.66 12.978 336.238 12.978C333.592 12.978 331.972 10.89 331.972 8.44199C331.972 5.66999 334.024 3.90599 336.382 3.90599C337.57 3.90599 338.668 4.35599 339.226 5.11199V4.73399C339.226 4.58999 339.298 4.48199 339.442 4.42799L340.468 4.04999C340.648 3.97799 340.774 4.04999 340.774 4.24799V11.574C340.774 15.066 339.01 16.578 336.238 16.578ZM336.418 11.448C337.984 11.448 339.244 10.422 339.244 8.42399C339.244 6.44399 337.984 5.41799 336.418 5.41799C334.852 5.41799 333.556 6.44399 333.556 8.42399C333.556 10.404 334.852 11.448 336.418 11.448ZM346.872 3.90599C349.338 3.90599 350.85 5.84999 350.85 8.00999V8.67599C350.85 8.83799 350.742 8.94599 350.58 8.94599H344.082C344.28 10.35 345.27 11.466 347.016 11.466C347.988 11.466 348.852 11.124 349.734 10.476C349.896 10.368 350.022 10.386 350.112 10.53L350.616 11.286C350.706 11.412 350.688 11.556 350.562 11.664C349.59 12.528 348.276 12.978 346.998 12.978C344.154 12.978 342.462 11.088 342.462 8.49599C342.462 5.65199 344.442 3.90599 346.872 3.90599ZM344.136 7.54199H349.212C349.14 6.42599 348.348 5.41799 346.854 5.41799C345.45 5.41799 344.442 6.22799 344.136 7.54199ZM355.56 12.978C354.282 12.978 352.986 12.564 352.212 11.664C352.104 11.556 352.122 11.412 352.212 11.286L352.788 10.548C352.896 10.404 353.022 10.404 353.166 10.512C353.706 10.98 354.426 11.466 355.596 11.466C356.712 11.466 357.324 11.106 357.324 10.404C357.324 9.68399 356.694 9.39599 355.524 9.10799C354.066 8.74799 352.464 8.31599 352.464 6.55199C352.464 5.00399 353.688 3.90599 355.614 3.90599C356.856 3.90599 357.738 4.33799 358.314 4.80599C358.44 4.93199 358.44 5.03999 358.332 5.18399L357.756 5.90399C357.648 6.02999 357.522 6.06599 357.378 5.95799C356.964 5.66999 356.388 5.41799 355.65 5.41799C354.768 5.41799 354.012 5.75999 354.012 6.46199C354.012 7.10999 354.66 7.36199 355.884 7.64999C357.666 8.06399 358.836 8.72999 358.836 10.296C358.836 12.492 356.874 12.978 355.56 12.978ZM5.16601 34.348C5.22001 34.492 5.16601 34.636 4.98602 34.726C4.59001 34.906 4.24801 34.978 3.87001 34.978C1.87201 34.978 1.40401 33.682 1.40401 32.134V27.526H0.270015C0.108015 27.526 1.46739e-05 27.418 1.46739e-05 27.256V26.392C1.46739e-05 26.23 0.108015 26.122 0.270015 26.122H1.40401V24.754C1.40401 24.61 1.47601 24.502 1.62001 24.448L2.64601 24.07C2.82601 23.998 2.95201 24.088 2.95201 24.286V26.122H4.50001C4.66201 26.122 4.77002 26.23 4.77002 26.392V27.256C4.77002 27.418 4.66201 27.526 4.50001 27.526H2.95201V32.152C2.95201 32.89 3.22201 33.43 3.99601 33.43C4.15801 33.43 4.32002 33.394 4.51802 33.322C4.69801 33.268 4.82401 33.304 4.87801 33.484L5.16601 34.348ZM10.4988 34.978C7.9068 34.978 6.0528 33.052 6.0528 30.442C6.0528 27.832 7.9068 25.906 10.4988 25.906C13.0908 25.906 14.9268 27.832 14.9268 30.442C14.9268 33.052 13.0908 34.978 10.4988 34.978ZM10.4988 33.466C12.2628 33.466 13.3428 32.134 13.3428 30.442C13.3428 28.75 12.2628 27.418 10.4988 27.418C8.7168 27.418 7.6368 28.75 7.6368 30.442C7.6368 32.134 8.7168 33.466 10.4988 33.466ZM20.5978 38.578C19.3198 38.578 18.0418 38.272 16.7998 37.336C16.6738 37.228 16.6558 37.102 16.7278 36.958L17.2498 36.058C17.3398 35.896 17.4658 35.878 17.6278 35.986C18.4738 36.634 19.5178 37.066 20.6158 37.066C22.5418 37.066 23.5858 35.842 23.5858 33.898V33.79C23.1178 34.366 22.0198 34.978 20.5978 34.978C17.9518 34.978 16.3318 32.89 16.3318 30.442C16.3318 27.67 18.3838 25.906 20.7418 25.906C21.9298 25.906 23.0278 26.356 23.5858 27.112V26.734C23.5858 26.59 23.6578 26.482 23.8018 26.428L24.8278 26.05C25.0078 25.978 25.1338 26.05 25.1338 26.248V33.574C25.1338 37.066 23.3698 38.578 20.5978 38.578ZM20.7778 33.448C22.3438 33.448 23.6038 32.422 23.6038 30.424C23.6038 28.444 22.3438 27.418 20.7778 27.418C19.2118 27.418 17.9158 28.444 17.9158 30.424C17.9158 32.404 19.2118 33.448 20.7778 33.448ZM31.2317 25.906C33.6977 25.906 35.2097 27.85 35.2097 30.01V30.676C35.2097 30.838 35.1017 30.946 34.9397 30.946H28.4417C28.6397 32.35 29.6297 33.466 31.3757 33.466C32.3477 33.466 33.2117 33.124 34.0937 32.476C34.2557 32.368 34.3817 32.386 34.4717 32.53L34.9757 33.286C35.0657 33.412 35.0477 33.556 34.9217 33.664C33.9497 34.528 32.6357 34.978 31.3577 34.978C28.5137 34.978 26.8217 33.088 26.8217 30.496C26.8217 27.652 28.8017 25.906 31.2317 25.906ZM28.4957 29.542H33.5717C33.4997 28.426 32.7077 27.418 31.2137 27.418C29.8097 27.418 28.8017 28.228 28.4957 29.542ZM41.2019 34.348C41.2559 34.492 41.2019 34.636 41.0219 34.726C40.6259 34.906 40.2839 34.978 39.9059 34.978C37.9079 34.978 37.4399 33.682 37.4399 32.134V27.526H36.3059C36.1439 27.526 36.0359 27.418 36.0359 27.256V26.392C36.0359 26.23 36.1439 26.122 36.3059 26.122H37.4399V24.754C37.4399 24.61 37.5119 24.502 37.6559 24.448L38.6819 24.07C38.8619 23.998 38.9879 24.088 38.9879 24.286V26.122H40.5359C40.6979 26.122 40.8059 26.23 40.8059 26.392V27.256C40.8059 27.418 40.6979 27.526 40.5359 27.526H38.9879V32.152C38.9879 32.89 39.2579 33.43 40.0319 33.43C40.1939 33.43 40.3559 33.394 40.5539 33.322C40.7339 33.268 40.8599 33.304 40.9139 33.484L41.2019 34.348ZM42.9631 34.762C42.8011 34.762 42.6931 34.654 42.6931 34.492V22.774C42.6931 22.63 42.7651 22.522 42.9091 22.468L43.9351 22.09C44.1151 22.018 44.2411 22.108 44.2411 22.306V27.184C44.8531 26.284 45.9691 25.906 46.9411 25.906C48.8491 25.906 50.3611 27.22 50.3611 29.776V34.492C50.3611 34.654 50.2531 34.762 50.0911 34.762H49.0831C48.9211 34.762 48.8131 34.654 48.8131 34.492V29.83C48.8131 28.282 47.9131 27.436 46.5811 27.436C45.2311 27.436 44.2411 28.3 44.2411 29.83V34.492C44.2411 34.654 44.1331 34.762 43.9711 34.762H42.9631ZM56.3558 25.906C58.8218 25.906 60.3338 27.85 60.3338 30.01V30.676C60.3338 30.838 60.2258 30.946 60.0638 30.946H53.5658C53.7638 32.35 54.7538 33.466 56.4998 33.466C57.4718 33.466 58.3358 33.124 59.2178 32.476C59.3798 32.368 59.5058 32.386 59.5958 32.53L60.0998 33.286C60.1898 33.412 60.1718 33.556 60.0458 33.664C59.0738 34.528 57.7598 34.978 56.4818 34.978C53.6378 34.978 51.9458 33.088 51.9458 30.496C51.9458 27.652 53.9258 25.906 56.3558 25.906ZM53.6198 29.542H58.6958C58.6238 28.426 57.8318 27.418 56.3378 27.418C54.9338 27.418 53.9258 28.228 53.6198 29.542ZM67.8526 26.95C67.9066 27.112 67.8526 27.238 67.6906 27.31L63.5686 29.02V34.492C63.5686 34.654 63.4606 34.762 63.2986 34.762H62.2906C62.1286 34.762 62.0206 34.654 62.0206 34.492V26.734C62.0206 26.59 62.0926 26.482 62.2366 26.428L63.2626 26.05C63.4426 25.978 63.5686 26.068 63.5686 26.266V27.508L67.1686 26.014C67.3306 25.942 67.4566 25.996 67.5286 26.158L67.8526 26.95ZM77.2062 34.978C74.4702 34.978 72.8862 32.89 72.8862 30.424C72.8862 27.67 74.9382 25.906 77.2962 25.906C78.4842 25.906 79.5822 26.356 80.1402 27.112V26.734C80.1402 26.59 80.2122 26.482 80.3562 26.428L81.3822 26.05C81.5622 25.978 81.6882 26.05 81.6882 26.248V34.492C81.6882 34.654 81.5802 34.762 81.4182 34.762H80.4102C80.2482 34.762 80.1402 34.654 80.1402 34.492V33.79C79.6362 34.42 78.4482 34.978 77.2062 34.978ZM77.3142 33.448C78.9162 33.448 80.1582 32.422 80.1582 30.424C80.1582 28.444 78.9162 27.418 77.3142 27.418C75.7842 27.418 74.4702 28.444 74.4702 30.424C74.4702 32.404 75.7842 33.448 77.3142 33.448ZM88.1102 34.348C88.1642 34.492 88.1102 34.636 87.9302 34.726C87.5342 34.906 87.1922 34.978 86.8142 34.978C84.8162 34.978 84.3482 33.682 84.3482 32.134V27.526H83.2142C83.0522 27.526 82.9442 27.418 82.9442 27.256V26.392C82.9442 26.23 83.0522 26.122 83.2142 26.122H84.3482V24.754C84.3482 24.61 84.4202 24.502 84.5642 24.448L85.5902 24.07C85.7702 23.998 85.8962 24.088 85.8962 24.286V26.122H87.4442C87.6062 26.122 87.7142 26.23 87.7142 26.392V27.256C87.7142 27.418 87.6062 27.526 87.4442 27.526H85.8962V32.152C85.8962 32.89 86.1662 33.43 86.9402 33.43C87.1022 33.43 87.2642 33.394 87.4622 33.322C87.6422 33.268 87.7682 33.304 87.8222 33.484L88.1102 34.348ZM99.5458 34.978C96.0358 34.978 93.3898 32.386 93.3898 28.462C93.3898 24.538 96.0358 21.946 99.5458 21.946C101.598 21.946 103.146 22.756 104.298 24.106C104.406 24.25 104.388 24.394 104.262 24.502L103.416 25.204C103.272 25.33 103.146 25.312 103.038 25.168C102.318 24.304 101.166 23.53 99.5458 23.53C96.9358 23.53 95.0458 25.636 95.0458 28.462C95.0458 31.288 96.9358 33.394 99.5458 33.394C101.166 33.394 102.318 32.62 103.038 31.756C103.146 31.612 103.272 31.594 103.416 31.72L104.244 32.404C104.37 32.512 104.388 32.656 104.298 32.764C103.164 34.15 101.616 34.978 99.5458 34.978ZM113.948 23.71H107.864V27.346H112.526C112.688 27.346 112.796 27.454 112.796 27.616V28.624C112.796 28.786 112.688 28.894 112.526 28.894H107.864V33.214H113.948C114.11 33.214 114.218 33.322 114.218 33.484V34.492C114.218 34.654 114.11 34.762 113.948 34.762H106.514C106.352 34.762 106.244 34.654 106.244 34.492V22.432C106.244 22.27 106.352 22.162 106.514 22.162H113.948C114.11 22.162 114.218 22.27 114.218 22.432V23.44C114.218 23.602 114.11 23.71 113.948 23.71ZM116.318 34.762C116.156 34.762 116.048 34.654 116.048 34.492V22.432C116.048 22.27 116.156 22.162 116.318 22.162H120.494C123.572 22.162 124.292 24.25 124.292 25.744C124.292 26.986 123.788 28.642 121.844 29.164L124.22 34.438C124.31 34.636 124.22 34.762 124.022 34.762H122.816C122.672 34.762 122.564 34.708 122.51 34.564L120.206 29.326H117.668V34.492C117.668 34.654 117.56 34.762 117.398 34.762H116.318ZM117.668 27.778H120.242C122.114 27.778 122.618 26.86 122.618 25.744C122.618 24.628 122.114 23.71 120.242 23.71H117.668V27.778ZM137.202 34.456C137.274 34.636 137.184 34.762 136.986 34.762H135.78C135.636 34.762 135.51 34.69 135.456 34.546L134.25 31.594H128.4L127.194 34.546C127.14 34.69 127.014 34.762 126.87 34.762H125.664C125.466 34.762 125.376 34.636 125.448 34.456L130.524 22.378C130.578 22.234 130.704 22.162 130.848 22.162H131.802C131.946 22.162 132.072 22.234 132.126 22.378L137.202 34.456ZM129.048 30.046H133.62L131.334 24.466L129.048 30.046ZM140.376 34.762C140.232 34.762 140.124 34.708 140.07 34.546L136.308 22.468C136.254 22.27 136.344 22.162 136.542 22.162H137.748C137.892 22.162 138.018 22.252 138.054 22.396L140.988 32.224L143.922 22.396C143.958 22.252 144.084 22.162 144.228 22.162H145.596C145.74 22.162 145.866 22.252 145.902 22.396L148.836 32.224L151.77 22.396C151.806 22.252 151.932 22.162 152.076 22.162H153.282C153.48 22.162 153.57 22.27 153.516 22.468L149.754 34.546C149.7 34.708 149.592 34.762 149.448 34.762H148.224C148.08 34.762 147.954 34.672 147.918 34.528L144.912 24.628L141.906 34.528C141.87 34.672 141.744 34.762 141.6 34.762H140.376ZM157.823 25.906C160.289 25.906 161.801 27.85 161.801 30.01V30.676C161.801 30.838 161.693 30.946 161.531 30.946H155.033C155.231 32.35 156.221 33.466 157.967 33.466C158.939 33.466 159.803 33.124 160.685 32.476C160.847 32.368 160.973 32.386 161.063 32.53L161.567 33.286C161.657 33.412 161.639 33.556 161.513 33.664C160.541 34.528 159.227 34.978 157.949 34.978C155.105 34.978 153.413 33.088 153.413 30.496C153.413 27.652 155.393 25.906 157.823 25.906ZM155.087 29.542H160.163C160.091 28.426 159.299 27.418 157.805 27.418C156.401 27.418 155.393 28.228 155.087 29.542ZM167.61 25.906C170.076 25.906 171.588 27.85 171.588 30.01V30.676C171.588 30.838 171.48 30.946 171.318 30.946H164.82C165.018 32.35 166.008 33.466 167.754 33.466C168.726 33.466 169.59 33.124 170.472 32.476C170.634 32.368 170.76 32.386 170.85 32.53L171.354 33.286C171.444 33.412 171.426 33.556 171.3 33.664C170.328 34.528 169.014 34.978 167.736 34.978C164.892 34.978 163.2 33.088 163.2 30.496C163.2 27.652 165.18 25.906 167.61 25.906ZM164.874 29.542H169.95C169.878 28.426 169.086 27.418 167.592 27.418C166.188 27.418 165.18 28.228 164.874 29.542ZM180.043 34.438C180.187 34.6 180.133 34.762 179.899 34.762H178.567C178.441 34.762 178.333 34.726 178.243 34.618L174.823 30.892V34.492C174.823 34.654 174.715 34.762 174.553 34.762H173.545C173.383 34.762 173.275 34.654 173.275 34.492V22.774C173.275 22.63 173.347 22.522 173.491 22.468L174.517 22.09C174.697 22.018 174.823 22.108 174.823 22.306V29.452L178.027 26.266C178.135 26.158 178.243 26.122 178.369 26.122H179.701C179.935 26.122 180.007 26.284 179.845 26.446L176.173 30.118L180.043 34.438ZM185.522 34.762C185.36 34.762 185.252 34.654 185.252 34.492V33.862C185.252 33.736 185.288 33.628 185.396 33.538C187.79 31.36 191.552 28.498 191.552 25.6C191.552 24.304 190.652 23.53 189.374 23.53C188.096 23.53 187.088 24.34 186.908 25.798C186.89 25.96 186.8 26.05 186.638 26.05H185.54C185.36 26.05 185.252 25.942 185.27 25.762C185.54 23.404 187.16 21.946 189.374 21.946C191.84 21.946 193.208 23.476 193.208 25.6C193.208 28.696 190.436 31.144 188.06 33.214H193.208C193.406 33.214 193.496 33.322 193.424 33.52L193.046 34.546C192.992 34.708 192.884 34.762 192.74 34.762H185.522ZM200.009 34.978C197.021 34.978 194.879 32.386 194.879 28.462C194.879 24.538 197.021 21.946 200.009 21.946C203.015 21.946 205.121 24.538 205.121 28.462C205.121 32.386 203.015 34.978 200.009 34.978ZM200.009 33.394C202.097 33.394 203.465 31.468 203.465 28.462C203.465 25.456 202.097 23.53 200.009 23.53C197.921 23.53 196.535 25.456 196.535 28.462C196.535 31.468 197.921 33.394 200.009 33.394ZM206.889 34.762C206.727 34.762 206.619 34.654 206.619 34.492V33.862C206.619 33.736 206.655 33.628 206.763 33.538C209.157 31.36 212.919 28.498 212.919 25.6C212.919 24.304 212.019 23.53 210.741 23.53C209.463 23.53 208.455 24.34 208.275 25.798C208.257 25.96 208.167 26.05 208.005 26.05H206.907C206.727 26.05 206.619 25.942 206.637 25.762C206.907 23.404 208.527 21.946 210.741 21.946C213.207 21.946 214.575 23.476 214.575 25.6C214.575 28.696 211.803 31.144 209.427 33.214H214.575C214.773 33.214 214.863 33.322 214.791 33.52L214.413 34.546C214.359 34.708 214.251 34.762 214.107 34.762H206.889ZM220.817 34.978C218.423 34.978 216.245 33.376 216.245 28.894C216.245 24.556 218.279 21.946 221.447 21.946C222.275 21.946 223.265 22.126 224.165 22.684C224.309 22.756 224.345 22.9 224.291 23.044L223.913 24.106C223.859 24.286 223.715 24.322 223.535 24.214C222.671 23.692 222.005 23.602 221.411 23.602C219.971 23.602 218.243 24.574 217.991 27.904C218.837 26.626 220.151 26.122 221.213 26.122C223.049 26.122 225.227 27.544 225.227 30.532C225.227 33.34 223.121 34.978 220.817 34.978ZM220.835 33.394C222.545 33.394 223.571 32.116 223.571 30.568C223.571 29.074 222.545 27.76 220.835 27.76C219.125 27.76 218.099 29.074 218.099 30.568C218.099 32.116 219.125 33.394 220.835 33.394ZM226.496 34.762C226.334 34.762 226.226 34.654 226.226 34.492V33.376C226.226 33.214 226.334 33.106 226.496 33.106H227.612C227.774 33.106 227.882 33.214 227.882 33.376V34.492C227.882 34.654 227.774 34.762 227.612 34.762H226.496Z" fill="#243746"/>
</svg>
