<?xml version="1.0" encoding="UTF-8"?>
<svg id="Layer_2" data-name="Layer 2" xmlns="http://www.w3.org/2000/svg" viewBox="0 0 154.99 13.03">
  <defs>
    <style>
      .cls-1 {
        fill: #243746;
      }
    </style>
  </defs>
  <g id="Layer_1-2" data-name="Layer 1">
    <path class="cls-1" d="M4.32,13.03c-2.74,0-4.32-2.09-4.32-4.55C0,5.72,2.05,3.96,4.41,3.96c1.19,0,2.29.45,2.84,1.21v-.38c0-.14.07-.25.22-.31l1.03-.38c.18-.07.31,0,.31.2v8.24c0,.16-.11.27-.27.27h-1.01c-.16,0-.27-.11-.27-.27v-.7c-.5.63-1.69,1.19-2.93,1.19ZM4.43,11.5c1.6,0,2.84-1.03,2.84-3.02s-1.24-3.01-2.84-3.01-2.84,1.03-2.84,3.01,1.31,3.02,2.84,3.02Z"/>
    <path class="cls-1" d="M15.22,12.4c.05.14,0,.29-.18.38-.4.18-.74.25-1.12.25-2,0-2.47-1.3-2.47-2.84v-4.61h-1.13c-.16,0-.27-.11-.27-.27v-.86c0-.16.11-.27.27-.27h1.13v-1.37c0-.14.07-.25.22-.31l1.03-.38c.18-.07.31.02.31.22v1.84h1.55c.16,0,.27.11.27.27v.86c0,.16-.11.27-.27.27h-1.55v4.63c0,.74.27,1.28,1.04,1.28.16,0,.32-.04.52-.11.18-.05.31-.02.36.16l.29.86Z"/>
    <path class="cls-1" d="M26.66,13.03c-3.51,0-6.16-2.59-6.16-6.52S23.15,0,26.66,0c2.05,0,3.6.81,4.75,2.16.11.14.09.29-.04.4l-.85.7c-.14.13-.27.11-.38-.04-.72-.86-1.87-1.64-3.49-1.64-2.61,0-4.5,2.11-4.5,4.93s1.89,4.93,4.5,4.93c1.62,0,2.77-.77,3.49-1.64.11-.14.23-.16.38-.04l.83.68c.13.11.14.25.05.36-1.13,1.39-2.68,2.21-4.75,2.21Z"/>
    <path class="cls-1" d="M41.06,1.76h-6.08v3.64h4.66c.16,0,.27.11.27.27v1.01c0,.16-.11.27-.27.27h-4.66v4.32h6.08c.16,0,.27.11.27.27v1.01c0,.16-.11.27-.27.27h-7.43c-.16,0-.27-.11-.27-.27V.49c0-.16.11-.27.27-.27h7.43c.16,0,.27.11.27.27v1.01c0,.16-.11.27-.27.27Z"/>
    <path class="cls-1" d="M43.43,12.82c-.16,0-.27-.11-.27-.27V.49c0-.16.11-.27.27-.27h4.18c3.08,0,3.8,2.09,3.8,3.58,0,1.24-.5,2.9-2.45,3.42l2.38,5.27c.09.2,0,.32-.2.32h-1.21c-.14,0-.25-.05-.31-.2l-2.3-5.24h-2.54v5.17c0,.16-.11.27-.27.27h-1.08ZM44.78,5.83h2.57c1.87,0,2.38-.92,2.38-2.03s-.5-2.03-2.38-2.03h-2.57v4.07Z"/>
    <path class="cls-1" d="M64.32,12.51c.07.18-.02.31-.22.31h-1.21c-.14,0-.27-.07-.32-.22l-1.21-2.95h-5.85l-1.21,2.95c-.05.14-.18.22-.32.22h-1.21c-.2,0-.29-.13-.22-.31L57.64.43c.05-.14.18-.22.32-.22h.95c.14,0,.27.07.32.22l5.08,12.08ZM56.16,8.1h4.57l-2.29-5.58-2.29,5.58Z"/>
    <path class="cls-1" d="M67.49,12.82c-.14,0-.25-.05-.31-.22l-3.76-12.08c-.05-.2.04-.31.23-.31h1.21c.14,0,.27.09.31.23l2.93,9.83,2.93-9.83c.04-.14.16-.23.31-.23h1.37c.14,0,.27.09.31.23l2.93,9.83,2.93-9.83c.04-.14.16-.23.31-.23h1.21c.2,0,.29.11.23.31l-3.76,12.08c-.05.16-.16.22-.31.22h-1.22c-.14,0-.27-.09-.31-.23l-3.01-9.9-3.01,9.9c-.04.14-.16.23-.31.23h-1.22Z"/>
    <path class="cls-1" d="M84.94,3.96c2.47,0,3.98,1.94,3.98,4.1v.67c0,.16-.11.27-.27.27h-6.5c.2,1.4,1.19,2.52,2.93,2.52.97,0,1.84-.34,2.72-.99.16-.11.29-.09.38.05l.5.76c.09.13.07.27-.05.38-.97.86-2.29,1.31-3.56,1.31-2.84,0-4.54-1.89-4.54-4.48,0-2.84,1.98-4.59,4.41-4.59ZM82.2,7.6h5.08c-.07-1.12-.86-2.12-2.36-2.12-1.4,0-2.41.81-2.72,2.12Z"/>
    <path class="cls-1" d="M94.72,3.96c2.47,0,3.98,1.94,3.98,4.1v.67c0,.16-.11.27-.27.27h-6.5c.2,1.4,1.19,2.52,2.93,2.52.97,0,1.84-.34,2.72-.99.16-.11.29-.09.38.05l.5.76c.09.13.07.27-.05.38-.97.86-2.29,1.31-3.56,1.31-2.84,0-4.54-1.89-4.54-4.48,0-2.84,1.98-4.59,4.41-4.59ZM91.99,7.6h5.08c-.07-1.12-.86-2.12-2.36-2.12-1.4,0-2.41.81-2.72,2.12Z"/>
    <path class="cls-1" d="M107.16,12.49c.14.16.09.32-.14.32h-1.33c-.13,0-.23-.04-.32-.14l-3.42-3.73v3.6c0,.16-.11.27-.27.27h-1.01c-.16,0-.27-.11-.27-.27V.83c0-.14.07-.25.22-.31l1.03-.38c.18-.07.31.02.31.22v7.15l3.2-3.19c.11-.11.22-.14.34-.14h1.33c.23,0,.31.16.14.32l-3.67,3.67,3.87,4.32Z"/>
    <path class="cls-1" d="M112.64,12.82c-.16,0-.27-.11-.27-.27v-.63c0-.13.04-.23.14-.32,2.39-2.18,6.16-5.04,6.16-7.94,0-1.3-.9-2.07-2.18-2.07s-2.29.81-2.47,2.27c-.02.16-.11.25-.27.25h-1.1c-.18,0-.29-.11-.27-.29.27-2.36,1.89-3.82,4.1-3.82,2.47,0,3.83,1.53,3.83,3.65,0,3.1-2.77,5.54-5.15,7.61h5.15c.2,0,.29.11.22.31l-.38,1.03c-.05.16-.16.22-.31.22h-7.22Z"/>
    <path class="cls-1" d="M127.12,13.03c-2.99,0-5.13-2.59-5.13-6.52s2.14-6.52,5.13-6.52,5.11,2.59,5.11,6.52-2.11,6.52-5.11,6.52ZM127.12,11.45c2.09,0,3.46-1.93,3.46-4.93s-1.37-4.93-3.46-4.93-3.47,1.93-3.47,4.93,1.39,4.93,3.47,4.93Z"/>
    <path class="cls-1" d="M134,12.82c-.16,0-.27-.11-.27-.27v-.63c0-.13.04-.23.14-.32,2.39-2.18,6.16-5.04,6.16-7.94,0-1.3-.9-2.07-2.18-2.07s-2.29.81-2.47,2.27c-.02.16-.11.25-.27.25h-1.1c-.18,0-.29-.11-.27-.29.27-2.36,1.89-3.82,4.1-3.82,2.47,0,3.83,1.53,3.83,3.65,0,3.1-2.77,5.54-5.15,7.61h5.15c.2,0,.29.11.22.31l-.38,1.03c-.05.16-.16.22-.31.22h-7.22Z"/>
    <path class="cls-1" d="M147.93,13.03c-2.39,0-4.57-1.6-4.57-6.08s2.03-6.95,5.2-6.95c.83,0,1.82.18,2.72.74.14.07.18.22.13.36l-.38,1.06c-.05.18-.2.22-.38.11-.86-.52-1.53-.61-2.12-.61-1.44,0-3.17.97-3.42,4.3.85-1.28,2.16-1.78,3.22-1.78,1.84,0,4.01,1.42,4.01,4.41,0,2.81-2.11,4.45-4.41,4.45ZM147.95,11.45c1.71,0,2.74-1.28,2.74-2.83s-1.03-2.81-2.74-2.81-2.74,1.31-2.74,2.81,1.03,2.83,2.74,2.83Z"/>
    <path class="cls-1" d="M153.61,12.82c-.16,0-.27-.11-.27-.27v-1.12c0-.16.11-.27.27-.27h1.12c.16,0,.27.11.27.27v1.12c0,.16-.11.27-.27.27h-1.12Z"/>
  </g>
</svg>