<svg width="127" height="29" viewBox="0 0 127 29" fill="none" xmlns="http://www.w3.org/2000/svg">
<path d="M9.35198 9.50599C9.42198 9.68799 9.35198 9.79999 9.15598 9.79999H7.74198C7.60198 9.79999 7.50398 9.72999 7.46198 9.61799L6.69198 7.67199H2.74398L1.97398 9.61799C1.91798 9.74399 1.81998 9.79999 1.67998 9.79999H0.265979C0.0839785 9.79999 -2.14577e-05 9.68799 0.0699785 9.50599L3.89198 0.195987C3.93398 0.0559872 4.04598 -1.28746e-05 4.18598 -1.28746e-05H5.23598C5.37598 -1.28746e-05 5.48798 0.0559872 5.54398 0.195987L9.35198 9.50599ZM3.37398 6.08999H6.06198L4.71798 2.68799L3.37398 6.08999ZM10.6225 9.79999C10.4545 9.79999 10.3565 9.70199 10.3565 9.54799V3.70999C10.3565 3.56999 10.4265 3.47199 10.5665 3.41599L11.7145 3.02399C11.8965 2.95399 12.0085 3.05199 12.0085 3.23399V3.90599C12.4845 3.23399 13.2265 2.91199 14.1085 2.91199C15.5365 2.91199 16.7685 3.93399 16.7685 5.92199V9.54799C16.7685 9.70199 16.6845 9.79999 16.5165 9.79999H15.3825C15.2145 9.79999 15.1165 9.70199 15.1165 9.54799V6.11799C15.1165 5.06799 14.5145 4.49399 13.6045 4.49399C12.6805 4.49399 12.0085 5.08199 12.0085 6.11799V9.54799C12.0085 9.70199 11.9245 9.79999 11.7565 9.79999H10.6225ZM24.441 2.91199C26.415 2.91199 27.591 4.45199 27.591 6.10399V6.69199C27.591 6.85999 27.493 6.94399 27.325 6.94399H22.593C22.775 7.79799 23.447 8.45599 24.553 8.45599C25.295 8.45599 25.911 8.21799 26.443 7.88199C26.597 7.79799 26.723 7.82599 26.793 7.97999L27.241 8.79199C27.311 8.93199 27.297 9.05799 27.199 9.12799C26.499 9.65999 25.645 9.96799 24.539 9.96799C22.299 9.96799 20.969 8.48399 20.969 6.48199C20.969 4.31199 22.523 2.91199 24.441 2.91199ZM22.635 5.72599H26.037C25.939 5.02599 25.421 4.42399 24.441 4.42399C23.531 4.42399 22.859 4.91399 22.635 5.72599ZM29.056 9.79999C28.888 9.79999 28.79 9.70199 28.79 9.54799V3.70999C28.79 3.56999 28.86 3.47199 29 3.41599L30.148 3.02399C30.33 2.95399 30.442 3.05199 30.442 3.23399V3.90599C30.918 3.23399 31.66 2.91199 32.542 2.91199C33.97 2.91199 35.202 3.93399 35.202 5.92199V9.54799C35.202 9.70199 35.118 9.79999 34.95 9.79999H33.816C33.648 9.79999 33.55 9.70199 33.55 9.54799V6.11799C33.55 5.06799 32.948 4.49399 32.038 4.49399C31.114 4.49399 30.442 5.08199 30.442 6.11799V9.54799C30.442 9.70199 30.358 9.79999 30.19 9.79999H29.056ZM39.788 2.91199C41.762 2.91199 42.938 4.45199 42.938 6.10399V6.69199C42.938 6.85999 42.84 6.94399 42.672 6.94399H37.94C38.122 7.79799 38.794 8.45599 39.9 8.45599C40.642 8.45599 41.258 8.21799 41.79 7.88199C41.944 7.79799 42.07 7.82599 42.14 7.97999L42.588 8.79199C42.658 8.93199 42.644 9.05799 42.546 9.12799C41.846 9.65999 40.992 9.96799 39.886 9.96799C37.646 9.96799 36.316 8.48399 36.316 6.48199C36.316 4.31199 37.87 2.91199 39.788 2.91199ZM37.982 5.72599H41.384C41.286 5.02599 40.768 4.42399 39.788 4.42399C38.878 4.42399 38.206 4.91399 37.982 5.72599ZM49.2049 4.03199C49.2609 4.18599 49.2189 4.31199 49.0649 4.36799L45.7889 5.71199V9.54799C45.7889 9.70199 45.7049 9.79999 45.5369 9.79999H44.4029C44.2349 9.79999 44.1369 9.70199 44.1369 9.54799V3.70999C44.1369 3.56999 44.2069 3.47199 44.3469 3.41599L45.4949 3.02399C45.6769 2.95399 45.7889 3.05199 45.7889 3.23399V4.14399L48.4909 3.00999C48.6589 2.95399 48.7709 2.99599 48.8409 3.14999L49.2049 4.03199ZM53.0278 12.768C51.8938 12.768 50.9558 12.502 50.0318 11.83C49.9058 11.732 49.8778 11.606 49.9618 11.48L50.4798 10.542C50.5638 10.388 50.7038 10.36 50.8438 10.486C51.5438 11.018 52.2578 11.242 52.9438 11.242C54.2878 11.242 55.0718 10.458 55.0718 9.26799V9.08599C54.7638 9.47799 53.9658 9.85599 53.0138 9.85599C50.8578 9.85599 49.6258 8.30199 49.6258 6.39799C49.6258 4.42399 51.0818 2.91199 53.0838 2.91199C53.9098 2.91199 54.7078 3.20599 55.0718 3.82199V3.73799C55.0718 3.58399 55.1418 3.48599 55.2818 3.42999L56.4298 3.02399C56.6118 2.95399 56.7238 3.03799 56.7238 3.21999V9.11399C56.7238 11.452 55.2398 12.768 53.0278 12.768ZM53.2098 8.31599C54.2738 8.31599 55.0858 7.61599 55.0858 6.38399C55.0858 5.15199 54.2738 4.43799 53.2098 4.43799C52.1318 4.43799 51.3198 5.15199 51.3198 6.38399C51.3198 7.60199 52.1318 8.31599 53.2098 8.31599ZM64.1514 3.07999C64.3474 3.07999 64.4174 3.19199 64.3474 3.37399L60.4834 12.404C60.4414 12.544 60.3294 12.6 60.1754 12.6H58.9434C58.7614 12.6 58.6774 12.488 58.7474 12.306L60.1194 9.08599L57.6694 3.37399C57.5994 3.19199 57.6834 3.07999 57.8654 3.07999H59.1254C59.2654 3.07999 59.3774 3.13599 59.4334 3.27599L60.9874 7.04199L62.5834 3.27599C62.6394 3.13599 62.7514 3.07999 62.8914 3.07999H64.1514ZM71.8914 9.96799C69.6934 9.96799 68.2234 8.46999 68.2234 6.43999C68.2234 4.40999 69.6934 2.91199 71.8914 2.91199C72.7594 2.91199 73.5714 3.13599 74.1314 3.65399C74.2574 3.76599 74.2854 3.89199 74.2014 4.03199L73.6694 4.89999C73.5854 5.03999 73.4734 5.06799 73.3334 4.96999C72.9554 4.67599 72.5354 4.47999 71.9194 4.47999C70.7014 4.47999 69.9594 5.31999 69.9594 6.43999C69.9594 7.60199 70.7014 8.39999 71.9194 8.39999C72.5354 8.39999 72.9554 8.21799 73.3474 7.90999C73.4734 7.82599 73.5994 7.85399 73.6834 7.99399L74.2014 8.84799C74.2854 8.98799 74.2574 9.09999 74.1594 9.19799C73.6274 9.71599 72.7874 9.96799 71.8914 9.96799ZM78.7484 9.96799C76.6624 9.96799 75.2064 8.46999 75.2064 6.43999C75.2064 4.40999 76.6624 2.91199 78.7484 2.91199C80.8344 2.91199 82.2904 4.40999 82.2904 6.43999C82.2904 8.46999 80.8344 9.96799 78.7484 9.96799ZM78.7484 8.39999C79.9244 8.39999 80.5824 7.54599 80.5824 6.43999C80.5824 5.33399 79.9244 4.47999 78.7484 4.47999C77.5724 4.47999 76.9144 5.33399 76.9144 6.43999C76.9144 7.54599 77.5724 8.39999 78.7484 8.39999ZM83.7583 9.79999C83.5903 9.79999 83.4923 9.70199 83.4923 9.54799V3.70999C83.4923 3.56999 83.5623 3.47199 83.7023 3.41599L84.8503 3.02399C85.0323 2.95399 85.1443 3.05199 85.1443 3.23399V3.80799C85.4243 3.35999 86.1943 2.91199 87.0483 2.91199C87.9023 2.91199 88.5463 3.34599 88.8543 3.96199C89.2883 3.24799 90.0723 2.91199 90.8983 2.91199C92.1863 2.91199 93.3763 3.79399 93.3763 5.78199V9.54799C93.3763 9.70199 93.2783 9.79999 93.1103 9.79999H91.9763C91.8083 9.79999 91.7243 9.70199 91.7243 9.54799V5.93599C91.7243 4.99799 91.2623 4.49399 90.5343 4.49399C89.7923 4.49399 89.2603 4.98399 89.2603 5.93599V9.54799C89.2603 9.70199 89.1763 9.79999 89.0083 9.79999H87.8743C87.7063 9.79999 87.6083 9.70199 87.6083 9.54799V5.93599C87.6083 4.95599 87.1743 4.49399 86.4183 4.49399C85.7463 4.49399 85.1443 4.99799 85.1443 5.93599V9.54799C85.1443 9.70199 85.0603 9.79999 84.8923 9.79999H83.7583ZM94.9249 12.6C94.7569 12.6 94.6589 12.502 94.6589 12.348V3.73799C94.6589 3.58399 94.7289 3.48599 94.8689 3.42999L96.0169 3.02399C96.1989 2.95399 96.3109 3.03799 96.3109 3.21999V3.80799C96.6889 3.31799 97.4869 2.91199 98.4529 2.91199C100.371 2.91199 101.771 4.28399 101.771 6.43999C101.771 8.34399 100.553 9.96799 98.4529 9.96799C97.4729 9.96799 96.6749 9.54799 96.3109 9.08599V12.348C96.3109 12.502 96.2269 12.6 96.0589 12.6H94.9249ZM98.1869 8.44199C99.2509 8.44199 100.077 7.72799 100.077 6.43999C100.077 5.12399 99.2509 4.43799 98.1869 4.43799C97.1229 4.43799 96.3109 5.12399 96.3109 6.43999C96.3109 7.74199 97.1229 8.44199 98.1869 8.44199ZM106.188 9.96799C104.032 9.96799 102.8 8.39999 102.8 6.39799C102.8 4.42399 104.256 2.91199 106.258 2.91199C107.084 2.91199 107.882 3.20599 108.246 3.82199V3.73799C108.246 3.58399 108.316 3.48599 108.456 3.42999L109.604 3.02399C109.786 2.95399 109.898 3.03799 109.898 3.21999V9.54799C109.898 9.70199 109.8 9.79999 109.632 9.79999H108.498C108.344 9.79999 108.246 9.70199 108.246 9.54799V9.18399C107.938 9.57599 107.14 9.96799 106.188 9.96799ZM106.384 8.41399C107.448 8.41399 108.26 7.71399 108.26 6.38399C108.26 5.15199 107.448 4.43799 106.384 4.43799C105.306 4.43799 104.494 5.15199 104.494 6.38399C104.494 7.69999 105.306 8.41399 106.384 8.41399ZM111.53 9.79999C111.362 9.79999 111.264 9.70199 111.264 9.54799V3.70999C111.264 3.56999 111.334 3.47199 111.474 3.41599L112.622 3.02399C112.804 2.95399 112.916 3.05199 112.916 3.23399V3.90599C113.392 3.23399 114.134 2.91199 115.016 2.91199C116.444 2.91199 117.676 3.93399 117.676 5.92199V9.54799C117.676 9.70199 117.592 9.79999 117.424 9.79999H116.29C116.122 9.79999 116.024 9.70199 116.024 9.54799V6.11799C116.024 5.06799 115.422 4.49399 114.512 4.49399C113.588 4.49399 112.916 5.08199 112.916 6.11799V9.54799C112.916 9.70199 112.832 9.79999 112.664 9.79999H111.53ZM124.856 3.07999C125.052 3.07999 125.122 3.19199 125.052 3.37399L121.188 12.404C121.146 12.544 121.034 12.6 120.88 12.6H119.648C119.466 12.6 119.382 12.488 119.452 12.306L120.824 9.08599L118.374 3.37399C118.304 3.19199 118.388 3.07999 118.57 3.07999H119.83C119.97 3.07999 120.082 3.13599 120.138 3.27599L121.692 7.04199L123.288 3.27599C123.344 3.13599 123.456 3.07999 123.596 3.07999H124.856ZM2.95398 25.968C1.86198 25.968 0.867979 25.66 0.265979 24.988C0.167979 24.876 0.181979 24.736 0.265979 24.624L0.797979 23.91C0.909979 23.77 1.03598 23.77 1.16198 23.882C1.60998 24.26 2.21198 24.554 2.89798 24.554C3.63998 24.554 3.97598 24.33 3.97598 23.924C3.97598 23.518 3.61198 23.322 2.75798 23.154C1.39998 22.902 0.419979 22.3 0.419979 21.082C0.419979 19.78 1.51198 18.912 2.98198 18.912C4.00398 18.912 4.68998 19.234 5.12398 19.584C5.24998 19.696 5.24998 19.808 5.15198 19.948L4.56398 20.69C4.46598 20.83 4.35398 20.83 4.19998 20.746C3.87798 20.522 3.41598 20.354 2.93998 20.354C2.39398 20.354 2.04398 20.564 2.04398 20.9C2.04398 21.278 2.47798 21.418 3.26198 21.586C4.75998 21.88 5.59998 22.468 5.59998 23.77C5.59998 25.282 4.36798 25.968 2.95398 25.968ZM10.0101 18.912C11.9841 18.912 13.1601 20.452 13.1601 22.104V22.692C13.1601 22.86 13.0621 22.944 12.8941 22.944H8.16209C8.34409 23.798 9.01609 24.456 10.1221 24.456C10.8641 24.456 11.4801 24.218 12.0121 23.882C12.1661 23.798 12.2921 23.826 12.3621 23.98L12.8101 24.792C12.8801 24.932 12.8661 25.058 12.7681 25.128C12.0681 25.66 11.2141 25.968 10.1081 25.968C7.86809 25.968 6.53809 24.484 6.53809 22.482C6.53809 20.312 8.09209 18.912 10.0101 18.912ZM8.20409 21.726H11.6061C11.5081 21.026 10.9901 20.424 10.0101 20.424C9.10009 20.424 8.42809 20.914 8.20409 21.726ZM17.5791 25.968C15.4231 25.968 14.1911 24.4 14.1911 22.398C14.1911 20.424 15.6471 18.912 17.6491 18.912C18.4751 18.912 19.2731 19.206 19.6371 19.822V19.738C19.6371 19.584 19.7071 19.486 19.8471 19.43L20.9951 19.024C21.1771 18.954 21.2891 19.038 21.2891 19.22V25.548C21.2891 25.702 21.1911 25.8 21.0231 25.8H19.8891C19.7351 25.8 19.6371 25.702 19.6371 25.548V25.184C19.3291 25.576 18.5311 25.968 17.5791 25.968ZM17.7751 24.414C18.8391 24.414 19.6511 23.714 19.6511 22.384C19.6511 21.152 18.8391 20.438 17.7751 20.438C16.6971 20.438 15.8851 21.152 15.8851 22.384C15.8851 23.7 16.6971 24.414 17.7751 24.414ZM27.7226 20.032C27.7786 20.186 27.7366 20.312 27.5826 20.368L24.3066 21.712V25.548C24.3066 25.702 24.2226 25.8 24.0546 25.8H22.9206C22.7526 25.8 22.6546 25.702 22.6546 25.548V19.71C22.6546 19.57 22.7246 19.472 22.8646 19.416L24.0126 19.024C24.1946 18.954 24.3066 19.052 24.3066 19.234V20.144L27.0086 19.01C27.1766 18.954 27.2886 18.996 27.3586 19.15L27.7226 20.032ZM31.7841 25.968C29.5861 25.968 28.1161 24.47 28.1161 22.44C28.1161 20.41 29.5861 18.912 31.7841 18.912C32.6521 18.912 33.4641 19.136 34.0241 19.654C34.1501 19.766 34.1781 19.892 34.0941 20.032L33.5621 20.9C33.4781 21.04 33.3661 21.068 33.2261 20.97C32.8481 20.676 32.4281 20.48 31.8121 20.48C30.5941 20.48 29.8521 21.32 29.8521 22.44C29.8521 23.602 30.5941 24.4 31.8121 24.4C32.4281 24.4 32.8481 24.218 33.2401 23.91C33.3661 23.826 33.4921 23.854 33.5761 23.994L34.0941 24.848C34.1781 24.988 34.1501 25.1 34.0521 25.198C33.5201 25.716 32.6801 25.968 31.7841 25.968ZM35.5605 25.8C35.3925 25.8 35.2945 25.702 35.2945 25.548V16.616C35.2945 16.476 35.3645 16.392 35.5045 16.336L36.6525 15.944C36.8345 15.874 36.9465 15.972 36.9465 16.154V19.906C37.4085 19.248 38.1645 18.912 39.0605 18.912C40.4885 18.912 41.7065 19.934 41.7065 21.922V25.548C41.7065 25.702 41.6225 25.8 41.4545 25.8H40.3205C40.1525 25.8 40.0545 25.702 40.0545 25.548V22.118C40.0545 21.068 39.4525 20.494 38.5425 20.494C37.6185 20.494 36.9465 21.082 36.9465 22.118V25.548C36.9465 25.702 36.8625 25.8 36.6945 25.8H35.5605ZM43.2405 18.604C43.0585 18.66 42.9325 18.576 42.9325 18.394V17.148C42.9325 17.008 43.0025 16.91 43.1425 16.854L44.4025 16.406C44.5845 16.336 44.6965 16.434 44.6965 16.616V17.89C44.6965 18.03 44.6405 18.128 44.4865 18.184L43.2405 18.604ZM43.2405 25.8C43.0865 25.8 42.9885 25.702 42.9885 25.548V19.71C42.9885 19.57 43.0585 19.472 43.1985 19.416L44.3465 19.024C44.5285 18.954 44.6405 19.052 44.6405 19.234V25.548C44.6405 25.702 44.5425 25.8 44.3745 25.8H43.2405ZM46.2727 25.8C46.1047 25.8 46.0067 25.702 46.0067 25.548V19.71C46.0067 19.57 46.0767 19.472 46.2167 19.416L47.3647 19.024C47.5467 18.954 47.6587 19.052 47.6587 19.234V19.906C48.1347 19.234 48.8767 18.912 49.7587 18.912C51.1867 18.912 52.4187 19.934 52.4187 21.922V25.548C52.4187 25.702 52.3347 25.8 52.1667 25.8H51.0327C50.8647 25.8 50.7667 25.702 50.7667 25.548V22.118C50.7667 21.068 50.1647 20.494 49.2547 20.494C48.3307 20.494 47.6587 21.082 47.6587 22.118V25.548C47.6587 25.702 47.5747 25.8 47.4067 25.8H46.2727ZM56.9347 28.768C55.8007 28.768 54.8627 28.502 53.9387 27.83C53.8127 27.732 53.7847 27.606 53.8687 27.48L54.3867 26.542C54.4707 26.388 54.6107 26.36 54.7507 26.486C55.4507 27.018 56.1647 27.242 56.8507 27.242C58.1947 27.242 58.9787 26.458 58.9787 25.268V25.086C58.6707 25.478 57.8727 25.856 56.9207 25.856C54.7647 25.856 53.5327 24.302 53.5327 22.398C53.5327 20.424 54.9887 18.912 56.9907 18.912C57.8167 18.912 58.6147 19.206 58.9787 19.822V19.738C58.9787 19.584 59.0487 19.486 59.1887 19.43L60.3367 19.024C60.5187 18.954 60.6307 19.038 60.6307 19.22V25.114C60.6307 27.452 59.1467 28.768 56.9347 28.768ZM57.1167 24.316C58.1807 24.316 58.9927 23.616 58.9927 22.384C58.9927 21.152 58.1807 20.438 57.1167 20.438C56.0387 20.438 55.2267 21.152 55.2267 22.384C55.2267 23.602 56.0387 24.316 57.1167 24.316ZM68.9468 16.196C69.0868 16.266 69.1288 16.378 69.0868 16.518L68.7928 17.498C68.7368 17.666 68.6248 17.708 68.4568 17.624C68.2748 17.54 68.1348 17.512 67.9528 17.512C67.4208 17.512 67.2668 17.876 67.2668 18.38V19.08H68.4148C68.5828 19.08 68.6808 19.178 68.6808 19.332V20.312C68.6808 20.48 68.5828 20.564 68.4148 20.564H67.2668V25.548C67.2668 25.702 67.1828 25.8 67.0148 25.8H65.8808C65.7128 25.8 65.6148 25.702 65.6148 25.548V20.564H64.9988C64.8308 20.564 64.7328 20.48 64.7328 20.312V19.332C64.7328 19.178 64.8308 19.08 64.9988 19.08H65.6148V18.128C65.6148 16.994 66.1328 15.916 67.7288 15.916C68.2468 15.916 68.5968 16.014 68.9468 16.196ZM72.9106 25.968C70.8246 25.968 69.3686 24.47 69.3686 22.44C69.3686 20.41 70.8246 18.912 72.9106 18.912C74.9966 18.912 76.4526 20.41 76.4526 22.44C76.4526 24.47 74.9966 25.968 72.9106 25.968ZM72.9106 24.4C74.0866 24.4 74.7446 23.546 74.7446 22.44C74.7446 21.334 74.0866 20.48 72.9106 20.48C71.7346 20.48 71.0766 21.334 71.0766 22.44C71.0766 23.546 71.7346 24.4 72.9106 24.4ZM82.7224 20.032C82.7784 20.186 82.7364 20.312 82.5824 20.368L79.3064 21.712V25.548C79.3064 25.702 79.2224 25.8 79.0544 25.8H77.9204C77.7524 25.8 77.6544 25.702 77.6544 25.548V19.71C77.6544 19.57 77.7244 19.472 77.8644 19.416L79.0124 19.024C79.1944 18.954 79.3064 19.052 79.3064 19.234V20.144L82.0084 19.01C82.1764 18.954 82.2884 18.996 82.3584 19.15L82.7224 20.032ZM90.5609 25.968C89.5809 25.968 88.7829 25.548 88.4189 25.086V25.548C88.4189 25.702 88.3349 25.8 88.1669 25.8H87.0329C86.8649 25.8 86.7669 25.702 86.7669 25.548V16.644C86.7669 16.504 86.8369 16.406 86.9769 16.35L88.1249 15.944C88.3069 15.874 88.4189 15.958 88.4189 16.14V19.808C88.7969 19.318 89.5949 18.912 90.5609 18.912C92.4789 18.912 93.8789 20.284 93.8789 22.44C93.8789 24.344 92.6609 25.968 90.5609 25.968ZM90.2949 24.442C91.3589 24.442 92.1849 23.728 92.1849 22.44C92.1849 21.124 91.3589 20.438 90.2949 20.438C89.2309 20.438 88.4189 21.124 88.4189 22.44C88.4189 23.742 89.2309 24.442 90.2949 24.442ZM98.3802 18.912C100.354 18.912 101.53 20.452 101.53 22.104V22.692C101.53 22.86 101.432 22.944 101.264 22.944H96.5322C96.7142 23.798 97.3862 24.456 98.4922 24.456C99.2342 24.456 99.8502 24.218 100.382 23.882C100.536 23.798 100.662 23.826 100.732 23.98L101.18 24.792C101.25 24.932 101.236 25.058 101.138 25.128C100.438 25.66 99.5842 25.968 98.4782 25.968C96.2382 25.968 94.9082 24.484 94.9082 22.482C94.9082 20.312 96.4622 18.912 98.3802 18.912ZM96.5742 21.726H99.9762C99.8782 21.026 99.3602 20.424 98.3802 20.424C97.4702 20.424 96.7982 20.914 96.5742 21.726ZM106.691 25.366C106.733 25.506 106.705 25.618 106.565 25.688C106.201 25.87 105.865 25.968 105.347 25.968C103.793 25.968 103.233 24.96 103.233 23.756V20.564H102.491C102.323 20.564 102.239 20.466 102.239 20.298V19.332C102.239 19.178 102.323 19.08 102.491 19.08H103.233V18.17C103.233 18.03 103.289 17.932 103.429 17.876L104.577 17.456C104.759 17.386 104.885 17.484 104.885 17.666V19.08H106.047C106.215 19.08 106.299 19.178 106.299 19.332V20.298C106.299 20.466 106.215 20.564 106.047 20.564H104.885V23.504C104.885 24.008 105.025 24.372 105.571 24.372C105.739 24.372 105.879 24.33 106.061 24.26C106.229 24.176 106.341 24.218 106.397 24.4L106.691 25.366ZM111.5 25.366C111.542 25.506 111.514 25.618 111.374 25.688C111.01 25.87 110.674 25.968 110.156 25.968C108.602 25.968 108.042 24.96 108.042 23.756V20.564H107.3C107.132 20.564 107.048 20.466 107.048 20.298V19.332C107.048 19.178 107.132 19.08 107.3 19.08H108.042V18.17C108.042 18.03 108.098 17.932 108.238 17.876L109.386 17.456C109.568 17.386 109.694 17.484 109.694 17.666V19.08H110.856C111.024 19.08 111.108 19.178 111.108 19.332V20.298C111.108 20.466 111.024 20.564 110.856 20.564H109.694V23.504C109.694 24.008 109.834 24.372 110.38 24.372C110.548 24.372 110.688 24.33 110.87 24.26C111.038 24.176 111.15 24.218 111.206 24.4L111.5 25.366ZM115.638 18.912C117.612 18.912 118.788 20.452 118.788 22.104V22.692C118.788 22.86 118.69 22.944 118.522 22.944H113.79C113.972 23.798 114.644 24.456 115.75 24.456C116.492 24.456 117.108 24.218 117.64 23.882C117.794 23.798 117.92 23.826 117.99 23.98L118.438 24.792C118.508 24.932 118.494 25.058 118.396 25.128C117.696 25.66 116.842 25.968 115.736 25.968C113.496 25.968 112.166 24.484 112.166 22.482C112.166 20.312 113.72 18.912 115.638 18.912ZM113.832 21.726H117.234C117.136 21.026 116.618 20.424 115.638 20.424C114.728 20.424 114.056 20.914 113.832 21.726ZM125.055 20.032C125.111 20.186 125.069 20.312 124.915 20.368L121.639 21.712V25.548C121.639 25.702 121.555 25.8 121.387 25.8H120.253C120.085 25.8 119.987 25.702 119.987 25.548V19.71C119.987 19.57 120.057 19.472 120.197 19.416L121.345 19.024C121.527 18.954 121.639 19.052 121.639 19.234V20.144L124.341 19.01C124.509 18.954 124.621 18.996 124.691 19.15L125.055 20.032ZM124.923 25.8C124.755 25.8 124.671 25.702 124.671 25.548V24.288C124.671 24.12 124.755 24.022 124.923 24.022H126.183C126.351 24.022 126.435 24.12 126.435 24.288V25.548C126.435 25.702 126.351 25.8 126.183 25.8H124.923Z" fill="#FF1243"/>
</svg>
