<svg width="170" height="77" viewBox="0 0 170 77" fill="none" xmlns="http://www.w3.org/2000/svg">
<path d="M11.35 2.15H2.90002V7.2H9.37503C9.60003 7.2 9.75002 7.35 9.75002 7.575V8.975C9.75002 9.2 9.60003 9.35 9.37503 9.35H2.90002V15.35H11.35C11.575 15.35 11.725 15.5 11.725 15.725V17.125C11.725 17.35 11.575 17.5 11.35 17.5H1.02502C0.800025 17.5 0.650024 17.35 0.650024 17.125V0.374998C0.650024 0.15 0.800025 -1.19209e-06 1.02502 -1.19209e-06H11.35C11.575 -1.19209e-06 11.725 0.15 11.725 0.374998V1.775C11.725 2 11.575 2.15 11.35 2.15ZM14.6422 17.5C14.4172 17.5 14.2672 17.35 14.2672 17.125V6.35C14.2672 6.15 14.3672 6 14.5672 5.925L15.9922 5.4C16.2422 5.3 16.4172 5.425 16.4172 5.7V6.975C17.3422 5.625 18.7672 5.2 20.0672 5.2C22.7672 5.2 24.9172 7.025 24.9172 10.575V17.125C24.9172 17.35 24.7672 17.5 24.5422 17.5H23.1422C22.9172 17.5 22.7672 17.35 22.7672 17.125V10.65C22.7672 8.5 21.5172 7.325 19.6672 7.325C17.7922 7.325 16.4172 8.525 16.4172 10.65V17.125C16.4172 17.35 16.2672 17.5 16.0422 17.5H14.6422ZM33.4932 5.2C36.9182 5.2 39.0182 7.9 39.0182 10.9V11.825C39.0182 12.05 38.8682 12.2 38.6432 12.2H29.6182C29.8932 14.15 31.2682 15.7 33.6932 15.7C35.0432 15.7 36.2432 15.225 37.4682 14.325C37.6932 14.175 37.8682 14.2 37.9932 14.4L38.6932 15.45C38.8182 15.625 38.7932 15.825 38.6182 15.975C37.2682 17.175 35.4432 17.8 33.6682 17.8C29.7182 17.8 27.3682 15.175 27.3682 11.575C27.3682 7.625 30.1182 5.2 33.4932 5.2ZM29.6932 10.25H36.7432C36.6432 8.7 35.5432 7.3 33.4682 7.3C31.5182 7.3 30.1182 8.425 29.6932 10.25ZM49.711 6.65C49.786 6.875 49.711 7.05 49.486 7.15L43.761 9.525V17.125C43.761 17.35 43.611 17.5 43.386 17.5H41.986C41.761 17.5 41.611 17.35 41.611 17.125V6.35C41.611 6.15 41.711 6 41.911 5.925L43.336 5.4C43.586 5.3 43.761 5.425 43.761 5.7V7.425L48.761 5.35C48.986 5.25 49.161 5.325 49.261 5.55L49.711 6.65ZM56.5598 22.8C54.7848 22.8 53.0098 22.375 51.2848 21.075C51.1098 20.925 51.0848 20.75 51.1848 20.55L51.9098 19.3C52.0348 19.075 52.2098 19.05 52.4348 19.2C53.6098 20.1 55.0598 20.7 56.5848 20.7C59.2598 20.7 60.7098 19 60.7098 16.3V16.15C60.0598 16.95 58.5348 17.8 56.5598 17.8C52.8848 17.8 50.6348 14.9 50.6348 11.5C50.6348 7.65 53.4848 5.2 56.7598 5.2C58.4098 5.2 59.9348 5.825 60.7098 6.875V6.35C60.7098 6.15 60.8098 6 61.0098 5.925L62.4348 5.4C62.6848 5.3 62.8598 5.4 62.8598 5.675V15.85C62.8598 20.7 60.4098 22.8 56.5598 22.8ZM56.8098 15.675C58.9848 15.675 60.7348 14.25 60.7348 11.475C60.7348 8.725 58.9848 7.3 56.8098 7.3C54.6348 7.3 52.8348 8.725 52.8348 11.475C52.8348 14.225 54.6348 15.675 56.8098 15.675ZM76.0541 5.5C76.3291 5.5 76.4541 5.675 76.3541 5.925L69.3791 22.225C69.3041 22.425 69.1541 22.5 68.9541 22.5H67.3791C67.1041 22.5 66.9791 22.325 67.0791 22.075L69.4791 16.45L64.9791 5.925C64.8791 5.675 65.0041 5.5 65.2791 5.5H66.8791C67.0791 5.5 67.2541 5.6 67.3291 5.8L70.6541 13.7L74.0041 5.8C74.0791 5.6 74.2291 5.5 74.4291 5.5H76.0541ZM88.4379 17.8C86.6629 17.8 84.8629 17.225 83.7879 15.975C83.6379 15.825 83.6629 15.625 83.7879 15.45L84.5879 14.425C84.7379 14.225 84.9129 14.225 85.1129 14.375C85.8629 15.025 86.8629 15.7 88.4879 15.7C90.0379 15.7 90.8879 15.2 90.8879 14.225C90.8879 13.225 90.0129 12.825 88.3879 12.425C86.3629 11.925 84.1379 11.325 84.1379 8.875C84.1379 6.725 85.8379 5.2 88.5129 5.2C90.2379 5.2 91.4629 5.8 92.2629 6.45C92.4379 6.625 92.4379 6.775 92.2879 6.975L91.4879 7.975C91.3379 8.15 91.1629 8.2 90.9629 8.05C90.3879 7.65 89.5879 7.3 88.5629 7.3C87.3379 7.3 86.2879 7.775 86.2879 8.75C86.2879 9.65 87.1879 10 88.8879 10.4C91.3629 10.975 92.9879 11.9 92.9879 14.075C92.9879 17.125 90.2629 17.8 88.4379 17.8ZM101.218 5.2C104.643 5.2 106.743 7.9 106.743 10.9V11.825C106.743 12.05 106.593 12.2 106.368 12.2H97.3428C97.6178 14.15 98.9928 15.7 101.418 15.7C102.768 15.7 103.968 15.225 105.193 14.325C105.418 14.175 105.593 14.2 105.718 14.4L106.418 15.45C106.543 15.625 106.518 15.825 106.343 15.975C104.993 17.175 103.168 17.8 101.393 17.8C97.4428 17.8 95.0928 15.175 95.0928 11.575C95.0928 7.625 97.8428 5.2 101.218 5.2ZM97.4178 10.25H104.468C104.368 8.7 103.268 7.3 101.193 7.3C99.2428 7.3 97.8428 8.425 97.4178 10.25ZM115.136 17.8C111.561 17.8 108.936 15.125 108.936 11.5C108.936 7.875 111.561 5.2 115.136 5.2C116.736 5.2 118.036 5.625 118.986 6.325C119.186 6.475 119.186 6.65 119.086 6.85L118.436 7.975C118.311 8.2 118.136 8.25 117.936 8.125C117.386 7.775 116.636 7.3 115.286 7.3C112.661 7.3 111.136 9.15 111.136 11.5C111.136 13.85 112.661 15.7 115.286 15.7C116.611 15.7 117.386 15.275 117.986 14.9C118.186 14.8 118.361 14.85 118.486 15.05L119.086 16.15C119.186 16.35 119.211 16.5 119.136 16.575C118.386 17.175 116.886 17.8 115.136 17.8ZM126.487 17.8C123.787 17.8 121.637 15.975 121.637 12.425V6.35C121.637 6.15 121.737 6 121.937 5.925L123.362 5.4C123.612 5.3 123.787 5.425 123.787 5.7V12.35C123.787 14.5 125.037 15.675 126.887 15.675C128.762 15.675 130.137 14.475 130.137 12.35V6.35C130.137 6.15 130.237 6 130.437 5.925L131.862 5.4C132.112 5.3 132.287 5.425 132.287 5.7V17.125C132.287 17.35 132.137 17.5 131.912 17.5H130.512C130.287 17.5 130.137 17.35 130.137 17.125V16.025C129.212 17.375 127.787 17.8 126.487 17.8ZM143.388 6.65C143.463 6.875 143.388 7.05 143.163 7.15L137.438 9.525V17.125C137.438 17.35 137.288 17.5 137.063 17.5H135.663C135.438 17.5 135.288 17.35 135.288 17.125V6.35C135.288 6.15 135.388 6 135.588 5.925L137.013 5.4C137.263 5.3 137.438 5.425 137.438 5.7V7.425L142.438 5.35C142.663 5.25 142.838 5.325 142.938 5.55L143.388 6.65ZM145.867 4.125C145.617 4.2 145.442 4.1 145.442 3.825V2.05C145.442 1.85 145.542 1.7 145.742 1.625L147.317 1.025C147.567 0.924999 147.742 1.05 147.742 1.325V3.175C147.742 3.375 147.642 3.525 147.442 3.6L145.867 4.125ZM145.892 17.5C145.667 17.5 145.517 17.35 145.517 17.125V6.35C145.517 6.15 145.617 6 145.817 5.925L147.242 5.4C147.492 5.3 147.667 5.425 147.667 5.7V17.125C147.667 17.35 147.517 17.5 147.292 17.5H145.892ZM156.844 16.925C156.919 17.125 156.844 17.325 156.594 17.45C156.044 17.7 155.569 17.8 155.044 17.8C152.269 17.8 151.619 16 151.619 13.85V7.45H150.044C149.819 7.45 149.669 7.3 149.669 7.075V5.875C149.669 5.65 149.819 5.5 150.044 5.5H151.619V3.6C151.619 3.4 151.719 3.25 151.919 3.175L153.344 2.65C153.594 2.55 153.769 2.675 153.769 2.95V5.5H155.919C156.144 5.5 156.294 5.65 156.294 5.875V7.075C156.294 7.3 156.144 7.45 155.919 7.45H153.769V13.875C153.769 14.9 154.144 15.65 155.219 15.65C155.444 15.65 155.669 15.6 155.944 15.5C156.194 15.425 156.369 15.475 156.444 15.725L156.844 16.925ZM169.365 5.5C169.64 5.5 169.765 5.675 169.665 5.925L162.69 22.225C162.615 22.425 162.465 22.5 162.265 22.5H160.69C160.415 22.5 160.29 22.325 160.39 22.075L162.79 16.45L158.29 5.925C158.19 5.675 158.315 5.5 158.59 5.5H160.19C160.39 5.5 160.565 5.6 160.64 5.8L163.965 13.7L167.315 5.8C167.39 5.6 167.54 5.5 167.74 5.5H169.365ZM8.50002 33.65C8.57503 33.875 8.50002 34.05 8.27503 34.15L2.55002 36.525V44.125C2.55002 44.35 2.40002 44.5 2.17502 44.5H0.775024C0.550024 44.5 0.400024 44.35 0.400024 44.125V33.35C0.400024 33.15 0.500024 33 0.700025 32.925L2.12502 32.4C2.37502 32.3 2.55002 32.425 2.55002 32.7V34.425L7.55002 32.35C7.77502 32.25 7.95002 32.325 8.05003 32.55L8.50002 33.65ZM15.5489 32.2C18.9739 32.2 21.0739 34.9 21.0739 37.9V38.825C21.0739 39.05 20.9239 39.2 20.6989 39.2H11.6739C11.9489 41.15 13.3239 42.7 15.7489 42.7C17.0989 42.7 18.2989 42.225 19.5239 41.325C19.7489 41.175 19.9239 41.2 20.0489 41.4L20.7489 42.45C20.8739 42.625 20.8489 42.825 20.6739 42.975C19.3239 44.175 17.4989 44.8 15.7239 44.8C11.7739 44.8 9.42385 42.175 9.42385 38.575C9.42385 34.625 12.1739 32.2 15.5489 32.2ZM11.7489 37.25H18.7989C18.6989 35.7 17.5989 34.3 15.5239 34.3C13.5739 34.3 12.1739 35.425 11.7489 37.25ZM33.7166 49.5C33.4916 49.5 33.3416 49.35 33.3416 49.125V43.15C32.6416 44.025 30.9916 44.8 29.2666 44.8C25.4666 44.8 23.2666 41.9 23.2666 38.475C23.2666 34.65 26.1166 32.2 29.3916 32.2C31.0416 32.2 32.5666 32.825 33.3416 33.875V33.35C33.3416 33.15 33.4416 33 33.6416 32.925L35.0666 32.4C35.3166 32.3 35.4916 32.4 35.4916 32.675V49.125C35.4916 49.35 35.3416 49.5 35.1166 49.5H33.7166ZM29.4166 42.675C31.6416 42.675 33.3666 41.25 33.3666 38.475C33.3666 35.725 31.6416 34.3 29.4166 34.3C27.2916 34.3 25.4666 35.725 25.4666 38.475C25.4666 41.225 27.2916 42.675 29.4166 42.675ZM43.186 44.8C40.486 44.8 38.336 42.975 38.336 39.425V33.35C38.336 33.15 38.436 33 38.636 32.925L40.061 32.4C40.311 32.3 40.486 32.425 40.486 32.7V39.35C40.486 41.5 41.736 42.675 43.586 42.675C45.461 42.675 46.836 41.475 46.836 39.35V33.35C46.836 33.15 46.936 33 47.136 32.925L48.561 32.4C48.811 32.3 48.986 32.425 48.986 32.7V44.125C48.986 44.35 48.836 44.5 48.611 44.5H47.211C46.986 44.5 46.836 44.35 46.836 44.125V43.025C45.911 44.375 44.486 44.8 43.186 44.8ZM52.3369 31.125C52.0869 31.2 51.9119 31.1 51.9119 30.825V29.05C51.9119 28.85 52.0119 28.7 52.2119 28.625L53.7869 28.025C54.0369 27.925 54.2119 28.05 54.2119 28.325V30.175C54.2119 30.375 54.1119 30.525 53.9119 30.6L52.3369 31.125ZM52.3619 44.5C52.1369 44.5 51.9869 44.35 51.9869 44.125V33.35C51.9869 33.15 52.0869 33 52.2869 32.925L53.7119 32.4C53.9619 32.3 54.1369 32.425 54.1369 32.7V44.125C54.1369 44.35 53.9869 44.5 53.7619 44.5H52.3619ZM65.2383 33.65C65.3133 33.875 65.2383 34.05 65.0133 34.15L59.2883 36.525V44.125C59.2883 44.35 59.1383 44.5 58.9133 44.5H57.5133C57.2883 44.5 57.1383 44.35 57.1383 44.125V33.35C57.1383 33.15 57.2383 33 57.4383 32.925L58.8633 32.4C59.1133 32.3 59.2883 32.425 59.2883 32.7V34.425L64.2883 32.35C64.5133 32.25 64.6883 32.325 64.7883 32.55L65.2383 33.65ZM72.2871 32.2C75.7121 32.2 77.8121 34.9 77.8121 37.9V38.825C77.8121 39.05 77.6621 39.2 77.4371 39.2H68.4121C68.6871 41.15 70.0621 42.7 72.4871 42.7C73.8371 42.7 75.0371 42.225 76.2621 41.325C76.4871 41.175 76.6621 41.2 76.7871 41.4L77.4871 42.45C77.6121 42.625 77.5871 42.825 77.4121 42.975C76.0621 44.175 74.2371 44.8 72.4621 44.8C68.5121 44.8 66.1621 42.175 66.1621 38.575C66.1621 34.625 68.9121 32.2 72.2871 32.2ZM68.4871 37.25H75.5371C75.4371 35.7 74.3371 34.3 72.2621 34.3C70.3121 34.3 68.9121 35.425 68.4871 37.25ZM84.6049 44.8C82.8299 44.8 81.0299 44.225 79.9549 42.975C79.8049 42.825 79.8299 42.625 79.9549 42.45L80.7549 41.425C80.9049 41.225 81.0799 41.225 81.2799 41.375C82.0299 42.025 83.0299 42.7 84.6549 42.7C86.2049 42.7 87.0549 42.2 87.0549 41.225C87.0549 40.225 86.1799 39.825 84.5549 39.425C82.5299 38.925 80.3049 38.325 80.3049 35.875C80.3049 33.725 82.0049 32.2 84.6799 32.2C86.4049 32.2 87.6299 32.8 88.4299 33.45C88.6049 33.625 88.6049 33.775 88.4549 33.975L87.6549 34.975C87.5049 35.15 87.3299 35.2 87.1299 35.05C86.5549 34.65 85.7549 34.3 84.7299 34.3C83.5049 34.3 82.4549 34.775 82.4549 35.75C82.4549 36.65 83.3549 37 85.0549 37.4C87.5299 37.975 89.1549 38.9 89.1549 41.075C89.1549 44.125 86.4299 44.8 84.6049 44.8ZM103.022 44.8C99.2215 44.8 97.0215 41.9 97.0215 38.475C97.0215 34.65 99.8715 32.2 103.147 32.2C104.797 32.2 106.322 32.825 107.097 33.875V33.35C107.097 33.15 107.197 33 107.397 32.925L108.822 32.4C109.072 32.3 109.247 32.4 109.247 32.675V44.125C109.247 44.35 109.097 44.5 108.872 44.5H107.472C107.247 44.5 107.097 44.35 107.097 44.125V43.15C106.397 44.025 104.747 44.8 103.022 44.8ZM103.172 42.675C105.397 42.675 107.122 41.25 107.122 38.475C107.122 35.725 105.397 34.3 103.172 34.3C101.047 34.3 99.2215 35.725 99.2215 38.475C99.2215 41.225 101.047 42.675 103.172 42.675ZM112.616 44.5C112.391 44.5 112.241 44.35 112.241 44.125V27.85C112.241 27.65 112.341 27.5 112.541 27.425L113.966 26.9C114.216 26.8 114.391 26.925 114.391 27.2V44.125C114.391 44.35 114.241 44.5 114.016 44.5H112.616ZM117.767 44.5C117.542 44.5 117.392 44.35 117.392 44.125V27.85C117.392 27.65 117.492 27.5 117.692 27.425L119.117 26.9C119.367 26.8 119.542 26.925 119.542 27.2V44.125C119.542 44.35 119.392 44.5 119.167 44.5H117.767ZM134.08 44.8C130.48 44.8 127.905 42.125 127.905 38.5C127.905 34.875 130.48 32.2 134.08 32.2C137.68 32.2 140.23 34.875 140.23 38.5C140.23 42.125 137.68 44.8 134.08 44.8ZM134.08 42.7C136.53 42.7 138.03 40.85 138.03 38.5C138.03 36.15 136.53 34.3 134.08 34.3C131.605 34.3 130.105 36.15 130.105 38.5C130.105 40.85 131.605 42.7 134.08 42.7ZM148.484 27.25C148.709 27.375 148.784 27.525 148.709 27.725L148.284 28.95C148.209 29.175 148.034 29.25 147.784 29.125C147.484 29 147.309 29 147.059 29C145.984 29 145.609 29.75 145.609 30.775V32.5H147.659C147.884 32.5 148.034 32.65 148.034 32.875V34.075C148.034 34.3 147.884 34.45 147.659 34.45H145.609V44.125C145.609 44.35 145.459 44.5 145.234 44.5H143.834C143.609 44.5 143.459 44.35 143.459 44.125V34.45H142.409C142.184 34.45 142.034 34.3 142.034 34.075V32.875C142.034 32.65 142.184 32.5 142.409 32.5H143.459V30.8C143.459 29.1 143.859 26.85 146.809 26.85C147.409 26.85 147.984 26.975 148.484 27.25ZM6.17502 71.8C2.57502 71.8 2.45012e-05 69.125 2.45012e-05 65.5C2.45012e-05 61.875 2.57502 59.2 6.17502 59.2C9.77503 59.2 12.325 61.875 12.325 65.5C12.325 69.125 9.77503 71.8 6.17502 71.8ZM6.17502 69.7C8.62503 69.7 10.125 67.85 10.125 65.5C10.125 63.15 8.62503 61.3 6.17502 61.3C3.70002 61.3 2.20002 63.15 2.20002 65.5C2.20002 67.85 3.70002 69.7 6.17502 69.7ZM19.6264 71.8C16.9264 71.8 14.7764 69.975 14.7764 66.425V60.35C14.7764 60.15 14.8764 60 15.0764 59.925L16.5014 59.4C16.7514 59.3 16.9264 59.425 16.9264 59.7V66.35C16.9264 68.5 18.1764 69.675 20.0264 69.675C21.9014 69.675 23.2764 68.475 23.2764 66.35V60.35C23.2764 60.15 23.3764 60 23.5764 59.925L25.0014 59.4C25.2514 59.3 25.4264 59.425 25.4264 59.7V71.125C25.4264 71.35 25.2764 71.5 25.0514 71.5H23.6514C23.4264 71.5 23.2764 71.35 23.2764 71.125V70.025C22.3514 71.375 20.9264 71.8 19.6264 71.8ZM36.5274 60.65C36.6024 60.875 36.5274 61.05 36.3024 61.15L30.5774 63.525V71.125C30.5774 71.35 30.4274 71.5 30.2024 71.5H28.8024C28.5774 71.5 28.4274 71.35 28.4274 71.125V60.35C28.4274 60.15 28.5274 60 28.7274 59.925L30.1524 59.4C30.4024 59.3 30.5774 59.425 30.5774 59.7V61.425L35.5774 59.35C35.8024 59.25 35.9774 59.325 36.0774 59.55L36.5274 60.65ZM50.1436 59.2C53.5686 59.2 55.6686 61.9 55.6686 64.9V65.825C55.6686 66.05 55.5186 66.2 55.2936 66.2H46.2686C46.5436 68.15 47.9186 69.7 50.3436 69.7C51.6936 69.7 52.8936 69.225 54.1186 68.325C54.3436 68.175 54.5186 68.2 54.6436 68.4L55.3436 69.45C55.4686 69.625 55.4436 69.825 55.2686 69.975C53.9186 71.175 52.0936 71.8 50.3186 71.8C46.3686 71.8 44.0186 69.175 44.0186 65.575C44.0186 61.625 46.7686 59.2 50.1436 59.2ZM46.3436 64.25H53.3936C53.2936 62.7 52.1936 61.3 50.1186 61.3C48.1686 61.3 46.7686 62.425 46.3436 64.25ZM58.6364 71.5C58.4114 71.5 58.2614 71.35 58.2614 71.125V60.35C58.2614 60.15 58.3614 60 58.5614 59.925L59.9864 59.4C60.2364 59.3 60.4114 59.425 60.4114 59.7V60.975C61.3364 59.625 62.7614 59.2 64.0614 59.2C66.7614 59.2 68.9114 61.025 68.9114 64.575V71.125C68.9114 71.35 68.7614 71.5 68.5364 71.5H67.1364C66.9114 71.5 66.7614 71.35 66.7614 71.125V64.65C66.7614 62.5 65.5114 61.325 63.6614 61.325C61.7864 61.325 60.4114 62.525 60.4114 64.65V71.125C60.4114 71.35 60.2614 71.5 60.0364 71.5H58.6364ZM77.4873 59.2C80.9123 59.2 83.0123 61.9 83.0123 64.9V65.825C83.0123 66.05 82.8623 66.2 82.6373 66.2H73.6123C73.8873 68.15 75.2623 69.7 77.6873 69.7C79.0373 69.7 80.2373 69.225 81.4623 68.325C81.6873 68.175 81.8623 68.2 81.9873 68.4L82.6873 69.45C82.8123 69.625 82.7873 69.825 82.6123 69.975C81.2623 71.175 79.4373 71.8 77.6623 71.8C73.7123 71.8 71.3623 69.175 71.3623 65.575C71.3623 61.625 74.1123 59.2 77.4873 59.2ZM73.6873 64.25H80.7373C80.6373 62.7 79.5373 61.3 77.4623 61.3C75.5123 61.3 74.1123 62.425 73.6873 64.25ZM93.7051 60.65C93.7801 60.875 93.7051 61.05 93.4801 61.15L87.7551 63.525V71.125C87.7551 71.35 87.6051 71.5 87.3801 71.5H85.9801C85.7551 71.5 85.6051 71.35 85.6051 71.125V60.35C85.6051 60.15 85.7051 60 85.9051 59.925L87.3301 59.4C87.5801 59.3 87.7551 59.425 87.7551 59.7V61.425L92.7551 59.35C92.9801 59.25 93.1551 59.325 93.2551 59.55L93.7051 60.65ZM100.554 76.8C98.7789 76.8 97.0039 76.375 95.2789 75.075C95.1039 74.925 95.0789 74.75 95.1789 74.55L95.9039 73.3C96.0289 73.075 96.2039 73.05 96.4289 73.2C97.6039 74.1 99.0539 74.7 100.579 74.7C103.254 74.7 104.704 73 104.704 70.3V70.15C104.054 70.95 102.529 71.8 100.554 71.8C96.8789 71.8 94.6289 68.9 94.6289 65.5C94.6289 61.65 97.4789 59.2 100.754 59.2C102.404 59.2 103.929 59.825 104.704 60.875V60.35C104.704 60.15 104.804 60 105.004 59.925L106.429 59.4C106.679 59.3 106.854 59.4 106.854 59.675V69.85C106.854 74.7 104.404 76.8 100.554 76.8ZM100.804 69.675C102.979 69.675 104.729 68.25 104.729 65.475C104.729 62.725 102.979 61.3 100.804 61.3C98.6289 61.3 96.8289 62.725 96.8289 65.475C96.8289 68.225 98.6289 69.675 100.804 69.675ZM120.048 59.5C120.323 59.5 120.448 59.675 120.348 59.925L113.373 76.225C113.298 76.425 113.148 76.5 112.948 76.5H111.373C111.098 76.5 110.973 76.325 111.073 76.075L113.473 70.45L108.973 59.925C108.873 59.675 108.998 59.5 109.273 59.5H110.873C111.073 59.5 111.248 59.6 111.323 59.8L114.648 67.7L117.998 59.8C118.073 59.6 118.223 59.5 118.423 59.5H120.048ZM121.594 71.5C121.369 71.5 121.219 71.35 121.219 71.125V69.575C121.219 69.35 121.369 69.2 121.594 69.2H123.144C123.369 69.2 123.519 69.35 123.519 69.575V71.125C123.519 71.35 123.369 71.5 123.144 71.5H121.594Z" fill="#243746"/>
</svg>
