<svg width="215" height="55" viewBox="0 0 215 55" fill="none" xmlns="http://www.w3.org/2000/svg">
<path d="M4.122 12.762C3.978 12.762 3.87 12.708 3.816 12.546L0.0540022 0.467993C2.21282e-06 0.269993 0.0900022 0.161993 0.288002 0.161993H1.494C1.638 0.161993 1.764 0.251992 1.8 0.395993L4.734 10.224L7.668 0.395993C7.704 0.251992 7.83 0.161993 7.974 0.161993H9.342C9.486 0.161993 9.612 0.251992 9.648 0.395993L12.582 10.224L15.516 0.395993C15.552 0.251992 15.678 0.161993 15.822 0.161993H17.028C17.226 0.161993 17.316 0.269993 17.262 0.467993L13.5 12.546C13.446 12.708 13.338 12.762 13.194 12.762H11.97C11.826 12.762 11.7 12.672 11.664 12.528L8.658 2.62799L5.652 12.528C5.616 12.672 5.49 12.762 5.346 12.762H4.122ZM21.5688 3.90599C24.0348 3.90599 25.5468 5.84999 25.5468 8.00999V8.67599C25.5468 8.83799 25.4388 8.94599 25.2768 8.94599H18.7788C18.9768 10.35 19.9668 11.466 21.7128 11.466C22.6848 11.466 23.5488 11.124 24.4308 10.476C24.5928 10.368 24.7188 10.386 24.8088 10.53L25.3128 11.286C25.4028 11.412 25.3848 11.556 25.2588 11.664C24.2868 12.528 22.9728 12.978 21.6948 12.978C18.8508 12.978 17.1588 11.088 17.1588 8.49599C17.1588 5.65199 19.1388 3.90599 21.5688 3.90599ZM18.8328 7.54199H23.9088C23.8368 6.42599 23.0448 5.41799 21.5508 5.41799C20.1468 5.41799 19.1388 6.22799 18.8328 7.54199ZM31.472 12.762C31.31 12.762 31.202 12.654 31.202 12.492V0.773993C31.202 0.629993 31.274 0.521993 31.418 0.467993L32.444 0.0899924C32.624 0.0179933 32.75 0.107993 32.75 0.305993V12.492C32.75 12.654 32.642 12.762 32.48 12.762H31.472ZM38.889 12.978C36.297 12.978 34.443 11.052 34.443 8.44199C34.443 5.83199 36.297 3.90599 38.889 3.90599C41.481 3.90599 43.317 5.83199 43.317 8.44199C43.317 11.052 41.481 12.978 38.889 12.978ZM38.889 11.466C40.653 11.466 41.733 10.134 41.733 8.44199C41.733 6.74999 40.653 5.41799 38.889 5.41799C37.107 5.41799 36.027 6.74999 36.027 8.44199C36.027 10.134 37.107 11.466 38.889 11.466ZM49.168 12.978C46.576 12.978 44.722 11.052 44.722 8.44199C44.722 5.83199 46.576 3.90599 49.168 3.90599C51.76 3.90599 53.596 5.83199 53.596 8.44199C53.596 11.052 51.76 12.978 49.168 12.978ZM49.168 11.466C50.932 11.466 52.012 10.134 52.012 8.44199C52.012 6.74999 50.932 5.41799 49.168 5.41799C47.386 5.41799 46.306 6.74999 46.306 8.44199C46.306 10.134 47.386 11.466 49.168 11.466ZM62.057 12.438C62.201 12.6 62.147 12.762 61.913 12.762H60.581C60.455 12.762 60.347 12.726 60.257 12.618L56.837 8.89199V12.492C56.837 12.654 56.729 12.762 56.567 12.762H55.559C55.397 12.762 55.289 12.654 55.289 12.492V0.773993C55.289 0.629993 55.361 0.521993 55.505 0.467993L56.531 0.0899924C56.711 0.0179933 56.837 0.107993 56.837 0.305993V7.45199L60.041 4.26599C60.149 4.15799 60.257 4.12199 60.383 4.12199H61.715C61.949 4.12199 62.021 4.28399 61.859 4.44599L58.187 8.11799L62.057 12.438ZM71.4967 0.341992C71.6587 0.431992 71.7127 0.539993 71.6587 0.683993L71.3527 1.56599C71.2987 1.72799 71.1727 1.78199 70.9927 1.69199C70.7767 1.60199 70.6507 1.60199 70.4707 1.60199C69.6967 1.60199 69.4267 2.14199 69.4267 2.87999V4.12199H70.9027C71.0647 4.12199 71.1727 4.22999 71.1727 4.39199V5.25599C71.1727 5.41799 71.0647 5.52599 70.9027 5.52599H69.4267V12.492C69.4267 12.654 69.3187 12.762 69.1567 12.762H68.1487C67.9867 12.762 67.8787 12.654 67.8787 12.492V5.52599H67.1227C66.9607 5.52599 66.8527 5.41799 66.8527 5.25599V4.39199C66.8527 4.22999 66.9607 4.12199 67.1227 4.12199H67.8787V2.89799C67.8787 1.67399 68.1667 0.0539929 70.2907 0.0539929C70.7227 0.0539929 71.1367 0.143993 71.4967 0.341992ZM76.6081 12.978C74.0161 12.978 72.1621 11.052 72.1621 8.44199C72.1621 5.83199 74.0161 3.90599 76.6081 3.90599C79.2001 3.90599 81.0361 5.83199 81.0361 8.44199C81.0361 11.052 79.2001 12.978 76.6081 12.978ZM76.6081 11.466C78.3721 11.466 79.4521 10.134 79.4521 8.44199C79.4521 6.74999 78.3721 5.41799 76.6081 5.41799C74.8261 5.41799 73.7461 6.74999 73.7461 8.44199C73.7461 10.134 74.8261 11.466 76.6081 11.466ZM88.5611 4.94999C88.6151 5.11199 88.5611 5.23799 88.3991 5.30999L84.2771 7.01999V12.492C84.2771 12.654 84.1691 12.762 84.0071 12.762H82.9991C82.8371 12.762 82.7291 12.654 82.7291 12.492V4.73399C82.7291 4.58999 82.8011 4.48199 82.9451 4.42799L83.9711 4.04999C84.1511 3.97799 84.2771 4.06799 84.2771 4.26599V5.50799L87.8771 4.01399C88.0391 3.94199 88.1651 3.99599 88.2371 4.15799L88.5611 4.94999ZM92.2184 12.762C92.0744 12.762 91.9664 12.708 91.9124 12.546L89.2844 4.42799C89.2304 4.24799 89.3024 4.12199 89.5004 4.12199H90.5264C90.6704 4.12199 90.7964 4.19399 90.8324 4.33799L92.6864 10.368L94.4864 4.35599C94.5224 4.21199 94.6484 4.12199 94.7924 4.12199H95.8184C95.9624 4.12199 96.0884 4.21199 96.1244 4.35599L97.9244 10.368L99.7784 4.33799C99.8144 4.19399 99.9404 4.12199 100.084 4.12199H101.074C101.272 4.12199 101.362 4.22999 101.308 4.42799L98.6984 12.546C98.6444 12.708 98.5364 12.762 98.3924 12.762H97.4564C97.3124 12.762 97.1864 12.69 97.1504 12.546L95.3144 6.55199L93.4604 12.546C93.4244 12.69 93.2984 12.762 93.1544 12.762H92.2184ZM106.387 12.978C103.651 12.978 102.067 10.89 102.067 8.42399C102.067 5.66999 104.119 3.90599 106.477 3.90599C107.665 3.90599 108.763 4.35599 109.321 5.11199V4.73399C109.321 4.58999 109.393 4.48199 109.537 4.42799L110.563 4.04999C110.743 3.97799 110.869 4.04999 110.869 4.24799V12.492C110.869 12.654 110.761 12.762 110.599 12.762H109.591C109.429 12.762 109.321 12.654 109.321 12.492V11.79C108.817 12.42 107.629 12.978 106.387 12.978ZM106.495 11.448C108.097 11.448 109.339 10.422 109.339 8.42399C109.339 6.44399 108.097 5.41799 106.495 5.41799C104.965 5.41799 103.651 6.44399 103.651 8.42399C103.651 10.404 104.965 11.448 106.495 11.448ZM118.677 4.94999C118.731 5.11199 118.677 5.23799 118.515 5.30999L114.393 7.01999V12.492C114.393 12.654 114.285 12.762 114.123 12.762H113.115C112.953 12.762 112.845 12.654 112.845 12.492V4.73399C112.845 4.58999 112.917 4.48199 113.061 4.42799L114.087 4.04999C114.267 3.97799 114.393 4.06799 114.393 4.26599V5.50799L117.993 4.01399C118.155 3.94199 118.281 3.99599 118.353 4.15799L118.677 4.94999ZM123.483 12.978C120.747 12.978 119.163 10.89 119.163 8.42399C119.163 5.66999 121.215 3.90599 123.573 3.90599C124.761 3.90599 125.859 4.35599 126.417 5.11199V0.755992C126.417 0.611993 126.489 0.503992 126.633 0.449993L127.659 0.0719926C127.839 -7.51019e-06 127.965 0.0719926 127.965 0.269993V12.492C127.965 12.654 127.857 12.762 127.695 12.762H126.687C126.525 12.762 126.417 12.654 126.417 12.492V11.79C125.913 12.42 124.725 12.978 123.483 12.978ZM123.591 11.448C125.193 11.448 126.435 10.422 126.435 8.42399C126.435 6.44399 125.193 5.41799 123.591 5.41799C122.061 5.41799 120.747 6.44399 120.747 8.42399C120.747 10.404 122.061 11.448 123.591 11.448ZM138.355 12.348C138.409 12.492 138.355 12.636 138.175 12.726C137.779 12.906 137.437 12.978 137.059 12.978C135.061 12.978 134.593 11.682 134.593 10.134V5.52599H133.459C133.297 5.52599 133.189 5.41799 133.189 5.25599V4.39199C133.189 4.22999 133.297 4.12199 133.459 4.12199H134.593V2.75399C134.593 2.60999 134.665 2.50199 134.809 2.44799L135.835 2.06999C136.015 1.99799 136.141 2.08799 136.141 2.28599V4.12199H137.689C137.851 4.12199 137.959 4.22999 137.959 4.39199V5.25599C137.959 5.41799 137.851 5.52599 137.689 5.52599H136.141V10.152C136.141 10.89 136.411 11.43 137.185 11.43C137.347 11.43 137.509 11.394 137.707 11.322C137.887 11.268 138.013 11.304 138.067 11.484L138.355 12.348ZM143.688 12.978C141.096 12.978 139.242 11.052 139.242 8.44199C139.242 5.83199 141.096 3.90599 143.688 3.90599C146.28 3.90599 148.116 5.83199 148.116 8.44199C148.116 11.052 146.28 12.978 143.688 12.978ZM143.688 11.466C145.452 11.466 146.532 10.134 146.532 8.44199C146.532 6.74999 145.452 5.41799 143.688 5.41799C141.906 5.41799 140.826 6.74999 140.826 8.44199C140.826 10.134 141.906 11.466 143.688 11.466ZM158.223 12.348C158.277 12.492 158.223 12.636 158.043 12.726C157.647 12.906 157.305 12.978 156.927 12.978C154.929 12.978 154.461 11.682 154.461 10.134V5.52599H153.327C153.165 5.52599 153.057 5.41799 153.057 5.25599V4.39199C153.057 4.22999 153.165 4.12199 153.327 4.12199H154.461V2.75399C154.461 2.60999 154.533 2.50199 154.677 2.44799L155.703 2.06999C155.883 1.99799 156.009 2.08799 156.009 2.28599V4.12199H157.557C157.719 4.12199 157.827 4.22999 157.827 4.39199V5.25599C157.827 5.41799 157.719 5.52599 157.557 5.52599H156.009V10.152C156.009 10.89 156.279 11.43 157.053 11.43C157.215 11.43 157.377 11.394 157.575 11.322C157.755 11.268 157.881 11.304 157.935 11.484L158.223 12.348ZM163.43 12.978C160.694 12.978 159.11 10.89 159.11 8.42399C159.11 5.66999 161.162 3.90599 163.52 3.90599C164.708 3.90599 165.806 4.35599 166.364 5.11199V4.73399C166.364 4.58999 166.436 4.48199 166.58 4.42799L167.606 4.04999C167.786 3.97799 167.912 4.04999 167.912 4.24799V12.492C167.912 12.654 167.804 12.762 167.642 12.762H166.634C166.472 12.762 166.364 12.654 166.364 12.492V11.79C165.86 12.42 164.672 12.978 163.43 12.978ZM163.538 11.448C165.14 11.448 166.382 10.422 166.382 8.42399C166.382 6.44399 165.14 5.41799 163.538 5.41799C162.008 5.41799 160.694 6.44399 160.694 8.42399C160.694 10.404 162.008 11.448 163.538 11.448ZM174.064 12.978C171.49 12.978 169.6 11.052 169.6 8.44199C169.6 5.83199 171.49 3.90599 174.064 3.90599C175.216 3.90599 176.152 4.21199 176.836 4.71599C176.98 4.82399 176.98 4.94999 176.908 5.09399L176.44 5.90399C176.35 6.06599 176.224 6.10199 176.08 6.01199C175.684 5.75999 175.144 5.41799 174.172 5.41799C172.282 5.41799 171.184 6.74999 171.184 8.44199C171.184 10.134 172.282 11.466 174.172 11.466C175.126 11.466 175.684 11.16 176.116 10.89C176.26 10.818 176.386 10.854 176.476 10.998L176.908 11.79C176.98 11.934 176.998 12.042 176.944 12.096C176.404 12.528 175.324 12.978 174.064 12.978ZM185.441 12.438C185.585 12.6 185.531 12.762 185.297 12.762H183.965C183.839 12.762 183.731 12.726 183.641 12.618L180.221 8.89199V12.492C180.221 12.654 180.113 12.762 179.951 12.762H178.943C178.781 12.762 178.673 12.654 178.673 12.492V0.773993C178.673 0.629993 178.745 0.521993 178.889 0.467993L179.915 0.0899924C180.095 0.0179933 180.221 0.107993 180.221 0.305993V7.45199L183.425 4.26599C183.533 4.15799 183.641 4.12199 183.767 4.12199H185.099C185.333 4.12199 185.405 4.28399 185.243 4.44599L181.571 8.11799L185.441 12.438ZM187.042 12.762C186.88 12.762 186.772 12.654 186.772 12.492V0.773993C186.772 0.629993 186.844 0.521993 186.988 0.467993L188.014 0.0899924C188.194 0.0179933 188.32 0.107993 188.32 0.305993V12.492C188.32 12.654 188.212 12.762 188.05 12.762H187.042ZM190.553 3.13199C190.373 3.18599 190.247 3.11399 190.247 2.91599V1.63799C190.247 1.49399 190.319 1.38599 190.463 1.33199L191.597 0.899993C191.777 0.827993 191.903 0.917992 191.903 1.11599V2.44799C191.903 2.59199 191.831 2.69999 191.687 2.75399L190.553 3.13199ZM190.571 12.762C190.409 12.762 190.301 12.654 190.301 12.492V4.73399C190.301 4.58999 190.373 4.48199 190.517 4.42799L191.543 4.04999C191.723 3.97799 191.849 4.06799 191.849 4.26599V12.492C191.849 12.654 191.741 12.762 191.579 12.762H190.571ZM194.1 12.762C193.938 12.762 193.83 12.654 193.83 12.492V4.73399C193.83 4.58999 193.902 4.48199 194.046 4.42799L195.072 4.04999C195.252 3.97799 195.378 4.06799 195.378 4.26599V5.18399C196.044 4.21199 197.07 3.90599 198.006 3.90599C199.95 3.90599 201.498 5.21999 201.498 7.77599V12.492C201.498 12.654 201.39 12.762 201.228 12.762H200.22C200.058 12.762 199.95 12.654 199.95 12.492V7.82999C199.95 6.28199 199.05 5.43599 197.718 5.43599C196.368 5.43599 195.378 6.29999 195.378 7.82999V12.492C195.378 12.654 195.27 12.762 195.108 12.762H194.1ZM207.349 16.578C206.071 16.578 204.793 16.272 203.551 15.336C203.425 15.228 203.407 15.102 203.479 14.958L204.001 14.058C204.091 13.896 204.217 13.878 204.379 13.986C205.225 14.634 206.269 15.066 207.367 15.066C209.293 15.066 210.337 13.842 210.337 11.898V11.79C209.869 12.366 208.771 12.978 207.349 12.978C204.703 12.978 203.083 10.89 203.083 8.44199C203.083 5.66999 205.135 3.90599 207.493 3.90599C208.681 3.90599 209.779 4.35599 210.337 5.11199V4.73399C210.337 4.58999 210.409 4.48199 210.553 4.42799L211.579 4.04999C211.759 3.97799 211.885 4.04999 211.885 4.24799V11.574C211.885 15.066 210.121 16.578 207.349 16.578ZM207.529 11.448C209.095 11.448 210.355 10.422 210.355 8.42399C210.355 6.44399 209.095 5.41799 207.529 5.41799C205.963 5.41799 204.667 6.44399 204.667 8.42399C204.667 10.404 205.963 11.448 207.529 11.448ZM4.698 23.906C7.164 23.906 8.676 25.85 8.676 28.01V28.676C8.676 28.838 8.568 28.946 8.406 28.946H1.908C2.106 30.35 3.096 31.466 4.842 31.466C5.814 31.466 6.678 31.124 7.56 30.476C7.722 30.368 7.848 30.386 7.938 30.53L8.442 31.286C8.532 31.412 8.514 31.556 8.388 31.664C7.416 32.528 6.102 32.978 4.824 32.978C1.98 32.978 0.288002 31.088 0.288002 28.496C0.288002 25.652 2.268 23.906 4.698 23.906ZM1.962 27.542H7.038C6.966 26.426 6.174 25.418 4.68 25.418C3.276 25.418 2.268 26.228 1.962 27.542ZM10.6328 32.762C10.4708 32.762 10.3628 32.654 10.3628 32.492V24.734C10.3628 24.59 10.4348 24.482 10.5788 24.428L11.6048 24.05C11.7848 23.978 11.9108 24.068 11.9108 24.266V25.184C12.5768 24.212 13.6028 23.906 14.5388 23.906C16.4828 23.906 18.0308 25.22 18.0308 27.776V32.492C18.0308 32.654 17.9228 32.762 17.7608 32.762H16.7528C16.5908 32.762 16.4828 32.654 16.4828 32.492V27.83C16.4828 26.282 15.5828 25.436 14.2508 25.436C12.9008 25.436 11.9108 26.3 11.9108 27.83V32.492C11.9108 32.654 11.8028 32.762 11.6408 32.762H10.6328ZM24.0255 23.906C26.4915 23.906 28.0035 25.85 28.0035 28.01V28.676C28.0035 28.838 27.8955 28.946 27.7335 28.946H21.2355C21.4335 30.35 22.4235 31.466 24.1695 31.466C25.1415 31.466 26.0055 31.124 26.8875 30.476C27.0495 30.368 27.1755 30.386 27.2655 30.53L27.7695 31.286C27.8595 31.412 27.8415 31.556 27.7155 31.664C26.7435 32.528 25.4295 32.978 24.1515 32.978C21.3075 32.978 19.6155 31.088 19.6155 28.496C19.6155 25.652 21.5955 23.906 24.0255 23.906ZM21.2895 27.542H26.3655C26.2935 26.426 25.5015 25.418 24.0075 25.418C22.6035 25.418 21.5955 26.228 21.2895 27.542ZM35.5223 24.95C35.5763 25.112 35.5223 25.238 35.3603 25.31L31.2383 27.02V32.492C31.2383 32.654 31.1303 32.762 30.9683 32.762H29.9603C29.7983 32.762 29.6903 32.654 29.6903 32.492V24.734C29.6903 24.59 29.7623 24.482 29.9063 24.428L30.9323 24.05C31.1123 23.978 31.2383 24.068 31.2383 24.266V25.508L34.8383 24.014C35.0003 23.942 35.1263 23.996 35.1983 24.158L35.5223 24.95ZM40.2735 36.578C38.9955 36.578 37.7175 36.272 36.4755 35.336C36.3495 35.228 36.3315 35.102 36.4035 34.958L36.9255 34.058C37.0155 33.896 37.1415 33.878 37.3035 33.986C38.1495 34.634 39.1935 35.066 40.2915 35.066C42.2175 35.066 43.2615 33.842 43.2615 31.898V31.79C42.7935 32.366 41.6955 32.978 40.2735 32.978C37.6275 32.978 36.0075 30.89 36.0075 28.442C36.0075 25.67 38.0595 23.906 40.4175 23.906C41.6055 23.906 42.7035 24.356 43.2615 25.112V24.734C43.2615 24.59 43.3335 24.482 43.4775 24.428L44.5035 24.05C44.6835 23.978 44.8095 24.05 44.8095 24.248V31.574C44.8095 35.066 43.0455 36.578 40.2735 36.578ZM40.4535 31.448C42.0195 31.448 43.2795 30.422 43.2795 28.424C43.2795 26.444 42.0195 25.418 40.4535 25.418C38.8875 25.418 37.5915 26.444 37.5915 28.424C37.5915 30.404 38.8875 31.448 40.4535 31.448ZM54.1294 24.122C54.3274 24.122 54.4174 24.248 54.3454 24.428L49.3234 36.164C49.2694 36.308 49.1614 36.362 49.0174 36.362H47.8834C47.6854 36.362 47.5954 36.236 47.6674 36.056L49.3954 32.006L46.1554 24.428C46.0834 24.248 46.1734 24.122 46.3714 24.122H47.5234C47.6674 24.122 47.7934 24.194 47.8474 24.338L50.2414 30.026L52.6534 24.338C52.7074 24.194 52.8154 24.122 52.9594 24.122H54.1294ZM63.8377 32.978C61.2637 32.978 59.3737 31.052 59.3737 28.442C59.3737 25.832 61.2637 23.906 63.8377 23.906C64.9897 23.906 65.9257 24.212 66.6097 24.716C66.7537 24.824 66.7537 24.95 66.6817 25.094L66.2137 25.904C66.1237 26.066 65.9977 26.102 65.8537 26.012C65.4577 25.76 64.9177 25.418 63.9457 25.418C62.0557 25.418 60.9577 26.75 60.9577 28.442C60.9577 30.134 62.0557 31.466 63.9457 31.466C64.8997 31.466 65.4577 31.16 65.8897 30.89C66.0337 30.818 66.1597 30.854 66.2497 30.998L66.6817 31.79C66.7537 31.934 66.7717 32.042 66.7177 32.096C66.1777 32.528 65.0977 32.978 63.8377 32.978ZM68.7165 32.762C68.5545 32.762 68.4465 32.654 68.4465 32.492V20.774C68.4465 20.63 68.5185 20.522 68.6625 20.468L69.6885 20.09C69.8685 20.018 69.9945 20.108 69.9945 20.306V25.184C70.6065 24.284 71.7225 23.906 72.6945 23.906C74.6025 23.906 76.1145 25.22 76.1145 27.776V32.492C76.1145 32.654 76.0065 32.762 75.8445 32.762H74.8365C74.6745 32.762 74.5665 32.654 74.5665 32.492V27.83C74.5665 26.282 73.6665 25.436 72.3345 25.436C70.9845 25.436 69.9945 26.3 69.9945 27.83V32.492C69.9945 32.654 69.8865 32.762 69.7245 32.762H68.7165ZM82.0192 32.978C79.2832 32.978 77.6992 30.89 77.6992 28.424C77.6992 25.67 79.7512 23.906 82.1092 23.906C83.2972 23.906 84.3952 24.356 84.9532 25.112V24.734C84.9532 24.59 85.0253 24.482 85.1692 24.428L86.1953 24.05C86.3752 23.978 86.5013 24.05 86.5013 24.248V32.492C86.5013 32.654 86.3932 32.762 86.2312 32.762H85.2232C85.0612 32.762 84.9532 32.654 84.9532 32.492V31.79C84.4492 32.42 83.2612 32.978 82.0192 32.978ZM82.1272 31.448C83.7292 31.448 84.9712 30.422 84.9712 28.424C84.9712 26.444 83.7292 25.418 82.1272 25.418C80.5972 25.418 79.2832 26.444 79.2832 28.424C79.2832 30.404 80.5972 31.448 82.1272 31.448ZM88.7472 32.762C88.5852 32.762 88.4772 32.654 88.4772 32.492V20.774C88.4772 20.63 88.5492 20.522 88.6932 20.468L89.7192 20.09C89.8992 20.018 90.0252 20.108 90.0252 20.306V32.492C90.0252 32.654 89.9172 32.762 89.7552 32.762H88.7472ZM92.2762 32.762C92.1142 32.762 92.0062 32.654 92.0062 32.492V20.774C92.0062 20.63 92.0782 20.522 92.2222 20.468L93.2482 20.09C93.4282 20.018 93.5542 20.108 93.5542 20.306V32.492C93.5542 32.654 93.4462 32.762 93.2842 32.762H92.2762ZM99.6571 23.906C102.123 23.906 103.635 25.85 103.635 28.01V28.676C103.635 28.838 103.527 28.946 103.365 28.946H96.8671C97.0651 30.35 98.0551 31.466 99.8011 31.466C100.773 31.466 101.637 31.124 102.519 30.476C102.681 30.368 102.807 30.386 102.897 30.53L103.401 31.286C103.491 31.412 103.473 31.556 103.347 31.664C102.375 32.528 101.061 32.978 99.7831 32.978C96.9391 32.978 95.2471 31.088 95.2471 28.496C95.2471 25.652 97.2271 23.906 99.6571 23.906ZM96.9211 27.542H101.997C101.925 26.426 101.133 25.418 99.6391 25.418C98.2351 25.418 97.2271 26.228 96.9211 27.542ZM105.592 32.762C105.43 32.762 105.322 32.654 105.322 32.492V24.734C105.322 24.59 105.394 24.482 105.538 24.428L106.564 24.05C106.744 23.978 106.87 24.068 106.87 24.266V25.184C107.536 24.212 108.562 23.906 109.498 23.906C111.442 23.906 112.99 25.22 112.99 27.776V32.492C112.99 32.654 112.882 32.762 112.72 32.762H111.712C111.55 32.762 111.442 32.654 111.442 32.492V27.83C111.442 26.282 110.542 25.436 109.21 25.436C107.86 25.436 106.87 26.3 106.87 27.83V32.492C106.87 32.654 106.762 32.762 106.6 32.762H105.592ZM118.841 36.578C117.563 36.578 116.285 36.272 115.043 35.336C114.917 35.228 114.899 35.102 114.971 34.958L115.493 34.058C115.583 33.896 115.709 33.878 115.871 33.986C116.717 34.634 117.761 35.066 118.859 35.066C120.785 35.066 121.829 33.842 121.829 31.898V31.79C121.361 32.366 120.263 32.978 118.841 32.978C116.195 32.978 114.575 30.89 114.575 28.442C114.575 25.67 116.627 23.906 118.985 23.906C120.173 23.906 121.271 24.356 121.829 25.112V24.734C121.829 24.59 121.901 24.482 122.045 24.428L123.071 24.05C123.251 23.978 123.377 24.05 123.377 24.248V31.574C123.377 35.066 121.613 36.578 118.841 36.578ZM119.021 31.448C120.587 31.448 121.847 30.422 121.847 28.424C121.847 26.444 120.587 25.418 119.021 25.418C117.455 25.418 116.159 26.444 116.159 28.424C116.159 30.404 117.455 31.448 119.021 31.448ZM129.475 23.906C131.941 23.906 133.453 25.85 133.453 28.01V28.676C133.453 28.838 133.345 28.946 133.183 28.946H126.685C126.883 30.35 127.873 31.466 129.619 31.466C130.591 31.466 131.455 31.124 132.337 30.476C132.499 30.368 132.625 30.386 132.715 30.53L133.219 31.286C133.309 31.412 133.291 31.556 133.165 31.664C132.193 32.528 130.879 32.978 129.601 32.978C126.757 32.978 125.065 31.088 125.065 28.496C125.065 25.652 127.045 23.906 129.475 23.906ZM126.739 27.542H131.815C131.743 26.426 130.951 25.418 129.457 25.418C128.053 25.418 127.045 26.228 126.739 27.542ZM138.163 32.978C136.885 32.978 135.589 32.564 134.815 31.664C134.707 31.556 134.725 31.412 134.815 31.286L135.391 30.548C135.499 30.404 135.625 30.404 135.769 30.512C136.309 30.98 137.029 31.466 138.199 31.466C139.315 31.466 139.927 31.106 139.927 30.404C139.927 29.684 139.297 29.396 138.127 29.108C136.669 28.748 135.067 28.316 135.067 26.552C135.067 25.004 136.291 23.906 138.217 23.906C139.459 23.906 140.341 24.338 140.917 24.806C141.043 24.932 141.043 25.04 140.935 25.184L140.359 25.904C140.251 26.03 140.125 26.066 139.981 25.958C139.567 25.67 138.991 25.418 138.253 25.418C137.371 25.418 136.615 25.76 136.615 26.462C136.615 27.11 137.263 27.362 138.487 27.65C140.269 28.064 141.439 28.73 141.439 30.296C141.439 32.492 139.477 32.978 138.163 32.978ZM151.477 32.348C151.531 32.492 151.477 32.636 151.297 32.726C150.901 32.906 150.559 32.978 150.181 32.978C148.183 32.978 147.715 31.682 147.715 30.134V25.526H146.581C146.419 25.526 146.311 25.418 146.311 25.256V24.392C146.311 24.23 146.419 24.122 146.581 24.122H147.715V22.754C147.715 22.61 147.787 22.502 147.931 22.448L148.957 22.07C149.137 21.998 149.263 22.088 149.263 22.286V24.122H150.811C150.973 24.122 151.081 24.23 151.081 24.392V25.256C151.081 25.418 150.973 25.526 150.811 25.526H149.263V30.152C149.263 30.89 149.533 31.43 150.307 31.43C150.469 31.43 150.631 31.394 150.829 31.322C151.009 31.268 151.135 31.304 151.189 31.484L151.477 32.348ZM156.81 32.978C154.218 32.978 152.364 31.052 152.364 28.442C152.364 25.832 154.218 23.906 156.81 23.906C159.402 23.906 161.238 25.832 161.238 28.442C161.238 31.052 159.402 32.978 156.81 32.978ZM156.81 31.466C158.574 31.466 159.654 30.134 159.654 28.442C159.654 26.75 158.574 25.418 156.81 25.418C155.028 25.418 153.948 26.75 153.948 28.442C153.948 30.134 155.028 31.466 156.81 31.466ZM166.909 36.578C165.631 36.578 164.353 36.272 163.111 35.336C162.985 35.228 162.967 35.102 163.039 34.958L163.561 34.058C163.651 33.896 163.777 33.878 163.939 33.986C164.785 34.634 165.829 35.066 166.927 35.066C168.853 35.066 169.897 33.842 169.897 31.898V31.79C169.429 32.366 168.331 32.978 166.909 32.978C164.263 32.978 162.643 30.89 162.643 28.442C162.643 25.67 164.695 23.906 167.053 23.906C168.241 23.906 169.339 24.356 169.897 25.112V24.734C169.897 24.59 169.969 24.482 170.113 24.428L171.139 24.05C171.319 23.978 171.445 24.05 171.445 24.248V31.574C171.445 35.066 169.681 36.578 166.909 36.578ZM167.089 31.448C168.655 31.448 169.915 30.422 169.915 28.424C169.915 26.444 168.655 25.418 167.089 25.418C165.523 25.418 164.227 26.444 164.227 28.424C164.227 30.404 165.523 31.448 167.089 31.448ZM177.543 23.906C180.009 23.906 181.521 25.85 181.521 28.01V28.676C181.521 28.838 181.413 28.946 181.251 28.946H174.753C174.951 30.35 175.941 31.466 177.687 31.466C178.659 31.466 179.523 31.124 180.405 30.476C180.567 30.368 180.693 30.386 180.783 30.53L181.287 31.286C181.377 31.412 181.359 31.556 181.233 31.664C180.261 32.528 178.947 32.978 177.669 32.978C174.825 32.978 173.133 31.088 173.133 28.496C173.133 25.652 175.113 23.906 177.543 23.906ZM174.807 27.542H179.883C179.811 26.426 179.019 25.418 177.525 25.418C176.121 25.418 175.113 26.228 174.807 27.542ZM187.513 32.348C187.567 32.492 187.513 32.636 187.333 32.726C186.937 32.906 186.595 32.978 186.217 32.978C184.219 32.978 183.751 31.682 183.751 30.134V25.526H182.617C182.455 25.526 182.347 25.418 182.347 25.256V24.392C182.347 24.23 182.455 24.122 182.617 24.122H183.751V22.754C183.751 22.61 183.823 22.502 183.967 22.448L184.993 22.07C185.173 21.998 185.299 22.088 185.299 22.286V24.122H186.847C187.009 24.122 187.117 24.23 187.117 24.392V25.256C187.117 25.418 187.009 25.526 186.847 25.526H185.299V30.152C185.299 30.89 185.569 31.43 186.343 31.43C186.505 31.43 186.667 31.394 186.865 31.322C187.045 31.268 187.171 31.304 187.225 31.484L187.513 32.348ZM189.274 32.762C189.112 32.762 189.004 32.654 189.004 32.492V20.774C189.004 20.63 189.076 20.522 189.22 20.468L190.246 20.09C190.426 20.018 190.552 20.108 190.552 20.306V25.184C191.164 24.284 192.28 23.906 193.252 23.906C195.16 23.906 196.672 25.22 196.672 27.776V32.492C196.672 32.654 196.564 32.762 196.402 32.762H195.394C195.232 32.762 195.124 32.654 195.124 32.492V27.83C195.124 26.282 194.224 25.436 192.892 25.436C191.542 25.436 190.552 26.3 190.552 27.83V32.492C190.552 32.654 190.444 32.762 190.282 32.762H189.274ZM202.667 23.906C205.133 23.906 206.645 25.85 206.645 28.01V28.676C206.645 28.838 206.537 28.946 206.375 28.946H199.877C200.075 30.35 201.065 31.466 202.811 31.466C203.783 31.466 204.647 31.124 205.529 30.476C205.691 30.368 205.817 30.386 205.907 30.53L206.411 31.286C206.501 31.412 206.483 31.556 206.357 31.664C205.385 32.528 204.071 32.978 202.793 32.978C199.949 32.978 198.257 31.088 198.257 28.496C198.257 25.652 200.237 23.906 202.667 23.906ZM199.931 27.542H205.007C204.935 26.426 204.143 25.418 202.649 25.418C201.245 25.418 200.237 26.228 199.931 27.542ZM214.164 24.95C214.218 25.112 214.164 25.238 214.002 25.31L209.88 27.02V32.492C209.88 32.654 209.772 32.762 209.61 32.762H208.602C208.44 32.762 208.332 32.654 208.332 32.492V24.734C208.332 24.59 208.404 24.482 208.548 24.428L209.574 24.05C209.754 23.978 209.88 24.068 209.88 24.266V25.508L213.48 24.014C213.642 23.942 213.768 23.996 213.84 24.158L214.164 24.95ZM4.608 54.978C1.872 54.978 0.288002 52.89 0.288002 50.424C0.288002 47.67 2.34 45.906 4.698 45.906C5.886 45.906 6.984 46.356 7.542 47.112V46.734C7.542 46.59 7.614 46.482 7.758 46.428L8.784 46.05C8.964 45.978 9.09 46.05 9.09 46.248V54.492C9.09 54.654 8.982 54.762 8.82 54.762H7.812C7.65 54.762 7.542 54.654 7.542 54.492V53.79C7.038 54.42 5.85 54.978 4.608 54.978ZM4.716 53.448C6.318 53.448 7.56 52.422 7.56 50.424C7.56 48.444 6.318 47.418 4.716 47.418C3.186 47.418 1.872 48.444 1.872 50.424C1.872 52.404 3.186 53.448 4.716 53.448ZM15.5119 54.348C15.5659 54.492 15.5119 54.636 15.3319 54.726C14.9359 54.906 14.5939 54.978 14.2159 54.978C12.2179 54.978 11.7499 53.682 11.7499 52.134V47.526H10.6159C10.4539 47.526 10.3459 47.418 10.3459 47.256V46.392C10.3459 46.23 10.4539 46.122 10.6159 46.122H11.7499V44.754C11.7499 44.61 11.8219 44.502 11.9659 44.448L12.9919 44.07C13.1719 43.998 13.2979 44.088 13.2979 44.286V46.122H14.8459C15.0079 46.122 15.1159 46.23 15.1159 46.392V47.256C15.1159 47.418 15.0079 47.526 14.8459 47.526H13.2979V52.152C13.2979 52.89 13.5679 53.43 14.3419 53.43C14.5039 53.43 14.6659 53.394 14.8639 53.322C15.0439 53.268 15.1699 53.304 15.2239 53.484L15.5119 54.348ZM26.9475 54.978C23.4375 54.978 20.7915 52.386 20.7915 48.462C20.7915 44.538 23.4375 41.946 26.9475 41.946C28.9995 41.946 30.5475 42.756 31.6995 44.106C31.8075 44.25 31.7895 44.394 31.6635 44.502L30.8175 45.204C30.6735 45.33 30.5475 45.312 30.4395 45.168C29.7195 44.304 28.5675 43.53 26.9475 43.53C24.3375 43.53 22.4475 45.636 22.4475 48.462C22.4475 51.288 24.3375 53.394 26.9475 53.394C28.5675 53.394 29.7195 52.62 30.4395 51.756C30.5475 51.612 30.6735 51.594 30.8175 51.72L31.6455 52.404C31.7715 52.512 31.7895 52.656 31.6995 52.764C30.5655 54.15 29.0175 54.978 26.9475 54.978ZM41.3494 43.71H35.2654V47.346H39.9274C40.0894 47.346 40.1974 47.454 40.1974 47.616V48.624C40.1974 48.786 40.0894 48.894 39.9274 48.894H35.2654V53.214H41.3494C41.5114 53.214 41.6194 53.322 41.6194 53.484V54.492C41.6194 54.654 41.5114 54.762 41.3494 54.762H33.9154C33.7534 54.762 33.6454 54.654 33.6454 54.492V42.432C33.6454 42.27 33.7534 42.162 33.9154 42.162H41.3494C41.5114 42.162 41.6194 42.27 41.6194 42.432V43.44C41.6194 43.602 41.5114 43.71 41.3494 43.71ZM43.7198 54.762C43.5578 54.762 43.4498 54.654 43.4498 54.492V42.432C43.4498 42.27 43.5578 42.162 43.7198 42.162H47.8958C50.9738 42.162 51.6938 44.25 51.6938 45.744C51.6938 46.986 51.1898 48.642 49.2458 49.164L51.6218 54.438C51.7118 54.636 51.6218 54.762 51.4238 54.762H50.2178C50.0738 54.762 49.9658 54.708 49.9118 54.564L47.6078 49.326H45.0698V54.492C45.0698 54.654 44.9618 54.762 44.7998 54.762H43.7198ZM45.0698 47.778H47.6438C49.5158 47.778 50.0198 46.86 50.0198 45.744C50.0198 44.628 49.5158 43.71 47.6438 43.71H45.0698V47.778ZM64.6041 54.456C64.6761 54.636 64.5861 54.762 64.3881 54.762H63.1821C63.0381 54.762 62.9121 54.69 62.8581 54.546L61.6521 51.594H55.8021L54.5961 54.546C54.5421 54.69 54.4161 54.762 54.2721 54.762H53.0661C52.8681 54.762 52.7781 54.636 52.8501 54.456L57.9261 42.378C57.9801 42.234 58.1061 42.162 58.2501 42.162H59.2041C59.3481 42.162 59.4741 42.234 59.5281 42.378L64.6041 54.456ZM56.4501 50.046H61.0221L58.7361 44.466L56.4501 50.046ZM67.778 54.762C67.634 54.762 67.526 54.708 67.472 54.546L63.71 42.468C63.656 42.27 63.746 42.162 63.944 42.162H65.15C65.294 42.162 65.42 42.252 65.456 42.396L68.39 52.224L71.324 42.396C71.36 42.252 71.486 42.162 71.63 42.162H72.998C73.142 42.162 73.268 42.252 73.304 42.396L76.238 52.224L79.172 42.396C79.208 42.252 79.334 42.162 79.478 42.162H80.684C80.882 42.162 80.972 42.27 80.918 42.468L77.156 54.546C77.102 54.708 76.994 54.762 76.85 54.762H75.626C75.482 54.762 75.356 54.672 75.32 54.528L72.314 44.628L69.308 54.528C69.272 54.672 69.146 54.762 69.002 54.762H67.778ZM85.2248 45.906C87.6908 45.906 89.2028 47.85 89.2028 50.01V50.676C89.2028 50.838 89.0948 50.946 88.9328 50.946H82.4348C82.6328 52.35 83.6228 53.466 85.3688 53.466C86.3408 53.466 87.2048 53.124 88.0868 52.476C88.2488 52.368 88.3748 52.386 88.4648 52.53L88.9688 53.286C89.0588 53.412 89.0408 53.556 88.9148 53.664C87.9428 54.528 86.6288 54.978 85.3508 54.978C82.5068 54.978 80.8148 53.088 80.8148 50.496C80.8148 47.652 82.7948 45.906 85.2248 45.906ZM82.4888 49.542H87.5648C87.4928 48.426 86.7008 47.418 85.2068 47.418C83.8028 47.418 82.7948 48.228 82.4888 49.542ZM95.0116 45.906C97.4776 45.906 98.9896 47.85 98.9896 50.01V50.676C98.9896 50.838 98.8816 50.946 98.7196 50.946H92.2216C92.4196 52.35 93.4096 53.466 95.1556 53.466C96.1276 53.466 96.9916 53.124 97.8736 52.476C98.0356 52.368 98.1616 52.386 98.2516 52.53L98.7556 53.286C98.8456 53.412 98.8276 53.556 98.7016 53.664C97.7296 54.528 96.4156 54.978 95.1376 54.978C92.2936 54.978 90.6016 53.088 90.6016 50.496C90.6016 47.652 92.5816 45.906 95.0116 45.906ZM92.2756 49.542H97.3516C97.2796 48.426 96.4876 47.418 94.9936 47.418C93.5896 47.418 92.5816 48.228 92.2756 49.542ZM107.444 54.438C107.588 54.6 107.534 54.762 107.3 54.762H105.968C105.842 54.762 105.734 54.726 105.644 54.618L102.224 50.892V54.492C102.224 54.654 102.116 54.762 101.954 54.762H100.946C100.784 54.762 100.676 54.654 100.676 54.492V42.774C100.676 42.63 100.748 42.522 100.892 42.468L101.918 42.09C102.098 42.018 102.224 42.108 102.224 42.306V49.452L105.428 46.266C105.536 46.158 105.644 46.122 105.77 46.122H107.102C107.336 46.122 107.408 46.284 107.246 46.446L103.574 50.118L107.444 54.438ZM112.924 54.762C112.762 54.762 112.654 54.654 112.654 54.492V53.862C112.654 53.736 112.69 53.628 112.798 53.538C115.192 51.36 118.954 48.498 118.954 45.6C118.954 44.304 118.054 43.53 116.776 43.53C115.498 43.53 114.49 44.34 114.31 45.798C114.292 45.96 114.202 46.05 114.04 46.05H112.942C112.762 46.05 112.654 45.942 112.672 45.762C112.942 43.404 114.562 41.946 116.776 41.946C119.242 41.946 120.61 43.476 120.61 45.6C120.61 48.696 117.838 51.144 115.462 53.214H120.61C120.808 53.214 120.898 53.322 120.826 53.52L120.448 54.546C120.394 54.708 120.286 54.762 120.142 54.762H112.924ZM127.411 54.978C124.423 54.978 122.281 52.386 122.281 48.462C122.281 44.538 124.423 41.946 127.411 41.946C130.417 41.946 132.523 44.538 132.523 48.462C132.523 52.386 130.417 54.978 127.411 54.978ZM127.411 53.394C129.499 53.394 130.867 51.468 130.867 48.462C130.867 45.456 129.499 43.53 127.411 43.53C125.323 43.53 123.937 45.456 123.937 48.462C123.937 51.468 125.323 53.394 127.411 53.394ZM134.291 54.762C134.129 54.762 134.021 54.654 134.021 54.492V53.862C134.021 53.736 134.057 53.628 134.165 53.538C136.559 51.36 140.321 48.498 140.321 45.6C140.321 44.304 139.421 43.53 138.143 43.53C136.865 43.53 135.857 44.34 135.677 45.798C135.659 45.96 135.569 46.05 135.407 46.05H134.309C134.129 46.05 134.021 45.942 134.039 45.762C134.309 43.404 135.929 41.946 138.143 41.946C140.609 41.946 141.977 43.476 141.977 45.6C141.977 48.696 139.205 51.144 136.829 53.214H141.977C142.175 53.214 142.265 53.322 142.193 53.52L141.815 54.546C141.761 54.708 141.653 54.762 141.509 54.762H134.291ZM148.219 54.978C145.825 54.978 143.647 53.376 143.647 48.894C143.647 44.556 145.681 41.946 148.849 41.946C149.677 41.946 150.667 42.126 151.567 42.684C151.711 42.756 151.747 42.9 151.693 43.044L151.315 44.106C151.261 44.286 151.117 44.322 150.937 44.214C150.073 43.692 149.407 43.602 148.813 43.602C147.373 43.602 145.645 44.574 145.393 47.904C146.239 46.626 147.553 46.122 148.615 46.122C150.451 46.122 152.629 47.544 152.629 50.532C152.629 53.34 150.523 54.978 148.219 54.978ZM148.237 53.394C149.947 53.394 150.973 52.116 150.973 50.568C150.973 49.074 149.947 47.76 148.237 47.76C146.527 47.76 145.501 49.074 145.501 50.568C145.501 52.116 146.527 53.394 148.237 53.394ZM153.897 54.762C153.735 54.762 153.627 54.654 153.627 54.492V53.376C153.627 53.214 153.735 53.106 153.897 53.106H155.013C155.175 53.106 155.283 53.214 155.283 53.376V54.492C155.283 54.654 155.175 54.762 155.013 54.762H153.897Z" fill="#243746"/>
</svg>
