<svg width="148" height="31" viewBox="0 0 148 31" fill="none" xmlns="http://www.w3.org/2000/svg">
<path d="M10.688 10.864C10.768 11.072 10.688 11.2 10.464 11.2H8.848C8.688 11.2 8.576 11.12 8.528 10.992L7.648 8.768H3.136L2.256 10.992C2.192 11.136 2.08 11.2 1.92 11.2H0.304C0.096 11.2 0 11.072 0.08 10.864L4.448 0.223996C4.496 0.0639963 4.624 -3.8147e-06 4.784 -3.8147e-06H5.984C6.144 -3.8147e-06 6.272 0.0639963 6.336 0.223996L10.688 10.864ZM3.856 6.96H6.928L5.392 3.072L3.856 6.96ZM12.3 11.2C12.108 11.2 11.996 11.088 11.996 10.912V4.24C11.996 4.08 12.076 3.968 12.236 3.904L13.548 3.456C13.756 3.376 13.884 3.488 13.884 3.696V4.464C14.428 3.696 15.276 3.328 16.284 3.328C17.916 3.328 19.324 4.496 19.324 6.768V10.912C19.324 11.088 19.228 11.2 19.036 11.2H17.74C17.548 11.2 17.436 11.088 17.436 10.912V6.992C17.436 5.792 16.748 5.136 15.708 5.136C14.652 5.136 13.884 5.808 13.884 6.992V10.912C13.884 11.088 13.788 11.2 13.596 11.2H12.3ZM28.4126 3.328C30.6686 3.328 32.0126 5.088 32.0126 6.976V7.648C32.0126 7.84 31.9006 7.936 31.7086 7.936H26.3006C26.5086 8.912 27.2766 9.664 28.5406 9.664C29.3886 9.664 30.0926 9.392 30.7006 9.008C30.8766 8.912 31.0206 8.944 31.1006 9.12L31.6126 10.048C31.6926 10.208 31.6766 10.352 31.5646 10.432C30.7646 11.04 29.7886 11.392 28.5246 11.392C25.9646 11.392 24.4446 9.696 24.4446 7.408C24.4446 4.928 26.2206 3.328 28.4126 3.328ZM26.3486 6.544H30.2366C30.1246 5.744 29.5326 5.056 28.4126 5.056C27.3726 5.056 26.6046 5.616 26.3486 6.544ZM33.8469 11.2C33.6549 11.2 33.5429 11.088 33.5429 10.912V4.24C33.5429 4.08 33.6229 3.968 33.7829 3.904L35.0949 3.456C35.3029 3.376 35.4309 3.488 35.4309 3.696V4.464C35.9749 3.696 36.8229 3.328 37.8309 3.328C39.4629 3.328 40.8709 4.496 40.8709 6.768V10.912C40.8709 11.088 40.7749 11.2 40.5829 11.2H39.2869C39.0949 11.2 38.9829 11.088 38.9829 10.912V6.992C38.9829 5.792 38.2949 5.136 37.2549 5.136C36.1989 5.136 35.4309 5.808 35.4309 6.992V10.912C35.4309 11.088 35.3349 11.2 35.1429 11.2H33.8469ZM46.272 3.328C48.528 3.328 49.872 5.088 49.872 6.976V7.648C49.872 7.84 49.76 7.936 49.568 7.936H44.16C44.368 8.912 45.136 9.664 46.4 9.664C47.248 9.664 47.952 9.392 48.56 9.008C48.736 8.912 48.88 8.944 48.96 9.12L49.472 10.048C49.552 10.208 49.536 10.352 49.424 10.432C48.624 11.04 47.648 11.392 46.384 11.392C43.824 11.392 42.304 9.696 42.304 7.408C42.304 4.928 44.08 3.328 46.272 3.328ZM44.208 6.544H48.096C47.984 5.744 47.392 5.056 46.272 5.056C45.232 5.056 44.464 5.616 44.208 6.544ZM57.1943 4.608C57.2583 4.784 57.2103 4.928 57.0343 4.992L53.2903 6.528V10.912C53.2903 11.088 53.1943 11.2 53.0023 11.2H51.7063C51.5143 11.2 51.4022 11.088 51.4022 10.912V4.24C51.4022 4.08 51.4823 3.968 51.6423 3.904L52.9543 3.456C53.1623 3.376 53.2903 3.488 53.2903 3.696V4.736L56.3783 3.44C56.5703 3.376 56.6983 3.424 56.7783 3.6L57.1943 4.608ZM61.7233 14.592C60.4273 14.592 59.3553 14.288 58.2993 13.52C58.1553 13.408 58.1233 13.264 58.2192 13.12L58.8113 12.048C58.9073 11.872 59.0673 11.84 59.2273 11.984C60.0273 12.592 60.8433 12.848 61.6273 12.848C63.1633 12.848 64.0593 11.952 64.0593 10.592V10.384C63.7073 10.832 62.7953 11.264 61.7073 11.264C59.2433 11.264 57.8353 9.488 57.8353 7.312C57.8353 5.056 59.4993 3.328 61.7873 3.328C62.7313 3.328 63.6433 3.664 64.0593 4.368V4.272C64.0593 4.096 64.1393 3.984 64.2993 3.92L65.6112 3.456C65.8193 3.376 65.9473 3.472 65.9473 3.68V10.416C65.9473 13.088 64.2513 14.592 61.7233 14.592ZM61.9313 9.504C63.1473 9.504 64.0753 8.704 64.0753 7.296C64.0753 5.888 63.1473 5.072 61.9313 5.072C60.6993 5.072 59.7713 5.888 59.7713 7.296C59.7713 8.688 60.6993 9.504 61.9313 9.504ZM74.5959 3.52C74.8199 3.52 74.8999 3.648 74.8199 3.856L70.4039 14.176C70.3559 14.336 70.2279 14.4 70.0519 14.4H68.6439C68.4359 14.4 68.3399 14.272 68.4199 14.064L69.9879 10.384L67.1879 3.856C67.1079 3.648 67.2039 3.52 67.4119 3.52H68.8519C69.0119 3.52 69.1399 3.584 69.2039 3.744L70.9799 8.048L72.8039 3.744C72.8679 3.584 72.9959 3.52 73.1559 3.52H74.5959ZM83.7616 11.392C81.2496 11.392 79.5696 9.68 79.5696 7.36C79.5696 5.04 81.2496 3.328 83.7616 3.328C84.7536 3.328 85.6816 3.584 86.3216 4.176C86.4656 4.304 86.4976 4.448 86.4016 4.608L85.7936 5.6C85.6976 5.76 85.5696 5.792 85.4096 5.68C84.9776 5.344 84.4976 5.12 83.7936 5.12C82.4016 5.12 81.5536 6.08 81.5536 7.36C81.5536 8.688 82.4016 9.6 83.7936 9.6C84.4976 9.6 84.9776 9.392 85.4256 9.04C85.5696 8.944 85.7136 8.976 85.8096 9.136L86.4016 10.112C86.4976 10.272 86.4656 10.4 86.3536 10.512C85.7456 11.104 84.7856 11.392 83.7616 11.392ZM91.7583 11.392C89.3743 11.392 87.7103 9.68 87.7103 7.36C87.7103 5.04 89.3743 3.328 91.7583 3.328C94.1423 3.328 95.8063 5.04 95.8063 7.36C95.8063 9.68 94.1423 11.392 91.7583 11.392ZM91.7583 9.6C93.1023 9.6 93.8543 8.624 93.8543 7.36C93.8543 6.096 93.1023 5.12 91.7583 5.12C90.4143 5.12 89.6623 6.096 89.6623 7.36C89.6623 8.624 90.4143 9.6 91.7583 9.6ZM97.6438 11.2C97.4518 11.2 97.3397 11.088 97.3397 10.912V4.24C97.3397 4.08 97.4198 3.968 97.5798 3.904L98.8918 3.456C99.0998 3.376 99.2278 3.488 99.2278 3.696V4.352C99.5477 3.84 100.428 3.328 101.404 3.328C102.38 3.328 103.116 3.824 103.468 4.528C103.964 3.712 104.86 3.328 105.804 3.328C107.276 3.328 108.636 4.336 108.636 6.608V10.912C108.636 11.088 108.524 11.2 108.332 11.2H107.036C106.844 11.2 106.748 11.088 106.748 10.912V6.784C106.748 5.712 106.22 5.136 105.388 5.136C104.54 5.136 103.932 5.696 103.932 6.784V10.912C103.932 11.088 103.836 11.2 103.644 11.2H102.348C102.156 11.2 102.044 11.088 102.044 10.912V6.784C102.044 5.664 101.548 5.136 100.684 5.136C99.9158 5.136 99.2278 5.712 99.2278 6.784V10.912C99.2278 11.088 99.1318 11.2 98.9398 11.2H97.6438ZM110.566 14.4C110.374 14.4 110.262 14.288 110.262 14.112V4.272C110.262 4.096 110.342 3.984 110.502 3.92L111.814 3.456C112.022 3.376 112.15 3.472 112.15 3.68V4.352C112.582 3.792 113.494 3.328 114.598 3.328C116.79 3.328 118.39 4.896 118.39 7.36C118.39 9.536 116.998 11.392 114.598 11.392C113.478 11.392 112.566 10.912 112.15 10.384V14.112C112.15 14.288 112.054 14.4 111.862 14.4H110.566ZM114.294 9.648C115.51 9.648 116.454 8.832 116.454 7.36C116.454 5.856 115.51 5.072 114.294 5.072C113.078 5.072 112.15 5.856 112.15 7.36C112.15 8.848 113.078 9.648 114.294 9.648ZM123.598 11.392C121.134 11.392 119.726 9.6 119.726 7.312C119.726 5.056 121.39 3.328 123.678 3.328C124.622 3.328 125.534 3.664 125.95 4.368V4.272C125.95 4.096 126.03 3.984 126.19 3.92L127.502 3.456C127.71 3.376 127.838 3.472 127.838 3.68V10.912C127.838 11.088 127.726 11.2 127.534 11.2H126.238C126.062 11.2 125.95 11.088 125.95 10.912V10.496C125.598 10.944 124.686 11.392 123.598 11.392ZM123.822 9.616C125.038 9.616 125.966 8.816 125.966 7.296C125.966 5.888 125.038 5.072 123.822 5.072C122.59 5.072 121.662 5.888 121.662 7.296C121.662 8.8 122.59 9.616 123.822 9.616ZM129.863 11.2C129.671 11.2 129.558 11.088 129.558 10.912V4.24C129.558 4.08 129.639 3.968 129.799 3.904L131.111 3.456C131.319 3.376 131.447 3.488 131.447 3.696V4.464C131.991 3.696 132.839 3.328 133.847 3.328C135.479 3.328 136.887 4.496 136.887 6.768V10.912C136.887 11.088 136.791 11.2 136.599 11.2H135.303C135.111 11.2 134.999 11.088 134.999 10.912V6.992C134.999 5.792 134.311 5.136 133.271 5.136C132.215 5.136 131.447 5.808 131.447 6.992V10.912C131.447 11.088 131.351 11.2 131.159 11.2H129.863ZM145.252 3.52C145.476 3.52 145.556 3.648 145.476 3.856L141.06 14.176C141.012 14.336 140.884 14.4 140.708 14.4H139.3C139.092 14.4 138.996 14.272 139.076 14.064L140.644 10.384L137.844 3.856C137.764 3.648 137.86 3.52 138.068 3.52H139.508C139.668 3.52 139.796 3.584 139.86 3.744L141.636 8.048L143.46 3.744C143.524 3.584 143.652 3.52 143.812 3.52H145.252ZM3.376 27.392C2.128 27.392 0.992 27.04 0.304 26.272C0.192 26.144 0.208 25.984 0.304 25.856L0.912 25.04C1.04 24.88 1.184 24.88 1.328 25.008C1.84 25.44 2.528 25.776 3.312 25.776C4.16 25.776 4.544 25.52 4.544 25.056C4.544 24.592 4.128 24.368 3.152 24.176C1.6 23.888 0.48 23.2 0.48 21.808C0.48 20.32 1.728 19.328 3.408 19.328C4.576 19.328 5.36 19.696 5.856 20.096C6 20.224 6 20.352 5.888 20.512L5.216 21.36C5.104 21.52 4.976 21.52 4.8 21.424C4.432 21.168 3.904 20.976 3.36 20.976C2.736 20.976 2.336 21.216 2.336 21.6C2.336 22.032 2.832 22.192 3.728 22.384C5.44 22.72 6.4 23.392 6.4 24.88C6.4 26.608 4.992 27.392 3.376 27.392ZM11.6001 19.328C13.8561 19.328 15.2001 21.088 15.2001 22.976V23.648C15.2001 23.84 15.0881 23.936 14.8961 23.936H9.48813C9.69613 24.912 10.4641 25.664 11.7281 25.664C12.5761 25.664 13.2801 25.392 13.8881 25.008C14.0641 24.912 14.2081 24.944 14.2881 25.12L14.8001 26.048C14.8801 26.208 14.8641 26.352 14.7521 26.432C13.9521 27.04 12.9761 27.392 11.7121 27.392C9.15213 27.392 7.63213 25.696 7.63213 23.408C7.63213 20.928 9.40813 19.328 11.6001 19.328ZM9.53613 22.544H13.4241C13.3121 21.744 12.7201 21.056 11.6001 21.056C10.5601 21.056 9.79212 21.616 9.53613 22.544ZM20.4104 27.392C17.9464 27.392 16.5384 25.6 16.5384 23.312C16.5384 21.056 18.2024 19.328 20.4904 19.328C21.4344 19.328 22.3464 19.664 22.7624 20.368V20.272C22.7624 20.096 22.8424 19.984 23.0024 19.92L24.3144 19.456C24.5224 19.376 24.6504 19.472 24.6504 19.68V26.912C24.6504 27.088 24.5384 27.2 24.3464 27.2H23.0504C22.8744 27.2 22.7624 27.088 22.7624 26.912V26.496C22.4104 26.944 21.4984 27.392 20.4104 27.392ZM20.6344 25.616C21.8504 25.616 22.7784 24.816 22.7784 23.296C22.7784 21.888 21.8504 21.072 20.6344 21.072C19.4024 21.072 18.4744 21.888 18.4744 23.296C18.4744 24.8 19.4024 25.616 20.6344 25.616ZM32.163 20.608C32.227 20.784 32.179 20.928 32.003 20.992L28.259 22.528V26.912C28.259 27.088 28.163 27.2 27.971 27.2H26.675C26.483 27.2 26.371 27.088 26.371 26.912V20.24C26.371 20.08 26.451 19.968 26.611 19.904L27.923 19.456C28.131 19.376 28.259 19.488 28.259 19.696V20.736L31.347 19.44C31.539 19.376 31.667 19.424 31.747 19.6L32.163 20.608ZM36.9648 27.392C34.4527 27.392 32.7728 25.68 32.7728 23.36C32.7728 21.04 34.4527 19.328 36.9648 19.328C37.9568 19.328 38.8848 19.584 39.5248 20.176C39.6688 20.304 39.7008 20.448 39.6048 20.608L38.9968 21.6C38.9008 21.76 38.7728 21.792 38.6128 21.68C38.1808 21.344 37.7008 21.12 36.9968 21.12C35.6048 21.12 34.7568 22.08 34.7568 23.36C34.7568 24.688 35.6048 25.6 36.9968 25.6C37.7008 25.6 38.1808 25.392 38.6288 25.04C38.7728 24.944 38.9168 24.976 39.0128 25.136L39.6048 26.112C39.7008 26.272 39.6688 26.4 39.5568 26.512C38.9488 27.104 37.9888 27.392 36.9648 27.392ZM41.4406 27.2C41.2486 27.2 41.1366 27.088 41.1366 26.912V16.704C41.1366 16.544 41.2166 16.448 41.3766 16.384L42.6886 15.936C42.8966 15.856 43.0246 15.968 43.0246 16.176V20.464C43.5526 19.712 44.4166 19.328 45.4406 19.328C47.0726 19.328 48.4646 20.496 48.4646 22.768V26.912C48.4646 27.088 48.3686 27.2 48.1766 27.2H46.8806C46.6886 27.2 46.5766 27.088 46.5766 26.912V22.992C46.5766 21.792 45.8886 21.136 44.8486 21.136C43.7926 21.136 43.0246 21.808 43.0246 22.992V26.912C43.0246 27.088 42.9286 27.2 42.7366 27.2H41.4406ZM50.3778 18.976C50.1698 19.04 50.0257 18.944 50.0257 18.736V17.312C50.0257 17.152 50.1058 17.04 50.2658 16.976L51.7057 16.464C51.9138 16.384 52.0418 16.496 52.0418 16.704V18.16C52.0418 18.32 51.9778 18.432 51.8018 18.496L50.3778 18.976ZM50.3778 27.2C50.2018 27.2 50.0897 27.088 50.0897 26.912V20.24C50.0897 20.08 50.1698 19.968 50.3298 19.904L51.6418 19.456C51.8498 19.376 51.9778 19.488 51.9778 19.696V26.912C51.9778 27.088 51.8658 27.2 51.6738 27.2H50.3778ZM54.0031 27.2C53.8111 27.2 53.6991 27.088 53.6991 26.912V20.24C53.6991 20.08 53.7791 19.968 53.9391 19.904L55.2511 19.456C55.4591 19.376 55.5871 19.488 55.5871 19.696V20.464C56.1311 19.696 56.9791 19.328 57.9871 19.328C59.6191 19.328 61.0271 20.496 61.0271 22.768V26.912C61.0271 27.088 60.9311 27.2 60.7391 27.2H59.4431C59.2511 27.2 59.1391 27.088 59.1391 26.912V22.992C59.1391 21.792 58.4511 21.136 57.4111 21.136C56.3551 21.136 55.5871 21.808 55.5871 22.992V26.912C55.5871 27.088 55.4911 27.2 55.2991 27.2H54.0031ZM66.3483 30.592C65.0523 30.592 63.9803 30.288 62.9243 29.52C62.7803 29.408 62.7483 29.264 62.8442 29.12L63.4363 28.048C63.5323 27.872 63.6923 27.84 63.8523 27.984C64.6523 28.592 65.4683 28.848 66.2523 28.848C67.7883 28.848 68.6843 27.952 68.6843 26.592V26.384C68.3323 26.832 67.4203 27.264 66.3323 27.264C63.8683 27.264 62.4603 25.488 62.4603 23.312C62.4603 21.056 64.1243 19.328 66.4123 19.328C67.3563 19.328 68.2683 19.664 68.6843 20.368V20.272C68.6843 20.096 68.7643 19.984 68.9243 19.92L70.2362 19.456C70.4443 19.376 70.5723 19.472 70.5723 19.68V26.416C70.5723 29.088 68.8763 30.592 66.3483 30.592ZM66.5563 25.504C67.7723 25.504 68.7003 24.704 68.7003 23.296C68.7003 21.888 67.7723 21.072 66.5563 21.072C65.3243 21.072 64.3963 21.888 64.3963 23.296C64.3963 24.688 65.3243 25.504 66.5563 25.504ZM80.3964 16.224C80.5564 16.304 80.6044 16.432 80.5564 16.592L80.2204 17.712C80.1564 17.904 80.0284 17.952 79.8364 17.856C79.6284 17.76 79.4684 17.728 79.2604 17.728C78.6524 17.728 78.4764 18.144 78.4764 18.72V19.52H79.7884C79.9804 19.52 80.0924 19.632 80.0924 19.808V20.928C80.0924 21.12 79.9804 21.216 79.7884 21.216H78.4764V26.912C78.4764 27.088 78.3804 27.2 78.1884 27.2H76.8924C76.7004 27.2 76.5884 27.088 76.5884 26.912V21.216H75.8844C75.6924 21.216 75.5804 21.12 75.5804 20.928V19.808C75.5804 19.632 75.6924 19.52 75.8844 19.52H76.5884V18.432C76.5884 17.136 77.1804 15.904 79.0044 15.904C79.5964 15.904 79.9964 16.016 80.3964 16.224ZM85.0864 27.392C82.7024 27.392 81.0384 25.68 81.0384 23.36C81.0384 21.04 82.7024 19.328 85.0864 19.328C87.4704 19.328 89.1344 21.04 89.1344 23.36C89.1344 25.68 87.4704 27.392 85.0864 27.392ZM85.0864 25.6C86.4304 25.6 87.1824 24.624 87.1824 23.36C87.1824 22.096 86.4304 21.12 85.0864 21.12C83.7424 21.12 82.9904 22.096 82.9904 23.36C82.9904 24.624 83.7424 25.6 85.0864 25.6ZM96.4599 20.608C96.5239 20.784 96.4759 20.928 96.2999 20.992L92.5559 22.528V26.912C92.5559 27.088 92.4599 27.2 92.2679 27.2H90.9719C90.7799 27.2 90.6679 27.088 90.6679 26.912V20.24C90.6679 20.08 90.7479 19.968 90.9079 19.904L92.2199 19.456C92.4279 19.376 92.5559 19.488 92.5559 19.696V20.736L95.6439 19.44C95.8359 19.376 95.9639 19.424 96.0439 19.6L96.4599 20.608ZM105.738 27.392C104.618 27.392 103.706 26.912 103.29 26.384V26.912C103.29 27.088 103.194 27.2 103.002 27.2H101.706C101.514 27.2 101.402 27.088 101.402 26.912V16.736C101.402 16.576 101.482 16.464 101.642 16.4L102.954 15.936C103.162 15.856 103.29 15.952 103.29 16.16V20.352C103.722 19.792 104.634 19.328 105.738 19.328C107.93 19.328 109.53 20.896 109.53 23.36C109.53 25.536 108.138 27.392 105.738 27.392ZM105.434 25.648C106.65 25.648 107.594 24.832 107.594 23.36C107.594 21.856 106.65 21.072 105.434 21.072C104.218 21.072 103.29 21.856 103.29 23.36C103.29 24.848 104.218 25.648 105.434 25.648ZM114.835 19.328C117.091 19.328 118.435 21.088 118.435 22.976V23.648C118.435 23.84 118.323 23.936 118.131 23.936H112.723C112.931 24.912 113.699 25.664 114.963 25.664C115.811 25.664 116.515 25.392 117.123 25.008C117.299 24.912 117.443 24.944 117.523 25.12L118.035 26.048C118.115 26.208 118.099 26.352 117.987 26.432C117.187 27.04 116.211 27.392 114.947 27.392C112.387 27.392 110.867 25.696 110.867 23.408C110.867 20.928 112.643 19.328 114.835 19.328ZM112.771 22.544H116.659C116.547 21.744 115.955 21.056 114.835 21.056C113.795 21.056 113.026 21.616 112.771 22.544ZM124.493 26.704C124.541 26.864 124.509 26.992 124.349 27.072C123.933 27.28 123.549 27.392 122.957 27.392C121.181 27.392 120.541 26.24 120.541 24.864V21.216H119.693C119.501 21.216 119.405 21.104 119.405 20.912V19.808C119.405 19.632 119.501 19.52 119.693 19.52H120.541V18.48C120.541 18.32 120.605 18.208 120.765 18.144L122.077 17.664C122.285 17.584 122.429 17.696 122.429 17.904V19.52H123.757C123.949 19.52 124.045 19.632 124.045 19.808V20.912C124.045 21.104 123.949 21.216 123.757 21.216H122.429V24.576C122.429 25.152 122.589 25.568 123.213 25.568C123.405 25.568 123.565 25.52 123.773 25.44C123.965 25.344 124.093 25.392 124.157 25.6L124.493 26.704ZM130.149 26.704C130.197 26.864 130.165 26.992 130.005 27.072C129.589 27.28 129.205 27.392 128.613 27.392C126.837 27.392 126.197 26.24 126.197 24.864V21.216H125.349C125.157 21.216 125.061 21.104 125.061 20.912V19.808C125.061 19.632 125.157 19.52 125.349 19.52H126.197V18.48C126.197 18.32 126.261 18.208 126.421 18.144L127.733 17.664C127.941 17.584 128.085 17.696 128.085 17.904V19.52H129.413C129.605 19.52 129.701 19.632 129.701 19.808V20.912C129.701 21.104 129.605 21.216 129.413 21.216H128.085V24.576C128.085 25.152 128.245 25.568 128.869 25.568C129.061 25.568 129.221 25.52 129.429 25.44C129.621 25.344 129.749 25.392 129.813 25.6L130.149 26.704ZM135.038 19.328C137.294 19.328 138.638 21.088 138.638 22.976V23.648C138.638 23.84 138.526 23.936 138.334 23.936H132.926C133.134 24.912 133.902 25.664 135.166 25.664C136.014 25.664 136.718 25.392 137.326 25.008C137.502 24.912 137.646 24.944 137.726 25.12L138.238 26.048C138.318 26.208 138.302 26.352 138.19 26.432C137.39 27.04 136.414 27.392 135.15 27.392C132.59 27.392 131.07 25.696 131.07 23.408C131.07 20.928 132.846 19.328 135.038 19.328ZM132.974 22.544H136.862C136.75 21.744 136.158 21.056 135.038 21.056C133.998 21.056 133.23 21.616 132.974 22.544ZM145.96 20.608C146.024 20.784 145.976 20.928 145.8 20.992L142.056 22.528V26.912C142.056 27.088 141.96 27.2 141.768 27.2H140.472C140.28 27.2 140.168 27.088 140.168 26.912V20.24C140.168 20.08 140.248 19.968 140.408 19.904L141.72 19.456C141.928 19.376 142.056 19.488 142.056 19.696V20.736L145.144 19.44C145.336 19.376 145.464 19.424 145.544 19.6L145.96 20.608ZM145.969 27.2C145.777 27.2 145.681 27.088 145.681 26.912V25.472C145.681 25.28 145.777 25.168 145.969 25.168H147.409C147.601 25.168 147.697 25.28 147.697 25.472V26.912C147.697 27.088 147.601 27.2 147.409 27.2H145.969Z" fill="#FF1243"/>
</svg>
