<svg width="328" height="17" viewBox="0 0 328 17" fill="none" xmlns="http://www.w3.org/2000/svg">
<path d="M12.024 12.384C12.114 12.618 12.024 12.762 11.772 12.762H9.954C9.774 12.762 9.648 12.672 9.594 12.528L8.604 10.026H3.528L2.538 12.528C2.466 12.69 2.34 12.762 2.16 12.762H0.341999C0.107999 12.762 -1.43051e-06 12.618 0.0899986 12.384L5.004 0.414023C5.058 0.234023 5.202 0.162023 5.382 0.162023H6.732C6.912 0.162023 7.056 0.234023 7.128 0.414023L12.024 12.384ZM4.338 7.99202H7.794L6.066 3.61802L4.338 7.99202ZM13.6575 12.762C13.4415 12.762 13.3155 12.636 13.3155 12.438V4.93202C13.3155 4.75202 13.4055 4.62602 13.5855 4.55402L15.0615 4.05002C15.2955 3.96002 15.4395 4.08602 15.4395 4.32002V5.18402C16.0515 4.32002 17.0055 3.90602 18.1395 3.90602C19.9755 3.90602 21.5595 5.22002 21.5595 7.77602V12.438C21.5595 12.636 21.4515 12.762 21.2355 12.762H19.7775C19.5615 12.762 19.4355 12.636 19.4355 12.438V8.02802C19.4355 6.67802 18.6615 5.94002 17.4915 5.94002C16.3035 5.94002 15.4395 6.69602 15.4395 8.02802V12.438C15.4395 12.636 15.3315 12.762 15.1155 12.762H13.6575ZM31.4242 3.90602C33.9622 3.90602 35.4742 5.88602 35.4742 8.01002V8.76602C35.4742 8.98202 35.3482 9.09002 35.1322 9.09002H29.0482C29.2822 10.188 30.1462 11.034 31.5682 11.034C32.5222 11.034 33.3142 10.728 33.9982 10.296C34.1962 10.188 34.3582 10.224 34.4482 10.422L35.0242 11.466C35.1142 11.646 35.0962 11.808 34.9702 11.898C34.0702 12.582 32.9722 12.978 31.5502 12.978C28.6702 12.978 26.9602 11.07 26.9602 8.49602C26.9602 5.70602 28.9582 3.90602 31.4242 3.90602ZM29.1022 7.52402H33.4762C33.3502 6.62402 32.6842 5.85002 31.4242 5.85002C30.2542 5.85002 29.3902 6.48002 29.1022 7.52402ZM37.3577 12.762C37.1417 12.762 37.0157 12.636 37.0157 12.438V4.93202C37.0157 4.75202 37.1057 4.62602 37.2857 4.55402L38.7617 4.05002C38.9957 3.96002 39.1397 4.08602 39.1397 4.32002V5.18402C39.7517 4.32002 40.7057 3.90602 41.8397 3.90602C43.6757 3.90602 45.2597 5.22002 45.2597 7.77602V12.438C45.2597 12.636 45.1517 12.762 44.9357 12.762H43.4777C43.2617 12.762 43.1357 12.636 43.1357 12.438V8.02802C43.1357 6.67802 42.3617 5.94002 41.1917 5.94002C40.0037 5.94002 39.1397 6.69602 39.1397 8.02802V12.438C39.1397 12.636 39.0317 12.762 38.8157 12.762H37.3577ZM51.156 3.90602C53.694 3.90602 55.206 5.88602 55.206 8.01002V8.76602C55.206 8.98202 55.08 9.09002 54.864 9.09002H48.78C49.014 10.188 49.878 11.034 51.3 11.034C52.254 11.034 53.046 10.728 53.73 10.296C53.928 10.188 54.09 10.224 54.18 10.422L54.756 11.466C54.846 11.646 54.828 11.808 54.702 11.898C53.802 12.582 52.704 12.978 51.282 12.978C48.402 12.978 46.692 11.07 46.692 8.49602C46.692 5.70602 48.69 3.90602 51.156 3.90602ZM48.834 7.52402H53.208C53.082 6.62402 52.416 5.85002 51.156 5.85002C49.986 5.85002 49.122 6.48002 48.834 7.52402ZM63.2635 5.34602C63.3355 5.54402 63.2815 5.70602 63.0835 5.77802L58.8715 7.50602V12.438C58.8715 12.636 58.7635 12.762 58.5475 12.762H57.0895C56.8735 12.762 56.7475 12.636 56.7475 12.438V4.93202C56.7475 4.75202 56.8375 4.62602 57.0175 4.55402L58.4935 4.05002C58.7275 3.96002 58.8715 4.08602 58.8715 4.32002V5.49002L62.3455 4.03202C62.5615 3.96002 62.7055 4.01402 62.7955 4.21202L63.2635 5.34602ZM68.1787 16.578C66.7207 16.578 65.5147 16.236 64.3267 15.372C64.1647 15.246 64.1287 15.084 64.2367 14.922L64.9027 13.716C65.0107 13.518 65.1907 13.482 65.3707 13.644C66.2707 14.328 67.1887 14.616 68.0707 14.616C69.7987 14.616 70.8067 13.608 70.8067 12.078V11.844C70.4107 12.348 69.3847 12.834 68.1607 12.834C65.3887 12.834 63.8047 10.836 63.8047 8.38802C63.8047 5.85002 65.6767 3.90602 68.2507 3.90602C69.3127 3.90602 70.3387 4.28402 70.8067 5.07602V4.96802C70.8067 4.77002 70.8967 4.64402 71.0767 4.57202L72.5527 4.05002C72.7867 3.96002 72.9307 4.06802 72.9307 4.30202V11.88C72.9307 14.886 71.0227 16.578 68.1787 16.578ZM68.4127 10.854C69.7807 10.854 70.8247 9.95402 70.8247 8.37002C70.8247 6.78602 69.7807 5.86802 68.4127 5.86802C67.0267 5.86802 65.9827 6.78602 65.9827 8.37002C65.9827 9.93602 67.0267 10.854 68.4127 10.854ZM82.4804 4.12202C82.7324 4.12202 82.8224 4.26602 82.7324 4.50002L77.7644 16.11C77.7104 16.29 77.5664 16.362 77.3684 16.362H75.7844C75.5504 16.362 75.4424 16.218 75.5324 15.984L77.2964 11.844L74.1464 4.50002C74.0564 4.26602 74.1644 4.12202 74.3984 4.12202H76.0184C76.1984 4.12202 76.3424 4.19402 76.4144 4.37402L78.4124 9.21602L80.4644 4.37402C80.5364 4.19402 80.6804 4.12202 80.8604 4.12202H82.4804ZM92.4318 12.978C89.6058 12.978 87.7158 11.052 87.7158 8.44202C87.7158 5.83202 89.6058 3.90602 92.4318 3.90602C93.5478 3.90602 94.5918 4.19402 95.3118 4.86002C95.4738 5.00402 95.5098 5.16602 95.4018 5.34602L94.7178 6.46202C94.6098 6.64202 94.4658 6.67802 94.2858 6.55202C93.7998 6.17402 93.2598 5.92202 92.4678 5.92202C90.9018 5.92202 89.9478 7.00202 89.9478 8.44202C89.9478 9.93602 90.9018 10.962 92.4678 10.962C93.2598 10.962 93.7998 10.728 94.3038 10.332C94.4658 10.224 94.6278 10.26 94.7358 10.44L95.4018 11.538C95.5098 11.718 95.4738 11.862 95.3478 11.988C94.6638 12.654 93.5838 12.978 92.4318 12.978ZM101.248 12.978C98.566 12.978 96.694 11.052 96.694 8.44202C96.694 5.83202 98.566 3.90602 101.248 3.90602C103.93 3.90602 105.802 5.83202 105.802 8.44202C105.802 11.052 103.93 12.978 101.248 12.978ZM101.248 10.962C102.76 10.962 103.606 9.86402 103.606 8.44202C103.606 7.02002 102.76 5.92202 101.248 5.92202C99.736 5.92202 98.89 7.02002 98.89 8.44202C98.89 9.86402 99.736 10.962 101.248 10.962ZM107.689 12.762C107.473 12.762 107.347 12.636 107.347 12.438V4.93202C107.347 4.75202 107.437 4.62602 107.617 4.55402L109.093 4.05002C109.327 3.96002 109.471 4.08602 109.471 4.32002V5.05802C109.831 4.48202 110.821 3.90602 111.919 3.90602C113.017 3.90602 113.845 4.46402 114.241 5.25602C114.799 4.33802 115.807 3.90602 116.869 3.90602C118.525 3.90602 120.055 5.04002 120.055 7.59602V12.438C120.055 12.636 119.929 12.762 119.713 12.762H118.255C118.039 12.762 117.931 12.636 117.931 12.438V7.79402C117.931 6.58802 117.337 5.94002 116.401 5.94002C115.447 5.94002 114.763 6.57002 114.763 7.79402V12.438C114.763 12.636 114.655 12.762 114.439 12.762H112.981C112.765 12.762 112.639 12.636 112.639 12.438V7.79402C112.639 6.53402 112.081 5.94002 111.109 5.94002C110.245 5.94002 109.471 6.58802 109.471 7.79402V12.438C109.471 12.636 109.363 12.762 109.147 12.762H107.689ZM122.046 16.362C121.83 16.362 121.704 16.236 121.704 16.038V4.96802C121.704 4.77002 121.794 4.64402 121.974 4.57202L123.45 4.05002C123.684 3.96002 123.828 4.06802 123.828 4.30202V5.05802C124.314 4.42802 125.34 3.90602 126.582 3.90602C129.048 3.90602 130.848 5.67002 130.848 8.44202C130.848 10.89 129.282 12.978 126.582 12.978C125.322 12.978 124.296 12.438 123.828 11.844V16.038C123.828 16.236 123.72 16.362 123.504 16.362H122.046ZM126.24 11.016C127.608 11.016 128.67 10.098 128.67 8.44202C128.67 6.75002 127.608 5.86802 126.24 5.86802C124.872 5.86802 123.828 6.75002 123.828 8.44202C123.828 10.116 124.872 11.016 126.24 11.016ZM136.528 12.978C133.756 12.978 132.172 10.962 132.172 8.38802C132.172 5.85002 134.044 3.90602 136.618 3.90602C137.68 3.90602 138.706 4.28402 139.174 5.07602V4.96802C139.174 4.77002 139.264 4.64402 139.444 4.57202L140.92 4.05002C141.154 3.96002 141.298 4.06802 141.298 4.30202V12.438C141.298 12.636 141.172 12.762 140.956 12.762H139.498C139.3 12.762 139.174 12.636 139.174 12.438V11.97C138.778 12.474 137.752 12.978 136.528 12.978ZM136.78 10.98C138.148 10.98 139.192 10.08 139.192 8.37002C139.192 6.78602 138.148 5.86802 136.78 5.86802C135.394 5.86802 134.35 6.78602 134.35 8.37002C134.35 10.062 135.394 10.98 136.78 10.98ZM143.395 12.762C143.179 12.762 143.053 12.636 143.053 12.438V4.93202C143.053 4.75202 143.143 4.62602 143.323 4.55402L144.799 4.05002C145.033 3.96002 145.177 4.08602 145.177 4.32002V5.18402C145.789 4.32002 146.743 3.90602 147.877 3.90602C149.713 3.90602 151.297 5.22002 151.297 7.77602V12.438C151.297 12.636 151.189 12.762 150.973 12.762H149.515C149.299 12.762 149.173 12.636 149.173 12.438V8.02802C149.173 6.67802 148.399 5.94002 147.229 5.94002C146.041 5.94002 145.177 6.69602 145.177 8.02802V12.438C145.177 12.636 145.069 12.762 144.853 12.762H143.395ZM160.529 4.12202C160.781 4.12202 160.871 4.26602 160.781 4.50002L155.813 16.11C155.759 16.29 155.615 16.362 155.417 16.362H153.833C153.599 16.362 153.491 16.218 153.581 15.984L155.345 11.844L152.195 4.50002C152.105 4.26602 152.213 4.12202 152.447 4.12202H154.067C154.247 4.12202 154.391 4.19402 154.463 4.37402L156.461 9.21602L158.513 4.37402C158.585 4.19402 158.729 4.12202 158.909 4.12202H160.529ZM169.22 12.978C167.816 12.978 166.538 12.582 165.764 11.718C165.638 11.574 165.656 11.394 165.764 11.25L166.448 10.332C166.592 10.152 166.754 10.152 166.916 10.296C167.492 10.782 168.266 11.16 169.148 11.16C170.102 11.16 170.534 10.872 170.534 10.35C170.534 9.82802 170.066 9.57602 168.968 9.36002C167.222 9.03602 165.962 8.26202 165.962 6.69602C165.962 5.02202 167.366 3.90602 169.256 3.90602C170.57 3.90602 171.452 4.32002 172.01 4.77002C172.172 4.91402 172.172 5.05802 172.046 5.23802L171.29 6.19202C171.164 6.37202 171.02 6.37202 170.822 6.26402C170.408 5.97602 169.814 5.76002 169.202 5.76002C168.5 5.76002 168.05 6.03002 168.05 6.46202C168.05 6.94802 168.608 7.12802 169.616 7.34402C171.542 7.72202 172.622 8.47802 172.622 10.152C172.622 12.096 171.038 12.978 169.22 12.978ZM178.292 3.90602C180.83 3.90602 182.342 5.88602 182.342 8.01002V8.76602C182.342 8.98202 182.216 9.09002 182 9.09002H175.916C176.15 10.188 177.014 11.034 178.436 11.034C179.39 11.034 180.182 10.728 180.866 10.296C181.064 10.188 181.226 10.224 181.316 10.422L181.892 11.466C181.982 11.646 181.964 11.808 181.838 11.898C180.938 12.582 179.84 12.978 178.418 12.978C175.538 12.978 173.828 11.07 173.828 8.49602C173.828 5.70602 175.826 3.90602 178.292 3.90602ZM175.97 7.52402H180.344C180.218 6.62402 179.552 5.85002 178.292 5.85002C177.122 5.85002 176.258 6.48002 175.97 7.52402ZM188.024 12.978C185.252 12.978 183.668 10.962 183.668 8.38802C183.668 5.85002 185.54 3.90602 188.114 3.90602C189.176 3.90602 190.202 4.28402 190.67 5.07602V4.96802C190.67 4.77002 190.76 4.64402 190.94 4.57202L192.416 4.05002C192.65 3.96002 192.794 4.06802 192.794 4.30202V12.438C192.794 12.636 192.668 12.762 192.452 12.762H190.994C190.796 12.762 190.67 12.636 190.67 12.438V11.97C190.274 12.474 189.248 12.978 188.024 12.978ZM188.276 10.98C189.644 10.98 190.688 10.08 190.688 8.37002C190.688 6.78602 189.644 5.86802 188.276 5.86802C186.89 5.86802 185.846 6.78602 185.846 8.37002C185.846 10.062 186.89 10.98 188.276 10.98ZM201.065 5.34602C201.137 5.54402 201.083 5.70602 200.885 5.77802L196.673 7.50602V12.438C196.673 12.636 196.565 12.762 196.349 12.762H194.891C194.675 12.762 194.549 12.636 194.549 12.438V4.93202C194.549 4.75202 194.639 4.62602 194.819 4.55402L196.295 4.05002C196.529 3.96002 196.673 4.08602 196.673 4.32002V5.49002L200.147 4.03202C200.363 3.96002 200.507 4.01402 200.597 4.21202L201.065 5.34602ZM206.287 12.978C203.461 12.978 201.571 11.052 201.571 8.44202C201.571 5.83202 203.461 3.90602 206.287 3.90602C207.403 3.90602 208.447 4.19402 209.167 4.86002C209.329 5.00402 209.365 5.16602 209.257 5.34602L208.573 6.46202C208.465 6.64202 208.321 6.67802 208.141 6.55202C207.655 6.17402 207.115 5.92202 206.323 5.92202C204.757 5.92202 203.803 7.00202 203.803 8.44202C203.803 9.93602 204.757 10.962 206.323 10.962C207.115 10.962 207.655 10.728 208.159 10.332C208.321 10.224 208.483 10.26 208.591 10.44L209.257 11.538C209.365 11.718 209.329 11.862 209.203 11.988C208.519 12.654 207.439 12.978 206.287 12.978ZM211.143 12.762C210.927 12.762 210.801 12.636 210.801 12.438V0.954024C210.801 0.774024 210.891 0.666023 211.071 0.594023L212.547 0.0900229C212.781 2.30074e-05 212.925 0.126024 212.925 0.360024V5.18402C213.519 4.33802 214.491 3.90602 215.643 3.90602C217.479 3.90602 219.045 5.22002 219.045 7.77602V12.438C219.045 12.636 218.937 12.762 218.721 12.762H217.263C217.047 12.762 216.921 12.636 216.921 12.438V8.02802C216.921 6.67802 216.147 5.94002 214.977 5.94002C213.789 5.94002 212.925 6.69602 212.925 8.02802V12.438C212.925 12.636 212.817 12.762 212.601 12.762H211.143ZM221.017 3.51002C220.783 3.58202 220.621 3.47402 220.621 3.24002V1.63802C220.621 1.45802 220.711 1.33202 220.891 1.26002L222.511 0.684024C222.745 0.594023 222.889 0.720023 222.889 0.954024V2.59202C222.889 2.77202 222.817 2.89802 222.619 2.97002L221.017 3.51002ZM221.017 12.762C220.819 12.762 220.693 12.636 220.693 12.438V4.93202C220.693 4.75202 220.783 4.62602 220.963 4.55402L222.439 4.05002C222.673 3.96002 222.817 4.08602 222.817 4.32002V12.438C222.817 12.636 222.691 12.762 222.475 12.762H221.017ZM224.916 12.762C224.7 12.762 224.574 12.636 224.574 12.438V4.93202C224.574 4.75202 224.664 4.62602 224.844 4.55402L226.32 4.05002C226.554 3.96002 226.698 4.08602 226.698 4.32002V5.18402C227.31 4.32002 228.264 3.90602 229.398 3.90602C231.234 3.90602 232.818 5.22002 232.818 7.77602V12.438C232.818 12.636 232.71 12.762 232.494 12.762H231.036C230.82 12.762 230.694 12.636 230.694 12.438V8.02802C230.694 6.67802 229.92 5.94002 228.75 5.94002C227.562 5.94002 226.698 6.69602 226.698 8.02802V12.438C226.698 12.636 226.59 12.762 226.374 12.762H224.916ZM238.624 16.578C237.166 16.578 235.96 16.236 234.772 15.372C234.61 15.246 234.574 15.084 234.682 14.922L235.348 13.716C235.456 13.518 235.636 13.482 235.816 13.644C236.716 14.328 237.634 14.616 238.516 14.616C240.244 14.616 241.252 13.608 241.252 12.078V11.844C240.856 12.348 239.83 12.834 238.606 12.834C235.834 12.834 234.25 10.836 234.25 8.38802C234.25 5.85002 236.122 3.90602 238.696 3.90602C239.758 3.90602 240.784 4.28402 241.252 5.07602V4.96802C241.252 4.77002 241.342 4.64402 241.522 4.57202L242.998 4.05002C243.232 3.96002 243.376 4.06802 243.376 4.30202V11.88C243.376 14.886 241.468 16.578 238.624 16.578ZM238.858 10.854C240.226 10.854 241.27 9.95402 241.27 8.37002C241.27 6.78602 240.226 5.86802 238.858 5.86802C237.472 5.86802 236.428 6.78602 236.428 8.37002C236.428 9.93602 237.472 10.854 238.858 10.854ZM254.068 0.414023C254.248 0.504023 254.302 0.648023 254.248 0.828023L253.87 2.08802C253.798 2.30402 253.654 2.35802 253.438 2.25002C253.204 2.14202 253.024 2.10602 252.79 2.10602C252.106 2.10602 251.908 2.57402 251.908 3.22202V4.12202H253.384C253.6 4.12202 253.726 4.24802 253.726 4.44602V5.70602C253.726 5.92202 253.6 6.03002 253.384 6.03002H251.908V12.438C251.908 12.636 251.8 12.762 251.584 12.762H250.126C249.91 12.762 249.784 12.636 249.784 12.438V6.03002H248.992C248.776 6.03002 248.65 5.92202 248.65 5.70602V4.44602C248.65 4.24802 248.776 4.12202 248.992 4.12202H249.784V2.89802C249.784 1.44002 250.45 0.0540234 252.502 0.0540234C253.168 0.0540234 253.618 0.180023 254.068 0.414023ZM259.164 12.978C256.482 12.978 254.61 11.052 254.61 8.44202C254.61 5.83202 256.482 3.90602 259.164 3.90602C261.846 3.90602 263.718 5.83202 263.718 8.44202C263.718 11.052 261.846 12.978 259.164 12.978ZM259.164 10.962C260.676 10.962 261.522 9.86402 261.522 8.44202C261.522 7.02002 260.676 5.92202 259.164 5.92202C257.652 5.92202 256.806 7.02002 256.806 8.44202C256.806 9.86402 257.652 10.962 259.164 10.962ZM271.779 5.34602C271.851 5.54402 271.797 5.70602 271.599 5.77802L267.387 7.50602V12.438C267.387 12.636 267.279 12.762 267.063 12.762H265.605C265.389 12.762 265.263 12.636 265.263 12.438V4.93202C265.263 4.75202 265.353 4.62602 265.533 4.55402L267.009 4.05002C267.243 3.96002 267.387 4.08602 267.387 4.32002V5.49002L270.861 4.03202C271.077 3.96002 271.221 4.01402 271.311 4.21202L271.779 5.34602ZM281.858 12.978C280.598 12.978 279.572 12.438 279.104 11.844V12.438C279.104 12.636 278.996 12.762 278.78 12.762H277.322C277.106 12.762 276.98 12.636 276.98 12.438V0.990023C276.98 0.810023 277.07 0.684024 277.25 0.612024L278.726 0.0900229C278.96 2.30074e-05 279.104 0.108024 279.104 0.342023V5.05802C279.59 4.42802 280.616 3.90602 281.858 3.90602C284.324 3.90602 286.124 5.67002 286.124 8.44202C286.124 10.89 284.558 12.978 281.858 12.978ZM281.516 11.016C282.884 11.016 283.946 10.098 283.946 8.44202C283.946 6.75002 282.884 5.86802 281.516 5.86802C280.148 5.86802 279.104 6.75002 279.104 8.44202C279.104 10.116 280.148 11.016 281.516 11.016ZM291.911 3.90602C294.449 3.90602 295.961 5.88602 295.961 8.01002V8.76602C295.961 8.98202 295.835 9.09002 295.619 9.09002H289.535C289.769 10.188 290.633 11.034 292.055 11.034C293.009 11.034 293.801 10.728 294.485 10.296C294.683 10.188 294.845 10.224 294.935 10.422L295.511 11.466C295.601 11.646 295.583 11.808 295.457 11.898C294.557 12.582 293.459 12.978 292.037 12.978C289.157 12.978 287.447 11.07 287.447 8.49602C287.447 5.70602 289.445 3.90602 291.911 3.90602ZM289.589 7.52402H293.963C293.837 6.62402 293.171 5.85002 291.911 5.85002C290.741 5.85002 289.877 6.48002 289.589 7.52402ZM302.596 12.204C302.65 12.384 302.614 12.528 302.434 12.618C301.966 12.852 301.534 12.978 300.868 12.978C298.87 12.978 298.15 11.682 298.15 10.134V6.03002H297.196C296.98 6.03002 296.872 5.90402 296.872 5.68802V4.44602C296.872 4.24802 296.98 4.12202 297.196 4.12202H298.15V2.95202C298.15 2.77202 298.222 2.64602 298.402 2.57402L299.878 2.03402C300.112 1.94402 300.274 2.07002 300.274 2.30402V4.12202H301.768C301.984 4.12202 302.092 4.24802 302.092 4.44602V5.68802C302.092 5.90402 301.984 6.03002 301.768 6.03002H300.274V9.81002C300.274 10.458 300.454 10.926 301.156 10.926C301.372 10.926 301.552 10.872 301.786 10.782C302.002 10.674 302.146 10.728 302.218 10.962L302.596 12.204ZM308.78 12.204C308.834 12.384 308.798 12.528 308.618 12.618C308.15 12.852 307.718 12.978 307.052 12.978C305.054 12.978 304.334 11.682 304.334 10.134V6.03002H303.38C303.164 6.03002 303.056 5.90402 303.056 5.68802V4.44602C303.056 4.24802 303.164 4.12202 303.38 4.12202H304.334V2.95202C304.334 2.77202 304.406 2.64602 304.586 2.57402L306.062 2.03402C306.296 1.94402 306.458 2.07002 306.458 2.30402V4.12202H307.952C308.168 4.12202 308.276 4.24802 308.276 4.44602V5.68802C308.276 5.90402 308.168 6.03002 307.952 6.03002H306.458V9.81002C306.458 10.458 306.638 10.926 307.34 10.926C307.556 10.926 307.736 10.872 307.97 10.782C308.186 10.674 308.33 10.728 308.402 10.962L308.78 12.204ZM314.099 3.90602C316.637 3.90602 318.149 5.88602 318.149 8.01002V8.76602C318.149 8.98202 318.023 9.09002 317.807 9.09002H311.723C311.957 10.188 312.821 11.034 314.243 11.034C315.197 11.034 315.989 10.728 316.673 10.296C316.871 10.188 317.033 10.224 317.123 10.422L317.699 11.466C317.789 11.646 317.771 11.808 317.645 11.898C316.745 12.582 315.647 12.978 314.225 12.978C311.345 12.978 309.635 11.07 309.635 8.49602C309.635 5.70602 311.633 3.90602 314.099 3.90602ZM311.777 7.52402H316.151C316.025 6.62402 315.359 5.85002 314.099 5.85002C312.929 5.85002 312.065 6.48002 311.777 7.52402ZM326.207 5.34602C326.279 5.54402 326.225 5.70602 326.027 5.77802L321.815 7.50602V12.438C321.815 12.636 321.707 12.762 321.491 12.762H320.033C319.817 12.762 319.691 12.636 319.691 12.438V4.93202C319.691 4.75202 319.781 4.62602 319.961 4.55402L321.437 4.05002C321.671 3.96002 321.815 4.08602 321.815 4.32002V5.49002L325.289 4.03202C325.505 3.96002 325.649 4.01402 325.739 4.21202L326.207 5.34602ZM326.038 12.762C325.822 12.762 325.714 12.636 325.714 12.438V10.818C325.714 10.602 325.822 10.476 326.038 10.476H327.658C327.874 10.476 327.982 10.602 327.982 10.818V12.438C327.982 12.636 327.874 12.762 327.658 12.762H326.038Z" fill="#FF1243"/>
</svg>
