<svg width="128" height="16" viewBox="0 0 128 16" fill="none" xmlns="http://www.w3.org/2000/svg">
<g clip-path="url(#clip0_15_131)">
<path d="M9.674 -4.294C9.744 -4.112 9.674 -4 9.478 -4H8.064C7.924 -4 7.826 -4.07 7.784 -4.182L7.014 -6.128H3.066L2.296 -4.182C2.24 -4.056 2.142 -4 2.002 -4H0.588C0.406 -4 0.322 -4.112 0.392 -4.294L4.214 -13.604C4.256 -13.744 4.368 -13.8 4.508 -13.8H5.558C5.698 -13.8 5.81 -13.744 5.866 -13.604L9.674 -4.294ZM3.696 -7.71H6.384L5.04 -11.112L3.696 -7.71ZM10.9445 -4C10.7765 -4 10.6785 -4.098 10.6785 -4.252V-10.09C10.6785 -10.23 10.7485 -10.328 10.8885 -10.384L12.0365 -10.776C12.2185 -10.846 12.3305 -10.748 12.3305 -10.566V-9.894C12.8065 -10.566 13.5485 -10.888 14.4305 -10.888C15.8585 -10.888 17.0905 -9.866 17.0905 -7.878V-4.252C17.0905 -4.098 17.0065 -4 16.8385 -4H15.7045C15.5365 -4 15.4385 -4.098 15.4385 -4.252V-7.682C15.4385 -8.732 14.8365 -9.306 13.9265 -9.306C13.0025 -9.306 12.3305 -8.718 12.3305 -7.682V-4.252C12.3305 -4.098 12.2465 -4 12.0785 -4H10.9445ZM24.763 -10.888C26.737 -10.888 27.913 -9.348 27.913 -7.696V-7.108C27.913 -6.94 27.815 -6.856 27.647 -6.856H22.915C23.097 -6.002 23.769 -5.344 24.875 -5.344C25.617 -5.344 26.233 -5.582 26.765 -5.918C26.919 -6.002 27.045 -5.974 27.115 -5.82L27.563 -5.008C27.633 -4.868 27.619 -4.742 27.521 -4.672C26.821 -4.14 25.967 -3.832 24.861 -3.832C22.621 -3.832 21.291 -5.316 21.291 -7.318C21.291 -9.488 22.845 -10.888 24.763 -10.888ZM22.957 -8.074H26.359C26.261 -8.774 25.743 -9.376 24.763 -9.376C23.853 -9.376 23.181 -8.886 22.957 -8.074ZM29.378 -4C29.21 -4 29.112 -4.098 29.112 -4.252V-10.09C29.112 -10.23 29.182 -10.328 29.322 -10.384L30.47 -10.776C30.652 -10.846 30.764 -10.748 30.764 -10.566V-9.894C31.24 -10.566 31.982 -10.888 32.864 -10.888C34.292 -10.888 35.524 -9.866 35.524 -7.878V-4.252C35.524 -4.098 35.44 -4 35.272 -4H34.138C33.97 -4 33.872 -4.098 33.872 -4.252V-7.682C33.872 -8.732 33.27 -9.306 32.36 -9.306C31.436 -9.306 30.764 -8.718 30.764 -7.682V-4.252C30.764 -4.098 30.68 -4 30.512 -4H29.378ZM40.11 -10.888C42.084 -10.888 43.26 -9.348 43.26 -7.696V-7.108C43.26 -6.94 43.162 -6.856 42.994 -6.856H38.262C38.444 -6.002 39.116 -5.344 40.222 -5.344C40.964 -5.344 41.58 -5.582 42.112 -5.918C42.266 -6.002 42.392 -5.974 42.462 -5.82L42.91 -5.008C42.98 -4.868 42.966 -4.742 42.868 -4.672C42.168 -4.14 41.314 -3.832 40.208 -3.832C37.968 -3.832 36.638 -5.316 36.638 -7.318C36.638 -9.488 38.192 -10.888 40.11 -10.888ZM38.304 -8.074H41.706C41.608 -8.774 41.09 -9.376 40.11 -9.376C39.2 -9.376 38.528 -8.886 38.304 -8.074ZM49.527 -9.768C49.583 -9.614 49.541 -9.488 49.387 -9.432L46.111 -8.088V-4.252C46.111 -4.098 46.027 -4 45.859 -4H44.725C44.557 -4 44.459 -4.098 44.459 -4.252V-10.09C44.459 -10.23 44.529 -10.328 44.669 -10.384L45.817 -10.776C45.999 -10.846 46.111 -10.748 46.111 -10.566V-9.656L48.813 -10.79C48.981 -10.846 49.093 -10.804 49.163 -10.65L49.527 -9.768ZM53.3498 -1.032C52.2158 -1.032 51.2778 -1.298 50.3538 -1.97C50.2278 -2.068 50.1998 -2.194 50.2838 -2.32L50.8018 -3.258C50.8858 -3.412 51.0258 -3.44 51.1658 -3.314C51.8658 -2.782 52.5798 -2.558 53.2658 -2.558C54.6098 -2.558 55.3938 -3.342 55.3938 -4.532V-4.714C55.0858 -4.322 54.2878 -3.944 53.3358 -3.944C51.1798 -3.944 49.9478 -5.498 49.9478 -7.402C49.9478 -9.376 51.4038 -10.888 53.4058 -10.888C54.2318 -10.888 55.0298 -10.594 55.3938 -9.978V-10.062C55.3938 -10.216 55.4638 -10.314 55.6038 -10.37L56.7518 -10.776C56.9338 -10.846 57.0458 -10.762 57.0458 -10.58V-4.686C57.0458 -2.348 55.5618 -1.032 53.3498 -1.032ZM53.5318 -5.484C54.5958 -5.484 55.4078 -6.184 55.4078 -7.416C55.4078 -8.648 54.5958 -9.362 53.5318 -9.362C52.4538 -9.362 51.6418 -8.648 51.6418 -7.416C51.6418 -6.198 52.4538 -5.484 53.5318 -5.484ZM64.4734 -10.72C64.6694 -10.72 64.7394 -10.608 64.6694 -10.426L60.8054 -1.396C60.7634 -1.256 60.6514 -1.2 60.4974 -1.2H59.2654C59.0834 -1.2 58.9994 -1.312 59.0694 -1.494L60.4414 -4.714L57.9914 -10.426C57.9214 -10.608 58.0054 -10.72 58.1874 -10.72H59.4474C59.5874 -10.72 59.6994 -10.664 59.7554 -10.524L61.3094 -6.758L62.9054 -10.524C62.9614 -10.664 63.0734 -10.72 63.2134 -10.72H64.4734ZM72.2134 -3.832C70.0154 -3.832 68.5454 -5.33 68.5454 -7.36C68.5454 -9.39 70.0154 -10.888 72.2134 -10.888C73.0814 -10.888 73.8934 -10.664 74.4534 -10.146C74.5794 -10.034 74.6074 -9.908 74.5234 -9.768L73.9914 -8.9C73.9074 -8.76 73.7954 -8.732 73.6554 -8.83C73.2774 -9.124 72.8574 -9.32 72.2414 -9.32C71.0234 -9.32 70.2814 -8.48 70.2814 -7.36C70.2814 -6.198 71.0234 -5.4 72.2414 -5.4C72.8574 -5.4 73.2774 -5.582 73.6694 -5.89C73.7954 -5.974 73.9214 -5.946 74.0054 -5.806L74.5234 -4.952C74.6074 -4.812 74.5794 -4.7 74.4814 -4.602C73.9494 -4.084 73.1094 -3.832 72.2134 -3.832ZM79.0705 -3.832C76.9845 -3.832 75.5285 -5.33 75.5285 -7.36C75.5285 -9.39 76.9845 -10.888 79.0705 -10.888C81.1565 -10.888 82.6125 -9.39 82.6125 -7.36C82.6125 -5.33 81.1565 -3.832 79.0705 -3.832ZM79.0705 -5.4C80.2465 -5.4 80.9045 -6.254 80.9045 -7.36C80.9045 -8.466 80.2465 -9.32 79.0705 -9.32C77.8945 -9.32 77.2365 -8.466 77.2365 -7.36C77.2365 -6.254 77.8945 -5.4 79.0705 -5.4ZM84.0803 -4C83.9123 -4 83.8143 -4.098 83.8143 -4.252V-10.09C83.8143 -10.23 83.8843 -10.328 84.0243 -10.384L85.1723 -10.776C85.3543 -10.846 85.4663 -10.748 85.4663 -10.566V-9.992C85.7463 -10.44 86.5163 -10.888 87.3703 -10.888C88.2243 -10.888 88.8683 -10.454 89.1763 -9.838C89.6103 -10.552 90.3943 -10.888 91.2203 -10.888C92.5083 -10.888 93.6983 -10.006 93.6983 -8.018V-4.252C93.6983 -4.098 93.6003 -4 93.4323 -4H92.2983C92.1303 -4 92.0463 -4.098 92.0463 -4.252V-7.864C92.0463 -8.802 91.5843 -9.306 90.8563 -9.306C90.1143 -9.306 89.5823 -8.816 89.5823 -7.864V-4.252C89.5823 -4.098 89.4983 -4 89.3303 -4H88.1963C88.0283 -4 87.9303 -4.098 87.9303 -4.252V-7.864C87.9303 -8.844 87.4963 -9.306 86.7403 -9.306C86.0683 -9.306 85.4663 -8.802 85.4663 -7.864V-4.252C85.4663 -4.098 85.3823 -4 85.2143 -4H84.0803ZM95.2469 -1.2C95.0789 -1.2 94.9809 -1.298 94.9809 -1.452V-10.062C94.9809 -10.216 95.0509 -10.314 95.1909 -10.37L96.3389 -10.776C96.5209 -10.846 96.6329 -10.762 96.6329 -10.58V-9.992C97.0109 -10.482 97.8089 -10.888 98.7749 -10.888C100.693 -10.888 102.093 -9.516 102.093 -7.36C102.093 -5.456 100.875 -3.832 98.7749 -3.832C97.7949 -3.832 96.9969 -4.252 96.6329 -4.714V-1.452C96.6329 -1.298 96.5489 -1.2 96.3809 -1.2H95.2469ZM98.5089 -5.358C99.5729 -5.358 100.399 -6.072 100.399 -7.36C100.399 -8.676 99.5729 -9.362 98.5089 -9.362C97.4449 -9.362 96.6329 -8.676 96.6329 -7.36C96.6329 -6.058 97.4449 -5.358 98.5089 -5.358ZM106.51 -3.832C104.354 -3.832 103.122 -5.4 103.122 -7.402C103.122 -9.376 104.578 -10.888 106.58 -10.888C107.406 -10.888 108.204 -10.594 108.568 -9.978V-10.062C108.568 -10.216 108.638 -10.314 108.778 -10.37L109.926 -10.776C110.108 -10.846 110.22 -10.762 110.22 -10.58V-4.252C110.22 -4.098 110.122 -4 109.954 -4H108.82C108.666 -4 108.568 -4.098 108.568 -4.252V-4.616C108.26 -4.224 107.462 -3.832 106.51 -3.832ZM106.706 -5.386C107.77 -5.386 108.582 -6.086 108.582 -7.416C108.582 -8.648 107.77 -9.362 106.706 -9.362C105.628 -9.362 104.816 -8.648 104.816 -7.416C104.816 -6.1 105.628 -5.386 106.706 -5.386ZM111.852 -4C111.684 -4 111.586 -4.098 111.586 -4.252V-10.09C111.586 -10.23 111.656 -10.328 111.796 -10.384L112.944 -10.776C113.126 -10.846 113.238 -10.748 113.238 -10.566V-9.894C113.714 -10.566 114.456 -10.888 115.338 -10.888C116.766 -10.888 117.998 -9.866 117.998 -7.878V-4.252C117.998 -4.098 117.914 -4 117.746 -4H116.612C116.444 -4 116.346 -4.098 116.346 -4.252V-7.682C116.346 -8.732 115.744 -9.306 114.834 -9.306C113.91 -9.306 113.238 -8.718 113.238 -7.682V-4.252C113.238 -4.098 113.154 -4 112.986 -4H111.852ZM125.178 -10.72C125.374 -10.72 125.444 -10.608 125.374 -10.426L121.51 -1.396C121.468 -1.256 121.356 -1.2 121.202 -1.2H119.97C119.788 -1.2 119.704 -1.312 119.774 -1.494L121.146 -4.714L118.696 -10.426C118.626 -10.608 118.71 -10.72 118.892 -10.72H120.152C120.292 -10.72 120.404 -10.664 120.46 -10.524L122.014 -6.758L123.61 -10.524C123.666 -10.664 123.778 -10.72 123.918 -10.72H125.178ZM3.276 12.168C2.184 12.168 1.19 11.86 0.588 11.188C0.49 11.076 0.504 10.936 0.588 10.824L1.12 10.11C1.232 9.97 1.358 9.97 1.484 10.082C1.932 10.46 2.534 10.754 3.22 10.754C3.962 10.754 4.298 10.53 4.298 10.124C4.298 9.718 3.934 9.522 3.08 9.354C1.722 9.102 0.742 8.5 0.742 7.282C0.742 5.98 1.834 5.112 3.304 5.112C4.326 5.112 5.012 5.434 5.446 5.784C5.572 5.896 5.572 6.008 5.474 6.148L4.886 6.89C4.788 7.03 4.676 7.03 4.522 6.946C4.2 6.722 3.738 6.554 3.262 6.554C2.716 6.554 2.366 6.764 2.366 7.1C2.366 7.478 2.8 7.618 3.584 7.786C5.082 8.08 5.922 8.668 5.922 9.97C5.922 11.482 4.69 12.168 3.276 12.168ZM10.3321 5.112C12.3061 5.112 13.4821 6.652 13.4821 8.304V8.892C13.4821 9.06 13.3841 9.144 13.2161 9.144H8.48411C8.66611 9.998 9.33811 10.656 10.4441 10.656C11.1861 10.656 11.8021 10.418 12.3341 10.082C12.4881 9.998 12.6141 10.026 12.6841 10.18L13.1321 10.992C13.2021 11.132 13.1881 11.258 13.0901 11.328C12.3901 11.86 11.5361 12.168 10.4301 12.168C8.19011 12.168 6.86011 10.684 6.86011 8.682C6.86011 6.512 8.41411 5.112 10.3321 5.112ZM8.52611 7.926H11.9281C11.8301 7.226 11.3121 6.624 10.3321 6.624C9.42211 6.624 8.75011 7.114 8.52611 7.926ZM17.9011 12.168C15.7451 12.168 14.5131 10.6 14.5131 8.598C14.5131 6.624 15.9691 5.112 17.9711 5.112C18.7971 5.112 19.5951 5.406 19.9591 6.022V5.938C19.9591 5.784 20.0291 5.686 20.1691 5.63L21.3171 5.224C21.4991 5.154 21.6111 5.238 21.6111 5.42V11.748C21.6111 11.902 21.5131 12 21.3451 12H20.2111C20.0571 12 19.9591 11.902 19.9591 11.748V11.384C19.6511 11.776 18.8531 12.168 17.9011 12.168ZM18.0971 10.614C19.1611 10.614 19.9731 9.914 19.9731 8.584C19.9731 7.352 19.1611 6.638 18.0971 6.638C17.0191 6.638 16.2071 7.352 16.2071 8.584C16.2071 9.9 17.0191 10.614 18.0971 10.614ZM28.0446 6.232C28.1006 6.386 28.0586 6.512 27.9046 6.568L24.6286 7.912V11.748C24.6286 11.902 24.5446 12 24.3766 12H23.2426C23.0746 12 22.9766 11.902 22.9766 11.748V5.91C22.9766 5.77 23.0466 5.672 23.1866 5.616L24.3346 5.224C24.5166 5.154 24.6286 5.252 24.6286 5.434V6.344L27.3306 5.21C27.4986 5.154 27.6106 5.196 27.6806 5.35L28.0446 6.232ZM32.1062 12.168C29.9082 12.168 28.4382 10.67 28.4382 8.64C28.4382 6.61 29.9082 5.112 32.1062 5.112C32.9742 5.112 33.7862 5.336 34.3462 5.854C34.4722 5.966 34.5002 6.092 34.4162 6.232L33.8842 7.1C33.8002 7.24 33.6882 7.268 33.5482 7.17C33.1702 6.876 32.7502 6.68 32.1342 6.68C30.9162 6.68 30.1742 7.52 30.1742 8.64C30.1742 9.802 30.9162 10.6 32.1342 10.6C32.7502 10.6 33.1702 10.418 33.5622 10.11C33.6882 10.026 33.8142 10.054 33.8982 10.194L34.4162 11.048C34.5002 11.188 34.4722 11.3 34.3742 11.398C33.8422 11.916 33.0022 12.168 32.1062 12.168ZM35.8825 12C35.7145 12 35.6165 11.902 35.6165 11.748V2.816C35.6165 2.676 35.6865 2.592 35.8265 2.536L36.9745 2.144C37.1565 2.074 37.2685 2.172 37.2685 2.354V6.106C37.7305 5.448 38.4865 5.112 39.3825 5.112C40.8105 5.112 42.0285 6.134 42.0285 8.122V11.748C42.0285 11.902 41.9445 12 41.7765 12H40.6425C40.4745 12 40.3765 11.902 40.3765 11.748V8.318C40.3765 7.268 39.7745 6.694 38.8645 6.694C37.9405 6.694 37.2685 7.282 37.2685 8.318V11.748C37.2685 11.902 37.1845 12 37.0165 12H35.8825ZM43.5625 4.804C43.3805 4.86 43.2545 4.776 43.2545 4.594V3.348C43.2545 3.208 43.3245 3.11 43.4645 3.054L44.7245 2.606C44.9065 2.536 45.0185 2.634 45.0185 2.816V4.09C45.0185 4.23 44.9625 4.328 44.8085 4.384L43.5625 4.804ZM43.5625 12C43.4085 12 43.3105 11.902 43.3105 11.748V5.91C43.3105 5.77 43.3805 5.672 43.5205 5.616L44.6685 5.224C44.8505 5.154 44.9625 5.252 44.9625 5.434V11.748C44.9625 11.902 44.8645 12 44.6965 12H43.5625ZM46.5947 12C46.4267 12 46.3287 11.902 46.3287 11.748V5.91C46.3287 5.77 46.3987 5.672 46.5387 5.616L47.6867 5.224C47.8687 5.154 47.9807 5.252 47.9807 5.434V6.106C48.4567 5.434 49.1987 5.112 50.0807 5.112C51.5087 5.112 52.7407 6.134 52.7407 8.122V11.748C52.7407 11.902 52.6567 12 52.4887 12H51.3547C51.1867 12 51.0887 11.902 51.0887 11.748V8.318C51.0887 7.268 50.4867 6.694 49.5767 6.694C48.6527 6.694 47.9807 7.282 47.9807 8.318V11.748C47.9807 11.902 47.8967 12 47.7287 12H46.5947ZM57.2567 14.968C56.1227 14.968 55.1847 14.702 54.2607 14.03C54.1347 13.932 54.1067 13.806 54.1907 13.68L54.7087 12.742C54.7927 12.588 54.9327 12.56 55.0727 12.686C55.7727 13.218 56.4867 13.442 57.1727 13.442C58.5167 13.442 59.3007 12.658 59.3007 11.468V11.286C58.9927 11.678 58.1947 12.056 57.2427 12.056C55.0867 12.056 53.8547 10.502 53.8547 8.598C53.8547 6.624 55.3107 5.112 57.3127 5.112C58.1387 5.112 58.9367 5.406 59.3007 6.022V5.938C59.3007 5.784 59.3707 5.686 59.5107 5.63L60.6587 5.224C60.8407 5.154 60.9527 5.238 60.9527 5.42V11.314C60.9527 13.652 59.4687 14.968 57.2567 14.968ZM57.4387 10.516C58.5027 10.516 59.3147 9.816 59.3147 8.584C59.3147 7.352 58.5027 6.638 57.4387 6.638C56.3607 6.638 55.5487 7.352 55.5487 8.584C55.5487 9.802 56.3607 10.516 57.4387 10.516ZM69.2688 2.396C69.4088 2.466 69.4508 2.578 69.4088 2.718L69.1148 3.698C69.0588 3.866 68.9468 3.908 68.7788 3.824C68.5968 3.74 68.4568 3.712 68.2748 3.712C67.7428 3.712 67.5888 4.076 67.5888 4.58V5.28H68.7368C68.9048 5.28 69.0028 5.378 69.0028 5.532V6.512C69.0028 6.68 68.9048 6.764 68.7368 6.764H67.5888V11.748C67.5888 11.902 67.5048 12 67.3368 12H66.2028C66.0348 12 65.9368 11.902 65.9368 11.748V6.764H65.3208C65.1528 6.764 65.0548 6.68 65.0548 6.512V5.532C65.0548 5.378 65.1528 5.28 65.3208 5.28H65.9368V4.328C65.9368 3.194 66.4548 2.116 68.0508 2.116C68.5688 2.116 68.9188 2.214 69.2688 2.396ZM73.2326 12.168C71.1466 12.168 69.6906 10.67 69.6906 8.64C69.6906 6.61 71.1466 5.112 73.2326 5.112C75.3186 5.112 76.7746 6.61 76.7746 8.64C76.7746 10.67 75.3186 12.168 73.2326 12.168ZM73.2326 10.6C74.4086 10.6 75.0666 9.746 75.0666 8.64C75.0666 7.534 74.4086 6.68 73.2326 6.68C72.0566 6.68 71.3986 7.534 71.3986 8.64C71.3986 9.746 72.0566 10.6 73.2326 10.6ZM83.0444 6.232C83.1004 6.386 83.0584 6.512 82.9044 6.568L79.6284 7.912V11.748C79.6284 11.902 79.5444 12 79.3764 12H78.2424C78.0744 12 77.9764 11.902 77.9764 11.748V5.91C77.9764 5.77 78.0464 5.672 78.1864 5.616L79.3344 5.224C79.5164 5.154 79.6284 5.252 79.6284 5.434V6.344L82.3304 5.21C82.4984 5.154 82.6104 5.196 82.6804 5.35L83.0444 6.232ZM90.883 12.168C89.903 12.168 89.105 11.748 88.741 11.286V11.748C88.741 11.902 88.657 12 88.489 12H87.355C87.187 12 87.089 11.902 87.089 11.748V2.844C87.089 2.704 87.159 2.606 87.299 2.55L88.447 2.144C88.629 2.074 88.741 2.158 88.741 2.34V6.008C89.119 5.518 89.917 5.112 90.883 5.112C92.801 5.112 94.201 6.484 94.201 8.64C94.201 10.544 92.983 12.168 90.883 12.168ZM90.617 10.642C91.681 10.642 92.507 9.928 92.507 8.64C92.507 7.324 91.681 6.638 90.617 6.638C89.553 6.638 88.741 7.324 88.741 8.64C88.741 9.942 89.553 10.642 90.617 10.642ZM98.7022 5.112C100.676 5.112 101.852 6.652 101.852 8.304V8.892C101.852 9.06 101.754 9.144 101.586 9.144H96.8542C97.0362 9.998 97.7082 10.656 98.8142 10.656C99.5562 10.656 100.172 10.418 100.704 10.082C100.858 9.998 100.984 10.026 101.054 10.18L101.502 10.992C101.572 11.132 101.558 11.258 101.46 11.328C100.76 11.86 99.9062 12.168 98.8002 12.168C96.5602 12.168 95.2302 10.684 95.2302 8.682C95.2302 6.512 96.7842 5.112 98.7022 5.112ZM96.8962 7.926H100.298C100.2 7.226 99.6822 6.624 98.7022 6.624C97.7922 6.624 97.1202 7.114 96.8962 7.926ZM107.013 11.566C107.055 11.706 107.027 11.818 106.887 11.888C106.523 12.07 106.187 12.168 105.669 12.168C104.115 12.168 103.555 11.16 103.555 9.956V6.764H102.813C102.645 6.764 102.561 6.666 102.561 6.498V5.532C102.561 5.378 102.645 5.28 102.813 5.28H103.555V4.37C103.555 4.23 103.611 4.132 103.751 4.076L104.899 3.656C105.081 3.586 105.207 3.684 105.207 3.866V5.28H106.369C106.537 5.28 106.621 5.378 106.621 5.532V6.498C106.621 6.666 106.537 6.764 106.369 6.764H105.207V9.704C105.207 10.208 105.347 10.572 105.893 10.572C106.061 10.572 106.201 10.53 106.383 10.46C106.551 10.376 106.663 10.418 106.719 10.6L107.013 11.566ZM111.822 11.566C111.864 11.706 111.836 11.818 111.696 11.888C111.332 12.07 110.996 12.168 110.478 12.168C108.924 12.168 108.364 11.16 108.364 9.956V6.764H107.622C107.454 6.764 107.37 6.666 107.37 6.498V5.532C107.37 5.378 107.454 5.28 107.622 5.28H108.364V4.37C108.364 4.23 108.42 4.132 108.56 4.076L109.708 3.656C109.89 3.586 110.016 3.684 110.016 3.866V5.28H111.178C111.346 5.28 111.43 5.378 111.43 5.532V6.498C111.43 6.666 111.346 6.764 111.178 6.764H110.016V9.704C110.016 10.208 110.156 10.572 110.702 10.572C110.87 10.572 111.01 10.53 111.192 10.46C111.36 10.376 111.472 10.418 111.528 10.6L111.822 11.566ZM115.96 5.112C117.934 5.112 119.11 6.652 119.11 8.304V8.892C119.11 9.06 119.012 9.144 118.844 9.144H114.112C114.294 9.998 114.966 10.656 116.072 10.656C116.814 10.656 117.43 10.418 117.962 10.082C118.116 9.998 118.242 10.026 118.312 10.18L118.76 10.992C118.83 11.132 118.816 11.258 118.718 11.328C118.018 11.86 117.164 12.168 116.058 12.168C113.818 12.168 112.488 10.684 112.488 8.682C112.488 6.512 114.042 5.112 115.96 5.112ZM114.154 7.926H117.556C117.458 7.226 116.94 6.624 115.96 6.624C115.05 6.624 114.378 7.114 114.154 7.926ZM125.377 6.232C125.433 6.386 125.391 6.512 125.237 6.568L121.961 7.912V11.748C121.961 11.902 121.877 12 121.709 12H120.575C120.407 12 120.309 11.902 120.309 11.748V5.91C120.309 5.77 120.379 5.672 120.519 5.616L121.667 5.224C121.849 5.154 121.961 5.252 121.961 5.434V6.344L124.663 5.21C124.831 5.154 124.943 5.196 125.013 5.35L125.377 6.232ZM125.245 12C125.077 12 124.993 11.902 124.993 11.748V10.488C124.993 10.32 125.077 10.222 125.245 10.222H126.505C126.673 10.222 126.757 10.32 126.757 10.488V11.748C126.757 11.902 126.673 12 126.505 12H125.245Z" fill="#FF1243"/>
</g>
<defs>
<clipPath id="clip0_15_131">
<rect width="128" height="16" fill="white"/>
</clipPath>
</defs>
</svg>
