<svg width="180" height="21" viewBox="0 0 180 21" fill="none" xmlns="http://www.w3.org/2000/svg">
<path d="M9.416 0.143352C9.614 0.143352 9.746 0.275353 9.746 0.473352V1.70535C9.746 1.90335 9.614 2.03535 9.416 2.03535H1.98V7.13935H7.678C7.876 7.13935 8.008 7.27135 8.008 7.46935V8.70135C8.008 8.89935 7.876 9.03135 7.678 9.03135H1.98V15.2134C1.98 15.4114 1.848 15.5434 1.65 15.5434H0.33C0.132 15.5434 0 15.4114 0 15.2134V0.473352C0 0.275353 0.132 0.143352 0.33 0.143352H9.416Z" fill="#243746"/>
<path d="M18.3325 5.99535C18.3985 6.19335 18.3325 6.34735 18.1345 6.43535L13.0965 8.52535V15.2134C13.0965 15.4114 12.9645 15.5434 12.7665 15.5434H11.5345C11.3365 15.5434 11.2045 15.4114 11.2045 15.2134V5.73135C11.2045 5.55535 11.2925 5.42335 11.4685 5.35735L12.7225 4.89535C12.9425 4.80735 13.0965 4.91735 13.0965 5.15935V6.67735L17.4965 4.85135C17.6945 4.76335 17.8485 4.82935 17.9365 5.02735L18.3325 5.99535Z" fill="#243746"/>
<path d="M24.3595 15.8074C21.1915 15.8074 18.9255 13.4534 18.9255 10.2634C18.9255 7.07335 21.1915 4.71935 24.3595 4.71935C27.5275 4.71935 29.7715 7.07335 29.7715 10.2634C29.7715 13.4534 27.5275 15.8074 24.3595 15.8074ZM24.3595 13.9594C26.5155 13.9594 27.8355 12.3314 27.8355 10.2634C27.8355 8.19535 26.5155 6.56735 24.3595 6.56735C22.1815 6.56735 20.8615 8.19535 20.8615 10.2634C20.8615 12.3314 22.1815 13.9594 24.3595 13.9594Z" fill="#243746"/>
<path d="M32.1707 15.5434C31.9727 15.5434 31.8407 15.4114 31.8407 15.2134V5.73135C31.8407 5.55535 31.9287 5.42335 32.1047 5.35735L33.3587 4.89535C33.5787 4.80735 33.7327 4.91735 33.7327 5.15935V6.28135C34.4367 5.24735 35.5587 4.71935 36.7467 4.71935C37.9347 4.71935 39.0787 5.29135 39.7387 6.52335C40.6407 5.11535 41.9607 4.71935 43.1047 4.71935C45.4147 4.71935 46.9327 6.10535 46.9327 9.22935V15.2134C46.9327 15.4114 46.8007 15.5434 46.6027 15.5434H45.3707C45.1727 15.5434 45.0407 15.4114 45.0407 15.2134V9.47135C45.0407 7.62335 44.1827 6.58935 42.6867 6.58935C41.1907 6.58935 40.3327 7.62335 40.3327 9.47135V15.2134C40.3327 15.4114 40.2007 15.5434 40.0027 15.5434H38.7707C38.5727 15.5434 38.4407 15.4114 38.4407 15.2134V9.47135C38.4407 7.62335 37.5827 6.58935 36.0867 6.58935C34.5907 6.58935 33.7327 7.62335 33.7327 9.47135V15.2134C33.7327 15.4114 33.6007 15.5434 33.4027 15.5434H32.1707Z" fill="#243746"/>
<path d="M59.1487 15.8074C55.9807 15.8074 53.7147 13.4534 53.7147 10.2634C53.7147 7.07335 55.9807 4.71935 59.1487 4.71935C62.3167 4.71935 64.5607 7.07335 64.5607 10.2634C64.5607 13.4534 62.3167 15.8074 59.1487 15.8074ZM59.1487 13.9594C61.3047 13.9594 62.6247 12.3314 62.6247 10.2634C62.6247 8.19535 61.3047 6.56735 59.1487 6.56735C56.9707 6.56735 55.6507 8.19535 55.6507 10.2634C55.6507 12.3314 56.9707 13.9594 59.1487 13.9594Z" fill="#243746"/>
<path d="M66.9379 3.77335C66.7179 3.83935 66.5639 3.75135 66.5639 3.50935V1.94735C66.5639 1.77135 66.6519 1.63935 66.8279 1.57335L68.2139 1.04535C68.4339 0.957352 68.5879 1.06735 68.5879 1.30935V2.93735C68.5879 3.11335 68.4999 3.24535 68.3239 3.31135L66.9379 3.77335ZM66.9599 15.5434C66.7619 15.5434 66.6299 15.4114 66.6299 15.2134V5.73135C66.6299 5.55535 66.7179 5.42335 66.8939 5.35735L68.1479 4.89535C68.3679 4.80735 68.5219 4.91735 68.5219 5.15935V15.2134C68.5219 15.4114 68.3899 15.5434 68.1919 15.5434H66.9599Z" fill="#243746"/>
<path d="M71.2731 15.5434C71.0751 15.5434 70.9431 15.4114 70.9431 15.2134V0.891353C70.9431 0.715353 71.0311 0.583353 71.2071 0.517352L72.4611 0.0553518C72.6811 -0.032647 72.8351 0.0773529 72.8351 0.319352V15.2134C72.8351 15.4114 72.7031 15.5434 72.5051 15.5434H71.2731Z" fill="#243746"/>
<path d="M85.0346 15.8074C81.6906 15.8074 79.7546 13.2554 79.7546 10.2414C79.7546 6.87535 82.2626 4.71935 85.1446 4.71935C86.5966 4.71935 87.9386 5.26935 88.6206 6.19335V5.73135C88.6206 5.55535 88.7086 5.42335 88.8846 5.35735L90.1386 4.89535C90.3586 4.80735 90.5126 4.89535 90.5126 5.13735V15.2134C90.5126 15.4114 90.3806 15.5434 90.1826 15.5434H88.9506C88.7526 15.5434 88.6206 15.4114 88.6206 15.2134V14.3554C88.0046 15.1254 86.5526 15.8074 85.0346 15.8074ZM85.1666 13.9374C87.1246 13.9374 88.6426 12.6834 88.6426 10.2414C88.6426 7.82135 87.1246 6.56735 85.1666 6.56735C83.2966 6.56735 81.6906 7.82135 81.6906 10.2414C81.6906 12.6614 83.2966 13.9374 85.1666 13.9374Z" fill="#243746"/>
<path d="M93.2577 15.5434C93.0597 15.5434 92.9277 15.4114 92.9277 15.2134V5.73135C92.9277 5.55535 93.0157 5.42335 93.1917 5.35735L94.4457 4.89535C94.6657 4.80735 94.8197 4.91735 94.8197 5.15935V6.28135C95.6337 5.09335 96.8877 4.71935 98.0317 4.71935C100.408 4.71935 102.3 6.32535 102.3 9.44935V15.2134C102.3 15.4114 102.168 15.5434 101.97 15.5434H100.738C100.54 15.5434 100.408 15.4114 100.408 15.2134V9.51535C100.408 7.62335 99.3077 6.58935 97.6797 6.58935C96.0297 6.58935 94.8197 7.64535 94.8197 9.51535V15.2134C94.8197 15.4114 94.6877 15.5434 94.4897 15.5434H93.2577Z" fill="#243746"/>
<path d="M109.517 15.8074C106.173 15.8074 104.237 13.2554 104.237 10.2414C104.237 6.87535 106.745 4.71935 109.627 4.71935C111.079 4.71935 112.421 5.26935 113.103 6.19335V0.869352C113.103 0.693353 113.191 0.561352 113.367 0.495353L114.621 0.0333521C114.841 -0.054648 114.995 0.0333521 114.995 0.275353V15.2134C114.995 15.4114 114.863 15.5434 114.665 15.5434H113.433C113.235 15.5434 113.103 15.4114 113.103 15.2134V14.3554C112.487 15.1254 111.035 15.8074 109.517 15.8074ZM109.649 13.9374C111.607 13.9374 113.125 12.6834 113.125 10.2414C113.125 7.82135 111.607 6.56735 109.649 6.56735C107.779 6.56735 106.173 7.82135 106.173 10.2414C106.173 12.6614 107.779 13.9374 109.649 13.9374Z" fill="#243746"/>
<path d="M127.122 20.2074C125.56 20.2074 123.998 19.8334 122.48 18.6894C122.326 18.5574 122.304 18.4034 122.392 18.2274L123.03 17.1274C123.14 16.9294 123.294 16.9074 123.492 17.0394C124.526 17.8314 125.802 18.3594 127.144 18.3594C129.498 18.3594 130.774 16.8634 130.774 14.4874V14.3554C130.202 15.0594 128.86 15.8074 127.122 15.8074C123.888 15.8074 121.908 13.2554 121.908 10.2634C121.908 6.87535 124.416 4.71935 127.298 4.71935C128.75 4.71935 130.092 5.26935 130.774 6.19335V5.73135C130.774 5.55535 130.862 5.42335 131.038 5.35735L132.292 4.89535C132.512 4.80735 132.666 4.89535 132.666 5.13735V14.0914C132.666 18.3594 130.51 20.2074 127.122 20.2074ZM127.342 13.9374C129.256 13.9374 130.796 12.6834 130.796 10.2414C130.796 7.82135 129.256 6.56735 127.342 6.56735C125.428 6.56735 123.844 7.82135 123.844 10.2414C123.844 12.6614 125.428 13.9374 127.342 13.9374Z" fill="#243746"/>
<path d="M140.009 15.8074C136.665 15.8074 134.729 13.2554 134.729 10.2414C134.729 6.87535 137.237 4.71935 140.119 4.71935C141.571 4.71935 142.913 5.26935 143.595 6.19335V5.73135C143.595 5.55535 143.683 5.42335 143.859 5.35735L145.113 4.89535C145.333 4.80735 145.487 4.89535 145.487 5.13735V15.2134C145.487 15.4114 145.355 15.5434 145.157 15.5434H143.925C143.727 15.5434 143.595 15.4114 143.595 15.2134V14.3554C142.979 15.1254 141.527 15.8074 140.009 15.8074ZM140.141 13.9374C142.099 13.9374 143.617 12.6834 143.617 10.2414C143.617 7.82135 142.099 6.56735 140.141 6.56735C138.271 6.56735 136.665 7.82135 136.665 10.2414C136.665 12.6614 138.271 13.9374 140.141 13.9374Z" fill="#243746"/>
<path d="M151.598 15.8074C150.036 15.8074 148.452 15.3014 147.506 14.2014C147.374 14.0694 147.396 13.8934 147.506 13.7394L148.21 12.8374C148.342 12.6614 148.496 12.6614 148.672 12.7934C149.332 13.3654 150.212 13.9594 151.642 13.9594C153.006 13.9594 153.754 13.5194 153.754 12.6614C153.754 11.7814 152.984 11.4294 151.554 11.0774C149.772 10.6374 147.814 10.1094 147.814 7.95335C147.814 6.06135 149.31 4.71935 151.664 4.71935C153.182 4.71935 154.26 5.24735 154.964 5.81935C155.118 5.97335 155.118 6.10535 154.986 6.28135L154.282 7.16135C154.15 7.31535 153.996 7.35935 153.82 7.22735C153.314 6.87535 152.61 6.56735 151.708 6.56735C150.63 6.56735 149.706 6.98535 149.706 7.84335C149.706 8.63535 150.498 8.94335 151.994 9.29535C154.172 9.80135 155.602 10.6154 155.602 12.5294C155.602 15.2134 153.204 15.8074 151.598 15.8074Z" fill="#243746"/>
<path d="M167.87 15.0374C167.936 15.2134 167.87 15.3894 167.65 15.4994C167.166 15.7194 166.748 15.8074 166.286 15.8074C163.844 15.8074 163.272 14.2234 163.272 12.3314V6.69935H161.886C161.688 6.69935 161.556 6.56735 161.556 6.36935V5.31335C161.556 5.11535 161.688 4.98335 161.886 4.98335H163.272V3.31135C163.272 3.13535 163.36 3.00335 163.536 2.93735L164.79 2.47535C165.01 2.38735 165.164 2.49735 165.164 2.73935V4.98335H167.056C167.254 4.98335 167.386 5.11535 167.386 5.31335V6.36935C167.386 6.56735 167.254 6.69935 167.056 6.69935H165.164V12.3534C165.164 13.2554 165.494 13.9154 166.44 13.9154C166.638 13.9154 166.836 13.8714 167.078 13.7834C167.298 13.7174 167.452 13.7614 167.518 13.9814L167.87 15.0374Z" fill="#243746"/>
<path d="M174.388 15.8074C171.22 15.8074 168.954 13.4534 168.954 10.2634C168.954 7.07335 171.22 4.71935 174.388 4.71935C177.556 4.71935 179.8 7.07335 179.8 10.2634C179.8 13.4534 177.556 15.8074 174.388 15.8074ZM174.388 13.9594C176.544 13.9594 177.864 12.3314 177.864 10.2634C177.864 8.19535 176.544 6.56735 174.388 6.56735C172.21 6.56735 170.89 8.19535 170.89 10.2634C170.89 12.3314 172.21 13.9594 174.388 13.9594Z" fill="#243746"/>
</svg>
