<svg width="263" height="21" viewBox="0 0 263 21" fill="none" xmlns="http://www.w3.org/2000/svg">
<path d="M9.41599 2.068H1.97999V6.512H7.67799C7.87599 6.512 8.00799 6.644 8.00799 6.842V8.074C8.00799 8.272 7.87599 8.404 7.67799 8.404H1.97999V13.684H9.41599C9.61399 13.684 9.74599 13.816 9.74599 14.014V15.246C9.74599 15.444 9.61399 15.576 9.41599 15.576H0.329991C0.131992 15.576 -8.53837e-06 15.444 -8.53837e-06 15.246V0.506003C-8.53837e-06 0.308004 0.131992 0.176003 0.329991 0.176003H9.41599C9.61399 0.176003 9.74599 0.308004 9.74599 0.506003V1.738C9.74599 1.936 9.61399 2.068 9.41599 2.068ZM12.3131 15.576C12.1151 15.576 11.9831 15.444 11.9831 15.246V5.764C11.9831 5.588 12.0711 5.456 12.2471 5.39L13.5011 4.928C13.7211 4.84 13.8751 4.95 13.8751 5.192V6.314C14.6891 5.126 15.9431 4.752 17.0871 4.752C19.4631 4.752 21.3551 6.358 21.3551 9.482V15.246C21.3551 15.444 21.2231 15.576 21.0251 15.576H19.7931C19.5951 15.576 19.4631 15.444 19.4631 15.246V9.548C19.4631 7.656 18.3631 6.622 16.7351 6.622C15.0851 6.622 13.8751 7.678 13.8751 9.548V15.246C13.8751 15.444 13.7431 15.576 13.5451 15.576H12.3131ZM28.902 4.752C31.916 4.752 33.764 7.128 33.764 9.768V10.582C33.764 10.78 33.632 10.912 33.434 10.912H25.492C25.734 12.628 26.944 13.992 29.078 13.992C30.266 13.992 31.322 13.574 32.4 12.782C32.598 12.65 32.752 12.672 32.862 12.848L33.478 13.772C33.588 13.926 33.566 14.102 33.412 14.234C32.224 15.29 30.618 15.84 29.056 15.84C25.58 15.84 23.512 13.53 23.512 10.362C23.512 6.886 25.932 4.752 28.902 4.752ZM25.558 9.196H31.762C31.674 7.832 30.706 6.6 28.88 6.6C27.164 6.6 25.932 7.59 25.558 9.196ZM43.1736 6.028C43.2396 6.226 43.1736 6.38 42.9756 6.468L37.9376 8.558V15.246C37.9376 15.444 37.8056 15.576 37.6076 15.576H36.3756C36.1776 15.576 36.0456 15.444 36.0456 15.246V5.764C36.0456 5.588 36.1336 5.456 36.3096 5.39L37.5636 4.928C37.7836 4.84 37.9376 4.95 37.9376 5.192V6.71L42.3376 4.884C42.5356 4.796 42.6896 4.862 42.7776 5.06L43.1736 6.028ZM49.2006 20.24C47.6386 20.24 46.0766 19.866 44.5586 18.722C44.4046 18.59 44.3826 18.436 44.4706 18.26L45.1086 17.16C45.2186 16.962 45.3726 16.94 45.5706 17.072C46.6046 17.864 47.8806 18.392 49.2226 18.392C51.5766 18.392 52.8526 16.896 52.8526 14.52V14.388C52.2806 15.092 50.9386 15.84 49.2006 15.84C45.9666 15.84 43.9866 13.288 43.9866 10.296C43.9866 6.908 46.4946 4.752 49.3766 4.752C50.8286 4.752 52.1706 5.302 52.8526 6.226V5.764C52.8526 5.588 52.9406 5.456 53.1166 5.39L54.3706 4.928C54.5906 4.84 54.7446 4.928 54.7446 5.17V14.124C54.7446 18.392 52.5886 20.24 49.2006 20.24ZM49.4206 13.97C51.3346 13.97 52.8746 12.716 52.8746 10.274C52.8746 7.854 51.3346 6.6 49.4206 6.6C47.5066 6.6 45.9226 7.854 45.9226 10.274C45.9226 12.694 47.5066 13.97 49.4206 13.97ZM66.3556 5.016C66.5976 5.016 66.7076 5.17 66.6196 5.39L60.4816 19.734C60.4156 19.91 60.2836 19.976 60.1076 19.976H58.7216C58.4796 19.976 58.3696 19.822 58.4576 19.602L60.5696 14.652L56.6096 5.39C56.5216 5.17 56.6316 5.016 56.8736 5.016H58.2816C58.4576 5.016 58.6116 5.104 58.6776 5.28L61.6036 12.232L64.5516 5.28C64.6176 5.104 64.7496 5.016 64.9256 5.016H66.3556ZM77.2533 15.84C75.6913 15.84 74.1073 15.334 73.1613 14.234C73.0293 14.102 73.0513 13.926 73.1613 13.772L73.8653 12.87C73.9973 12.694 74.1513 12.694 74.3273 12.826C74.9873 13.398 75.8673 13.992 77.2973 13.992C78.6613 13.992 79.4093 13.552 79.4093 12.694C79.4093 11.814 78.6393 11.462 77.2093 11.11C75.4273 10.67 73.4693 10.142 73.4693 7.986C73.4693 6.094 74.9653 4.752 77.3193 4.752C78.8373 4.752 79.9153 5.28 80.6193 5.852C80.7733 6.006 80.7733 6.138 80.6413 6.314L79.9373 7.194C79.8053 7.348 79.6513 7.392 79.4753 7.26C78.9693 6.908 78.2653 6.6 77.3633 6.6C76.2853 6.6 75.3613 7.018 75.3613 7.876C75.3613 8.668 76.1533 8.976 77.6493 9.328C79.8273 9.834 81.2573 10.648 81.2573 12.562C81.2573 15.246 78.8593 15.84 77.2533 15.84ZM88.5436 15.84C85.3756 15.84 83.1096 13.486 83.1096 10.296C83.1096 7.106 85.3756 4.752 88.5436 4.752C91.7116 4.752 93.9556 7.106 93.9556 10.296C93.9556 13.486 91.7116 15.84 88.5436 15.84ZM88.5436 13.992C90.6996 13.992 92.0196 12.364 92.0196 10.296C92.0196 8.228 90.6996 6.6 88.5436 6.6C86.3656 6.6 85.0456 8.228 85.0456 10.296C85.0456 12.364 86.3656 13.992 88.5436 13.992ZM96.5748 15.576C96.3768 15.576 96.2448 15.444 96.2448 15.246V0.924004C96.2448 0.748003 96.3328 0.616004 96.5088 0.550003L97.7628 0.0880028C97.9828 3.93391e-06 98.1368 0.110004 98.1368 0.352003V15.246C98.1368 15.444 98.0048 15.576 97.8068 15.576H96.5748ZM104.914 15.84C102.538 15.84 100.646 14.234 100.646 11.11V5.764C100.646 5.588 100.734 5.456 100.91 5.39L102.164 4.928C102.384 4.84 102.538 4.95 102.538 5.192V11.044C102.538 12.936 103.638 13.97 105.266 13.97C106.916 13.97 108.126 12.914 108.126 11.044V5.764C108.126 5.588 108.214 5.456 108.39 5.39L109.644 4.928C109.864 4.84 110.018 4.95 110.018 5.192V15.246C110.018 15.444 109.886 15.576 109.688 15.576H108.456C108.258 15.576 108.126 15.444 108.126 15.246V14.278C107.312 15.466 106.058 15.84 104.914 15.84ZM118.093 15.07C118.159 15.246 118.093 15.422 117.873 15.532C117.389 15.752 116.971 15.84 116.509 15.84C114.067 15.84 113.495 14.256 113.495 12.364V6.732H112.109C111.911 6.732 111.779 6.6 111.779 6.402V5.346C111.779 5.148 111.911 5.016 112.109 5.016H113.495V3.344C113.495 3.168 113.583 3.036 113.759 2.97L115.013 2.508C115.233 2.42 115.387 2.53 115.387 2.772V5.016H117.279C117.477 5.016 117.609 5.148 117.609 5.346V6.402C117.609 6.6 117.477 6.732 117.279 6.732H115.387V12.386C115.387 13.288 115.717 13.948 116.663 13.948C116.861 13.948 117.059 13.904 117.301 13.816C117.521 13.75 117.675 13.794 117.741 14.014L118.093 15.07ZM120.443 3.806C120.223 3.872 120.069 3.784 120.069 3.542V1.98C120.069 1.804 120.157 1.672 120.333 1.606L121.719 1.078C121.939 0.990003 122.093 1.1 122.093 1.342V2.97C122.093 3.146 122.005 3.278 121.829 3.344L120.443 3.806ZM120.465 15.576C120.267 15.576 120.135 15.444 120.135 15.246V5.764C120.135 5.588 120.223 5.456 120.399 5.39L121.653 4.928C121.873 4.84 122.027 4.95 122.027 5.192V15.246C122.027 15.444 121.895 15.576 121.697 15.576H120.465ZM129.751 15.84C126.583 15.84 124.317 13.486 124.317 10.296C124.317 7.106 126.583 4.752 129.751 4.752C132.919 4.752 135.163 7.106 135.163 10.296C135.163 13.486 132.919 15.84 129.751 15.84ZM129.751 13.992C131.907 13.992 133.227 12.364 133.227 10.296C133.227 8.228 131.907 6.6 129.751 6.6C127.573 6.6 126.253 8.228 126.253 10.296C126.253 12.364 127.573 13.992 129.751 13.992ZM137.782 15.576C137.584 15.576 137.452 15.444 137.452 15.246V5.764C137.452 5.588 137.54 5.456 137.716 5.39L138.97 4.928C139.19 4.84 139.344 4.95 139.344 5.192V6.314C140.158 5.126 141.412 4.752 142.556 4.752C144.932 4.752 146.824 6.358 146.824 9.482V15.246C146.824 15.444 146.692 15.576 146.494 15.576H145.262C145.064 15.576 144.932 15.444 144.932 15.246V9.548C144.932 7.656 143.832 6.622 142.204 6.622C140.554 6.622 139.344 7.678 139.344 9.548V15.246C139.344 15.444 139.212 15.576 139.014 15.576H137.782ZM153.029 15.84C151.467 15.84 149.883 15.334 148.937 14.234C148.805 14.102 148.827 13.926 148.937 13.772L149.641 12.87C149.773 12.694 149.927 12.694 150.103 12.826C150.763 13.398 151.643 13.992 153.073 13.992C154.437 13.992 155.185 13.552 155.185 12.694C155.185 11.814 154.415 11.462 152.985 11.11C151.203 10.67 149.245 10.142 149.245 7.986C149.245 6.094 150.741 4.752 153.095 4.752C154.613 4.752 155.691 5.28 156.395 5.852C156.549 6.006 156.549 6.138 156.417 6.314L155.713 7.194C155.581 7.348 155.427 7.392 155.251 7.26C154.745 6.908 154.041 6.6 153.139 6.6C152.061 6.6 151.137 7.018 151.137 7.876C151.137 8.668 151.929 8.976 153.425 9.328C155.603 9.834 157.033 10.648 157.033 12.562C157.033 15.246 154.635 15.84 153.029 15.84ZM168.003 15.84C166.441 15.84 164.857 15.334 163.911 14.234C163.779 14.102 163.801 13.926 163.911 13.772L164.615 12.87C164.747 12.694 164.901 12.694 165.077 12.826C165.737 13.398 166.617 13.992 168.047 13.992C169.411 13.992 170.159 13.552 170.159 12.694C170.159 11.814 169.389 11.462 167.959 11.11C166.177 10.67 164.219 10.142 164.219 7.986C164.219 6.094 165.715 4.752 168.069 4.752C169.587 4.752 170.665 5.28 171.369 5.852C171.523 6.006 171.523 6.138 171.391 6.314L170.687 7.194C170.555 7.348 170.401 7.392 170.225 7.26C169.719 6.908 169.015 6.6 168.113 6.6C167.035 6.6 166.111 7.018 166.111 7.876C166.111 8.668 166.903 8.976 168.399 9.328C170.577 9.834 172.007 10.648 172.007 12.562C172.007 15.246 169.609 15.84 168.003 15.84ZM179.431 15.07C179.497 15.246 179.431 15.422 179.211 15.532C178.727 15.752 178.309 15.84 177.847 15.84C175.405 15.84 174.833 14.256 174.833 12.364V6.732H173.447C173.249 6.732 173.117 6.6 173.117 6.402V5.346C173.117 5.148 173.249 5.016 173.447 5.016H174.833V3.344C174.833 3.168 174.921 3.036 175.097 2.97L176.351 2.508C176.571 2.42 176.725 2.53 176.725 2.772V5.016H178.617C178.815 5.016 178.947 5.148 178.947 5.346V6.402C178.947 6.6 178.815 6.732 178.617 6.732H176.725V12.386C176.725 13.288 177.055 13.948 178.001 13.948C178.199 13.948 178.397 13.904 178.639 13.816C178.859 13.75 179.013 13.794 179.079 14.014L179.431 15.07ZM186.015 15.84C182.671 15.84 180.735 13.288 180.735 10.274C180.735 6.908 183.243 4.752 186.125 4.752C187.577 4.752 188.919 5.302 189.601 6.226V5.764C189.601 5.588 189.689 5.456 189.865 5.39L191.119 4.928C191.339 4.84 191.493 4.928 191.493 5.17V15.246C191.493 15.444 191.361 15.576 191.163 15.576H189.931C189.733 15.576 189.601 15.444 189.601 15.246V14.388C188.985 15.158 187.533 15.84 186.015 15.84ZM186.147 13.97C188.105 13.97 189.623 12.716 189.623 10.274C189.623 7.854 188.105 6.6 186.147 6.6C184.277 6.6 182.671 7.854 182.671 10.274C182.671 12.694 184.277 13.97 186.147 13.97ZM201.256 6.028C201.322 6.226 201.256 6.38 201.058 6.468L196.02 8.558V15.246C196.02 15.444 195.888 15.576 195.69 15.576H194.458C194.26 15.576 194.128 15.444 194.128 15.246V5.764C194.128 5.588 194.216 5.456 194.392 5.39L195.646 4.928C195.866 4.84 196.02 4.95 196.02 5.192V6.71L200.42 4.884C200.618 4.796 200.772 4.862 200.86 5.06L201.256 6.028ZM208.564 15.07C208.63 15.246 208.564 15.422 208.344 15.532C207.86 15.752 207.442 15.84 206.98 15.84C204.538 15.84 203.966 14.256 203.966 12.364V6.732H202.58C202.382 6.732 202.25 6.6 202.25 6.402V5.346C202.25 5.148 202.382 5.016 202.58 5.016H203.966V3.344C203.966 3.168 204.054 3.036 204.23 2.97L205.484 2.508C205.704 2.42 205.858 2.53 205.858 2.772V5.016H207.75C207.948 5.016 208.08 5.148 208.08 5.346V6.402C208.08 6.6 207.948 6.732 207.75 6.732H205.858V12.386C205.858 13.288 206.188 13.948 207.134 13.948C207.332 13.948 207.53 13.904 207.772 13.816C207.992 13.75 208.146 13.794 208.212 14.014L208.564 15.07ZM216.006 15.576C215.808 15.576 215.676 15.444 215.676 15.246V0.924004C215.676 0.748003 215.764 0.616004 215.94 0.550003L217.194 0.0880028C217.414 3.93391e-06 217.568 0.110004 217.568 0.352003V6.314C218.316 5.214 219.68 4.752 220.868 4.752C223.2 4.752 225.048 6.358 225.048 9.482V15.246C225.048 15.444 224.916 15.576 224.718 15.576H223.486C223.288 15.576 223.156 15.444 223.156 15.246V9.548C223.156 7.656 222.056 6.622 220.428 6.622C218.778 6.622 217.568 7.678 217.568 9.548V15.246C217.568 15.444 217.436 15.576 217.238 15.576H216.006ZM232.595 4.752C235.609 4.752 237.457 7.128 237.457 9.768V10.582C237.457 10.78 237.325 10.912 237.127 10.912H229.185C229.427 12.628 230.637 13.992 232.771 13.992C233.959 13.992 235.015 13.574 236.093 12.782C236.291 12.65 236.445 12.672 236.555 12.848L237.171 13.772C237.281 13.926 237.259 14.102 237.105 14.234C235.917 15.29 234.311 15.84 232.749 15.84C229.273 15.84 227.205 13.53 227.205 10.362C227.205 6.886 229.625 4.752 232.595 4.752ZM229.251 9.196H235.455C235.367 7.832 234.399 6.6 232.573 6.6C230.857 6.6 229.625 7.59 229.251 9.196ZM246.867 6.028C246.933 6.226 246.867 6.38 246.669 6.468L241.631 8.558V15.246C241.631 15.444 241.499 15.576 241.301 15.576H240.069C239.871 15.576 239.739 15.444 239.739 15.246V5.764C239.739 5.588 239.827 5.456 240.003 5.39L241.257 4.928C241.477 4.84 241.631 4.95 241.631 5.192V6.71L246.031 4.884C246.229 4.796 246.383 4.862 246.471 5.06L246.867 6.028ZM253.07 4.752C256.084 4.752 257.932 7.128 257.932 9.768V10.582C257.932 10.78 257.8 10.912 257.602 10.912H249.66C249.902 12.628 251.112 13.992 253.246 13.992C254.434 13.992 255.49 13.574 256.568 12.782C256.766 12.65 256.92 12.672 257.03 12.848L257.646 13.772C257.756 13.926 257.734 14.102 257.58 14.234C256.392 15.29 254.786 15.84 253.224 15.84C249.748 15.84 247.68 13.53 247.68 10.362C247.68 6.886 250.1 4.752 253.07 4.752ZM249.726 9.196H255.93C255.842 7.832 254.874 6.6 253.048 6.6C251.332 6.6 250.1 7.59 249.726 9.196ZM260.324 15.576C260.126 15.576 259.994 15.444 259.994 15.246V13.882C259.994 13.684 260.126 13.552 260.324 13.552H261.688C261.886 13.552 262.018 13.684 262.018 13.882V15.246C262.018 15.444 261.886 15.576 261.688 15.576H260.324Z" fill="#243746"/>
</svg>
