<svg width="394" height="21" viewBox="0 0 394 21" fill="none" xmlns="http://www.w3.org/2000/svg">
<g clip-path="url(#clip0_15_134)">
<path d="M4.626 -7C4.482 -7 4.374 -7.054 4.32 -7.216L0.558 -19.294C0.504 -19.492 0.594 -19.6 0.792 -19.6H1.998C2.142 -19.6 2.268 -19.51 2.304 -19.366L5.238 -9.538L8.172 -19.366C8.208 -19.51 8.334 -19.6 8.478 -19.6H9.846C9.99 -19.6 10.116 -19.51 10.152 -19.366L13.086 -9.538L16.02 -19.366C16.056 -19.51 16.182 -19.6 16.326 -19.6H17.532C17.73 -19.6 17.82 -19.492 17.766 -19.294L14.004 -7.216C13.95 -7.054 13.842 -7 13.698 -7H12.474C12.33 -7 12.204 -7.09 12.168 -7.234L9.162 -17.134L6.156 -7.234C6.12 -7.09 5.994 -7 5.85 -7H4.626ZM22.0728 -15.856C24.5388 -15.856 26.0508 -13.912 26.0508 -11.752V-11.086C26.0508 -10.924 25.9428 -10.816 25.7808 -10.816H19.2828C19.4808 -9.412 20.4708 -8.296 22.2168 -8.296C23.1888 -8.296 24.0528 -8.638 24.9348 -9.286C25.0968 -9.394 25.2228 -9.376 25.3128 -9.232L25.8168 -8.476C25.9068 -8.35 25.8888 -8.206 25.7628 -8.098C24.7908 -7.234 23.4768 -6.784 22.1988 -6.784C19.3548 -6.784 17.6628 -8.674 17.6628 -11.266C17.6628 -14.11 19.6428 -15.856 22.0728 -15.856ZM19.3368 -12.22H24.4128C24.3408 -13.336 23.5488 -14.344 22.0548 -14.344C20.6508 -14.344 19.6428 -13.534 19.3368 -12.22ZM31.976 -7C31.814 -7 31.706 -7.108 31.706 -7.27V-18.988C31.706 -19.132 31.778 -19.24 31.922 -19.294L32.948 -19.672C33.128 -19.744 33.254 -19.654 33.254 -19.456V-7.27C33.254 -7.108 33.146 -7 32.984 -7H31.976ZM39.393 -6.784C36.801 -6.784 34.947 -8.71 34.947 -11.32C34.947 -13.93 36.801 -15.856 39.393 -15.856C41.985 -15.856 43.821 -13.93 43.821 -11.32C43.821 -8.71 41.985 -6.784 39.393 -6.784ZM39.393 -8.296C41.157 -8.296 42.237 -9.628 42.237 -11.32C42.237 -13.012 41.157 -14.344 39.393 -14.344C37.611 -14.344 36.531 -13.012 36.531 -11.32C36.531 -9.628 37.611 -8.296 39.393 -8.296ZM49.672 -6.784C47.08 -6.784 45.226 -8.71 45.226 -11.32C45.226 -13.93 47.08 -15.856 49.672 -15.856C52.264 -15.856 54.1 -13.93 54.1 -11.32C54.1 -8.71 52.264 -6.784 49.672 -6.784ZM49.672 -8.296C51.436 -8.296 52.516 -9.628 52.516 -11.32C52.516 -13.012 51.436 -14.344 49.672 -14.344C47.89 -14.344 46.81 -13.012 46.81 -11.32C46.81 -9.628 47.89 -8.296 49.672 -8.296ZM62.561 -7.324C62.705 -7.162 62.651 -7 62.417 -7H61.085C60.959 -7 60.851 -7.036 60.761 -7.144L57.341 -10.87V-7.27C57.341 -7.108 57.233 -7 57.071 -7H56.063C55.901 -7 55.793 -7.108 55.793 -7.27V-18.988C55.793 -19.132 55.865 -19.24 56.009 -19.294L57.035 -19.672C57.215 -19.744 57.341 -19.654 57.341 -19.456V-12.31L60.545 -15.496C60.653 -15.604 60.761 -15.64 60.887 -15.64H62.219C62.453 -15.64 62.525 -15.478 62.363 -15.316L58.691 -11.644L62.561 -7.324ZM72.0007 -19.42C72.1627 -19.33 72.2167 -19.222 72.1627 -19.078L71.8567 -18.196C71.8027 -18.034 71.6767 -17.98 71.4967 -18.07C71.2807 -18.16 71.1547 -18.16 70.9747 -18.16C70.2007 -18.16 69.9307 -17.62 69.9307 -16.882V-15.64H71.4067C71.5687 -15.64 71.6767 -15.532 71.6767 -15.37V-14.506C71.6767 -14.344 71.5687 -14.236 71.4067 -14.236H69.9307V-7.27C69.9307 -7.108 69.8227 -7 69.6607 -7H68.6527C68.4907 -7 68.3827 -7.108 68.3827 -7.27V-14.236H67.6267C67.4647 -14.236 67.3567 -14.344 67.3567 -14.506V-15.37C67.3567 -15.532 67.4647 -15.64 67.6267 -15.64H68.3827V-16.864C68.3827 -18.088 68.6707 -19.708 70.7947 -19.708C71.2267 -19.708 71.6407 -19.618 72.0007 -19.42ZM77.1121 -6.784C74.5201 -6.784 72.6661 -8.71 72.6661 -11.32C72.6661 -13.93 74.5201 -15.856 77.1121 -15.856C79.7041 -15.856 81.5401 -13.93 81.5401 -11.32C81.5401 -8.71 79.7041 -6.784 77.1121 -6.784ZM77.1121 -8.296C78.8761 -8.296 79.9561 -9.628 79.9561 -11.32C79.9561 -13.012 78.8761 -14.344 77.1121 -14.344C75.3301 -14.344 74.2501 -13.012 74.2501 -11.32C74.2501 -9.628 75.3301 -8.296 77.1121 -8.296ZM89.0651 -14.812C89.1191 -14.65 89.0651 -14.524 88.9031 -14.452L84.7811 -12.742V-7.27C84.7811 -7.108 84.6731 -7 84.5111 -7H83.5031C83.3411 -7 83.2331 -7.108 83.2331 -7.27V-15.028C83.2331 -15.172 83.3051 -15.28 83.4491 -15.334L84.4751 -15.712C84.6551 -15.784 84.7811 -15.694 84.7811 -15.496V-14.254L88.3811 -15.748C88.5431 -15.82 88.6691 -15.766 88.7411 -15.604L89.0651 -14.812ZM92.7224 -7C92.5784 -7 92.4704 -7.054 92.4164 -7.216L89.7884 -15.334C89.7344 -15.514 89.8064 -15.64 90.0044 -15.64H91.0304C91.1744 -15.64 91.3004 -15.568 91.3364 -15.424L93.1904 -9.394L94.9904 -15.406C95.0264 -15.55 95.1524 -15.64 95.2964 -15.64H96.3224C96.4664 -15.64 96.5924 -15.55 96.6284 -15.406L98.4284 -9.394L100.282 -15.424C100.318 -15.568 100.444 -15.64 100.588 -15.64H101.578C101.776 -15.64 101.866 -15.532 101.812 -15.334L99.2024 -7.216C99.1484 -7.054 99.0404 -7 98.8964 -7H97.9604C97.8164 -7 97.6904 -7.072 97.6544 -7.216L95.8184 -13.21L93.9644 -7.216C93.9284 -7.072 93.8024 -7 93.6584 -7H92.7224ZM106.891 -6.784C104.155 -6.784 102.571 -8.872 102.571 -11.338C102.571 -14.092 104.623 -15.856 106.981 -15.856C108.169 -15.856 109.267 -15.406 109.825 -14.65V-15.028C109.825 -15.172 109.897 -15.28 110.041 -15.334L111.067 -15.712C111.247 -15.784 111.373 -15.712 111.373 -15.514V-7.27C111.373 -7.108 111.265 -7 111.103 -7H110.095C109.933 -7 109.825 -7.108 109.825 -7.27V-7.972C109.321 -7.342 108.133 -6.784 106.891 -6.784ZM106.999 -8.314C108.601 -8.314 109.843 -9.34 109.843 -11.338C109.843 -13.318 108.601 -14.344 106.999 -14.344C105.469 -14.344 104.155 -13.318 104.155 -11.338C104.155 -9.358 105.469 -8.314 106.999 -8.314ZM119.181 -14.812C119.235 -14.65 119.181 -14.524 119.019 -14.452L114.897 -12.742V-7.27C114.897 -7.108 114.789 -7 114.627 -7H113.619C113.457 -7 113.349 -7.108 113.349 -7.27V-15.028C113.349 -15.172 113.421 -15.28 113.565 -15.334L114.591 -15.712C114.771 -15.784 114.897 -15.694 114.897 -15.496V-14.254L118.497 -15.748C118.659 -15.82 118.785 -15.766 118.857 -15.604L119.181 -14.812ZM123.987 -6.784C121.251 -6.784 119.667 -8.872 119.667 -11.338C119.667 -14.092 121.719 -15.856 124.077 -15.856C125.265 -15.856 126.363 -15.406 126.921 -14.65V-19.006C126.921 -19.15 126.993 -19.258 127.137 -19.312L128.163 -19.69C128.343 -19.762 128.469 -19.69 128.469 -19.492V-7.27C128.469 -7.108 128.361 -7 128.199 -7H127.191C127.029 -7 126.921 -7.108 126.921 -7.27V-7.972C126.417 -7.342 125.229 -6.784 123.987 -6.784ZM124.095 -8.314C125.697 -8.314 126.939 -9.34 126.939 -11.338C126.939 -13.318 125.697 -14.344 124.095 -14.344C122.565 -14.344 121.251 -13.318 121.251 -11.338C121.251 -9.358 122.565 -8.314 124.095 -8.314ZM138.859 -7.414C138.913 -7.27 138.859 -7.126 138.679 -7.036C138.283 -6.856 137.941 -6.784 137.563 -6.784C135.565 -6.784 135.097 -8.08 135.097 -9.628V-14.236H133.963C133.801 -14.236 133.693 -14.344 133.693 -14.506V-15.37C133.693 -15.532 133.801 -15.64 133.963 -15.64H135.097V-17.008C135.097 -17.152 135.169 -17.26 135.313 -17.314L136.339 -17.692C136.519 -17.764 136.645 -17.674 136.645 -17.476V-15.64H138.193C138.355 -15.64 138.463 -15.532 138.463 -15.37V-14.506C138.463 -14.344 138.355 -14.236 138.193 -14.236H136.645V-9.61C136.645 -8.872 136.915 -8.332 137.689 -8.332C137.851 -8.332 138.013 -8.368 138.211 -8.44C138.391 -8.494 138.517 -8.458 138.571 -8.278L138.859 -7.414ZM144.192 -6.784C141.6 -6.784 139.746 -8.71 139.746 -11.32C139.746 -13.93 141.6 -15.856 144.192 -15.856C146.784 -15.856 148.62 -13.93 148.62 -11.32C148.62 -8.71 146.784 -6.784 144.192 -6.784ZM144.192 -8.296C145.956 -8.296 147.036 -9.628 147.036 -11.32C147.036 -13.012 145.956 -14.344 144.192 -14.344C142.41 -14.344 141.33 -13.012 141.33 -11.32C141.33 -9.628 142.41 -8.296 144.192 -8.296ZM158.727 -7.414C158.781 -7.27 158.727 -7.126 158.547 -7.036C158.151 -6.856 157.809 -6.784 157.431 -6.784C155.433 -6.784 154.965 -8.08 154.965 -9.628V-14.236H153.831C153.669 -14.236 153.561 -14.344 153.561 -14.506V-15.37C153.561 -15.532 153.669 -15.64 153.831 -15.64H154.965V-17.008C154.965 -17.152 155.037 -17.26 155.181 -17.314L156.207 -17.692C156.387 -17.764 156.513 -17.674 156.513 -17.476V-15.64H158.061C158.223 -15.64 158.331 -15.532 158.331 -15.37V-14.506C158.331 -14.344 158.223 -14.236 158.061 -14.236H156.513V-9.61C156.513 -8.872 156.783 -8.332 157.557 -8.332C157.719 -8.332 157.881 -8.368 158.079 -8.44C158.259 -8.494 158.385 -8.458 158.439 -8.278L158.727 -7.414ZM163.934 -6.784C161.198 -6.784 159.614 -8.872 159.614 -11.338C159.614 -14.092 161.666 -15.856 164.024 -15.856C165.212 -15.856 166.31 -15.406 166.868 -14.65V-15.028C166.868 -15.172 166.94 -15.28 167.084 -15.334L168.11 -15.712C168.29 -15.784 168.416 -15.712 168.416 -15.514V-7.27C168.416 -7.108 168.308 -7 168.146 -7H167.138C166.976 -7 166.868 -7.108 166.868 -7.27V-7.972C166.364 -7.342 165.176 -6.784 163.934 -6.784ZM164.042 -8.314C165.644 -8.314 166.886 -9.34 166.886 -11.338C166.886 -13.318 165.644 -14.344 164.042 -14.344C162.512 -14.344 161.198 -13.318 161.198 -11.338C161.198 -9.358 162.512 -8.314 164.042 -8.314ZM174.568 -6.784C171.994 -6.784 170.104 -8.71 170.104 -11.32C170.104 -13.93 171.994 -15.856 174.568 -15.856C175.72 -15.856 176.656 -15.55 177.34 -15.046C177.484 -14.938 177.484 -14.812 177.412 -14.668L176.944 -13.858C176.854 -13.696 176.728 -13.66 176.584 -13.75C176.188 -14.002 175.648 -14.344 174.676 -14.344C172.786 -14.344 171.688 -13.012 171.688 -11.32C171.688 -9.628 172.786 -8.296 174.676 -8.296C175.63 -8.296 176.188 -8.602 176.62 -8.872C176.764 -8.944 176.89 -8.908 176.98 -8.764L177.412 -7.972C177.484 -7.828 177.502 -7.72 177.448 -7.666C176.908 -7.234 175.828 -6.784 174.568 -6.784ZM185.945 -7.324C186.089 -7.162 186.035 -7 185.801 -7H184.469C184.343 -7 184.235 -7.036 184.145 -7.144L180.725 -10.87V-7.27C180.725 -7.108 180.617 -7 180.455 -7H179.447C179.285 -7 179.177 -7.108 179.177 -7.27V-18.988C179.177 -19.132 179.249 -19.24 179.393 -19.294L180.419 -19.672C180.599 -19.744 180.725 -19.654 180.725 -19.456V-12.31L183.929 -15.496C184.037 -15.604 184.145 -15.64 184.271 -15.64H185.603C185.837 -15.64 185.909 -15.478 185.747 -15.316L182.075 -11.644L185.945 -7.324ZM187.546 -7C187.384 -7 187.276 -7.108 187.276 -7.27V-18.988C187.276 -19.132 187.348 -19.24 187.492 -19.294L188.518 -19.672C188.698 -19.744 188.824 -19.654 188.824 -19.456V-7.27C188.824 -7.108 188.716 -7 188.554 -7H187.546ZM191.057 -16.63C190.877 -16.576 190.751 -16.648 190.751 -16.846V-18.124C190.751 -18.268 190.823 -18.376 190.967 -18.43L192.101 -18.862C192.281 -18.934 192.407 -18.844 192.407 -18.646V-17.314C192.407 -17.17 192.335 -17.062 192.191 -17.008L191.057 -16.63ZM191.075 -7C190.913 -7 190.805 -7.108 190.805 -7.27V-15.028C190.805 -15.172 190.877 -15.28 191.021 -15.334L192.047 -15.712C192.227 -15.784 192.353 -15.694 192.353 -15.496V-7.27C192.353 -7.108 192.245 -7 192.083 -7H191.075ZM194.604 -7C194.442 -7 194.334 -7.108 194.334 -7.27V-15.028C194.334 -15.172 194.406 -15.28 194.55 -15.334L195.576 -15.712C195.756 -15.784 195.882 -15.694 195.882 -15.496V-14.578C196.548 -15.55 197.574 -15.856 198.51 -15.856C200.454 -15.856 202.002 -14.542 202.002 -11.986V-7.27C202.002 -7.108 201.894 -7 201.732 -7H200.724C200.562 -7 200.454 -7.108 200.454 -7.27V-11.932C200.454 -13.48 199.554 -14.326 198.222 -14.326C196.872 -14.326 195.882 -13.462 195.882 -11.932V-7.27C195.882 -7.108 195.774 -7 195.612 -7H194.604ZM207.853 -3.184C206.575 -3.184 205.297 -3.49 204.055 -4.426C203.929 -4.534 203.911 -4.66 203.983 -4.804L204.505 -5.704C204.595 -5.866 204.721 -5.884 204.883 -5.776C205.729 -5.128 206.773 -4.696 207.871 -4.696C209.797 -4.696 210.841 -5.92 210.841 -7.864V-7.972C210.373 -7.396 209.275 -6.784 207.853 -6.784C205.207 -6.784 203.587 -8.872 203.587 -11.32C203.587 -14.092 205.639 -15.856 207.997 -15.856C209.185 -15.856 210.283 -15.406 210.841 -14.65V-15.028C210.841 -15.172 210.913 -15.28 211.057 -15.334L212.083 -15.712C212.263 -15.784 212.389 -15.712 212.389 -15.514V-8.188C212.389 -4.696 210.625 -3.184 207.853 -3.184ZM208.033 -8.314C209.599 -8.314 210.859 -9.34 210.859 -11.338C210.859 -13.318 209.599 -14.344 208.033 -14.344C206.467 -14.344 205.171 -13.318 205.171 -11.338C205.171 -9.358 206.467 -8.314 208.033 -8.314ZM222.455 -15.856C224.921 -15.856 226.433 -13.912 226.433 -11.752V-11.086C226.433 -10.924 226.325 -10.816 226.163 -10.816H219.665C219.863 -9.412 220.853 -8.296 222.599 -8.296C223.571 -8.296 224.435 -8.638 225.317 -9.286C225.479 -9.394 225.605 -9.376 225.695 -9.232L226.199 -8.476C226.289 -8.35 226.271 -8.206 226.145 -8.098C225.173 -7.234 223.859 -6.784 222.581 -6.784C219.737 -6.784 218.045 -8.674 218.045 -11.266C218.045 -14.11 220.025 -15.856 222.455 -15.856ZM219.719 -12.22H224.795C224.723 -13.336 223.931 -14.344 222.437 -14.344C221.033 -14.344 220.025 -13.534 219.719 -12.22ZM228.39 -7C228.228 -7 228.12 -7.108 228.12 -7.27V-15.028C228.12 -15.172 228.192 -15.28 228.336 -15.334L229.362 -15.712C229.542 -15.784 229.668 -15.694 229.668 -15.496V-14.578C230.334 -15.55 231.36 -15.856 232.296 -15.856C234.24 -15.856 235.788 -14.542 235.788 -11.986V-7.27C235.788 -7.108 235.68 -7 235.518 -7H234.51C234.348 -7 234.24 -7.108 234.24 -7.27V-11.932C234.24 -13.48 233.34 -14.326 232.008 -14.326C230.658 -14.326 229.668 -13.462 229.668 -11.932V-7.27C229.668 -7.108 229.56 -7 229.398 -7H228.39ZM241.782 -15.856C244.248 -15.856 245.76 -13.912 245.76 -11.752V-11.086C245.76 -10.924 245.652 -10.816 245.49 -10.816H238.992C239.19 -9.412 240.18 -8.296 241.926 -8.296C242.898 -8.296 243.762 -8.638 244.644 -9.286C244.806 -9.394 244.932 -9.376 245.022 -9.232L245.526 -8.476C245.616 -8.35 245.598 -8.206 245.472 -8.098C244.5 -7.234 243.186 -6.784 241.908 -6.784C239.064 -6.784 237.372 -8.674 237.372 -11.266C237.372 -14.11 239.352 -15.856 241.782 -15.856ZM239.046 -12.22H244.122C244.05 -13.336 243.258 -14.344 241.764 -14.344C240.36 -14.344 239.352 -13.534 239.046 -12.22ZM253.279 -14.812C253.333 -14.65 253.279 -14.524 253.117 -14.452L248.995 -12.742V-7.27C248.995 -7.108 248.887 -7 248.725 -7H247.717C247.555 -7 247.447 -7.108 247.447 -7.27V-15.028C247.447 -15.172 247.519 -15.28 247.663 -15.334L248.689 -15.712C248.869 -15.784 248.995 -15.694 248.995 -15.496V-14.254L252.595 -15.748C252.757 -15.82 252.883 -15.766 252.955 -15.604L253.279 -14.812ZM258.03 -3.184C256.752 -3.184 255.474 -3.49 254.232 -4.426C254.106 -4.534 254.088 -4.66 254.16 -4.804L254.682 -5.704C254.772 -5.866 254.898 -5.884 255.06 -5.776C255.906 -5.128 256.95 -4.696 258.048 -4.696C259.974 -4.696 261.018 -5.92 261.018 -7.864V-7.972C260.55 -7.396 259.452 -6.784 258.03 -6.784C255.384 -6.784 253.764 -8.872 253.764 -11.32C253.764 -14.092 255.816 -15.856 258.174 -15.856C259.362 -15.856 260.46 -15.406 261.018 -14.65V-15.028C261.018 -15.172 261.09 -15.28 261.234 -15.334L262.26 -15.712C262.44 -15.784 262.566 -15.712 262.566 -15.514V-8.188C262.566 -4.696 260.802 -3.184 258.03 -3.184ZM258.21 -8.314C259.776 -8.314 261.036 -9.34 261.036 -11.338C261.036 -13.318 259.776 -14.344 258.21 -14.344C256.644 -14.344 255.348 -13.318 255.348 -11.338C255.348 -9.358 256.644 -8.314 258.21 -8.314ZM271.886 -15.64C272.084 -15.64 272.174 -15.514 272.102 -15.334L267.08 -3.598C267.026 -3.454 266.918 -3.4 266.774 -3.4H265.64C265.442 -3.4 265.352 -3.526 265.424 -3.706L267.152 -7.756L263.912 -15.334C263.84 -15.514 263.93 -15.64 264.128 -15.64H265.28C265.424 -15.64 265.55 -15.568 265.604 -15.424L267.998 -9.736L270.41 -15.424C270.464 -15.568 270.572 -15.64 270.716 -15.64H271.886ZM281.595 -6.784C279.021 -6.784 277.131 -8.71 277.131 -11.32C277.131 -13.93 279.021 -15.856 281.595 -15.856C282.747 -15.856 283.683 -15.55 284.367 -15.046C284.511 -14.938 284.511 -14.812 284.439 -14.668L283.971 -13.858C283.881 -13.696 283.755 -13.66 283.611 -13.75C283.215 -14.002 282.675 -14.344 281.703 -14.344C279.813 -14.344 278.715 -13.012 278.715 -11.32C278.715 -9.628 279.813 -8.296 281.703 -8.296C282.657 -8.296 283.215 -8.602 283.647 -8.872C283.791 -8.944 283.917 -8.908 284.007 -8.764L284.439 -7.972C284.511 -7.828 284.529 -7.72 284.475 -7.666C283.935 -7.234 282.855 -6.784 281.595 -6.784ZM286.474 -7C286.312 -7 286.204 -7.108 286.204 -7.27V-18.988C286.204 -19.132 286.276 -19.24 286.42 -19.294L287.446 -19.672C287.626 -19.744 287.752 -19.654 287.752 -19.456V-14.578C288.364 -15.478 289.48 -15.856 290.452 -15.856C292.36 -15.856 293.872 -14.542 293.872 -11.986V-7.27C293.872 -7.108 293.764 -7 293.602 -7H292.594C292.432 -7 292.324 -7.108 292.324 -7.27V-11.932C292.324 -13.48 291.424 -14.326 290.092 -14.326C288.742 -14.326 287.752 -13.462 287.752 -11.932V-7.27C287.752 -7.108 287.644 -7 287.482 -7H286.474ZM299.776 -6.784C297.04 -6.784 295.456 -8.872 295.456 -11.338C295.456 -14.092 297.508 -15.856 299.866 -15.856C301.054 -15.856 302.152 -15.406 302.71 -14.65V-15.028C302.71 -15.172 302.782 -15.28 302.926 -15.334L303.952 -15.712C304.132 -15.784 304.258 -15.712 304.258 -15.514V-7.27C304.258 -7.108 304.15 -7 303.988 -7H302.98C302.818 -7 302.71 -7.108 302.71 -7.27V-7.972C302.206 -7.342 301.018 -6.784 299.776 -6.784ZM299.884 -8.314C301.486 -8.314 302.728 -9.34 302.728 -11.338C302.728 -13.318 301.486 -14.344 299.884 -14.344C298.354 -14.344 297.04 -13.318 297.04 -11.338C297.04 -9.358 298.354 -8.314 299.884 -8.314ZM306.504 -7C306.342 -7 306.234 -7.108 306.234 -7.27V-18.988C306.234 -19.132 306.306 -19.24 306.45 -19.294L307.476 -19.672C307.656 -19.744 307.782 -19.654 307.782 -19.456V-7.27C307.782 -7.108 307.674 -7 307.512 -7H306.504ZM310.033 -7C309.871 -7 309.763 -7.108 309.763 -7.27V-18.988C309.763 -19.132 309.835 -19.24 309.979 -19.294L311.005 -19.672C311.185 -19.744 311.311 -19.654 311.311 -19.456V-7.27C311.311 -7.108 311.203 -7 311.041 -7H310.033ZM317.414 -15.856C319.88 -15.856 321.392 -13.912 321.392 -11.752V-11.086C321.392 -10.924 321.284 -10.816 321.122 -10.816H314.624C314.822 -9.412 315.812 -8.296 317.558 -8.296C318.53 -8.296 319.394 -8.638 320.276 -9.286C320.438 -9.394 320.564 -9.376 320.654 -9.232L321.158 -8.476C321.248 -8.35 321.23 -8.206 321.104 -8.098C320.132 -7.234 318.818 -6.784 317.54 -6.784C314.696 -6.784 313.004 -8.674 313.004 -11.266C313.004 -14.11 314.984 -15.856 317.414 -15.856ZM314.678 -12.22H319.754C319.682 -13.336 318.89 -14.344 317.396 -14.344C315.992 -14.344 314.984 -13.534 314.678 -12.22ZM323.349 -7C323.187 -7 323.079 -7.108 323.079 -7.27V-15.028C323.079 -15.172 323.151 -15.28 323.295 -15.334L324.321 -15.712C324.501 -15.784 324.627 -15.694 324.627 -15.496V-14.578C325.293 -15.55 326.319 -15.856 327.255 -15.856C329.199 -15.856 330.747 -14.542 330.747 -11.986V-7.27C330.747 -7.108 330.639 -7 330.477 -7H329.469C329.307 -7 329.199 -7.108 329.199 -7.27V-11.932C329.199 -13.48 328.299 -14.326 326.967 -14.326C325.617 -14.326 324.627 -13.462 324.627 -11.932V-7.27C324.627 -7.108 324.519 -7 324.357 -7H323.349ZM336.598 -3.184C335.32 -3.184 334.042 -3.49 332.8 -4.426C332.674 -4.534 332.656 -4.66 332.728 -4.804L333.25 -5.704C333.34 -5.866 333.466 -5.884 333.628 -5.776C334.474 -5.128 335.518 -4.696 336.616 -4.696C338.542 -4.696 339.586 -5.92 339.586 -7.864V-7.972C339.118 -7.396 338.02 -6.784 336.598 -6.784C333.952 -6.784 332.332 -8.872 332.332 -11.32C332.332 -14.092 334.384 -15.856 336.742 -15.856C337.93 -15.856 339.028 -15.406 339.586 -14.65V-15.028C339.586 -15.172 339.658 -15.28 339.802 -15.334L340.828 -15.712C341.008 -15.784 341.134 -15.712 341.134 -15.514V-8.188C341.134 -4.696 339.37 -3.184 336.598 -3.184ZM336.778 -8.314C338.344 -8.314 339.604 -9.34 339.604 -11.338C339.604 -13.318 338.344 -14.344 336.778 -14.344C335.212 -14.344 333.916 -13.318 333.916 -11.338C333.916 -9.358 335.212 -8.314 336.778 -8.314ZM347.232 -15.856C349.698 -15.856 351.21 -13.912 351.21 -11.752V-11.086C351.21 -10.924 351.102 -10.816 350.94 -10.816H344.442C344.64 -9.412 345.63 -8.296 347.376 -8.296C348.348 -8.296 349.212 -8.638 350.094 -9.286C350.256 -9.394 350.382 -9.376 350.472 -9.232L350.976 -8.476C351.066 -8.35 351.048 -8.206 350.922 -8.098C349.95 -7.234 348.636 -6.784 347.358 -6.784C344.514 -6.784 342.822 -8.674 342.822 -11.266C342.822 -14.11 344.802 -15.856 347.232 -15.856ZM344.496 -12.22H349.572C349.5 -13.336 348.708 -14.344 347.214 -14.344C345.81 -14.344 344.802 -13.534 344.496 -12.22ZM355.92 -6.784C354.642 -6.784 353.346 -7.198 352.572 -8.098C352.464 -8.206 352.482 -8.35 352.572 -8.476L353.148 -9.214C353.256 -9.358 353.382 -9.358 353.526 -9.25C354.066 -8.782 354.786 -8.296 355.956 -8.296C357.072 -8.296 357.684 -8.656 357.684 -9.358C357.684 -10.078 357.054 -10.366 355.884 -10.654C354.426 -11.014 352.824 -11.446 352.824 -13.21C352.824 -14.758 354.048 -15.856 355.974 -15.856C357.216 -15.856 358.098 -15.424 358.674 -14.956C358.8 -14.83 358.8 -14.722 358.692 -14.578L358.116 -13.858C358.008 -13.732 357.882 -13.696 357.738 -13.804C357.324 -14.092 356.748 -14.344 356.01 -14.344C355.128 -14.344 354.372 -14.002 354.372 -13.3C354.372 -12.652 355.02 -12.4 356.244 -12.112C358.026 -11.698 359.196 -11.032 359.196 -9.466C359.196 -7.27 357.234 -6.784 355.92 -6.784ZM5.526 14.586C5.58 14.73 5.526 14.874 5.346 14.964C4.95 15.144 4.608 15.216 4.23 15.216C2.232 15.216 1.764 13.92 1.764 12.372V7.764H0.63C0.468 7.764 0.36 7.656 0.36 7.494V6.63C0.36 6.468 0.468 6.36 0.63 6.36H1.764V4.992C1.764 4.848 1.836 4.74 1.98 4.686L3.006 4.308C3.186 4.236 3.312 4.326 3.312 4.524V6.36H4.86C5.022 6.36 5.13 6.468 5.13 6.63V7.494C5.13 7.656 5.022 7.764 4.86 7.764H3.312V12.39C3.312 13.128 3.582 13.668 4.356 13.668C4.518 13.668 4.68 13.632 4.878 13.56C5.058 13.506 5.184 13.542 5.238 13.722L5.526 14.586ZM10.8588 15.216C8.26678 15.216 6.41278 13.29 6.41278 10.68C6.41278 8.07 8.26678 6.144 10.8588 6.144C13.4508 6.144 15.2868 8.07 15.2868 10.68C15.2868 13.29 13.4508 15.216 10.8588 15.216ZM10.8588 13.704C12.6228 13.704 13.7028 12.372 13.7028 10.68C13.7028 8.988 12.6228 7.656 10.8588 7.656C9.07678 7.656 7.99678 8.988 7.99678 10.68C7.99678 12.372 9.07678 13.704 10.8588 13.704ZM20.9578 18.816C19.6798 18.816 18.4018 18.51 17.1598 17.574C17.0338 17.466 17.0158 17.34 17.0878 17.196L17.6098 16.296C17.6998 16.134 17.8258 16.116 17.9878 16.224C18.8338 16.872 19.8778 17.304 20.9758 17.304C22.9018 17.304 23.9458 16.08 23.9458 14.136V14.028C23.4778 14.604 22.3798 15.216 20.9578 15.216C18.3118 15.216 16.6918 13.128 16.6918 10.68C16.6918 7.908 18.7438 6.144 21.1018 6.144C22.2898 6.144 23.3878 6.594 23.9458 7.35V6.972C23.9458 6.828 24.0178 6.72 24.1618 6.666L25.1878 6.288C25.3678 6.216 25.4938 6.288 25.4938 6.486V13.812C25.4938 17.304 23.7298 18.816 20.9578 18.816ZM21.1378 13.686C22.7038 13.686 23.9638 12.66 23.9638 10.662C23.9638 8.682 22.7038 7.656 21.1378 7.656C19.5718 7.656 18.2758 8.682 18.2758 10.662C18.2758 12.642 19.5718 13.686 21.1378 13.686ZM31.5917 6.144C34.0577 6.144 35.5697 8.088 35.5697 10.248V10.914C35.5697 11.076 35.4617 11.184 35.2997 11.184H28.8017C28.9997 12.588 29.9897 13.704 31.7357 13.704C32.7077 13.704 33.5717 13.362 34.4537 12.714C34.6157 12.606 34.7417 12.624 34.8317 12.768L35.3357 13.524C35.4257 13.65 35.4077 13.794 35.2817 13.902C34.3097 14.766 32.9957 15.216 31.7177 15.216C28.8737 15.216 27.1817 13.326 27.1817 10.734C27.1817 7.89 29.1617 6.144 31.5917 6.144ZM28.8557 9.78H33.9317C33.8597 8.664 33.0677 7.656 31.5737 7.656C30.1697 7.656 29.1617 8.466 28.8557 9.78ZM41.5619 14.586C41.6159 14.73 41.5619 14.874 41.3819 14.964C40.9859 15.144 40.6439 15.216 40.2659 15.216C38.2679 15.216 37.7999 13.92 37.7999 12.372V7.764H36.6659C36.5039 7.764 36.3959 7.656 36.3959 7.494V6.63C36.3959 6.468 36.5039 6.36 36.6659 6.36H37.7999V4.992C37.7999 4.848 37.8719 4.74 38.0159 4.686L39.0419 4.308C39.2219 4.236 39.3479 4.326 39.3479 4.524V6.36H40.8959C41.0579 6.36 41.1659 6.468 41.1659 6.63V7.494C41.1659 7.656 41.0579 7.764 40.8959 7.764H39.3479V12.39C39.3479 13.128 39.6179 13.668 40.3919 13.668C40.5539 13.668 40.7159 13.632 40.9139 13.56C41.0939 13.506 41.2199 13.542 41.2739 13.722L41.5619 14.586ZM43.323 15C43.161 15 43.053 14.892 43.053 14.73V3.012C43.053 2.868 43.125 2.76 43.269 2.706L44.295 2.328C44.475 2.256 44.601 2.346 44.601 2.544V7.422C45.213 6.522 46.329 6.144 47.301 6.144C49.209 6.144 50.721 7.458 50.721 10.014V14.73C50.721 14.892 50.613 15 50.451 15H49.443C49.281 15 49.173 14.892 49.173 14.73V10.068C49.173 8.52 48.273 7.674 46.941 7.674C45.591 7.674 44.601 8.538 44.601 10.068V14.73C44.601 14.892 44.493 15 44.331 15H43.323ZM56.7157 6.144C59.1817 6.144 60.6937 8.088 60.6937 10.248V10.914C60.6937 11.076 60.5857 11.184 60.4237 11.184H53.9257C54.1237 12.588 55.1137 13.704 56.8597 13.704C57.8317 13.704 58.6957 13.362 59.5777 12.714C59.7397 12.606 59.8657 12.624 59.9557 12.768L60.4597 13.524C60.5497 13.65 60.5317 13.794 60.4057 13.902C59.4337 14.766 58.1197 15.216 56.8417 15.216C53.9977 15.216 52.3057 13.326 52.3057 10.734C52.3057 7.89 54.2857 6.144 56.7157 6.144ZM53.9797 9.78H59.0557C58.9837 8.664 58.1917 7.656 56.6977 7.656C55.2937 7.656 54.2857 8.466 53.9797 9.78ZM68.2125 7.188C68.2665 7.35 68.2125 7.476 68.0505 7.548L63.9285 9.258V14.73C63.9285 14.892 63.8205 15 63.6585 15H62.6505C62.4885 15 62.3805 14.892 62.3805 14.73V6.972C62.3805 6.828 62.4525 6.72 62.5965 6.666L63.6225 6.288C63.8025 6.216 63.9285 6.306 63.9285 6.504V7.746L67.5285 6.252C67.6905 6.18 67.8165 6.234 67.8885 6.396L68.2125 7.188ZM77.5662 15.216C74.8302 15.216 73.2462 13.128 73.2462 10.662C73.2462 7.908 75.2982 6.144 77.6562 6.144C78.8442 6.144 79.9422 6.594 80.5002 7.35V6.972C80.5002 6.828 80.5722 6.72 80.7162 6.666L81.7422 6.288C81.9222 6.216 82.0482 6.288 82.0482 6.486V14.73C82.0482 14.892 81.9402 15 81.7782 15H80.7702C80.6082 15 80.5002 14.892 80.5002 14.73V14.028C79.9962 14.658 78.8082 15.216 77.5662 15.216ZM77.6742 13.686C79.2762 13.686 80.5182 12.66 80.5182 10.662C80.5182 8.682 79.2762 7.656 77.6742 7.656C76.1442 7.656 74.8302 8.682 74.8302 10.662C74.8302 12.642 76.1442 13.686 77.6742 13.686ZM88.4701 14.586C88.5241 14.73 88.4701 14.874 88.2901 14.964C87.8941 15.144 87.5521 15.216 87.1741 15.216C85.1761 15.216 84.7081 13.92 84.7081 12.372V7.764H83.5741C83.4121 7.764 83.3041 7.656 83.3041 7.494V6.63C83.3041 6.468 83.4121 6.36 83.5741 6.36H84.7081V4.992C84.7081 4.848 84.7801 4.74 84.9241 4.686L85.9501 4.308C86.1301 4.236 86.2561 4.326 86.2561 4.524V6.36H87.8041C87.9661 6.36 88.0741 6.468 88.0741 6.63V7.494C88.0741 7.656 87.9661 7.764 87.8041 7.764H86.2561V12.39C86.2561 13.128 86.5261 13.668 87.3001 13.668C87.4621 13.668 87.6241 13.632 87.8221 13.56C88.0021 13.506 88.1281 13.542 88.1821 13.722L88.4701 14.586ZM99.9058 15.216C96.3958 15.216 93.7498 12.624 93.7498 8.7C93.7498 4.776 96.3958 2.184 99.9058 2.184C101.958 2.184 103.506 2.994 104.658 4.344C104.766 4.488 104.748 4.632 104.622 4.74L103.776 5.442C103.632 5.568 103.506 5.55 103.398 5.406C102.678 4.542 101.526 3.768 99.9058 3.768C97.2958 3.768 95.4058 5.874 95.4058 8.7C95.4058 11.526 97.2958 13.632 99.9058 13.632C101.526 13.632 102.678 12.858 103.398 11.994C103.506 11.85 103.632 11.832 103.776 11.958L104.604 12.642C104.73 12.75 104.748 12.894 104.658 13.002C103.524 14.388 101.976 15.216 99.9058 15.216ZM114.308 3.948H108.224V7.584H112.886C113.048 7.584 113.156 7.692 113.156 7.854V8.862C113.156 9.024 113.048 9.132 112.886 9.132H108.224V13.452H114.308C114.47 13.452 114.578 13.56 114.578 13.722V14.73C114.578 14.892 114.47 15 114.308 15H106.874C106.712 15 106.604 14.892 106.604 14.73V2.67C106.604 2.508 106.712 2.4 106.874 2.4H114.308C114.47 2.4 114.578 2.508 114.578 2.67V3.678C114.578 3.84 114.47 3.948 114.308 3.948ZM116.678 15C116.516 15 116.408 14.892 116.408 14.73V2.67C116.408 2.508 116.516 2.4 116.678 2.4H120.854C123.932 2.4 124.652 4.488 124.652 5.982C124.652 7.224 124.148 8.88 122.204 9.402L124.58 14.676C124.67 14.874 124.58 15 124.382 15H123.176C123.032 15 122.924 14.946 122.87 14.802L120.566 9.564H118.028V14.73C118.028 14.892 117.92 15 117.758 15H116.678ZM118.028 8.016H120.602C122.474 8.016 122.978 7.098 122.978 5.982C122.978 4.866 122.474 3.948 120.602 3.948H118.028V8.016ZM137.562 14.694C137.634 14.874 137.544 15 137.346 15H136.14C135.996 15 135.87 14.928 135.816 14.784L134.61 11.832H128.76L127.554 14.784C127.5 14.928 127.374 15 127.23 15H126.024C125.826 15 125.736 14.874 125.808 14.694L130.884 2.616C130.938 2.472 131.064 2.4 131.208 2.4H132.162C132.306 2.4 132.432 2.472 132.486 2.616L137.562 14.694ZM129.408 10.284H133.98L131.694 4.704L129.408 10.284ZM140.736 15C140.592 15 140.484 14.946 140.43 14.784L136.668 2.706C136.614 2.508 136.704 2.4 136.902 2.4H138.108C138.252 2.4 138.378 2.49 138.414 2.634L141.348 12.462L144.282 2.634C144.318 2.49 144.444 2.4 144.588 2.4H145.956C146.1 2.4 146.226 2.49 146.262 2.634L149.196 12.462L152.13 2.634C152.166 2.49 152.292 2.4 152.436 2.4H153.642C153.84 2.4 153.93 2.508 153.876 2.706L150.114 14.784C150.06 14.946 149.952 15 149.808 15H148.584C148.44 15 148.314 14.91 148.278 14.766L145.272 4.866L142.266 14.766C142.23 14.91 142.104 15 141.96 15H140.736ZM158.183 6.144C160.649 6.144 162.161 8.088 162.161 10.248V10.914C162.161 11.076 162.053 11.184 161.891 11.184H155.393C155.591 12.588 156.581 13.704 158.327 13.704C159.299 13.704 160.163 13.362 161.045 12.714C161.207 12.606 161.333 12.624 161.423 12.768L161.927 13.524C162.017 13.65 161.999 13.794 161.873 13.902C160.901 14.766 159.587 15.216 158.309 15.216C155.465 15.216 153.773 13.326 153.773 10.734C153.773 7.89 155.753 6.144 158.183 6.144ZM155.447 9.78H160.523C160.451 8.664 159.659 7.656 158.165 7.656C156.761 7.656 155.753 8.466 155.447 9.78ZM167.97 6.144C170.436 6.144 171.948 8.088 171.948 10.248V10.914C171.948 11.076 171.84 11.184 171.678 11.184H165.18C165.378 12.588 166.368 13.704 168.114 13.704C169.086 13.704 169.95 13.362 170.832 12.714C170.994 12.606 171.12 12.624 171.21 12.768L171.714 13.524C171.804 13.65 171.786 13.794 171.66 13.902C170.688 14.766 169.374 15.216 168.096 15.216C165.252 15.216 163.56 13.326 163.56 10.734C163.56 7.89 165.54 6.144 167.97 6.144ZM165.234 9.78H170.31C170.238 8.664 169.446 7.656 167.952 7.656C166.548 7.656 165.54 8.466 165.234 9.78ZM180.403 14.676C180.547 14.838 180.493 15 180.259 15H178.927C178.801 15 178.693 14.964 178.603 14.856L175.183 11.13V14.73C175.183 14.892 175.075 15 174.913 15H173.905C173.743 15 173.635 14.892 173.635 14.73V3.012C173.635 2.868 173.707 2.76 173.851 2.706L174.877 2.328C175.057 2.256 175.183 2.346 175.183 2.544V9.69L178.387 6.504C178.495 6.396 178.603 6.36 178.729 6.36H180.061C180.295 6.36 180.367 6.522 180.205 6.684L176.533 10.356L180.403 14.676ZM185.882 15C185.72 15 185.612 14.892 185.612 14.73V14.1C185.612 13.974 185.648 13.866 185.756 13.776C188.15 11.598 191.912 8.736 191.912 5.838C191.912 4.542 191.012 3.768 189.734 3.768C188.456 3.768 187.448 4.578 187.268 6.036C187.25 6.198 187.16 6.288 186.998 6.288H185.9C185.72 6.288 185.612 6.18 185.63 6C185.9 3.642 187.52 2.184 189.734 2.184C192.2 2.184 193.568 3.714 193.568 5.838C193.568 8.934 190.796 11.382 188.42 13.452H193.568C193.766 13.452 193.856 13.56 193.784 13.758L193.406 14.784C193.352 14.946 193.244 15 193.1 15H185.882ZM200.369 15.216C197.381 15.216 195.239 12.624 195.239 8.7C195.239 4.776 197.381 2.184 200.369 2.184C203.375 2.184 205.481 4.776 205.481 8.7C205.481 12.624 203.375 15.216 200.369 15.216ZM200.369 13.632C202.457 13.632 203.825 11.706 203.825 8.7C203.825 5.694 202.457 3.768 200.369 3.768C198.281 3.768 196.895 5.694 196.895 8.7C196.895 11.706 198.281 13.632 200.369 13.632ZM207.249 15C207.087 15 206.979 14.892 206.979 14.73V14.1C206.979 13.974 207.015 13.866 207.123 13.776C209.517 11.598 213.279 8.736 213.279 5.838C213.279 4.542 212.379 3.768 211.101 3.768C209.823 3.768 208.815 4.578 208.635 6.036C208.617 6.198 208.527 6.288 208.365 6.288H207.267C207.087 6.288 206.979 6.18 206.997 6C207.267 3.642 208.887 2.184 211.101 2.184C213.567 2.184 214.935 3.714 214.935 5.838C214.935 8.934 212.163 11.382 209.787 13.452H214.935C215.133 13.452 215.223 13.56 215.151 13.758L214.773 14.784C214.719 14.946 214.611 15 214.467 15H207.249ZM221.177 15.216C218.783 15.216 216.605 13.614 216.605 9.132C216.605 4.794 218.639 2.184 221.807 2.184C222.635 2.184 223.625 2.364 224.525 2.922C224.669 2.994 224.705 3.138 224.651 3.282L224.273 4.344C224.219 4.524 224.075 4.56 223.895 4.452C223.031 3.93 222.365 3.84 221.771 3.84C220.331 3.84 218.603 4.812 218.351 8.142C219.197 6.864 220.511 6.36 221.573 6.36C223.409 6.36 225.587 7.782 225.587 10.77C225.587 13.578 223.481 15.216 221.177 15.216ZM221.195 13.632C222.905 13.632 223.931 12.354 223.931 10.806C223.931 9.312 222.905 7.998 221.195 7.998C219.485 7.998 218.459 9.312 218.459 10.806C218.459 12.354 219.485 13.632 221.195 13.632ZM226.856 15C226.694 15 226.586 14.892 226.586 14.73V13.614C226.586 13.452 226.694 13.344 226.856 13.344H227.972C228.134 13.344 228.242 13.452 228.242 13.614V14.73C228.242 14.892 228.134 15 227.972 15H226.856Z" fill="#243746"/>
</g>
<defs>
<clipPath id="clip0_15_134">
<rect width="394" height="21" fill="white"/>
</clipPath>
</defs>
</svg>
