<svg width="101" height="12" viewBox="0 0 101 12" fill="none" xmlns="http://www.w3.org/2000/svg">
<path d="M7.35542 0.132526C7.55422 0.132526 7.67018 0.24849 7.67018 0.430719V1.78915C7.67018 1.97138 7.55422 2.08735 7.35542 2.08735H2.13705V5.4006H6.04669C6.24548 5.4006 6.36145 5.51656 6.36145 5.69879V7.05723C6.36145 7.23945 6.24548 7.35542 6.04669 7.35542H2.13705V11.4307C2.13705 11.6129 2.03765 11.7289 1.83885 11.7289H0.314758C0.115963 11.7289 -6.82063e-07 11.6129 -6.82063e-07 11.4307V0.430719C-6.82063e-07 0.24849 0.115963 0.132526 0.314758 0.132526H7.35542ZM9.38246 3.21385C9.1671 3.28012 9.018 3.18072 9.018 2.96536V1.49096C9.018 1.3253 9.10083 1.20933 9.2665 1.14307L10.7575 0.612948C10.9728 0.530116 11.1054 0.646081 11.1054 0.861442V2.36897C11.1054 2.53464 11.0391 2.6506 10.8569 2.71686L9.38246 3.21385ZM9.38246 11.7289C9.20023 11.7289 9.08427 11.6129 9.08427 11.4307V4.52259C9.08427 4.35692 9.1671 4.24096 9.33276 4.17469L10.6912 3.71084C10.9066 3.62801 11.0391 3.74397 11.0391 3.95933V11.4307C11.0391 11.6129 10.9231 11.7289 10.7243 11.7289H9.38246ZM12.9705 11.7289C12.7717 11.7289 12.6557 11.6129 12.6557 11.4307V4.52259C12.6557 4.35692 12.7386 4.24096 12.9042 4.17469L14.2626 3.71084C14.478 3.62801 14.6105 3.74397 14.6105 3.95933V4.75451C15.1738 3.95933 16.0518 3.57831 17.0955 3.57831C18.7852 3.57831 20.2431 4.78765 20.2431 7.14006V11.4307C20.2431 11.6129 20.1437 11.7289 19.9449 11.7289H18.603C18.4042 11.7289 18.2883 11.6129 18.2883 11.4307V7.37198C18.2883 6.12951 17.5759 5.4503 16.4991 5.4503C15.4057 5.4503 14.6105 6.14608 14.6105 7.37198V11.4307C14.6105 11.6129 14.5111 11.7289 14.3123 11.7289H12.9705ZM25.4875 11.9277C22.9363 11.9277 21.5613 10.006 21.5613 7.75301C21.5613 5.2018 23.3007 3.57831 25.504 3.57831C26.6471 3.57831 27.5748 4.04217 28.0055 4.63855V0.927707C28.0055 0.762044 28.1049 0.646081 28.254 0.579815L29.6125 0.0662608C29.8278 -3.41277e-06 29.9603 0.0828278 29.9603 0.314756V11.4307C29.9603 11.6129 29.861 11.7289 29.6622 11.7289H28.3203C28.1215 11.7289 28.0055 11.6129 28.0055 11.4307V10.884C27.5748 11.4307 26.6471 11.9277 25.4875 11.9277ZM25.7857 10.122C27.0778 10.122 28.0221 9.29367 28.0221 7.75301C28.0221 6.19578 27.0778 5.38403 25.7857 5.38403C24.5266 5.38403 23.5658 6.19578 23.5658 7.75301C23.5658 9.27711 24.5266 10.122 25.7857 10.122ZM39.221 11.9277C36.7526 11.9277 35.0298 10.1551 35.0298 7.75301C35.0298 5.3509 36.7526 3.57831 39.221 3.57831C41.6894 3.57831 43.4123 5.3509 43.4123 7.75301C43.4123 10.1551 41.6894 11.9277 39.221 11.9277ZM39.221 10.0723C40.6126 10.0723 41.3912 9.06174 41.3912 7.75301C41.3912 6.44427 40.6126 5.43373 39.221 5.43373C37.8295 5.43373 37.0508 6.44427 37.0508 7.75301C37.0508 9.06174 37.8295 10.0723 39.221 10.0723ZM47.8826 11.9277C46.1928 11.9277 44.735 10.7184 44.735 8.36596V4.55572C44.735 4.37349 44.8178 4.25753 44.9835 4.19126L46.3419 3.71084C46.5407 3.62801 46.6898 3.74397 46.6898 3.95933V8.13403C46.6898 9.3765 47.4187 10.0557 48.4955 10.0557C49.5723 10.0557 50.3675 9.35994 50.3675 8.13403V4.55572C50.3675 4.37349 50.4504 4.25753 50.616 4.19126L51.9745 3.71084C52.1733 3.62801 52.3224 3.74397 52.3224 3.95933V11.4307C52.3224 11.6129 52.2064 11.7289 52.0076 11.7289H50.6657C50.4835 11.7289 50.3675 11.6129 50.3675 11.4307V10.7515C49.8043 11.5467 48.9263 11.9277 47.8826 11.9277ZM58.627 11.2154C58.6767 11.381 58.6435 11.5136 58.4779 11.5964C58.0472 11.8117 57.6496 11.9277 57.0366 11.9277C55.1978 11.9277 54.5351 10.7349 54.5351 9.31024V5.53313H53.6571C53.4583 5.53313 53.3589 5.41717 53.3589 5.21837V4.0753C53.3589 3.89307 53.4583 3.7771 53.6571 3.7771H54.5351V2.7003C54.5351 2.53464 54.6014 2.41867 54.767 2.35241L56.1255 1.85542C56.3408 1.77259 56.4899 1.88855 56.4899 2.10391V3.7771H57.8649C58.0637 3.7771 58.1631 3.89307 58.1631 4.0753V5.21837C58.1631 5.41717 58.0637 5.53313 57.8649 5.53313H56.4899V9.01204C56.4899 9.60843 56.6556 10.0392 57.3017 10.0392C57.5005 10.0392 57.6661 9.98945 57.8815 9.90662C58.0803 9.80723 58.2128 9.85692 58.2791 10.0723L58.627 11.2154ZM63.8393 11.7289C63.6405 11.7289 63.5245 11.6129 63.5245 11.4307V4.52259C63.5245 4.35692 63.6073 4.24096 63.773 4.17469L65.1314 3.71084C65.3468 3.62801 65.4793 3.74397 65.4793 3.95933V4.63855C65.8107 4.10843 66.7218 3.57831 67.7323 3.57831C68.7429 3.57831 69.5049 4.09186 69.8694 4.82078C70.3829 3.9759 71.3107 3.57831 72.2881 3.57831C73.8122 3.57831 75.2203 4.62198 75.2203 6.97439V11.4307C75.2203 11.6129 75.1043 11.7289 74.9055 11.7289H73.5637C73.3649 11.7289 73.2655 11.6129 73.2655 11.4307V7.15662C73.2655 6.04668 72.7188 5.4503 71.8573 5.4503C70.9793 5.4503 70.3498 6.03012 70.3498 7.15662V11.4307C70.3498 11.6129 70.2504 11.7289 70.0516 11.7289H68.7097C68.511 11.7289 68.395 11.6129 68.395 11.4307V7.15662C68.395 5.99698 67.8814 5.4503 66.9869 5.4503C66.1917 5.4503 65.4793 6.04668 65.4793 7.15662V11.4307C65.4793 11.6129 65.3799 11.7289 65.1811 11.7289H63.8393ZM80.7305 11.9277C78.2621 11.9277 76.5393 10.1551 76.5393 7.75301C76.5393 5.3509 78.2621 3.57831 80.7305 3.57831C83.1989 3.57831 84.9218 5.3509 84.9218 7.75301C84.9218 10.1551 83.1989 11.9277 80.7305 11.9277ZM80.7305 10.0723C82.1221 10.0723 82.9007 9.06174 82.9007 7.75301C82.9007 6.44427 82.1221 5.43373 80.7305 5.43373C79.3389 5.43373 78.5603 6.44427 78.5603 7.75301C78.5603 9.06174 79.3389 10.0723 80.7305 10.0723ZM92.3409 4.90361C92.4071 5.08584 92.3574 5.23494 92.1752 5.3012L88.2987 6.89156V11.4307C88.2987 11.6129 88.1993 11.7289 88.0005 11.7289H86.6586C86.4599 11.7289 86.3439 11.6129 86.3439 11.4307V4.52259C86.3439 4.35692 86.4267 4.24096 86.5924 4.17469L87.9508 3.71084C88.1662 3.62801 88.2987 3.74397 88.2987 3.95933V5.03614L91.496 3.69427C91.6948 3.62801 91.8273 3.67771 91.9102 3.85994L92.3409 4.90361ZM96.915 3.57831C99.2508 3.57831 100.642 5.4006 100.642 7.35542V8.0512C100.642 8.25 100.526 8.34939 100.328 8.34939H94.7282C94.9436 9.35994 95.7388 10.1386 97.0475 10.1386C97.9255 10.1386 98.6544 9.85692 99.284 9.45933C99.4662 9.35994 99.6153 9.39307 99.6981 9.5753L100.228 10.5361C100.311 10.7018 100.294 10.8509 100.179 10.9337C99.3502 11.5632 98.3397 11.9277 97.0309 11.9277C94.3803 11.9277 92.8065 10.1717 92.8065 7.80271C92.8065 5.23494 94.6454 3.57831 96.915 3.57831ZM94.7779 6.90813H98.8035C98.6876 6.07982 98.0746 5.36747 96.915 5.36747C95.8382 5.36747 95.043 5.94729 94.7779 6.90813Z" fill="#243746"/>
</svg>
