<svg width="204" height="13" viewBox="0 0 204 13" fill="none" xmlns="http://www.w3.org/2000/svg">
<path d="M2.95136 12.6966C2.80736 12.6966 2.69936 12.6426 2.64536 12.4806L0.0173571 4.36263C-0.0366428 4.18263 0.0353571 4.05663 0.233357 4.05663H1.25936C1.40336 4.05663 1.52936 4.12863 1.56536 4.27263L3.41936 10.3026L5.21936 4.29063C5.25536 4.14663 5.38136 4.05663 5.52536 4.05663H6.55136C6.69536 4.05663 6.82136 4.14663 6.85736 4.29063L8.65736 10.3026L10.5114 4.27263C10.5474 4.12863 10.6734 4.05663 10.8174 4.05663H11.8074C12.0054 4.05663 12.0954 4.16463 12.0414 4.36263L9.43136 12.4806C9.37736 12.6426 9.26936 12.6966 9.12536 12.6966H8.18936C8.04536 12.6966 7.91936 12.6246 7.88336 12.4806L6.04736 6.48663L4.19336 12.4806C4.15736 12.6246 4.03136 12.6966 3.88736 12.6966H2.95136Z" fill="#243746"/>
<path d="M13.6573 12.6966C13.4953 12.6966 13.3873 12.5886 13.3873 12.4266V0.708628C13.3873 0.564628 13.4593 0.456628 13.6033 0.402628L14.6293 0.0246278C14.8093 -0.0473713 14.9353 0.0426278 14.9353 0.240627V5.11863C15.5473 4.21863 16.6633 3.84063 17.6353 3.84063C19.5433 3.84063 21.0553 5.15463 21.0553 7.71063V12.4266C21.0553 12.5886 20.9473 12.6966 20.7853 12.6966H19.7773C19.6153 12.6966 19.5073 12.5886 19.5073 12.4266V7.76463C19.5073 6.21663 18.6073 5.37063 17.2753 5.37063C15.9253 5.37063 14.9353 6.23463 14.9353 7.76463V12.4266C14.9353 12.5886 14.8273 12.6966 14.6653 12.6966H13.6573Z" fill="#243746"/>
<path d="M26.96 12.9126C24.224 12.9126 22.64 10.8246 22.64 8.35863C22.64 5.60463 24.692 3.84063 27.05 3.84063C28.238 3.84063 29.336 4.29063 29.894 5.04663V4.66863C29.894 4.52463 29.966 4.41663 30.11 4.36263L31.136 3.98463C31.316 3.91263 31.442 3.98463 31.442 4.18263V12.4266C31.442 12.5886 31.334 12.6966 31.172 12.6966H30.164C30.002 12.6966 29.894 12.5886 29.894 12.4266V11.7246C29.39 12.3546 28.202 12.9126 26.96 12.9126ZM27.068 11.3826C28.67 11.3826 29.912 10.3566 29.912 8.35863C29.912 6.37863 28.67 5.35263 27.068 5.35263C25.538 5.35263 24.224 6.37863 24.224 8.35863C24.224 10.3386 25.538 11.3826 27.068 11.3826Z" fill="#243746"/>
<path d="M37.8639 12.2826C37.9179 12.4266 37.8639 12.5706 37.6839 12.6606C37.2879 12.8406 36.9459 12.9126 36.5679 12.9126C34.5699 12.9126 34.1019 11.6166 34.1019 10.0686V5.46063H32.9679C32.8059 5.46063 32.6979 5.35263 32.6979 5.19063V4.32663C32.6979 4.16463 32.8059 4.05663 32.9679 4.05663H34.1019V2.68863C34.1019 2.54463 34.1739 2.43663 34.3179 2.38263L35.3439 2.00463C35.5239 1.93263 35.6499 2.02263 35.6499 2.22063V4.05663H37.1979C37.3599 4.05663 37.4679 4.16463 37.4679 4.32663V5.19063C37.4679 5.35263 37.3599 5.46063 37.1979 5.46063H35.6499V10.0866C35.6499 10.8246 35.9199 11.3646 36.6939 11.3646C36.8559 11.3646 37.0179 11.3286 37.2159 11.2566C37.3959 11.2026 37.5219 11.2386 37.5759 11.4186L37.8639 12.2826Z" fill="#243746"/>
<path d="M43.1607 3.84063C45.6267 3.84063 47.1387 5.78463 47.1387 7.94463V8.61063C47.1387 8.77263 47.0307 8.88063 46.8687 8.88063H40.3707C40.5687 10.2846 41.5587 11.4006 43.3047 11.4006C44.2767 11.4006 45.1407 11.0586 46.0227 10.4106C46.1847 10.3026 46.3107 10.3206 46.4007 10.4646L46.9047 11.2206C46.9947 11.3466 46.9767 11.4906 46.8507 11.5986C45.8787 12.4626 44.5647 12.9126 43.2867 12.9126C40.4427 12.9126 38.7507 11.0226 38.7507 8.43063C38.7507 5.58663 40.7307 3.84063 43.1607 3.84063ZM40.4247 7.47663H45.5007C45.4287 6.36063 44.6367 5.35263 43.1427 5.35263C41.7387 5.35263 40.7307 6.16263 40.4247 7.47663Z" fill="#243746"/>
<path d="M51.4996 12.6966C51.3556 12.6966 51.2296 12.6246 51.1756 12.4806L47.7736 4.36263C47.7016 4.18263 47.7916 4.05663 47.9896 4.05663H49.1416C49.2856 4.05663 49.4116 4.12863 49.4656 4.27263L52.0396 10.7886L54.6136 4.27263C54.6676 4.12863 54.7936 4.05663 54.9376 4.05663H56.0896C56.2876 4.05663 56.3776 4.18263 56.3056 4.36263L52.9036 12.4806C52.8496 12.6246 52.7236 12.6966 52.5796 12.6966H51.4996Z" fill="#243746"/>
<path d="M61.3632 3.84063C63.8292 3.84063 65.3412 5.78463 65.3412 7.94463V8.61063C65.3412 8.77263 65.2332 8.88063 65.0712 8.88063H58.5732C58.7712 10.2846 59.7612 11.4006 61.5072 11.4006C62.4792 11.4006 63.3432 11.0586 64.2252 10.4106C64.3872 10.3026 64.5132 10.3206 64.6032 10.4646L65.1072 11.2206C65.1972 11.3466 65.1792 11.4906 65.0532 11.5986C64.0812 12.4626 62.7672 12.9126 61.4892 12.9126C58.6452 12.9126 56.9532 11.0226 56.9532 8.43063C56.9532 5.58663 58.9332 3.84063 61.3632 3.84063ZM58.6272 7.47663H63.7032C63.6312 6.36063 62.8392 5.35263 61.3452 5.35263C59.9412 5.35263 58.9332 6.16263 58.6272 7.47663Z" fill="#243746"/>
<path d="M72.86 4.88463C72.914 5.04663 72.86 5.17263 72.698 5.24463L68.576 6.95463V12.4266C68.576 12.5886 68.468 12.6966 68.306 12.6966H67.298C67.136 12.6966 67.028 12.5886 67.028 12.4266V4.66863C67.028 4.52463 67.1 4.41663 67.244 4.36263L68.27 3.98463C68.45 3.91263 68.576 4.00263 68.576 4.20063V5.44263L72.176 3.94863C72.338 3.87663 72.464 3.93063 72.536 4.09263L72.86 4.88463Z" fill="#243746"/>
<path d="M82.3036 3.84063C84.7697 3.84063 86.2817 5.78463 86.2817 7.94463V8.61063C86.2817 8.77263 86.1736 8.88063 86.0117 8.88063H79.5136C79.7116 10.2846 80.7017 11.4006 82.4477 11.4006C83.4197 11.4006 84.2836 11.0586 85.1656 10.4106C85.3276 10.3026 85.4536 10.3206 85.5436 10.4646L86.0477 11.2206C86.1377 11.3466 86.1197 11.4906 85.9937 11.5986C85.0217 12.4626 83.7076 12.9126 82.4296 12.9126C79.5856 12.9126 77.8937 11.0226 77.8937 8.43063C77.8937 5.58663 79.8737 3.84063 82.3036 3.84063ZM79.5676 7.47663H84.6437C84.5717 6.36063 83.7797 5.35263 82.2857 5.35263C80.8817 5.35263 79.8736 6.16263 79.5676 7.47663Z" fill="#243746"/>
<path d="M88.2384 12.6966C88.0764 12.6966 87.9684 12.5886 87.9684 12.4266V0.708628C87.9684 0.564628 88.0404 0.456628 88.1844 0.402628L89.2104 0.0246278C89.3904 -0.0473713 89.5164 0.0426278 89.5164 0.240627V12.4266C89.5164 12.5886 89.4084 12.6966 89.2464 12.6966H88.2384Z" fill="#243746"/>
<path d="M94.5214 12.9126C93.2434 12.9126 91.9474 12.4986 91.1734 11.5986C91.0654 11.4906 91.0834 11.3466 91.1734 11.2206L91.7494 10.4826C91.8574 10.3386 91.9834 10.3386 92.1274 10.4466C92.6674 10.9146 93.3874 11.4006 94.5574 11.4006C95.6734 11.4006 96.2854 11.0406 96.2854 10.3386C96.2854 9.61863 95.6554 9.33063 94.4854 9.04263C93.0274 8.68263 91.4254 8.25063 91.4254 6.48663C91.4254 4.93863 92.6494 3.84063 94.5754 3.84063C95.8174 3.84063 96.6994 4.27263 97.2754 4.74063C97.4014 4.86663 97.4014 4.97463 97.2934 5.11863L96.7174 5.83863C96.6094 5.96463 96.4834 6.00063 96.3394 5.89263C95.9254 5.60463 95.3494 5.35263 94.6114 5.35263C93.7294 5.35263 92.9734 5.69463 92.9734 6.39663C92.9734 7.04463 93.6214 7.29663 94.8454 7.58463C96.6274 7.99863 97.7974 8.66463 97.7974 10.2306C97.7974 12.4266 95.8354 12.9126 94.5214 12.9126Z" fill="#243746"/>
<path d="M103.543 3.84063C106.009 3.84063 107.521 5.78463 107.521 7.94463V8.61063C107.521 8.77263 107.413 8.88063 107.251 8.88063H100.753C100.951 10.2846 101.941 11.4006 103.687 11.4006C104.659 11.4006 105.523 11.0586 106.405 10.4106C106.567 10.3026 106.693 10.3206 106.783 10.4646L107.287 11.2206C107.377 11.3466 107.359 11.4906 107.233 11.5986C106.261 12.4626 104.947 12.9126 103.669 12.9126C100.825 12.9126 99.1329 11.0226 99.1329 8.43063C99.1329 5.58663 101.113 3.84063 103.543 3.84063ZM100.807 7.47663H105.883C105.811 6.36063 105.019 5.35263 103.525 5.35263C102.121 5.35263 101.113 6.16263 100.807 7.47663Z" fill="#243746"/>
<path d="M117.352 12.9126C114.778 12.9126 112.888 10.9866 112.888 8.37663C112.888 5.76663 114.778 3.84063 117.352 3.84063C118.504 3.84063 119.44 4.14663 120.124 4.65063C120.268 4.75863 120.268 4.88463 120.196 5.02863L119.728 5.83863C119.638 6.00063 119.512 6.03663 119.368 5.94663C118.972 5.69463 118.432 5.35263 117.46 5.35263C115.57 5.35263 114.472 6.68463 114.472 8.37663C114.472 10.0686 115.57 11.4006 117.46 11.4006C118.414 11.4006 118.972 11.0946 119.404 10.8246C119.548 10.7526 119.674 10.7886 119.764 10.9326L120.196 11.7246C120.268 11.8686 120.286 11.9766 120.232 12.0306C119.692 12.4626 118.612 12.9126 117.352 12.9126Z" fill="#243746"/>
<path d="M126.014 12.9126C123.422 12.9126 121.568 10.9866 121.568 8.37663C121.568 5.76663 123.422 3.84063 126.014 3.84063C128.606 3.84063 130.442 5.76663 130.442 8.37663C130.442 10.9866 128.606 12.9126 126.014 12.9126ZM126.014 11.4006C127.778 11.4006 128.858 10.0686 128.858 8.37663C128.858 6.68463 127.778 5.35263 126.014 5.35263C124.232 5.35263 123.152 6.68463 123.152 8.37663C123.152 10.0686 124.232 11.4006 126.014 11.4006Z" fill="#243746"/>
<path d="M132.405 12.6966C132.243 12.6966 132.135 12.5886 132.135 12.4266V4.66863C132.135 4.52463 132.207 4.41663 132.351 4.36263L133.377 3.98463C133.557 3.91263 133.683 4.00263 133.683 4.20063V5.11863C134.259 4.27263 135.177 3.84063 136.149 3.84063C137.121 3.84063 138.057 4.30863 138.597 5.31663C139.335 4.16463 140.415 3.84063 141.351 3.84063C143.241 3.84063 144.483 4.97463 144.483 7.53063V12.4266C144.483 12.5886 144.375 12.6966 144.213 12.6966H143.205C143.043 12.6966 142.935 12.5886 142.935 12.4266V7.72863C142.935 6.21663 142.233 5.37063 141.009 5.37063C139.785 5.37063 139.083 6.21663 139.083 7.72863V12.4266C139.083 12.5886 138.975 12.6966 138.813 12.6966H137.805C137.643 12.6966 137.535 12.5886 137.535 12.4266V7.72863C137.535 6.21663 136.833 5.37063 135.609 5.37063C134.385 5.37063 133.683 6.21663 133.683 7.72863V12.4266C133.683 12.5886 133.575 12.6966 133.413 12.6966H132.405Z" fill="#243746"/>
<path d="M150.473 3.84063C152.939 3.84063 154.451 5.78463 154.451 7.94463V8.61063C154.451 8.77263 154.343 8.88063 154.181 8.88063H147.683C147.881 10.2846 148.871 11.4006 150.617 11.4006C151.589 11.4006 152.453 11.0586 153.335 10.4106C153.497 10.3026 153.623 10.3206 153.713 10.4646L154.217 11.2206C154.307 11.3466 154.289 11.4906 154.163 11.5986C153.191 12.4626 151.877 12.9126 150.599 12.9126C147.755 12.9126 146.063 11.0226 146.063 8.43063C146.063 5.58663 148.043 3.84063 150.473 3.84063ZM147.737 7.47663H152.813C152.741 6.36063 151.949 5.35263 150.455 5.35263C149.051 5.35263 148.043 6.16263 147.737 7.47663Z" fill="#243746"/>
<path d="M159.162 12.9126C157.884 12.9126 156.588 12.4986 155.814 11.5986C155.706 11.4906 155.724 11.3466 155.814 11.2206L156.39 10.4826C156.498 10.3386 156.624 10.3386 156.768 10.4466C157.308 10.9146 158.028 11.4006 159.198 11.4006C160.314 11.4006 160.926 11.0406 160.926 10.3386C160.926 9.61863 160.296 9.33063 159.126 9.04263C157.668 8.68263 156.066 8.25063 156.066 6.48663C156.066 4.93863 157.29 3.84063 159.216 3.84063C160.458 3.84063 161.34 4.27263 161.916 4.74063C162.042 4.86663 162.042 4.97463 161.934 5.11863L161.358 5.83863C161.25 5.96463 161.124 6.00063 160.98 5.89263C160.566 5.60463 159.99 5.35263 159.252 5.35263C158.37 5.35263 157.614 5.69463 157.614 6.39663C157.614 7.04463 158.262 7.29663 159.486 7.58463C161.268 7.99863 162.438 8.66463 162.438 10.2306C162.438 12.4266 160.476 12.9126 159.162 12.9126Z" fill="#243746"/>
<path d="M168.3 12.6966C168.138 12.6966 168.03 12.5886 168.03 12.4266V4.66863C168.03 4.52463 168.102 4.41663 168.246 4.36263L169.272 3.98463C169.452 3.91263 169.578 4.00263 169.578 4.20063V5.11863C170.244 4.14663 171.27 3.84063 172.206 3.84063C174.15 3.84063 175.698 5.15463 175.698 7.71063V12.4266C175.698 12.5886 175.59 12.6966 175.428 12.6966H174.42C174.258 12.6966 174.15 12.5886 174.15 12.4266V7.76463C174.15 6.21663 173.25 5.37063 171.918 5.37063C170.568 5.37063 169.578 6.23463 169.578 7.76463V12.4266C169.578 12.5886 169.47 12.6966 169.308 12.6966H168.3Z" fill="#243746"/>
<path d="M181.692 3.84063C184.158 3.84063 185.67 5.78463 185.67 7.94463V8.61063C185.67 8.77263 185.562 8.88063 185.4 8.88063H178.902C179.1 10.2846 180.09 11.4006 181.836 11.4006C182.808 11.4006 183.672 11.0586 184.554 10.4106C184.716 10.3026 184.842 10.3206 184.932 10.4646L185.436 11.2206C185.526 11.3466 185.508 11.4906 185.382 11.5986C184.41 12.4626 183.096 12.9126 181.818 12.9126C178.974 12.9126 177.282 11.0226 177.282 8.43063C177.282 5.58663 179.262 3.84063 181.692 3.84063ZM178.956 7.47663H184.032C183.96 6.36063 183.168 5.35263 181.674 5.35263C180.27 5.35263 179.262 6.16263 178.956 7.47663Z" fill="#243746"/>
<path d="M194.13 12.3726C194.256 12.5706 194.184 12.6966 193.968 12.6966H192.78C192.636 12.6966 192.51 12.6426 192.438 12.5346L190.368 9.60063L188.298 12.5346C188.226 12.6426 188.1 12.6966 187.956 12.6966H186.768C186.552 12.6966 186.48 12.5526 186.606 12.3726L189.468 8.30463L186.696 4.38063C186.57 4.18263 186.642 4.05663 186.858 4.05663H188.046C188.19 4.05663 188.316 4.11063 188.388 4.21863L190.368 7.02663L192.348 4.21863C192.42 4.11063 192.546 4.05663 192.69 4.05663H193.878C194.094 4.05663 194.166 4.20063 194.04 4.38063L191.268 8.30463L194.13 12.3726Z" fill="#243746"/>
<path d="M200.289 12.2826C200.343 12.4266 200.289 12.5706 200.109 12.6606C199.713 12.8406 199.371 12.9126 198.993 12.9126C196.995 12.9126 196.527 11.6166 196.527 10.0686V5.46063H195.393C195.231 5.46063 195.123 5.35263 195.123 5.19063V4.32663C195.123 4.16463 195.231 4.05663 195.393 4.05663H196.527V2.68863C196.527 2.54463 196.599 2.43663 196.743 2.38263L197.769 2.00463C197.949 1.93263 198.075 2.02263 198.075 2.22063V4.05663H199.623C199.785 4.05663 199.893 4.16463 199.893 4.32663V5.19063C199.893 5.35263 199.785 5.46063 199.623 5.46063H198.075V10.0866C198.075 10.8246 198.345 11.3646 199.119 11.3646C199.281 11.3646 199.443 11.3286 199.641 11.2566C199.821 11.2026 199.947 11.2386 200.001 11.4186L200.289 12.2826Z" fill="#243746"/>
<path d="M201.87 12.6966C201.708 12.6966 201.6 12.5886 201.6 12.4266V11.3106C201.6 11.1486 201.708 11.0406 201.87 11.0406H202.986C203.148 11.0406 203.256 11.1486 203.256 11.3106V12.4266C203.256 12.5886 203.148 12.6966 202.986 12.6966H201.87Z" fill="#243746"/>
</svg>
