<?xml version="1.0" encoding="UTF-8"?>
<svg id="Layer_2" data-name="Layer 2" xmlns="http://www.w3.org/2000/svg" viewBox="0 0 123.52 17.6">
  <defs>
    <style>
      .cls-1 {
        fill: #243746;
      }
    </style>
  </defs>
  <g id="Layer_1-2" data-name="Layer 1">
    <path class="cls-1" d="M6.18,12.6c-3.6,0-6.18-2.68-6.18-6.3S2.58,0,6.18,0s6.15,2.67,6.15,6.3-2.55,6.3-6.15,6.3ZM6.18,10.5c2.45,0,3.95-1.85,3.95-4.2s-1.5-4.2-3.95-4.2-3.98,1.85-3.98,4.2,1.5,4.2,3.98,4.2Z"/>
    <path class="cls-1" d="M19.63,12.6c-2.7,0-4.85-1.83-4.85-5.38V1.15c0-.2.1-.35.3-.43l1.43-.52c.25-.1.42.03.42.3v6.65c0,2.15,1.25,3.33,3.1,3.33s3.25-1.2,3.25-3.33V1.15c0-.2.1-.35.3-.43l1.42-.52c.25-.1.42.03.42.3v11.43c0,.22-.15.38-.38.38h-1.4c-.23,0-.38-.15-.38-.38v-1.1c-.92,1.35-2.35,1.78-3.65,1.78Z"/>
    <path class="cls-1" d="M36.53,1.45c.07.22,0,.4-.23.5l-5.73,2.37v7.6c0,.22-.15.38-.38.38h-1.4c-.23,0-.38-.15-.38-.38V1.15c0-.2.1-.35.3-.43l1.42-.52c.25-.1.42.03.42.3v1.72L35.58.15c.22-.1.4-.03.5.2l.45,1.1Z"/>
    <path class="cls-1" d="M50.14,0c3.42,0,5.52,2.7,5.52,5.7v.93c0,.22-.15.38-.38.38h-9.02c.27,1.95,1.65,3.5,4.08,3.5,1.35,0,2.55-.48,3.77-1.38.23-.15.4-.12.53.07l.7,1.05c.12.18.1.38-.08.52-1.35,1.2-3.17,1.83-4.95,1.83-3.95,0-6.3-2.62-6.3-6.23,0-3.95,2.75-6.38,6.12-6.38ZM46.34,5.05h7.05c-.1-1.55-1.2-2.95-3.28-2.95-1.95,0-3.35,1.12-3.77,2.95Z"/>
    <path class="cls-1" d="M58.64,12.3c-.22,0-.38-.15-.38-.38V1.15c0-.2.1-.35.3-.43l1.43-.52c.25-.1.42.03.42.3v1.27c.92-1.35,2.35-1.77,3.65-1.77,2.7,0,4.85,1.83,4.85,5.38v6.55c0,.22-.15.38-.38.38h-1.4c-.22,0-.38-.15-.38-.38v-6.48c0-2.15-1.25-3.32-3.1-3.32s-3.25,1.2-3.25,3.32v6.48c0,.22-.15.38-.38.38h-1.4Z"/>
    <path class="cls-1" d="M77.49,0c3.43,0,5.53,2.7,5.53,5.7v.93c0,.22-.15.38-.38.38h-9.03c.28,1.95,1.65,3.5,4.08,3.5,1.35,0,2.55-.48,3.78-1.38.22-.15.4-.12.52.07l.7,1.05c.12.18.1.38-.08.52-1.35,1.2-3.17,1.83-4.95,1.83-3.95,0-6.3-2.62-6.3-6.23,0-3.95,2.75-6.38,6.12-6.38ZM73.69,5.05h7.05c-.1-1.55-1.2-2.95-3.27-2.95-1.95,0-3.35,1.12-3.78,2.95Z"/>
    <path class="cls-1" d="M93.71,1.45c.07.22,0,.4-.22.5l-5.73,2.37v7.6c0,.22-.15.38-.38.38h-1.4c-.23,0-.38-.15-.38-.38V1.15c0-.2.1-.35.3-.43l1.43-.52c.25-.1.42.03.42.3v1.72l5-2.07c.23-.1.4-.03.5.2l.45,1.1Z"/>
    <path class="cls-1" d="M100.55,17.6c-1.78,0-3.55-.43-5.28-1.73-.18-.15-.2-.32-.1-.52l.72-1.25c.12-.23.3-.25.53-.1,1.17.9,2.62,1.5,4.15,1.5,2.67,0,4.12-1.7,4.12-4.4v-.15c-.65.8-2.18,1.65-4.15,1.65-3.68,0-5.93-2.9-5.93-6.3,0-3.85,2.85-6.3,6.13-6.3,1.65,0,3.18.62,3.95,1.67v-.52c0-.2.1-.35.3-.43l1.43-.52c.25-.1.42,0,.42.27v10.18c0,4.85-2.45,6.95-6.3,6.95ZM100.8,10.48c2.17,0,3.92-1.43,3.92-4.2s-1.75-4.18-3.92-4.18-3.98,1.43-3.98,4.18,1.8,4.2,3.98,4.2Z"/>
    <path class="cls-1" d="M120.05.3c.28,0,.4.18.3.42l-6.97,16.3c-.08.2-.22.27-.43.27h-1.57c-.28,0-.4-.17-.3-.42l2.4-5.62-4.5-10.53c-.1-.25.03-.42.3-.42h1.6c.2,0,.38.1.45.3l3.33,7.9,3.35-7.9c.07-.2.22-.3.42-.3h1.62Z"/>
    <path class="cls-1" d="M121.59,12.3c-.22,0-.38-.15-.38-.38v-1.55c0-.23.15-.38.38-.38h1.55c.23,0,.38.15.38.38v1.55c0,.22-.15.38-.38.38h-1.55Z"/>
  </g>
</svg>