<?xml version="1.0" encoding="UTF-8"?><svg id="Layer_2" xmlns="http://www.w3.org/2000/svg" width="127.31" height="16.53" viewBox="0 0 127.31 16.53"><defs><style>.cls-1{fill:#243746;}</style></defs><g id="Layer_1-2"><path class="cls-1" d="M7.7.12c.16,0,.27.11.27.27v1.01c0,.16-.11.27-.27.27H1.62v4.18h4.66c.16,0,.27.11.27.27v1.01c0,.16-.11.27-.27.27H1.62v5.06c0,.16-.11.27-.27.27H.27c-.16,0-.27-.11-.27-.27V.39C0,.23.11.12.27.12h7.43Z"/><path class="cls-1" d="M15,4.91c.05.16,0,.29-.16.36l-4.12,1.71v5.47c0,.16-.11.27-.27.27h-1.01c-.16,0-.27-.11-.27-.27v-7.76c0-.14.07-.25.22-.31l1.03-.38c.18-.07.31.02.31.22v1.24l3.6-1.49c.16-.07.29-.02.36.14l.32.79Z"/><path class="cls-1" d="M19.93,12.93c-2.59,0-4.45-1.93-4.45-4.54s1.85-4.54,4.45-4.54,4.43,1.93,4.43,4.54-1.84,4.54-4.43,4.54ZM19.93,11.42c1.76,0,2.84-1.33,2.84-3.02s-1.08-3.02-2.84-3.02-2.86,1.33-2.86,3.02,1.08,3.02,2.86,3.02Z"/><path class="cls-1" d="M26.32,12.72c-.16,0-.27-.11-.27-.27v-7.76c0-.14.07-.25.22-.31l1.03-.38c.18-.07.31.02.31.22v.92c.58-.85,1.49-1.28,2.47-1.28s1.91.47,2.45,1.48c.74-1.15,1.82-1.48,2.75-1.48,1.89,0,3.13,1.13,3.13,3.69v4.9c0,.16-.11.27-.27.27h-1.01c-.16,0-.27-.11-.27-.27v-4.7c0-1.51-.7-2.36-1.93-2.36s-1.93.85-1.93,2.36v4.7c0,.16-.11.27-.27.27h-1.01c-.16,0-.27-.11-.27-.27v-4.7c0-1.51-.7-2.36-1.93-2.36s-1.93.85-1.93,2.36v4.7c0,.16-.11.27-.27.27h-1.01Z"/><path class="cls-1" d="M48.39,12.93c-2.59,0-4.45-1.93-4.45-4.54s1.85-4.54,4.45-4.54,4.43,1.93,4.43,4.54-1.84,4.54-4.43,4.54ZM48.39,11.42c1.76,0,2.84-1.33,2.84-3.02s-1.08-3.02-2.84-3.02-2.86,1.33-2.86,3.02,1.08,3.02,2.86,3.02Z"/><path class="cls-1" d="M54.77,3.09c-.18.05-.31-.02-.31-.22v-1.28c0-.14.07-.25.22-.31l1.13-.43c.18-.07.31.02.31.22v1.33c0,.14-.07.25-.22.31l-1.13.38ZM54.79,12.72c-.16,0-.27-.11-.27-.27v-7.76c0-.14.07-.25.22-.31l1.03-.38c.18-.07.31.02.31.22v8.23c0,.16-.11.27-.27.27h-1.01Z"/><path class="cls-1" d="M58.31,12.72c-.16,0-.27-.11-.27-.27V.73c0-.14.07-.25.22-.31l1.03-.38c.18-.07.31.02.31.22v12.19c0,.16-.11.27-.27.27h-1.01Z"/><path class="cls-1" d="M69.57,12.93c-2.74,0-4.32-2.09-4.32-4.55,0-2.75,2.05-4.52,4.41-4.52,1.19,0,2.29.45,2.84,1.21v-.38c0-.14.07-.25.22-.31l1.03-.38c.18-.07.31,0,.31.2v8.24c0,.16-.11.27-.27.27h-1.01c-.16,0-.27-.11-.27-.27v-.7c-.5.63-1.69,1.19-2.93,1.19ZM69.68,11.4c1.6,0,2.84-1.03,2.84-3.02s-1.24-3.01-2.84-3.01-2.84,1.03-2.84,3.01,1.31,3.02,2.84,3.02Z"/><path class="cls-1" d="M76.3,12.72c-.16,0-.27-.11-.27-.27v-7.76c0-.14.07-.25.22-.31l1.03-.38c.18-.07.31.02.31.22v.92c.67-.97,1.69-1.28,2.63-1.28,1.94,0,3.49,1.31,3.49,3.87v4.72c0,.16-.11.27-.27.27h-1.01c-.16,0-.27-.11-.27-.27v-4.66c0-1.55-.9-2.39-2.23-2.39s-2.34.86-2.34,2.39v4.66c0,.16-.11.27-.27.27h-1.01Z"/><path class="cls-1" d="M89.6,12.93c-2.74,0-4.32-2.09-4.32-4.55,0-2.75,2.05-4.52,4.41-4.52,1.19,0,2.29.45,2.84,1.21V.71c0-.14.07-.25.22-.31l1.03-.38c.18-.07.31,0,.31.2v12.22c0,.16-.11.27-.27.27h-1.01c-.16,0-.27-.11-.27-.27v-.7c-.5.63-1.69,1.19-2.93,1.19ZM89.71,11.4c1.6,0,2.84-1.03,2.84-3.02s-1.24-3.01-2.84-3.01-2.84,1.03-2.84,3.01,1.31,3.02,2.84,3.02Z"/><path class="cls-1" d="M104.01,16.53c-1.28,0-2.56-.31-3.8-1.24-.13-.11-.14-.23-.07-.38l.52-.9c.09-.16.22-.18.38-.07.85.65,1.89,1.08,2.99,1.08,1.93,0,2.97-1.22,2.97-3.17v-.11c-.47.58-1.57,1.19-2.99,1.19-2.65,0-4.27-2.09-4.27-4.54,0-2.77,2.05-4.54,4.41-4.54,1.19,0,2.29.45,2.84,1.21v-.38c0-.14.07-.25.22-.31l1.03-.38c.18-.07.31,0,.31.2v7.33c0,3.49-1.76,5-4.54,5ZM104.19,11.4c1.57,0,2.83-1.03,2.83-3.02s-1.26-3.01-2.83-3.01-2.86,1.03-2.86,3.01,1.3,3.02,2.86,3.02Z"/><path class="cls-1" d="M114.55,12.93c-2.74,0-4.32-2.09-4.32-4.55,0-2.75,2.05-4.52,4.41-4.52,1.19,0,2.29.45,2.84,1.21v-.38c0-.14.07-.25.22-.31l1.03-.38c.18-.07.31,0,.31.2v8.24c0,.16-.11.27-.27.27h-1.01c-.16,0-.27-.11-.27-.27v-.7c-.5.63-1.69,1.19-2.93,1.19ZM114.66,11.4c1.6,0,2.84-1.03,2.84-3.02s-1.24-3.01-2.84-3.01-2.84,1.03-2.84,3.01,1.31,3.02,2.84,3.02Z"/><path class="cls-1" d="M124.04,12.93c-1.28,0-2.57-.41-3.35-1.31-.11-.11-.09-.25,0-.38l.58-.74c.11-.14.23-.14.38-.04.54.47,1.26.95,2.43.95s1.73-.36,1.73-1.06-.63-1.01-1.8-1.3c-1.46-.36-3.06-.79-3.06-2.56,0-1.55,1.22-2.65,3.15-2.65,1.24,0,2.12.43,2.7.9.13.13.13.23.02.38l-.58.72c-.11.13-.23.16-.38.05-.41-.29-.99-.54-1.73-.54-.88,0-1.64.34-1.64,1.04,0,.65.65.9,1.87,1.19,1.78.41,2.95,1.08,2.95,2.65,0,2.2-1.96,2.68-3.28,2.68Z"/></g></svg>