<svg width="394" height="21" viewBox="0 0 394 21" fill="none" xmlns="http://www.w3.org/2000/svg">
<g clip-path="url(#clip0_15_134)">
<path d="M4.626 16C4.482 16 4.374 15.946 4.32 15.784L0.558 3.706C0.504 3.508 0.594 3.4 0.792 3.4H1.998C2.142 3.4 2.268 3.49 2.304 3.634L5.238 13.462L8.172 3.634C8.208 3.49 8.334 3.4 8.478 3.4H9.846C9.99 3.4 10.116 3.49 10.152 3.634L13.086 13.462L16.02 3.634C16.056 3.49 16.182 3.4 16.326 3.4H17.532C17.73 3.4 17.82 3.508 17.766 3.706L14.004 15.784C13.95 15.946 13.842 16 13.698 16H12.474C12.33 16 12.204 15.91 12.168 15.766L9.162 5.866L6.156 15.766C6.12 15.91 5.994 16 5.85 16H4.626ZM22.0728 7.144C24.5388 7.144 26.0508 9.088 26.0508 11.248V11.914C26.0508 12.076 25.9428 12.184 25.7808 12.184H19.2828C19.4808 13.588 20.4708 14.704 22.2168 14.704C23.1888 14.704 24.0528 14.362 24.9348 13.714C25.0968 13.606 25.2228 13.624 25.3128 13.768L25.8168 14.524C25.9068 14.65 25.8888 14.794 25.7628 14.902C24.7908 15.766 23.4768 16.216 22.1988 16.216C19.3548 16.216 17.6628 14.326 17.6628 11.734C17.6628 8.89 19.6428 7.144 22.0728 7.144ZM19.3368 10.78H24.4128C24.3408 9.664 23.5488 8.656 22.0548 8.656C20.6508 8.656 19.6428 9.466 19.3368 10.78ZM31.976 16C31.814 16 31.706 15.892 31.706 15.73V4.012C31.706 3.868 31.778 3.76 31.922 3.706L32.948 3.328C33.128 3.256 33.254 3.346 33.254 3.544V15.73C33.254 15.892 33.146 16 32.984 16H31.976ZM39.393 16.216C36.801 16.216 34.947 14.29 34.947 11.68C34.947 9.07 36.801 7.144 39.393 7.144C41.985 7.144 43.821 9.07 43.821 11.68C43.821 14.29 41.985 16.216 39.393 16.216ZM39.393 14.704C41.157 14.704 42.237 13.372 42.237 11.68C42.237 9.988 41.157 8.656 39.393 8.656C37.611 8.656 36.531 9.988 36.531 11.68C36.531 13.372 37.611 14.704 39.393 14.704ZM49.672 16.216C47.08 16.216 45.226 14.29 45.226 11.68C45.226 9.07 47.08 7.144 49.672 7.144C52.264 7.144 54.1 9.07 54.1 11.68C54.1 14.29 52.264 16.216 49.672 16.216ZM49.672 14.704C51.436 14.704 52.516 13.372 52.516 11.68C52.516 9.988 51.436 8.656 49.672 8.656C47.89 8.656 46.81 9.988 46.81 11.68C46.81 13.372 47.89 14.704 49.672 14.704ZM62.561 15.676C62.705 15.838 62.651 16 62.417 16H61.085C60.959 16 60.851 15.964 60.761 15.856L57.341 12.13V15.73C57.341 15.892 57.233 16 57.071 16H56.063C55.901 16 55.793 15.892 55.793 15.73V4.012C55.793 3.868 55.865 3.76 56.009 3.706L57.035 3.328C57.215 3.256 57.341 3.346 57.341 3.544V10.69L60.545 7.504C60.653 7.396 60.761 7.36 60.887 7.36H62.219C62.453 7.36 62.525 7.522 62.363 7.684L58.691 11.356L62.561 15.676ZM72.0007 3.58C72.1627 3.67 72.2167 3.778 72.1627 3.922L71.8567 4.804C71.8027 4.966 71.6767 5.02 71.4967 4.93C71.2807 4.84 71.1547 4.84 70.9747 4.84C70.2007 4.84 69.9307 5.38 69.9307 6.118V7.36H71.4067C71.5687 7.36 71.6767 7.468 71.6767 7.63V8.494C71.6767 8.656 71.5687 8.764 71.4067 8.764H69.9307V15.73C69.9307 15.892 69.8227 16 69.6607 16H68.6527C68.4907 16 68.3827 15.892 68.3827 15.73V8.764H67.6267C67.4647 8.764 67.3567 8.656 67.3567 8.494V7.63C67.3567 7.468 67.4647 7.36 67.6267 7.36H68.3827V6.136C68.3827 4.912 68.6707 3.292 70.7947 3.292C71.2267 3.292 71.6407 3.382 72.0007 3.58ZM77.1121 16.216C74.5201 16.216 72.6661 14.29 72.6661 11.68C72.6661 9.07 74.5201 7.144 77.1121 7.144C79.7041 7.144 81.5401 9.07 81.5401 11.68C81.5401 14.29 79.7041 16.216 77.1121 16.216ZM77.1121 14.704C78.8761 14.704 79.9561 13.372 79.9561 11.68C79.9561 9.988 78.8761 8.656 77.1121 8.656C75.3301 8.656 74.2501 9.988 74.2501 11.68C74.2501 13.372 75.3301 14.704 77.1121 14.704ZM89.0651 8.188C89.1191 8.35 89.0651 8.476 88.9031 8.548L84.7811 10.258V15.73C84.7811 15.892 84.6731 16 84.5111 16H83.5031C83.3411 16 83.2331 15.892 83.2331 15.73V7.972C83.2331 7.828 83.3051 7.72 83.4491 7.666L84.4751 7.288C84.6551 7.216 84.7811 7.306 84.7811 7.504V8.746L88.3811 7.252C88.5431 7.18 88.6691 7.234 88.7411 7.396L89.0651 8.188ZM92.7224 16C92.5784 16 92.4704 15.946 92.4164 15.784L89.7884 7.666C89.7344 7.486 89.8064 7.36 90.0044 7.36H91.0304C91.1744 7.36 91.3004 7.432 91.3364 7.576L93.1904 13.606L94.9904 7.594C95.0264 7.45 95.1524 7.36 95.2964 7.36H96.3224C96.4664 7.36 96.5924 7.45 96.6284 7.594L98.4284 13.606L100.282 7.576C100.318 7.432 100.444 7.36 100.588 7.36H101.578C101.776 7.36 101.866 7.468 101.812 7.666L99.2024 15.784C99.1484 15.946 99.0404 16 98.8964 16H97.9604C97.8164 16 97.6904 15.928 97.6544 15.784L95.8184 9.79L93.9644 15.784C93.9284 15.928 93.8024 16 93.6584 16H92.7224ZM106.891 16.216C104.155 16.216 102.571 14.128 102.571 11.662C102.571 8.908 104.623 7.144 106.981 7.144C108.169 7.144 109.267 7.594 109.825 8.35V7.972C109.825 7.828 109.897 7.72 110.041 7.666L111.067 7.288C111.247 7.216 111.373 7.288 111.373 7.486V15.73C111.373 15.892 111.265 16 111.103 16H110.095C109.933 16 109.825 15.892 109.825 15.73V15.028C109.321 15.658 108.133 16.216 106.891 16.216ZM106.999 14.686C108.601 14.686 109.843 13.66 109.843 11.662C109.843 9.682 108.601 8.656 106.999 8.656C105.469 8.656 104.155 9.682 104.155 11.662C104.155 13.642 105.469 14.686 106.999 14.686ZM119.181 8.188C119.235 8.35 119.181 8.476 119.019 8.548L114.897 10.258V15.73C114.897 15.892 114.789 16 114.627 16H113.619C113.457 16 113.349 15.892 113.349 15.73V7.972C113.349 7.828 113.421 7.72 113.565 7.666L114.591 7.288C114.771 7.216 114.897 7.306 114.897 7.504V8.746L118.497 7.252C118.659 7.18 118.785 7.234 118.857 7.396L119.181 8.188ZM123.987 16.216C121.251 16.216 119.667 14.128 119.667 11.662C119.667 8.908 121.719 7.144 124.077 7.144C125.265 7.144 126.363 7.594 126.921 8.35V3.994C126.921 3.85 126.993 3.742 127.137 3.688L128.163 3.31C128.343 3.238 128.469 3.31 128.469 3.508V15.73C128.469 15.892 128.361 16 128.199 16H127.191C127.029 16 126.921 15.892 126.921 15.73V15.028C126.417 15.658 125.229 16.216 123.987 16.216ZM124.095 14.686C125.697 14.686 126.939 13.66 126.939 11.662C126.939 9.682 125.697 8.656 124.095 8.656C122.565 8.656 121.251 9.682 121.251 11.662C121.251 13.642 122.565 14.686 124.095 14.686ZM138.859 15.586C138.913 15.73 138.859 15.874 138.679 15.964C138.283 16.144 137.941 16.216 137.563 16.216C135.565 16.216 135.097 14.92 135.097 13.372V8.764H133.963C133.801 8.764 133.693 8.656 133.693 8.494V7.63C133.693 7.468 133.801 7.36 133.963 7.36H135.097V5.992C135.097 5.848 135.169 5.74 135.313 5.686L136.339 5.308C136.519 5.236 136.645 5.326 136.645 5.524V7.36H138.193C138.355 7.36 138.463 7.468 138.463 7.63V8.494C138.463 8.656 138.355 8.764 138.193 8.764H136.645V13.39C136.645 14.128 136.915 14.668 137.689 14.668C137.851 14.668 138.013 14.632 138.211 14.56C138.391 14.506 138.517 14.542 138.571 14.722L138.859 15.586ZM144.192 16.216C141.6 16.216 139.746 14.29 139.746 11.68C139.746 9.07 141.6 7.144 144.192 7.144C146.784 7.144 148.62 9.07 148.62 11.68C148.62 14.29 146.784 16.216 144.192 16.216ZM144.192 14.704C145.956 14.704 147.036 13.372 147.036 11.68C147.036 9.988 145.956 8.656 144.192 8.656C142.41 8.656 141.33 9.988 141.33 11.68C141.33 13.372 142.41 14.704 144.192 14.704ZM158.727 15.586C158.781 15.73 158.727 15.874 158.547 15.964C158.151 16.144 157.809 16.216 157.431 16.216C155.433 16.216 154.965 14.92 154.965 13.372V8.764H153.831C153.669 8.764 153.561 8.656 153.561 8.494V7.63C153.561 7.468 153.669 7.36 153.831 7.36H154.965V5.992C154.965 5.848 155.037 5.74 155.181 5.686L156.207 5.308C156.387 5.236 156.513 5.326 156.513 5.524V7.36H158.061C158.223 7.36 158.331 7.468 158.331 7.63V8.494C158.331 8.656 158.223 8.764 158.061 8.764H156.513V13.39C156.513 14.128 156.783 14.668 157.557 14.668C157.719 14.668 157.881 14.632 158.079 14.56C158.259 14.506 158.385 14.542 158.439 14.722L158.727 15.586ZM163.934 16.216C161.198 16.216 159.614 14.128 159.614 11.662C159.614 8.908 161.666 7.144 164.024 7.144C165.212 7.144 166.31 7.594 166.868 8.35V7.972C166.868 7.828 166.94 7.72 167.084 7.666L168.11 7.288C168.29 7.216 168.416 7.288 168.416 7.486V15.73C168.416 15.892 168.308 16 168.146 16H167.138C166.976 16 166.868 15.892 166.868 15.73V15.028C166.364 15.658 165.176 16.216 163.934 16.216ZM164.042 14.686C165.644 14.686 166.886 13.66 166.886 11.662C166.886 9.682 165.644 8.656 164.042 8.656C162.512 8.656 161.198 9.682 161.198 11.662C161.198 13.642 162.512 14.686 164.042 14.686ZM174.568 16.216C171.994 16.216 170.104 14.29 170.104 11.68C170.104 9.07 171.994 7.144 174.568 7.144C175.72 7.144 176.656 7.45 177.34 7.954C177.484 8.062 177.484 8.188 177.412 8.332L176.944 9.142C176.854 9.304 176.728 9.34 176.584 9.25C176.188 8.998 175.648 8.656 174.676 8.656C172.786 8.656 171.688 9.988 171.688 11.68C171.688 13.372 172.786 14.704 174.676 14.704C175.63 14.704 176.188 14.398 176.62 14.128C176.764 14.056 176.89 14.092 176.98 14.236L177.412 15.028C177.484 15.172 177.502 15.28 177.448 15.334C176.908 15.766 175.828 16.216 174.568 16.216ZM185.945 15.676C186.089 15.838 186.035 16 185.801 16H184.469C184.343 16 184.235 15.964 184.145 15.856L180.725 12.13V15.73C180.725 15.892 180.617 16 180.455 16H179.447C179.285 16 179.177 15.892 179.177 15.73V4.012C179.177 3.868 179.249 3.76 179.393 3.706L180.419 3.328C180.599 3.256 180.725 3.346 180.725 3.544V10.69L183.929 7.504C184.037 7.396 184.145 7.36 184.271 7.36H185.603C185.837 7.36 185.909 7.522 185.747 7.684L182.075 11.356L185.945 15.676ZM187.546 16C187.384 16 187.276 15.892 187.276 15.73V4.012C187.276 3.868 187.348 3.76 187.492 3.706L188.518 3.328C188.698 3.256 188.824 3.346 188.824 3.544V15.73C188.824 15.892 188.716 16 188.554 16H187.546ZM191.057 6.37C190.877 6.424 190.751 6.352 190.751 6.154V4.876C190.751 4.732 190.823 4.624 190.967 4.57L192.101 4.138C192.281 4.066 192.407 4.156 192.407 4.354V5.686C192.407 5.83 192.335 5.938 192.191 5.992L191.057 6.37ZM191.075 16C190.913 16 190.805 15.892 190.805 15.73V7.972C190.805 7.828 190.877 7.72 191.021 7.666L192.047 7.288C192.227 7.216 192.353 7.306 192.353 7.504V15.73C192.353 15.892 192.245 16 192.083 16H191.075ZM194.604 16C194.442 16 194.334 15.892 194.334 15.73V7.972C194.334 7.828 194.406 7.72 194.55 7.666L195.576 7.288C195.756 7.216 195.882 7.306 195.882 7.504V8.422C196.548 7.45 197.574 7.144 198.51 7.144C200.454 7.144 202.002 8.458 202.002 11.014V15.73C202.002 15.892 201.894 16 201.732 16H200.724C200.562 16 200.454 15.892 200.454 15.73V11.068C200.454 9.52 199.554 8.674 198.222 8.674C196.872 8.674 195.882 9.538 195.882 11.068V15.73C195.882 15.892 195.774 16 195.612 16H194.604ZM207.853 19.816C206.575 19.816 205.297 19.51 204.055 18.574C203.929 18.466 203.911 18.34 203.983 18.196L204.505 17.296C204.595 17.134 204.721 17.116 204.883 17.224C205.729 17.872 206.773 18.304 207.871 18.304C209.797 18.304 210.841 17.08 210.841 15.136V15.028C210.373 15.604 209.275 16.216 207.853 16.216C205.207 16.216 203.587 14.128 203.587 11.68C203.587 8.908 205.639 7.144 207.997 7.144C209.185 7.144 210.283 7.594 210.841 8.35V7.972C210.841 7.828 210.913 7.72 211.057 7.666L212.083 7.288C212.263 7.216 212.389 7.288 212.389 7.486V14.812C212.389 18.304 210.625 19.816 207.853 19.816ZM208.033 14.686C209.599 14.686 210.859 13.66 210.859 11.662C210.859 9.682 209.599 8.656 208.033 8.656C206.467 8.656 205.171 9.682 205.171 11.662C205.171 13.642 206.467 14.686 208.033 14.686ZM222.455 7.144C224.921 7.144 226.433 9.088 226.433 11.248V11.914C226.433 12.076 226.325 12.184 226.163 12.184H219.665C219.863 13.588 220.853 14.704 222.599 14.704C223.571 14.704 224.435 14.362 225.317 13.714C225.479 13.606 225.605 13.624 225.695 13.768L226.199 14.524C226.289 14.65 226.271 14.794 226.145 14.902C225.173 15.766 223.859 16.216 222.581 16.216C219.737 16.216 218.045 14.326 218.045 11.734C218.045 8.89 220.025 7.144 222.455 7.144ZM219.719 10.78H224.795C224.723 9.664 223.931 8.656 222.437 8.656C221.033 8.656 220.025 9.466 219.719 10.78ZM228.39 16C228.228 16 228.12 15.892 228.12 15.73V7.972C228.12 7.828 228.192 7.72 228.336 7.666L229.362 7.288C229.542 7.216 229.668 7.306 229.668 7.504V8.422C230.334 7.45 231.36 7.144 232.296 7.144C234.24 7.144 235.788 8.458 235.788 11.014V15.73C235.788 15.892 235.68 16 235.518 16H234.51C234.348 16 234.24 15.892 234.24 15.73V11.068C234.24 9.52 233.34 8.674 232.008 8.674C230.658 8.674 229.668 9.538 229.668 11.068V15.73C229.668 15.892 229.56 16 229.398 16H228.39ZM241.782 7.144C244.248 7.144 245.76 9.088 245.76 11.248V11.914C245.76 12.076 245.652 12.184 245.49 12.184H238.992C239.19 13.588 240.18 14.704 241.926 14.704C242.898 14.704 243.762 14.362 244.644 13.714C244.806 13.606 244.932 13.624 245.022 13.768L245.526 14.524C245.616 14.65 245.598 14.794 245.472 14.902C244.5 15.766 243.186 16.216 241.908 16.216C239.064 16.216 237.372 14.326 237.372 11.734C237.372 8.89 239.352 7.144 241.782 7.144ZM239.046 10.78H244.122C244.05 9.664 243.258 8.656 241.764 8.656C240.36 8.656 239.352 9.466 239.046 10.78ZM253.279 8.188C253.333 8.35 253.279 8.476 253.117 8.548L248.995 10.258V15.73C248.995 15.892 248.887 16 248.725 16H247.717C247.555 16 247.447 15.892 247.447 15.73V7.972C247.447 7.828 247.519 7.72 247.663 7.666L248.689 7.288C248.869 7.216 248.995 7.306 248.995 7.504V8.746L252.595 7.252C252.757 7.18 252.883 7.234 252.955 7.396L253.279 8.188ZM258.03 19.816C256.752 19.816 255.474 19.51 254.232 18.574C254.106 18.466 254.088 18.34 254.16 18.196L254.682 17.296C254.772 17.134 254.898 17.116 255.06 17.224C255.906 17.872 256.95 18.304 258.048 18.304C259.974 18.304 261.018 17.08 261.018 15.136V15.028C260.55 15.604 259.452 16.216 258.03 16.216C255.384 16.216 253.764 14.128 253.764 11.68C253.764 8.908 255.816 7.144 258.174 7.144C259.362 7.144 260.46 7.594 261.018 8.35V7.972C261.018 7.828 261.09 7.72 261.234 7.666L262.26 7.288C262.44 7.216 262.566 7.288 262.566 7.486V14.812C262.566 18.304 260.802 19.816 258.03 19.816ZM258.21 14.686C259.776 14.686 261.036 13.66 261.036 11.662C261.036 9.682 259.776 8.656 258.21 8.656C256.644 8.656 255.348 9.682 255.348 11.662C255.348 13.642 256.644 14.686 258.21 14.686ZM271.886 7.36C272.084 7.36 272.174 7.486 272.102 7.666L267.08 19.402C267.026 19.546 266.918 19.6 266.774 19.6H265.64C265.442 19.6 265.352 19.474 265.424 19.294L267.152 15.244L263.912 7.666C263.84 7.486 263.93 7.36 264.128 7.36H265.28C265.424 7.36 265.55 7.432 265.604 7.576L267.998 13.264L270.41 7.576C270.464 7.432 270.572 7.36 270.716 7.36H271.886ZM281.595 16.216C279.021 16.216 277.131 14.29 277.131 11.68C277.131 9.07 279.021 7.144 281.595 7.144C282.747 7.144 283.683 7.45 284.367 7.954C284.511 8.062 284.511 8.188 284.439 8.332L283.971 9.142C283.881 9.304 283.755 9.34 283.611 9.25C283.215 8.998 282.675 8.656 281.703 8.656C279.813 8.656 278.715 9.988 278.715 11.68C278.715 13.372 279.813 14.704 281.703 14.704C282.657 14.704 283.215 14.398 283.647 14.128C283.791 14.056 283.917 14.092 284.007 14.236L284.439 15.028C284.511 15.172 284.529 15.28 284.475 15.334C283.935 15.766 282.855 16.216 281.595 16.216ZM286.474 16C286.312 16 286.204 15.892 286.204 15.73V4.012C286.204 3.868 286.276 3.76 286.42 3.706L287.446 3.328C287.626 3.256 287.752 3.346 287.752 3.544V8.422C288.364 7.522 289.48 7.144 290.452 7.144C292.36 7.144 293.872 8.458 293.872 11.014V15.73C293.872 15.892 293.764 16 293.602 16H292.594C292.432 16 292.324 15.892 292.324 15.73V11.068C292.324 9.52 291.424 8.674 290.092 8.674C288.742 8.674 287.752 9.538 287.752 11.068V15.73C287.752 15.892 287.644 16 287.482 16H286.474ZM299.776 16.216C297.04 16.216 295.456 14.128 295.456 11.662C295.456 8.908 297.508 7.144 299.866 7.144C301.054 7.144 302.152 7.594 302.71 8.35V7.972C302.71 7.828 302.782 7.72 302.926 7.666L303.952 7.288C304.132 7.216 304.258 7.288 304.258 7.486V15.73C304.258 15.892 304.15 16 303.988 16H302.98C302.818 16 302.71 15.892 302.71 15.73V15.028C302.206 15.658 301.018 16.216 299.776 16.216ZM299.884 14.686C301.486 14.686 302.728 13.66 302.728 11.662C302.728 9.682 301.486 8.656 299.884 8.656C298.354 8.656 297.04 9.682 297.04 11.662C297.04 13.642 298.354 14.686 299.884 14.686ZM306.504 16C306.342 16 306.234 15.892 306.234 15.73V4.012C306.234 3.868 306.306 3.76 306.45 3.706L307.476 3.328C307.656 3.256 307.782 3.346 307.782 3.544V15.73C307.782 15.892 307.674 16 307.512 16H306.504ZM310.033 16C309.871 16 309.763 15.892 309.763 15.73V4.012C309.763 3.868 309.835 3.76 309.979 3.706L311.005 3.328C311.185 3.256 311.311 3.346 311.311 3.544V15.73C311.311 15.892 311.203 16 311.041 16H310.033ZM317.414 7.144C319.88 7.144 321.392 9.088 321.392 11.248V11.914C321.392 12.076 321.284 12.184 321.122 12.184H314.624C314.822 13.588 315.812 14.704 317.558 14.704C318.53 14.704 319.394 14.362 320.276 13.714C320.438 13.606 320.564 13.624 320.654 13.768L321.158 14.524C321.248 14.65 321.23 14.794 321.104 14.902C320.132 15.766 318.818 16.216 317.54 16.216C314.696 16.216 313.004 14.326 313.004 11.734C313.004 8.89 314.984 7.144 317.414 7.144ZM314.678 10.78H319.754C319.682 9.664 318.89 8.656 317.396 8.656C315.992 8.656 314.984 9.466 314.678 10.78ZM323.349 16C323.187 16 323.079 15.892 323.079 15.73V7.972C323.079 7.828 323.151 7.72 323.295 7.666L324.321 7.288C324.501 7.216 324.627 7.306 324.627 7.504V8.422C325.293 7.45 326.319 7.144 327.255 7.144C329.199 7.144 330.747 8.458 330.747 11.014V15.73C330.747 15.892 330.639 16 330.477 16H329.469C329.307 16 329.199 15.892 329.199 15.73V11.068C329.199 9.52 328.299 8.674 326.967 8.674C325.617 8.674 324.627 9.538 324.627 11.068V15.73C324.627 15.892 324.519 16 324.357 16H323.349ZM336.598 19.816C335.32 19.816 334.042 19.51 332.8 18.574C332.674 18.466 332.656 18.34 332.728 18.196L333.25 17.296C333.34 17.134 333.466 17.116 333.628 17.224C334.474 17.872 335.518 18.304 336.616 18.304C338.542 18.304 339.586 17.08 339.586 15.136V15.028C339.118 15.604 338.02 16.216 336.598 16.216C333.952 16.216 332.332 14.128 332.332 11.68C332.332 8.908 334.384 7.144 336.742 7.144C337.93 7.144 339.028 7.594 339.586 8.35V7.972C339.586 7.828 339.658 7.72 339.802 7.666L340.828 7.288C341.008 7.216 341.134 7.288 341.134 7.486V14.812C341.134 18.304 339.37 19.816 336.598 19.816ZM336.778 14.686C338.344 14.686 339.604 13.66 339.604 11.662C339.604 9.682 338.344 8.656 336.778 8.656C335.212 8.656 333.916 9.682 333.916 11.662C333.916 13.642 335.212 14.686 336.778 14.686ZM347.232 7.144C349.698 7.144 351.21 9.088 351.21 11.248V11.914C351.21 12.076 351.102 12.184 350.94 12.184H344.442C344.64 13.588 345.63 14.704 347.376 14.704C348.348 14.704 349.212 14.362 350.094 13.714C350.256 13.606 350.382 13.624 350.472 13.768L350.976 14.524C351.066 14.65 351.048 14.794 350.922 14.902C349.95 15.766 348.636 16.216 347.358 16.216C344.514 16.216 342.822 14.326 342.822 11.734C342.822 8.89 344.802 7.144 347.232 7.144ZM344.496 10.78H349.572C349.5 9.664 348.708 8.656 347.214 8.656C345.81 8.656 344.802 9.466 344.496 10.78ZM355.92 16.216C354.642 16.216 353.346 15.802 352.572 14.902C352.464 14.794 352.482 14.65 352.572 14.524L353.148 13.786C353.256 13.642 353.382 13.642 353.526 13.75C354.066 14.218 354.786 14.704 355.956 14.704C357.072 14.704 357.684 14.344 357.684 13.642C357.684 12.922 357.054 12.634 355.884 12.346C354.426 11.986 352.824 11.554 352.824 9.79C352.824 8.242 354.048 7.144 355.974 7.144C357.216 7.144 358.098 7.576 358.674 8.044C358.8 8.17 358.8 8.278 358.692 8.422L358.116 9.142C358.008 9.268 357.882 9.304 357.738 9.196C357.324 8.908 356.748 8.656 356.01 8.656C355.128 8.656 354.372 8.998 354.372 9.7C354.372 10.348 355.02 10.6 356.244 10.888C358.026 11.302 359.196 11.968 359.196 13.534C359.196 15.73 357.234 16.216 355.92 16.216ZM5.526 37.586C5.58 37.73 5.526 37.874 5.346 37.964C4.95 38.144 4.608 38.216 4.23 38.216C2.232 38.216 1.764 36.92 1.764 35.372V30.764H0.63C0.468 30.764 0.36 30.656 0.36 30.494V29.63C0.36 29.468 0.468 29.36 0.63 29.36H1.764V27.992C1.764 27.848 1.836 27.74 1.98 27.686L3.006 27.308C3.186 27.236 3.312 27.326 3.312 27.524V29.36H4.86C5.022 29.36 5.13 29.468 5.13 29.63V30.494C5.13 30.656 5.022 30.764 4.86 30.764H3.312V35.39C3.312 36.128 3.582 36.668 4.356 36.668C4.518 36.668 4.68 36.632 4.878 36.56C5.058 36.506 5.184 36.542 5.238 36.722L5.526 37.586ZM10.8588 38.216C8.26678 38.216 6.41278 36.29 6.41278 33.68C6.41278 31.07 8.26678 29.144 10.8588 29.144C13.4508 29.144 15.2868 31.07 15.2868 33.68C15.2868 36.29 13.4508 38.216 10.8588 38.216ZM10.8588 36.704C12.6228 36.704 13.7028 35.372 13.7028 33.68C13.7028 31.988 12.6228 30.656 10.8588 30.656C9.07678 30.656 7.99678 31.988 7.99678 33.68C7.99678 35.372 9.07678 36.704 10.8588 36.704ZM20.9578 41.816C19.6798 41.816 18.4018 41.51 17.1598 40.574C17.0338 40.466 17.0158 40.34 17.0878 40.196L17.6098 39.296C17.6998 39.134 17.8258 39.116 17.9878 39.224C18.8338 39.872 19.8778 40.304 20.9758 40.304C22.9018 40.304 23.9458 39.08 23.9458 37.136V37.028C23.4778 37.604 22.3798 38.216 20.9578 38.216C18.3118 38.216 16.6918 36.128 16.6918 33.68C16.6918 30.908 18.7438 29.144 21.1018 29.144C22.2898 29.144 23.3878 29.594 23.9458 30.35V29.972C23.9458 29.828 24.0178 29.72 24.1618 29.666L25.1878 29.288C25.3678 29.216 25.4938 29.288 25.4938 29.486V36.812C25.4938 40.304 23.7298 41.816 20.9578 41.816ZM21.1378 36.686C22.7038 36.686 23.9638 35.66 23.9638 33.662C23.9638 31.682 22.7038 30.656 21.1378 30.656C19.5718 30.656 18.2758 31.682 18.2758 33.662C18.2758 35.642 19.5718 36.686 21.1378 36.686ZM31.5917 29.144C34.0577 29.144 35.5697 31.088 35.5697 33.248V33.914C35.5697 34.076 35.4617 34.184 35.2997 34.184H28.8017C28.9997 35.588 29.9897 36.704 31.7357 36.704C32.7077 36.704 33.5717 36.362 34.4537 35.714C34.6157 35.606 34.7417 35.624 34.8317 35.768L35.3357 36.524C35.4257 36.65 35.4077 36.794 35.2817 36.902C34.3097 37.766 32.9957 38.216 31.7177 38.216C28.8737 38.216 27.1817 36.326 27.1817 33.734C27.1817 30.89 29.1617 29.144 31.5917 29.144ZM28.8557 32.78H33.9317C33.8597 31.664 33.0677 30.656 31.5737 30.656C30.1697 30.656 29.1617 31.466 28.8557 32.78ZM41.5619 37.586C41.6159 37.73 41.5619 37.874 41.3819 37.964C40.9859 38.144 40.6439 38.216 40.2659 38.216C38.2679 38.216 37.7999 36.92 37.7999 35.372V30.764H36.6659C36.5039 30.764 36.3959 30.656 36.3959 30.494V29.63C36.3959 29.468 36.5039 29.36 36.6659 29.36H37.7999V27.992C37.7999 27.848 37.8719 27.74 38.0159 27.686L39.0419 27.308C39.2219 27.236 39.3479 27.326 39.3479 27.524V29.36H40.8959C41.0579 29.36 41.1659 29.468 41.1659 29.63V30.494C41.1659 30.656 41.0579 30.764 40.8959 30.764H39.3479V35.39C39.3479 36.128 39.6179 36.668 40.3919 36.668C40.5539 36.668 40.7159 36.632 40.9139 36.56C41.0939 36.506 41.2199 36.542 41.2739 36.722L41.5619 37.586ZM43.323 38C43.161 38 43.053 37.892 43.053 37.73V26.012C43.053 25.868 43.125 25.76 43.269 25.706L44.295 25.328C44.475 25.256 44.601 25.346 44.601 25.544V30.422C45.213 29.522 46.329 29.144 47.301 29.144C49.209 29.144 50.721 30.458 50.721 33.014V37.73C50.721 37.892 50.613 38 50.451 38H49.443C49.281 38 49.173 37.892 49.173 37.73V33.068C49.173 31.52 48.273 30.674 46.941 30.674C45.591 30.674 44.601 31.538 44.601 33.068V37.73C44.601 37.892 44.493 38 44.331 38H43.323ZM56.7157 29.144C59.1817 29.144 60.6937 31.088 60.6937 33.248V33.914C60.6937 34.076 60.5857 34.184 60.4237 34.184H53.9257C54.1237 35.588 55.1137 36.704 56.8597 36.704C57.8317 36.704 58.6957 36.362 59.5777 35.714C59.7397 35.606 59.8657 35.624 59.9557 35.768L60.4597 36.524C60.5497 36.65 60.5317 36.794 60.4057 36.902C59.4337 37.766 58.1197 38.216 56.8417 38.216C53.9977 38.216 52.3057 36.326 52.3057 33.734C52.3057 30.89 54.2857 29.144 56.7157 29.144ZM53.9797 32.78H59.0557C58.9837 31.664 58.1917 30.656 56.6977 30.656C55.2937 30.656 54.2857 31.466 53.9797 32.78ZM68.2125 30.188C68.2665 30.35 68.2125 30.476 68.0505 30.548L63.9285 32.258V37.73C63.9285 37.892 63.8205 38 63.6585 38H62.6505C62.4885 38 62.3805 37.892 62.3805 37.73V29.972C62.3805 29.828 62.4525 29.72 62.5965 29.666L63.6225 29.288C63.8025 29.216 63.9285 29.306 63.9285 29.504V30.746L67.5285 29.252C67.6905 29.18 67.8165 29.234 67.8885 29.396L68.2125 30.188ZM77.5662 38.216C74.8302 38.216 73.2462 36.128 73.2462 33.662C73.2462 30.908 75.2982 29.144 77.6562 29.144C78.8442 29.144 79.9422 29.594 80.5002 30.35V29.972C80.5002 29.828 80.5722 29.72 80.7162 29.666L81.7422 29.288C81.9222 29.216 82.0482 29.288 82.0482 29.486V37.73C82.0482 37.892 81.9402 38 81.7782 38H80.7702C80.6082 38 80.5002 37.892 80.5002 37.73V37.028C79.9962 37.658 78.8082 38.216 77.5662 38.216ZM77.6742 36.686C79.2762 36.686 80.5182 35.66 80.5182 33.662C80.5182 31.682 79.2762 30.656 77.6742 30.656C76.1442 30.656 74.8302 31.682 74.8302 33.662C74.8302 35.642 76.1442 36.686 77.6742 36.686ZM88.4701 37.586C88.5241 37.73 88.4701 37.874 88.2901 37.964C87.8941 38.144 87.5521 38.216 87.1741 38.216C85.1761 38.216 84.7081 36.92 84.7081 35.372V30.764H83.5741C83.4121 30.764 83.3041 30.656 83.3041 30.494V29.63C83.3041 29.468 83.4121 29.36 83.5741 29.36H84.7081V27.992C84.7081 27.848 84.7801 27.74 84.9241 27.686L85.9501 27.308C86.1301 27.236 86.2561 27.326 86.2561 27.524V29.36H87.8041C87.9661 29.36 88.0741 29.468 88.0741 29.63V30.494C88.0741 30.656 87.9661 30.764 87.8041 30.764H86.2561V35.39C86.2561 36.128 86.5261 36.668 87.3001 36.668C87.4621 36.668 87.6241 36.632 87.8221 36.56C88.0021 36.506 88.1281 36.542 88.1821 36.722L88.4701 37.586ZM99.9058 38.216C96.3958 38.216 93.7498 35.624 93.7498 31.7C93.7498 27.776 96.3958 25.184 99.9058 25.184C101.958 25.184 103.506 25.994 104.658 27.344C104.766 27.488 104.748 27.632 104.622 27.74L103.776 28.442C103.632 28.568 103.506 28.55 103.398 28.406C102.678 27.542 101.526 26.768 99.9058 26.768C97.2958 26.768 95.4058 28.874 95.4058 31.7C95.4058 34.526 97.2958 36.632 99.9058 36.632C101.526 36.632 102.678 35.858 103.398 34.994C103.506 34.85 103.632 34.832 103.776 34.958L104.604 35.642C104.73 35.75 104.748 35.894 104.658 36.002C103.524 37.388 101.976 38.216 99.9058 38.216ZM114.308 26.948H108.224V30.584H112.886C113.048 30.584 113.156 30.692 113.156 30.854V31.862C113.156 32.024 113.048 32.132 112.886 32.132H108.224V36.452H114.308C114.47 36.452 114.578 36.56 114.578 36.722V37.73C114.578 37.892 114.47 38 114.308 38H106.874C106.712 38 106.604 37.892 106.604 37.73V25.67C106.604 25.508 106.712 25.4 106.874 25.4H114.308C114.47 25.4 114.578 25.508 114.578 25.67V26.678C114.578 26.84 114.47 26.948 114.308 26.948ZM116.678 38C116.516 38 116.408 37.892 116.408 37.73V25.67C116.408 25.508 116.516 25.4 116.678 25.4H120.854C123.932 25.4 124.652 27.488 124.652 28.982C124.652 30.224 124.148 31.88 122.204 32.402L124.58 37.676C124.67 37.874 124.58 38 124.382 38H123.176C123.032 38 122.924 37.946 122.87 37.802L120.566 32.564H118.028V37.73C118.028 37.892 117.92 38 117.758 38H116.678ZM118.028 31.016H120.602C122.474 31.016 122.978 30.098 122.978 28.982C122.978 27.866 122.474 26.948 120.602 26.948H118.028V31.016ZM137.562 37.694C137.634 37.874 137.544 38 137.346 38H136.14C135.996 38 135.87 37.928 135.816 37.784L134.61 34.832H128.76L127.554 37.784C127.5 37.928 127.374 38 127.23 38H126.024C125.826 38 125.736 37.874 125.808 37.694L130.884 25.616C130.938 25.472 131.064 25.4 131.208 25.4H132.162C132.306 25.4 132.432 25.472 132.486 25.616L137.562 37.694ZM129.408 33.284H133.98L131.694 27.704L129.408 33.284ZM140.736 38C140.592 38 140.484 37.946 140.43 37.784L136.668 25.706C136.614 25.508 136.704 25.4 136.902 25.4H138.108C138.252 25.4 138.378 25.49 138.414 25.634L141.348 35.462L144.282 25.634C144.318 25.49 144.444 25.4 144.588 25.4H145.956C146.1 25.4 146.226 25.49 146.262 25.634L149.196 35.462L152.13 25.634C152.166 25.49 152.292 25.4 152.436 25.4H153.642C153.84 25.4 153.93 25.508 153.876 25.706L150.114 37.784C150.06 37.946 149.952 38 149.808 38H148.584C148.44 38 148.314 37.91 148.278 37.766L145.272 27.866L142.266 37.766C142.23 37.91 142.104 38 141.96 38H140.736ZM158.183 29.144C160.649 29.144 162.161 31.088 162.161 33.248V33.914C162.161 34.076 162.053 34.184 161.891 34.184H155.393C155.591 35.588 156.581 36.704 158.327 36.704C159.299 36.704 160.163 36.362 161.045 35.714C161.207 35.606 161.333 35.624 161.423 35.768L161.927 36.524C162.017 36.65 161.999 36.794 161.873 36.902C160.901 37.766 159.587 38.216 158.309 38.216C155.465 38.216 153.773 36.326 153.773 33.734C153.773 30.89 155.753 29.144 158.183 29.144ZM155.447 32.78H160.523C160.451 31.664 159.659 30.656 158.165 30.656C156.761 30.656 155.753 31.466 155.447 32.78ZM167.97 29.144C170.436 29.144 171.948 31.088 171.948 33.248V33.914C171.948 34.076 171.84 34.184 171.678 34.184H165.18C165.378 35.588 166.368 36.704 168.114 36.704C169.086 36.704 169.95 36.362 170.832 35.714C170.994 35.606 171.12 35.624 171.21 35.768L171.714 36.524C171.804 36.65 171.786 36.794 171.66 36.902C170.688 37.766 169.374 38.216 168.096 38.216C165.252 38.216 163.56 36.326 163.56 33.734C163.56 30.89 165.54 29.144 167.97 29.144ZM165.234 32.78H170.31C170.238 31.664 169.446 30.656 167.952 30.656C166.548 30.656 165.54 31.466 165.234 32.78ZM180.403 37.676C180.547 37.838 180.493 38 180.259 38H178.927C178.801 38 178.693 37.964 178.603 37.856L175.183 34.13V37.73C175.183 37.892 175.075 38 174.913 38H173.905C173.743 38 173.635 37.892 173.635 37.73V26.012C173.635 25.868 173.707 25.76 173.851 25.706L174.877 25.328C175.057 25.256 175.183 25.346 175.183 25.544V32.69L178.387 29.504C178.495 29.396 178.603 29.36 178.729 29.36H180.061C180.295 29.36 180.367 29.522 180.205 29.684L176.533 33.356L180.403 37.676ZM185.882 38C185.72 38 185.612 37.892 185.612 37.73V37.1C185.612 36.974 185.648 36.866 185.756 36.776C188.15 34.598 191.912 31.736 191.912 28.838C191.912 27.542 191.012 26.768 189.734 26.768C188.456 26.768 187.448 27.578 187.268 29.036C187.25 29.198 187.16 29.288 186.998 29.288H185.9C185.72 29.288 185.612 29.18 185.63 29C185.9 26.642 187.52 25.184 189.734 25.184C192.2 25.184 193.568 26.714 193.568 28.838C193.568 31.934 190.796 34.382 188.42 36.452H193.568C193.766 36.452 193.856 36.56 193.784 36.758L193.406 37.784C193.352 37.946 193.244 38 193.1 38H185.882ZM200.369 38.216C197.381 38.216 195.239 35.624 195.239 31.7C195.239 27.776 197.381 25.184 200.369 25.184C203.375 25.184 205.481 27.776 205.481 31.7C205.481 35.624 203.375 38.216 200.369 38.216ZM200.369 36.632C202.457 36.632 203.825 34.706 203.825 31.7C203.825 28.694 202.457 26.768 200.369 26.768C198.281 26.768 196.895 28.694 196.895 31.7C196.895 34.706 198.281 36.632 200.369 36.632ZM207.249 38C207.087 38 206.979 37.892 206.979 37.73V37.1C206.979 36.974 207.015 36.866 207.123 36.776C209.517 34.598 213.279 31.736 213.279 28.838C213.279 27.542 212.379 26.768 211.101 26.768C209.823 26.768 208.815 27.578 208.635 29.036C208.617 29.198 208.527 29.288 208.365 29.288H207.267C207.087 29.288 206.979 29.18 206.997 29C207.267 26.642 208.887 25.184 211.101 25.184C213.567 25.184 214.935 26.714 214.935 28.838C214.935 31.934 212.163 34.382 209.787 36.452H214.935C215.133 36.452 215.223 36.56 215.151 36.758L214.773 37.784C214.719 37.946 214.611 38 214.467 38H207.249ZM221.177 38.216C218.783 38.216 216.605 36.614 216.605 32.132C216.605 27.794 218.639 25.184 221.807 25.184C222.635 25.184 223.625 25.364 224.525 25.922C224.669 25.994 224.705 26.138 224.651 26.282L224.273 27.344C224.219 27.524 224.075 27.56 223.895 27.452C223.031 26.93 222.365 26.84 221.771 26.84C220.331 26.84 218.603 27.812 218.351 31.142C219.197 29.864 220.511 29.36 221.573 29.36C223.409 29.36 225.587 30.782 225.587 33.77C225.587 36.578 223.481 38.216 221.177 38.216ZM221.195 36.632C222.905 36.632 223.931 35.354 223.931 33.806C223.931 32.312 222.905 30.998 221.195 30.998C219.485 30.998 218.459 32.312 218.459 33.806C218.459 35.354 219.485 36.632 221.195 36.632ZM226.856 38C226.694 38 226.586 37.892 226.586 37.73V36.614C226.586 36.452 226.694 36.344 226.856 36.344H227.972C228.134 36.344 228.242 36.452 228.242 36.614V37.73C228.242 37.892 228.134 38 227.972 38H226.856Z" fill="#243746"/>
</g>
<defs>
<clipPath id="clip0_15_134">
<rect width="394" height="21" fill="white"/>
</clipPath>
</defs>
</svg>
