<svg width="128" height="13" viewBox="0 0 128 13" fill="none" xmlns="http://www.w3.org/2000/svg">
<path d="M4.592 11.584C4.64 11.712 4.592 11.84 4.432 11.92C4.08 12.08 3.776 12.144 3.44 12.144C1.664 12.144 1.248 10.992 1.248 9.616V5.52H0.24C0.096 5.52 0 5.424 0 5.28V4.512C0 4.368 0.096 4.272 0.24 4.272H1.248V3.056C1.248 2.928 1.312 2.832 1.44 2.784L2.352 2.448C2.512 2.384 2.624 2.464 2.624 2.64V4.272H4C4.144 4.272 4.24 4.368 4.24 4.512V5.28C4.24 5.424 4.144 5.52 4 5.52H2.624V9.632C2.624 10.288 2.864 10.768 3.552 10.768C3.696 10.768 3.84 10.736 4.016 10.672C4.176 10.624 4.288 10.656 4.336 10.816L4.592 11.584Z" fill="#243746"/>
<path d="M9.33225 12.144C7.02825 12.144 5.38025 10.432 5.38025 8.112C5.38025 5.792 7.02825 4.08 9.33225 4.08C11.6363 4.08 13.2683 5.792 13.2683 8.112C13.2683 10.432 11.6363 12.144 9.33225 12.144ZM9.33225 10.8C10.9003 10.8 11.8603 9.616 11.8603 8.112C11.8603 6.608 10.9003 5.424 9.33225 5.424C7.74825 5.424 6.78825 6.608 6.78825 8.112C6.78825 9.616 7.74825 10.8 9.33225 10.8Z" fill="#243746"/>
<path d="M20.3486 11.952C20.2206 11.952 20.1246 11.904 20.0766 11.76L17.7406 4.544C17.6926 4.384 17.7566 4.272 17.9326 4.272H18.8446C18.9726 4.272 19.0846 4.336 19.1166 4.464L20.7646 9.824L22.3646 4.48C22.3966 4.352 22.5086 4.272 22.6366 4.272H23.5486C23.6766 4.272 23.7886 4.352 23.8206 4.48L25.4206 9.824L27.0686 4.464C27.1006 4.336 27.2126 4.272 27.3406 4.272H28.2206C28.3966 4.272 28.4766 4.368 28.4286 4.544L26.1086 11.76C26.0606 11.904 25.9646 11.952 25.8366 11.952H25.0046C24.8766 11.952 24.7646 11.888 24.7326 11.76L23.1006 6.432L21.4526 11.76C21.4206 11.888 21.3086 11.952 21.1806 11.952H20.3486Z" fill="#243746"/>
<path d="M29.865 11.952C29.721 11.952 29.625 11.856 29.625 11.712V1.296C29.625 1.168 29.689 1.072 29.817 1.024L30.729 0.688001C30.889 0.624002 31.001 0.704 31.001 0.88V5.216C31.545 4.416 32.537 4.08 33.401 4.08C35.097 4.08 36.441 5.248 36.441 7.52V11.712C36.441 11.856 36.345 11.952 36.201 11.952H35.305C35.161 11.952 35.065 11.856 35.065 11.712V7.568C35.065 6.192 34.265 5.44 33.081 5.44C31.881 5.44 31.001 6.208 31.001 7.568V11.712C31.001 11.856 30.905 11.952 30.761 11.952H29.865Z" fill="#243746"/>
<path d="M41.6896 12.144C39.2576 12.144 37.8496 10.288 37.8496 8.096C37.8496 5.648 39.6736 4.08 41.7696 4.08C42.8256 4.08 43.8016 4.48 44.2976 5.152V4.816C44.2976 4.688 44.3616 4.592 44.4896 4.544L45.4016 4.208C45.5616 4.144 45.6736 4.208 45.6736 4.384V11.712C45.6736 11.856 45.5776 11.952 45.4336 11.952H44.5376C44.3936 11.952 44.2976 11.856 44.2976 11.712V11.088C43.8496 11.648 42.7936 12.144 41.6896 12.144ZM41.7856 10.784C43.2096 10.784 44.3136 9.872 44.3136 8.096C44.3136 6.336 43.2096 5.424 41.7856 5.424C40.4256 5.424 39.2576 6.336 39.2576 8.096C39.2576 9.856 40.4256 10.784 41.7856 10.784Z" fill="#243746"/>
<path d="M51.382 11.584C51.43 11.712 51.382 11.84 51.222 11.92C50.87 12.08 50.566 12.144 50.23 12.144C48.454 12.144 48.038 10.992 48.038 9.616V5.52H47.03C46.886 5.52 46.79 5.424 46.79 5.28V4.512C46.79 4.368 46.886 4.272 47.03 4.272H48.038V3.056C48.038 2.928 48.102 2.832 48.23 2.784L49.142 2.448C49.302 2.384 49.414 2.464 49.414 2.64V4.272H50.79C50.934 4.272 51.03 4.368 51.03 4.512V5.28C51.03 5.424 50.934 5.52 50.79 5.52H49.414V9.632C49.414 10.288 49.654 10.768 50.342 10.768C50.486 10.768 50.63 10.736 50.806 10.672C50.966 10.624 51.078 10.656 51.126 10.816L51.382 11.584Z" fill="#243746"/>
<path d="M56.0903 4.08C58.2823 4.08 59.6263 5.808 59.6263 7.728V8.32C59.6263 8.464 59.5303 8.56 59.3863 8.56H53.6103C53.7863 9.808 54.6662 10.8 56.2183 10.8C57.0823 10.8 57.8503 10.496 58.6343 9.92C58.7783 9.824 58.8903 9.84 58.9703 9.968L59.4183 10.64C59.4983 10.752 59.4823 10.88 59.3703 10.976C58.5063 11.744 57.3383 12.144 56.2023 12.144C53.6743 12.144 52.1702 10.464 52.1702 8.16C52.1702 5.632 53.9303 4.08 56.0903 4.08ZM53.6583 7.312H58.1702C58.1062 6.32 57.4023 5.424 56.0743 5.424C54.8263 5.424 53.9303 6.144 53.6583 7.312Z" fill="#243746"/>
<path d="M63.5026 11.952C63.3746 11.952 63.2626 11.888 63.2146 11.76L60.1906 4.544C60.1266 4.384 60.2066 4.272 60.3826 4.272H61.4066C61.5346 4.272 61.6466 4.336 61.6946 4.464L63.9826 10.256L66.2706 4.464C66.3186 4.336 66.4306 4.272 66.5586 4.272H67.5826C67.7586 4.272 67.8386 4.384 67.7746 4.544L64.7506 11.76C64.7026 11.888 64.5906 11.952 64.4626 11.952H63.5026Z" fill="#243746"/>
<path d="M72.2702 4.08C74.4622 4.08 75.8063 5.808 75.8063 7.728V8.32C75.8063 8.464 75.7102 8.56 75.5662 8.56H69.7902C69.9662 9.808 70.8462 10.8 72.3982 10.8C73.2622 10.8 74.0302 10.496 74.8142 9.92C74.9582 9.824 75.0702 9.84 75.1502 9.968L75.5983 10.64C75.6783 10.752 75.6622 10.88 75.5502 10.976C74.6862 11.744 73.5182 12.144 72.3822 12.144C69.8542 12.144 68.3503 10.464 68.3503 8.16C68.3503 5.632 70.1102 4.08 72.2702 4.08ZM69.8382 7.312H74.3503C74.2863 6.32 73.5822 5.424 72.2542 5.424C71.0062 5.424 70.1102 6.144 69.8382 7.312Z" fill="#243746"/>
<path d="M82.4896 5.008C82.5376 5.152 82.4896 5.264 82.3456 5.328L78.6816 6.848V11.712C78.6816 11.856 78.5856 11.952 78.4416 11.952H77.5456C77.4016 11.952 77.3056 11.856 77.3056 11.712V4.816C77.3056 4.688 77.3696 4.592 77.4976 4.544L78.4096 4.208C78.5696 4.144 78.6816 4.224 78.6816 4.4V5.504L81.8816 4.176C82.0256 4.112 82.1376 4.16 82.2016 4.304L82.4896 5.008Z" fill="#243746"/>
<path d="M83.3565 2.656C83.1805 2.656 83.1005 2.56 83.1645 2.384L84.0285 0.192C84.0765 0.0640001 84.1885 0 84.3165 0H85.1165C85.2925 0 85.3565 0.128 85.2925 0.288L84.3165 2.48C84.2685 2.608 84.1725 2.656 84.0445 2.656H83.3565Z" fill="#243746"/>
<path d="M88.3299 12.144C87.1939 12.144 86.0419 11.776 85.3539 10.976C85.2579 10.88 85.2739 10.752 85.3539 10.64L85.8659 9.984C85.9619 9.856 86.0739 9.856 86.2019 9.952C86.6819 10.368 87.3219 10.8 88.3619 10.8C89.3539 10.8 89.8979 10.48 89.8979 9.856C89.8979 9.216 89.3379 8.96 88.2979 8.704C87.0019 8.384 85.5779 8 85.5779 6.432C85.5779 5.056 86.6659 4.08 88.3779 4.08C89.4819 4.08 90.2659 4.464 90.7779 4.88C90.8899 4.992 90.8899 5.088 90.7939 5.216L90.2819 5.856C90.1859 5.968 90.0739 6 89.9459 5.904C89.5779 5.648 89.0659 5.424 88.4099 5.424C87.6259 5.424 86.9539 5.728 86.9539 6.352C86.9539 6.928 87.5299 7.152 88.6179 7.408C90.2019 7.776 91.2419 8.368 91.2419 9.76C91.2419 11.712 89.4979 12.144 88.3299 12.144Z" fill="#243746"/>
<path d="M96.4525 11.952C96.3085 11.952 96.2125 11.856 96.2125 11.712V4.816C96.2125 4.688 96.2765 4.592 96.4045 4.544L97.3165 4.208C97.4765 4.144 97.5885 4.224 97.5885 4.4V5.216C98.1805 4.352 99.0925 4.08 99.9245 4.08C101.652 4.08 103.029 5.248 103.029 7.52V11.712C103.029 11.856 102.933 11.952 102.789 11.952H101.893C101.749 11.952 101.653 11.856 101.653 11.712V7.568C101.653 6.192 100.853 5.44 99.6685 5.44C98.4685 5.44 97.5885 6.208 97.5885 7.568V11.712C97.5885 11.856 97.4925 11.952 97.3485 11.952H96.4525Z" fill="#243746"/>
<path d="M108.357 4.08C110.549 4.08 111.893 5.808 111.893 7.728V8.32C111.893 8.464 111.797 8.56 111.653 8.56H105.877C106.053 9.808 106.933 10.8 108.485 10.8C109.349 10.8 110.117 10.496 110.901 9.92C111.045 9.824 111.157 9.84 111.237 9.968L111.685 10.64C111.765 10.752 111.749 10.88 111.637 10.976C110.773 11.744 109.605 12.144 108.469 12.144C105.941 12.144 104.437 10.464 104.437 8.16C104.437 5.632 106.197 4.08 108.357 4.08ZM105.925 7.312H110.437C110.373 6.32 109.669 5.424 108.341 5.424C107.093 5.424 106.197 6.144 105.925 7.312Z" fill="#243746"/>
<path d="M119.413 11.664C119.525 11.84 119.461 11.952 119.269 11.952H118.213C118.085 11.952 117.973 11.904 117.909 11.808L116.069 9.2L114.229 11.808C114.165 11.904 114.053 11.952 113.925 11.952H112.869C112.677 11.952 112.613 11.824 112.725 11.664L115.269 8.048L112.805 4.56C112.693 4.384 112.757 4.272 112.949 4.272H114.005C114.133 4.272 114.245 4.32 114.309 4.416L116.069 6.912L117.829 4.416C117.893 4.32 118.005 4.272 118.133 4.272H119.189C119.381 4.272 119.445 4.4 119.333 4.56L116.869 8.048L119.413 11.664Z" fill="#243746"/>
<path d="M124.888 11.584C124.936 11.712 124.888 11.84 124.728 11.92C124.376 12.08 124.072 12.144 123.736 12.144C121.96 12.144 121.544 10.992 121.544 9.616V5.52H120.536C120.392 5.52 120.296 5.424 120.296 5.28V4.512C120.296 4.368 120.392 4.272 120.536 4.272H121.544V3.056C121.544 2.928 121.608 2.832 121.736 2.784L122.648 2.448C122.808 2.384 122.92 2.464 122.92 2.64V4.272H124.296C124.44 4.272 124.536 4.368 124.536 4.512V5.28C124.536 5.424 124.44 5.52 124.296 5.52H122.92V9.632C122.92 10.288 123.16 10.768 123.848 10.768C123.992 10.768 124.136 10.736 124.312 10.672C124.472 10.624 124.584 10.656 124.632 10.816L124.888 11.584Z" fill="#243746"/>
<path d="M126.293 11.952C126.149 11.952 126.053 11.856 126.053 11.712V10.72C126.053 10.576 126.149 10.48 126.293 10.48H127.285C127.429 10.48 127.525 10.576 127.525 10.72V11.712C127.525 11.856 127.429 11.952 127.285 11.952H126.293Z" fill="#243746"/>
</svg>
