<svg width="181" height="12" viewBox="0 0 181 12" fill="none" xmlns="http://www.w3.org/2000/svg">
<path d="M2.62343 11.2859C2.49543 11.2859 2.39943 11.2379 2.35143 11.0939L0.0154286 3.87789C-0.0325714 3.71789 0.0314286 3.60589 0.207429 3.60589H1.11943C1.24743 3.60589 1.35943 3.66989 1.39143 3.79789L3.03943 9.15789L4.63943 3.81389C4.67143 3.68589 4.78343 3.60589 4.91143 3.60589H5.82343C5.95143 3.60589 6.06343 3.68589 6.09543 3.81389L7.69543 9.15789L9.34343 3.79789C9.37543 3.66989 9.48743 3.60589 9.61543 3.60589H10.4954C10.6714 3.60589 10.7514 3.70189 10.7034 3.87789L8.38343 11.0939C8.33543 11.2379 8.23943 11.2859 8.11143 11.2859H7.27943C7.15143 11.2859 7.03943 11.2219 7.00743 11.0939L5.37543 5.76589L3.72743 11.0939C3.69543 11.2219 3.58343 11.2859 3.45543 11.2859H2.62343Z" fill="#243746"/>
<path d="M12.1398 11.2859C11.9958 11.2859 11.8998 11.1899 11.8998 11.0459V0.629891C11.8998 0.501891 11.9638 0.405892 12.0918 0.357892L13.0038 0.0218914C13.1638 -0.0421078 13.2758 0.0378912 13.2758 0.213891V4.54989C13.8198 3.74989 14.8118 3.41389 15.6758 3.41389C17.3718 3.41389 18.7158 4.58189 18.7158 6.85389V11.0459C18.7158 11.1899 18.6198 11.2859 18.4758 11.2859H17.5798C17.4358 11.2859 17.3398 11.1899 17.3398 11.0459V6.90189C17.3398 5.52589 16.5398 4.77389 15.3558 4.77389C14.1558 4.77389 13.2758 5.54189 13.2758 6.90189V11.0459C13.2758 11.1899 13.1798 11.2859 13.0358 11.2859H12.1398Z" fill="#243746"/>
<path d="M23.9644 11.4779C21.5324 11.4779 20.1244 9.62189 20.1244 7.42989C20.1244 4.98189 21.9484 3.41389 24.0444 3.41389C25.1004 3.41389 26.0764 3.81389 26.5724 4.48589V4.14989C26.5724 4.02189 26.6364 3.92589 26.7644 3.87789L27.6764 3.54189C27.8364 3.47789 27.9484 3.54189 27.9484 3.71789V11.0459C27.9484 11.1899 27.8524 11.2859 27.7084 11.2859H26.8124C26.6684 11.2859 26.5724 11.1899 26.5724 11.0459V10.4219C26.1244 10.9819 25.0684 11.4779 23.9644 11.4779ZM24.0604 10.1179C25.4844 10.1179 26.5884 9.20589 26.5884 7.42989C26.5884 5.66989 25.4844 4.75789 24.0604 4.75789C22.7004 4.75789 21.5324 5.66989 21.5324 7.42989C21.5324 9.18989 22.7004 10.1179 24.0604 10.1179Z" fill="#243746"/>
<path d="M33.6568 10.9179C33.7048 11.0459 33.6568 11.1739 33.4968 11.2539C33.1448 11.4139 32.8408 11.4779 32.5048 11.4779C30.7288 11.4779 30.3128 10.3259 30.3128 8.94989V4.85389H29.3048C29.1608 4.85389 29.0648 4.75789 29.0648 4.61389V3.84589C29.0648 3.70189 29.1608 3.60589 29.3048 3.60589H30.3128V2.38989C30.3128 2.26189 30.3768 2.16589 30.5048 2.11789L31.4168 1.78189C31.5768 1.71789 31.6888 1.79789 31.6888 1.97389V3.60589H33.0648C33.2088 3.60589 33.3048 3.70189 33.3048 3.84589V4.61389C33.3048 4.75789 33.2088 4.85389 33.0648 4.85389H31.6888V8.96589C31.6888 9.62189 31.9288 10.1019 32.6168 10.1019C32.7608 10.1019 32.9048 10.0699 33.0808 10.0059C33.2408 9.95789 33.3528 9.98989 33.4008 10.1499L33.6568 10.9179Z" fill="#243746"/>
<path d="M38.3651 3.41389C40.5571 3.41389 41.9011 5.14189 41.9011 7.06189V7.65389C41.9011 7.79789 41.8051 7.89389 41.6611 7.89389H35.8851C36.0611 9.14189 36.9411 10.1339 38.4931 10.1339C39.3571 10.1339 40.1251 9.82989 40.9091 9.25389C41.0531 9.15789 41.1651 9.17389 41.2451 9.30189L41.6931 9.97389C41.7731 10.0859 41.7571 10.2139 41.6451 10.3099C40.7811 11.0779 39.6131 11.4779 38.4771 11.4779C35.9491 11.4779 34.4451 9.79789 34.4451 7.49389C34.4451 4.96589 36.2051 3.41389 38.3651 3.41389ZM35.9331 6.64589H40.4451C40.3811 5.65389 39.6771 4.75789 38.3491 4.75789C37.1011 4.75789 36.2051 5.47789 35.9331 6.64589Z" fill="#243746"/>
<path d="M45.7774 11.2859C45.6494 11.2859 45.5374 11.2219 45.4894 11.0939L42.4654 3.87789C42.4014 3.71789 42.4814 3.60589 42.6574 3.60589H43.6814C43.8094 3.60589 43.9214 3.66989 43.9694 3.79789L46.2574 9.58989L48.5454 3.79789C48.5934 3.66989 48.7054 3.60589 48.8334 3.60589H49.8574C50.0334 3.60589 50.1134 3.71789 50.0494 3.87789L47.0254 11.0939C46.9774 11.2219 46.8654 11.2859 46.7374 11.2859H45.7774Z" fill="#243746"/>
<path d="M54.5451 3.41389C56.7371 3.41389 58.0811 5.14189 58.0811 7.06189V7.65389C58.0811 7.79789 57.9851 7.89389 57.8411 7.89389H52.0651C52.2411 9.14189 53.1211 10.1339 54.6731 10.1339C55.5371 10.1339 56.3051 9.82989 57.0891 9.25389C57.2331 9.15789 57.3451 9.17389 57.4251 9.30189L57.8731 9.97389C57.9531 10.0859 57.9371 10.2139 57.8251 10.3099C56.9611 11.0779 55.7931 11.4779 54.6571 11.4779C52.1291 11.4779 50.6251 9.79789 50.6251 7.49389C50.6251 4.96589 52.3851 3.41389 54.5451 3.41389ZM52.1131 6.64589H56.6251C56.5611 5.65389 55.8571 4.75789 54.5291 4.75789C53.2811 4.75789 52.3851 5.47789 52.1131 6.64589Z" fill="#243746"/>
<path d="M64.7644 4.34189C64.8124 4.48589 64.7644 4.59789 64.6204 4.66189L60.9564 6.18189V11.0459C60.9564 11.1899 60.8604 11.2859 60.7164 11.2859H59.8204C59.6764 11.2859 59.5804 11.1899 59.5804 11.0459V4.14989C59.5804 4.02189 59.6444 3.92589 59.7724 3.87789L60.6844 3.54189C60.8444 3.47789 60.9564 3.55789 60.9564 3.73389V4.83789L64.1564 3.50989C64.3004 3.44589 64.4124 3.49389 64.4764 3.63789L64.7644 4.34189Z" fill="#243746"/>
<path d="M73.1588 3.41389C75.3508 3.41389 76.6948 5.14189 76.6948 7.06189V7.65389C76.6948 7.79789 76.5988 7.89389 76.4548 7.89389H70.6788C70.8548 9.14189 71.7348 10.1339 73.2868 10.1339C74.1508 10.1339 74.9188 9.82989 75.7028 9.25389C75.8468 9.15789 75.9588 9.17389 76.0388 9.30189L76.4868 9.97389C76.5668 10.0859 76.5508 10.2139 76.4388 10.3099C75.5748 11.0779 74.4068 11.4779 73.2708 11.4779C70.7428 11.4779 69.2388 9.79789 69.2388 7.49389C69.2388 4.96589 70.9988 3.41389 73.1588 3.41389ZM70.7268 6.64589H75.2388C75.1748 5.65389 74.4708 4.75789 73.1428 4.75789C71.8948 4.75789 70.9988 5.47789 70.7268 6.64589Z" fill="#243746"/>
<path d="M78.4342 11.2859C78.2902 11.2859 78.1942 11.1899 78.1942 11.0459V0.629891C78.1942 0.501891 78.2582 0.405892 78.3862 0.357892L79.2982 0.0218914C79.4582 -0.0421078 79.5702 0.0378912 79.5702 0.213891V11.0459C79.5702 11.1899 79.4742 11.2859 79.3302 11.2859H78.4342Z" fill="#243746"/>
<path d="M84.0191 11.4779C82.8831 11.4779 81.7311 11.1099 81.0431 10.3099C80.9471 10.2139 80.9631 10.0859 81.0431 9.97389L81.5551 9.31789C81.6511 9.18989 81.7631 9.18989 81.8911 9.28589C82.3711 9.70189 83.011 10.1339 84.051 10.1339C85.043 10.1339 85.5871 9.81389 85.5871 9.18989C85.5871 8.54989 85.0271 8.29389 83.9871 8.03789C82.6911 7.71789 81.2671 7.33389 81.2671 5.76589C81.2671 4.38989 82.3551 3.41389 84.0671 3.41389C85.1711 3.41389 85.955 3.79789 86.467 4.21389C86.579 4.32589 86.5791 4.42189 86.4831 4.54989L85.9711 5.18989C85.8751 5.30189 85.7631 5.33389 85.6351 5.23789C85.2671 4.98189 84.7551 4.75789 84.0991 4.75789C83.3151 4.75789 82.6431 5.06189 82.6431 5.68589C82.6431 6.26189 83.2191 6.48589 84.3071 6.74189C85.8911 7.10989 86.9311 7.70189 86.9311 9.09389C86.9311 11.0459 85.1871 11.4779 84.0191 11.4779Z" fill="#243746"/>
<path d="M92.0382 3.41389C94.2302 3.41389 95.5742 5.14189 95.5742 7.06189V7.65389C95.5742 7.79789 95.4782 7.89389 95.3342 7.89389H89.5582C89.7342 9.14189 90.6142 10.1339 92.1662 10.1339C93.0302 10.1339 93.7982 9.82989 94.5822 9.25389C94.7262 9.15789 94.8382 9.17389 94.9182 9.30189L95.3662 9.97389C95.4462 10.0859 95.4302 10.2139 95.3182 10.3099C94.4542 11.0779 93.2862 11.4779 92.1502 11.4779C89.6222 11.4779 88.1182 9.79789 88.1182 7.49389C88.1182 4.96589 89.8782 3.41389 92.0382 3.41389ZM89.6062 6.64589H94.1182C94.0542 5.65389 93.3502 4.75789 92.0222 4.75789C90.7742 4.75789 89.8782 5.47789 89.6062 6.64589Z" fill="#243746"/>
<path d="M104.313 11.4779C102.025 11.4779 100.345 9.76589 100.345 7.44589C100.345 5.12589 102.025 3.41389 104.313 3.41389C105.337 3.41389 106.169 3.68589 106.777 4.13389C106.905 4.22989 106.905 4.34189 106.841 4.46989L106.425 5.18989C106.345 5.33389 106.233 5.36589 106.105 5.28589C105.753 5.06189 105.273 4.75789 104.409 4.75789C102.729 4.75789 101.753 5.94189 101.753 7.44589C101.753 8.94989 102.729 10.1339 104.409 10.1339C105.257 10.1339 105.753 9.86189 106.137 9.62189C106.265 9.55789 106.377 9.58989 106.457 9.71789L106.841 10.4219C106.905 10.5499 106.921 10.6459 106.873 10.6939C106.393 11.0779 105.433 11.4779 104.313 11.4779Z" fill="#243746"/>
<path d="M112.012 11.4779C109.708 11.4779 108.06 9.76589 108.06 7.44589C108.06 5.12589 109.708 3.41389 112.012 3.41389C114.316 3.41389 115.948 5.12589 115.948 7.44589C115.948 9.76589 114.316 11.4779 112.012 11.4779ZM112.012 10.1339C113.58 10.1339 114.54 8.94989 114.54 7.44589C114.54 5.94189 113.58 4.75789 112.012 4.75789C110.428 4.75789 109.468 5.94189 109.468 7.44589C109.468 8.94989 110.428 10.1339 112.012 10.1339Z" fill="#243746"/>
<path d="M117.693 11.2859C117.549 11.2859 117.453 11.1899 117.453 11.0459V4.14989C117.453 4.02189 117.517 3.92589 117.645 3.87789L118.557 3.54189C118.717 3.47789 118.829 3.55789 118.829 3.73389V4.54989C119.341 3.79789 120.157 3.41389 121.021 3.41389C121.885 3.41389 122.717 3.82989 123.197 4.72589C123.853 3.70189 124.813 3.41389 125.645 3.41389C127.325 3.41389 128.429 4.42189 128.429 6.69389V11.0459C128.429 11.1899 128.333 11.2859 128.189 11.2859H127.293C127.149 11.2859 127.053 11.1899 127.053 11.0459V6.86989C127.053 5.52589 126.429 4.77389 125.341 4.77389C124.253 4.77389 123.629 5.52589 123.629 6.86989V11.0459C123.629 11.1899 123.533 11.2859 123.389 11.2859H122.493C122.349 11.2859 122.253 11.1899 122.253 11.0459V6.86989C122.253 5.52589 121.629 4.77389 120.541 4.77389C119.453 4.77389 118.829 5.52589 118.829 6.86989V11.0459C118.829 11.1899 118.733 11.2859 118.589 11.2859H117.693Z" fill="#243746"/>
<path d="M133.754 3.41389C135.946 3.41389 137.29 5.14189 137.29 7.06189V7.65389C137.29 7.79789 137.194 7.89389 137.05 7.89389H131.274C131.45 9.14189 132.33 10.1339 133.882 10.1339C134.746 10.1339 135.514 9.82989 136.298 9.25389C136.442 9.15789 136.554 9.17389 136.634 9.30189L137.082 9.97389C137.162 10.0859 137.146 10.2139 137.034 10.3099C136.17 11.0779 135.002 11.4779 133.866 11.4779C131.338 11.4779 129.834 9.79789 129.834 7.49389C129.834 4.96589 131.594 3.41389 133.754 3.41389ZM131.322 6.64589H135.834C135.77 5.65389 135.066 4.75789 133.738 4.75789C132.49 4.75789 131.594 5.47789 131.322 6.64589Z" fill="#243746"/>
<path d="M141.477 11.4779C140.341 11.4779 139.189 11.1099 138.501 10.3099C138.405 10.2139 138.421 10.0859 138.501 9.97389L139.013 9.31789C139.109 9.18989 139.221 9.18989 139.349 9.28589C139.829 9.70189 140.469 10.1339 141.509 10.1339C142.501 10.1339 143.045 9.81389 143.045 9.18989C143.045 8.54989 142.485 8.29389 141.445 8.03789C140.149 7.71789 138.725 7.33389 138.725 5.76589C138.725 4.38989 139.813 3.41389 141.525 3.41389C142.629 3.41389 143.413 3.79789 143.925 4.21389C144.037 4.32589 144.037 4.42189 143.941 4.54989L143.429 5.18989C143.333 5.30189 143.221 5.33389 143.093 5.23789C142.725 4.98189 142.213 4.75789 141.557 4.75789C140.773 4.75789 140.101 5.06189 140.101 5.68589C140.101 6.26189 140.677 6.48589 141.765 6.74189C143.349 7.10989 144.389 7.70189 144.389 9.09389C144.389 11.0459 142.645 11.4779 141.477 11.4779Z" fill="#243746"/>
<path d="M149.6 11.2859C149.456 11.2859 149.36 11.1899 149.36 11.0459V4.14989C149.36 4.02189 149.424 3.92589 149.552 3.87789L150.464 3.54189C150.624 3.47789 150.736 3.55789 150.736 3.73389V4.54989C151.328 3.68589 152.24 3.41389 153.072 3.41389C154.8 3.41389 156.176 4.58189 156.176 6.85389V11.0459C156.176 11.1899 156.08 11.2859 155.936 11.2859H155.04C154.896 11.2859 154.8 11.1899 154.8 11.0459V6.90189C154.8 5.52589 154 4.77389 152.816 4.77389C151.616 4.77389 150.736 5.54189 150.736 6.90189V11.0459C150.736 11.1899 150.64 11.2859 150.496 11.2859H149.6Z" fill="#243746"/>
<path d="M161.504 3.41389C163.696 3.41389 165.04 5.14189 165.04 7.06189V7.65389C165.04 7.79789 164.944 7.89389 164.8 7.89389H159.024C159.2 9.14189 160.08 10.1339 161.632 10.1339C162.496 10.1339 163.264 9.82989 164.048 9.25389C164.192 9.15789 164.304 9.17389 164.384 9.30189L164.832 9.97389C164.912 10.0859 164.896 10.2139 164.784 10.3099C163.92 11.0779 162.752 11.4779 161.616 11.4779C159.088 11.4779 157.584 9.79789 157.584 7.49389C157.584 4.96589 159.344 3.41389 161.504 3.41389ZM159.072 6.64589H163.584C163.52 5.65389 162.816 4.75789 161.488 4.75789C160.24 4.75789 159.344 5.47789 159.072 6.64589Z" fill="#243746"/>
<path d="M172.56 10.9979C172.672 11.1739 172.608 11.2859 172.416 11.2859H171.36C171.232 11.2859 171.12 11.2379 171.056 11.1419L169.216 8.53389L167.376 11.1419C167.312 11.2379 167.2 11.2859 167.072 11.2859H166.016C165.824 11.2859 165.76 11.1579 165.872 10.9979L168.416 7.38189L165.952 3.89389C165.84 3.71789 165.904 3.60589 166.096 3.60589H167.152C167.28 3.60589 167.392 3.65389 167.456 3.74989L169.216 6.24589L170.976 3.74989C171.04 3.65389 171.152 3.60589 171.28 3.60589H172.336C172.528 3.60589 172.592 3.73389 172.48 3.89389L170.016 7.38189L172.56 10.9979Z" fill="#243746"/>
<path d="M178.035 10.9179C178.083 11.0459 178.035 11.1739 177.875 11.2539C177.523 11.4139 177.219 11.4779 176.883 11.4779C175.107 11.4779 174.691 10.3259 174.691 8.94989V4.85389H173.683C173.539 4.85389 173.443 4.75789 173.443 4.61389V3.84589C173.443 3.70189 173.539 3.60589 173.683 3.60589H174.691V2.38989C174.691 2.26189 174.755 2.16589 174.883 2.11789L175.795 1.78189C175.955 1.71789 176.067 1.79789 176.067 1.97389V3.60589H177.443C177.587 3.60589 177.683 3.70189 177.683 3.84589V4.61389C177.683 4.75789 177.587 4.85389 177.443 4.85389H176.067V8.96589C176.067 9.62189 176.307 10.1019 176.995 10.1019C177.139 10.1019 177.283 10.0699 177.459 10.0059C177.619 9.95789 177.731 9.98989 177.779 10.1499L178.035 10.9179Z" fill="#243746"/>
<path d="M179.44 11.2859C179.296 11.2859 179.2 11.1899 179.2 11.0459V10.0539C179.2 9.90989 179.296 9.81389 179.44 9.81389H180.432C180.576 9.81389 180.672 9.90989 180.672 10.0539V11.0459C180.672 11.1899 180.576 11.2859 180.432 11.2859H179.44Z" fill="#243746"/>
</svg>
