<svg width="131" height="15" viewBox="0 0 131 15" fill="none" xmlns="http://www.w3.org/2000/svg">
<path d="M6.848 0.104256C6.992 0.104256 7.088 0.200257 7.088 0.344256V1.24026C7.088 1.38426 6.992 1.48026 6.848 1.48026H1.44V5.19226H5.584C5.728 5.19226 5.824 5.28826 5.824 5.43226V6.32826C5.824 6.47226 5.728 6.56826 5.584 6.56826H1.44V11.0643C1.44 11.2083 1.344 11.3043 1.2 11.3043H0.24C0.0960001 11.3043 0 11.2083 0 11.0643V0.344256C0 0.200257 0.0960001 0.104256 0.24 0.104256H6.848Z" fill="#243746"/>
<path d="M13.3328 4.36026C13.3808 4.50426 13.3327 4.61626 13.1888 4.68026L9.52475 6.20026V11.0643C9.52475 11.2083 9.42875 11.3043 9.28475 11.3043H8.38875C8.24475 11.3043 8.14875 11.2083 8.14875 11.0643V4.16826C8.14875 4.04026 8.21275 3.94426 8.34075 3.89626L9.25275 3.56026C9.41275 3.49626 9.52475 3.57626 9.52475 3.75226V4.85626L12.7248 3.52826C12.8688 3.46426 12.9808 3.51226 13.0448 3.65626L13.3328 4.36026Z" fill="#243746"/>
<path d="M17.716 11.4963C15.412 11.4963 13.764 9.78426 13.764 7.46426C13.764 5.14426 15.412 3.43226 17.716 3.43226C20.02 3.43226 21.652 5.14426 21.652 7.46426C21.652 9.78426 20.02 11.4963 17.716 11.4963ZM17.716 10.1523C19.284 10.1523 20.244 8.96826 20.244 7.46426C20.244 5.96026 19.284 4.77626 17.716 4.77626C16.132 4.77626 15.172 5.96026 15.172 7.46426C15.172 8.96826 16.132 10.1523 17.716 10.1523Z" fill="#243746"/>
<path d="M23.3969 11.3043C23.2529 11.3043 23.1569 11.2083 23.1569 11.0643V4.16826C23.1569 4.04026 23.2209 3.94426 23.3489 3.89626L24.2609 3.56026C24.4209 3.49626 24.5329 3.57626 24.5329 3.75226V4.56826C25.0449 3.81626 25.8609 3.43226 26.7249 3.43226C27.5889 3.43226 28.4209 3.84826 28.9009 4.74426C29.5569 3.72026 30.5169 3.43226 31.3489 3.43226C33.0289 3.43226 34.1329 4.44026 34.1329 6.71226V11.0643C34.1329 11.2083 34.0369 11.3043 33.8929 11.3043H32.9969C32.8529 11.3043 32.7569 11.2083 32.7569 11.0643V6.88826C32.7569 5.54426 32.1329 4.79226 31.0449 4.79226C29.9569 4.79226 29.3329 5.54426 29.3329 6.88826V11.0643C29.3329 11.2083 29.2369 11.3043 29.0929 11.3043H28.1969C28.0529 11.3043 27.9569 11.2083 27.9569 11.0643V6.88826C27.9569 5.54426 27.3329 4.79226 26.2449 4.79226C25.1569 4.79226 24.5329 5.54426 24.5329 6.88826V11.0643C24.5329 11.2083 24.4369 11.3043 24.2929 11.3043H23.3969Z" fill="#243746"/>
<path d="M43.0173 11.4963C40.7132 11.4963 39.0653 9.78426 39.0653 7.46426C39.0653 5.14426 40.7132 3.43226 43.0173 3.43226C45.3213 3.43226 46.9533 5.14426 46.9533 7.46426C46.9533 9.78426 45.3213 11.4963 43.0173 11.4963ZM43.0173 10.1523C44.5853 10.1523 45.5453 8.96826 45.5453 7.46426C45.5453 5.96026 44.5853 4.77626 43.0173 4.77626C41.4332 4.77626 40.4733 5.96026 40.4733 7.46426C40.4733 8.96826 41.4332 10.1523 43.0173 10.1523Z" fill="#243746"/>
<path d="M48.6821 2.74426C48.5221 2.79226 48.4101 2.72826 48.4101 2.55226V1.41626C48.4101 1.28826 48.4741 1.19226 48.6021 1.14426L49.6101 0.760256C49.7701 0.696256 49.8821 0.776256 49.8821 0.952257V2.13626C49.8821 2.26426 49.8181 2.36026 49.6901 2.40826L48.6821 2.74426ZM48.6981 11.3043C48.5541 11.3043 48.4581 11.2083 48.4581 11.0643V4.16826C48.4581 4.04026 48.5221 3.94426 48.6501 3.89626L49.5621 3.56026C49.7221 3.49626 49.8341 3.57626 49.8341 3.75226V11.0643C49.8341 11.2083 49.7381 11.3043 49.5941 11.3043H48.6981Z" fill="#243746"/>
<path d="M51.835 11.3043C51.691 11.3043 51.595 11.2083 51.595 11.0643V0.648257C51.595 0.520256 51.659 0.424257 51.787 0.376256L52.699 0.0402559C52.859 -0.0237433 52.971 0.0562566 52.971 0.232256V11.0643C52.971 11.2083 52.875 11.3043 52.731 11.3043H51.835Z" fill="#243746"/>
<path d="M61.8434 11.4963C59.4114 11.4963 58.0034 9.64026 58.0034 7.44826C58.0034 5.00026 59.8274 3.43226 61.9234 3.43226C62.9794 3.43226 63.9554 3.83226 64.4514 4.50426V4.16826C64.4514 4.04026 64.5154 3.94426 64.6434 3.89626L65.5554 3.56026C65.7154 3.49626 65.8274 3.56026 65.8274 3.73626V11.0643C65.8274 11.2083 65.7314 11.3043 65.5874 11.3043H64.6914C64.5474 11.3043 64.4514 11.2083 64.4514 11.0643V10.4403C64.0034 11.0003 62.9474 11.4963 61.8434 11.4963ZM61.9394 10.1363C63.3634 10.1363 64.4674 9.22426 64.4674 7.44826C64.4674 5.68826 63.3634 4.77626 61.9394 4.77626C60.5794 4.77626 59.4114 5.68826 59.4114 7.44826C59.4114 9.20826 60.5794 10.1363 61.9394 10.1363Z" fill="#243746"/>
<path d="M67.8238 11.3043C67.6798 11.3043 67.5838 11.2083 67.5838 11.0643V4.16826C67.5838 4.04026 67.6477 3.94426 67.7757 3.89626L68.6878 3.56026C68.8478 3.49626 68.9598 3.57626 68.9598 3.75226V4.56826C69.5518 3.70426 70.4638 3.43226 71.2958 3.43226C73.0238 3.43226 74.3997 4.60026 74.3997 6.87226V11.0643C74.3997 11.2083 74.3038 11.3043 74.1598 11.3043H73.2638C73.1198 11.3043 73.0238 11.2083 73.0238 11.0643V6.92026C73.0238 5.54426 72.2237 4.79226 71.0397 4.79226C69.8397 4.79226 68.9598 5.56026 68.9598 6.92026V11.0643C68.9598 11.2083 68.8637 11.3043 68.7197 11.3043H67.8238Z" fill="#243746"/>
<path d="M79.6484 11.4963C77.2164 11.4963 75.8084 9.64026 75.8084 7.44826C75.8084 5.00026 77.6324 3.43226 79.7284 3.43226C80.7844 3.43226 81.7604 3.83226 82.2564 4.50426V0.632256C82.2564 0.504257 82.3204 0.408256 82.4484 0.360257L83.3604 0.0242561C83.5204 -0.039744 83.6324 0.0242561 83.6324 0.200257V11.0643C83.6324 11.2083 83.5364 11.3043 83.3924 11.3043H82.4964C82.3524 11.3043 82.2564 11.2083 82.2564 11.0643V10.4403C81.8084 11.0003 80.7524 11.4963 79.6484 11.4963ZM79.7444 10.1363C81.1684 10.1363 82.2724 9.22426 82.2724 7.44826C82.2724 5.68826 81.1684 4.77626 79.7444 4.77626C78.3844 4.77626 77.2164 5.68826 77.2164 7.44826C77.2164 9.20826 78.3844 10.1363 79.7444 10.1363Z" fill="#243746"/>
<path d="M92.4522 14.6963C91.3162 14.6963 90.1802 14.4243 89.0762 13.5923C88.9642 13.4963 88.9482 13.3843 89.0122 13.2563L89.4762 12.4563C89.5562 12.3123 89.6682 12.2963 89.8122 12.3923C90.5642 12.9683 91.4922 13.3523 92.4682 13.3523C94.1802 13.3523 95.1082 12.2643 95.1082 10.5363V10.4403C94.6922 10.9523 93.7162 11.4963 92.4522 11.4963C90.1002 11.4963 88.6602 9.64026 88.6602 7.46426C88.6602 5.00026 90.4842 3.43226 92.5802 3.43226C93.6362 3.43226 94.6122 3.83226 95.1082 4.50426V4.16826C95.1082 4.04026 95.1722 3.94426 95.3002 3.89626L96.2122 3.56026C96.3722 3.49626 96.4843 3.56026 96.4843 3.73626V10.2483C96.4843 13.3523 94.9162 14.6963 92.4522 14.6963ZM92.6123 10.1363C94.0043 10.1363 95.1243 9.22426 95.1243 7.44826C95.1243 5.68826 94.0043 4.77626 92.6123 4.77626C91.2203 4.77626 90.0683 5.68826 90.0683 7.44826C90.0683 9.20826 91.2203 10.1363 92.6123 10.1363Z" fill="#243746"/>
<path d="M101.825 11.4963C99.3926 11.4963 97.9846 9.64026 97.9846 7.44826C97.9846 5.00026 99.8086 3.43226 101.905 3.43226C102.961 3.43226 103.937 3.83226 104.433 4.50426V4.16826C104.433 4.04026 104.497 3.94426 104.625 3.89626L105.537 3.56026C105.697 3.49626 105.809 3.56026 105.809 3.73626V11.0643C105.809 11.2083 105.713 11.3043 105.569 11.3043H104.673C104.529 11.3043 104.433 11.2083 104.433 11.0643V10.4403C103.985 11.0003 102.929 11.4963 101.825 11.4963ZM101.921 10.1363C103.345 10.1363 104.449 9.22426 104.449 7.44826C104.449 5.68826 103.345 4.77626 101.921 4.77626C100.561 4.77626 99.3926 5.68826 99.3926 7.44826C99.3926 9.20826 100.561 10.1363 101.921 10.1363Z" fill="#243746"/>
<path d="M110.253 11.4963C109.117 11.4963 107.965 11.1283 107.277 10.3283C107.181 10.2323 107.197 10.1043 107.277 9.99226L107.789 9.33626C107.885 9.20826 107.997 9.20826 108.125 9.30426C108.605 9.72026 109.245 10.1523 110.285 10.1523C111.277 10.1523 111.821 9.83226 111.821 9.20826C111.821 8.56826 111.261 8.31226 110.221 8.05626C108.925 7.73626 107.501 7.35226 107.501 5.78426C107.501 4.40826 108.589 3.43226 110.301 3.43226C111.405 3.43226 112.189 3.81626 112.701 4.23226C112.813 4.34426 112.813 4.44026 112.717 4.56826L112.205 5.20826C112.109 5.32026 111.997 5.35226 111.869 5.25626C111.501 5.00026 110.989 4.77626 110.333 4.77626C109.549 4.77626 108.877 5.08026 108.877 5.70426C108.877 6.28026 109.453 6.50426 110.541 6.76026C112.125 7.12826 113.165 7.72026 113.165 9.11226C113.165 11.0643 111.421 11.4963 110.253 11.4963Z" fill="#243746"/>
<path d="M122.088 10.9363C122.136 11.0643 122.088 11.1923 121.928 11.2723C121.576 11.4323 121.272 11.4963 120.936 11.4963C119.16 11.4963 118.744 10.3443 118.744 8.96826V4.87226H117.736C117.592 4.87226 117.496 4.77626 117.496 4.63226V3.86426C117.496 3.72026 117.592 3.62426 117.736 3.62426H118.744V2.40826C118.744 2.28026 118.808 2.18426 118.936 2.13626L119.848 1.80026C120.008 1.73626 120.12 1.81626 120.12 1.99226V3.62426H121.496C121.64 3.62426 121.736 3.72026 121.736 3.86426V4.63226C121.736 4.77626 121.64 4.87226 121.496 4.87226H120.12V8.98426C120.12 9.64026 120.36 10.1203 121.048 10.1203C121.192 10.1203 121.336 10.0883 121.512 10.0243C121.672 9.97626 121.784 10.0083 121.832 10.1683L122.088 10.9363Z" fill="#243746"/>
<path d="M126.828 11.4963C124.524 11.4963 122.876 9.78426 122.876 7.46426C122.876 5.14426 124.524 3.43226 126.828 3.43226C129.132 3.43226 130.764 5.14426 130.764 7.46426C130.764 9.78426 129.132 11.4963 126.828 11.4963ZM126.828 10.1523C128.396 10.1523 129.356 8.96826 129.356 7.46426C129.356 5.96026 128.396 4.77626 126.828 4.77626C125.244 4.77626 124.284 5.96026 124.284 7.46426C124.284 8.96826 125.244 10.1523 126.828 10.1523Z" fill="#243746"/>
</svg>
