<?xml version="1.0" encoding="UTF-8"?><svg id="Layer_2" xmlns="http://www.w3.org/2000/svg" width="170.26" height="45.66" viewBox="0 0 170.26 45.66"><defs><style>.cls-1{fill:#ff1243;}</style></defs><g id="Layer_2-2"><path class="cls-1" d="M169.3,9.66c-.2-.5-.7-.7-1.2-.4s-10,5.9-10,5.9v-5.2c0-.6-.4-.8-.9-.6l-3.1,1.1c-.4.2-.6.5-.6.9v22.8c0,.5.3.8.8.8h3c.5,0,.8-.3.8-.8v-14s11.1-6.9,11.6-7.2c.4-.3.7-.5.5-1-.2-.6-.9-2.4-.9-2.4"/><path class="cls-1" d="M24.7,20.66c0-6.4-4.3-11.7-11.6-11.7S0,14.06,0,22.46s5,13.2,13.4,13.2,7.6-1.3,10.5-3.9c.4-.3.4-.7.1-1.1l-1.4-2.2c-.3-.4-.7-.5-1.1-.2-2.6,1.9-5.2,2.9-8.1,2.9-5.3,0-8.3-3.5-8.6-7.9h19.2c.5,0,.8-.4.8-.8v-1.8h-.1ZM5,19.26c1-3.7,3.9-5.9,7.9-5.9s6.7,2.6,6.9,5.9H5Z"/><path class="cls-1" d="M50.5,45.66h3c.5,0,.8-.3.8-.8V9.96c0-.6-.4-.8-1-.6l-3,1.1c-.4.2-.6.5-.6.9v1.1c-1.6-2.2-4.9-3.5-8.4-3.5-6.9,0-13,5.2-13,13.4s4.7,13.3,12.7,13.3,7.2-1.6,8.6-3.5v12.7c0,.5.3.8.8.8M41.4,31.16c-4.5,0-8.4-3.1-8.4-8.9s3.9-8.8,8.4-8.8,8.4,3,8.4,8.8-3.7,8.9-8.4,8.9"/><path class="cls-1" d="M69.4,35.66c2.8,0,5.8-.9,7.7-3.8v2.3c0,.5.3.8.8.8h3c.5,0,.8-.3.8-.8V9.96c0-.6-.4-.8-.9-.6l-3.1,1.1c-.4.2-.6.5-.6.9v12.7c0,4.5-2.9,7.1-6.9,7.1s-6.6-2.5-6.6-7.1v-14.1c0-.6-.4-.8-.9-.6l-3.1,1.1c-.4.2-.6.5-.6.9v12.9c0,7.5,4.6,11.4,10.3,11.4"/><path class="cls-1" d="M87.8,6.66l3.2-1.1c.5-.2.7-.4.7-1V.66c0-.5-.4-.8-.9-.6l-3.2,1.2c-.5.2-.7.4-.7.9v3.7c0,.6.3,1,.9.7"/><path class="cls-1" d="M87.9,35.06h3c.5,0,.8-.3.8-.8V9.96c0-.6-.4-.8-.9-.6l-3.1,1.1c-.4.2-.6.5-.6.9v22.8c0,.5.3.8.8.8"/><path class="cls-1" d="M97.9,35.06h3c.5,0,.8-.3.8-.8v-13.7c0-4.5,2.9-7.1,6.9-7.1s6.6,2.5,6.6,7.1v13.7c0,.5.3.8.8.8h3c.5,0,.8-.3.8-.8v-13.9c0-7.5-4.6-11.4-10.3-11.4s-5.8.9-7.7,3.8v-2.8c0-.6-.4-.8-.9-.6l-3.1,1.1c-.4.2-.6.5-.6.9v22.8c0,.5.3.8.8.8"/><path class="cls-1" d="M136.7,8.96c-7.6,0-13.1,5.7-13.1,13.4s5.5,13.3,13.1,13.3,13-5.7,13-13.3-5.4-13.3-13-13.3M136.7,31.26c-5.2,0-8.4-3.9-8.4-8.9s3.2-8.9,8.4-8.9,8.4,3.9,8.4,8.9-3.2,8.9-8.4,8.9"/></g></svg>