<svg width="188" height="29" viewBox="0 0 188 29" fill="none" xmlns="http://www.w3.org/2000/svg">
<g clip-path="url(#clip0_13_125)">
<path d="M12.45 5.65H4V10.7H10.475C10.7 10.7 10.85 10.85 10.85 11.075V12.475C10.85 12.7 10.7 12.85 10.475 12.85H4V18.85H12.45C12.675 18.85 12.825 19 12.825 19.225V20.625C12.825 20.85 12.675 21 12.45 21H2.125C1.9 21 1.75 20.85 1.75 20.625V3.875C1.75 3.65 1.9 3.5 2.125 3.5H12.45C12.675 3.5 12.825 3.65 12.825 3.875V5.275C12.825 5.5 12.675 5.65 12.45 5.65ZM15.7422 21C15.5172 21 15.3672 20.85 15.3672 20.625V9.85C15.3672 9.65 15.4672 9.5 15.6672 9.425L17.0922 8.9C17.3422 8.8 17.5172 8.925 17.5172 9.2V10.475C18.4422 9.125 19.8672 8.7 21.1672 8.7C23.8672 8.7 26.0172 10.525 26.0172 14.075V20.625C26.0172 20.85 25.8672 21 25.6422 21H24.2422C24.0172 21 23.8672 20.85 23.8672 20.625V14.15C23.8672 12 22.6172 10.825 20.7672 10.825C18.8922 10.825 17.5172 12.025 17.5172 14.15V20.625C17.5172 20.85 17.3672 21 17.1422 21H15.7422ZM34.5932 8.7C38.0182 8.7 40.1182 11.4 40.1182 14.4V15.325C40.1182 15.55 39.9682 15.7 39.7432 15.7H30.7182C30.9932 17.65 32.3682 19.2 34.7932 19.2C36.1432 19.2 37.3432 18.725 38.5682 17.825C38.7932 17.675 38.9682 17.7 39.0932 17.9L39.7932 18.95C39.9182 19.125 39.8932 19.325 39.7182 19.475C38.3682 20.675 36.5432 21.3 34.7682 21.3C30.8182 21.3 28.4682 18.675 28.4682 15.075C28.4682 11.125 31.2182 8.7 34.5932 8.7ZM30.7932 13.75H37.8432C37.7432 12.2 36.6432 10.8 34.5682 10.8C32.6182 10.8 31.2182 11.925 30.7932 13.75ZM50.8109 10.15C50.8859 10.375 50.8109 10.55 50.5859 10.65L44.8609 13.025V20.625C44.8609 20.85 44.7109 21 44.4859 21H43.0859C42.8609 21 42.7109 20.85 42.7109 20.625V9.85C42.7109 9.65 42.8109 9.5 43.0109 9.425L44.4359 8.9C44.6859 8.8 44.8609 8.925 44.8609 9.2V10.925L49.8609 8.85C50.0859 8.75 50.2609 8.825 50.3609 9.05L50.8109 10.15ZM57.6598 26.3C55.8848 26.3 54.1098 25.875 52.3848 24.575C52.2098 24.425 52.1848 24.25 52.2848 24.05L53.0098 22.8C53.1348 22.575 53.3098 22.55 53.5348 22.7C54.7098 23.6 56.1598 24.2 57.6848 24.2C60.3598 24.2 61.8098 22.5 61.8098 19.8V19.65C61.1598 20.45 59.6348 21.3 57.6598 21.3C53.9848 21.3 51.7348 18.4 51.7348 15C51.7348 11.15 54.5848 8.7 57.8598 8.7C59.5098 8.7 61.0348 9.325 61.8098 10.375V9.85C61.8098 9.65 61.9098 9.5 62.1098 9.425L63.5348 8.9C63.7848 8.8 63.9598 8.9 63.9598 9.175V19.35C63.9598 24.2 61.5098 26.3 57.6598 26.3ZM57.9098 19.175C60.0848 19.175 61.8348 17.75 61.8348 14.975C61.8348 12.225 60.0848 10.8 57.9098 10.8C55.7348 10.8 53.9348 12.225 53.9348 14.975C53.9348 17.725 55.7348 19.175 57.9098 19.175ZM77.1541 9C77.4291 9 77.5541 9.175 77.4541 9.425L70.4791 25.725C70.4041 25.925 70.2541 26 70.0541 26H68.4791C68.2041 26 68.0791 25.825 68.1791 25.575L70.5791 19.95L66.0791 9.425C65.9791 9.175 66.1041 9 66.3791 9H67.9791C68.1791 9 68.3541 9.1 68.4291 9.3L71.7541 17.2L75.1041 9.3C75.1791 9.1 75.3291 9 75.5291 9H77.1541ZM89.5379 21.3C87.7629 21.3 85.9629 20.725 84.8879 19.475C84.7379 19.325 84.7629 19.125 84.8879 18.95L85.6879 17.925C85.8379 17.725 86.0129 17.725 86.2129 17.875C86.9629 18.525 87.9629 19.2 89.5879 19.2C91.1379 19.2 91.9879 18.7 91.9879 17.725C91.9879 16.725 91.1129 16.325 89.4879 15.925C87.4629 15.425 85.2379 14.825 85.2379 12.375C85.2379 10.225 86.9379 8.7 89.6129 8.7C91.3379 8.7 92.5629 9.3 93.3629 9.95C93.5379 10.125 93.5379 10.275 93.3879 10.475L92.5879 11.475C92.4379 11.65 92.2629 11.7 92.0629 11.55C91.4879 11.15 90.6879 10.8 89.6629 10.8C88.4379 10.8 87.3879 11.275 87.3879 12.25C87.3879 13.15 88.2879 13.5 89.9879 13.9C92.4629 14.475 94.0879 15.4 94.0879 17.575C94.0879 20.625 91.3629 21.3 89.5379 21.3ZM102.318 8.7C105.743 8.7 107.843 11.4 107.843 14.4V15.325C107.843 15.55 107.693 15.7 107.468 15.7H98.4428C98.7178 17.65 100.093 19.2 102.518 19.2C103.868 19.2 105.068 18.725 106.293 17.825C106.518 17.675 106.693 17.7 106.818 17.9L107.518 18.95C107.643 19.125 107.618 19.325 107.443 19.475C106.093 20.675 104.268 21.3 102.493 21.3C98.5428 21.3 96.1928 18.675 96.1928 15.075C96.1928 11.125 98.9428 8.7 102.318 8.7ZM98.5178 13.75H105.568C105.468 12.2 104.368 10.8 102.293 10.8C100.343 10.8 98.9428 11.925 98.5178 13.75ZM116.236 21.3C112.661 21.3 110.036 18.625 110.036 15C110.036 11.375 112.661 8.7 116.236 8.7C117.836 8.7 119.136 9.125 120.086 9.825C120.286 9.975 120.286 10.15 120.186 10.35L119.536 11.475C119.411 11.7 119.236 11.75 119.036 11.625C118.486 11.275 117.736 10.8 116.386 10.8C113.761 10.8 112.236 12.65 112.236 15C112.236 17.35 113.761 19.2 116.386 19.2C117.711 19.2 118.486 18.775 119.086 18.4C119.286 18.3 119.461 18.35 119.586 18.55L120.186 19.65C120.286 19.85 120.311 20 120.236 20.075C119.486 20.675 117.986 21.3 116.236 21.3ZM127.587 21.3C124.887 21.3 122.737 19.475 122.737 15.925V9.85C122.737 9.65 122.837 9.5 123.037 9.425L124.462 8.9C124.712 8.8 124.887 8.925 124.887 9.2V15.85C124.887 18 126.137 19.175 127.987 19.175C129.862 19.175 131.237 17.975 131.237 15.85V9.85C131.237 9.65 131.337 9.5 131.537 9.425L132.962 8.9C133.212 8.8 133.387 8.925 133.387 9.2V20.625C133.387 20.85 133.237 21 133.012 21H131.612C131.387 21 131.237 20.85 131.237 20.625V19.525C130.312 20.875 128.887 21.3 127.587 21.3ZM144.488 10.15C144.563 10.375 144.488 10.55 144.263 10.65L138.538 13.025V20.625C138.538 20.85 138.388 21 138.163 21H136.763C136.538 21 136.388 20.85 136.388 20.625V9.85C136.388 9.65 136.488 9.5 136.688 9.425L138.113 8.9C138.363 8.8 138.538 8.925 138.538 9.2V10.925L143.538 8.85C143.763 8.75 143.938 8.825 144.038 9.05L144.488 10.15ZM146.967 7.625C146.717 7.7 146.542 7.6 146.542 7.325V5.55C146.542 5.35 146.642 5.2 146.842 5.125L148.417 4.525C148.667 4.425 148.842 4.55 148.842 4.825V6.675C148.842 6.875 148.742 7.025 148.542 7.1L146.967 7.625ZM146.992 21C146.767 21 146.617 20.85 146.617 20.625V9.85C146.617 9.65 146.717 9.5 146.917 9.425L148.342 8.9C148.592 8.8 148.767 8.925 148.767 9.2V20.625C148.767 20.85 148.617 21 148.392 21H146.992ZM157.944 20.425C158.019 20.625 157.944 20.825 157.694 20.95C157.144 21.2 156.669 21.3 156.144 21.3C153.369 21.3 152.719 19.5 152.719 17.35V10.95H151.144C150.919 10.95 150.769 10.8 150.769 10.575V9.375C150.769 9.15 150.919 9 151.144 9H152.719V7.1C152.719 6.9 152.819 6.75 153.019 6.675L154.444 6.15C154.694 6.05 154.869 6.175 154.869 6.45V9H157.019C157.244 9 157.394 9.15 157.394 9.375V10.575C157.394 10.8 157.244 10.95 157.019 10.95H154.869V17.375C154.869 18.4 155.244 19.15 156.319 19.15C156.544 19.15 156.769 19.1 157.044 19C157.294 18.925 157.469 18.975 157.544 19.225L157.944 20.425ZM170.465 9C170.74 9 170.865 9.175 170.765 9.425L163.79 25.725C163.715 25.925 163.565 26 163.365 26H161.79C161.515 26 161.39 25.825 161.49 25.575L163.89 19.95L159.39 9.425C159.29 9.175 159.415 9 159.69 9H161.29C161.49 9 161.665 9.1 161.74 9.3L165.065 17.2L168.415 9.3C168.49 9.1 168.64 9 168.84 9H170.465ZM9.6 37.15C9.675 37.375 9.6 37.55 9.375 37.65L3.65 40.025V47.625C3.65 47.85 3.5 48 3.275 48H1.875C1.65 48 1.5 47.85 1.5 47.625V36.85C1.5 36.65 1.6 36.5 1.8 36.425L3.225 35.9C3.475 35.8 3.65 35.925 3.65 36.2V37.925L8.65 35.85C8.875 35.75 9.05 35.825 9.15 36.05L9.6 37.15ZM16.6488 35.7C20.0738 35.7 22.1738 38.4 22.1738 41.4V42.325C22.1738 42.55 22.0238 42.7 21.7988 42.7H12.7738C13.0488 44.65 14.4238 46.2 16.8488 46.2C18.1988 46.2 19.3988 45.725 20.6238 44.825C20.8488 44.675 21.0238 44.7 21.1488 44.9L21.8488 45.95C21.9738 46.125 21.9488 46.325 21.7738 46.475C20.4238 47.675 18.5988 48.3 16.8238 48.3C12.8738 48.3 10.5238 45.675 10.5238 42.075C10.5238 38.125 13.2738 35.7 16.6488 35.7ZM12.8488 40.75H19.8988C19.7988 39.2 18.6988 37.8 16.6238 37.8C14.6738 37.8 13.2738 38.925 12.8488 40.75ZM34.8166 53C34.5916 53 34.4416 52.85 34.4416 52.625V46.65C33.7416 47.525 32.0916 48.3 30.3666 48.3C26.5666 48.3 24.3666 45.4 24.3666 41.975C24.3666 38.15 27.2166 35.7 30.4916 35.7C32.1416 35.7 33.6666 36.325 34.4416 37.375V36.85C34.4416 36.65 34.5416 36.5 34.7416 36.425L36.1666 35.9C36.4166 35.8 36.5916 35.9 36.5916 36.175V52.625C36.5916 52.85 36.4416 53 36.2166 53H34.8166ZM30.5166 46.175C32.7416 46.175 34.4666 44.75 34.4666 41.975C34.4666 39.225 32.7416 37.8 30.5166 37.8C28.3916 37.8 26.5666 39.225 26.5666 41.975C26.5666 44.725 28.3916 46.175 30.5166 46.175ZM44.2859 48.3C41.5859 48.3 39.4359 46.475 39.4359 42.925V36.85C39.4359 36.65 39.5359 36.5 39.7359 36.425L41.1609 35.9C41.4109 35.8 41.5859 35.925 41.5859 36.2V42.85C41.5859 45 42.8359 46.175 44.6859 46.175C46.5609 46.175 47.9359 44.975 47.9359 42.85V36.85C47.9359 36.65 48.0359 36.5 48.2359 36.425L49.6609 35.9C49.9109 35.8 50.0859 35.925 50.0859 36.2V47.625C50.0859 47.85 49.9359 48 49.7109 48H48.3109C48.0859 48 47.9359 47.85 47.9359 47.625V46.525C47.0109 47.875 45.5859 48.3 44.2859 48.3ZM53.4369 34.625C53.1869 34.7 53.0119 34.6 53.0119 34.325V32.55C53.0119 32.35 53.1119 32.2 53.3119 32.125L54.8869 31.525C55.1369 31.425 55.3119 31.55 55.3119 31.825V33.675C55.3119 33.875 55.2119 34.025 55.0119 34.1L53.4369 34.625ZM53.4619 48C53.2369 48 53.0869 47.85 53.0869 47.625V36.85C53.0869 36.65 53.1869 36.5 53.3869 36.425L54.8119 35.9C55.0619 35.8 55.2369 35.925 55.2369 36.2V47.625C55.2369 47.85 55.0869 48 54.8619 48H53.4619ZM66.3383 37.15C66.4133 37.375 66.3383 37.55 66.1133 37.65L60.3883 40.025V47.625C60.3883 47.85 60.2383 48 60.0133 48H58.6133C58.3883 48 58.2383 47.85 58.2383 47.625V36.85C58.2383 36.65 58.3383 36.5 58.5383 36.425L59.9633 35.9C60.2133 35.8 60.3883 35.925 60.3883 36.2V37.925L65.3883 35.85C65.6133 35.75 65.7883 35.825 65.8883 36.05L66.3383 37.15ZM73.3871 35.7C76.8121 35.7 78.9121 38.4 78.9121 41.4V42.325C78.9121 42.55 78.7621 42.7 78.5371 42.7H69.5121C69.7871 44.65 71.1621 46.2 73.5871 46.2C74.9371 46.2 76.1371 45.725 77.3621 44.825C77.5871 44.675 77.7621 44.7 77.8871 44.9L78.5871 45.95C78.7121 46.125 78.6871 46.325 78.5121 46.475C77.1621 47.675 75.3371 48.3 73.5621 48.3C69.6121 48.3 67.2621 45.675 67.2621 42.075C67.2621 38.125 70.0121 35.7 73.3871 35.7ZM69.5871 40.75H76.6371C76.5371 39.2 75.4371 37.8 73.3621 37.8C71.4121 37.8 70.0121 38.925 69.5871 40.75ZM85.7049 48.3C83.9299 48.3 82.1299 47.725 81.0549 46.475C80.9049 46.325 80.9299 46.125 81.0549 45.95L81.8549 44.925C82.0049 44.725 82.1799 44.725 82.3799 44.875C83.1299 45.525 84.1299 46.2 85.7549 46.2C87.3049 46.2 88.1549 45.7 88.1549 44.725C88.1549 43.725 87.2799 43.325 85.6549 42.925C83.6299 42.425 81.4049 41.825 81.4049 39.375C81.4049 37.225 83.1049 35.7 85.7799 35.7C87.5049 35.7 88.7299 36.3 89.5299 36.95C89.7049 37.125 89.7049 37.275 89.5549 37.475L88.7549 38.475C88.6049 38.65 88.4299 38.7 88.2299 38.55C87.6549 38.15 86.8549 37.8 85.8299 37.8C84.6049 37.8 83.5549 38.275 83.5549 39.25C83.5549 40.15 84.4549 40.5 86.1549 40.9C88.6299 41.475 90.2549 42.4 90.2549 44.575C90.2549 47.625 87.5299 48.3 85.7049 48.3ZM104.121 48.3C100.321 48.3 98.1215 45.4 98.1215 41.975C98.1215 38.15 100.971 35.7 104.246 35.7C105.896 35.7 107.421 36.325 108.196 37.375V36.85C108.196 36.65 108.296 36.5 108.496 36.425L109.921 35.9C110.171 35.8 110.346 35.9 110.346 36.175V47.625C110.346 47.85 110.196 48 109.971 48H108.571C108.346 48 108.196 47.85 108.196 47.625V46.65C107.496 47.525 105.846 48.3 104.121 48.3ZM104.271 46.175C106.496 46.175 108.221 44.75 108.221 41.975C108.221 39.225 106.496 37.8 104.271 37.8C102.146 37.8 100.321 39.225 100.321 41.975C100.321 44.725 102.146 46.175 104.271 46.175ZM113.716 48C113.491 48 113.341 47.85 113.341 47.625V31.35C113.341 31.15 113.441 31 113.641 30.925L115.066 30.4C115.316 30.3 115.491 30.425 115.491 30.7V47.625C115.491 47.85 115.341 48 115.116 48H113.716ZM118.867 48C118.642 48 118.492 47.85 118.492 47.625V31.35C118.492 31.15 118.592 31 118.792 30.925L120.217 30.4C120.467 30.3 120.642 30.425 120.642 30.7V47.625C120.642 47.85 120.492 48 120.267 48H118.867ZM135.18 48.3C131.58 48.3 129.005 45.625 129.005 42C129.005 38.375 131.58 35.7 135.18 35.7C138.78 35.7 141.33 38.375 141.33 42C141.33 45.625 138.78 48.3 135.18 48.3ZM135.18 46.2C137.63 46.2 139.13 44.35 139.13 42C139.13 39.65 137.63 37.8 135.18 37.8C132.705 37.8 131.205 39.65 131.205 42C131.205 44.35 132.705 46.2 135.18 46.2ZM149.584 30.75C149.809 30.875 149.884 31.025 149.809 31.225L149.384 32.45C149.309 32.675 149.134 32.75 148.884 32.625C148.584 32.5 148.409 32.5 148.159 32.5C147.084 32.5 146.709 33.25 146.709 34.275V36H148.759C148.984 36 149.134 36.15 149.134 36.375V37.575C149.134 37.8 148.984 37.95 148.759 37.95H146.709V47.625C146.709 47.85 146.559 48 146.334 48H144.934C144.709 48 144.559 47.85 144.559 47.625V37.95H143.509C143.284 37.95 143.134 37.8 143.134 37.575V36.375C143.134 36.15 143.284 36 143.509 36H144.559V34.3C144.559 32.6 144.959 30.35 147.909 30.35C148.509 30.35 149.084 30.475 149.584 30.75ZM7.275 75.3C3.675 75.3 1.1 72.625 1.1 69C1.1 65.375 3.675 62.7 7.275 62.7C10.875 62.7 13.425 65.375 13.425 69C13.425 72.625 10.875 75.3 7.275 75.3ZM7.275 73.2C9.725 73.2 11.225 71.35 11.225 69C11.225 66.65 9.725 64.8 7.275 64.8C4.8 64.8 3.3 66.65 3.3 69C3.3 71.35 4.8 73.2 7.275 73.2ZM20.7264 75.3C18.0264 75.3 15.8764 73.475 15.8764 69.925V63.85C15.8764 63.65 15.9764 63.5 16.1764 63.425L17.6014 62.9C17.8514 62.8 18.0264 62.925 18.0264 63.2V69.85C18.0264 72 19.2764 73.175 21.1264 73.175C23.0014 73.175 24.3764 71.975 24.3764 69.85V63.85C24.3764 63.65 24.4764 63.5 24.6764 63.425L26.1014 62.9C26.3514 62.8 26.5264 62.925 26.5264 63.2V74.625C26.5264 74.85 26.3764 75 26.1514 75H24.7514C24.5264 75 24.3764 74.85 24.3764 74.625V73.525C23.4514 74.875 22.0264 75.3 20.7264 75.3ZM37.6273 64.15C37.7023 64.375 37.6273 64.55 37.4023 64.65L31.6773 67.025V74.625C31.6773 74.85 31.5273 75 31.3023 75H29.9023C29.6773 75 29.5273 74.85 29.5273 74.625V63.85C29.5273 63.65 29.6273 63.5 29.8273 63.425L31.2523 62.9C31.5023 62.8 31.6773 62.925 31.6773 63.2V64.925L36.6773 62.85C36.9023 62.75 37.0773 62.825 37.1773 63.05L37.6273 64.15ZM51.2436 62.7C54.6686 62.7 56.7686 65.4 56.7686 68.4V69.325C56.7686 69.55 56.6186 69.7 56.3936 69.7H47.3686C47.6436 71.65 49.0186 73.2 51.4436 73.2C52.7936 73.2 53.9936 72.725 55.2186 71.825C55.4436 71.675 55.6186 71.7 55.7436 71.9L56.4436 72.95C56.5686 73.125 56.5436 73.325 56.3686 73.475C55.0186 74.675 53.1936 75.3 51.4186 75.3C47.4686 75.3 45.1186 72.675 45.1186 69.075C45.1186 65.125 47.8686 62.7 51.2436 62.7ZM47.4436 67.75H54.4936C54.3936 66.2 53.2936 64.8 51.2186 64.8C49.2686 64.8 47.8686 65.925 47.4436 67.75ZM59.7363 75C59.5113 75 59.3613 74.85 59.3613 74.625V63.85C59.3613 63.65 59.4613 63.5 59.6613 63.425L61.0863 62.9C61.3363 62.8 61.5113 62.925 61.5113 63.2V64.475C62.4363 63.125 63.8613 62.7 65.1613 62.7C67.8613 62.7 70.0113 64.525 70.0113 68.075V74.625C70.0113 74.85 69.8613 75 69.6363 75H68.2363C68.0113 75 67.8613 74.85 67.8613 74.625V68.15C67.8613 66 66.6113 64.825 64.7613 64.825C62.8863 64.825 61.5113 66.025 61.5113 68.15V74.625C61.5113 74.85 61.3613 75 61.1363 75H59.7363ZM78.5873 62.7C82.0123 62.7 84.1123 65.4 84.1123 68.4V69.325C84.1123 69.55 83.9623 69.7 83.7373 69.7H74.7123C74.9873 71.65 76.3623 73.2 78.7873 73.2C80.1373 73.2 81.3373 72.725 82.5623 71.825C82.7873 71.675 82.9623 71.7 83.0873 71.9L83.7873 72.95C83.9123 73.125 83.8873 73.325 83.7123 73.475C82.3623 74.675 80.5373 75.3 78.7623 75.3C74.8123 75.3 72.4623 72.675 72.4623 69.075C72.4623 65.125 75.2123 62.7 78.5873 62.7ZM74.7873 67.75H81.8373C81.7373 66.2 80.6373 64.8 78.5623 64.8C76.6123 64.8 75.2123 65.925 74.7873 67.75ZM94.8051 64.15C94.8801 64.375 94.8051 64.55 94.5801 64.65L88.8551 67.025V74.625C88.8551 74.85 88.7051 75 88.4801 75H87.0801C86.8551 75 86.7051 74.85 86.7051 74.625V63.85C86.7051 63.65 86.8051 63.5 87.0051 63.425L88.4301 62.9C88.6801 62.8 88.8551 62.925 88.8551 63.2V64.925L93.8551 62.85C94.0801 62.75 94.2551 62.825 94.3551 63.05L94.8051 64.15ZM101.654 80.3C99.8789 80.3 98.1039 79.875 96.3789 78.575C96.2039 78.425 96.1789 78.25 96.2789 78.05L97.0039 76.8C97.1289 76.575 97.3039 76.55 97.5289 76.7C98.7039 77.6 100.154 78.2 101.679 78.2C104.354 78.2 105.804 76.5 105.804 73.8V73.65C105.154 74.45 103.629 75.3 101.654 75.3C97.9789 75.3 95.7289 72.4 95.7289 69C95.7289 65.15 98.5789 62.7 101.854 62.7C103.504 62.7 105.029 63.325 105.804 64.375V63.85C105.804 63.65 105.904 63.5 106.104 63.425L107.529 62.9C107.779 62.8 107.954 62.9 107.954 63.175V73.35C107.954 78.2 105.504 80.3 101.654 80.3ZM101.904 73.175C104.079 73.175 105.829 71.75 105.829 68.975C105.829 66.225 104.079 64.8 101.904 64.8C99.7289 64.8 97.9289 66.225 97.9289 68.975C97.9289 71.725 99.7289 73.175 101.904 73.175ZM121.148 63C121.423 63 121.548 63.175 121.448 63.425L114.473 79.725C114.398 79.925 114.248 80 114.048 80H112.473C112.198 80 112.073 79.825 112.173 79.575L114.573 73.95L110.073 63.425C109.973 63.175 110.098 63 110.373 63H111.973C112.173 63 112.348 63.1 112.423 63.3L115.748 71.2L119.098 63.3C119.173 63.1 119.323 63 119.523 63H121.148ZM122.694 75C122.469 75 122.319 74.85 122.319 74.625V73.075C122.319 72.85 122.469 72.7 122.694 72.7H124.244C124.469 72.7 124.619 72.85 124.619 73.075V74.625C124.619 74.85 124.469 75 124.244 75H122.694Z" fill="#243746"/>
</g>
<defs>
<clipPath id="clip0_13_125">
<rect width="188" height="29" fill="white"/>
</clipPath>
</defs>
</svg>
