<svg width="231" height="17" viewBox="0 0 231 17" fill="none" xmlns="http://www.w3.org/2000/svg">
<g clip-path="url(#clip0_13_128)">
<path d="M4.626 -27C4.482 -27 4.374 -27.054 4.32 -27.216L0.558 -39.294C0.504 -39.492 0.594 -39.6 0.792 -39.6H1.998C2.142 -39.6 2.268 -39.51 2.304 -39.366L5.238 -29.538L8.172 -39.366C8.208 -39.51 8.334 -39.6 8.478 -39.6H9.846C9.99 -39.6 10.116 -39.51 10.152 -39.366L13.086 -29.538L16.02 -39.366C16.056 -39.51 16.182 -39.6 16.326 -39.6H17.532C17.73 -39.6 17.82 -39.492 17.766 -39.294L14.004 -27.216C13.95 -27.054 13.842 -27 13.698 -27H12.474C12.33 -27 12.204 -27.09 12.168 -27.234L9.162 -37.134L6.156 -27.234C6.12 -27.09 5.994 -27 5.85 -27H4.626ZM22.0728 -35.856C24.5388 -35.856 26.0508 -33.912 26.0508 -31.752V-31.086C26.0508 -30.924 25.9428 -30.816 25.7808 -30.816H19.2828C19.4808 -29.412 20.4708 -28.296 22.2168 -28.296C23.1888 -28.296 24.0528 -28.638 24.9348 -29.286C25.0968 -29.394 25.2228 -29.376 25.3128 -29.232L25.8168 -28.476C25.9068 -28.35 25.8888 -28.206 25.7628 -28.098C24.7908 -27.234 23.4768 -26.784 22.1988 -26.784C19.3548 -26.784 17.6628 -28.674 17.6628 -31.266C17.6628 -34.11 19.6428 -35.856 22.0728 -35.856ZM19.3368 -32.22H24.4128C24.3408 -33.336 23.5488 -34.344 22.0548 -34.344C20.6508 -34.344 19.6428 -33.534 19.3368 -32.22ZM31.976 -27C31.814 -27 31.706 -27.108 31.706 -27.27V-38.988C31.706 -39.132 31.778 -39.24 31.922 -39.294L32.948 -39.672C33.128 -39.744 33.254 -39.654 33.254 -39.456V-27.27C33.254 -27.108 33.146 -27 32.984 -27H31.976ZM39.393 -26.784C36.801 -26.784 34.947 -28.71 34.947 -31.32C34.947 -33.93 36.801 -35.856 39.393 -35.856C41.985 -35.856 43.821 -33.93 43.821 -31.32C43.821 -28.71 41.985 -26.784 39.393 -26.784ZM39.393 -28.296C41.157 -28.296 42.237 -29.628 42.237 -31.32C42.237 -33.012 41.157 -34.344 39.393 -34.344C37.611 -34.344 36.531 -33.012 36.531 -31.32C36.531 -29.628 37.611 -28.296 39.393 -28.296ZM49.672 -26.784C47.08 -26.784 45.226 -28.71 45.226 -31.32C45.226 -33.93 47.08 -35.856 49.672 -35.856C52.264 -35.856 54.1 -33.93 54.1 -31.32C54.1 -28.71 52.264 -26.784 49.672 -26.784ZM49.672 -28.296C51.436 -28.296 52.516 -29.628 52.516 -31.32C52.516 -33.012 51.436 -34.344 49.672 -34.344C47.89 -34.344 46.81 -33.012 46.81 -31.32C46.81 -29.628 47.89 -28.296 49.672 -28.296ZM62.561 -27.324C62.705 -27.162 62.651 -27 62.417 -27H61.085C60.959 -27 60.851 -27.036 60.761 -27.144L57.341 -30.87V-27.27C57.341 -27.108 57.233 -27 57.071 -27H56.063C55.901 -27 55.793 -27.108 55.793 -27.27V-38.988C55.793 -39.132 55.865 -39.24 56.009 -39.294L57.035 -39.672C57.215 -39.744 57.341 -39.654 57.341 -39.456V-32.31L60.545 -35.496C60.653 -35.604 60.761 -35.64 60.887 -35.64H62.219C62.453 -35.64 62.525 -35.478 62.363 -35.316L58.691 -31.644L62.561 -27.324ZM72.0007 -39.42C72.1627 -39.33 72.2167 -39.222 72.1627 -39.078L71.8567 -38.196C71.8027 -38.034 71.6767 -37.98 71.4967 -38.07C71.2807 -38.16 71.1547 -38.16 70.9747 -38.16C70.2007 -38.16 69.9307 -37.62 69.9307 -36.882V-35.64H71.4067C71.5687 -35.64 71.6767 -35.532 71.6767 -35.37V-34.506C71.6767 -34.344 71.5687 -34.236 71.4067 -34.236H69.9307V-27.27C69.9307 -27.108 69.8227 -27 69.6607 -27H68.6527C68.4907 -27 68.3827 -27.108 68.3827 -27.27V-34.236H67.6267C67.4647 -34.236 67.3567 -34.344 67.3567 -34.506V-35.37C67.3567 -35.532 67.4647 -35.64 67.6267 -35.64H68.3827V-36.864C68.3827 -38.088 68.6707 -39.708 70.7947 -39.708C71.2267 -39.708 71.6407 -39.618 72.0007 -39.42ZM77.1121 -26.784C74.5201 -26.784 72.6661 -28.71 72.6661 -31.32C72.6661 -33.93 74.5201 -35.856 77.1121 -35.856C79.7041 -35.856 81.5401 -33.93 81.5401 -31.32C81.5401 -28.71 79.7041 -26.784 77.1121 -26.784ZM77.1121 -28.296C78.8761 -28.296 79.9561 -29.628 79.9561 -31.32C79.9561 -33.012 78.8761 -34.344 77.1121 -34.344C75.3301 -34.344 74.2501 -33.012 74.2501 -31.32C74.2501 -29.628 75.3301 -28.296 77.1121 -28.296ZM89.0651 -34.812C89.1191 -34.65 89.0651 -34.524 88.9031 -34.452L84.7811 -32.742V-27.27C84.7811 -27.108 84.6731 -27 84.5111 -27H83.5031C83.3411 -27 83.2331 -27.108 83.2331 -27.27V-35.028C83.2331 -35.172 83.3051 -35.28 83.4491 -35.334L84.4751 -35.712C84.6551 -35.784 84.7811 -35.694 84.7811 -35.496V-34.254L88.3811 -35.748C88.5431 -35.82 88.6691 -35.766 88.7411 -35.604L89.0651 -34.812ZM92.7224 -27C92.5784 -27 92.4704 -27.054 92.4164 -27.216L89.7884 -35.334C89.7344 -35.514 89.8064 -35.64 90.0044 -35.64H91.0304C91.1744 -35.64 91.3004 -35.568 91.3364 -35.424L93.1904 -29.394L94.9904 -35.406C95.0264 -35.55 95.1524 -35.64 95.2964 -35.64H96.3224C96.4664 -35.64 96.5924 -35.55 96.6284 -35.406L98.4284 -29.394L100.282 -35.424C100.318 -35.568 100.444 -35.64 100.588 -35.64H101.578C101.776 -35.64 101.866 -35.532 101.812 -35.334L99.2024 -27.216C99.1484 -27.054 99.0404 -27 98.8964 -27H97.9604C97.8164 -27 97.6904 -27.072 97.6544 -27.216L95.8184 -33.21L93.9644 -27.216C93.9284 -27.072 93.8024 -27 93.6584 -27H92.7224ZM106.891 -26.784C104.155 -26.784 102.571 -28.872 102.571 -31.338C102.571 -34.092 104.623 -35.856 106.981 -35.856C108.169 -35.856 109.267 -35.406 109.825 -34.65V-35.028C109.825 -35.172 109.897 -35.28 110.041 -35.334L111.067 -35.712C111.247 -35.784 111.373 -35.712 111.373 -35.514V-27.27C111.373 -27.108 111.265 -27 111.103 -27H110.095C109.933 -27 109.825 -27.108 109.825 -27.27V-27.972C109.321 -27.342 108.133 -26.784 106.891 -26.784ZM106.999 -28.314C108.601 -28.314 109.843 -29.34 109.843 -31.338C109.843 -33.318 108.601 -34.344 106.999 -34.344C105.469 -34.344 104.155 -33.318 104.155 -31.338C104.155 -29.358 105.469 -28.314 106.999 -28.314ZM119.181 -34.812C119.235 -34.65 119.181 -34.524 119.019 -34.452L114.897 -32.742V-27.27C114.897 -27.108 114.789 -27 114.627 -27H113.619C113.457 -27 113.349 -27.108 113.349 -27.27V-35.028C113.349 -35.172 113.421 -35.28 113.565 -35.334L114.591 -35.712C114.771 -35.784 114.897 -35.694 114.897 -35.496V-34.254L118.497 -35.748C118.659 -35.82 118.785 -35.766 118.857 -35.604L119.181 -34.812ZM123.987 -26.784C121.251 -26.784 119.667 -28.872 119.667 -31.338C119.667 -34.092 121.719 -35.856 124.077 -35.856C125.265 -35.856 126.363 -35.406 126.921 -34.65V-39.006C126.921 -39.15 126.993 -39.258 127.137 -39.312L128.163 -39.69C128.343 -39.762 128.469 -39.69 128.469 -39.492V-27.27C128.469 -27.108 128.361 -27 128.199 -27H127.191C127.029 -27 126.921 -27.108 126.921 -27.27V-27.972C126.417 -27.342 125.229 -26.784 123.987 -26.784ZM124.095 -28.314C125.697 -28.314 126.939 -29.34 126.939 -31.338C126.939 -33.318 125.697 -34.344 124.095 -34.344C122.565 -34.344 121.251 -33.318 121.251 -31.338C121.251 -29.358 122.565 -28.314 124.095 -28.314ZM138.859 -27.414C138.913 -27.27 138.859 -27.126 138.679 -27.036C138.283 -26.856 137.941 -26.784 137.563 -26.784C135.565 -26.784 135.097 -28.08 135.097 -29.628V-34.236H133.963C133.801 -34.236 133.693 -34.344 133.693 -34.506V-35.37C133.693 -35.532 133.801 -35.64 133.963 -35.64H135.097V-37.008C135.097 -37.152 135.169 -37.26 135.313 -37.314L136.339 -37.692C136.519 -37.764 136.645 -37.674 136.645 -37.476V-35.64H138.193C138.355 -35.64 138.463 -35.532 138.463 -35.37V-34.506C138.463 -34.344 138.355 -34.236 138.193 -34.236H136.645V-29.61C136.645 -28.872 136.915 -28.332 137.689 -28.332C137.851 -28.332 138.013 -28.368 138.211 -28.44C138.391 -28.494 138.517 -28.458 138.571 -28.278L138.859 -27.414ZM144.192 -26.784C141.6 -26.784 139.746 -28.71 139.746 -31.32C139.746 -33.93 141.6 -35.856 144.192 -35.856C146.784 -35.856 148.62 -33.93 148.62 -31.32C148.62 -28.71 146.784 -26.784 144.192 -26.784ZM144.192 -28.296C145.956 -28.296 147.036 -29.628 147.036 -31.32C147.036 -33.012 145.956 -34.344 144.192 -34.344C142.41 -34.344 141.33 -33.012 141.33 -31.32C141.33 -29.628 142.41 -28.296 144.192 -28.296ZM158.727 -27.414C158.781 -27.27 158.727 -27.126 158.547 -27.036C158.151 -26.856 157.809 -26.784 157.431 -26.784C155.433 -26.784 154.965 -28.08 154.965 -29.628V-34.236H153.831C153.669 -34.236 153.561 -34.344 153.561 -34.506V-35.37C153.561 -35.532 153.669 -35.64 153.831 -35.64H154.965V-37.008C154.965 -37.152 155.037 -37.26 155.181 -37.314L156.207 -37.692C156.387 -37.764 156.513 -37.674 156.513 -37.476V-35.64H158.061C158.223 -35.64 158.331 -35.532 158.331 -35.37V-34.506C158.331 -34.344 158.223 -34.236 158.061 -34.236H156.513V-29.61C156.513 -28.872 156.783 -28.332 157.557 -28.332C157.719 -28.332 157.881 -28.368 158.079 -28.44C158.259 -28.494 158.385 -28.458 158.439 -28.278L158.727 -27.414ZM163.934 -26.784C161.198 -26.784 159.614 -28.872 159.614 -31.338C159.614 -34.092 161.666 -35.856 164.024 -35.856C165.212 -35.856 166.31 -35.406 166.868 -34.65V-35.028C166.868 -35.172 166.94 -35.28 167.084 -35.334L168.11 -35.712C168.29 -35.784 168.416 -35.712 168.416 -35.514V-27.27C168.416 -27.108 168.308 -27 168.146 -27H167.138C166.976 -27 166.868 -27.108 166.868 -27.27V-27.972C166.364 -27.342 165.176 -26.784 163.934 -26.784ZM164.042 -28.314C165.644 -28.314 166.886 -29.34 166.886 -31.338C166.886 -33.318 165.644 -34.344 164.042 -34.344C162.512 -34.344 161.198 -33.318 161.198 -31.338C161.198 -29.358 162.512 -28.314 164.042 -28.314ZM174.568 -26.784C171.994 -26.784 170.104 -28.71 170.104 -31.32C170.104 -33.93 171.994 -35.856 174.568 -35.856C175.72 -35.856 176.656 -35.55 177.34 -35.046C177.484 -34.938 177.484 -34.812 177.412 -34.668L176.944 -33.858C176.854 -33.696 176.728 -33.66 176.584 -33.75C176.188 -34.002 175.648 -34.344 174.676 -34.344C172.786 -34.344 171.688 -33.012 171.688 -31.32C171.688 -29.628 172.786 -28.296 174.676 -28.296C175.63 -28.296 176.188 -28.602 176.62 -28.872C176.764 -28.944 176.89 -28.908 176.98 -28.764L177.412 -27.972C177.484 -27.828 177.502 -27.72 177.448 -27.666C176.908 -27.234 175.828 -26.784 174.568 -26.784ZM185.945 -27.324C186.089 -27.162 186.035 -27 185.801 -27H184.469C184.343 -27 184.235 -27.036 184.145 -27.144L180.725 -30.87V-27.27C180.725 -27.108 180.617 -27 180.455 -27H179.447C179.285 -27 179.177 -27.108 179.177 -27.27V-38.988C179.177 -39.132 179.249 -39.24 179.393 -39.294L180.419 -39.672C180.599 -39.744 180.725 -39.654 180.725 -39.456V-32.31L183.929 -35.496C184.037 -35.604 184.145 -35.64 184.271 -35.64H185.603C185.837 -35.64 185.909 -35.478 185.747 -35.316L182.075 -31.644L185.945 -27.324ZM187.546 -27C187.384 -27 187.276 -27.108 187.276 -27.27V-38.988C187.276 -39.132 187.348 -39.24 187.492 -39.294L188.518 -39.672C188.698 -39.744 188.824 -39.654 188.824 -39.456V-27.27C188.824 -27.108 188.716 -27 188.554 -27H187.546ZM191.057 -36.63C190.877 -36.576 190.751 -36.648 190.751 -36.846V-38.124C190.751 -38.268 190.823 -38.376 190.967 -38.43L192.101 -38.862C192.281 -38.934 192.407 -38.844 192.407 -38.646V-37.314C192.407 -37.17 192.335 -37.062 192.191 -37.008L191.057 -36.63ZM191.075 -27C190.913 -27 190.805 -27.108 190.805 -27.27V-35.028C190.805 -35.172 190.877 -35.28 191.021 -35.334L192.047 -35.712C192.227 -35.784 192.353 -35.694 192.353 -35.496V-27.27C192.353 -27.108 192.245 -27 192.083 -27H191.075ZM194.604 -27C194.442 -27 194.334 -27.108 194.334 -27.27V-35.028C194.334 -35.172 194.406 -35.28 194.55 -35.334L195.576 -35.712C195.756 -35.784 195.882 -35.694 195.882 -35.496V-34.578C196.548 -35.55 197.574 -35.856 198.51 -35.856C200.454 -35.856 202.002 -34.542 202.002 -31.986V-27.27C202.002 -27.108 201.894 -27 201.732 -27H200.724C200.562 -27 200.454 -27.108 200.454 -27.27V-31.932C200.454 -33.48 199.554 -34.326 198.222 -34.326C196.872 -34.326 195.882 -33.462 195.882 -31.932V-27.27C195.882 -27.108 195.774 -27 195.612 -27H194.604ZM207.853 -23.184C206.575 -23.184 205.297 -23.49 204.055 -24.426C203.929 -24.534 203.911 -24.66 203.983 -24.804L204.505 -25.704C204.595 -25.866 204.721 -25.884 204.883 -25.776C205.729 -25.128 206.773 -24.696 207.871 -24.696C209.797 -24.696 210.841 -25.92 210.841 -27.864V-27.972C210.373 -27.396 209.275 -26.784 207.853 -26.784C205.207 -26.784 203.587 -28.872 203.587 -31.32C203.587 -34.092 205.639 -35.856 207.997 -35.856C209.185 -35.856 210.283 -35.406 210.841 -34.65V-35.028C210.841 -35.172 210.913 -35.28 211.057 -35.334L212.083 -35.712C212.263 -35.784 212.389 -35.712 212.389 -35.514V-28.188C212.389 -24.696 210.625 -23.184 207.853 -23.184ZM208.033 -28.314C209.599 -28.314 210.859 -29.34 210.859 -31.338C210.859 -33.318 209.599 -34.344 208.033 -34.344C206.467 -34.344 205.171 -33.318 205.171 -31.338C205.171 -29.358 206.467 -28.314 208.033 -28.314ZM5.202 -15.856C7.668 -15.856 9.18 -13.912 9.18 -11.752V-11.086C9.18 -10.924 9.072 -10.816 8.91 -10.816H2.412C2.61 -9.412 3.6 -8.296 5.346 -8.296C6.318 -8.296 7.182 -8.638 8.064 -9.286C8.226 -9.394 8.352 -9.376 8.442 -9.232L8.946 -8.476C9.036 -8.35 9.018 -8.206 8.892 -8.098C7.92 -7.234 6.606 -6.784 5.328 -6.784C2.484 -6.784 0.792 -8.674 0.792 -11.266C0.792 -14.11 2.772 -15.856 5.202 -15.856ZM2.466 -12.22H7.542C7.47 -13.336 6.678 -14.344 5.184 -14.344C3.78 -14.344 2.772 -13.534 2.466 -12.22ZM11.1368 -7C10.9748 -7 10.8668 -7.108 10.8668 -7.27V-15.028C10.8668 -15.172 10.9388 -15.28 11.0828 -15.334L12.1088 -15.712C12.2888 -15.784 12.4148 -15.694 12.4148 -15.496V-14.578C13.0808 -15.55 14.1068 -15.856 15.0428 -15.856C16.9868 -15.856 18.5348 -14.542 18.5348 -11.986V-7.27C18.5348 -7.108 18.4268 -7 18.2648 -7H17.2568C17.0948 -7 16.9868 -7.108 16.9868 -7.27V-11.932C16.9868 -13.48 16.0868 -14.326 14.7548 -14.326C13.4048 -14.326 12.4148 -13.462 12.4148 -11.932V-7.27C12.4148 -7.108 12.3068 -7 12.1448 -7H11.1368ZM24.5295 -15.856C26.9955 -15.856 28.5075 -13.912 28.5075 -11.752V-11.086C28.5075 -10.924 28.3995 -10.816 28.2375 -10.816H21.7395C21.9375 -9.412 22.9275 -8.296 24.6735 -8.296C25.6455 -8.296 26.5095 -8.638 27.3915 -9.286C27.5535 -9.394 27.6795 -9.376 27.7695 -9.232L28.2735 -8.476C28.3635 -8.35 28.3455 -8.206 28.2195 -8.098C27.2475 -7.234 25.9335 -6.784 24.6555 -6.784C21.8115 -6.784 20.1195 -8.674 20.1195 -11.266C20.1195 -14.11 22.0995 -15.856 24.5295 -15.856ZM21.7935 -12.22H26.8695C26.7975 -13.336 26.0055 -14.344 24.5115 -14.344C23.1075 -14.344 22.0995 -13.534 21.7935 -12.22ZM36.0263 -14.812C36.0803 -14.65 36.0263 -14.524 35.8643 -14.452L31.7423 -12.742V-7.27C31.7423 -7.108 31.6343 -7 31.4723 -7H30.4643C30.3023 -7 30.1943 -7.108 30.1943 -7.27V-15.028C30.1943 -15.172 30.2663 -15.28 30.4103 -15.334L31.4363 -15.712C31.6163 -15.784 31.7423 -15.694 31.7423 -15.496V-14.254L35.3423 -15.748C35.5043 -15.82 35.6303 -15.766 35.7023 -15.604L36.0263 -14.812ZM40.7775 -3.184C39.4995 -3.184 38.2215 -3.49 36.9795 -4.426C36.8535 -4.534 36.8355 -4.66 36.9075 -4.804L37.4295 -5.704C37.5195 -5.866 37.6455 -5.884 37.8075 -5.776C38.6535 -5.128 39.6975 -4.696 40.7955 -4.696C42.7215 -4.696 43.7655 -5.92 43.7655 -7.864V-7.972C43.2975 -7.396 42.1995 -6.784 40.7775 -6.784C38.1315 -6.784 36.5115 -8.872 36.5115 -11.32C36.5115 -14.092 38.5635 -15.856 40.9215 -15.856C42.1095 -15.856 43.2075 -15.406 43.7655 -14.65V-15.028C43.7655 -15.172 43.8375 -15.28 43.9815 -15.334L45.0075 -15.712C45.1875 -15.784 45.3135 -15.712 45.3135 -15.514V-8.188C45.3135 -4.696 43.5495 -3.184 40.7775 -3.184ZM40.9575 -8.314C42.5235 -8.314 43.7835 -9.34 43.7835 -11.338C43.7835 -13.318 42.5235 -14.344 40.9575 -14.344C39.3915 -14.344 38.0955 -13.318 38.0955 -11.338C38.0955 -9.358 39.3915 -8.314 40.9575 -8.314ZM54.6334 -15.64C54.8314 -15.64 54.9214 -15.514 54.8494 -15.334L49.8274 -3.598C49.7734 -3.454 49.6654 -3.4 49.5214 -3.4H48.3874C48.1894 -3.4 48.0994 -3.526 48.1714 -3.706L49.8994 -7.756L46.6594 -15.334C46.5874 -15.514 46.6774 -15.64 46.8754 -15.64H48.0274C48.1714 -15.64 48.2974 -15.568 48.3514 -15.424L50.7454 -9.736L53.1574 -15.424C53.2114 -15.568 53.3194 -15.64 53.4634 -15.64H54.6334ZM64.3417 -6.784C61.7677 -6.784 59.8777 -8.71 59.8777 -11.32C59.8777 -13.93 61.7677 -15.856 64.3417 -15.856C65.4937 -15.856 66.4297 -15.55 67.1137 -15.046C67.2577 -14.938 67.2577 -14.812 67.1857 -14.668L66.7177 -13.858C66.6277 -13.696 66.5017 -13.66 66.3577 -13.75C65.9617 -14.002 65.4217 -14.344 64.4497 -14.344C62.5597 -14.344 61.4617 -13.012 61.4617 -11.32C61.4617 -9.628 62.5597 -8.296 64.4497 -8.296C65.4037 -8.296 65.9617 -8.602 66.3937 -8.872C66.5377 -8.944 66.6637 -8.908 66.7537 -8.764L67.1857 -7.972C67.2577 -7.828 67.2757 -7.72 67.2217 -7.666C66.6817 -7.234 65.6017 -6.784 64.3417 -6.784ZM69.2205 -7C69.0585 -7 68.9505 -7.108 68.9505 -7.27V-18.988C68.9505 -19.132 69.0225 -19.24 69.1665 -19.294L70.1925 -19.672C70.3725 -19.744 70.4985 -19.654 70.4985 -19.456V-14.578C71.1105 -15.478 72.2265 -15.856 73.1985 -15.856C75.1065 -15.856 76.6185 -14.542 76.6185 -11.986V-7.27C76.6185 -7.108 76.5105 -7 76.3485 -7H75.3405C75.1785 -7 75.0705 -7.108 75.0705 -7.27V-11.932C75.0705 -13.48 74.1705 -14.326 72.8385 -14.326C71.4885 -14.326 70.4985 -13.462 70.4985 -11.932V-7.27C70.4985 -7.108 70.3905 -7 70.2285 -7H69.2205ZM82.5232 -6.784C79.7872 -6.784 78.2032 -8.872 78.2032 -11.338C78.2032 -14.092 80.2552 -15.856 82.6132 -15.856C83.8012 -15.856 84.8992 -15.406 85.4572 -14.65V-15.028C85.4572 -15.172 85.5292 -15.28 85.6732 -15.334L86.6992 -15.712C86.8792 -15.784 87.0052 -15.712 87.0052 -15.514V-7.27C87.0052 -7.108 86.8972 -7 86.7352 -7H85.7272C85.5652 -7 85.4572 -7.108 85.4572 -7.27V-7.972C84.9532 -7.342 83.7652 -6.784 82.5232 -6.784ZM82.6312 -8.314C84.2332 -8.314 85.4752 -9.34 85.4752 -11.338C85.4752 -13.318 84.2332 -14.344 82.6312 -14.344C81.1012 -14.344 79.7872 -13.318 79.7872 -11.338C79.7872 -9.358 81.1012 -8.314 82.6312 -8.314ZM89.2512 -7C89.0892 -7 88.9812 -7.108 88.9812 -7.27V-18.988C88.9812 -19.132 89.0532 -19.24 89.1972 -19.294L90.2232 -19.672C90.4032 -19.744 90.5292 -19.654 90.5292 -19.456V-7.27C90.5292 -7.108 90.4212 -7 90.2592 -7H89.2512ZM92.7802 -7C92.6182 -7 92.5102 -7.108 92.5102 -7.27V-18.988C92.5102 -19.132 92.5822 -19.24 92.7262 -19.294L93.7522 -19.672C93.9322 -19.744 94.0582 -19.654 94.0582 -19.456V-7.27C94.0582 -7.108 93.9502 -7 93.7882 -7H92.7802ZM100.161 -15.856C102.627 -15.856 104.139 -13.912 104.139 -11.752V-11.086C104.139 -10.924 104.031 -10.816 103.869 -10.816H97.3711C97.5691 -9.412 98.5591 -8.296 100.305 -8.296C101.277 -8.296 102.141 -8.638 103.023 -9.286C103.185 -9.394 103.311 -9.376 103.401 -9.232L103.905 -8.476C103.995 -8.35 103.977 -8.206 103.851 -8.098C102.879 -7.234 101.565 -6.784 100.287 -6.784C97.4431 -6.784 95.7511 -8.674 95.7511 -11.266C95.7511 -14.11 97.7311 -15.856 100.161 -15.856ZM97.4251 -12.22H102.501C102.429 -13.336 101.637 -14.344 100.143 -14.344C98.7391 -14.344 97.7311 -13.534 97.4251 -12.22ZM106.096 -7C105.934 -7 105.826 -7.108 105.826 -7.27V-15.028C105.826 -15.172 105.898 -15.28 106.042 -15.334L107.068 -15.712C107.248 -15.784 107.374 -15.694 107.374 -15.496V-14.578C108.04 -15.55 109.066 -15.856 110.002 -15.856C111.946 -15.856 113.494 -14.542 113.494 -11.986V-7.27C113.494 -7.108 113.386 -7 113.224 -7H112.216C112.054 -7 111.946 -7.108 111.946 -7.27V-11.932C111.946 -13.48 111.046 -14.326 109.714 -14.326C108.364 -14.326 107.374 -13.462 107.374 -11.932V-7.27C107.374 -7.108 107.266 -7 107.104 -7H106.096ZM119.345 -3.184C118.067 -3.184 116.789 -3.49 115.547 -4.426C115.421 -4.534 115.403 -4.66 115.475 -4.804L115.997 -5.704C116.087 -5.866 116.213 -5.884 116.375 -5.776C117.221 -5.128 118.265 -4.696 119.363 -4.696C121.289 -4.696 122.333 -5.92 122.333 -7.864V-7.972C121.865 -7.396 120.767 -6.784 119.345 -6.784C116.699 -6.784 115.079 -8.872 115.079 -11.32C115.079 -14.092 117.131 -15.856 119.489 -15.856C120.677 -15.856 121.775 -15.406 122.333 -14.65V-15.028C122.333 -15.172 122.405 -15.28 122.549 -15.334L123.575 -15.712C123.755 -15.784 123.881 -15.712 123.881 -15.514V-8.188C123.881 -4.696 122.117 -3.184 119.345 -3.184ZM119.525 -8.314C121.091 -8.314 122.351 -9.34 122.351 -11.338C122.351 -13.318 121.091 -14.344 119.525 -14.344C117.959 -14.344 116.663 -13.318 116.663 -11.338C116.663 -9.358 117.959 -8.314 119.525 -8.314ZM129.979 -15.856C132.445 -15.856 133.957 -13.912 133.957 -11.752V-11.086C133.957 -10.924 133.849 -10.816 133.687 -10.816H127.189C127.387 -9.412 128.377 -8.296 130.123 -8.296C131.095 -8.296 131.959 -8.638 132.841 -9.286C133.003 -9.394 133.129 -9.376 133.219 -9.232L133.723 -8.476C133.813 -8.35 133.795 -8.206 133.669 -8.098C132.697 -7.234 131.383 -6.784 130.105 -6.784C127.261 -6.784 125.569 -8.674 125.569 -11.266C125.569 -14.11 127.549 -15.856 129.979 -15.856ZM127.243 -12.22H132.319C132.247 -13.336 131.455 -14.344 129.961 -14.344C128.557 -14.344 127.549 -13.534 127.243 -12.22ZM138.667 -6.784C137.389 -6.784 136.093 -7.198 135.319 -8.098C135.211 -8.206 135.229 -8.35 135.319 -8.476L135.895 -9.214C136.003 -9.358 136.129 -9.358 136.273 -9.25C136.813 -8.782 137.533 -8.296 138.703 -8.296C139.819 -8.296 140.431 -8.656 140.431 -9.358C140.431 -10.078 139.801 -10.366 138.631 -10.654C137.173 -11.014 135.571 -11.446 135.571 -13.21C135.571 -14.758 136.795 -15.856 138.721 -15.856C139.963 -15.856 140.845 -15.424 141.421 -14.956C141.547 -14.83 141.547 -14.722 141.439 -14.578L140.863 -13.858C140.755 -13.732 140.629 -13.696 140.485 -13.804C140.071 -14.092 139.495 -14.344 138.757 -14.344C137.875 -14.344 137.119 -14.002 137.119 -13.3C137.119 -12.652 137.767 -12.4 138.991 -12.112C140.773 -11.698 141.943 -11.032 141.943 -9.466C141.943 -7.27 139.981 -6.784 138.667 -6.784ZM151.981 -7.414C152.035 -7.27 151.981 -7.126 151.801 -7.036C151.405 -6.856 151.063 -6.784 150.685 -6.784C148.687 -6.784 148.219 -8.08 148.219 -9.628V-14.236H147.085C146.923 -14.236 146.815 -14.344 146.815 -14.506V-15.37C146.815 -15.532 146.923 -15.64 147.085 -15.64H148.219V-17.008C148.219 -17.152 148.291 -17.26 148.435 -17.314L149.461 -17.692C149.641 -17.764 149.767 -17.674 149.767 -17.476V-15.64H151.315C151.477 -15.64 151.585 -15.532 151.585 -15.37V-14.506C151.585 -14.344 151.477 -14.236 151.315 -14.236H149.767V-9.61C149.767 -8.872 150.037 -8.332 150.811 -8.332C150.973 -8.332 151.135 -8.368 151.333 -8.44C151.513 -8.494 151.639 -8.458 151.693 -8.278L151.981 -7.414ZM157.314 -6.784C154.722 -6.784 152.868 -8.71 152.868 -11.32C152.868 -13.93 154.722 -15.856 157.314 -15.856C159.906 -15.856 161.742 -13.93 161.742 -11.32C161.742 -8.71 159.906 -6.784 157.314 -6.784ZM157.314 -8.296C159.078 -8.296 160.158 -9.628 160.158 -11.32C160.158 -13.012 159.078 -14.344 157.314 -14.344C155.532 -14.344 154.452 -13.012 154.452 -11.32C154.452 -9.628 155.532 -8.296 157.314 -8.296ZM167.413 -3.184C166.135 -3.184 164.857 -3.49 163.615 -4.426C163.489 -4.534 163.471 -4.66 163.543 -4.804L164.065 -5.704C164.155 -5.866 164.281 -5.884 164.443 -5.776C165.289 -5.128 166.333 -4.696 167.431 -4.696C169.357 -4.696 170.401 -5.92 170.401 -7.864V-7.972C169.933 -7.396 168.835 -6.784 167.413 -6.784C164.767 -6.784 163.147 -8.872 163.147 -11.32C163.147 -14.092 165.199 -15.856 167.557 -15.856C168.745 -15.856 169.843 -15.406 170.401 -14.65V-15.028C170.401 -15.172 170.473 -15.28 170.617 -15.334L171.643 -15.712C171.823 -15.784 171.949 -15.712 171.949 -15.514V-8.188C171.949 -4.696 170.185 -3.184 167.413 -3.184ZM167.593 -8.314C169.159 -8.314 170.419 -9.34 170.419 -11.338C170.419 -13.318 169.159 -14.344 167.593 -14.344C166.027 -14.344 164.731 -13.318 164.731 -11.338C164.731 -9.358 166.027 -8.314 167.593 -8.314ZM178.047 -15.856C180.513 -15.856 182.025 -13.912 182.025 -11.752V-11.086C182.025 -10.924 181.917 -10.816 181.755 -10.816H175.257C175.455 -9.412 176.445 -8.296 178.191 -8.296C179.163 -8.296 180.027 -8.638 180.909 -9.286C181.071 -9.394 181.197 -9.376 181.287 -9.232L181.791 -8.476C181.881 -8.35 181.863 -8.206 181.737 -8.098C180.765 -7.234 179.451 -6.784 178.173 -6.784C175.329 -6.784 173.637 -8.674 173.637 -11.266C173.637 -14.11 175.617 -15.856 178.047 -15.856ZM175.311 -12.22H180.387C180.315 -13.336 179.523 -14.344 178.029 -14.344C176.625 -14.344 175.617 -13.534 175.311 -12.22ZM188.017 -7.414C188.071 -7.27 188.017 -7.126 187.837 -7.036C187.441 -6.856 187.099 -6.784 186.721 -6.784C184.723 -6.784 184.255 -8.08 184.255 -9.628V-14.236H183.121C182.959 -14.236 182.851 -14.344 182.851 -14.506V-15.37C182.851 -15.532 182.959 -15.64 183.121 -15.64H184.255V-17.008C184.255 -17.152 184.327 -17.26 184.471 -17.314L185.497 -17.692C185.677 -17.764 185.803 -17.674 185.803 -17.476V-15.64H187.351C187.513 -15.64 187.621 -15.532 187.621 -15.37V-14.506C187.621 -14.344 187.513 -14.236 187.351 -14.236H185.803V-9.61C185.803 -8.872 186.073 -8.332 186.847 -8.332C187.009 -8.332 187.171 -8.368 187.369 -8.44C187.549 -8.494 187.675 -8.458 187.729 -8.278L188.017 -7.414ZM189.778 -7C189.616 -7 189.508 -7.108 189.508 -7.27V-18.988C189.508 -19.132 189.58 -19.24 189.724 -19.294L190.75 -19.672C190.93 -19.744 191.056 -19.654 191.056 -19.456V-14.578C191.668 -15.478 192.784 -15.856 193.756 -15.856C195.664 -15.856 197.176 -14.542 197.176 -11.986V-7.27C197.176 -7.108 197.068 -7 196.906 -7H195.898C195.736 -7 195.628 -7.108 195.628 -7.27V-11.932C195.628 -13.48 194.728 -14.326 193.396 -14.326C192.046 -14.326 191.056 -13.462 191.056 -11.932V-7.27C191.056 -7.108 190.948 -7 190.786 -7H189.778ZM203.171 -15.856C205.637 -15.856 207.149 -13.912 207.149 -11.752V-11.086C207.149 -10.924 207.041 -10.816 206.879 -10.816H200.381C200.579 -9.412 201.569 -8.296 203.315 -8.296C204.287 -8.296 205.151 -8.638 206.033 -9.286C206.195 -9.394 206.321 -9.376 206.411 -9.232L206.915 -8.476C207.005 -8.35 206.987 -8.206 206.861 -8.098C205.889 -7.234 204.575 -6.784 203.297 -6.784C200.453 -6.784 198.761 -8.674 198.761 -11.266C198.761 -14.11 200.741 -15.856 203.171 -15.856ZM200.435 -12.22H205.511C205.439 -13.336 204.647 -14.344 203.153 -14.344C201.749 -14.344 200.741 -13.534 200.435 -12.22ZM214.668 -14.812C214.722 -14.65 214.668 -14.524 214.506 -14.452L210.384 -12.742V-7.27C210.384 -7.108 210.276 -7 210.114 -7H209.106C208.944 -7 208.836 -7.108 208.836 -7.27V-15.028C208.836 -15.172 208.908 -15.28 209.052 -15.334L210.078 -15.712C210.258 -15.784 210.384 -15.694 210.384 -15.496V-14.254L213.984 -15.748C214.146 -15.82 214.272 -15.766 214.344 -15.604L214.668 -14.812ZM5.112 15.216C2.376 15.216 0.792 13.128 0.792 10.662C0.792 7.908 2.844 6.144 5.202 6.144C6.39 6.144 7.488 6.594 8.046 7.35V6.972C8.046 6.828 8.118 6.72 8.262 6.666L9.288 6.288C9.468 6.216 9.594 6.288 9.594 6.486V14.73C9.594 14.892 9.486 15 9.324 15H8.316C8.154 15 8.046 14.892 8.046 14.73V14.028C7.542 14.658 6.354 15.216 5.112 15.216ZM5.22 13.686C6.822 13.686 8.064 12.66 8.064 10.662C8.064 8.682 6.822 7.656 5.22 7.656C3.69 7.656 2.376 8.682 2.376 10.662C2.376 12.642 3.69 13.686 5.22 13.686ZM16.0159 14.586C16.0699 14.73 16.0159 14.874 15.8359 14.964C15.4399 15.144 15.0979 15.216 14.7199 15.216C12.7219 15.216 12.2539 13.92 12.2539 12.372V7.764H11.1199C10.9579 7.764 10.8499 7.656 10.8499 7.494V6.63C10.8499 6.468 10.9579 6.36 11.1199 6.36H12.2539V4.992C12.2539 4.848 12.3259 4.74 12.4699 4.686L13.4959 4.308C13.6759 4.236 13.8019 4.326 13.8019 4.524V6.36H15.3499C15.5119 6.36 15.6199 6.468 15.6199 6.63V7.494C15.6199 7.656 15.5119 7.764 15.3499 7.764H13.8019V12.39C13.8019 13.128 14.0719 13.668 14.8459 13.668C15.0079 13.668 15.1699 13.632 15.3679 13.56C15.5479 13.506 15.6739 13.542 15.7279 13.722L16.0159 14.586ZM27.4515 15.216C23.9415 15.216 21.2955 12.624 21.2955 8.7C21.2955 4.776 23.9415 2.184 27.4515 2.184C29.5035 2.184 31.0515 2.994 32.2035 4.344C32.3115 4.488 32.2935 4.632 32.1675 4.74L31.3215 5.442C31.1775 5.568 31.0515 5.55 30.9435 5.406C30.2235 4.542 29.0715 3.768 27.4515 3.768C24.8415 3.768 22.9515 5.874 22.9515 8.7C22.9515 11.526 24.8415 13.632 27.4515 13.632C29.0715 13.632 30.2235 12.858 30.9435 11.994C31.0515 11.85 31.1775 11.832 31.3215 11.958L32.1495 12.642C32.2755 12.75 32.2935 12.894 32.2035 13.002C31.0695 14.388 29.5215 15.216 27.4515 15.216ZM41.8534 3.948H35.7694V7.584H40.4314C40.5934 7.584 40.7014 7.692 40.7014 7.854V8.862C40.7014 9.024 40.5934 9.132 40.4314 9.132H35.7694V13.452H41.8534C42.0154 13.452 42.1234 13.56 42.1234 13.722V14.73C42.1234 14.892 42.0154 15 41.8534 15H34.4194C34.2574 15 34.1494 14.892 34.1494 14.73V2.67C34.1494 2.508 34.2574 2.4 34.4194 2.4H41.8534C42.0154 2.4 42.1234 2.508 42.1234 2.67V3.678C42.1234 3.84 42.0154 3.948 41.8534 3.948ZM44.2237 15C44.0617 15 43.9537 14.892 43.9537 14.73V2.67C43.9537 2.508 44.0617 2.4 44.2237 2.4H48.3997C51.4777 2.4 52.1977 4.488 52.1977 5.982C52.1977 7.224 51.6937 8.88 49.7497 9.402L52.1257 14.676C52.2157 14.874 52.1257 15 51.9277 15H50.7217C50.5777 15 50.4697 14.946 50.4157 14.802L48.1117 9.564H45.5737V14.73C45.5737 14.892 45.4657 15 45.3037 15H44.2237ZM45.5737 8.016H48.1477C50.0197 8.016 50.5237 7.098 50.5237 5.982C50.5237 4.866 50.0197 3.948 48.1477 3.948H45.5737V8.016ZM65.1081 14.694C65.1801 14.874 65.0901 15 64.8921 15H63.6861C63.5421 15 63.4161 14.928 63.3621 14.784L62.1561 11.832H56.3061L55.1001 14.784C55.0461 14.928 54.9201 15 54.7761 15H53.5701C53.3721 15 53.2821 14.874 53.3541 14.694L58.4301 2.616C58.4841 2.472 58.6101 2.4 58.7541 2.4H59.7081C59.8521 2.4 59.9781 2.472 60.0321 2.616L65.1081 14.694ZM56.9541 10.284H61.5261L59.2401 4.704L56.9541 10.284ZM68.282 15C68.138 15 68.03 14.946 67.976 14.784L64.214 2.706C64.16 2.508 64.25 2.4 64.448 2.4H65.654C65.798 2.4 65.924 2.49 65.96 2.634L68.894 12.462L71.828 2.634C71.864 2.49 71.99 2.4 72.134 2.4H73.502C73.646 2.4 73.772 2.49 73.808 2.634L76.742 12.462L79.676 2.634C79.712 2.49 79.838 2.4 79.982 2.4H81.188C81.386 2.4 81.476 2.508 81.422 2.706L77.66 14.784C77.606 14.946 77.498 15 77.354 15H76.13C75.986 15 75.86 14.91 75.824 14.766L72.818 4.866L69.812 14.766C69.776 14.91 69.65 15 69.506 15H68.282ZM85.7288 6.144C88.1948 6.144 89.7068 8.088 89.7068 10.248V10.914C89.7068 11.076 89.5988 11.184 89.4368 11.184H82.9388C83.1368 12.588 84.1268 13.704 85.8728 13.704C86.8448 13.704 87.7088 13.362 88.5908 12.714C88.7528 12.606 88.8788 12.624 88.9688 12.768L89.4728 13.524C89.5628 13.65 89.5448 13.794 89.4188 13.902C88.4468 14.766 87.1328 15.216 85.8548 15.216C83.0108 15.216 81.3188 13.326 81.3188 10.734C81.3188 7.89 83.2988 6.144 85.7288 6.144ZM82.9928 9.78H88.0688C87.9968 8.664 87.2048 7.656 85.7108 7.656C84.3068 7.656 83.2988 8.466 82.9928 9.78ZM95.5156 6.144C97.9816 6.144 99.4936 8.088 99.4936 10.248V10.914C99.4936 11.076 99.3856 11.184 99.2236 11.184H92.7256C92.9236 12.588 93.9136 13.704 95.6596 13.704C96.6316 13.704 97.4956 13.362 98.3776 12.714C98.5396 12.606 98.6656 12.624 98.7556 12.768L99.2596 13.524C99.3496 13.65 99.3316 13.794 99.2056 13.902C98.2336 14.766 96.9196 15.216 95.6416 15.216C92.7976 15.216 91.1056 13.326 91.1056 10.734C91.1056 7.89 93.0856 6.144 95.5156 6.144ZM92.7796 9.78H97.8556C97.7836 8.664 96.9916 7.656 95.4976 7.656C94.0936 7.656 93.0856 8.466 92.7796 9.78ZM107.948 14.676C108.092 14.838 108.038 15 107.804 15H106.472C106.346 15 106.238 14.964 106.148 14.856L102.728 11.13V14.73C102.728 14.892 102.62 15 102.458 15H101.45C101.288 15 101.18 14.892 101.18 14.73V3.012C101.18 2.868 101.252 2.76 101.396 2.706L102.422 2.328C102.602 2.256 102.728 2.346 102.728 2.544V9.69L105.932 6.504C106.04 6.396 106.148 6.36 106.274 6.36H107.606C107.84 6.36 107.912 6.522 107.75 6.684L104.078 10.356L107.948 14.676ZM113.428 15C113.266 15 113.158 14.892 113.158 14.73V14.1C113.158 13.974 113.194 13.866 113.302 13.776C115.696 11.598 119.458 8.736 119.458 5.838C119.458 4.542 118.558 3.768 117.28 3.768C116.002 3.768 114.994 4.578 114.814 6.036C114.796 6.198 114.706 6.288 114.544 6.288H113.446C113.266 6.288 113.158 6.18 113.176 6C113.446 3.642 115.066 2.184 117.28 2.184C119.746 2.184 121.114 3.714 121.114 5.838C121.114 8.934 118.342 11.382 115.966 13.452H121.114C121.312 13.452 121.402 13.56 121.33 13.758L120.952 14.784C120.898 14.946 120.79 15 120.646 15H113.428ZM127.915 15.216C124.927 15.216 122.785 12.624 122.785 8.7C122.785 4.776 124.927 2.184 127.915 2.184C130.921 2.184 133.027 4.776 133.027 8.7C133.027 12.624 130.921 15.216 127.915 15.216ZM127.915 13.632C130.003 13.632 131.371 11.706 131.371 8.7C131.371 5.694 130.003 3.768 127.915 3.768C125.827 3.768 124.441 5.694 124.441 8.7C124.441 11.706 125.827 13.632 127.915 13.632ZM134.795 15C134.633 15 134.525 14.892 134.525 14.73V14.1C134.525 13.974 134.561 13.866 134.669 13.776C137.063 11.598 140.825 8.736 140.825 5.838C140.825 4.542 139.925 3.768 138.647 3.768C137.369 3.768 136.361 4.578 136.181 6.036C136.163 6.198 136.073 6.288 135.911 6.288H134.813C134.633 6.288 134.525 6.18 134.543 6C134.813 3.642 136.433 2.184 138.647 2.184C141.113 2.184 142.481 3.714 142.481 5.838C142.481 8.934 139.709 11.382 137.333 13.452H142.481C142.679 13.452 142.769 13.56 142.697 13.758L142.319 14.784C142.265 14.946 142.157 15 142.013 15H134.795ZM148.723 15.216C146.329 15.216 144.151 13.614 144.151 9.132C144.151 4.794 146.185 2.184 149.353 2.184C150.181 2.184 151.171 2.364 152.071 2.922C152.215 2.994 152.251 3.138 152.197 3.282L151.819 4.344C151.765 4.524 151.621 4.56 151.441 4.452C150.577 3.93 149.911 3.84 149.317 3.84C147.877 3.84 146.149 4.812 145.897 8.142C146.743 6.864 148.057 6.36 149.119 6.36C150.955 6.36 153.133 7.782 153.133 10.77C153.133 13.578 151.027 15.216 148.723 15.216ZM148.741 13.632C150.451 13.632 151.477 12.354 151.477 10.806C151.477 9.312 150.451 7.998 148.741 7.998C147.031 7.998 146.005 9.312 146.005 10.806C146.005 12.354 147.031 13.632 148.741 13.632ZM154.401 15C154.239 15 154.131 14.892 154.131 14.73V13.614C154.131 13.452 154.239 13.344 154.401 13.344H155.517C155.679 13.344 155.787 13.452 155.787 13.614V14.73C155.787 14.892 155.679 15 155.517 15H154.401Z" fill="#243746"/>
</g>
<defs>
<clipPath id="clip0_13_128">
<rect width="231" height="17" fill="white"/>
</clipPath>
</defs>
</svg>
