<svg width="188" height="22" viewBox="0 0 188 22" fill="none" xmlns="http://www.w3.org/2000/svg">
<g clip-path="url(#clip0_13_125)">
<path d="M12.45 -53.35H4V-48.3H10.475C10.7 -48.3 10.85 -48.15 10.85 -47.925V-46.525C10.85 -46.3 10.7 -46.15 10.475 -46.15H4V-40.15H12.45C12.675 -40.15 12.825 -40 12.825 -39.775V-38.375C12.825 -38.15 12.675 -38 12.45 -38H2.125C1.9 -38 1.75 -38.15 1.75 -38.375V-55.125C1.75 -55.35 1.9 -55.5 2.125 -55.5H12.45C12.675 -55.5 12.825 -55.35 12.825 -55.125V-53.725C12.825 -53.5 12.675 -53.35 12.45 -53.35ZM15.7422 -38C15.5172 -38 15.3672 -38.15 15.3672 -38.375V-49.15C15.3672 -49.35 15.4672 -49.5 15.6672 -49.575L17.0922 -50.1C17.3422 -50.2 17.5172 -50.075 17.5172 -49.8V-48.525C18.4422 -49.875 19.8672 -50.3 21.1672 -50.3C23.8672 -50.3 26.0172 -48.475 26.0172 -44.925V-38.375C26.0172 -38.15 25.8672 -38 25.6422 -38H24.2422C24.0172 -38 23.8672 -38.15 23.8672 -38.375V-44.85C23.8672 -47 22.6172 -48.175 20.7672 -48.175C18.8922 -48.175 17.5172 -46.975 17.5172 -44.85V-38.375C17.5172 -38.15 17.3672 -38 17.1422 -38H15.7422ZM34.5932 -50.3C38.0182 -50.3 40.1182 -47.6 40.1182 -44.6V-43.675C40.1182 -43.45 39.9682 -43.3 39.7432 -43.3H30.7182C30.9932 -41.35 32.3682 -39.8 34.7932 -39.8C36.1432 -39.8 37.3432 -40.275 38.5682 -41.175C38.7932 -41.325 38.9682 -41.3 39.0932 -41.1L39.7932 -40.05C39.9182 -39.875 39.8932 -39.675 39.7182 -39.525C38.3682 -38.325 36.5432 -37.7 34.7682 -37.7C30.8182 -37.7 28.4682 -40.325 28.4682 -43.925C28.4682 -47.875 31.2182 -50.3 34.5932 -50.3ZM30.7932 -45.25H37.8432C37.7432 -46.8 36.6432 -48.2 34.5682 -48.2C32.6182 -48.2 31.2182 -47.075 30.7932 -45.25ZM50.8109 -48.85C50.8859 -48.625 50.8109 -48.45 50.5859 -48.35L44.8609 -45.975V-38.375C44.8609 -38.15 44.7109 -38 44.4859 -38H43.0859C42.8609 -38 42.7109 -38.15 42.7109 -38.375V-49.15C42.7109 -49.35 42.8109 -49.5 43.0109 -49.575L44.4359 -50.1C44.6859 -50.2 44.8609 -50.075 44.8609 -49.8V-48.075L49.8609 -50.15C50.0859 -50.25 50.2609 -50.175 50.3609 -49.95L50.8109 -48.85ZM57.6598 -32.7C55.8848 -32.7 54.1098 -33.125 52.3848 -34.425C52.2098 -34.575 52.1848 -34.75 52.2848 -34.95L53.0098 -36.2C53.1348 -36.425 53.3098 -36.45 53.5348 -36.3C54.7098 -35.4 56.1598 -34.8 57.6848 -34.8C60.3598 -34.8 61.8098 -36.5 61.8098 -39.2V-39.35C61.1598 -38.55 59.6348 -37.7 57.6598 -37.7C53.9848 -37.7 51.7348 -40.6 51.7348 -44C51.7348 -47.85 54.5848 -50.3 57.8598 -50.3C59.5098 -50.3 61.0348 -49.675 61.8098 -48.625V-49.15C61.8098 -49.35 61.9098 -49.5 62.1098 -49.575L63.5348 -50.1C63.7848 -50.2 63.9598 -50.1 63.9598 -49.825V-39.65C63.9598 -34.8 61.5098 -32.7 57.6598 -32.7ZM57.9098 -39.825C60.0848 -39.825 61.8348 -41.25 61.8348 -44.025C61.8348 -46.775 60.0848 -48.2 57.9098 -48.2C55.7348 -48.2 53.9348 -46.775 53.9348 -44.025C53.9348 -41.275 55.7348 -39.825 57.9098 -39.825ZM77.1541 -50C77.4291 -50 77.5541 -49.825 77.4541 -49.575L70.4791 -33.275C70.4041 -33.075 70.2541 -33 70.0541 -33H68.4791C68.2041 -33 68.0791 -33.175 68.1791 -33.425L70.5791 -39.05L66.0791 -49.575C65.9791 -49.825 66.1041 -50 66.3791 -50H67.9791C68.1791 -50 68.3541 -49.9 68.4291 -49.7L71.7541 -41.8L75.1041 -49.7C75.1791 -49.9 75.3291 -50 75.5291 -50H77.1541ZM89.5379 -37.7C87.7629 -37.7 85.9629 -38.275 84.8879 -39.525C84.7379 -39.675 84.7629 -39.875 84.8879 -40.05L85.6879 -41.075C85.8379 -41.275 86.0129 -41.275 86.2129 -41.125C86.9629 -40.475 87.9629 -39.8 89.5879 -39.8C91.1379 -39.8 91.9879 -40.3 91.9879 -41.275C91.9879 -42.275 91.1129 -42.675 89.4879 -43.075C87.4629 -43.575 85.2379 -44.175 85.2379 -46.625C85.2379 -48.775 86.9379 -50.3 89.6129 -50.3C91.3379 -50.3 92.5629 -49.7 93.3629 -49.05C93.5379 -48.875 93.5379 -48.725 93.3879 -48.525L92.5879 -47.525C92.4379 -47.35 92.2629 -47.3 92.0629 -47.45C91.4879 -47.85 90.6879 -48.2 89.6629 -48.2C88.4379 -48.2 87.3879 -47.725 87.3879 -46.75C87.3879 -45.85 88.2879 -45.5 89.9879 -45.1C92.4629 -44.525 94.0879 -43.6 94.0879 -41.425C94.0879 -38.375 91.3629 -37.7 89.5379 -37.7ZM102.318 -50.3C105.743 -50.3 107.843 -47.6 107.843 -44.6V-43.675C107.843 -43.45 107.693 -43.3 107.468 -43.3H98.4428C98.7178 -41.35 100.093 -39.8 102.518 -39.8C103.868 -39.8 105.068 -40.275 106.293 -41.175C106.518 -41.325 106.693 -41.3 106.818 -41.1L107.518 -40.05C107.643 -39.875 107.618 -39.675 107.443 -39.525C106.093 -38.325 104.268 -37.7 102.493 -37.7C98.5428 -37.7 96.1928 -40.325 96.1928 -43.925C96.1928 -47.875 98.9428 -50.3 102.318 -50.3ZM98.5178 -45.25H105.568C105.468 -46.8 104.368 -48.2 102.293 -48.2C100.343 -48.2 98.9428 -47.075 98.5178 -45.25ZM116.236 -37.7C112.661 -37.7 110.036 -40.375 110.036 -44C110.036 -47.625 112.661 -50.3 116.236 -50.3C117.836 -50.3 119.136 -49.875 120.086 -49.175C120.286 -49.025 120.286 -48.85 120.186 -48.65L119.536 -47.525C119.411 -47.3 119.236 -47.25 119.036 -47.375C118.486 -47.725 117.736 -48.2 116.386 -48.2C113.761 -48.2 112.236 -46.35 112.236 -44C112.236 -41.65 113.761 -39.8 116.386 -39.8C117.711 -39.8 118.486 -40.225 119.086 -40.6C119.286 -40.7 119.461 -40.65 119.586 -40.45L120.186 -39.35C120.286 -39.15 120.311 -39 120.236 -38.925C119.486 -38.325 117.986 -37.7 116.236 -37.7ZM127.587 -37.7C124.887 -37.7 122.737 -39.525 122.737 -43.075V-49.15C122.737 -49.35 122.837 -49.5 123.037 -49.575L124.462 -50.1C124.712 -50.2 124.887 -50.075 124.887 -49.8V-43.15C124.887 -41 126.137 -39.825 127.987 -39.825C129.862 -39.825 131.237 -41.025 131.237 -43.15V-49.15C131.237 -49.35 131.337 -49.5 131.537 -49.575L132.962 -50.1C133.212 -50.2 133.387 -50.075 133.387 -49.8V-38.375C133.387 -38.15 133.237 -38 133.012 -38H131.612C131.387 -38 131.237 -38.15 131.237 -38.375V-39.475C130.312 -38.125 128.887 -37.7 127.587 -37.7ZM144.488 -48.85C144.563 -48.625 144.488 -48.45 144.263 -48.35L138.538 -45.975V-38.375C138.538 -38.15 138.388 -38 138.163 -38H136.763C136.538 -38 136.388 -38.15 136.388 -38.375V-49.15C136.388 -49.35 136.488 -49.5 136.688 -49.575L138.113 -50.1C138.363 -50.2 138.538 -50.075 138.538 -49.8V-48.075L143.538 -50.15C143.763 -50.25 143.938 -50.175 144.038 -49.95L144.488 -48.85ZM146.967 -51.375C146.717 -51.3 146.542 -51.4 146.542 -51.675V-53.45C146.542 -53.65 146.642 -53.8 146.842 -53.875L148.417 -54.475C148.667 -54.575 148.842 -54.45 148.842 -54.175V-52.325C148.842 -52.125 148.742 -51.975 148.542 -51.9L146.967 -51.375ZM146.992 -38C146.767 -38 146.617 -38.15 146.617 -38.375V-49.15C146.617 -49.35 146.717 -49.5 146.917 -49.575L148.342 -50.1C148.592 -50.2 148.767 -50.075 148.767 -49.8V-38.375C148.767 -38.15 148.617 -38 148.392 -38H146.992ZM157.944 -38.575C158.019 -38.375 157.944 -38.175 157.694 -38.05C157.144 -37.8 156.669 -37.7 156.144 -37.7C153.369 -37.7 152.719 -39.5 152.719 -41.65V-48.05H151.144C150.919 -48.05 150.769 -48.2 150.769 -48.425V-49.625C150.769 -49.85 150.919 -50 151.144 -50H152.719V-51.9C152.719 -52.1 152.819 -52.25 153.019 -52.325L154.444 -52.85C154.694 -52.95 154.869 -52.825 154.869 -52.55V-50H157.019C157.244 -50 157.394 -49.85 157.394 -49.625V-48.425C157.394 -48.2 157.244 -48.05 157.019 -48.05H154.869V-41.625C154.869 -40.6 155.244 -39.85 156.319 -39.85C156.544 -39.85 156.769 -39.9 157.044 -40C157.294 -40.075 157.469 -40.025 157.544 -39.775L157.944 -38.575ZM170.465 -50C170.74 -50 170.865 -49.825 170.765 -49.575L163.79 -33.275C163.715 -33.075 163.565 -33 163.365 -33H161.79C161.515 -33 161.39 -33.175 161.49 -33.425L163.89 -39.05L159.39 -49.575C159.29 -49.825 159.415 -50 159.69 -50H161.29C161.49 -50 161.665 -49.9 161.74 -49.7L165.065 -41.8L168.415 -49.7C168.49 -49.9 168.64 -50 168.84 -50H170.465ZM9.6 -21.85C9.675 -21.625 9.6 -21.45 9.375 -21.35L3.65 -18.975V-11.375C3.65 -11.15 3.5 -11 3.275 -11H1.875C1.65 -11 1.5 -11.15 1.5 -11.375V-22.15C1.5 -22.35 1.6 -22.5 1.8 -22.575L3.225 -23.1C3.475 -23.2 3.65 -23.075 3.65 -22.8V-21.075L8.65 -23.15C8.875 -23.25 9.05 -23.175 9.15 -22.95L9.6 -21.85ZM16.6488 -23.3C20.0738 -23.3 22.1738 -20.6 22.1738 -17.6V-16.675C22.1738 -16.45 22.0238 -16.3 21.7988 -16.3H12.7738C13.0488 -14.35 14.4238 -12.8 16.8488 -12.8C18.1988 -12.8 19.3988 -13.275 20.6238 -14.175C20.8488 -14.325 21.0238 -14.3 21.1488 -14.1L21.8488 -13.05C21.9738 -12.875 21.9488 -12.675 21.7738 -12.525C20.4238 -11.325 18.5988 -10.7 16.8238 -10.7C12.8738 -10.7 10.5238 -13.325 10.5238 -16.925C10.5238 -20.875 13.2738 -23.3 16.6488 -23.3ZM12.8488 -18.25H19.8988C19.7988 -19.8 18.6988 -21.2 16.6238 -21.2C14.6738 -21.2 13.2738 -20.075 12.8488 -18.25ZM34.8166 -6C34.5916 -6 34.4416 -6.15 34.4416 -6.375V-12.35C33.7416 -11.475 32.0916 -10.7 30.3666 -10.7C26.5666 -10.7 24.3666 -13.6 24.3666 -17.025C24.3666 -20.85 27.2166 -23.3 30.4916 -23.3C32.1416 -23.3 33.6666 -22.675 34.4416 -21.625V-22.15C34.4416 -22.35 34.5416 -22.5 34.7416 -22.575L36.1666 -23.1C36.4166 -23.2 36.5916 -23.1 36.5916 -22.825V-6.375C36.5916 -6.15 36.4416 -6 36.2166 -6H34.8166ZM30.5166 -12.825C32.7416 -12.825 34.4666 -14.25 34.4666 -17.025C34.4666 -19.775 32.7416 -21.2 30.5166 -21.2C28.3916 -21.2 26.5666 -19.775 26.5666 -17.025C26.5666 -14.275 28.3916 -12.825 30.5166 -12.825ZM44.2859 -10.7C41.5859 -10.7 39.4359 -12.525 39.4359 -16.075V-22.15C39.4359 -22.35 39.5359 -22.5 39.7359 -22.575L41.1609 -23.1C41.4109 -23.2 41.5859 -23.075 41.5859 -22.8V-16.15C41.5859 -14 42.8359 -12.825 44.6859 -12.825C46.5609 -12.825 47.9359 -14.025 47.9359 -16.15V-22.15C47.9359 -22.35 48.0359 -22.5 48.2359 -22.575L49.6609 -23.1C49.9109 -23.2 50.0859 -23.075 50.0859 -22.8V-11.375C50.0859 -11.15 49.9359 -11 49.7109 -11H48.3109C48.0859 -11 47.9359 -11.15 47.9359 -11.375V-12.475C47.0109 -11.125 45.5859 -10.7 44.2859 -10.7ZM53.4369 -24.375C53.1869 -24.3 53.0119 -24.4 53.0119 -24.675V-26.45C53.0119 -26.65 53.1119 -26.8 53.3119 -26.875L54.8869 -27.475C55.1369 -27.575 55.3119 -27.45 55.3119 -27.175V-25.325C55.3119 -25.125 55.2119 -24.975 55.0119 -24.9L53.4369 -24.375ZM53.4619 -11C53.2369 -11 53.0869 -11.15 53.0869 -11.375V-22.15C53.0869 -22.35 53.1869 -22.5 53.3869 -22.575L54.8119 -23.1C55.0619 -23.2 55.2369 -23.075 55.2369 -22.8V-11.375C55.2369 -11.15 55.0869 -11 54.8619 -11H53.4619ZM66.3383 -21.85C66.4133 -21.625 66.3383 -21.45 66.1133 -21.35L60.3883 -18.975V-11.375C60.3883 -11.15 60.2383 -11 60.0133 -11H58.6133C58.3883 -11 58.2383 -11.15 58.2383 -11.375V-22.15C58.2383 -22.35 58.3383 -22.5 58.5383 -22.575L59.9633 -23.1C60.2133 -23.2 60.3883 -23.075 60.3883 -22.8V-21.075L65.3883 -23.15C65.6133 -23.25 65.7883 -23.175 65.8883 -22.95L66.3383 -21.85ZM73.3871 -23.3C76.8121 -23.3 78.9121 -20.6 78.9121 -17.6V-16.675C78.9121 -16.45 78.7621 -16.3 78.5371 -16.3H69.5121C69.7871 -14.35 71.1621 -12.8 73.5871 -12.8C74.9371 -12.8 76.1371 -13.275 77.3621 -14.175C77.5871 -14.325 77.7621 -14.3 77.8871 -14.1L78.5871 -13.05C78.7121 -12.875 78.6871 -12.675 78.5121 -12.525C77.1621 -11.325 75.3371 -10.7 73.5621 -10.7C69.6121 -10.7 67.2621 -13.325 67.2621 -16.925C67.2621 -20.875 70.0121 -23.3 73.3871 -23.3ZM69.5871 -18.25H76.6371C76.5371 -19.8 75.4371 -21.2 73.3621 -21.2C71.4121 -21.2 70.0121 -20.075 69.5871 -18.25ZM85.7049 -10.7C83.9299 -10.7 82.1299 -11.275 81.0549 -12.525C80.9049 -12.675 80.9299 -12.875 81.0549 -13.05L81.8549 -14.075C82.0049 -14.275 82.1799 -14.275 82.3799 -14.125C83.1299 -13.475 84.1299 -12.8 85.7549 -12.8C87.3049 -12.8 88.1549 -13.3 88.1549 -14.275C88.1549 -15.275 87.2799 -15.675 85.6549 -16.075C83.6299 -16.575 81.4049 -17.175 81.4049 -19.625C81.4049 -21.775 83.1049 -23.3 85.7799 -23.3C87.5049 -23.3 88.7299 -22.7 89.5299 -22.05C89.7049 -21.875 89.7049 -21.725 89.5549 -21.525L88.7549 -20.525C88.6049 -20.35 88.4299 -20.3 88.2299 -20.45C87.6549 -20.85 86.8549 -21.2 85.8299 -21.2C84.6049 -21.2 83.5549 -20.725 83.5549 -19.75C83.5549 -18.85 84.4549 -18.5 86.1549 -18.1C88.6299 -17.525 90.2549 -16.6 90.2549 -14.425C90.2549 -11.375 87.5299 -10.7 85.7049 -10.7ZM104.121 -10.7C100.321 -10.7 98.1215 -13.6 98.1215 -17.025C98.1215 -20.85 100.971 -23.3 104.246 -23.3C105.896 -23.3 107.421 -22.675 108.196 -21.625V-22.15C108.196 -22.35 108.296 -22.5 108.496 -22.575L109.921 -23.1C110.171 -23.2 110.346 -23.1 110.346 -22.825V-11.375C110.346 -11.15 110.196 -11 109.971 -11H108.571C108.346 -11 108.196 -11.15 108.196 -11.375V-12.35C107.496 -11.475 105.846 -10.7 104.121 -10.7ZM104.271 -12.825C106.496 -12.825 108.221 -14.25 108.221 -17.025C108.221 -19.775 106.496 -21.2 104.271 -21.2C102.146 -21.2 100.321 -19.775 100.321 -17.025C100.321 -14.275 102.146 -12.825 104.271 -12.825ZM113.716 -11C113.491 -11 113.341 -11.15 113.341 -11.375V-27.65C113.341 -27.85 113.441 -28 113.641 -28.075L115.066 -28.6C115.316 -28.7 115.491 -28.575 115.491 -28.3V-11.375C115.491 -11.15 115.341 -11 115.116 -11H113.716ZM118.867 -11C118.642 -11 118.492 -11.15 118.492 -11.375V-27.65C118.492 -27.85 118.592 -28 118.792 -28.075L120.217 -28.6C120.467 -28.7 120.642 -28.575 120.642 -28.3V-11.375C120.642 -11.15 120.492 -11 120.267 -11H118.867ZM135.18 -10.7C131.58 -10.7 129.005 -13.375 129.005 -17C129.005 -20.625 131.58 -23.3 135.18 -23.3C138.78 -23.3 141.33 -20.625 141.33 -17C141.33 -13.375 138.78 -10.7 135.18 -10.7ZM135.18 -12.8C137.63 -12.8 139.13 -14.65 139.13 -17C139.13 -19.35 137.63 -21.2 135.18 -21.2C132.705 -21.2 131.205 -19.35 131.205 -17C131.205 -14.65 132.705 -12.8 135.18 -12.8ZM149.584 -28.25C149.809 -28.125 149.884 -27.975 149.809 -27.775L149.384 -26.55C149.309 -26.325 149.134 -26.25 148.884 -26.375C148.584 -26.5 148.409 -26.5 148.159 -26.5C147.084 -26.5 146.709 -25.75 146.709 -24.725V-23H148.759C148.984 -23 149.134 -22.85 149.134 -22.625V-21.425C149.134 -21.2 148.984 -21.05 148.759 -21.05H146.709V-11.375C146.709 -11.15 146.559 -11 146.334 -11H144.934C144.709 -11 144.559 -11.15 144.559 -11.375V-21.05H143.509C143.284 -21.05 143.134 -21.2 143.134 -21.425V-22.625C143.134 -22.85 143.284 -23 143.509 -23H144.559V-24.7C144.559 -26.4 144.959 -28.65 147.909 -28.65C148.509 -28.65 149.084 -28.525 149.584 -28.25ZM7.275 16.3C3.675 16.3 1.1 13.625 1.1 10C1.1 6.375 3.675 3.7 7.275 3.7C10.875 3.7 13.425 6.375 13.425 10C13.425 13.625 10.875 16.3 7.275 16.3ZM7.275 14.2C9.725 14.2 11.225 12.35 11.225 10C11.225 7.65 9.725 5.8 7.275 5.8C4.8 5.8 3.3 7.65 3.3 10C3.3 12.35 4.8 14.2 7.275 14.2ZM20.7264 16.3C18.0264 16.3 15.8764 14.475 15.8764 10.925V4.85C15.8764 4.65 15.9764 4.5 16.1764 4.425L17.6014 3.9C17.8514 3.8 18.0264 3.925 18.0264 4.2V10.85C18.0264 13 19.2764 14.175 21.1264 14.175C23.0014 14.175 24.3764 12.975 24.3764 10.85V4.85C24.3764 4.65 24.4764 4.5 24.6764 4.425L26.1014 3.9C26.3514 3.8 26.5264 3.925 26.5264 4.2V15.625C26.5264 15.85 26.3764 16 26.1514 16H24.7514C24.5264 16 24.3764 15.85 24.3764 15.625V14.525C23.4514 15.875 22.0264 16.3 20.7264 16.3ZM37.6273 5.15C37.7023 5.375 37.6273 5.55 37.4023 5.65L31.6773 8.025V15.625C31.6773 15.85 31.5273 16 31.3023 16H29.9023C29.6773 16 29.5273 15.85 29.5273 15.625V4.85C29.5273 4.65 29.6273 4.5 29.8273 4.425L31.2523 3.9C31.5023 3.8 31.6773 3.925 31.6773 4.2V5.925L36.6773 3.85C36.9023 3.75 37.0773 3.825 37.1773 4.05L37.6273 5.15ZM51.2436 3.7C54.6686 3.7 56.7686 6.4 56.7686 9.4V10.325C56.7686 10.55 56.6186 10.7 56.3936 10.7H47.3686C47.6436 12.65 49.0186 14.2 51.4436 14.2C52.7936 14.2 53.9936 13.725 55.2186 12.825C55.4436 12.675 55.6186 12.7 55.7436 12.9L56.4436 13.95C56.5686 14.125 56.5436 14.325 56.3686 14.475C55.0186 15.675 53.1936 16.3 51.4186 16.3C47.4686 16.3 45.1186 13.675 45.1186 10.075C45.1186 6.125 47.8686 3.7 51.2436 3.7ZM47.4436 8.75H54.4936C54.3936 7.2 53.2936 5.8 51.2186 5.8C49.2686 5.8 47.8686 6.925 47.4436 8.75ZM59.7363 16C59.5113 16 59.3613 15.85 59.3613 15.625V4.85C59.3613 4.65 59.4613 4.5 59.6613 4.425L61.0863 3.9C61.3363 3.8 61.5113 3.925 61.5113 4.2V5.475C62.4363 4.125 63.8613 3.7 65.1613 3.7C67.8613 3.7 70.0113 5.525 70.0113 9.075V15.625C70.0113 15.85 69.8613 16 69.6363 16H68.2363C68.0113 16 67.8613 15.85 67.8613 15.625V9.15C67.8613 7 66.6113 5.825 64.7613 5.825C62.8863 5.825 61.5113 7.025 61.5113 9.15V15.625C61.5113 15.85 61.3613 16 61.1363 16H59.7363ZM78.5873 3.7C82.0123 3.7 84.1123 6.4 84.1123 9.4V10.325C84.1123 10.55 83.9623 10.7 83.7373 10.7H74.7123C74.9873 12.65 76.3623 14.2 78.7873 14.2C80.1373 14.2 81.3373 13.725 82.5623 12.825C82.7873 12.675 82.9623 12.7 83.0873 12.9L83.7873 13.95C83.9123 14.125 83.8873 14.325 83.7123 14.475C82.3623 15.675 80.5373 16.3 78.7623 16.3C74.8123 16.3 72.4623 13.675 72.4623 10.075C72.4623 6.125 75.2123 3.7 78.5873 3.7ZM74.7873 8.75H81.8373C81.7373 7.2 80.6373 5.8 78.5623 5.8C76.6123 5.8 75.2123 6.925 74.7873 8.75ZM94.8051 5.15C94.8801 5.375 94.8051 5.55 94.5801 5.65L88.8551 8.025V15.625C88.8551 15.85 88.7051 16 88.4801 16H87.0801C86.8551 16 86.7051 15.85 86.7051 15.625V4.85C86.7051 4.65 86.8051 4.5 87.0051 4.425L88.4301 3.9C88.6801 3.8 88.8551 3.925 88.8551 4.2V5.925L93.8551 3.85C94.0801 3.75 94.2551 3.825 94.3551 4.05L94.8051 5.15ZM101.654 21.3C99.8789 21.3 98.1039 20.875 96.3789 19.575C96.2039 19.425 96.1789 19.25 96.2789 19.05L97.0039 17.8C97.1289 17.575 97.3039 17.55 97.5289 17.7C98.7039 18.6 100.154 19.2 101.679 19.2C104.354 19.2 105.804 17.5 105.804 14.8V14.65C105.154 15.45 103.629 16.3 101.654 16.3C97.9789 16.3 95.7289 13.4 95.7289 10C95.7289 6.15 98.5789 3.7 101.854 3.7C103.504 3.7 105.029 4.325 105.804 5.375V4.85C105.804 4.65 105.904 4.5 106.104 4.425L107.529 3.9C107.779 3.8 107.954 3.9 107.954 4.175V14.35C107.954 19.2 105.504 21.3 101.654 21.3ZM101.904 14.175C104.079 14.175 105.829 12.75 105.829 9.975C105.829 7.225 104.079 5.8 101.904 5.8C99.7289 5.8 97.9289 7.225 97.9289 9.975C97.9289 12.725 99.7289 14.175 101.904 14.175ZM121.148 4C121.423 4 121.548 4.175 121.448 4.425L114.473 20.725C114.398 20.925 114.248 21 114.048 21H112.473C112.198 21 112.073 20.825 112.173 20.575L114.573 14.95L110.073 4.425C109.973 4.175 110.098 4 110.373 4H111.973C112.173 4 112.348 4.1 112.423 4.3L115.748 12.2L119.098 4.3C119.173 4.1 119.323 4 119.523 4H121.148ZM122.694 16C122.469 16 122.319 15.85 122.319 15.625V14.075C122.319 13.85 122.469 13.7 122.694 13.7H124.244C124.469 13.7 124.619 13.85 124.619 14.075V15.625C124.619 15.85 124.469 16 124.244 16H122.694Z" fill="#243746"/>
</g>
<defs>
<clipPath id="clip0_13_125">
<rect width="188" height="22" fill="white"/>
</clipPath>
</defs>
</svg>
