<svg width="188" height="29" viewBox="0 0 188 29" fill="none" xmlns="http://www.w3.org/2000/svg">
<g clip-path="url(#clip0_13_125)">
<path d="M12.45 -22.35H4V-17.3H10.475C10.7 -17.3 10.85 -17.15 10.85 -16.925V-15.525C10.85 -15.3 10.7 -15.15 10.475 -15.15H4V-9.15H12.45C12.675 -9.15 12.825 -9 12.825 -8.775V-7.375C12.825 -7.15 12.675 -7 12.45 -7H2.125C1.9 -7 1.75 -7.15 1.75 -7.375V-24.125C1.75 -24.35 1.9 -24.5 2.125 -24.5H12.45C12.675 -24.5 12.825 -24.35 12.825 -24.125V-22.725C12.825 -22.5 12.675 -22.35 12.45 -22.35ZM15.7422 -7C15.5172 -7 15.3672 -7.15 15.3672 -7.375V-18.15C15.3672 -18.35 15.4672 -18.5 15.6672 -18.575L17.0922 -19.1C17.3422 -19.2 17.5172 -19.075 17.5172 -18.8V-17.525C18.4422 -18.875 19.8672 -19.3 21.1672 -19.3C23.8672 -19.3 26.0172 -17.475 26.0172 -13.925V-7.375C26.0172 -7.15 25.8672 -7 25.6422 -7H24.2422C24.0172 -7 23.8672 -7.15 23.8672 -7.375V-13.85C23.8672 -16 22.6172 -17.175 20.7672 -17.175C18.8922 -17.175 17.5172 -15.975 17.5172 -13.85V-7.375C17.5172 -7.15 17.3672 -7 17.1422 -7H15.7422ZM34.5932 -19.3C38.0182 -19.3 40.1182 -16.6 40.1182 -13.6V-12.675C40.1182 -12.45 39.9682 -12.3 39.7432 -12.3H30.7182C30.9932 -10.35 32.3682 -8.8 34.7932 -8.8C36.1432 -8.8 37.3432 -9.275 38.5682 -10.175C38.7932 -10.325 38.9682 -10.3 39.0932 -10.1L39.7932 -9.05C39.9182 -8.875 39.8932 -8.675 39.7182 -8.525C38.3682 -7.325 36.5432 -6.7 34.7682 -6.7C30.8182 -6.7 28.4682 -9.325 28.4682 -12.925C28.4682 -16.875 31.2182 -19.3 34.5932 -19.3ZM30.7932 -14.25H37.8432C37.7432 -15.8 36.6432 -17.2 34.5682 -17.2C32.6182 -17.2 31.2182 -16.075 30.7932 -14.25ZM50.8109 -17.85C50.8859 -17.625 50.8109 -17.45 50.5859 -17.35L44.8609 -14.975V-7.375C44.8609 -7.15 44.7109 -7 44.4859 -7H43.0859C42.8609 -7 42.7109 -7.15 42.7109 -7.375V-18.15C42.7109 -18.35 42.8109 -18.5 43.0109 -18.575L44.4359 -19.1C44.6859 -19.2 44.8609 -19.075 44.8609 -18.8V-17.075L49.8609 -19.15C50.0859 -19.25 50.2609 -19.175 50.3609 -18.95L50.8109 -17.85ZM57.6598 -1.7C55.8848 -1.7 54.1098 -2.125 52.3848 -3.425C52.2098 -3.575 52.1848 -3.75 52.2848 -3.95L53.0098 -5.2C53.1348 -5.425 53.3098 -5.45 53.5348 -5.3C54.7098 -4.4 56.1598 -3.8 57.6848 -3.8C60.3598 -3.8 61.8098 -5.5 61.8098 -8.2V-8.35C61.1598 -7.55 59.6348 -6.7 57.6598 -6.7C53.9848 -6.7 51.7348 -9.6 51.7348 -13C51.7348 -16.85 54.5848 -19.3 57.8598 -19.3C59.5098 -19.3 61.0348 -18.675 61.8098 -17.625V-18.15C61.8098 -18.35 61.9098 -18.5 62.1098 -18.575L63.5348 -19.1C63.7848 -19.2 63.9598 -19.1 63.9598 -18.825V-8.65C63.9598 -3.8 61.5098 -1.7 57.6598 -1.7ZM57.9098 -8.825C60.0848 -8.825 61.8348 -10.25 61.8348 -13.025C61.8348 -15.775 60.0848 -17.2 57.9098 -17.2C55.7348 -17.2 53.9348 -15.775 53.9348 -13.025C53.9348 -10.275 55.7348 -8.825 57.9098 -8.825ZM77.1541 -19C77.4291 -19 77.5541 -18.825 77.4541 -18.575L70.4791 -2.275C70.4041 -2.075 70.2541 -2 70.0541 -2H68.4791C68.2041 -2 68.0791 -2.175 68.1791 -2.425L70.5791 -8.05L66.0791 -18.575C65.9791 -18.825 66.1041 -19 66.3791 -19H67.9791C68.1791 -19 68.3541 -18.9 68.4291 -18.7L71.7541 -10.8L75.1041 -18.7C75.1791 -18.9 75.3291 -19 75.5291 -19H77.1541ZM89.5379 -6.7C87.7629 -6.7 85.9629 -7.275 84.8879 -8.525C84.7379 -8.675 84.7629 -8.875 84.8879 -9.05L85.6879 -10.075C85.8379 -10.275 86.0129 -10.275 86.2129 -10.125C86.9629 -9.475 87.9629 -8.8 89.5879 -8.8C91.1379 -8.8 91.9879 -9.3 91.9879 -10.275C91.9879 -11.275 91.1129 -11.675 89.4879 -12.075C87.4629 -12.575 85.2379 -13.175 85.2379 -15.625C85.2379 -17.775 86.9379 -19.3 89.6129 -19.3C91.3379 -19.3 92.5629 -18.7 93.3629 -18.05C93.5379 -17.875 93.5379 -17.725 93.3879 -17.525L92.5879 -16.525C92.4379 -16.35 92.2629 -16.3 92.0629 -16.45C91.4879 -16.85 90.6879 -17.2 89.6629 -17.2C88.4379 -17.2 87.3879 -16.725 87.3879 -15.75C87.3879 -14.85 88.2879 -14.5 89.9879 -14.1C92.4629 -13.525 94.0879 -12.6 94.0879 -10.425C94.0879 -7.375 91.3629 -6.7 89.5379 -6.7ZM102.318 -19.3C105.743 -19.3 107.843 -16.6 107.843 -13.6V-12.675C107.843 -12.45 107.693 -12.3 107.468 -12.3H98.4428C98.7178 -10.35 100.093 -8.8 102.518 -8.8C103.868 -8.8 105.068 -9.275 106.293 -10.175C106.518 -10.325 106.693 -10.3 106.818 -10.1L107.518 -9.05C107.643 -8.875 107.618 -8.675 107.443 -8.525C106.093 -7.325 104.268 -6.7 102.493 -6.7C98.5428 -6.7 96.1928 -9.325 96.1928 -12.925C96.1928 -16.875 98.9428 -19.3 102.318 -19.3ZM98.5178 -14.25H105.568C105.468 -15.8 104.368 -17.2 102.293 -17.2C100.343 -17.2 98.9428 -16.075 98.5178 -14.25ZM116.236 -6.7C112.661 -6.7 110.036 -9.375 110.036 -13C110.036 -16.625 112.661 -19.3 116.236 -19.3C117.836 -19.3 119.136 -18.875 120.086 -18.175C120.286 -18.025 120.286 -17.85 120.186 -17.65L119.536 -16.525C119.411 -16.3 119.236 -16.25 119.036 -16.375C118.486 -16.725 117.736 -17.2 116.386 -17.2C113.761 -17.2 112.236 -15.35 112.236 -13C112.236 -10.65 113.761 -8.8 116.386 -8.8C117.711 -8.8 118.486 -9.225 119.086 -9.6C119.286 -9.7 119.461 -9.65 119.586 -9.45L120.186 -8.35C120.286 -8.15 120.311 -8 120.236 -7.925C119.486 -7.325 117.986 -6.7 116.236 -6.7ZM127.587 -6.7C124.887 -6.7 122.737 -8.525 122.737 -12.075V-18.15C122.737 -18.35 122.837 -18.5 123.037 -18.575L124.462 -19.1C124.712 -19.2 124.887 -19.075 124.887 -18.8V-12.15C124.887 -10 126.137 -8.825 127.987 -8.825C129.862 -8.825 131.237 -10.025 131.237 -12.15V-18.15C131.237 -18.35 131.337 -18.5 131.537 -18.575L132.962 -19.1C133.212 -19.2 133.387 -19.075 133.387 -18.8V-7.375C133.387 -7.15 133.237 -7 133.012 -7H131.612C131.387 -7 131.237 -7.15 131.237 -7.375V-8.475C130.312 -7.125 128.887 -6.7 127.587 -6.7ZM144.488 -17.85C144.563 -17.625 144.488 -17.45 144.263 -17.35L138.538 -14.975V-7.375C138.538 -7.15 138.388 -7 138.163 -7H136.763C136.538 -7 136.388 -7.15 136.388 -7.375V-18.15C136.388 -18.35 136.488 -18.5 136.688 -18.575L138.113 -19.1C138.363 -19.2 138.538 -19.075 138.538 -18.8V-17.075L143.538 -19.15C143.763 -19.25 143.938 -19.175 144.038 -18.95L144.488 -17.85ZM146.967 -20.375C146.717 -20.3 146.542 -20.4 146.542 -20.675V-22.45C146.542 -22.65 146.642 -22.8 146.842 -22.875L148.417 -23.475C148.667 -23.575 148.842 -23.45 148.842 -23.175V-21.325C148.842 -21.125 148.742 -20.975 148.542 -20.9L146.967 -20.375ZM146.992 -7C146.767 -7 146.617 -7.15 146.617 -7.375V-18.15C146.617 -18.35 146.717 -18.5 146.917 -18.575L148.342 -19.1C148.592 -19.2 148.767 -19.075 148.767 -18.8V-7.375C148.767 -7.15 148.617 -7 148.392 -7H146.992ZM157.944 -7.575C158.019 -7.375 157.944 -7.175 157.694 -7.05C157.144 -6.8 156.669 -6.7 156.144 -6.7C153.369 -6.7 152.719 -8.5 152.719 -10.65V-17.05H151.144C150.919 -17.05 150.769 -17.2 150.769 -17.425V-18.625C150.769 -18.85 150.919 -19 151.144 -19H152.719V-20.9C152.719 -21.1 152.819 -21.25 153.019 -21.325L154.444 -21.85C154.694 -21.95 154.869 -21.825 154.869 -21.55V-19H157.019C157.244 -19 157.394 -18.85 157.394 -18.625V-17.425C157.394 -17.2 157.244 -17.05 157.019 -17.05H154.869V-10.625C154.869 -9.6 155.244 -8.85 156.319 -8.85C156.544 -8.85 156.769 -8.9 157.044 -9C157.294 -9.075 157.469 -9.025 157.544 -8.775L157.944 -7.575ZM170.465 -19C170.74 -19 170.865 -18.825 170.765 -18.575L163.79 -2.275C163.715 -2.075 163.565 -2 163.365 -2H161.79C161.515 -2 161.39 -2.175 161.49 -2.425L163.89 -8.05L159.39 -18.575C159.29 -18.825 159.415 -19 159.69 -19H161.29C161.49 -19 161.665 -18.9 161.74 -18.7L165.065 -10.8L168.415 -18.7C168.49 -18.9 168.64 -19 168.84 -19H170.465ZM9.6 9.15C9.675 9.375 9.6 9.55 9.375 9.65L3.65 12.025V19.625C3.65 19.85 3.5 20 3.275 20H1.875C1.65 20 1.5 19.85 1.5 19.625V8.85C1.5 8.65 1.6 8.5 1.8 8.425L3.225 7.9C3.475 7.8 3.65 7.925 3.65 8.2V9.925L8.65 7.85C8.875 7.75 9.05 7.825 9.15 8.05L9.6 9.15ZM16.6488 7.7C20.0738 7.7 22.1738 10.4 22.1738 13.4V14.325C22.1738 14.55 22.0238 14.7 21.7988 14.7H12.7738C13.0488 16.65 14.4238 18.2 16.8488 18.2C18.1988 18.2 19.3988 17.725 20.6238 16.825C20.8488 16.675 21.0238 16.7 21.1488 16.9L21.8488 17.95C21.9738 18.125 21.9488 18.325 21.7738 18.475C20.4238 19.675 18.5988 20.3 16.8238 20.3C12.8738 20.3 10.5238 17.675 10.5238 14.075C10.5238 10.125 13.2738 7.7 16.6488 7.7ZM12.8488 12.75H19.8988C19.7988 11.2 18.6988 9.8 16.6238 9.8C14.6738 9.8 13.2738 10.925 12.8488 12.75ZM34.8166 25C34.5916 25 34.4416 24.85 34.4416 24.625V18.65C33.7416 19.525 32.0916 20.3 30.3666 20.3C26.5666 20.3 24.3666 17.4 24.3666 13.975C24.3666 10.15 27.2166 7.7 30.4916 7.7C32.1416 7.7 33.6666 8.325 34.4416 9.375V8.85C34.4416 8.65 34.5416 8.5 34.7416 8.425L36.1666 7.9C36.4166 7.8 36.5916 7.9 36.5916 8.175V24.625C36.5916 24.85 36.4416 25 36.2166 25H34.8166ZM30.5166 18.175C32.7416 18.175 34.4666 16.75 34.4666 13.975C34.4666 11.225 32.7416 9.8 30.5166 9.8C28.3916 9.8 26.5666 11.225 26.5666 13.975C26.5666 16.725 28.3916 18.175 30.5166 18.175ZM44.2859 20.3C41.5859 20.3 39.4359 18.475 39.4359 14.925V8.85C39.4359 8.65 39.5359 8.5 39.7359 8.425L41.1609 7.9C41.4109 7.8 41.5859 7.925 41.5859 8.2V14.85C41.5859 17 42.8359 18.175 44.6859 18.175C46.5609 18.175 47.9359 16.975 47.9359 14.85V8.85C47.9359 8.65 48.0359 8.5 48.2359 8.425L49.6609 7.9C49.9109 7.8 50.0859 7.925 50.0859 8.2V19.625C50.0859 19.85 49.9359 20 49.7109 20H48.3109C48.0859 20 47.9359 19.85 47.9359 19.625V18.525C47.0109 19.875 45.5859 20.3 44.2859 20.3ZM53.4369 6.625C53.1869 6.7 53.0119 6.6 53.0119 6.325V4.55C53.0119 4.35 53.1119 4.2 53.3119 4.125L54.8869 3.525C55.1369 3.425 55.3119 3.55 55.3119 3.825V5.675C55.3119 5.875 55.2119 6.025 55.0119 6.1L53.4369 6.625ZM53.4619 20C53.2369 20 53.0869 19.85 53.0869 19.625V8.85C53.0869 8.65 53.1869 8.5 53.3869 8.425L54.8119 7.9C55.0619 7.8 55.2369 7.925 55.2369 8.2V19.625C55.2369 19.85 55.0869 20 54.8619 20H53.4619ZM66.3383 9.15C66.4133 9.375 66.3383 9.55 66.1133 9.65L60.3883 12.025V19.625C60.3883 19.85 60.2383 20 60.0133 20H58.6133C58.3883 20 58.2383 19.85 58.2383 19.625V8.85C58.2383 8.65 58.3383 8.5 58.5383 8.425L59.9633 7.9C60.2133 7.8 60.3883 7.925 60.3883 8.2V9.925L65.3883 7.85C65.6133 7.75 65.7883 7.825 65.8883 8.05L66.3383 9.15ZM73.3871 7.7C76.8121 7.7 78.9121 10.4 78.9121 13.4V14.325C78.9121 14.55 78.7621 14.7 78.5371 14.7H69.5121C69.7871 16.65 71.1621 18.2 73.5871 18.2C74.9371 18.2 76.1371 17.725 77.3621 16.825C77.5871 16.675 77.7621 16.7 77.8871 16.9L78.5871 17.95C78.7121 18.125 78.6871 18.325 78.5121 18.475C77.1621 19.675 75.3371 20.3 73.5621 20.3C69.6121 20.3 67.2621 17.675 67.2621 14.075C67.2621 10.125 70.0121 7.7 73.3871 7.7ZM69.5871 12.75H76.6371C76.5371 11.2 75.4371 9.8 73.3621 9.8C71.4121 9.8 70.0121 10.925 69.5871 12.75ZM85.7049 20.3C83.9299 20.3 82.1299 19.725 81.0549 18.475C80.9049 18.325 80.9299 18.125 81.0549 17.95L81.8549 16.925C82.0049 16.725 82.1799 16.725 82.3799 16.875C83.1299 17.525 84.1299 18.2 85.7549 18.2C87.3049 18.2 88.1549 17.7 88.1549 16.725C88.1549 15.725 87.2799 15.325 85.6549 14.925C83.6299 14.425 81.4049 13.825 81.4049 11.375C81.4049 9.225 83.1049 7.7 85.7799 7.7C87.5049 7.7 88.7299 8.3 89.5299 8.95C89.7049 9.125 89.7049 9.275 89.5549 9.475L88.7549 10.475C88.6049 10.65 88.4299 10.7 88.2299 10.55C87.6549 10.15 86.8549 9.8 85.8299 9.8C84.6049 9.8 83.5549 10.275 83.5549 11.25C83.5549 12.15 84.4549 12.5 86.1549 12.9C88.6299 13.475 90.2549 14.4 90.2549 16.575C90.2549 19.625 87.5299 20.3 85.7049 20.3ZM104.121 20.3C100.321 20.3 98.1215 17.4 98.1215 13.975C98.1215 10.15 100.971 7.7 104.246 7.7C105.896 7.7 107.421 8.325 108.196 9.375V8.85C108.196 8.65 108.296 8.5 108.496 8.425L109.921 7.9C110.171 7.8 110.346 7.9 110.346 8.175V19.625C110.346 19.85 110.196 20 109.971 20H108.571C108.346 20 108.196 19.85 108.196 19.625V18.65C107.496 19.525 105.846 20.3 104.121 20.3ZM104.271 18.175C106.496 18.175 108.221 16.75 108.221 13.975C108.221 11.225 106.496 9.8 104.271 9.8C102.146 9.8 100.321 11.225 100.321 13.975C100.321 16.725 102.146 18.175 104.271 18.175ZM113.716 20C113.491 20 113.341 19.85 113.341 19.625V3.35C113.341 3.15 113.441 3 113.641 2.925L115.066 2.4C115.316 2.3 115.491 2.425 115.491 2.7V19.625C115.491 19.85 115.341 20 115.116 20H113.716ZM118.867 20C118.642 20 118.492 19.85 118.492 19.625V3.35C118.492 3.15 118.592 3 118.792 2.925L120.217 2.4C120.467 2.3 120.642 2.425 120.642 2.7V19.625C120.642 19.85 120.492 20 120.267 20H118.867ZM135.18 20.3C131.58 20.3 129.005 17.625 129.005 14C129.005 10.375 131.58 7.7 135.18 7.7C138.78 7.7 141.33 10.375 141.33 14C141.33 17.625 138.78 20.3 135.18 20.3ZM135.18 18.2C137.63 18.2 139.13 16.35 139.13 14C139.13 11.65 137.63 9.8 135.18 9.8C132.705 9.8 131.205 11.65 131.205 14C131.205 16.35 132.705 18.2 135.18 18.2ZM149.584 2.75C149.809 2.875 149.884 3.025 149.809 3.225L149.384 4.45C149.309 4.675 149.134 4.75 148.884 4.625C148.584 4.5 148.409 4.5 148.159 4.5C147.084 4.5 146.709 5.25 146.709 6.275V8H148.759C148.984 8 149.134 8.15 149.134 8.375V9.575C149.134 9.8 148.984 9.95 148.759 9.95H146.709V19.625C146.709 19.85 146.559 20 146.334 20H144.934C144.709 20 144.559 19.85 144.559 19.625V9.95H143.509C143.284 9.95 143.134 9.8 143.134 9.575V8.375C143.134 8.15 143.284 8 143.509 8H144.559V6.3C144.559 4.6 144.959 2.35 147.909 2.35C148.509 2.35 149.084 2.475 149.584 2.75ZM7.275 47.3C3.675 47.3 1.1 44.625 1.1 41C1.1 37.375 3.675 34.7 7.275 34.7C10.875 34.7 13.425 37.375 13.425 41C13.425 44.625 10.875 47.3 7.275 47.3ZM7.275 45.2C9.725 45.2 11.225 43.35 11.225 41C11.225 38.65 9.725 36.8 7.275 36.8C4.8 36.8 3.3 38.65 3.3 41C3.3 43.35 4.8 45.2 7.275 45.2ZM20.7264 47.3C18.0264 47.3 15.8764 45.475 15.8764 41.925V35.85C15.8764 35.65 15.9764 35.5 16.1764 35.425L17.6014 34.9C17.8514 34.8 18.0264 34.925 18.0264 35.2V41.85C18.0264 44 19.2764 45.175 21.1264 45.175C23.0014 45.175 24.3764 43.975 24.3764 41.85V35.85C24.3764 35.65 24.4764 35.5 24.6764 35.425L26.1014 34.9C26.3514 34.8 26.5264 34.925 26.5264 35.2V46.625C26.5264 46.85 26.3764 47 26.1514 47H24.7514C24.5264 47 24.3764 46.85 24.3764 46.625V45.525C23.4514 46.875 22.0264 47.3 20.7264 47.3ZM37.6273 36.15C37.7023 36.375 37.6273 36.55 37.4023 36.65L31.6773 39.025V46.625C31.6773 46.85 31.5273 47 31.3023 47H29.9023C29.6773 47 29.5273 46.85 29.5273 46.625V35.85C29.5273 35.65 29.6273 35.5 29.8273 35.425L31.2523 34.9C31.5023 34.8 31.6773 34.925 31.6773 35.2V36.925L36.6773 34.85C36.9023 34.75 37.0773 34.825 37.1773 35.05L37.6273 36.15ZM51.2436 34.7C54.6686 34.7 56.7686 37.4 56.7686 40.4V41.325C56.7686 41.55 56.6186 41.7 56.3936 41.7H47.3686C47.6436 43.65 49.0186 45.2 51.4436 45.2C52.7936 45.2 53.9936 44.725 55.2186 43.825C55.4436 43.675 55.6186 43.7 55.7436 43.9L56.4436 44.95C56.5686 45.125 56.5436 45.325 56.3686 45.475C55.0186 46.675 53.1936 47.3 51.4186 47.3C47.4686 47.3 45.1186 44.675 45.1186 41.075C45.1186 37.125 47.8686 34.7 51.2436 34.7ZM47.4436 39.75H54.4936C54.3936 38.2 53.2936 36.8 51.2186 36.8C49.2686 36.8 47.8686 37.925 47.4436 39.75ZM59.7363 47C59.5113 47 59.3613 46.85 59.3613 46.625V35.85C59.3613 35.65 59.4613 35.5 59.6613 35.425L61.0863 34.9C61.3363 34.8 61.5113 34.925 61.5113 35.2V36.475C62.4363 35.125 63.8613 34.7 65.1613 34.7C67.8613 34.7 70.0113 36.525 70.0113 40.075V46.625C70.0113 46.85 69.8613 47 69.6363 47H68.2363C68.0113 47 67.8613 46.85 67.8613 46.625V40.15C67.8613 38 66.6113 36.825 64.7613 36.825C62.8863 36.825 61.5113 38.025 61.5113 40.15V46.625C61.5113 46.85 61.3613 47 61.1363 47H59.7363ZM78.5873 34.7C82.0123 34.7 84.1123 37.4 84.1123 40.4V41.325C84.1123 41.55 83.9623 41.7 83.7373 41.7H74.7123C74.9873 43.65 76.3623 45.2 78.7873 45.2C80.1373 45.2 81.3373 44.725 82.5623 43.825C82.7873 43.675 82.9623 43.7 83.0873 43.9L83.7873 44.95C83.9123 45.125 83.8873 45.325 83.7123 45.475C82.3623 46.675 80.5373 47.3 78.7623 47.3C74.8123 47.3 72.4623 44.675 72.4623 41.075C72.4623 37.125 75.2123 34.7 78.5873 34.7ZM74.7873 39.75H81.8373C81.7373 38.2 80.6373 36.8 78.5623 36.8C76.6123 36.8 75.2123 37.925 74.7873 39.75ZM94.8051 36.15C94.8801 36.375 94.8051 36.55 94.5801 36.65L88.8551 39.025V46.625C88.8551 46.85 88.7051 47 88.4801 47H87.0801C86.8551 47 86.7051 46.85 86.7051 46.625V35.85C86.7051 35.65 86.8051 35.5 87.0051 35.425L88.4301 34.9C88.6801 34.8 88.8551 34.925 88.8551 35.2V36.925L93.8551 34.85C94.0801 34.75 94.2551 34.825 94.3551 35.05L94.8051 36.15ZM101.654 52.3C99.8789 52.3 98.1039 51.875 96.3789 50.575C96.2039 50.425 96.1789 50.25 96.2789 50.05L97.0039 48.8C97.1289 48.575 97.3039 48.55 97.5289 48.7C98.7039 49.6 100.154 50.2 101.679 50.2C104.354 50.2 105.804 48.5 105.804 45.8V45.65C105.154 46.45 103.629 47.3 101.654 47.3C97.9789 47.3 95.7289 44.4 95.7289 41C95.7289 37.15 98.5789 34.7 101.854 34.7C103.504 34.7 105.029 35.325 105.804 36.375V35.85C105.804 35.65 105.904 35.5 106.104 35.425L107.529 34.9C107.779 34.8 107.954 34.9 107.954 35.175V45.35C107.954 50.2 105.504 52.3 101.654 52.3ZM101.904 45.175C104.079 45.175 105.829 43.75 105.829 40.975C105.829 38.225 104.079 36.8 101.904 36.8C99.7289 36.8 97.9289 38.225 97.9289 40.975C97.9289 43.725 99.7289 45.175 101.904 45.175ZM121.148 35C121.423 35 121.548 35.175 121.448 35.425L114.473 51.725C114.398 51.925 114.248 52 114.048 52H112.473C112.198 52 112.073 51.825 112.173 51.575L114.573 45.95L110.073 35.425C109.973 35.175 110.098 35 110.373 35H111.973C112.173 35 112.348 35.1 112.423 35.3L115.748 43.2L119.098 35.3C119.173 35.1 119.323 35 119.523 35H121.148ZM122.694 47C122.469 47 122.319 46.85 122.319 46.625V45.075C122.319 44.85 122.469 44.7 122.694 44.7H124.244C124.469 44.7 124.619 44.85 124.619 45.075V46.625C124.619 46.85 124.469 47 124.244 47H122.694Z" fill="#243746"/>
</g>
<defs>
<clipPath id="clip0_13_125">
<rect width="188" height="29" fill="white"/>
</clipPath>
</defs>
</svg>
