<svg width="231" height="19" viewBox="0 0 231 19" fill="none" xmlns="http://www.w3.org/2000/svg">
<g clip-path="url(#clip0_13_128)">
<path d="M4.626 -6C4.482 -6 4.374 -6.054 4.32 -6.216L0.558 -18.294C0.504 -18.492 0.594 -18.6 0.792 -18.6H1.998C2.142 -18.6 2.268 -18.51 2.304 -18.366L5.238 -8.538L8.172 -18.366C8.208 -18.51 8.334 -18.6 8.478 -18.6H9.846C9.99 -18.6 10.116 -18.51 10.152 -18.366L13.086 -8.538L16.02 -18.366C16.056 -18.51 16.182 -18.6 16.326 -18.6H17.532C17.73 -18.6 17.82 -18.492 17.766 -18.294L14.004 -6.216C13.95 -6.054 13.842 -6 13.698 -6H12.474C12.33 -6 12.204 -6.09 12.168 -6.234L9.162 -16.134L6.156 -6.234C6.12 -6.09 5.994 -6 5.85 -6H4.626ZM22.0728 -14.856C24.5388 -14.856 26.0508 -12.912 26.0508 -10.752V-10.086C26.0508 -9.924 25.9428 -9.816 25.7808 -9.816H19.2828C19.4808 -8.412 20.4708 -7.296 22.2168 -7.296C23.1888 -7.296 24.0528 -7.638 24.9348 -8.286C25.0968 -8.394 25.2228 -8.376 25.3128 -8.232L25.8168 -7.476C25.9068 -7.35 25.8888 -7.206 25.7628 -7.098C24.7908 -6.234 23.4768 -5.784 22.1988 -5.784C19.3548 -5.784 17.6628 -7.674 17.6628 -10.266C17.6628 -13.11 19.6428 -14.856 22.0728 -14.856ZM19.3368 -11.22H24.4128C24.3408 -12.336 23.5488 -13.344 22.0548 -13.344C20.6508 -13.344 19.6428 -12.534 19.3368 -11.22ZM31.976 -6C31.814 -6 31.706 -6.108 31.706 -6.27V-17.988C31.706 -18.132 31.778 -18.24 31.922 -18.294L32.948 -18.672C33.128 -18.744 33.254 -18.654 33.254 -18.456V-6.27C33.254 -6.108 33.146 -6 32.984 -6H31.976ZM39.393 -5.784C36.801 -5.784 34.947 -7.71 34.947 -10.32C34.947 -12.93 36.801 -14.856 39.393 -14.856C41.985 -14.856 43.821 -12.93 43.821 -10.32C43.821 -7.71 41.985 -5.784 39.393 -5.784ZM39.393 -7.296C41.157 -7.296 42.237 -8.628 42.237 -10.32C42.237 -12.012 41.157 -13.344 39.393 -13.344C37.611 -13.344 36.531 -12.012 36.531 -10.32C36.531 -8.628 37.611 -7.296 39.393 -7.296ZM49.672 -5.784C47.08 -5.784 45.226 -7.71 45.226 -10.32C45.226 -12.93 47.08 -14.856 49.672 -14.856C52.264 -14.856 54.1 -12.93 54.1 -10.32C54.1 -7.71 52.264 -5.784 49.672 -5.784ZM49.672 -7.296C51.436 -7.296 52.516 -8.628 52.516 -10.32C52.516 -12.012 51.436 -13.344 49.672 -13.344C47.89 -13.344 46.81 -12.012 46.81 -10.32C46.81 -8.628 47.89 -7.296 49.672 -7.296ZM62.561 -6.324C62.705 -6.162 62.651 -6 62.417 -6H61.085C60.959 -6 60.851 -6.036 60.761 -6.144L57.341 -9.87V-6.27C57.341 -6.108 57.233 -6 57.071 -6H56.063C55.901 -6 55.793 -6.108 55.793 -6.27V-17.988C55.793 -18.132 55.865 -18.24 56.009 -18.294L57.035 -18.672C57.215 -18.744 57.341 -18.654 57.341 -18.456V-11.31L60.545 -14.496C60.653 -14.604 60.761 -14.64 60.887 -14.64H62.219C62.453 -14.64 62.525 -14.478 62.363 -14.316L58.691 -10.644L62.561 -6.324ZM72.0007 -18.42C72.1627 -18.33 72.2167 -18.222 72.1627 -18.078L71.8567 -17.196C71.8027 -17.034 71.6767 -16.98 71.4967 -17.07C71.2807 -17.16 71.1547 -17.16 70.9747 -17.16C70.2007 -17.16 69.9307 -16.62 69.9307 -15.882V-14.64H71.4067C71.5687 -14.64 71.6767 -14.532 71.6767 -14.37V-13.506C71.6767 -13.344 71.5687 -13.236 71.4067 -13.236H69.9307V-6.27C69.9307 -6.108 69.8227 -6 69.6607 -6H68.6527C68.4907 -6 68.3827 -6.108 68.3827 -6.27V-13.236H67.6267C67.4647 -13.236 67.3567 -13.344 67.3567 -13.506V-14.37C67.3567 -14.532 67.4647 -14.64 67.6267 -14.64H68.3827V-15.864C68.3827 -17.088 68.6707 -18.708 70.7947 -18.708C71.2267 -18.708 71.6407 -18.618 72.0007 -18.42ZM77.1121 -5.784C74.5201 -5.784 72.6661 -7.71 72.6661 -10.32C72.6661 -12.93 74.5201 -14.856 77.1121 -14.856C79.7041 -14.856 81.5401 -12.93 81.5401 -10.32C81.5401 -7.71 79.7041 -5.784 77.1121 -5.784ZM77.1121 -7.296C78.8761 -7.296 79.9561 -8.628 79.9561 -10.32C79.9561 -12.012 78.8761 -13.344 77.1121 -13.344C75.3301 -13.344 74.2501 -12.012 74.2501 -10.32C74.2501 -8.628 75.3301 -7.296 77.1121 -7.296ZM89.0651 -13.812C89.1191 -13.65 89.0651 -13.524 88.9031 -13.452L84.7811 -11.742V-6.27C84.7811 -6.108 84.6731 -6 84.5111 -6H83.5031C83.3411 -6 83.2331 -6.108 83.2331 -6.27V-14.028C83.2331 -14.172 83.3051 -14.28 83.4491 -14.334L84.4751 -14.712C84.6551 -14.784 84.7811 -14.694 84.7811 -14.496V-13.254L88.3811 -14.748C88.5431 -14.82 88.6691 -14.766 88.7411 -14.604L89.0651 -13.812ZM92.7224 -6C92.5784 -6 92.4704 -6.054 92.4164 -6.216L89.7884 -14.334C89.7344 -14.514 89.8064 -14.64 90.0044 -14.64H91.0304C91.1744 -14.64 91.3004 -14.568 91.3364 -14.424L93.1904 -8.394L94.9904 -14.406C95.0264 -14.55 95.1524 -14.64 95.2964 -14.64H96.3224C96.4664 -14.64 96.5924 -14.55 96.6284 -14.406L98.4284 -8.394L100.282 -14.424C100.318 -14.568 100.444 -14.64 100.588 -14.64H101.578C101.776 -14.64 101.866 -14.532 101.812 -14.334L99.2024 -6.216C99.1484 -6.054 99.0404 -6 98.8964 -6H97.9604C97.8164 -6 97.6904 -6.072 97.6544 -6.216L95.8184 -12.21L93.9644 -6.216C93.9284 -6.072 93.8024 -6 93.6584 -6H92.7224ZM106.891 -5.784C104.155 -5.784 102.571 -7.872 102.571 -10.338C102.571 -13.092 104.623 -14.856 106.981 -14.856C108.169 -14.856 109.267 -14.406 109.825 -13.65V-14.028C109.825 -14.172 109.897 -14.28 110.041 -14.334L111.067 -14.712C111.247 -14.784 111.373 -14.712 111.373 -14.514V-6.27C111.373 -6.108 111.265 -6 111.103 -6H110.095C109.933 -6 109.825 -6.108 109.825 -6.27V-6.972C109.321 -6.342 108.133 -5.784 106.891 -5.784ZM106.999 -7.314C108.601 -7.314 109.843 -8.34 109.843 -10.338C109.843 -12.318 108.601 -13.344 106.999 -13.344C105.469 -13.344 104.155 -12.318 104.155 -10.338C104.155 -8.358 105.469 -7.314 106.999 -7.314ZM119.181 -13.812C119.235 -13.65 119.181 -13.524 119.019 -13.452L114.897 -11.742V-6.27C114.897 -6.108 114.789 -6 114.627 -6H113.619C113.457 -6 113.349 -6.108 113.349 -6.27V-14.028C113.349 -14.172 113.421 -14.28 113.565 -14.334L114.591 -14.712C114.771 -14.784 114.897 -14.694 114.897 -14.496V-13.254L118.497 -14.748C118.659 -14.82 118.785 -14.766 118.857 -14.604L119.181 -13.812ZM123.987 -5.784C121.251 -5.784 119.667 -7.872 119.667 -10.338C119.667 -13.092 121.719 -14.856 124.077 -14.856C125.265 -14.856 126.363 -14.406 126.921 -13.65V-18.006C126.921 -18.15 126.993 -18.258 127.137 -18.312L128.163 -18.69C128.343 -18.762 128.469 -18.69 128.469 -18.492V-6.27C128.469 -6.108 128.361 -6 128.199 -6H127.191C127.029 -6 126.921 -6.108 126.921 -6.27V-6.972C126.417 -6.342 125.229 -5.784 123.987 -5.784ZM124.095 -7.314C125.697 -7.314 126.939 -8.34 126.939 -10.338C126.939 -12.318 125.697 -13.344 124.095 -13.344C122.565 -13.344 121.251 -12.318 121.251 -10.338C121.251 -8.358 122.565 -7.314 124.095 -7.314ZM138.859 -6.414C138.913 -6.27 138.859 -6.126 138.679 -6.036C138.283 -5.856 137.941 -5.784 137.563 -5.784C135.565 -5.784 135.097 -7.08 135.097 -8.628V-13.236H133.963C133.801 -13.236 133.693 -13.344 133.693 -13.506V-14.37C133.693 -14.532 133.801 -14.64 133.963 -14.64H135.097V-16.008C135.097 -16.152 135.169 -16.26 135.313 -16.314L136.339 -16.692C136.519 -16.764 136.645 -16.674 136.645 -16.476V-14.64H138.193C138.355 -14.64 138.463 -14.532 138.463 -14.37V-13.506C138.463 -13.344 138.355 -13.236 138.193 -13.236H136.645V-8.61C136.645 -7.872 136.915 -7.332 137.689 -7.332C137.851 -7.332 138.013 -7.368 138.211 -7.44C138.391 -7.494 138.517 -7.458 138.571 -7.278L138.859 -6.414ZM144.192 -5.784C141.6 -5.784 139.746 -7.71 139.746 -10.32C139.746 -12.93 141.6 -14.856 144.192 -14.856C146.784 -14.856 148.62 -12.93 148.62 -10.32C148.62 -7.71 146.784 -5.784 144.192 -5.784ZM144.192 -7.296C145.956 -7.296 147.036 -8.628 147.036 -10.32C147.036 -12.012 145.956 -13.344 144.192 -13.344C142.41 -13.344 141.33 -12.012 141.33 -10.32C141.33 -8.628 142.41 -7.296 144.192 -7.296ZM158.727 -6.414C158.781 -6.27 158.727 -6.126 158.547 -6.036C158.151 -5.856 157.809 -5.784 157.431 -5.784C155.433 -5.784 154.965 -7.08 154.965 -8.628V-13.236H153.831C153.669 -13.236 153.561 -13.344 153.561 -13.506V-14.37C153.561 -14.532 153.669 -14.64 153.831 -14.64H154.965V-16.008C154.965 -16.152 155.037 -16.26 155.181 -16.314L156.207 -16.692C156.387 -16.764 156.513 -16.674 156.513 -16.476V-14.64H158.061C158.223 -14.64 158.331 -14.532 158.331 -14.37V-13.506C158.331 -13.344 158.223 -13.236 158.061 -13.236H156.513V-8.61C156.513 -7.872 156.783 -7.332 157.557 -7.332C157.719 -7.332 157.881 -7.368 158.079 -7.44C158.259 -7.494 158.385 -7.458 158.439 -7.278L158.727 -6.414ZM163.934 -5.784C161.198 -5.784 159.614 -7.872 159.614 -10.338C159.614 -13.092 161.666 -14.856 164.024 -14.856C165.212 -14.856 166.31 -14.406 166.868 -13.65V-14.028C166.868 -14.172 166.94 -14.28 167.084 -14.334L168.11 -14.712C168.29 -14.784 168.416 -14.712 168.416 -14.514V-6.27C168.416 -6.108 168.308 -6 168.146 -6H167.138C166.976 -6 166.868 -6.108 166.868 -6.27V-6.972C166.364 -6.342 165.176 -5.784 163.934 -5.784ZM164.042 -7.314C165.644 -7.314 166.886 -8.34 166.886 -10.338C166.886 -12.318 165.644 -13.344 164.042 -13.344C162.512 -13.344 161.198 -12.318 161.198 -10.338C161.198 -8.358 162.512 -7.314 164.042 -7.314ZM174.568 -5.784C171.994 -5.784 170.104 -7.71 170.104 -10.32C170.104 -12.93 171.994 -14.856 174.568 -14.856C175.72 -14.856 176.656 -14.55 177.34 -14.046C177.484 -13.938 177.484 -13.812 177.412 -13.668L176.944 -12.858C176.854 -12.696 176.728 -12.66 176.584 -12.75C176.188 -13.002 175.648 -13.344 174.676 -13.344C172.786 -13.344 171.688 -12.012 171.688 -10.32C171.688 -8.628 172.786 -7.296 174.676 -7.296C175.63 -7.296 176.188 -7.602 176.62 -7.872C176.764 -7.944 176.89 -7.908 176.98 -7.764L177.412 -6.972C177.484 -6.828 177.502 -6.72 177.448 -6.666C176.908 -6.234 175.828 -5.784 174.568 -5.784ZM185.945 -6.324C186.089 -6.162 186.035 -6 185.801 -6H184.469C184.343 -6 184.235 -6.036 184.145 -6.144L180.725 -9.87V-6.27C180.725 -6.108 180.617 -6 180.455 -6H179.447C179.285 -6 179.177 -6.108 179.177 -6.27V-17.988C179.177 -18.132 179.249 -18.24 179.393 -18.294L180.419 -18.672C180.599 -18.744 180.725 -18.654 180.725 -18.456V-11.31L183.929 -14.496C184.037 -14.604 184.145 -14.64 184.271 -14.64H185.603C185.837 -14.64 185.909 -14.478 185.747 -14.316L182.075 -10.644L185.945 -6.324ZM187.546 -6C187.384 -6 187.276 -6.108 187.276 -6.27V-17.988C187.276 -18.132 187.348 -18.24 187.492 -18.294L188.518 -18.672C188.698 -18.744 188.824 -18.654 188.824 -18.456V-6.27C188.824 -6.108 188.716 -6 188.554 -6H187.546ZM191.057 -15.63C190.877 -15.576 190.751 -15.648 190.751 -15.846V-17.124C190.751 -17.268 190.823 -17.376 190.967 -17.43L192.101 -17.862C192.281 -17.934 192.407 -17.844 192.407 -17.646V-16.314C192.407 -16.17 192.335 -16.062 192.191 -16.008L191.057 -15.63ZM191.075 -6C190.913 -6 190.805 -6.108 190.805 -6.27V-14.028C190.805 -14.172 190.877 -14.28 191.021 -14.334L192.047 -14.712C192.227 -14.784 192.353 -14.694 192.353 -14.496V-6.27C192.353 -6.108 192.245 -6 192.083 -6H191.075ZM194.604 -6C194.442 -6 194.334 -6.108 194.334 -6.27V-14.028C194.334 -14.172 194.406 -14.28 194.55 -14.334L195.576 -14.712C195.756 -14.784 195.882 -14.694 195.882 -14.496V-13.578C196.548 -14.55 197.574 -14.856 198.51 -14.856C200.454 -14.856 202.002 -13.542 202.002 -10.986V-6.27C202.002 -6.108 201.894 -6 201.732 -6H200.724C200.562 -6 200.454 -6.108 200.454 -6.27V-10.932C200.454 -12.48 199.554 -13.326 198.222 -13.326C196.872 -13.326 195.882 -12.462 195.882 -10.932V-6.27C195.882 -6.108 195.774 -6 195.612 -6H194.604ZM207.853 -2.184C206.575 -2.184 205.297 -2.49 204.055 -3.426C203.929 -3.534 203.911 -3.66 203.983 -3.804L204.505 -4.704C204.595 -4.866 204.721 -4.884 204.883 -4.776C205.729 -4.128 206.773 -3.696 207.871 -3.696C209.797 -3.696 210.841 -4.92 210.841 -6.864V-6.972C210.373 -6.396 209.275 -5.784 207.853 -5.784C205.207 -5.784 203.587 -7.872 203.587 -10.32C203.587 -13.092 205.639 -14.856 207.997 -14.856C209.185 -14.856 210.283 -14.406 210.841 -13.65V-14.028C210.841 -14.172 210.913 -14.28 211.057 -14.334L212.083 -14.712C212.263 -14.784 212.389 -14.712 212.389 -14.514V-7.188C212.389 -3.696 210.625 -2.184 207.853 -2.184ZM208.033 -7.314C209.599 -7.314 210.859 -8.34 210.859 -10.338C210.859 -12.318 209.599 -13.344 208.033 -13.344C206.467 -13.344 205.171 -12.318 205.171 -10.338C205.171 -8.358 206.467 -7.314 208.033 -7.314ZM5.202 5.144C7.668 5.144 9.18 7.088 9.18 9.248V9.914C9.18 10.076 9.072 10.184 8.91 10.184H2.412C2.61 11.588 3.6 12.704 5.346 12.704C6.318 12.704 7.182 12.362 8.064 11.714C8.226 11.606 8.352 11.624 8.442 11.768L8.946 12.524C9.036 12.65 9.018 12.794 8.892 12.902C7.92 13.766 6.606 14.216 5.328 14.216C2.484 14.216 0.792 12.326 0.792 9.734C0.792 6.89 2.772 5.144 5.202 5.144ZM2.466 8.78H7.542C7.47 7.664 6.678 6.656 5.184 6.656C3.78 6.656 2.772 7.466 2.466 8.78ZM11.1368 14C10.9748 14 10.8668 13.892 10.8668 13.73V5.972C10.8668 5.828 10.9388 5.72 11.0828 5.666L12.1088 5.288C12.2888 5.216 12.4148 5.306 12.4148 5.504V6.422C13.0808 5.45 14.1068 5.144 15.0428 5.144C16.9868 5.144 18.5348 6.458 18.5348 9.014V13.73C18.5348 13.892 18.4268 14 18.2648 14H17.2568C17.0948 14 16.9868 13.892 16.9868 13.73V9.068C16.9868 7.52 16.0868 6.674 14.7548 6.674C13.4048 6.674 12.4148 7.538 12.4148 9.068V13.73C12.4148 13.892 12.3068 14 12.1448 14H11.1368ZM24.5295 5.144C26.9955 5.144 28.5075 7.088 28.5075 9.248V9.914C28.5075 10.076 28.3995 10.184 28.2375 10.184H21.7395C21.9375 11.588 22.9275 12.704 24.6735 12.704C25.6455 12.704 26.5095 12.362 27.3915 11.714C27.5535 11.606 27.6795 11.624 27.7695 11.768L28.2735 12.524C28.3635 12.65 28.3455 12.794 28.2195 12.902C27.2475 13.766 25.9335 14.216 24.6555 14.216C21.8115 14.216 20.1195 12.326 20.1195 9.734C20.1195 6.89 22.0995 5.144 24.5295 5.144ZM21.7935 8.78H26.8695C26.7975 7.664 26.0055 6.656 24.5115 6.656C23.1075 6.656 22.0995 7.466 21.7935 8.78ZM36.0263 6.188C36.0803 6.35 36.0263 6.476 35.8643 6.548L31.7423 8.258V13.73C31.7423 13.892 31.6343 14 31.4723 14H30.4643C30.3023 14 30.1943 13.892 30.1943 13.73V5.972C30.1943 5.828 30.2663 5.72 30.4103 5.666L31.4363 5.288C31.6163 5.216 31.7423 5.306 31.7423 5.504V6.746L35.3423 5.252C35.5043 5.18 35.6303 5.234 35.7023 5.396L36.0263 6.188ZM40.7775 17.816C39.4995 17.816 38.2215 17.51 36.9795 16.574C36.8535 16.466 36.8355 16.34 36.9075 16.196L37.4295 15.296C37.5195 15.134 37.6455 15.116 37.8075 15.224C38.6535 15.872 39.6975 16.304 40.7955 16.304C42.7215 16.304 43.7655 15.08 43.7655 13.136V13.028C43.2975 13.604 42.1995 14.216 40.7775 14.216C38.1315 14.216 36.5115 12.128 36.5115 9.68C36.5115 6.908 38.5635 5.144 40.9215 5.144C42.1095 5.144 43.2075 5.594 43.7655 6.35V5.972C43.7655 5.828 43.8375 5.72 43.9815 5.666L45.0075 5.288C45.1875 5.216 45.3135 5.288 45.3135 5.486V12.812C45.3135 16.304 43.5495 17.816 40.7775 17.816ZM40.9575 12.686C42.5235 12.686 43.7835 11.66 43.7835 9.662C43.7835 7.682 42.5235 6.656 40.9575 6.656C39.3915 6.656 38.0955 7.682 38.0955 9.662C38.0955 11.642 39.3915 12.686 40.9575 12.686ZM54.6334 5.36C54.8314 5.36 54.9214 5.486 54.8494 5.666L49.8274 17.402C49.7734 17.546 49.6654 17.6 49.5214 17.6H48.3874C48.1894 17.6 48.0994 17.474 48.1714 17.294L49.8994 13.244L46.6594 5.666C46.5874 5.486 46.6774 5.36 46.8754 5.36H48.0274C48.1714 5.36 48.2974 5.432 48.3514 5.576L50.7454 11.264L53.1574 5.576C53.2114 5.432 53.3194 5.36 53.4634 5.36H54.6334ZM64.3417 14.216C61.7677 14.216 59.8777 12.29 59.8777 9.68C59.8777 7.07 61.7677 5.144 64.3417 5.144C65.4937 5.144 66.4297 5.45 67.1137 5.954C67.2577 6.062 67.2577 6.188 67.1857 6.332L66.7177 7.142C66.6277 7.304 66.5017 7.34 66.3577 7.25C65.9617 6.998 65.4217 6.656 64.4497 6.656C62.5597 6.656 61.4617 7.988 61.4617 9.68C61.4617 11.372 62.5597 12.704 64.4497 12.704C65.4037 12.704 65.9617 12.398 66.3937 12.128C66.5377 12.056 66.6637 12.092 66.7537 12.236L67.1857 13.028C67.2577 13.172 67.2757 13.28 67.2217 13.334C66.6817 13.766 65.6017 14.216 64.3417 14.216ZM69.2205 14C69.0585 14 68.9505 13.892 68.9505 13.73V2.012C68.9505 1.868 69.0225 1.76 69.1665 1.706L70.1925 1.328C70.3725 1.256 70.4985 1.346 70.4985 1.544V6.422C71.1105 5.522 72.2265 5.144 73.1985 5.144C75.1065 5.144 76.6185 6.458 76.6185 9.014V13.73C76.6185 13.892 76.5105 14 76.3485 14H75.3405C75.1785 14 75.0705 13.892 75.0705 13.73V9.068C75.0705 7.52 74.1705 6.674 72.8385 6.674C71.4885 6.674 70.4985 7.538 70.4985 9.068V13.73C70.4985 13.892 70.3905 14 70.2285 14H69.2205ZM82.5232 14.216C79.7872 14.216 78.2032 12.128 78.2032 9.662C78.2032 6.908 80.2552 5.144 82.6132 5.144C83.8012 5.144 84.8992 5.594 85.4572 6.35V5.972C85.4572 5.828 85.5292 5.72 85.6732 5.666L86.6992 5.288C86.8792 5.216 87.0052 5.288 87.0052 5.486V13.73C87.0052 13.892 86.8972 14 86.7352 14H85.7272C85.5652 14 85.4572 13.892 85.4572 13.73V13.028C84.9532 13.658 83.7652 14.216 82.5232 14.216ZM82.6312 12.686C84.2332 12.686 85.4752 11.66 85.4752 9.662C85.4752 7.682 84.2332 6.656 82.6312 6.656C81.1012 6.656 79.7872 7.682 79.7872 9.662C79.7872 11.642 81.1012 12.686 82.6312 12.686ZM89.2512 14C89.0892 14 88.9812 13.892 88.9812 13.73V2.012C88.9812 1.868 89.0532 1.76 89.1972 1.706L90.2232 1.328C90.4032 1.256 90.5292 1.346 90.5292 1.544V13.73C90.5292 13.892 90.4212 14 90.2592 14H89.2512ZM92.7802 14C92.6182 14 92.5102 13.892 92.5102 13.73V2.012C92.5102 1.868 92.5822 1.76 92.7262 1.706L93.7522 1.328C93.9322 1.256 94.0582 1.346 94.0582 1.544V13.73C94.0582 13.892 93.9502 14 93.7882 14H92.7802ZM100.161 5.144C102.627 5.144 104.139 7.088 104.139 9.248V9.914C104.139 10.076 104.031 10.184 103.869 10.184H97.3711C97.5691 11.588 98.5591 12.704 100.305 12.704C101.277 12.704 102.141 12.362 103.023 11.714C103.185 11.606 103.311 11.624 103.401 11.768L103.905 12.524C103.995 12.65 103.977 12.794 103.851 12.902C102.879 13.766 101.565 14.216 100.287 14.216C97.4431 14.216 95.7511 12.326 95.7511 9.734C95.7511 6.89 97.7311 5.144 100.161 5.144ZM97.4251 8.78H102.501C102.429 7.664 101.637 6.656 100.143 6.656C98.7391 6.656 97.7311 7.466 97.4251 8.78ZM106.096 14C105.934 14 105.826 13.892 105.826 13.73V5.972C105.826 5.828 105.898 5.72 106.042 5.666L107.068 5.288C107.248 5.216 107.374 5.306 107.374 5.504V6.422C108.04 5.45 109.066 5.144 110.002 5.144C111.946 5.144 113.494 6.458 113.494 9.014V13.73C113.494 13.892 113.386 14 113.224 14H112.216C112.054 14 111.946 13.892 111.946 13.73V9.068C111.946 7.52 111.046 6.674 109.714 6.674C108.364 6.674 107.374 7.538 107.374 9.068V13.73C107.374 13.892 107.266 14 107.104 14H106.096ZM119.345 17.816C118.067 17.816 116.789 17.51 115.547 16.574C115.421 16.466 115.403 16.34 115.475 16.196L115.997 15.296C116.087 15.134 116.213 15.116 116.375 15.224C117.221 15.872 118.265 16.304 119.363 16.304C121.289 16.304 122.333 15.08 122.333 13.136V13.028C121.865 13.604 120.767 14.216 119.345 14.216C116.699 14.216 115.079 12.128 115.079 9.68C115.079 6.908 117.131 5.144 119.489 5.144C120.677 5.144 121.775 5.594 122.333 6.35V5.972C122.333 5.828 122.405 5.72 122.549 5.666L123.575 5.288C123.755 5.216 123.881 5.288 123.881 5.486V12.812C123.881 16.304 122.117 17.816 119.345 17.816ZM119.525 12.686C121.091 12.686 122.351 11.66 122.351 9.662C122.351 7.682 121.091 6.656 119.525 6.656C117.959 6.656 116.663 7.682 116.663 9.662C116.663 11.642 117.959 12.686 119.525 12.686ZM129.979 5.144C132.445 5.144 133.957 7.088 133.957 9.248V9.914C133.957 10.076 133.849 10.184 133.687 10.184H127.189C127.387 11.588 128.377 12.704 130.123 12.704C131.095 12.704 131.959 12.362 132.841 11.714C133.003 11.606 133.129 11.624 133.219 11.768L133.723 12.524C133.813 12.65 133.795 12.794 133.669 12.902C132.697 13.766 131.383 14.216 130.105 14.216C127.261 14.216 125.569 12.326 125.569 9.734C125.569 6.89 127.549 5.144 129.979 5.144ZM127.243 8.78H132.319C132.247 7.664 131.455 6.656 129.961 6.656C128.557 6.656 127.549 7.466 127.243 8.78ZM138.667 14.216C137.389 14.216 136.093 13.802 135.319 12.902C135.211 12.794 135.229 12.65 135.319 12.524L135.895 11.786C136.003 11.642 136.129 11.642 136.273 11.75C136.813 12.218 137.533 12.704 138.703 12.704C139.819 12.704 140.431 12.344 140.431 11.642C140.431 10.922 139.801 10.634 138.631 10.346C137.173 9.986 135.571 9.554 135.571 7.79C135.571 6.242 136.795 5.144 138.721 5.144C139.963 5.144 140.845 5.576 141.421 6.044C141.547 6.17 141.547 6.278 141.439 6.422L140.863 7.142C140.755 7.268 140.629 7.304 140.485 7.196C140.071 6.908 139.495 6.656 138.757 6.656C137.875 6.656 137.119 6.998 137.119 7.7C137.119 8.348 137.767 8.6 138.991 8.888C140.773 9.302 141.943 9.968 141.943 11.534C141.943 13.73 139.981 14.216 138.667 14.216ZM151.981 13.586C152.035 13.73 151.981 13.874 151.801 13.964C151.405 14.144 151.063 14.216 150.685 14.216C148.687 14.216 148.219 12.92 148.219 11.372V6.764H147.085C146.923 6.764 146.815 6.656 146.815 6.494V5.63C146.815 5.468 146.923 5.36 147.085 5.36H148.219V3.992C148.219 3.848 148.291 3.74 148.435 3.686L149.461 3.308C149.641 3.236 149.767 3.326 149.767 3.524V5.36H151.315C151.477 5.36 151.585 5.468 151.585 5.63V6.494C151.585 6.656 151.477 6.764 151.315 6.764H149.767V11.39C149.767 12.128 150.037 12.668 150.811 12.668C150.973 12.668 151.135 12.632 151.333 12.56C151.513 12.506 151.639 12.542 151.693 12.722L151.981 13.586ZM157.314 14.216C154.722 14.216 152.868 12.29 152.868 9.68C152.868 7.07 154.722 5.144 157.314 5.144C159.906 5.144 161.742 7.07 161.742 9.68C161.742 12.29 159.906 14.216 157.314 14.216ZM157.314 12.704C159.078 12.704 160.158 11.372 160.158 9.68C160.158 7.988 159.078 6.656 157.314 6.656C155.532 6.656 154.452 7.988 154.452 9.68C154.452 11.372 155.532 12.704 157.314 12.704ZM167.413 17.816C166.135 17.816 164.857 17.51 163.615 16.574C163.489 16.466 163.471 16.34 163.543 16.196L164.065 15.296C164.155 15.134 164.281 15.116 164.443 15.224C165.289 15.872 166.333 16.304 167.431 16.304C169.357 16.304 170.401 15.08 170.401 13.136V13.028C169.933 13.604 168.835 14.216 167.413 14.216C164.767 14.216 163.147 12.128 163.147 9.68C163.147 6.908 165.199 5.144 167.557 5.144C168.745 5.144 169.843 5.594 170.401 6.35V5.972C170.401 5.828 170.473 5.72 170.617 5.666L171.643 5.288C171.823 5.216 171.949 5.288 171.949 5.486V12.812C171.949 16.304 170.185 17.816 167.413 17.816ZM167.593 12.686C169.159 12.686 170.419 11.66 170.419 9.662C170.419 7.682 169.159 6.656 167.593 6.656C166.027 6.656 164.731 7.682 164.731 9.662C164.731 11.642 166.027 12.686 167.593 12.686ZM178.047 5.144C180.513 5.144 182.025 7.088 182.025 9.248V9.914C182.025 10.076 181.917 10.184 181.755 10.184H175.257C175.455 11.588 176.445 12.704 178.191 12.704C179.163 12.704 180.027 12.362 180.909 11.714C181.071 11.606 181.197 11.624 181.287 11.768L181.791 12.524C181.881 12.65 181.863 12.794 181.737 12.902C180.765 13.766 179.451 14.216 178.173 14.216C175.329 14.216 173.637 12.326 173.637 9.734C173.637 6.89 175.617 5.144 178.047 5.144ZM175.311 8.78H180.387C180.315 7.664 179.523 6.656 178.029 6.656C176.625 6.656 175.617 7.466 175.311 8.78ZM188.017 13.586C188.071 13.73 188.017 13.874 187.837 13.964C187.441 14.144 187.099 14.216 186.721 14.216C184.723 14.216 184.255 12.92 184.255 11.372V6.764H183.121C182.959 6.764 182.851 6.656 182.851 6.494V5.63C182.851 5.468 182.959 5.36 183.121 5.36H184.255V3.992C184.255 3.848 184.327 3.74 184.471 3.686L185.497 3.308C185.677 3.236 185.803 3.326 185.803 3.524V5.36H187.351C187.513 5.36 187.621 5.468 187.621 5.63V6.494C187.621 6.656 187.513 6.764 187.351 6.764H185.803V11.39C185.803 12.128 186.073 12.668 186.847 12.668C187.009 12.668 187.171 12.632 187.369 12.56C187.549 12.506 187.675 12.542 187.729 12.722L188.017 13.586ZM189.778 14C189.616 14 189.508 13.892 189.508 13.73V2.012C189.508 1.868 189.58 1.76 189.724 1.706L190.75 1.328C190.93 1.256 191.056 1.346 191.056 1.544V6.422C191.668 5.522 192.784 5.144 193.756 5.144C195.664 5.144 197.176 6.458 197.176 9.014V13.73C197.176 13.892 197.068 14 196.906 14H195.898C195.736 14 195.628 13.892 195.628 13.73V9.068C195.628 7.52 194.728 6.674 193.396 6.674C192.046 6.674 191.056 7.538 191.056 9.068V13.73C191.056 13.892 190.948 14 190.786 14H189.778ZM203.171 5.144C205.637 5.144 207.149 7.088 207.149 9.248V9.914C207.149 10.076 207.041 10.184 206.879 10.184H200.381C200.579 11.588 201.569 12.704 203.315 12.704C204.287 12.704 205.151 12.362 206.033 11.714C206.195 11.606 206.321 11.624 206.411 11.768L206.915 12.524C207.005 12.65 206.987 12.794 206.861 12.902C205.889 13.766 204.575 14.216 203.297 14.216C200.453 14.216 198.761 12.326 198.761 9.734C198.761 6.89 200.741 5.144 203.171 5.144ZM200.435 8.78H205.511C205.439 7.664 204.647 6.656 203.153 6.656C201.749 6.656 200.741 7.466 200.435 8.78ZM214.668 6.188C214.722 6.35 214.668 6.476 214.506 6.548L210.384 8.258V13.73C210.384 13.892 210.276 14 210.114 14H209.106C208.944 14 208.836 13.892 208.836 13.73V5.972C208.836 5.828 208.908 5.72 209.052 5.666L210.078 5.288C210.258 5.216 210.384 5.306 210.384 5.504V6.746L213.984 5.252C214.146 5.18 214.272 5.234 214.344 5.396L214.668 6.188ZM5.112 36.216C2.376 36.216 0.792 34.128 0.792 31.662C0.792 28.908 2.844 27.144 5.202 27.144C6.39 27.144 7.488 27.594 8.046 28.35V27.972C8.046 27.828 8.118 27.72 8.262 27.666L9.288 27.288C9.468 27.216 9.594 27.288 9.594 27.486V35.73C9.594 35.892 9.486 36 9.324 36H8.316C8.154 36 8.046 35.892 8.046 35.73V35.028C7.542 35.658 6.354 36.216 5.112 36.216ZM5.22 34.686C6.822 34.686 8.064 33.66 8.064 31.662C8.064 29.682 6.822 28.656 5.22 28.656C3.69 28.656 2.376 29.682 2.376 31.662C2.376 33.642 3.69 34.686 5.22 34.686ZM16.0159 35.586C16.0699 35.73 16.0159 35.874 15.8359 35.964C15.4399 36.144 15.0979 36.216 14.7199 36.216C12.7219 36.216 12.2539 34.92 12.2539 33.372V28.764H11.1199C10.9579 28.764 10.8499 28.656 10.8499 28.494V27.63C10.8499 27.468 10.9579 27.36 11.1199 27.36H12.2539V25.992C12.2539 25.848 12.3259 25.74 12.4699 25.686L13.4959 25.308C13.6759 25.236 13.8019 25.326 13.8019 25.524V27.36H15.3499C15.5119 27.36 15.6199 27.468 15.6199 27.63V28.494C15.6199 28.656 15.5119 28.764 15.3499 28.764H13.8019V33.39C13.8019 34.128 14.0719 34.668 14.8459 34.668C15.0079 34.668 15.1699 34.632 15.3679 34.56C15.5479 34.506 15.6739 34.542 15.7279 34.722L16.0159 35.586ZM27.4515 36.216C23.9415 36.216 21.2955 33.624 21.2955 29.7C21.2955 25.776 23.9415 23.184 27.4515 23.184C29.5035 23.184 31.0515 23.994 32.2035 25.344C32.3115 25.488 32.2935 25.632 32.1675 25.74L31.3215 26.442C31.1775 26.568 31.0515 26.55 30.9435 26.406C30.2235 25.542 29.0715 24.768 27.4515 24.768C24.8415 24.768 22.9515 26.874 22.9515 29.7C22.9515 32.526 24.8415 34.632 27.4515 34.632C29.0715 34.632 30.2235 33.858 30.9435 32.994C31.0515 32.85 31.1775 32.832 31.3215 32.958L32.1495 33.642C32.2755 33.75 32.2935 33.894 32.2035 34.002C31.0695 35.388 29.5215 36.216 27.4515 36.216ZM41.8534 24.948H35.7694V28.584H40.4314C40.5934 28.584 40.7014 28.692 40.7014 28.854V29.862C40.7014 30.024 40.5934 30.132 40.4314 30.132H35.7694V34.452H41.8534C42.0154 34.452 42.1234 34.56 42.1234 34.722V35.73C42.1234 35.892 42.0154 36 41.8534 36H34.4194C34.2574 36 34.1494 35.892 34.1494 35.73V23.67C34.1494 23.508 34.2574 23.4 34.4194 23.4H41.8534C42.0154 23.4 42.1234 23.508 42.1234 23.67V24.678C42.1234 24.84 42.0154 24.948 41.8534 24.948ZM44.2237 36C44.0617 36 43.9537 35.892 43.9537 35.73V23.67C43.9537 23.508 44.0617 23.4 44.2237 23.4H48.3997C51.4777 23.4 52.1977 25.488 52.1977 26.982C52.1977 28.224 51.6937 29.88 49.7497 30.402L52.1257 35.676C52.2157 35.874 52.1257 36 51.9277 36H50.7217C50.5777 36 50.4697 35.946 50.4157 35.802L48.1117 30.564H45.5737V35.73C45.5737 35.892 45.4657 36 45.3037 36H44.2237ZM45.5737 29.016H48.1477C50.0197 29.016 50.5237 28.098 50.5237 26.982C50.5237 25.866 50.0197 24.948 48.1477 24.948H45.5737V29.016ZM65.1081 35.694C65.1801 35.874 65.0901 36 64.8921 36H63.6861C63.5421 36 63.4161 35.928 63.3621 35.784L62.1561 32.832H56.3061L55.1001 35.784C55.0461 35.928 54.9201 36 54.7761 36H53.5701C53.3721 36 53.2821 35.874 53.3541 35.694L58.4301 23.616C58.4841 23.472 58.6101 23.4 58.7541 23.4H59.7081C59.8521 23.4 59.9781 23.472 60.0321 23.616L65.1081 35.694ZM56.9541 31.284H61.5261L59.2401 25.704L56.9541 31.284ZM68.282 36C68.138 36 68.03 35.946 67.976 35.784L64.214 23.706C64.16 23.508 64.25 23.4 64.448 23.4H65.654C65.798 23.4 65.924 23.49 65.96 23.634L68.894 33.462L71.828 23.634C71.864 23.49 71.99 23.4 72.134 23.4H73.502C73.646 23.4 73.772 23.49 73.808 23.634L76.742 33.462L79.676 23.634C79.712 23.49 79.838 23.4 79.982 23.4H81.188C81.386 23.4 81.476 23.508 81.422 23.706L77.66 35.784C77.606 35.946 77.498 36 77.354 36H76.13C75.986 36 75.86 35.91 75.824 35.766L72.818 25.866L69.812 35.766C69.776 35.91 69.65 36 69.506 36H68.282ZM85.7288 27.144C88.1948 27.144 89.7068 29.088 89.7068 31.248V31.914C89.7068 32.076 89.5988 32.184 89.4368 32.184H82.9388C83.1368 33.588 84.1268 34.704 85.8728 34.704C86.8448 34.704 87.7088 34.362 88.5908 33.714C88.7528 33.606 88.8788 33.624 88.9688 33.768L89.4728 34.524C89.5628 34.65 89.5448 34.794 89.4188 34.902C88.4468 35.766 87.1328 36.216 85.8548 36.216C83.0108 36.216 81.3188 34.326 81.3188 31.734C81.3188 28.89 83.2988 27.144 85.7288 27.144ZM82.9928 30.78H88.0688C87.9968 29.664 87.2048 28.656 85.7108 28.656C84.3068 28.656 83.2988 29.466 82.9928 30.78ZM95.5156 27.144C97.9816 27.144 99.4936 29.088 99.4936 31.248V31.914C99.4936 32.076 99.3856 32.184 99.2236 32.184H92.7256C92.9236 33.588 93.9136 34.704 95.6596 34.704C96.6316 34.704 97.4956 34.362 98.3776 33.714C98.5396 33.606 98.6656 33.624 98.7556 33.768L99.2596 34.524C99.3496 34.65 99.3316 34.794 99.2056 34.902C98.2336 35.766 96.9196 36.216 95.6416 36.216C92.7976 36.216 91.1056 34.326 91.1056 31.734C91.1056 28.89 93.0856 27.144 95.5156 27.144ZM92.7796 30.78H97.8556C97.7836 29.664 96.9916 28.656 95.4976 28.656C94.0936 28.656 93.0856 29.466 92.7796 30.78ZM107.948 35.676C108.092 35.838 108.038 36 107.804 36H106.472C106.346 36 106.238 35.964 106.148 35.856L102.728 32.13V35.73C102.728 35.892 102.62 36 102.458 36H101.45C101.288 36 101.18 35.892 101.18 35.73V24.012C101.18 23.868 101.252 23.76 101.396 23.706L102.422 23.328C102.602 23.256 102.728 23.346 102.728 23.544V30.69L105.932 27.504C106.04 27.396 106.148 27.36 106.274 27.36H107.606C107.84 27.36 107.912 27.522 107.75 27.684L104.078 31.356L107.948 35.676ZM113.428 36C113.266 36 113.158 35.892 113.158 35.73V35.1C113.158 34.974 113.194 34.866 113.302 34.776C115.696 32.598 119.458 29.736 119.458 26.838C119.458 25.542 118.558 24.768 117.28 24.768C116.002 24.768 114.994 25.578 114.814 27.036C114.796 27.198 114.706 27.288 114.544 27.288H113.446C113.266 27.288 113.158 27.18 113.176 27C113.446 24.642 115.066 23.184 117.28 23.184C119.746 23.184 121.114 24.714 121.114 26.838C121.114 29.934 118.342 32.382 115.966 34.452H121.114C121.312 34.452 121.402 34.56 121.33 34.758L120.952 35.784C120.898 35.946 120.79 36 120.646 36H113.428ZM127.915 36.216C124.927 36.216 122.785 33.624 122.785 29.7C122.785 25.776 124.927 23.184 127.915 23.184C130.921 23.184 133.027 25.776 133.027 29.7C133.027 33.624 130.921 36.216 127.915 36.216ZM127.915 34.632C130.003 34.632 131.371 32.706 131.371 29.7C131.371 26.694 130.003 24.768 127.915 24.768C125.827 24.768 124.441 26.694 124.441 29.7C124.441 32.706 125.827 34.632 127.915 34.632ZM134.795 36C134.633 36 134.525 35.892 134.525 35.73V35.1C134.525 34.974 134.561 34.866 134.669 34.776C137.063 32.598 140.825 29.736 140.825 26.838C140.825 25.542 139.925 24.768 138.647 24.768C137.369 24.768 136.361 25.578 136.181 27.036C136.163 27.198 136.073 27.288 135.911 27.288H134.813C134.633 27.288 134.525 27.18 134.543 27C134.813 24.642 136.433 23.184 138.647 23.184C141.113 23.184 142.481 24.714 142.481 26.838C142.481 29.934 139.709 32.382 137.333 34.452H142.481C142.679 34.452 142.769 34.56 142.697 34.758L142.319 35.784C142.265 35.946 142.157 36 142.013 36H134.795ZM148.723 36.216C146.329 36.216 144.151 34.614 144.151 30.132C144.151 25.794 146.185 23.184 149.353 23.184C150.181 23.184 151.171 23.364 152.071 23.922C152.215 23.994 152.251 24.138 152.197 24.282L151.819 25.344C151.765 25.524 151.621 25.56 151.441 25.452C150.577 24.93 149.911 24.84 149.317 24.84C147.877 24.84 146.149 25.812 145.897 29.142C146.743 27.864 148.057 27.36 149.119 27.36C150.955 27.36 153.133 28.782 153.133 31.77C153.133 34.578 151.027 36.216 148.723 36.216ZM148.741 34.632C150.451 34.632 151.477 33.354 151.477 31.806C151.477 30.312 150.451 28.998 148.741 28.998C147.031 28.998 146.005 30.312 146.005 31.806C146.005 33.354 147.031 34.632 148.741 34.632ZM154.401 36C154.239 36 154.131 35.892 154.131 35.73V34.614C154.131 34.452 154.239 34.344 154.401 34.344H155.517C155.679 34.344 155.787 34.452 155.787 34.614V35.73C155.787 35.892 155.679 36 155.517 36H154.401Z" fill="#243746"/>
</g>
<defs>
<clipPath id="clip0_13_128">
<rect width="231" height="19" fill="white"/>
</clipPath>
</defs>
</svg>
