<svg width="201" height="15" viewBox="0 0 201 15" fill="none" xmlns="http://www.w3.org/2000/svg">
<path d="M4.256 11.584C2.048 11.584 0.72 10.56 0.0959997 9.76C-3.57628e-07 9.648 0.0159996 9.52 0.112 9.424L0.752 8.688C0.864 8.576 0.992 8.576 1.104 8.704C2.08 9.824 3.12 10.176 4.336 10.176C5.808 10.176 6.544 9.424 6.544 8.416C6.544 7.264 5.632 6.944 4 6.48C2.208 5.968 0.464 5.424 0.464 3.264C0.464 1.184 2.096 -1.90735e-06 4.176 -1.90735e-06C5.76 -1.90735e-06 6.848 0.671998 7.472 1.328C7.568 1.424 7.568 1.552 7.472 1.664L6.848 2.416C6.752 2.544 6.624 2.544 6.512 2.416C5.856 1.744 5.12 1.408 4.144 1.408C2.72 1.408 1.936 2.144 1.936 3.136C1.936 4.384 3.152 4.72 4.448 5.072C6.496 5.632 8.016 6.224 8.016 8.272C8.016 9.728 7.232 11.584 4.256 11.584ZM13.4111 3.52C15.6031 3.52 16.9471 5.248 16.9471 7.168V7.76C16.9471 7.904 16.8511 8 16.7071 8H10.9311C11.1071 9.248 11.9871 10.24 13.5391 10.24C14.4031 10.24 15.1711 9.936 15.9551 9.36C16.0991 9.264 16.2111 9.28 16.2911 9.408L16.7391 10.08C16.8191 10.192 16.8031 10.32 16.6911 10.416C15.8271 11.184 14.6591 11.584 13.5231 11.584C10.9951 11.584 9.49112 9.904 9.49112 7.6C9.49112 5.072 11.2511 3.52 13.4111 3.52ZM10.9791 6.752H15.4911C15.4271 5.76 14.7231 4.864 13.3951 4.864C12.1471 4.864 11.2511 5.584 10.9791 6.752ZM22.2705 3.52C24.4625 3.52 25.8065 5.248 25.8065 7.168V7.76C25.8065 7.904 25.7105 8 25.5665 8H19.7905C19.9665 9.248 20.8465 10.24 22.3985 10.24C23.2625 10.24 24.0305 9.936 24.8145 9.36C24.9585 9.264 25.0705 9.28 25.1505 9.408L25.5985 10.08C25.6785 10.192 25.6625 10.32 25.5505 10.416C24.6865 11.184 23.5185 11.584 22.3825 11.584C19.8545 11.584 18.3505 9.904 18.3505 7.6C18.3505 5.072 20.1105 3.52 22.2705 3.52ZM19.8385 6.752H24.3505C24.2865 5.76 23.5825 4.864 22.2545 4.864C21.0065 4.864 20.1105 5.584 19.8385 6.752ZM37.6814 3.712C37.8574 3.712 37.9374 3.824 37.8734 3.984L33.4094 14.416C33.3614 14.544 33.2654 14.592 33.1374 14.592H32.1294C31.9534 14.592 31.8734 14.48 31.9374 14.32L33.4734 10.72L30.5934 3.984C30.5294 3.824 30.6094 3.712 30.7854 3.712H31.8094C31.9374 3.712 32.0494 3.776 32.0974 3.904L34.2254 8.96L36.3694 3.904C36.4174 3.776 36.5134 3.712 36.6414 3.712H37.6814ZM42.4431 11.584C40.1391 11.584 38.4911 9.872 38.4911 7.552C38.4911 5.232 40.1391 3.52 42.4431 3.52C44.7471 3.52 46.3791 5.232 46.3791 7.552C46.3791 9.872 44.7471 11.584 42.4431 11.584ZM42.4431 10.24C44.0111 10.24 44.9711 9.056 44.9711 7.552C44.9711 6.048 44.0111 4.864 42.4431 4.864C40.8591 4.864 39.8991 6.048 39.8991 7.552C39.8991 9.056 40.8591 10.24 42.4431 10.24ZM51.052 11.584C49.324 11.584 47.948 10.416 47.948 8.144V4.256C47.948 4.128 48.012 4.032 48.14 3.984L49.052 3.648C49.212 3.584 49.324 3.664 49.324 3.84V8.096C49.324 9.472 50.124 10.224 51.308 10.224C52.508 10.224 53.388 9.456 53.388 8.096V4.256C53.388 4.128 53.452 4.032 53.58 3.984L54.492 3.648C54.652 3.584 54.764 3.664 54.764 3.84V11.152C54.764 11.296 54.668 11.392 54.524 11.392H53.628C53.484 11.392 53.388 11.296 53.388 11.152V10.448C52.796 11.312 51.884 11.584 51.052 11.584ZM63.9561 11.584C61.5241 11.584 60.1161 9.728 60.1161 7.536C60.1161 5.088 61.9401 3.52 64.0361 3.52C65.0921 3.52 66.0681 3.92 66.5641 4.592V4.256C66.5641 4.128 66.6281 4.032 66.7561 3.984L67.6681 3.648C67.8281 3.584 67.9401 3.648 67.9401 3.824V11.152C67.9401 11.296 67.8441 11.392 67.7001 11.392H66.8041C66.6601 11.392 66.5641 11.296 66.5641 11.152V10.528C66.1161 11.088 65.0601 11.584 63.9561 11.584ZM64.0521 10.224C65.4761 10.224 66.5801 9.312 66.5801 7.536C66.5801 5.776 65.4761 4.864 64.0521 4.864C62.6921 4.864 61.5241 5.776 61.5241 7.536C61.5241 9.296 62.6921 10.224 64.0521 10.224ZM73.8085 11.024C73.8565 11.152 73.8085 11.28 73.6485 11.36C73.2965 11.52 72.9925 11.584 72.6565 11.584C70.8805 11.584 70.4645 10.432 70.4645 9.056V4.96H69.4565C69.3125 4.96 69.2165 4.864 69.2165 4.72V3.952C69.2165 3.808 69.3125 3.712 69.4565 3.712H70.4645V2.496C70.4645 2.368 70.5285 2.272 70.6565 2.224L71.5685 1.888C71.7285 1.824 71.8405 1.904 71.8405 2.08V3.712H73.2165C73.3605 3.712 73.4565 3.808 73.4565 3.952V4.72C73.4565 4.864 73.3605 4.96 73.2165 4.96H71.8405V9.072C71.8405 9.728 72.0805 10.208 72.7685 10.208C72.9125 10.208 73.0565 10.176 73.2325 10.112C73.3925 10.064 73.5045 10.096 73.5525 10.256L73.8085 11.024ZM84.2935 11.584C81.1735 11.584 78.8215 9.28 78.8215 5.792C78.8215 2.304 81.1735 -1.90735e-06 84.2935 -1.90735e-06C86.1175 -1.90735e-06 87.4935 0.719997 88.5175 1.92C88.6135 2.048 88.5975 2.176 88.4855 2.272L87.7335 2.896C87.6055 3.008 87.4935 2.992 87.3975 2.864C86.7575 2.096 85.7335 1.408 84.2935 1.408C81.9735 1.408 80.2935 3.28 80.2935 5.792C80.2935 8.304 81.9735 10.176 84.2935 10.176C85.7335 10.176 86.7575 9.488 87.3975 8.72C87.4935 8.592 87.6055 8.576 87.7335 8.688L88.4695 9.296C88.5815 9.392 88.5975 9.52 88.5175 9.616C87.5095 10.848 86.1335 11.584 84.2935 11.584ZM97.2551 1.568H91.8471V4.8H95.9911C96.1351 4.8 96.2311 4.896 96.2311 5.04V5.936C96.2311 6.08 96.1351 6.176 95.9911 6.176H91.8471V10.016H97.2551C97.3991 10.016 97.4951 10.112 97.4951 10.256V11.152C97.4951 11.296 97.3991 11.392 97.2551 11.392H90.6471C90.5031 11.392 90.4071 11.296 90.4071 11.152V0.431997C90.4071 0.287998 90.5031 0.191998 90.6471 0.191998H97.2551C97.3991 0.191998 97.4951 0.287998 97.4951 0.431997V1.328C97.4951 1.472 97.3991 1.568 97.2551 1.568ZM99.5221 11.392C99.3781 11.392 99.2821 11.296 99.2821 11.152V0.431997C99.2821 0.287998 99.3781 0.191998 99.5221 0.191998H103.234C105.97 0.191998 106.61 2.048 106.61 3.376C106.61 4.48 106.162 5.952 104.434 6.416L106.546 11.104C106.626 11.28 106.546 11.392 106.37 11.392H105.298C105.17 11.392 105.074 11.344 105.026 11.216L102.978 6.56H100.722V11.152C100.722 11.296 100.626 11.392 100.482 11.392H99.5221ZM100.722 5.184H103.01C104.674 5.184 105.122 4.368 105.122 3.376C105.122 2.384 104.674 1.568 103.01 1.568H100.722V5.184ZM118.246 11.12C118.31 11.28 118.23 11.392 118.054 11.392H116.982C116.854 11.392 116.742 11.328 116.694 11.2L115.622 8.576H110.422L109.35 11.2C109.302 11.328 109.19 11.392 109.062 11.392H107.99C107.814 11.392 107.734 11.28 107.798 11.12L112.31 0.383998C112.358 0.255998 112.47 0.191998 112.598 0.191998H113.446C113.574 0.191998 113.686 0.255998 113.734 0.383998L118.246 11.12ZM110.998 7.2H115.062L113.03 2.24L110.998 7.2ZM121.227 11.392C121.099 11.392 121.003 11.344 120.955 11.2L117.611 0.463998C117.563 0.287998 117.643 0.191998 117.819 0.191998H118.891C119.019 0.191998 119.131 0.271997 119.163 0.399998L121.771 9.136L124.379 0.399998C124.411 0.271997 124.523 0.191998 124.651 0.191998H125.867C125.995 0.191998 126.107 0.271997 126.139 0.399998L128.747 9.136L131.355 0.399998C131.387 0.271997 131.499 0.191998 131.627 0.191998H132.699C132.875 0.191998 132.955 0.287998 132.907 0.463998L129.563 11.2C129.515 11.344 129.419 11.392 129.291 11.392H128.203C128.075 11.392 127.963 11.312 127.931 11.184L125.259 2.384L122.587 11.184C122.555 11.312 122.443 11.392 122.315 11.392H121.227ZM136.895 3.52C139.088 3.52 140.432 5.248 140.432 7.168V7.76C140.432 7.904 140.335 8 140.192 8H134.415C134.591 9.248 135.471 10.24 137.023 10.24C137.887 10.24 138.655 9.936 139.439 9.36C139.583 9.264 139.695 9.28 139.775 9.408L140.223 10.08C140.304 10.192 140.288 10.32 140.175 10.416C139.312 11.184 138.143 11.584 137.007 11.584C134.479 11.584 132.975 9.904 132.975 7.6C132.975 5.072 134.735 3.52 136.895 3.52ZM134.463 6.752H138.976C138.911 5.76 138.207 4.864 136.879 4.864C135.631 4.864 134.735 5.584 134.463 6.752ZM145.755 3.52C147.947 3.52 149.291 5.248 149.291 7.168V7.76C149.291 7.904 149.195 8 149.051 8H143.275C143.451 9.248 144.331 10.24 145.883 10.24C146.747 10.24 147.515 9.936 148.299 9.36C148.443 9.264 148.555 9.28 148.635 9.408L149.083 10.08C149.163 10.192 149.147 10.32 149.035 10.416C148.171 11.184 147.003 11.584 145.867 11.584C143.339 11.584 141.835 9.904 141.835 7.6C141.835 5.072 143.595 3.52 145.755 3.52ZM143.323 6.752H147.835C147.771 5.76 147.067 4.864 145.739 4.864C144.491 4.864 143.595 5.584 143.323 6.752ZM156.966 11.104C157.094 11.248 157.046 11.392 156.838 11.392H155.654C155.542 11.392 155.446 11.36 155.366 11.264L152.326 7.952V11.152C152.326 11.296 152.23 11.392 152.086 11.392H151.19C151.046 11.392 150.95 11.296 150.95 11.152V0.735998C150.95 0.607998 151.014 0.511998 151.142 0.463998L152.054 0.127997C152.214 0.0639982 152.326 0.143998 152.326 0.319998V6.672L155.174 3.84C155.27 3.744 155.366 3.712 155.478 3.712H156.662C156.87 3.712 156.934 3.856 156.79 4L153.526 7.264L156.966 11.104ZM162.157 11.392C162.013 11.392 161.917 11.296 161.917 11.152V10.592C161.917 10.48 161.949 10.384 162.045 10.304C164.173 8.368 167.517 5.824 167.517 3.248C167.517 2.096 166.717 1.408 165.581 1.408C164.445 1.408 163.549 2.128 163.389 3.424C163.373 3.568 163.293 3.648 163.149 3.648H162.173C162.013 3.648 161.917 3.552 161.933 3.392C162.173 1.296 163.613 -1.90735e-06 165.581 -1.90735e-06C167.773 -1.90735e-06 168.989 1.36 168.989 3.248C168.989 6 166.525 8.176 164.413 10.016H168.989C169.165 10.016 169.245 10.112 169.181 10.288L168.845 11.2C168.797 11.344 168.701 11.392 168.573 11.392H162.157ZM175.194 11.584C172.538 11.584 170.634 9.28 170.634 5.792C170.634 2.304 172.538 -1.90735e-06 175.194 -1.90735e-06C177.866 -1.90735e-06 179.738 2.304 179.738 5.792C179.738 9.28 177.866 11.584 175.194 11.584ZM175.194 10.176C177.05 10.176 178.266 8.464 178.266 5.792C178.266 3.12 177.05 1.408 175.194 1.408C173.338 1.408 172.106 3.12 172.106 5.792C172.106 8.464 173.338 10.176 175.194 10.176ZM181.47 11.392C181.326 11.392 181.23 11.296 181.23 11.152V10.592C181.23 10.48 181.262 10.384 181.358 10.304C183.486 8.368 186.83 5.824 186.83 3.248C186.83 2.096 186.03 1.408 184.894 1.408C183.758 1.408 182.862 2.128 182.702 3.424C182.686 3.568 182.606 3.648 182.462 3.648H181.486C181.326 3.648 181.23 3.552 181.246 3.392C181.486 1.296 182.926 -1.90735e-06 184.894 -1.90735e-06C187.086 -1.90735e-06 188.302 1.36 188.302 3.248C188.302 6 185.838 8.176 183.726 10.016H188.302C188.478 10.016 188.558 10.112 188.494 10.288L188.158 11.2C188.11 11.344 188.014 11.392 187.886 11.392H181.47ZM194.01 11.584C191.882 11.584 189.946 10.16 189.946 6.176C189.946 2.32 191.754 -1.90735e-06 194.57 -1.90735e-06C195.306 -1.90735e-06 196.187 0.159998 196.986 0.655998C197.115 0.719997 197.146 0.847998 197.098 0.975998L196.762 1.92C196.714 2.08 196.587 2.112 196.426 2.016C195.658 1.552 195.066 1.472 194.538 1.472C193.258 1.472 191.722 2.336 191.498 5.296C192.25 4.16 193.418 3.712 194.362 3.712C195.995 3.712 197.931 4.976 197.931 7.632C197.931 10.128 196.058 11.584 194.01 11.584ZM194.026 10.176C195.546 10.176 196.458 9.04 196.458 7.664C196.458 6.336 195.546 5.168 194.026 5.168C192.506 5.168 191.594 6.336 191.594 7.664C191.594 9.04 192.506 10.176 194.026 10.176ZM199.218 11.392C199.074 11.392 198.978 11.296 198.978 11.152V10.16C198.978 10.016 199.074 9.92 199.218 9.92H200.21C200.354 9.92 200.45 10.016 200.45 10.16V11.152C200.45 11.296 200.354 11.392 200.21 11.392H199.218Z" fill="#243746"/>
</svg>
