<svg width="188" height="17" viewBox="0 0 188 17" fill="none" xmlns="http://www.w3.org/2000/svg">
<g clip-path="url(#clip0_16_137)">
<path d="M11.056 -4.336C11.136 -4.128 11.056 -4 10.832 -4H9.216C9.056 -4 8.944 -4.08 8.896 -4.208L8.016 -6.432H3.504L2.624 -4.208C2.56 -4.064 2.448 -4 2.288 -4H0.672C0.464 -4 0.368 -4.128 0.448 -4.336L4.816 -14.976C4.864 -15.136 4.992 -15.2 5.152 -15.2H6.352C6.512 -15.2 6.64 -15.136 6.704 -14.976L11.056 -4.336ZM4.224 -8.24H7.296L5.76 -12.128L4.224 -8.24ZM12.668 -4C12.476 -4 12.364 -4.112 12.364 -4.288V-10.96C12.364 -11.12 12.444 -11.232 12.604 -11.296L13.916 -11.744C14.124 -11.824 14.252 -11.712 14.252 -11.504V-10.736C14.796 -11.504 15.644 -11.872 16.652 -11.872C18.284 -11.872 19.692 -10.704 19.692 -8.432V-4.288C19.692 -4.112 19.596 -4 19.404 -4H18.108C17.916 -4 17.804 -4.112 17.804 -4.288V-8.208C17.804 -9.408 17.116 -10.064 16.076 -10.064C15.02 -10.064 14.252 -9.392 14.252 -8.208V-4.288C14.252 -4.112 14.156 -4 13.964 -4H12.668ZM28.7806 -11.872C31.0366 -11.872 32.3806 -10.112 32.3806 -8.224V-7.552C32.3806 -7.36 32.2686 -7.264 32.0766 -7.264H26.6686C26.8766 -6.288 27.6446 -5.536 28.9086 -5.536C29.7566 -5.536 30.4606 -5.808 31.0686 -6.192C31.2446 -6.288 31.3886 -6.256 31.4686 -6.08L31.9806 -5.152C32.0606 -4.992 32.0446 -4.848 31.9326 -4.768C31.1326 -4.16 30.1566 -3.808 28.8926 -3.808C26.3326 -3.808 24.8126 -5.504 24.8126 -7.792C24.8126 -10.272 26.5886 -11.872 28.7806 -11.872ZM26.7166 -8.656H30.6046C30.4926 -9.456 29.9006 -10.144 28.7806 -10.144C27.7406 -10.144 26.9726 -9.584 26.7166 -8.656ZM34.2149 -4C34.0229 -4 33.9109 -4.112 33.9109 -4.288V-10.96C33.9109 -11.12 33.9909 -11.232 34.1509 -11.296L35.4629 -11.744C35.6709 -11.824 35.7989 -11.712 35.7989 -11.504V-10.736C36.3429 -11.504 37.1909 -11.872 38.1989 -11.872C39.8309 -11.872 41.2389 -10.704 41.2389 -8.432V-4.288C41.2389 -4.112 41.1429 -4 40.9509 -4H39.6549C39.4629 -4 39.3509 -4.112 39.3509 -4.288V-8.208C39.3509 -9.408 38.6629 -10.064 37.6229 -10.064C36.5669 -10.064 35.7989 -9.392 35.7989 -8.208V-4.288C35.7989 -4.112 35.7029 -4 35.5109 -4H34.2149ZM46.64 -11.872C48.896 -11.872 50.24 -10.112 50.24 -8.224V-7.552C50.24 -7.36 50.128 -7.264 49.936 -7.264H44.528C44.736 -6.288 45.504 -5.536 46.768 -5.536C47.616 -5.536 48.32 -5.808 48.928 -6.192C49.104 -6.288 49.248 -6.256 49.328 -6.08L49.84 -5.152C49.92 -4.992 49.904 -4.848 49.792 -4.768C48.992 -4.16 48.016 -3.808 46.752 -3.808C44.192 -3.808 42.672 -5.504 42.672 -7.792C42.672 -10.272 44.448 -11.872 46.64 -11.872ZM44.576 -8.656H48.464C48.352 -9.456 47.76 -10.144 46.64 -10.144C45.6 -10.144 44.832 -9.584 44.576 -8.656ZM57.5623 -10.592C57.6263 -10.416 57.5783 -10.272 57.4023 -10.208L53.6583 -8.672V-4.288C53.6583 -4.112 53.5623 -4 53.3703 -4H52.0743C51.8823 -4 51.7703 -4.112 51.7703 -4.288V-10.96C51.7703 -11.12 51.8503 -11.232 52.0103 -11.296L53.3223 -11.744C53.5303 -11.824 53.6583 -11.712 53.6583 -11.504V-10.464L56.7463 -11.76C56.9383 -11.824 57.0663 -11.776 57.1463 -11.6L57.5623 -10.592ZM62.0913 -0.608C60.7953 -0.608 59.7233 -0.912 58.6673 -1.68C58.5233 -1.792 58.4913 -1.936 58.5872 -2.08L59.1793 -3.152C59.2753 -3.328 59.4353 -3.36 59.5953 -3.216C60.3953 -2.608 61.2113 -2.352 61.9953 -2.352C63.5313 -2.352 64.4273 -3.248 64.4273 -4.608V-4.816C64.0753 -4.368 63.1633 -3.936 62.0753 -3.936C59.6113 -3.936 58.2033 -5.712 58.2033 -7.888C58.2033 -10.144 59.8673 -11.872 62.1553 -11.872C63.0993 -11.872 64.0113 -11.536 64.4273 -10.832V-10.928C64.4273 -11.104 64.5073 -11.216 64.6673 -11.28L65.9792 -11.744C66.1873 -11.824 66.3153 -11.728 66.3153 -11.52V-4.784C66.3153 -2.112 64.6193 -0.608 62.0913 -0.608ZM62.2993 -5.696C63.5153 -5.696 64.4433 -6.496 64.4433 -7.904C64.4433 -9.312 63.5153 -10.128 62.2993 -10.128C61.0673 -10.128 60.1393 -9.312 60.1393 -7.904C60.1393 -6.512 61.0673 -5.696 62.2993 -5.696ZM74.9639 -11.68C75.1879 -11.68 75.2679 -11.552 75.1879 -11.344L70.7719 -1.024C70.7239 -0.864 70.5959 -0.8 70.4199 -0.8H69.0119C68.8039 -0.8 68.7079 -0.928 68.7879 -1.136L70.3559 -4.816L67.5559 -11.344C67.4759 -11.552 67.5719 -11.68 67.7799 -11.68H69.2199C69.3799 -11.68 69.5079 -11.616 69.5719 -11.456L71.3479 -7.152L73.1719 -11.456C73.2359 -11.616 73.3639 -11.68 73.5239 -11.68H74.9639ZM84.1296 -3.808C81.6176 -3.808 79.9376 -5.52 79.9376 -7.84C79.9376 -10.16 81.6176 -11.872 84.1296 -11.872C85.1216 -11.872 86.0496 -11.616 86.6896 -11.024C86.8336 -10.896 86.8656 -10.752 86.7696 -10.592L86.1616 -9.6C86.0656 -9.44 85.9376 -9.408 85.7776 -9.52C85.3456 -9.856 84.8656 -10.08 84.1616 -10.08C82.7696 -10.08 81.9216 -9.12 81.9216 -7.84C81.9216 -6.512 82.7696 -5.6 84.1616 -5.6C84.8656 -5.6 85.3456 -5.808 85.7936 -6.16C85.9376 -6.256 86.0816 -6.224 86.1776 -6.064L86.7696 -5.088C86.8656 -4.928 86.8336 -4.8 86.7216 -4.688C86.1136 -4.096 85.1536 -3.808 84.1296 -3.808ZM92.1263 -3.808C89.7423 -3.808 88.0783 -5.52 88.0783 -7.84C88.0783 -10.16 89.7423 -11.872 92.1263 -11.872C94.5103 -11.872 96.1743 -10.16 96.1743 -7.84C96.1743 -5.52 94.5103 -3.808 92.1263 -3.808ZM92.1263 -5.6C93.4703 -5.6 94.2223 -6.576 94.2223 -7.84C94.2223 -9.104 93.4703 -10.08 92.1263 -10.08C90.7823 -10.08 90.0303 -9.104 90.0303 -7.84C90.0303 -6.576 90.7823 -5.6 92.1263 -5.6ZM98.0118 -4C97.8198 -4 97.7078 -4.112 97.7078 -4.288V-10.96C97.7078 -11.12 97.7878 -11.232 97.9478 -11.296L99.2598 -11.744C99.4678 -11.824 99.5958 -11.712 99.5958 -11.504V-10.848C99.9158 -11.36 100.796 -11.872 101.772 -11.872C102.748 -11.872 103.484 -11.376 103.836 -10.672C104.332 -11.488 105.228 -11.872 106.172 -11.872C107.644 -11.872 109.004 -10.864 109.004 -8.592V-4.288C109.004 -4.112 108.892 -4 108.7 -4H107.404C107.212 -4 107.116 -4.112 107.116 -4.288V-8.416C107.116 -9.488 106.588 -10.064 105.756 -10.064C104.908 -10.064 104.3 -9.504 104.3 -8.416V-4.288C104.3 -4.112 104.204 -4 104.012 -4H102.716C102.524 -4 102.412 -4.112 102.412 -4.288V-8.416C102.412 -9.536 101.916 -10.064 101.052 -10.064C100.284 -10.064 99.5958 -9.488 99.5958 -8.416V-4.288C99.5958 -4.112 99.4998 -4 99.3078 -4H98.0118ZM110.934 -0.8C110.742 -0.8 110.63 -0.912 110.63 -1.088V-10.928C110.63 -11.104 110.71 -11.216 110.87 -11.28L112.182 -11.744C112.39 -11.824 112.518 -11.728 112.518 -11.52V-10.848C112.95 -11.408 113.862 -11.872 114.966 -11.872C117.158 -11.872 118.758 -10.304 118.758 -7.84C118.758 -5.664 117.366 -3.808 114.966 -3.808C113.846 -3.808 112.934 -4.288 112.518 -4.816V-1.088C112.518 -0.912 112.422 -0.8 112.23 -0.8H110.934ZM114.662 -5.552C115.878 -5.552 116.822 -6.368 116.822 -7.84C116.822 -9.344 115.878 -10.128 114.662 -10.128C113.446 -10.128 112.518 -9.344 112.518 -7.84C112.518 -6.352 113.446 -5.552 114.662 -5.552ZM123.966 -3.808C121.502 -3.808 120.094 -5.6 120.094 -7.888C120.094 -10.144 121.758 -11.872 124.046 -11.872C124.99 -11.872 125.902 -11.536 126.318 -10.832V-10.928C126.318 -11.104 126.398 -11.216 126.558 -11.28L127.87 -11.744C128.078 -11.824 128.206 -11.728 128.206 -11.52V-4.288C128.206 -4.112 128.094 -4 127.902 -4H126.606C126.43 -4 126.318 -4.112 126.318 -4.288V-4.704C125.966 -4.256 125.054 -3.808 123.966 -3.808ZM124.19 -5.584C125.406 -5.584 126.334 -6.384 126.334 -7.904C126.334 -9.312 125.406 -10.128 124.19 -10.128C122.958 -10.128 122.03 -9.312 122.03 -7.904C122.03 -6.4 122.958 -5.584 124.19 -5.584ZM130.231 -4C130.039 -4 129.927 -4.112 129.927 -4.288V-10.96C129.927 -11.12 130.007 -11.232 130.167 -11.296L131.479 -11.744C131.687 -11.824 131.815 -11.712 131.815 -11.504V-10.736C132.359 -11.504 133.207 -11.872 134.215 -11.872C135.847 -11.872 137.255 -10.704 137.255 -8.432V-4.288C137.255 -4.112 137.159 -4 136.967 -4H135.671C135.479 -4 135.367 -4.112 135.367 -4.288V-8.208C135.367 -9.408 134.679 -10.064 133.639 -10.064C132.583 -10.064 131.815 -9.392 131.815 -8.208V-4.288C131.815 -4.112 131.719 -4 131.527 -4H130.231ZM145.62 -11.68C145.844 -11.68 145.924 -11.552 145.844 -11.344L141.428 -1.024C141.38 -0.864 141.252 -0.8 141.076 -0.8H139.668C139.46 -0.8 139.364 -0.928 139.444 -1.136L141.012 -4.816L138.212 -11.344C138.132 -11.552 138.228 -11.68 138.436 -11.68H139.876C140.036 -11.68 140.164 -11.616 140.228 -11.456L142.004 -7.152L143.828 -11.456C143.892 -11.616 144.02 -11.68 144.18 -11.68H145.62ZM3.744 12.192C2.496 12.192 1.36 11.84 0.672 11.072C0.56 10.944 0.576 10.784 0.672 10.656L1.28 9.84C1.408 9.68 1.552 9.68 1.696 9.808C2.208 10.24 2.896 10.576 3.68 10.576C4.528 10.576 4.912 10.32 4.912 9.856C4.912 9.392 4.496 9.168 3.52 8.976C1.968 8.688 0.848 8 0.848 6.608C0.848 5.12 2.096 4.128 3.776 4.128C4.944 4.128 5.728 4.496 6.224 4.896C6.368 5.024 6.368 5.152 6.256 5.312L5.584 6.16C5.472 6.32 5.344 6.32 5.168 6.224C4.8 5.968 4.272 5.776 3.728 5.776C3.104 5.776 2.704 6.016 2.704 6.4C2.704 6.832 3.2 6.992 4.096 7.184C5.808 7.52 6.768 8.192 6.768 9.68C6.768 11.408 5.36 12.192 3.744 12.192ZM11.9681 4.128C14.2241 4.128 15.5681 5.888 15.5681 7.776V8.448C15.5681 8.64 15.4561 8.736 15.2641 8.736H9.85613C10.0641 9.712 10.8321 10.464 12.0961 10.464C12.9441 10.464 13.6481 10.192 14.2561 9.808C14.4321 9.712 14.5761 9.744 14.6561 9.92L15.1681 10.848C15.2481 11.008 15.2321 11.152 15.1201 11.232C14.3201 11.84 13.3441 12.192 12.0801 12.192C9.52013 12.192 8.00013 10.496 8.00013 8.208C8.00013 5.728 9.77613 4.128 11.9681 4.128ZM9.90413 7.344H13.7921C13.6801 6.544 13.0881 5.856 11.9681 5.856C10.9281 5.856 10.1601 6.416 9.90413 7.344ZM20.7784 12.192C18.3144 12.192 16.9064 10.4 16.9064 8.112C16.9064 5.856 18.5704 4.128 20.8584 4.128C21.8024 4.128 22.7144 4.464 23.1304 5.168V5.072C23.1304 4.896 23.2104 4.784 23.3704 4.72L24.6824 4.256C24.8904 4.176 25.0184 4.272 25.0184 4.48V11.712C25.0184 11.888 24.9064 12 24.7144 12H23.4184C23.2424 12 23.1304 11.888 23.1304 11.712V11.296C22.7784 11.744 21.8664 12.192 20.7784 12.192ZM21.0024 10.416C22.2184 10.416 23.1464 9.616 23.1464 8.096C23.1464 6.688 22.2184 5.872 21.0024 5.872C19.7704 5.872 18.8424 6.688 18.8424 8.096C18.8424 9.6 19.7704 10.416 21.0024 10.416ZM32.531 5.408C32.595 5.584 32.547 5.728 32.371 5.792L28.627 7.328V11.712C28.627 11.888 28.531 12 28.339 12H27.043C26.851 12 26.739 11.888 26.739 11.712V5.04C26.739 4.88 26.819 4.768 26.979 4.704L28.291 4.256C28.499 4.176 28.627 4.288 28.627 4.496V5.536L31.715 4.24C31.907 4.176 32.035 4.224 32.115 4.4L32.531 5.408ZM37.3328 12.192C34.8207 12.192 33.1408 10.48 33.1408 8.16C33.1408 5.84 34.8207 4.128 37.3328 4.128C38.3248 4.128 39.2528 4.384 39.8928 4.976C40.0368 5.104 40.0688 5.248 39.9728 5.408L39.3648 6.4C39.2688 6.56 39.1408 6.592 38.9808 6.48C38.5488 6.144 38.0688 5.92 37.3648 5.92C35.9728 5.92 35.1248 6.88 35.1248 8.16C35.1248 9.488 35.9728 10.4 37.3648 10.4C38.0688 10.4 38.5488 10.192 38.9968 9.84C39.1408 9.744 39.2848 9.776 39.3808 9.936L39.9728 10.912C40.0688 11.072 40.0368 11.2 39.9248 11.312C39.3168 11.904 38.3568 12.192 37.3328 12.192ZM41.8086 12C41.6166 12 41.5046 11.888 41.5046 11.712V1.504C41.5046 1.344 41.5846 1.248 41.7446 1.184L43.0566 0.735999C43.2646 0.655999 43.3926 0.768 43.3926 0.976V5.264C43.9206 4.512 44.7846 4.128 45.8086 4.128C47.4406 4.128 48.8326 5.296 48.8326 7.568V11.712C48.8326 11.888 48.7366 12 48.5446 12H47.2486C47.0566 12 46.9446 11.888 46.9446 11.712V7.792C46.9446 6.592 46.2566 5.936 45.2166 5.936C44.1606 5.936 43.3926 6.608 43.3926 7.792V11.712C43.3926 11.888 43.2966 12 43.1046 12H41.8086ZM50.7458 3.776C50.5378 3.84 50.3938 3.744 50.3938 3.536V2.112C50.3938 1.952 50.4738 1.84 50.6338 1.776L52.0738 1.264C52.2818 1.184 52.4098 1.296 52.4098 1.504V2.96C52.4098 3.12 52.3458 3.232 52.1698 3.296L50.7458 3.776ZM50.7458 12C50.5698 12 50.4578 11.888 50.4578 11.712V5.04C50.4578 4.88 50.5378 4.768 50.6978 4.704L52.0098 4.256C52.2178 4.176 52.3458 4.288 52.3458 4.496V11.712C52.3458 11.888 52.2338 12 52.0418 12H50.7458ZM54.3711 12C54.1791 12 54.0671 11.888 54.0671 11.712V5.04C54.0671 4.88 54.1471 4.768 54.3071 4.704L55.6191 4.256C55.8271 4.176 55.9551 4.288 55.9551 4.496V5.264C56.4991 4.496 57.3471 4.128 58.3551 4.128C59.9871 4.128 61.3951 5.296 61.3951 7.568V11.712C61.3951 11.888 61.2991 12 61.1071 12H59.8111C59.6191 12 59.5071 11.888 59.5071 11.712V7.792C59.5071 6.592 58.8191 5.936 57.7791 5.936C56.7231 5.936 55.9551 6.608 55.9551 7.792V11.712C55.9551 11.888 55.8591 12 55.6671 12H54.3711ZM66.7163 15.392C65.4203 15.392 64.3483 15.088 63.2923 14.32C63.1483 14.208 63.1163 14.064 63.2122 13.92L63.8043 12.848C63.9003 12.672 64.0603 12.64 64.2203 12.784C65.0203 13.392 65.8363 13.648 66.6203 13.648C68.1563 13.648 69.0523 12.752 69.0523 11.392V11.184C68.7003 11.632 67.7883 12.064 66.7003 12.064C64.2363 12.064 62.8283 10.288 62.8283 8.112C62.8283 5.856 64.4923 4.128 66.7803 4.128C67.7243 4.128 68.6363 4.464 69.0523 5.168V5.072C69.0523 4.896 69.1323 4.784 69.2923 4.72L70.6042 4.256C70.8123 4.176 70.9403 4.272 70.9403 4.48V11.216C70.9403 13.888 69.2443 15.392 66.7163 15.392ZM66.9243 10.304C68.1403 10.304 69.0683 9.504 69.0683 8.096C69.0683 6.688 68.1403 5.872 66.9243 5.872C65.6923 5.872 64.7643 6.688 64.7643 8.096C64.7643 9.488 65.6923 10.304 66.9243 10.304ZM80.7644 1.024C80.9244 1.104 80.9724 1.232 80.9244 1.392L80.5884 2.512C80.5244 2.704 80.3964 2.752 80.2044 2.656C79.9964 2.56 79.8364 2.528 79.6284 2.528C79.0204 2.528 78.8444 2.944 78.8444 3.52V4.32H80.1564C80.3484 4.32 80.4604 4.432 80.4604 4.608V5.728C80.4604 5.92 80.3484 6.016 80.1564 6.016H78.8444V11.712C78.8444 11.888 78.7484 12 78.5564 12H77.2604C77.0684 12 76.9564 11.888 76.9564 11.712V6.016H76.2524C76.0604 6.016 75.9484 5.92 75.9484 5.728V4.608C75.9484 4.432 76.0604 4.32 76.2524 4.32H76.9564V3.232C76.9564 1.936 77.5484 0.704 79.3724 0.704C79.9644 0.704 80.3644 0.815999 80.7644 1.024ZM85.4544 12.192C83.0704 12.192 81.4064 10.48 81.4064 8.16C81.4064 5.84 83.0704 4.128 85.4544 4.128C87.8384 4.128 89.5024 5.84 89.5024 8.16C89.5024 10.48 87.8384 12.192 85.4544 12.192ZM85.4544 10.4C86.7984 10.4 87.5504 9.424 87.5504 8.16C87.5504 6.896 86.7984 5.92 85.4544 5.92C84.1104 5.92 83.3584 6.896 83.3584 8.16C83.3584 9.424 84.1104 10.4 85.4544 10.4ZM96.8279 5.408C96.8919 5.584 96.8439 5.728 96.6679 5.792L92.9239 7.328V11.712C92.9239 11.888 92.8279 12 92.6359 12H91.3399C91.1479 12 91.0359 11.888 91.0359 11.712V5.04C91.0359 4.88 91.1159 4.768 91.2759 4.704L92.5879 4.256C92.7959 4.176 92.9239 4.288 92.9239 4.496V5.536L96.0119 4.24C96.2039 4.176 96.3319 4.224 96.4119 4.4L96.8279 5.408ZM106.106 12.192C104.986 12.192 104.074 11.712 103.658 11.184V11.712C103.658 11.888 103.562 12 103.37 12H102.074C101.882 12 101.77 11.888 101.77 11.712V1.536C101.77 1.376 101.85 1.264 102.01 1.2L103.322 0.735999C103.53 0.655999 103.658 0.752 103.658 0.959999V5.152C104.09 4.592 105.002 4.128 106.106 4.128C108.298 4.128 109.898 5.696 109.898 8.16C109.898 10.336 108.506 12.192 106.106 12.192ZM105.802 10.448C107.018 10.448 107.962 9.632 107.962 8.16C107.962 6.656 107.018 5.872 105.802 5.872C104.586 5.872 103.658 6.656 103.658 8.16C103.658 9.648 104.586 10.448 105.802 10.448ZM115.203 4.128C117.459 4.128 118.803 5.888 118.803 7.776V8.448C118.803 8.64 118.691 8.736 118.499 8.736H113.091C113.299 9.712 114.067 10.464 115.331 10.464C116.179 10.464 116.883 10.192 117.491 9.808C117.667 9.712 117.811 9.744 117.891 9.92L118.403 10.848C118.483 11.008 118.467 11.152 118.355 11.232C117.555 11.84 116.579 12.192 115.315 12.192C112.755 12.192 111.235 10.496 111.235 8.208C111.235 5.728 113.011 4.128 115.203 4.128ZM113.139 7.344H117.027C116.915 6.544 116.323 5.856 115.203 5.856C114.163 5.856 113.395 6.416 113.139 7.344ZM124.861 11.504C124.909 11.664 124.877 11.792 124.717 11.872C124.301 12.08 123.917 12.192 123.325 12.192C121.549 12.192 120.909 11.04 120.909 9.664V6.016H120.061C119.869 6.016 119.773 5.904 119.773 5.712V4.608C119.773 4.432 119.869 4.32 120.061 4.32H120.909V3.28C120.909 3.12 120.973 3.008 121.133 2.944L122.445 2.464C122.653 2.384 122.797 2.496 122.797 2.704V4.32H124.125C124.317 4.32 124.413 4.432 124.413 4.608V5.712C124.413 5.904 124.317 6.016 124.125 6.016H122.797V9.376C122.797 9.952 122.957 10.368 123.581 10.368C123.773 10.368 123.933 10.32 124.141 10.24C124.333 10.144 124.461 10.192 124.525 10.4L124.861 11.504ZM130.517 11.504C130.565 11.664 130.533 11.792 130.373 11.872C129.957 12.08 129.573 12.192 128.981 12.192C127.205 12.192 126.565 11.04 126.565 9.664V6.016H125.717C125.525 6.016 125.429 5.904 125.429 5.712V4.608C125.429 4.432 125.525 4.32 125.717 4.32H126.565V3.28C126.565 3.12 126.629 3.008 126.789 2.944L128.101 2.464C128.309 2.384 128.453 2.496 128.453 2.704V4.32H129.781C129.973 4.32 130.069 4.432 130.069 4.608V5.712C130.069 5.904 129.973 6.016 129.781 6.016H128.453V9.376C128.453 9.952 128.613 10.368 129.237 10.368C129.429 10.368 129.589 10.32 129.797 10.24C129.989 10.144 130.117 10.192 130.181 10.4L130.517 11.504ZM135.406 4.128C137.662 4.128 139.006 5.888 139.006 7.776V8.448C139.006 8.64 138.894 8.736 138.702 8.736H133.294C133.502 9.712 134.27 10.464 135.534 10.464C136.382 10.464 137.086 10.192 137.694 9.808C137.87 9.712 138.014 9.744 138.094 9.92L138.606 10.848C138.686 11.008 138.67 11.152 138.558 11.232C137.758 11.84 136.782 12.192 135.518 12.192C132.958 12.192 131.438 10.496 131.438 8.208C131.438 5.728 133.214 4.128 135.406 4.128ZM133.342 7.344H137.23C137.118 6.544 136.526 5.856 135.406 5.856C134.366 5.856 133.598 6.416 133.342 7.344ZM146.328 5.408C146.392 5.584 146.344 5.728 146.168 5.792L142.424 7.328V11.712C142.424 11.888 142.328 12 142.136 12H140.84C140.648 12 140.536 11.888 140.536 11.712V5.04C140.536 4.88 140.616 4.768 140.776 4.704L142.088 4.256C142.296 4.176 142.424 4.288 142.424 4.496V5.536L145.512 4.24C145.704 4.176 145.832 4.224 145.912 4.4L146.328 5.408ZM146.337 12C146.145 12 146.049 11.888 146.049 11.712V10.272C146.049 10.08 146.145 9.968 146.337 9.968H147.777C147.969 9.968 148.065 10.08 148.065 10.272V11.712C148.065 11.888 147.969 12 147.777 12H146.337Z" fill="#FF1243"/>
</g>
<defs>
<clipPath id="clip0_16_137">
<rect width="188" height="17" fill="white"/>
</clipPath>
</defs>
</svg>
