<?xml version="1.0" encoding="UTF-8"?>
<svg id="Layer_2" xmlns="http://www.w3.org/2000/svg" version="1.1" viewBox="0 0 250.9 100">
  <!-- Generator: Adobe Illustrator 29.8.5, SVG Export Plug-In . SVG Version: 2.1.1 Build 2)  -->
  <defs>
    <style>
      .st0 {
        fill: #ff1243;
      }
    </style>
  </defs>
  <path class="st0" d="M169.3,64c-.2-.5-.7-.7-1.2-.4-.5.3-10,5.9-10,5.9v-5.2c0-.6-.4-.8-.9-.6l-3.1,1.1c-.4.2-.6.5-.6.9v22.8c0,.5.3.8.8.8h3c.5,0,.8-.3.8-.8v-14s11.1-6.9,11.6-7.2c.4-.3.7-.5.5-1-.2-.6-.9-2.4-.9-2.4"/>
  <path class="st0" d="M24.7,75c0-6.4-4.3-11.7-11.6-11.7S0,68.4,0,76.8s5,13.2,13.4,13.2,7.6-1.3,10.5-3.9c.4-.3.4-.7.1-1.1l-1.4-2.2c-.3-.4-.7-.5-1.1-.2-2.6,1.9-5.2,2.9-8.1,2.9-5.3,0-8.3-3.5-8.6-7.9h19.2c.5,0,.8-.4.8-.8v-1.8h0ZM5,73.6c1-3.7,3.9-5.9,7.9-5.9s6.7,2.6,6.9,5.9H5Z"/>
  <path class="st0" d="M50.5,100h3c.5,0,.8-.3.8-.8v-34.9c0-.6-.4-.8-1-.6l-3,1.1c-.4.2-.6.5-.6.9v1.1c-1.6-2.2-4.9-3.5-8.4-3.5-6.9,0-13,5.2-13,13.4s4.7,13.3,12.7,13.3,7.2-1.6,8.6-3.5v12.7c0,.5.3.8.8.8M41.4,85.5c-4.5,0-8.4-3.1-8.4-8.9s3.9-8.8,8.4-8.8,8.4,3,8.4,8.8-3.7,8.9-8.4,8.9"/>
  <path class="st0" d="M69.4,90c2.8,0,5.8-.9,7.7-3.8v2.3c0,.5.3.8.8.8h3c.5,0,.8-.3.8-.8v-24.2c0-.6-.4-.8-.9-.6l-3.1,1.1c-.4.2-.6.5-.6.9v12.7c0,4.5-2.9,7.1-6.9,7.1s-6.6-2.5-6.6-7.1v-14.1c0-.6-.4-.8-.9-.6l-3.1,1.1c-.4.2-.6.5-.6.9v12.9c0,7.5,4.6,11.4,10.3,11.4"/>
  <path class="st0" d="M87.8,61l3.2-1.1c.5-.2.7-.4.7-1v-3.9c0-.5-.4-.8-.9-.6l-3.2,1.2c-.5.2-.7.4-.7.9v3.7c0,.6.3,1,.9.7"/>
  <path class="st0" d="M87.9,89.4h3c.5,0,.8-.3.8-.8v-24.3c0-.6-.4-.8-.9-.6l-3.1,1.1c-.4.2-.6.5-.6.9v22.8c0,.5.3.8.8.8"/>
  <path class="st0" d="M97.9,89.4h3c.5,0,.8-.3.8-.8v-13.7c0-4.5,2.9-7.1,6.9-7.1s6.6,2.5,6.6,7.1v13.7c0,.5.3.8.8.8h3c.5,0,.8-.3.8-.8v-13.9c0-7.5-4.6-11.4-10.3-11.4s-5.8.9-7.7,3.8v-2.8c0-.6-.4-.8-.9-.6l-3.1,1.1c-.4.2-.6.5-.6.9v22.8c0,.5.3.8.8.8"/>
  <path class="st0" d="M136.7,63.3c-7.6,0-13.1,5.7-13.1,13.4s5.5,13.3,13.1,13.3,13-5.7,13-13.3-5.4-13.3-13-13.3M136.7,85.6c-5.2,0-8.4-3.9-8.4-8.9s3.2-8.9,8.4-8.9,8.4,3.9,8.4,8.9-3.2,8.9-8.4,8.9"/>
  <path class="st0" d="M219.4,70.4l5.3,3c.3.2.5.5.5.9v6.1c0,.5-.6.8-1,.6l-5.3-3c-.3-.2-.5-.5-.5-.9v-6.1c0-.5.6-.8,1-.6h0Z"/>
  <path class="st0" d="M223.6,63l5.3,3c.3.2.7.2,1,0l5.3-3c.4-.3.4-.9,0-1.2l-5.3-3c-.3-.2-.7-.2-1,0l-5.3,3c-.4.3-.4.9,0,1.2Z"/>
  <path class="st0" d="M204.5,61.8l-11.9-6.9c-.4-.2-.8-.2-1.1,0l-11.9,6.9c-.5.3-.5,1,0,1.3l11.9,6.9c.4.2.8.2,1.1,0l11.9-6.9c.5-.3.5-1,0-1.3Z"/>
  <path class="st0" d="M209.1,70.2l-7.9,4.6c-.2.1-.4.4-.4.7v9.1c0,.4.4.6.8.4l7.9-4.6c.2-.1.4-.4.4-.7v-9.1c0-.4-.4-.6-.8-.4Z"/>
  <path class="st0" d="M248.2.3l-28.5,16.4c-.8.5-1.4,1.4-1.4,2.4v32.9c0,1.4,1.5,2.3,2.8,1.6l28.5-16.4c.8-.5,1.3-1.4,1.3-2.4V1.8c0-1.4-1.5-2.3-2.7-1.6Z"/>
  <path class="st0" d="M187.2,18.1v22.9c0,.7.3,1.3.9,1.6l19.8,11.4c.8.5,1.9-.1,1.9-1.1v-22.9c0-.7-.4-1.3-.9-1.6l-19.8-11.4c-.8-.5-1.9.1-1.9,1.1Z"/>
</svg>