<svg width="128" height="16" viewBox="0 0 128 16" fill="none" xmlns="http://www.w3.org/2000/svg">
<g clip-path="url(#clip0_15_131)">
<path d="M9.674 11.706C9.744 11.888 9.674 12 9.478 12H8.064C7.924 12 7.826 11.93 7.784 11.818L7.014 9.872H3.066L2.296 11.818C2.24 11.944 2.142 12 2.002 12H0.588C0.406 12 0.322 11.888 0.392 11.706L4.214 2.396C4.256 2.256 4.368 2.2 4.508 2.2H5.558C5.698 2.2 5.81 2.256 5.866 2.396L9.674 11.706ZM3.696 8.29H6.384L5.04 4.888L3.696 8.29ZM10.9445 12C10.7765 12 10.6785 11.902 10.6785 11.748V5.91C10.6785 5.77 10.7485 5.672 10.8885 5.616L12.0365 5.224C12.2185 5.154 12.3305 5.252 12.3305 5.434V6.106C12.8065 5.434 13.5485 5.112 14.4305 5.112C15.8585 5.112 17.0905 6.134 17.0905 8.122V11.748C17.0905 11.902 17.0065 12 16.8385 12H15.7045C15.5365 12 15.4385 11.902 15.4385 11.748V8.318C15.4385 7.268 14.8365 6.694 13.9265 6.694C13.0025 6.694 12.3305 7.282 12.3305 8.318V11.748C12.3305 11.902 12.2465 12 12.0785 12H10.9445ZM24.763 5.112C26.737 5.112 27.913 6.652 27.913 8.304V8.892C27.913 9.06 27.815 9.144 27.647 9.144H22.915C23.097 9.998 23.769 10.656 24.875 10.656C25.617 10.656 26.233 10.418 26.765 10.082C26.919 9.998 27.045 10.026 27.115 10.18L27.563 10.992C27.633 11.132 27.619 11.258 27.521 11.328C26.821 11.86 25.967 12.168 24.861 12.168C22.621 12.168 21.291 10.684 21.291 8.682C21.291 6.512 22.845 5.112 24.763 5.112ZM22.957 7.926H26.359C26.261 7.226 25.743 6.624 24.763 6.624C23.853 6.624 23.181 7.114 22.957 7.926ZM29.378 12C29.21 12 29.112 11.902 29.112 11.748V5.91C29.112 5.77 29.182 5.672 29.322 5.616L30.47 5.224C30.652 5.154 30.764 5.252 30.764 5.434V6.106C31.24 5.434 31.982 5.112 32.864 5.112C34.292 5.112 35.524 6.134 35.524 8.122V11.748C35.524 11.902 35.44 12 35.272 12H34.138C33.97 12 33.872 11.902 33.872 11.748V8.318C33.872 7.268 33.27 6.694 32.36 6.694C31.436 6.694 30.764 7.282 30.764 8.318V11.748C30.764 11.902 30.68 12 30.512 12H29.378ZM40.11 5.112C42.084 5.112 43.26 6.652 43.26 8.304V8.892C43.26 9.06 43.162 9.144 42.994 9.144H38.262C38.444 9.998 39.116 10.656 40.222 10.656C40.964 10.656 41.58 10.418 42.112 10.082C42.266 9.998 42.392 10.026 42.462 10.18L42.91 10.992C42.98 11.132 42.966 11.258 42.868 11.328C42.168 11.86 41.314 12.168 40.208 12.168C37.968 12.168 36.638 10.684 36.638 8.682C36.638 6.512 38.192 5.112 40.11 5.112ZM38.304 7.926H41.706C41.608 7.226 41.09 6.624 40.11 6.624C39.2 6.624 38.528 7.114 38.304 7.926ZM49.527 6.232C49.583 6.386 49.541 6.512 49.387 6.568L46.111 7.912V11.748C46.111 11.902 46.027 12 45.859 12H44.725C44.557 12 44.459 11.902 44.459 11.748V5.91C44.459 5.77 44.529 5.672 44.669 5.616L45.817 5.224C45.999 5.154 46.111 5.252 46.111 5.434V6.344L48.813 5.21C48.981 5.154 49.093 5.196 49.163 5.35L49.527 6.232ZM53.3498 14.968C52.2158 14.968 51.2778 14.702 50.3538 14.03C50.2278 13.932 50.1998 13.806 50.2838 13.68L50.8018 12.742C50.8858 12.588 51.0258 12.56 51.1658 12.686C51.8658 13.218 52.5798 13.442 53.2658 13.442C54.6098 13.442 55.3938 12.658 55.3938 11.468V11.286C55.0858 11.678 54.2878 12.056 53.3358 12.056C51.1798 12.056 49.9478 10.502 49.9478 8.598C49.9478 6.624 51.4038 5.112 53.4058 5.112C54.2318 5.112 55.0298 5.406 55.3938 6.022V5.938C55.3938 5.784 55.4638 5.686 55.6038 5.63L56.7518 5.224C56.9338 5.154 57.0458 5.238 57.0458 5.42V11.314C57.0458 13.652 55.5618 14.968 53.3498 14.968ZM53.5318 10.516C54.5958 10.516 55.4078 9.816 55.4078 8.584C55.4078 7.352 54.5958 6.638 53.5318 6.638C52.4538 6.638 51.6418 7.352 51.6418 8.584C51.6418 9.802 52.4538 10.516 53.5318 10.516ZM64.4734 5.28C64.6694 5.28 64.7394 5.392 64.6694 5.574L60.8054 14.604C60.7634 14.744 60.6514 14.8 60.4974 14.8H59.2654C59.0834 14.8 58.9994 14.688 59.0694 14.506L60.4414 11.286L57.9914 5.574C57.9214 5.392 58.0054 5.28 58.1874 5.28H59.4474C59.5874 5.28 59.6994 5.336 59.7554 5.476L61.3094 9.242L62.9054 5.476C62.9614 5.336 63.0734 5.28 63.2134 5.28H64.4734ZM72.2134 12.168C70.0154 12.168 68.5454 10.67 68.5454 8.64C68.5454 6.61 70.0154 5.112 72.2134 5.112C73.0814 5.112 73.8934 5.336 74.4534 5.854C74.5794 5.966 74.6074 6.092 74.5234 6.232L73.9914 7.1C73.9074 7.24 73.7954 7.268 73.6554 7.17C73.2774 6.876 72.8574 6.68 72.2414 6.68C71.0234 6.68 70.2814 7.52 70.2814 8.64C70.2814 9.802 71.0234 10.6 72.2414 10.6C72.8574 10.6 73.2774 10.418 73.6694 10.11C73.7954 10.026 73.9214 10.054 74.0054 10.194L74.5234 11.048C74.6074 11.188 74.5794 11.3 74.4814 11.398C73.9494 11.916 73.1094 12.168 72.2134 12.168ZM79.0705 12.168C76.9845 12.168 75.5285 10.67 75.5285 8.64C75.5285 6.61 76.9845 5.112 79.0705 5.112C81.1565 5.112 82.6125 6.61 82.6125 8.64C82.6125 10.67 81.1565 12.168 79.0705 12.168ZM79.0705 10.6C80.2465 10.6 80.9045 9.746 80.9045 8.64C80.9045 7.534 80.2465 6.68 79.0705 6.68C77.8945 6.68 77.2365 7.534 77.2365 8.64C77.2365 9.746 77.8945 10.6 79.0705 10.6ZM84.0803 12C83.9123 12 83.8143 11.902 83.8143 11.748V5.91C83.8143 5.77 83.8843 5.672 84.0243 5.616L85.1723 5.224C85.3543 5.154 85.4663 5.252 85.4663 5.434V6.008C85.7463 5.56 86.5163 5.112 87.3703 5.112C88.2243 5.112 88.8683 5.546 89.1763 6.162C89.6103 5.448 90.3943 5.112 91.2203 5.112C92.5083 5.112 93.6983 5.994 93.6983 7.982V11.748C93.6983 11.902 93.6003 12 93.4323 12H92.2983C92.1303 12 92.0463 11.902 92.0463 11.748V8.136C92.0463 7.198 91.5843 6.694 90.8563 6.694C90.1143 6.694 89.5823 7.184 89.5823 8.136V11.748C89.5823 11.902 89.4983 12 89.3303 12H88.1963C88.0283 12 87.9303 11.902 87.9303 11.748V8.136C87.9303 7.156 87.4963 6.694 86.7403 6.694C86.0683 6.694 85.4663 7.198 85.4663 8.136V11.748C85.4663 11.902 85.3823 12 85.2143 12H84.0803ZM95.2469 14.8C95.0789 14.8 94.9809 14.702 94.9809 14.548V5.938C94.9809 5.784 95.0509 5.686 95.1909 5.63L96.3389 5.224C96.5209 5.154 96.6329 5.238 96.6329 5.42V6.008C97.0109 5.518 97.8089 5.112 98.7749 5.112C100.693 5.112 102.093 6.484 102.093 8.64C102.093 10.544 100.875 12.168 98.7749 12.168C97.7949 12.168 96.9969 11.748 96.6329 11.286V14.548C96.6329 14.702 96.5489 14.8 96.3809 14.8H95.2469ZM98.5089 10.642C99.5729 10.642 100.399 9.928 100.399 8.64C100.399 7.324 99.5729 6.638 98.5089 6.638C97.4449 6.638 96.6329 7.324 96.6329 8.64C96.6329 9.942 97.4449 10.642 98.5089 10.642ZM106.51 12.168C104.354 12.168 103.122 10.6 103.122 8.598C103.122 6.624 104.578 5.112 106.58 5.112C107.406 5.112 108.204 5.406 108.568 6.022V5.938C108.568 5.784 108.638 5.686 108.778 5.63L109.926 5.224C110.108 5.154 110.22 5.238 110.22 5.42V11.748C110.22 11.902 110.122 12 109.954 12H108.82C108.666 12 108.568 11.902 108.568 11.748V11.384C108.26 11.776 107.462 12.168 106.51 12.168ZM106.706 10.614C107.77 10.614 108.582 9.914 108.582 8.584C108.582 7.352 107.77 6.638 106.706 6.638C105.628 6.638 104.816 7.352 104.816 8.584C104.816 9.9 105.628 10.614 106.706 10.614ZM111.852 12C111.684 12 111.586 11.902 111.586 11.748V5.91C111.586 5.77 111.656 5.672 111.796 5.616L112.944 5.224C113.126 5.154 113.238 5.252 113.238 5.434V6.106C113.714 5.434 114.456 5.112 115.338 5.112C116.766 5.112 117.998 6.134 117.998 8.122V11.748C117.998 11.902 117.914 12 117.746 12H116.612C116.444 12 116.346 11.902 116.346 11.748V8.318C116.346 7.268 115.744 6.694 114.834 6.694C113.91 6.694 113.238 7.282 113.238 8.318V11.748C113.238 11.902 113.154 12 112.986 12H111.852ZM125.178 5.28C125.374 5.28 125.444 5.392 125.374 5.574L121.51 14.604C121.468 14.744 121.356 14.8 121.202 14.8H119.97C119.788 14.8 119.704 14.688 119.774 14.506L121.146 11.286L118.696 5.574C118.626 5.392 118.71 5.28 118.892 5.28H120.152C120.292 5.28 120.404 5.336 120.46 5.476L122.014 9.242L123.61 5.476C123.666 5.336 123.778 5.28 123.918 5.28H125.178ZM3.276 28.168C2.184 28.168 1.19 27.86 0.588 27.188C0.49 27.076 0.504 26.936 0.588 26.824L1.12 26.11C1.232 25.97 1.358 25.97 1.484 26.082C1.932 26.46 2.534 26.754 3.22 26.754C3.962 26.754 4.298 26.53 4.298 26.124C4.298 25.718 3.934 25.522 3.08 25.354C1.722 25.102 0.742 24.5 0.742 23.282C0.742 21.98 1.834 21.112 3.304 21.112C4.326 21.112 5.012 21.434 5.446 21.784C5.572 21.896 5.572 22.008 5.474 22.148L4.886 22.89C4.788 23.03 4.676 23.03 4.522 22.946C4.2 22.722 3.738 22.554 3.262 22.554C2.716 22.554 2.366 22.764 2.366 23.1C2.366 23.478 2.8 23.618 3.584 23.786C5.082 24.08 5.922 24.668 5.922 25.97C5.922 27.482 4.69 28.168 3.276 28.168ZM10.3321 21.112C12.3061 21.112 13.4821 22.652 13.4821 24.304V24.892C13.4821 25.06 13.3841 25.144 13.2161 25.144H8.48411C8.66611 25.998 9.33811 26.656 10.4441 26.656C11.1861 26.656 11.8021 26.418 12.3341 26.082C12.4881 25.998 12.6141 26.026 12.6841 26.18L13.1321 26.992C13.2021 27.132 13.1881 27.258 13.0901 27.328C12.3901 27.86 11.5361 28.168 10.4301 28.168C8.19011 28.168 6.86011 26.684 6.86011 24.682C6.86011 22.512 8.41411 21.112 10.3321 21.112ZM8.52611 23.926H11.9281C11.8301 23.226 11.3121 22.624 10.3321 22.624C9.42211 22.624 8.75011 23.114 8.52611 23.926ZM17.9011 28.168C15.7451 28.168 14.5131 26.6 14.5131 24.598C14.5131 22.624 15.9691 21.112 17.9711 21.112C18.7971 21.112 19.5951 21.406 19.9591 22.022V21.938C19.9591 21.784 20.0291 21.686 20.1691 21.63L21.3171 21.224C21.4991 21.154 21.6111 21.238 21.6111 21.42V27.748C21.6111 27.902 21.5131 28 21.3451 28H20.2111C20.0571 28 19.9591 27.902 19.9591 27.748V27.384C19.6511 27.776 18.8531 28.168 17.9011 28.168ZM18.0971 26.614C19.1611 26.614 19.9731 25.914 19.9731 24.584C19.9731 23.352 19.1611 22.638 18.0971 22.638C17.0191 22.638 16.2071 23.352 16.2071 24.584C16.2071 25.9 17.0191 26.614 18.0971 26.614ZM28.0446 22.232C28.1006 22.386 28.0586 22.512 27.9046 22.568L24.6286 23.912V27.748C24.6286 27.902 24.5446 28 24.3766 28H23.2426C23.0746 28 22.9766 27.902 22.9766 27.748V21.91C22.9766 21.77 23.0466 21.672 23.1866 21.616L24.3346 21.224C24.5166 21.154 24.6286 21.252 24.6286 21.434V22.344L27.3306 21.21C27.4986 21.154 27.6106 21.196 27.6806 21.35L28.0446 22.232ZM32.1062 28.168C29.9082 28.168 28.4382 26.67 28.4382 24.64C28.4382 22.61 29.9082 21.112 32.1062 21.112C32.9742 21.112 33.7862 21.336 34.3462 21.854C34.4722 21.966 34.5002 22.092 34.4162 22.232L33.8842 23.1C33.8002 23.24 33.6882 23.268 33.5482 23.17C33.1702 22.876 32.7502 22.68 32.1342 22.68C30.9162 22.68 30.1742 23.52 30.1742 24.64C30.1742 25.802 30.9162 26.6 32.1342 26.6C32.7502 26.6 33.1702 26.418 33.5622 26.11C33.6882 26.026 33.8142 26.054 33.8982 26.194L34.4162 27.048C34.5002 27.188 34.4722 27.3 34.3742 27.398C33.8422 27.916 33.0022 28.168 32.1062 28.168ZM35.8825 28C35.7145 28 35.6165 27.902 35.6165 27.748V18.816C35.6165 18.676 35.6865 18.592 35.8265 18.536L36.9745 18.144C37.1565 18.074 37.2685 18.172 37.2685 18.354V22.106C37.7305 21.448 38.4865 21.112 39.3825 21.112C40.8105 21.112 42.0285 22.134 42.0285 24.122V27.748C42.0285 27.902 41.9445 28 41.7765 28H40.6425C40.4745 28 40.3765 27.902 40.3765 27.748V24.318C40.3765 23.268 39.7745 22.694 38.8645 22.694C37.9405 22.694 37.2685 23.282 37.2685 24.318V27.748C37.2685 27.902 37.1845 28 37.0165 28H35.8825ZM43.5625 20.804C43.3805 20.86 43.2545 20.776 43.2545 20.594V19.348C43.2545 19.208 43.3245 19.11 43.4645 19.054L44.7245 18.606C44.9065 18.536 45.0185 18.634 45.0185 18.816V20.09C45.0185 20.23 44.9625 20.328 44.8085 20.384L43.5625 20.804ZM43.5625 28C43.4085 28 43.3105 27.902 43.3105 27.748V21.91C43.3105 21.77 43.3805 21.672 43.5205 21.616L44.6685 21.224C44.8505 21.154 44.9625 21.252 44.9625 21.434V27.748C44.9625 27.902 44.8645 28 44.6965 28H43.5625ZM46.5947 28C46.4267 28 46.3287 27.902 46.3287 27.748V21.91C46.3287 21.77 46.3987 21.672 46.5387 21.616L47.6867 21.224C47.8687 21.154 47.9807 21.252 47.9807 21.434V22.106C48.4567 21.434 49.1987 21.112 50.0807 21.112C51.5087 21.112 52.7407 22.134 52.7407 24.122V27.748C52.7407 27.902 52.6567 28 52.4887 28H51.3547C51.1867 28 51.0887 27.902 51.0887 27.748V24.318C51.0887 23.268 50.4867 22.694 49.5767 22.694C48.6527 22.694 47.9807 23.282 47.9807 24.318V27.748C47.9807 27.902 47.8967 28 47.7287 28H46.5947ZM57.2567 30.968C56.1227 30.968 55.1847 30.702 54.2607 30.03C54.1347 29.932 54.1067 29.806 54.1907 29.68L54.7087 28.742C54.7927 28.588 54.9327 28.56 55.0727 28.686C55.7727 29.218 56.4867 29.442 57.1727 29.442C58.5167 29.442 59.3007 28.658 59.3007 27.468V27.286C58.9927 27.678 58.1947 28.056 57.2427 28.056C55.0867 28.056 53.8547 26.502 53.8547 24.598C53.8547 22.624 55.3107 21.112 57.3127 21.112C58.1387 21.112 58.9367 21.406 59.3007 22.022V21.938C59.3007 21.784 59.3707 21.686 59.5107 21.63L60.6587 21.224C60.8407 21.154 60.9527 21.238 60.9527 21.42V27.314C60.9527 29.652 59.4687 30.968 57.2567 30.968ZM57.4387 26.516C58.5027 26.516 59.3147 25.816 59.3147 24.584C59.3147 23.352 58.5027 22.638 57.4387 22.638C56.3607 22.638 55.5487 23.352 55.5487 24.584C55.5487 25.802 56.3607 26.516 57.4387 26.516ZM69.2688 18.396C69.4088 18.466 69.4508 18.578 69.4088 18.718L69.1148 19.698C69.0588 19.866 68.9468 19.908 68.7788 19.824C68.5968 19.74 68.4568 19.712 68.2748 19.712C67.7428 19.712 67.5888 20.076 67.5888 20.58V21.28H68.7368C68.9048 21.28 69.0028 21.378 69.0028 21.532V22.512C69.0028 22.68 68.9048 22.764 68.7368 22.764H67.5888V27.748C67.5888 27.902 67.5048 28 67.3368 28H66.2028C66.0348 28 65.9368 27.902 65.9368 27.748V22.764H65.3208C65.1528 22.764 65.0548 22.68 65.0548 22.512V21.532C65.0548 21.378 65.1528 21.28 65.3208 21.28H65.9368V20.328C65.9368 19.194 66.4548 18.116 68.0508 18.116C68.5688 18.116 68.9188 18.214 69.2688 18.396ZM73.2326 28.168C71.1466 28.168 69.6906 26.67 69.6906 24.64C69.6906 22.61 71.1466 21.112 73.2326 21.112C75.3186 21.112 76.7746 22.61 76.7746 24.64C76.7746 26.67 75.3186 28.168 73.2326 28.168ZM73.2326 26.6C74.4086 26.6 75.0666 25.746 75.0666 24.64C75.0666 23.534 74.4086 22.68 73.2326 22.68C72.0566 22.68 71.3986 23.534 71.3986 24.64C71.3986 25.746 72.0566 26.6 73.2326 26.6ZM83.0444 22.232C83.1004 22.386 83.0584 22.512 82.9044 22.568L79.6284 23.912V27.748C79.6284 27.902 79.5444 28 79.3764 28H78.2424C78.0744 28 77.9764 27.902 77.9764 27.748V21.91C77.9764 21.77 78.0464 21.672 78.1864 21.616L79.3344 21.224C79.5164 21.154 79.6284 21.252 79.6284 21.434V22.344L82.3304 21.21C82.4984 21.154 82.6104 21.196 82.6804 21.35L83.0444 22.232ZM90.883 28.168C89.903 28.168 89.105 27.748 88.741 27.286V27.748C88.741 27.902 88.657 28 88.489 28H87.355C87.187 28 87.089 27.902 87.089 27.748V18.844C87.089 18.704 87.159 18.606 87.299 18.55L88.447 18.144C88.629 18.074 88.741 18.158 88.741 18.34V22.008C89.119 21.518 89.917 21.112 90.883 21.112C92.801 21.112 94.201 22.484 94.201 24.64C94.201 26.544 92.983 28.168 90.883 28.168ZM90.617 26.642C91.681 26.642 92.507 25.928 92.507 24.64C92.507 23.324 91.681 22.638 90.617 22.638C89.553 22.638 88.741 23.324 88.741 24.64C88.741 25.942 89.553 26.642 90.617 26.642ZM98.7022 21.112C100.676 21.112 101.852 22.652 101.852 24.304V24.892C101.852 25.06 101.754 25.144 101.586 25.144H96.8542C97.0362 25.998 97.7082 26.656 98.8142 26.656C99.5562 26.656 100.172 26.418 100.704 26.082C100.858 25.998 100.984 26.026 101.054 26.18L101.502 26.992C101.572 27.132 101.558 27.258 101.46 27.328C100.76 27.86 99.9062 28.168 98.8002 28.168C96.5602 28.168 95.2302 26.684 95.2302 24.682C95.2302 22.512 96.7842 21.112 98.7022 21.112ZM96.8962 23.926H100.298C100.2 23.226 99.6822 22.624 98.7022 22.624C97.7922 22.624 97.1202 23.114 96.8962 23.926ZM107.013 27.566C107.055 27.706 107.027 27.818 106.887 27.888C106.523 28.07 106.187 28.168 105.669 28.168C104.115 28.168 103.555 27.16 103.555 25.956V22.764H102.813C102.645 22.764 102.561 22.666 102.561 22.498V21.532C102.561 21.378 102.645 21.28 102.813 21.28H103.555V20.37C103.555 20.23 103.611 20.132 103.751 20.076L104.899 19.656C105.081 19.586 105.207 19.684 105.207 19.866V21.28H106.369C106.537 21.28 106.621 21.378 106.621 21.532V22.498C106.621 22.666 106.537 22.764 106.369 22.764H105.207V25.704C105.207 26.208 105.347 26.572 105.893 26.572C106.061 26.572 106.201 26.53 106.383 26.46C106.551 26.376 106.663 26.418 106.719 26.6L107.013 27.566ZM111.822 27.566C111.864 27.706 111.836 27.818 111.696 27.888C111.332 28.07 110.996 28.168 110.478 28.168C108.924 28.168 108.364 27.16 108.364 25.956V22.764H107.622C107.454 22.764 107.37 22.666 107.37 22.498V21.532C107.37 21.378 107.454 21.28 107.622 21.28H108.364V20.37C108.364 20.23 108.42 20.132 108.56 20.076L109.708 19.656C109.89 19.586 110.016 19.684 110.016 19.866V21.28H111.178C111.346 21.28 111.43 21.378 111.43 21.532V22.498C111.43 22.666 111.346 22.764 111.178 22.764H110.016V25.704C110.016 26.208 110.156 26.572 110.702 26.572C110.87 26.572 111.01 26.53 111.192 26.46C111.36 26.376 111.472 26.418 111.528 26.6L111.822 27.566ZM115.96 21.112C117.934 21.112 119.11 22.652 119.11 24.304V24.892C119.11 25.06 119.012 25.144 118.844 25.144H114.112C114.294 25.998 114.966 26.656 116.072 26.656C116.814 26.656 117.43 26.418 117.962 26.082C118.116 25.998 118.242 26.026 118.312 26.18L118.76 26.992C118.83 27.132 118.816 27.258 118.718 27.328C118.018 27.86 117.164 28.168 116.058 28.168C113.818 28.168 112.488 26.684 112.488 24.682C112.488 22.512 114.042 21.112 115.96 21.112ZM114.154 23.926H117.556C117.458 23.226 116.94 22.624 115.96 22.624C115.05 22.624 114.378 23.114 114.154 23.926ZM125.377 22.232C125.433 22.386 125.391 22.512 125.237 22.568L121.961 23.912V27.748C121.961 27.902 121.877 28 121.709 28H120.575C120.407 28 120.309 27.902 120.309 27.748V21.91C120.309 21.77 120.379 21.672 120.519 21.616L121.667 21.224C121.849 21.154 121.961 21.252 121.961 21.434V22.344L124.663 21.21C124.831 21.154 124.943 21.196 125.013 21.35L125.377 22.232ZM125.245 28C125.077 28 124.993 27.902 124.993 27.748V26.488C124.993 26.32 125.077 26.222 125.245 26.222H126.505C126.673 26.222 126.757 26.32 126.757 26.488V27.748C126.757 27.902 126.673 28 126.505 28H125.245Z" fill="#FF1243"/>
</g>
<defs>
<clipPath id="clip0_15_131">
<rect width="128" height="16" fill="white"/>
</clipPath>
</defs>
</svg>
