<svg width="231" height="20" viewBox="0 0 231 20" fill="none" xmlns="http://www.w3.org/2000/svg">
<g clip-path="url(#clip0_13_128)">
<path d="M4.626 15C4.482 15 4.374 14.946 4.32 14.784L0.558 2.706C0.504 2.508 0.594 2.4 0.792 2.4H1.998C2.142 2.4 2.268 2.49 2.304 2.634L5.238 12.462L8.172 2.634C8.208 2.49 8.334 2.4 8.478 2.4H9.846C9.99 2.4 10.116 2.49 10.152 2.634L13.086 12.462L16.02 2.634C16.056 2.49 16.182 2.4 16.326 2.4H17.532C17.73 2.4 17.82 2.508 17.766 2.706L14.004 14.784C13.95 14.946 13.842 15 13.698 15H12.474C12.33 15 12.204 14.91 12.168 14.766L9.162 4.866L6.156 14.766C6.12 14.91 5.994 15 5.85 15H4.626ZM22.0728 6.144C24.5388 6.144 26.0508 8.088 26.0508 10.248V10.914C26.0508 11.076 25.9428 11.184 25.7808 11.184H19.2828C19.4808 12.588 20.4708 13.704 22.2168 13.704C23.1888 13.704 24.0528 13.362 24.9348 12.714C25.0968 12.606 25.2228 12.624 25.3128 12.768L25.8168 13.524C25.9068 13.65 25.8888 13.794 25.7628 13.902C24.7908 14.766 23.4768 15.216 22.1988 15.216C19.3548 15.216 17.6628 13.326 17.6628 10.734C17.6628 7.89 19.6428 6.144 22.0728 6.144ZM19.3368 9.78H24.4128C24.3408 8.664 23.5488 7.656 22.0548 7.656C20.6508 7.656 19.6428 8.466 19.3368 9.78ZM31.976 15C31.814 15 31.706 14.892 31.706 14.73V3.012C31.706 2.868 31.778 2.76 31.922 2.706L32.948 2.328C33.128 2.256 33.254 2.346 33.254 2.544V14.73C33.254 14.892 33.146 15 32.984 15H31.976ZM39.393 15.216C36.801 15.216 34.947 13.29 34.947 10.68C34.947 8.07 36.801 6.144 39.393 6.144C41.985 6.144 43.821 8.07 43.821 10.68C43.821 13.29 41.985 15.216 39.393 15.216ZM39.393 13.704C41.157 13.704 42.237 12.372 42.237 10.68C42.237 8.988 41.157 7.656 39.393 7.656C37.611 7.656 36.531 8.988 36.531 10.68C36.531 12.372 37.611 13.704 39.393 13.704ZM49.672 15.216C47.08 15.216 45.226 13.29 45.226 10.68C45.226 8.07 47.08 6.144 49.672 6.144C52.264 6.144 54.1 8.07 54.1 10.68C54.1 13.29 52.264 15.216 49.672 15.216ZM49.672 13.704C51.436 13.704 52.516 12.372 52.516 10.68C52.516 8.988 51.436 7.656 49.672 7.656C47.89 7.656 46.81 8.988 46.81 10.68C46.81 12.372 47.89 13.704 49.672 13.704ZM62.561 14.676C62.705 14.838 62.651 15 62.417 15H61.085C60.959 15 60.851 14.964 60.761 14.856L57.341 11.13V14.73C57.341 14.892 57.233 15 57.071 15H56.063C55.901 15 55.793 14.892 55.793 14.73V3.012C55.793 2.868 55.865 2.76 56.009 2.706L57.035 2.328C57.215 2.256 57.341 2.346 57.341 2.544V9.69L60.545 6.504C60.653 6.396 60.761 6.36 60.887 6.36H62.219C62.453 6.36 62.525 6.522 62.363 6.684L58.691 10.356L62.561 14.676ZM72.0007 2.58C72.1627 2.67 72.2167 2.778 72.1627 2.922L71.8567 3.804C71.8027 3.966 71.6767 4.02 71.4967 3.93C71.2807 3.84 71.1547 3.84 70.9747 3.84C70.2007 3.84 69.9307 4.38 69.9307 5.118V6.36H71.4067C71.5687 6.36 71.6767 6.468 71.6767 6.63V7.494C71.6767 7.656 71.5687 7.764 71.4067 7.764H69.9307V14.73C69.9307 14.892 69.8227 15 69.6607 15H68.6527C68.4907 15 68.3827 14.892 68.3827 14.73V7.764H67.6267C67.4647 7.764 67.3567 7.656 67.3567 7.494V6.63C67.3567 6.468 67.4647 6.36 67.6267 6.36H68.3827V5.136C68.3827 3.912 68.6707 2.292 70.7947 2.292C71.2267 2.292 71.6407 2.382 72.0007 2.58ZM77.1121 15.216C74.5201 15.216 72.6661 13.29 72.6661 10.68C72.6661 8.07 74.5201 6.144 77.1121 6.144C79.7041 6.144 81.5401 8.07 81.5401 10.68C81.5401 13.29 79.7041 15.216 77.1121 15.216ZM77.1121 13.704C78.8761 13.704 79.9561 12.372 79.9561 10.68C79.9561 8.988 78.8761 7.656 77.1121 7.656C75.3301 7.656 74.2501 8.988 74.2501 10.68C74.2501 12.372 75.3301 13.704 77.1121 13.704ZM89.0651 7.188C89.1191 7.35 89.0651 7.476 88.9031 7.548L84.7811 9.258V14.73C84.7811 14.892 84.6731 15 84.5111 15H83.5031C83.3411 15 83.2331 14.892 83.2331 14.73V6.972C83.2331 6.828 83.3051 6.72 83.4491 6.666L84.4751 6.288C84.6551 6.216 84.7811 6.306 84.7811 6.504V7.746L88.3811 6.252C88.5431 6.18 88.6691 6.234 88.7411 6.396L89.0651 7.188ZM92.7224 15C92.5784 15 92.4704 14.946 92.4164 14.784L89.7884 6.666C89.7344 6.486 89.8064 6.36 90.0044 6.36H91.0304C91.1744 6.36 91.3004 6.432 91.3364 6.576L93.1904 12.606L94.9904 6.594C95.0264 6.45 95.1524 6.36 95.2964 6.36H96.3224C96.4664 6.36 96.5924 6.45 96.6284 6.594L98.4284 12.606L100.282 6.576C100.318 6.432 100.444 6.36 100.588 6.36H101.578C101.776 6.36 101.866 6.468 101.812 6.666L99.2024 14.784C99.1484 14.946 99.0404 15 98.8964 15H97.9604C97.8164 15 97.6904 14.928 97.6544 14.784L95.8184 8.79L93.9644 14.784C93.9284 14.928 93.8024 15 93.6584 15H92.7224ZM106.891 15.216C104.155 15.216 102.571 13.128 102.571 10.662C102.571 7.908 104.623 6.144 106.981 6.144C108.169 6.144 109.267 6.594 109.825 7.35V6.972C109.825 6.828 109.897 6.72 110.041 6.666L111.067 6.288C111.247 6.216 111.373 6.288 111.373 6.486V14.73C111.373 14.892 111.265 15 111.103 15H110.095C109.933 15 109.825 14.892 109.825 14.73V14.028C109.321 14.658 108.133 15.216 106.891 15.216ZM106.999 13.686C108.601 13.686 109.843 12.66 109.843 10.662C109.843 8.682 108.601 7.656 106.999 7.656C105.469 7.656 104.155 8.682 104.155 10.662C104.155 12.642 105.469 13.686 106.999 13.686ZM119.181 7.188C119.235 7.35 119.181 7.476 119.019 7.548L114.897 9.258V14.73C114.897 14.892 114.789 15 114.627 15H113.619C113.457 15 113.349 14.892 113.349 14.73V6.972C113.349 6.828 113.421 6.72 113.565 6.666L114.591 6.288C114.771 6.216 114.897 6.306 114.897 6.504V7.746L118.497 6.252C118.659 6.18 118.785 6.234 118.857 6.396L119.181 7.188ZM123.987 15.216C121.251 15.216 119.667 13.128 119.667 10.662C119.667 7.908 121.719 6.144 124.077 6.144C125.265 6.144 126.363 6.594 126.921 7.35V2.994C126.921 2.85 126.993 2.742 127.137 2.688L128.163 2.31C128.343 2.238 128.469 2.31 128.469 2.508V14.73C128.469 14.892 128.361 15 128.199 15H127.191C127.029 15 126.921 14.892 126.921 14.73V14.028C126.417 14.658 125.229 15.216 123.987 15.216ZM124.095 13.686C125.697 13.686 126.939 12.66 126.939 10.662C126.939 8.682 125.697 7.656 124.095 7.656C122.565 7.656 121.251 8.682 121.251 10.662C121.251 12.642 122.565 13.686 124.095 13.686ZM138.859 14.586C138.913 14.73 138.859 14.874 138.679 14.964C138.283 15.144 137.941 15.216 137.563 15.216C135.565 15.216 135.097 13.92 135.097 12.372V7.764H133.963C133.801 7.764 133.693 7.656 133.693 7.494V6.63C133.693 6.468 133.801 6.36 133.963 6.36H135.097V4.992C135.097 4.848 135.169 4.74 135.313 4.686L136.339 4.308C136.519 4.236 136.645 4.326 136.645 4.524V6.36H138.193C138.355 6.36 138.463 6.468 138.463 6.63V7.494C138.463 7.656 138.355 7.764 138.193 7.764H136.645V12.39C136.645 13.128 136.915 13.668 137.689 13.668C137.851 13.668 138.013 13.632 138.211 13.56C138.391 13.506 138.517 13.542 138.571 13.722L138.859 14.586ZM144.192 15.216C141.6 15.216 139.746 13.29 139.746 10.68C139.746 8.07 141.6 6.144 144.192 6.144C146.784 6.144 148.62 8.07 148.62 10.68C148.62 13.29 146.784 15.216 144.192 15.216ZM144.192 13.704C145.956 13.704 147.036 12.372 147.036 10.68C147.036 8.988 145.956 7.656 144.192 7.656C142.41 7.656 141.33 8.988 141.33 10.68C141.33 12.372 142.41 13.704 144.192 13.704ZM158.727 14.586C158.781 14.73 158.727 14.874 158.547 14.964C158.151 15.144 157.809 15.216 157.431 15.216C155.433 15.216 154.965 13.92 154.965 12.372V7.764H153.831C153.669 7.764 153.561 7.656 153.561 7.494V6.63C153.561 6.468 153.669 6.36 153.831 6.36H154.965V4.992C154.965 4.848 155.037 4.74 155.181 4.686L156.207 4.308C156.387 4.236 156.513 4.326 156.513 4.524V6.36H158.061C158.223 6.36 158.331 6.468 158.331 6.63V7.494C158.331 7.656 158.223 7.764 158.061 7.764H156.513V12.39C156.513 13.128 156.783 13.668 157.557 13.668C157.719 13.668 157.881 13.632 158.079 13.56C158.259 13.506 158.385 13.542 158.439 13.722L158.727 14.586ZM163.934 15.216C161.198 15.216 159.614 13.128 159.614 10.662C159.614 7.908 161.666 6.144 164.024 6.144C165.212 6.144 166.31 6.594 166.868 7.35V6.972C166.868 6.828 166.94 6.72 167.084 6.666L168.11 6.288C168.29 6.216 168.416 6.288 168.416 6.486V14.73C168.416 14.892 168.308 15 168.146 15H167.138C166.976 15 166.868 14.892 166.868 14.73V14.028C166.364 14.658 165.176 15.216 163.934 15.216ZM164.042 13.686C165.644 13.686 166.886 12.66 166.886 10.662C166.886 8.682 165.644 7.656 164.042 7.656C162.512 7.656 161.198 8.682 161.198 10.662C161.198 12.642 162.512 13.686 164.042 13.686ZM174.568 15.216C171.994 15.216 170.104 13.29 170.104 10.68C170.104 8.07 171.994 6.144 174.568 6.144C175.72 6.144 176.656 6.45 177.34 6.954C177.484 7.062 177.484 7.188 177.412 7.332L176.944 8.142C176.854 8.304 176.728 8.34 176.584 8.25C176.188 7.998 175.648 7.656 174.676 7.656C172.786 7.656 171.688 8.988 171.688 10.68C171.688 12.372 172.786 13.704 174.676 13.704C175.63 13.704 176.188 13.398 176.62 13.128C176.764 13.056 176.89 13.092 176.98 13.236L177.412 14.028C177.484 14.172 177.502 14.28 177.448 14.334C176.908 14.766 175.828 15.216 174.568 15.216ZM185.945 14.676C186.089 14.838 186.035 15 185.801 15H184.469C184.343 15 184.235 14.964 184.145 14.856L180.725 11.13V14.73C180.725 14.892 180.617 15 180.455 15H179.447C179.285 15 179.177 14.892 179.177 14.73V3.012C179.177 2.868 179.249 2.76 179.393 2.706L180.419 2.328C180.599 2.256 180.725 2.346 180.725 2.544V9.69L183.929 6.504C184.037 6.396 184.145 6.36 184.271 6.36H185.603C185.837 6.36 185.909 6.522 185.747 6.684L182.075 10.356L185.945 14.676ZM187.546 15C187.384 15 187.276 14.892 187.276 14.73V3.012C187.276 2.868 187.348 2.76 187.492 2.706L188.518 2.328C188.698 2.256 188.824 2.346 188.824 2.544V14.73C188.824 14.892 188.716 15 188.554 15H187.546ZM191.057 5.37C190.877 5.424 190.751 5.352 190.751 5.154V3.876C190.751 3.732 190.823 3.624 190.967 3.57L192.101 3.138C192.281 3.066 192.407 3.156 192.407 3.354V4.686C192.407 4.83 192.335 4.938 192.191 4.992L191.057 5.37ZM191.075 15C190.913 15 190.805 14.892 190.805 14.73V6.972C190.805 6.828 190.877 6.72 191.021 6.666L192.047 6.288C192.227 6.216 192.353 6.306 192.353 6.504V14.73C192.353 14.892 192.245 15 192.083 15H191.075ZM194.604 15C194.442 15 194.334 14.892 194.334 14.73V6.972C194.334 6.828 194.406 6.72 194.55 6.666L195.576 6.288C195.756 6.216 195.882 6.306 195.882 6.504V7.422C196.548 6.45 197.574 6.144 198.51 6.144C200.454 6.144 202.002 7.458 202.002 10.014V14.73C202.002 14.892 201.894 15 201.732 15H200.724C200.562 15 200.454 14.892 200.454 14.73V10.068C200.454 8.52 199.554 7.674 198.222 7.674C196.872 7.674 195.882 8.538 195.882 10.068V14.73C195.882 14.892 195.774 15 195.612 15H194.604ZM207.853 18.816C206.575 18.816 205.297 18.51 204.055 17.574C203.929 17.466 203.911 17.34 203.983 17.196L204.505 16.296C204.595 16.134 204.721 16.116 204.883 16.224C205.729 16.872 206.773 17.304 207.871 17.304C209.797 17.304 210.841 16.08 210.841 14.136V14.028C210.373 14.604 209.275 15.216 207.853 15.216C205.207 15.216 203.587 13.128 203.587 10.68C203.587 7.908 205.639 6.144 207.997 6.144C209.185 6.144 210.283 6.594 210.841 7.35V6.972C210.841 6.828 210.913 6.72 211.057 6.666L212.083 6.288C212.263 6.216 212.389 6.288 212.389 6.486V13.812C212.389 17.304 210.625 18.816 207.853 18.816ZM208.033 13.686C209.599 13.686 210.859 12.66 210.859 10.662C210.859 8.682 209.599 7.656 208.033 7.656C206.467 7.656 205.171 8.682 205.171 10.662C205.171 12.642 206.467 13.686 208.033 13.686ZM5.202 26.144C7.668 26.144 9.18 28.088 9.18 30.248V30.914C9.18 31.076 9.072 31.184 8.91 31.184H2.412C2.61 32.588 3.6 33.704 5.346 33.704C6.318 33.704 7.182 33.362 8.064 32.714C8.226 32.606 8.352 32.624 8.442 32.768L8.946 33.524C9.036 33.65 9.018 33.794 8.892 33.902C7.92 34.766 6.606 35.216 5.328 35.216C2.484 35.216 0.792 33.326 0.792 30.734C0.792 27.89 2.772 26.144 5.202 26.144ZM2.466 29.78H7.542C7.47 28.664 6.678 27.656 5.184 27.656C3.78 27.656 2.772 28.466 2.466 29.78ZM11.1368 35C10.9748 35 10.8668 34.892 10.8668 34.73V26.972C10.8668 26.828 10.9388 26.72 11.0828 26.666L12.1088 26.288C12.2888 26.216 12.4148 26.306 12.4148 26.504V27.422C13.0808 26.45 14.1068 26.144 15.0428 26.144C16.9868 26.144 18.5348 27.458 18.5348 30.014V34.73C18.5348 34.892 18.4268 35 18.2648 35H17.2568C17.0948 35 16.9868 34.892 16.9868 34.73V30.068C16.9868 28.52 16.0868 27.674 14.7548 27.674C13.4048 27.674 12.4148 28.538 12.4148 30.068V34.73C12.4148 34.892 12.3068 35 12.1448 35H11.1368ZM24.5295 26.144C26.9955 26.144 28.5075 28.088 28.5075 30.248V30.914C28.5075 31.076 28.3995 31.184 28.2375 31.184H21.7395C21.9375 32.588 22.9275 33.704 24.6735 33.704C25.6455 33.704 26.5095 33.362 27.3915 32.714C27.5535 32.606 27.6795 32.624 27.7695 32.768L28.2735 33.524C28.3635 33.65 28.3455 33.794 28.2195 33.902C27.2475 34.766 25.9335 35.216 24.6555 35.216C21.8115 35.216 20.1195 33.326 20.1195 30.734C20.1195 27.89 22.0995 26.144 24.5295 26.144ZM21.7935 29.78H26.8695C26.7975 28.664 26.0055 27.656 24.5115 27.656C23.1075 27.656 22.0995 28.466 21.7935 29.78ZM36.0263 27.188C36.0803 27.35 36.0263 27.476 35.8643 27.548L31.7423 29.258V34.73C31.7423 34.892 31.6343 35 31.4723 35H30.4643C30.3023 35 30.1943 34.892 30.1943 34.73V26.972C30.1943 26.828 30.2663 26.72 30.4103 26.666L31.4363 26.288C31.6163 26.216 31.7423 26.306 31.7423 26.504V27.746L35.3423 26.252C35.5043 26.18 35.6303 26.234 35.7023 26.396L36.0263 27.188ZM40.7775 38.816C39.4995 38.816 38.2215 38.51 36.9795 37.574C36.8535 37.466 36.8355 37.34 36.9075 37.196L37.4295 36.296C37.5195 36.134 37.6455 36.116 37.8075 36.224C38.6535 36.872 39.6975 37.304 40.7955 37.304C42.7215 37.304 43.7655 36.08 43.7655 34.136V34.028C43.2975 34.604 42.1995 35.216 40.7775 35.216C38.1315 35.216 36.5115 33.128 36.5115 30.68C36.5115 27.908 38.5635 26.144 40.9215 26.144C42.1095 26.144 43.2075 26.594 43.7655 27.35V26.972C43.7655 26.828 43.8375 26.72 43.9815 26.666L45.0075 26.288C45.1875 26.216 45.3135 26.288 45.3135 26.486V33.812C45.3135 37.304 43.5495 38.816 40.7775 38.816ZM40.9575 33.686C42.5235 33.686 43.7835 32.66 43.7835 30.662C43.7835 28.682 42.5235 27.656 40.9575 27.656C39.3915 27.656 38.0955 28.682 38.0955 30.662C38.0955 32.642 39.3915 33.686 40.9575 33.686ZM54.6334 26.36C54.8314 26.36 54.9214 26.486 54.8494 26.666L49.8274 38.402C49.7734 38.546 49.6654 38.6 49.5214 38.6H48.3874C48.1894 38.6 48.0994 38.474 48.1714 38.294L49.8994 34.244L46.6594 26.666C46.5874 26.486 46.6774 26.36 46.8754 26.36H48.0274C48.1714 26.36 48.2974 26.432 48.3514 26.576L50.7454 32.264L53.1574 26.576C53.2114 26.432 53.3194 26.36 53.4634 26.36H54.6334ZM64.3417 35.216C61.7677 35.216 59.8777 33.29 59.8777 30.68C59.8777 28.07 61.7677 26.144 64.3417 26.144C65.4937 26.144 66.4297 26.45 67.1137 26.954C67.2577 27.062 67.2577 27.188 67.1857 27.332L66.7177 28.142C66.6277 28.304 66.5017 28.34 66.3577 28.25C65.9617 27.998 65.4217 27.656 64.4497 27.656C62.5597 27.656 61.4617 28.988 61.4617 30.68C61.4617 32.372 62.5597 33.704 64.4497 33.704C65.4037 33.704 65.9617 33.398 66.3937 33.128C66.5377 33.056 66.6637 33.092 66.7537 33.236L67.1857 34.028C67.2577 34.172 67.2757 34.28 67.2217 34.334C66.6817 34.766 65.6017 35.216 64.3417 35.216ZM69.2205 35C69.0585 35 68.9505 34.892 68.9505 34.73V23.012C68.9505 22.868 69.0225 22.76 69.1665 22.706L70.1925 22.328C70.3725 22.256 70.4985 22.346 70.4985 22.544V27.422C71.1105 26.522 72.2265 26.144 73.1985 26.144C75.1065 26.144 76.6185 27.458 76.6185 30.014V34.73C76.6185 34.892 76.5105 35 76.3485 35H75.3405C75.1785 35 75.0705 34.892 75.0705 34.73V30.068C75.0705 28.52 74.1705 27.674 72.8385 27.674C71.4885 27.674 70.4985 28.538 70.4985 30.068V34.73C70.4985 34.892 70.3905 35 70.2285 35H69.2205ZM82.5232 35.216C79.7872 35.216 78.2032 33.128 78.2032 30.662C78.2032 27.908 80.2552 26.144 82.6132 26.144C83.8012 26.144 84.8992 26.594 85.4572 27.35V26.972C85.4572 26.828 85.5292 26.72 85.6732 26.666L86.6992 26.288C86.8792 26.216 87.0052 26.288 87.0052 26.486V34.73C87.0052 34.892 86.8972 35 86.7352 35H85.7272C85.5652 35 85.4572 34.892 85.4572 34.73V34.028C84.9532 34.658 83.7652 35.216 82.5232 35.216ZM82.6312 33.686C84.2332 33.686 85.4752 32.66 85.4752 30.662C85.4752 28.682 84.2332 27.656 82.6312 27.656C81.1012 27.656 79.7872 28.682 79.7872 30.662C79.7872 32.642 81.1012 33.686 82.6312 33.686ZM89.2512 35C89.0892 35 88.9812 34.892 88.9812 34.73V23.012C88.9812 22.868 89.0532 22.76 89.1972 22.706L90.2232 22.328C90.4032 22.256 90.5292 22.346 90.5292 22.544V34.73C90.5292 34.892 90.4212 35 90.2592 35H89.2512ZM92.7802 35C92.6182 35 92.5102 34.892 92.5102 34.73V23.012C92.5102 22.868 92.5822 22.76 92.7262 22.706L93.7522 22.328C93.9322 22.256 94.0582 22.346 94.0582 22.544V34.73C94.0582 34.892 93.9502 35 93.7882 35H92.7802ZM100.161 26.144C102.627 26.144 104.139 28.088 104.139 30.248V30.914C104.139 31.076 104.031 31.184 103.869 31.184H97.3711C97.5691 32.588 98.5591 33.704 100.305 33.704C101.277 33.704 102.141 33.362 103.023 32.714C103.185 32.606 103.311 32.624 103.401 32.768L103.905 33.524C103.995 33.65 103.977 33.794 103.851 33.902C102.879 34.766 101.565 35.216 100.287 35.216C97.4431 35.216 95.7511 33.326 95.7511 30.734C95.7511 27.89 97.7311 26.144 100.161 26.144ZM97.4251 29.78H102.501C102.429 28.664 101.637 27.656 100.143 27.656C98.7391 27.656 97.7311 28.466 97.4251 29.78ZM106.096 35C105.934 35 105.826 34.892 105.826 34.73V26.972C105.826 26.828 105.898 26.72 106.042 26.666L107.068 26.288C107.248 26.216 107.374 26.306 107.374 26.504V27.422C108.04 26.45 109.066 26.144 110.002 26.144C111.946 26.144 113.494 27.458 113.494 30.014V34.73C113.494 34.892 113.386 35 113.224 35H112.216C112.054 35 111.946 34.892 111.946 34.73V30.068C111.946 28.52 111.046 27.674 109.714 27.674C108.364 27.674 107.374 28.538 107.374 30.068V34.73C107.374 34.892 107.266 35 107.104 35H106.096ZM119.345 38.816C118.067 38.816 116.789 38.51 115.547 37.574C115.421 37.466 115.403 37.34 115.475 37.196L115.997 36.296C116.087 36.134 116.213 36.116 116.375 36.224C117.221 36.872 118.265 37.304 119.363 37.304C121.289 37.304 122.333 36.08 122.333 34.136V34.028C121.865 34.604 120.767 35.216 119.345 35.216C116.699 35.216 115.079 33.128 115.079 30.68C115.079 27.908 117.131 26.144 119.489 26.144C120.677 26.144 121.775 26.594 122.333 27.35V26.972C122.333 26.828 122.405 26.72 122.549 26.666L123.575 26.288C123.755 26.216 123.881 26.288 123.881 26.486V33.812C123.881 37.304 122.117 38.816 119.345 38.816ZM119.525 33.686C121.091 33.686 122.351 32.66 122.351 30.662C122.351 28.682 121.091 27.656 119.525 27.656C117.959 27.656 116.663 28.682 116.663 30.662C116.663 32.642 117.959 33.686 119.525 33.686ZM129.979 26.144C132.445 26.144 133.957 28.088 133.957 30.248V30.914C133.957 31.076 133.849 31.184 133.687 31.184H127.189C127.387 32.588 128.377 33.704 130.123 33.704C131.095 33.704 131.959 33.362 132.841 32.714C133.003 32.606 133.129 32.624 133.219 32.768L133.723 33.524C133.813 33.65 133.795 33.794 133.669 33.902C132.697 34.766 131.383 35.216 130.105 35.216C127.261 35.216 125.569 33.326 125.569 30.734C125.569 27.89 127.549 26.144 129.979 26.144ZM127.243 29.78H132.319C132.247 28.664 131.455 27.656 129.961 27.656C128.557 27.656 127.549 28.466 127.243 29.78ZM138.667 35.216C137.389 35.216 136.093 34.802 135.319 33.902C135.211 33.794 135.229 33.65 135.319 33.524L135.895 32.786C136.003 32.642 136.129 32.642 136.273 32.75C136.813 33.218 137.533 33.704 138.703 33.704C139.819 33.704 140.431 33.344 140.431 32.642C140.431 31.922 139.801 31.634 138.631 31.346C137.173 30.986 135.571 30.554 135.571 28.79C135.571 27.242 136.795 26.144 138.721 26.144C139.963 26.144 140.845 26.576 141.421 27.044C141.547 27.17 141.547 27.278 141.439 27.422L140.863 28.142C140.755 28.268 140.629 28.304 140.485 28.196C140.071 27.908 139.495 27.656 138.757 27.656C137.875 27.656 137.119 27.998 137.119 28.7C137.119 29.348 137.767 29.6 138.991 29.888C140.773 30.302 141.943 30.968 141.943 32.534C141.943 34.73 139.981 35.216 138.667 35.216ZM151.981 34.586C152.035 34.73 151.981 34.874 151.801 34.964C151.405 35.144 151.063 35.216 150.685 35.216C148.687 35.216 148.219 33.92 148.219 32.372V27.764H147.085C146.923 27.764 146.815 27.656 146.815 27.494V26.63C146.815 26.468 146.923 26.36 147.085 26.36H148.219V24.992C148.219 24.848 148.291 24.74 148.435 24.686L149.461 24.308C149.641 24.236 149.767 24.326 149.767 24.524V26.36H151.315C151.477 26.36 151.585 26.468 151.585 26.63V27.494C151.585 27.656 151.477 27.764 151.315 27.764H149.767V32.39C149.767 33.128 150.037 33.668 150.811 33.668C150.973 33.668 151.135 33.632 151.333 33.56C151.513 33.506 151.639 33.542 151.693 33.722L151.981 34.586ZM157.314 35.216C154.722 35.216 152.868 33.29 152.868 30.68C152.868 28.07 154.722 26.144 157.314 26.144C159.906 26.144 161.742 28.07 161.742 30.68C161.742 33.29 159.906 35.216 157.314 35.216ZM157.314 33.704C159.078 33.704 160.158 32.372 160.158 30.68C160.158 28.988 159.078 27.656 157.314 27.656C155.532 27.656 154.452 28.988 154.452 30.68C154.452 32.372 155.532 33.704 157.314 33.704ZM167.413 38.816C166.135 38.816 164.857 38.51 163.615 37.574C163.489 37.466 163.471 37.34 163.543 37.196L164.065 36.296C164.155 36.134 164.281 36.116 164.443 36.224C165.289 36.872 166.333 37.304 167.431 37.304C169.357 37.304 170.401 36.08 170.401 34.136V34.028C169.933 34.604 168.835 35.216 167.413 35.216C164.767 35.216 163.147 33.128 163.147 30.68C163.147 27.908 165.199 26.144 167.557 26.144C168.745 26.144 169.843 26.594 170.401 27.35V26.972C170.401 26.828 170.473 26.72 170.617 26.666L171.643 26.288C171.823 26.216 171.949 26.288 171.949 26.486V33.812C171.949 37.304 170.185 38.816 167.413 38.816ZM167.593 33.686C169.159 33.686 170.419 32.66 170.419 30.662C170.419 28.682 169.159 27.656 167.593 27.656C166.027 27.656 164.731 28.682 164.731 30.662C164.731 32.642 166.027 33.686 167.593 33.686ZM178.047 26.144C180.513 26.144 182.025 28.088 182.025 30.248V30.914C182.025 31.076 181.917 31.184 181.755 31.184H175.257C175.455 32.588 176.445 33.704 178.191 33.704C179.163 33.704 180.027 33.362 180.909 32.714C181.071 32.606 181.197 32.624 181.287 32.768L181.791 33.524C181.881 33.65 181.863 33.794 181.737 33.902C180.765 34.766 179.451 35.216 178.173 35.216C175.329 35.216 173.637 33.326 173.637 30.734C173.637 27.89 175.617 26.144 178.047 26.144ZM175.311 29.78H180.387C180.315 28.664 179.523 27.656 178.029 27.656C176.625 27.656 175.617 28.466 175.311 29.78ZM188.017 34.586C188.071 34.73 188.017 34.874 187.837 34.964C187.441 35.144 187.099 35.216 186.721 35.216C184.723 35.216 184.255 33.92 184.255 32.372V27.764H183.121C182.959 27.764 182.851 27.656 182.851 27.494V26.63C182.851 26.468 182.959 26.36 183.121 26.36H184.255V24.992C184.255 24.848 184.327 24.74 184.471 24.686L185.497 24.308C185.677 24.236 185.803 24.326 185.803 24.524V26.36H187.351C187.513 26.36 187.621 26.468 187.621 26.63V27.494C187.621 27.656 187.513 27.764 187.351 27.764H185.803V32.39C185.803 33.128 186.073 33.668 186.847 33.668C187.009 33.668 187.171 33.632 187.369 33.56C187.549 33.506 187.675 33.542 187.729 33.722L188.017 34.586ZM189.778 35C189.616 35 189.508 34.892 189.508 34.73V23.012C189.508 22.868 189.58 22.76 189.724 22.706L190.75 22.328C190.93 22.256 191.056 22.346 191.056 22.544V27.422C191.668 26.522 192.784 26.144 193.756 26.144C195.664 26.144 197.176 27.458 197.176 30.014V34.73C197.176 34.892 197.068 35 196.906 35H195.898C195.736 35 195.628 34.892 195.628 34.73V30.068C195.628 28.52 194.728 27.674 193.396 27.674C192.046 27.674 191.056 28.538 191.056 30.068V34.73C191.056 34.892 190.948 35 190.786 35H189.778ZM203.171 26.144C205.637 26.144 207.149 28.088 207.149 30.248V30.914C207.149 31.076 207.041 31.184 206.879 31.184H200.381C200.579 32.588 201.569 33.704 203.315 33.704C204.287 33.704 205.151 33.362 206.033 32.714C206.195 32.606 206.321 32.624 206.411 32.768L206.915 33.524C207.005 33.65 206.987 33.794 206.861 33.902C205.889 34.766 204.575 35.216 203.297 35.216C200.453 35.216 198.761 33.326 198.761 30.734C198.761 27.89 200.741 26.144 203.171 26.144ZM200.435 29.78H205.511C205.439 28.664 204.647 27.656 203.153 27.656C201.749 27.656 200.741 28.466 200.435 29.78ZM214.668 27.188C214.722 27.35 214.668 27.476 214.506 27.548L210.384 29.258V34.73C210.384 34.892 210.276 35 210.114 35H209.106C208.944 35 208.836 34.892 208.836 34.73V26.972C208.836 26.828 208.908 26.72 209.052 26.666L210.078 26.288C210.258 26.216 210.384 26.306 210.384 26.504V27.746L213.984 26.252C214.146 26.18 214.272 26.234 214.344 26.396L214.668 27.188ZM5.112 57.216C2.376 57.216 0.792 55.128 0.792 52.662C0.792 49.908 2.844 48.144 5.202 48.144C6.39 48.144 7.488 48.594 8.046 49.35V48.972C8.046 48.828 8.118 48.72 8.262 48.666L9.288 48.288C9.468 48.216 9.594 48.288 9.594 48.486V56.73C9.594 56.892 9.486 57 9.324 57H8.316C8.154 57 8.046 56.892 8.046 56.73V56.028C7.542 56.658 6.354 57.216 5.112 57.216ZM5.22 55.686C6.822 55.686 8.064 54.66 8.064 52.662C8.064 50.682 6.822 49.656 5.22 49.656C3.69 49.656 2.376 50.682 2.376 52.662C2.376 54.642 3.69 55.686 5.22 55.686ZM16.0159 56.586C16.0699 56.73 16.0159 56.874 15.8359 56.964C15.4399 57.144 15.0979 57.216 14.7199 57.216C12.7219 57.216 12.2539 55.92 12.2539 54.372V49.764H11.1199C10.9579 49.764 10.8499 49.656 10.8499 49.494V48.63C10.8499 48.468 10.9579 48.36 11.1199 48.36H12.2539V46.992C12.2539 46.848 12.3259 46.74 12.4699 46.686L13.4959 46.308C13.6759 46.236 13.8019 46.326 13.8019 46.524V48.36H15.3499C15.5119 48.36 15.6199 48.468 15.6199 48.63V49.494C15.6199 49.656 15.5119 49.764 15.3499 49.764H13.8019V54.39C13.8019 55.128 14.0719 55.668 14.8459 55.668C15.0079 55.668 15.1699 55.632 15.3679 55.56C15.5479 55.506 15.6739 55.542 15.7279 55.722L16.0159 56.586ZM27.4515 57.216C23.9415 57.216 21.2955 54.624 21.2955 50.7C21.2955 46.776 23.9415 44.184 27.4515 44.184C29.5035 44.184 31.0515 44.994 32.2035 46.344C32.3115 46.488 32.2935 46.632 32.1675 46.74L31.3215 47.442C31.1775 47.568 31.0515 47.55 30.9435 47.406C30.2235 46.542 29.0715 45.768 27.4515 45.768C24.8415 45.768 22.9515 47.874 22.9515 50.7C22.9515 53.526 24.8415 55.632 27.4515 55.632C29.0715 55.632 30.2235 54.858 30.9435 53.994C31.0515 53.85 31.1775 53.832 31.3215 53.958L32.1495 54.642C32.2755 54.75 32.2935 54.894 32.2035 55.002C31.0695 56.388 29.5215 57.216 27.4515 57.216ZM41.8534 45.948H35.7694V49.584H40.4314C40.5934 49.584 40.7014 49.692 40.7014 49.854V50.862C40.7014 51.024 40.5934 51.132 40.4314 51.132H35.7694V55.452H41.8534C42.0154 55.452 42.1234 55.56 42.1234 55.722V56.73C42.1234 56.892 42.0154 57 41.8534 57H34.4194C34.2574 57 34.1494 56.892 34.1494 56.73V44.67C34.1494 44.508 34.2574 44.4 34.4194 44.4H41.8534C42.0154 44.4 42.1234 44.508 42.1234 44.67V45.678C42.1234 45.84 42.0154 45.948 41.8534 45.948ZM44.2237 57C44.0617 57 43.9537 56.892 43.9537 56.73V44.67C43.9537 44.508 44.0617 44.4 44.2237 44.4H48.3997C51.4777 44.4 52.1977 46.488 52.1977 47.982C52.1977 49.224 51.6937 50.88 49.7497 51.402L52.1257 56.676C52.2157 56.874 52.1257 57 51.9277 57H50.7217C50.5777 57 50.4697 56.946 50.4157 56.802L48.1117 51.564H45.5737V56.73C45.5737 56.892 45.4657 57 45.3037 57H44.2237ZM45.5737 50.016H48.1477C50.0197 50.016 50.5237 49.098 50.5237 47.982C50.5237 46.866 50.0197 45.948 48.1477 45.948H45.5737V50.016ZM65.1081 56.694C65.1801 56.874 65.0901 57 64.8921 57H63.6861C63.5421 57 63.4161 56.928 63.3621 56.784L62.1561 53.832H56.3061L55.1001 56.784C55.0461 56.928 54.9201 57 54.7761 57H53.5701C53.3721 57 53.2821 56.874 53.3541 56.694L58.4301 44.616C58.4841 44.472 58.6101 44.4 58.7541 44.4H59.7081C59.8521 44.4 59.9781 44.472 60.0321 44.616L65.1081 56.694ZM56.9541 52.284H61.5261L59.2401 46.704L56.9541 52.284ZM68.282 57C68.138 57 68.03 56.946 67.976 56.784L64.214 44.706C64.16 44.508 64.25 44.4 64.448 44.4H65.654C65.798 44.4 65.924 44.49 65.96 44.634L68.894 54.462L71.828 44.634C71.864 44.49 71.99 44.4 72.134 44.4H73.502C73.646 44.4 73.772 44.49 73.808 44.634L76.742 54.462L79.676 44.634C79.712 44.49 79.838 44.4 79.982 44.4H81.188C81.386 44.4 81.476 44.508 81.422 44.706L77.66 56.784C77.606 56.946 77.498 57 77.354 57H76.13C75.986 57 75.86 56.91 75.824 56.766L72.818 46.866L69.812 56.766C69.776 56.91 69.65 57 69.506 57H68.282ZM85.7288 48.144C88.1948 48.144 89.7068 50.088 89.7068 52.248V52.914C89.7068 53.076 89.5988 53.184 89.4368 53.184H82.9388C83.1368 54.588 84.1268 55.704 85.8728 55.704C86.8448 55.704 87.7088 55.362 88.5908 54.714C88.7528 54.606 88.8788 54.624 88.9688 54.768L89.4728 55.524C89.5628 55.65 89.5448 55.794 89.4188 55.902C88.4468 56.766 87.1328 57.216 85.8548 57.216C83.0108 57.216 81.3188 55.326 81.3188 52.734C81.3188 49.89 83.2988 48.144 85.7288 48.144ZM82.9928 51.78H88.0688C87.9968 50.664 87.2048 49.656 85.7108 49.656C84.3068 49.656 83.2988 50.466 82.9928 51.78ZM95.5156 48.144C97.9816 48.144 99.4936 50.088 99.4936 52.248V52.914C99.4936 53.076 99.3856 53.184 99.2236 53.184H92.7256C92.9236 54.588 93.9136 55.704 95.6596 55.704C96.6316 55.704 97.4956 55.362 98.3776 54.714C98.5396 54.606 98.6656 54.624 98.7556 54.768L99.2596 55.524C99.3496 55.65 99.3316 55.794 99.2056 55.902C98.2336 56.766 96.9196 57.216 95.6416 57.216C92.7976 57.216 91.1056 55.326 91.1056 52.734C91.1056 49.89 93.0856 48.144 95.5156 48.144ZM92.7796 51.78H97.8556C97.7836 50.664 96.9916 49.656 95.4976 49.656C94.0936 49.656 93.0856 50.466 92.7796 51.78ZM107.948 56.676C108.092 56.838 108.038 57 107.804 57H106.472C106.346 57 106.238 56.964 106.148 56.856L102.728 53.13V56.73C102.728 56.892 102.62 57 102.458 57H101.45C101.288 57 101.18 56.892 101.18 56.73V45.012C101.18 44.868 101.252 44.76 101.396 44.706L102.422 44.328C102.602 44.256 102.728 44.346 102.728 44.544V51.69L105.932 48.504C106.04 48.396 106.148 48.36 106.274 48.36H107.606C107.84 48.36 107.912 48.522 107.75 48.684L104.078 52.356L107.948 56.676ZM113.428 57C113.266 57 113.158 56.892 113.158 56.73V56.1C113.158 55.974 113.194 55.866 113.302 55.776C115.696 53.598 119.458 50.736 119.458 47.838C119.458 46.542 118.558 45.768 117.28 45.768C116.002 45.768 114.994 46.578 114.814 48.036C114.796 48.198 114.706 48.288 114.544 48.288H113.446C113.266 48.288 113.158 48.18 113.176 48C113.446 45.642 115.066 44.184 117.28 44.184C119.746 44.184 121.114 45.714 121.114 47.838C121.114 50.934 118.342 53.382 115.966 55.452H121.114C121.312 55.452 121.402 55.56 121.33 55.758L120.952 56.784C120.898 56.946 120.79 57 120.646 57H113.428ZM127.915 57.216C124.927 57.216 122.785 54.624 122.785 50.7C122.785 46.776 124.927 44.184 127.915 44.184C130.921 44.184 133.027 46.776 133.027 50.7C133.027 54.624 130.921 57.216 127.915 57.216ZM127.915 55.632C130.003 55.632 131.371 53.706 131.371 50.7C131.371 47.694 130.003 45.768 127.915 45.768C125.827 45.768 124.441 47.694 124.441 50.7C124.441 53.706 125.827 55.632 127.915 55.632ZM134.795 57C134.633 57 134.525 56.892 134.525 56.73V56.1C134.525 55.974 134.561 55.866 134.669 55.776C137.063 53.598 140.825 50.736 140.825 47.838C140.825 46.542 139.925 45.768 138.647 45.768C137.369 45.768 136.361 46.578 136.181 48.036C136.163 48.198 136.073 48.288 135.911 48.288H134.813C134.633 48.288 134.525 48.18 134.543 48C134.813 45.642 136.433 44.184 138.647 44.184C141.113 44.184 142.481 45.714 142.481 47.838C142.481 50.934 139.709 53.382 137.333 55.452H142.481C142.679 55.452 142.769 55.56 142.697 55.758L142.319 56.784C142.265 56.946 142.157 57 142.013 57H134.795ZM148.723 57.216C146.329 57.216 144.151 55.614 144.151 51.132C144.151 46.794 146.185 44.184 149.353 44.184C150.181 44.184 151.171 44.364 152.071 44.922C152.215 44.994 152.251 45.138 152.197 45.282L151.819 46.344C151.765 46.524 151.621 46.56 151.441 46.452C150.577 45.93 149.911 45.84 149.317 45.84C147.877 45.84 146.149 46.812 145.897 50.142C146.743 48.864 148.057 48.36 149.119 48.36C150.955 48.36 153.133 49.782 153.133 52.77C153.133 55.578 151.027 57.216 148.723 57.216ZM148.741 55.632C150.451 55.632 151.477 54.354 151.477 52.806C151.477 51.312 150.451 49.998 148.741 49.998C147.031 49.998 146.005 51.312 146.005 52.806C146.005 54.354 147.031 55.632 148.741 55.632ZM154.401 57C154.239 57 154.131 56.892 154.131 56.73V55.614C154.131 55.452 154.239 55.344 154.401 55.344H155.517C155.679 55.344 155.787 55.452 155.787 55.614V56.73C155.787 56.892 155.679 57 155.517 57H154.401Z" fill="#243746"/>
</g>
<defs>
<clipPath id="clip0_13_128">
<rect width="231" height="20" fill="white"/>
</clipPath>
</defs>
</svg>
