<?xml version="1.0" encoding="UTF-8"?>
<svg id="Layer_2" data-name="Layer 2" xmlns="http://www.w3.org/2000/svg" viewBox="0 0 125.03 12.77">
  <defs>
    <style>
      .cls-1 {
        fill: #ff1243;
      }
    </style>
  </defs>
  <g id="Layer_1-2" data-name="Layer 1">
    <path class="cls-1" d="M9.31,9.51c.07.18,0,.29-.2.29h-1.41c-.14,0-.24-.07-.28-.18l-.77-1.95h-3.95l-.77,1.95c-.06.13-.15.18-.29.18H.22c-.18,0-.27-.11-.2-.29L3.85.2c.04-.14.15-.2.29-.2h1.05c.14,0,.25.06.31.2l3.81,9.31ZM3.33,6.09h2.69l-1.34-3.4-1.34,3.4Z"/>
    <path class="cls-1" d="M10.58,9.8c-.17,0-.27-.1-.27-.25V3.71c0-.14.07-.24.21-.29l1.15-.39c.18-.07.29.03.29.21v.67c.48-.67,1.22-.99,2.1-.99,1.43,0,2.66,1.02,2.66,3.01v3.63c0,.15-.08.25-.25.25h-1.13c-.17,0-.27-.1-.27-.25v-3.43c0-1.05-.6-1.62-1.51-1.62s-1.6.59-1.6,1.62v3.43c0,.15-.08.25-.25.25h-1.13Z"/>
    <path class="cls-1" d="M24.4,2.91c1.97,0,3.15,1.54,3.15,3.19v.59c0,.17-.1.25-.27.25h-4.73c.18.85.85,1.51,1.96,1.51.74,0,1.36-.24,1.89-.57.15-.08.28-.06.35.1l.45.81c.07.14.06.27-.04.34-.7.53-1.55.84-2.66.84-2.24,0-3.57-1.48-3.57-3.49,0-2.17,1.55-3.57,3.47-3.57ZM22.59,5.73h3.4c-.1-.7-.62-1.3-1.6-1.3-.91,0-1.58.49-1.81,1.3Z"/>
    <path class="cls-1" d="M29.01,9.8c-.17,0-.27-.1-.27-.25V3.71c0-.14.07-.24.21-.29l1.15-.39c.18-.07.29.03.29.21v.67c.48-.67,1.22-.99,2.1-.99,1.43,0,2.66,1.02,2.66,3.01v3.63c0,.15-.08.25-.25.25h-1.13c-.17,0-.27-.1-.27-.25v-3.43c0-1.05-.6-1.62-1.51-1.62s-1.6.59-1.6,1.62v3.43c0,.15-.08.25-.25.25h-1.13Z"/>
    <path class="cls-1" d="M39.74,2.91c1.97,0,3.15,1.54,3.15,3.19v.59c0,.17-.1.25-.27.25h-4.73c.18.85.85,1.51,1.96,1.51.74,0,1.36-.24,1.89-.57.15-.08.28-.06.35.1l.45.81c.07.14.06.27-.04.34-.7.53-1.55.84-2.66.84-2.24,0-3.57-1.48-3.57-3.49,0-2.17,1.55-3.57,3.47-3.57ZM37.94,5.73h3.4c-.1-.7-.62-1.3-1.6-1.3-.91,0-1.58.49-1.81,1.3Z"/>
    <path class="cls-1" d="M49.16,4.03c.06.15.01.28-.14.34l-3.28,1.34v3.84c0,.15-.08.25-.25.25h-1.13c-.17,0-.27-.1-.27-.25V3.71c0-.14.07-.24.21-.29l1.15-.39c.18-.07.29.03.29.21v.91l2.7-1.13c.17-.06.28-.01.35.14l.36.88Z"/>
    <path class="cls-1" d="M52.98,12.77c-1.13,0-2.07-.27-3-.94-.13-.1-.15-.22-.07-.35l.52-.94c.08-.15.22-.18.36-.06.7.53,1.41.76,2.1.76,1.34,0,2.13-.78,2.13-1.97v-.18c-.31.39-1.11.77-2.06.77-2.16,0-3.39-1.55-3.39-3.46s1.46-3.49,3.46-3.49c.83,0,1.62.29,1.99.91v-.08c0-.15.07-.25.21-.31l1.15-.41c.18-.07.29.01.29.2v5.89c0,2.34-1.48,3.65-3.7,3.65ZM53.16,8.32c1.06,0,1.88-.7,1.88-1.93s-.81-1.95-1.88-1.95-1.89.71-1.89,1.95.81,1.93,1.89,1.93Z"/>
    <path class="cls-1" d="M64.11,3.08c.2,0,.27.11.2.29l-3.86,9.03c-.04.14-.15.2-.31.2h-1.23c-.18,0-.27-.11-.2-.29l1.37-3.22-2.45-5.71c-.07-.18.01-.29.2-.29h1.26c.14,0,.25.06.31.2l1.55,3.77,1.6-3.77c.06-.14.17-.2.31-.2h1.26Z"/>
    <path class="cls-1" d="M71.85,9.97c-2.2,0-3.67-1.5-3.67-3.53s1.47-3.53,3.67-3.53c.87,0,1.68.22,2.24.74.13.11.15.24.07.38l-.53.87c-.08.14-.2.17-.34.07-.38-.29-.8-.49-1.41-.49-1.22,0-1.96.84-1.96,1.96s.74,1.96,1.96,1.96c.62,0,1.04-.18,1.43-.49.13-.08.25-.06.34.08l.52.85c.08.14.06.25-.04.35-.53.52-1.37.77-2.27.77Z"/>
    <path class="cls-1" d="M78.7,9.97c-2.09,0-3.54-1.5-3.54-3.53s1.46-3.53,3.54-3.53,3.54,1.5,3.54,3.53-1.46,3.53-3.54,3.53ZM78.7,8.4c1.18,0,1.83-.85,1.83-1.96s-.66-1.96-1.83-1.96-1.83.85-1.83,1.96.66,1.96,1.83,1.96Z"/>
    <path class="cls-1" d="M83.71,9.8c-.17,0-.27-.1-.27-.25V3.71c0-.14.07-.24.21-.29l1.15-.39c.18-.07.29.03.29.21v.57c.28-.45,1.05-.9,1.9-.9s1.5.43,1.81,1.05c.43-.71,1.22-1.05,2.04-1.05,1.29,0,2.48.88,2.48,2.87v3.77c0,.15-.1.25-.27.25h-1.13c-.17,0-.25-.1-.25-.25v-3.61c0-.94-.46-1.44-1.19-1.44s-1.27.49-1.27,1.44v3.61c0,.15-.08.25-.25.25h-1.13c-.17,0-.27-.1-.27-.25v-3.61c0-.98-.43-1.44-1.19-1.44-.67,0-1.27.5-1.27,1.44v3.61c0,.15-.08.25-.25.25h-1.13Z"/>
    <path class="cls-1" d="M94.88,12.6c-.17,0-.27-.1-.27-.25V3.74c0-.15.07-.25.21-.31l1.15-.41c.18-.07.29.01.29.2v.59c.38-.49,1.18-.9,2.14-.9,1.92,0,3.32,1.37,3.32,3.53,0,1.9-1.22,3.53-3.32,3.53-.98,0-1.78-.42-2.14-.88v3.26c0,.15-.08.25-.25.25h-1.13ZM98.14,8.44c1.06,0,1.89-.71,1.89-2s-.83-2-1.89-2-1.88.69-1.88,2,.81,2,1.88,2Z"/>
    <path class="cls-1" d="M106.14,9.97c-2.16,0-3.39-1.57-3.39-3.57s1.46-3.49,3.46-3.49c.83,0,1.62.29,1.99.91v-.08c0-.15.07-.25.21-.31l1.15-.41c.18-.07.29.01.29.2v6.33c0,.15-.1.25-.27.25h-1.13c-.15,0-.25-.1-.25-.25v-.36c-.31.39-1.11.78-2.06.78ZM106.34,8.41c1.06,0,1.88-.7,1.88-2.03,0-1.23-.81-1.95-1.88-1.95s-1.89.71-1.89,1.95c0,1.32.81,2.03,1.89,2.03Z"/>
    <path class="cls-1" d="M111.48,9.8c-.17,0-.27-.1-.27-.25V3.71c0-.14.07-.24.21-.29l1.15-.39c.18-.07.29.03.29.21v.67c.48-.67,1.22-.99,2.1-.99,1.43,0,2.66,1.02,2.66,3.01v3.63c0,.15-.08.25-.25.25h-1.13c-.17,0-.27-.1-.27-.25v-3.43c0-1.05-.6-1.62-1.51-1.62s-1.6.59-1.6,1.62v3.43c0,.15-.08.25-.25.25h-1.13Z"/>
    <path class="cls-1" d="M124.81,3.08c.2,0,.27.11.2.29l-3.86,9.03c-.04.14-.15.2-.31.2h-1.23c-.18,0-.27-.11-.2-.29l1.37-3.22-2.45-5.71c-.07-.18.01-.29.2-.29h1.26c.14,0,.25.06.31.2l1.55,3.77,1.6-3.77c.06-.14.17-.2.31-.2h1.26Z"/>
  </g>
</svg>