<svg width="337" height="22" viewBox="0 0 337 22" fill="none" xmlns="http://www.w3.org/2000/svg">
<path d="M9.41599 1.03399C9.61399 1.03399 9.74599 1.16599 9.74599 1.36399V2.59599C9.74599 2.79399 9.61399 2.92599 9.41599 2.92599H1.97999V8.02999H7.67799C7.87599 8.02999 8.00799 8.16199 8.00799 8.35999V9.59199C8.00799 9.78999 7.87599 9.92199 7.67799 9.92199H1.97999V16.104C1.97999 16.302 1.84799 16.434 1.64999 16.434H0.329991C0.131992 16.434 -8.53837e-06 16.302 -8.53837e-06 16.104V1.36399C-8.53837e-06 1.16599 0.131992 1.03399 0.329991 1.03399H9.41599ZM18.3325 6.88599C18.3985 7.08399 18.3325 7.23799 18.1345 7.32599L13.0965 9.41599V16.104C13.0965 16.302 12.9645 16.434 12.7665 16.434H11.5345C11.3365 16.434 11.2045 16.302 11.2045 16.104V6.62199C11.2045 6.44599 11.2925 6.31399 11.4685 6.24799L12.7225 5.78599C12.9425 5.69799 13.0965 5.80799 13.0965 6.04999V7.56799L17.4965 5.74199C17.6945 5.65399 17.8485 5.71999 17.9365 5.91799L18.3325 6.88599ZM24.3595 16.698C21.1915 16.698 18.9255 14.344 18.9255 11.154C18.9255 7.96399 21.1915 5.60999 24.3595 5.60999C27.5275 5.60999 29.7715 7.96399 29.7715 11.154C29.7715 14.344 27.5275 16.698 24.3595 16.698ZM24.3595 14.85C26.5155 14.85 27.8355 13.222 27.8355 11.154C27.8355 9.08599 26.5155 7.45799 24.3595 7.45799C22.1815 7.45799 20.8615 9.08599 20.8615 11.154C20.8615 13.222 22.1815 14.85 24.3595 14.85ZM32.1707 16.434C31.9727 16.434 31.8407 16.302 31.8407 16.104V6.62199C31.8407 6.44599 31.9287 6.31399 32.1047 6.24799L33.3587 5.78599C33.5787 5.69799 33.7327 5.80799 33.7327 6.04999V7.17199C34.4367 6.13799 35.5587 5.60999 36.7467 5.60999C37.9347 5.60999 39.0787 6.18199 39.7387 7.41399C40.6407 6.00599 41.9607 5.60999 43.1047 5.60999C45.4147 5.60999 46.9327 6.99599 46.9327 10.12V16.104C46.9327 16.302 46.8007 16.434 46.6027 16.434H45.3707C45.1727 16.434 45.0407 16.302 45.0407 16.104V10.362C45.0407 8.51399 44.1827 7.47999 42.6867 7.47999C41.1907 7.47999 40.3327 8.51399 40.3327 10.362V16.104C40.3327 16.302 40.2007 16.434 40.0027 16.434H38.7707C38.5727 16.434 38.4407 16.302 38.4407 16.104V10.362C38.4407 8.51399 37.5827 7.47999 36.0867 7.47999C34.5907 7.47999 33.7327 8.51399 33.7327 10.362V16.104C33.7327 16.302 33.6007 16.434 33.4027 16.434H32.1707ZM59.1487 16.698C55.9807 16.698 53.7147 14.344 53.7147 11.154C53.7147 7.96399 55.9807 5.60999 59.1487 5.60999C62.3167 5.60999 64.5607 7.96399 64.5607 11.154C64.5607 14.344 62.3167 16.698 59.1487 16.698ZM59.1487 14.85C61.3047 14.85 62.6247 13.222 62.6247 11.154C62.6247 9.08599 61.3047 7.45799 59.1487 7.45799C56.9707 7.45799 55.6507 9.08599 55.6507 11.154C55.6507 13.222 56.9707 14.85 59.1487 14.85ZM66.9379 4.66399C66.7179 4.72999 66.5639 4.64199 66.5639 4.39999V2.83799C66.5639 2.66199 66.6519 2.52999 66.8279 2.46399L68.2139 1.93599C68.4339 1.84799 68.5879 1.95799 68.5879 2.19999V3.82799C68.5879 4.00399 68.4999 4.13599 68.3239 4.20199L66.9379 4.66399ZM66.9599 16.434C66.7619 16.434 66.6299 16.302 66.6299 16.104V6.62199C66.6299 6.44599 66.7179 6.31399 66.8939 6.24799L68.1479 5.78599C68.3679 5.69799 68.5219 5.80799 68.5219 6.04999V16.104C68.5219 16.302 68.3899 16.434 68.1919 16.434H66.9599ZM71.2731 16.434C71.0751 16.434 70.9431 16.302 70.9431 16.104V1.78199C70.9431 1.60599 71.0311 1.47399 71.2071 1.40799L72.4611 0.945989C72.6811 0.85799 72.8351 0.96799 72.8351 1.20999V16.104C72.8351 16.302 72.7031 16.434 72.5051 16.434H71.2731ZM85.0346 16.698C81.6906 16.698 79.7546 14.146 79.7546 11.132C79.7546 7.76599 82.2626 5.60999 85.1446 5.60999C86.5966 5.60999 87.9386 6.15999 88.6206 7.08399V6.62199C88.6206 6.44599 88.7086 6.31399 88.8846 6.24799L90.1386 5.78599C90.3586 5.69799 90.5126 5.78599 90.5126 6.02799V16.104C90.5126 16.302 90.3806 16.434 90.1826 16.434H88.9506C88.7526 16.434 88.6206 16.302 88.6206 16.104V15.246C88.0046 16.016 86.5526 16.698 85.0346 16.698ZM85.1666 14.828C87.1246 14.828 88.6426 13.574 88.6426 11.132C88.6426 8.71199 87.1246 7.45799 85.1666 7.45799C83.2966 7.45799 81.6906 8.71199 81.6906 11.132C81.6906 13.552 83.2966 14.828 85.1666 14.828ZM93.2577 16.434C93.0597 16.434 92.9277 16.302 92.9277 16.104V6.62199C92.9277 6.44599 93.0157 6.31399 93.1917 6.24799L94.4457 5.78599C94.6657 5.69799 94.8197 5.80799 94.8197 6.04999V7.17199C95.6337 5.98399 96.8877 5.60999 98.0317 5.60999C100.408 5.60999 102.3 7.21599 102.3 10.34V16.104C102.3 16.302 102.168 16.434 101.97 16.434H100.738C100.54 16.434 100.408 16.302 100.408 16.104V10.406C100.408 8.51399 99.3077 7.47999 97.6797 7.47999C96.0297 7.47999 94.8197 8.53599 94.8197 10.406V16.104C94.8197 16.302 94.6877 16.434 94.4897 16.434H93.2577ZM109.517 16.698C106.173 16.698 104.237 14.146 104.237 11.132C104.237 7.76599 106.745 5.60999 109.627 5.60999C111.079 5.60999 112.421 6.15999 113.103 7.08399V1.75999C113.103 1.58399 113.191 1.45199 113.367 1.38599L114.621 0.92399C114.841 0.835989 114.995 0.92399 114.995 1.16599V16.104C114.995 16.302 114.863 16.434 114.665 16.434H113.433C113.235 16.434 113.103 16.302 113.103 16.104V15.246C112.487 16.016 111.035 16.698 109.517 16.698ZM109.649 14.828C111.607 14.828 113.125 13.574 113.125 11.132C113.125 8.71199 111.607 7.45799 109.649 7.45799C107.779 7.45799 106.173 8.71199 106.173 11.132C106.173 13.552 107.779 14.828 109.649 14.828ZM127.122 21.098C125.56 21.098 123.998 20.724 122.48 19.58C122.326 19.448 122.304 19.294 122.392 19.118L123.03 18.018C123.14 17.82 123.294 17.798 123.492 17.93C124.526 18.722 125.802 19.25 127.144 19.25C129.498 19.25 130.774 17.754 130.774 15.378V15.246C130.202 15.95 128.86 16.698 127.122 16.698C123.888 16.698 121.908 14.146 121.908 11.154C121.908 7.76599 124.416 5.60999 127.298 5.60999C128.75 5.60999 130.092 6.15999 130.774 7.08399V6.62199C130.774 6.44599 130.862 6.31399 131.038 6.24799L132.292 5.78599C132.512 5.69799 132.666 5.78599 132.666 6.02799V14.982C132.666 19.25 130.51 21.098 127.122 21.098ZM127.342 14.828C129.256 14.828 130.796 13.574 130.796 11.132C130.796 8.71199 129.256 7.45799 127.342 7.45799C125.428 7.45799 123.844 8.71199 123.844 11.132C123.844 13.552 125.428 14.828 127.342 14.828ZM140.009 16.698C136.665 16.698 134.729 14.146 134.729 11.132C134.729 7.76599 137.237 5.60999 140.119 5.60999C141.571 5.60999 142.913 6.15999 143.595 7.08399V6.62199C143.595 6.44599 143.683 6.31399 143.859 6.24799L145.113 5.78599C145.333 5.69799 145.487 5.78599 145.487 6.02799V16.104C145.487 16.302 145.355 16.434 145.157 16.434H143.925C143.727 16.434 143.595 16.302 143.595 16.104V15.246C142.979 16.016 141.527 16.698 140.009 16.698ZM140.141 14.828C142.099 14.828 143.617 13.574 143.617 11.132C143.617 8.71199 142.099 7.45799 140.141 7.45799C138.271 7.45799 136.665 8.71199 136.665 11.132C136.665 13.552 138.271 14.828 140.141 14.828ZM151.598 16.698C150.036 16.698 148.452 16.192 147.506 15.092C147.374 14.96 147.396 14.784 147.506 14.63L148.21 13.728C148.342 13.552 148.496 13.552 148.672 13.684C149.332 14.256 150.212 14.85 151.642 14.85C153.006 14.85 153.754 14.41 153.754 13.552C153.754 12.672 152.984 12.32 151.554 11.968C149.772 11.528 147.814 11 147.814 8.84399C147.814 6.95199 149.31 5.60999 151.664 5.60999C153.182 5.60999 154.26 6.13799 154.964 6.70999C155.118 6.86399 155.118 6.99599 154.986 7.17199L154.282 8.05199C154.15 8.20599 153.996 8.24999 153.82 8.11799C153.314 7.76599 152.61 7.45799 151.708 7.45799C150.63 7.45799 149.706 7.87599 149.706 8.73399C149.706 9.52599 150.498 9.83399 151.994 10.186C154.172 10.692 155.602 11.506 155.602 13.42C155.602 16.104 153.204 16.698 151.598 16.698ZM167.87 15.928C167.936 16.104 167.87 16.28 167.65 16.39C167.166 16.61 166.748 16.698 166.286 16.698C163.844 16.698 163.272 15.114 163.272 13.222V7.58999H161.886C161.688 7.58999 161.556 7.45799 161.556 7.25999V6.20399C161.556 6.00599 161.688 5.87399 161.886 5.87399H163.272V4.20199C163.272 4.02599 163.36 3.89399 163.536 3.82799L164.79 3.36599C165.01 3.27799 165.164 3.38799 165.164 3.62999V5.87399H167.056C167.254 5.87399 167.386 6.00599 167.386 6.20399V7.25999C167.386 7.45799 167.254 7.58999 167.056 7.58999H165.164V13.244C165.164 14.146 165.494 14.806 166.44 14.806C166.638 14.806 166.836 14.762 167.078 14.674C167.298 14.608 167.452 14.652 167.518 14.872L167.87 15.928ZM174.388 16.698C171.22 16.698 168.954 14.344 168.954 11.154C168.954 7.96399 171.22 5.60999 174.388 5.60999C177.556 5.60999 179.8 7.96399 179.8 11.154C179.8 14.344 177.556 16.698 174.388 16.698ZM174.388 14.85C176.544 14.85 177.864 13.222 177.864 11.154C177.864 9.08599 176.544 7.45799 174.388 7.45799C172.21 7.45799 170.89 9.08599 170.89 11.154C170.89 13.222 172.21 14.85 174.388 14.85ZM189.536 16.434C189.36 16.434 189.228 16.368 189.162 16.17L185.95 6.24799C185.884 6.02799 185.972 5.87399 186.214 5.87399H187.468C187.644 5.87399 187.798 5.96199 187.842 6.13799L190.108 13.508L192.308 6.15999C192.352 5.98399 192.506 5.87399 192.682 5.87399H193.936C194.112 5.87399 194.266 5.98399 194.31 6.15999L196.51 13.508L198.776 6.13799C198.82 5.96199 198.974 5.87399 199.15 5.87399H200.36C200.602 5.87399 200.712 6.00599 200.646 6.24799L197.456 16.17C197.39 16.368 197.258 16.434 197.082 16.434H195.938C195.762 16.434 195.608 16.346 195.564 16.17L193.32 8.84399L191.054 16.17C191.01 16.346 190.856 16.434 190.68 16.434H189.536ZM202.621 16.434C202.423 16.434 202.291 16.302 202.291 16.104V1.78199C202.291 1.60599 202.379 1.47399 202.555 1.40799L203.809 0.945989C204.029 0.85799 204.183 0.96799 204.183 1.20999V7.17199C204.931 6.07199 206.295 5.60999 207.483 5.60999C209.815 5.60999 211.663 7.21599 211.663 10.34V16.104C211.663 16.302 211.531 16.434 211.333 16.434H210.101C209.903 16.434 209.771 16.302 209.771 16.104V10.406C209.771 8.51399 208.671 7.47999 207.043 7.47999C205.393 7.47999 204.183 8.53599 204.183 10.406V16.104C204.183 16.302 204.051 16.434 203.853 16.434H202.621ZM218.88 16.698C215.536 16.698 213.6 14.146 213.6 11.132C213.6 7.76599 216.108 5.60999 218.99 5.60999C220.442 5.60999 221.784 6.15999 222.466 7.08399V6.62199C222.466 6.44599 222.554 6.31399 222.73 6.24799L223.984 5.78599C224.204 5.69799 224.358 5.78599 224.358 6.02799V16.104C224.358 16.302 224.226 16.434 224.028 16.434H222.796C222.598 16.434 222.466 16.302 222.466 16.104V15.246C221.85 16.016 220.398 16.698 218.88 16.698ZM219.012 14.828C220.97 14.828 222.488 13.574 222.488 11.132C222.488 8.71199 220.97 7.45799 219.012 7.45799C217.142 7.45799 215.536 8.71199 215.536 11.132C215.536 13.552 217.142 14.828 219.012 14.828ZM232.207 15.928C232.273 16.104 232.207 16.28 231.987 16.39C231.503 16.61 231.085 16.698 230.623 16.698C228.181 16.698 227.609 15.114 227.609 13.222V7.58999H226.223C226.025 7.58999 225.893 7.45799 225.893 7.25999V6.20399C225.893 6.00599 226.025 5.87399 226.223 5.87399H227.609V4.20199C227.609 4.02599 227.697 3.89399 227.873 3.82799L229.127 3.36599C229.347 3.27799 229.501 3.38799 229.501 3.62999V5.87399H231.393C231.591 5.87399 231.723 6.00599 231.723 6.20399V7.25999C231.723 7.45799 231.591 7.58999 231.393 7.58999H229.501V13.244C229.501 14.146 229.831 14.806 230.777 14.806C230.975 14.806 231.173 14.762 231.415 14.674C231.635 14.608 231.789 14.652 231.855 14.872L232.207 15.928ZM238.681 5.60999C241.695 5.60999 243.543 7.98599 243.543 10.626V11.44C243.543 11.638 243.411 11.77 243.213 11.77H235.271C235.513 13.486 236.723 14.85 238.857 14.85C240.045 14.85 241.101 14.432 242.179 13.64C242.377 13.508 242.531 13.53 242.641 13.706L243.257 14.63C243.367 14.784 243.345 14.96 243.191 15.092C242.003 16.148 240.397 16.698 238.835 16.698C235.359 16.698 233.291 14.388 233.291 11.22C233.291 7.74399 235.711 5.60999 238.681 5.60999ZM235.337 10.054H241.541C241.453 8.68999 240.485 7.45799 238.659 7.45799C236.943 7.45799 235.711 8.44799 235.337 10.054ZM248.873 16.434C248.697 16.434 248.543 16.346 248.477 16.17L244.319 6.24799C244.231 6.02799 244.341 5.87399 244.583 5.87399H245.991C246.167 5.87399 246.321 5.96199 246.387 6.13799L249.533 14.102L252.679 6.13799C252.745 5.96199 252.899 5.87399 253.075 5.87399H254.483C254.725 5.87399 254.835 6.02799 254.747 6.24799L250.589 16.17C250.523 16.346 250.369 16.434 250.193 16.434H248.873ZM260.928 5.60999C263.942 5.60999 265.79 7.98599 265.79 10.626V11.44C265.79 11.638 265.658 11.77 265.46 11.77H257.518C257.76 13.486 258.97 14.85 261.104 14.85C262.292 14.85 263.348 14.432 264.426 13.64C264.624 13.508 264.778 13.53 264.888 13.706L265.504 14.63C265.614 14.784 265.592 14.96 265.438 15.092C264.25 16.148 262.644 16.698 261.082 16.698C257.606 16.698 255.538 14.388 255.538 11.22C255.538 7.74399 257.958 5.60999 260.928 5.60999ZM257.584 10.054H263.788C263.7 8.68999 262.732 7.45799 260.906 7.45799C259.19 7.45799 257.958 8.44799 257.584 10.054ZM274.98 6.88599C275.046 7.08399 274.98 7.23799 274.782 7.32599L269.744 9.41599V16.104C269.744 16.302 269.612 16.434 269.414 16.434H268.182C267.984 16.434 267.852 16.302 267.852 16.104V6.62199C267.852 6.44599 267.94 6.31399 268.116 6.24799L269.37 5.78599C269.59 5.69799 269.744 5.80799 269.744 6.04999V7.56799L274.144 5.74199C274.342 5.65399 274.496 5.71999 274.584 5.91799L274.98 6.88599ZM276.172 3.65199C275.93 3.65199 275.82 3.51999 275.908 3.27799L277.096 0.26399C277.162 0.0879898 277.316 -1.03712e-05 277.492 -1.03712e-05H278.592C278.834 -1.03712e-05 278.922 0.17599 278.834 0.39599L277.492 3.40999C277.426 3.58599 277.294 3.65199 277.118 3.65199H276.172ZM283.01 16.698C281.448 16.698 279.864 16.192 278.918 15.092C278.786 14.96 278.808 14.784 278.918 14.63L279.622 13.728C279.754 13.552 279.908 13.552 280.084 13.684C280.744 14.256 281.624 14.85 283.054 14.85C284.418 14.85 285.166 14.41 285.166 13.552C285.166 12.672 284.396 12.32 282.966 11.968C281.184 11.528 279.226 11 279.226 8.84399C279.226 6.95199 280.722 5.60999 283.076 5.60999C284.594 5.60999 285.672 6.13799 286.376 6.70999C286.53 6.86399 286.53 6.99599 286.398 7.17199L285.694 8.05199C285.562 8.20599 285.408 8.24999 285.232 8.11799C284.726 7.76599 284.022 7.45799 283.12 7.45799C282.042 7.45799 281.118 7.87599 281.118 8.73399C281.118 9.52599 281.91 9.83399 283.406 10.186C285.584 10.692 287.014 11.506 287.014 13.42C287.014 16.104 284.616 16.698 283.01 16.698ZM294.179 16.434C293.981 16.434 293.849 16.302 293.849 16.104V6.62199C293.849 6.44599 293.937 6.31399 294.113 6.24799L295.367 5.78599C295.587 5.69799 295.741 5.80799 295.741 6.04999V7.17199C296.555 5.98399 297.809 5.60999 298.953 5.60999C301.329 5.60999 303.221 7.21599 303.221 10.34V16.104C303.221 16.302 303.089 16.434 302.891 16.434H301.659C301.461 16.434 301.329 16.302 301.329 16.104V10.406C301.329 8.51399 300.229 7.47999 298.601 7.47999C296.951 7.47999 295.741 8.53599 295.741 10.406V16.104C295.741 16.302 295.609 16.434 295.411 16.434H294.179ZM310.548 5.60999C313.562 5.60999 315.41 7.98599 315.41 10.626V11.44C315.41 11.638 315.278 11.77 315.08 11.77H307.138C307.38 13.486 308.59 14.85 310.724 14.85C311.912 14.85 312.968 14.432 314.046 13.64C314.244 13.508 314.398 13.53 314.508 13.706L315.124 14.63C315.234 14.784 315.212 14.96 315.058 15.092C313.87 16.148 312.264 16.698 310.702 16.698C307.226 16.698 305.158 14.388 305.158 11.22C305.158 7.74399 307.578 5.60999 310.548 5.60999ZM307.204 10.054H313.408C313.32 8.68999 312.352 7.45799 310.526 7.45799C308.81 7.45799 307.578 8.44799 307.204 10.054ZM325.749 16.038C325.903 16.28 325.815 16.434 325.551 16.434H324.099C323.923 16.434 323.769 16.368 323.681 16.236L321.151 12.65L318.621 16.236C318.533 16.368 318.379 16.434 318.203 16.434H316.751C316.487 16.434 316.399 16.258 316.553 16.038L320.051 11.066L316.663 6.26999C316.509 6.02799 316.597 5.87399 316.861 5.87399H318.313C318.489 5.87399 318.643 5.93999 318.731 6.07199L321.151 9.50399L323.571 6.07199C323.659 5.93999 323.813 5.87399 323.989 5.87399H325.441C325.705 5.87399 325.793 6.04999 325.639 6.26999L322.251 11.066L325.749 16.038ZM333.277 15.928C333.343 16.104 333.277 16.28 333.057 16.39C332.573 16.61 332.155 16.698 331.693 16.698C329.251 16.698 328.679 15.114 328.679 13.222V7.58999H327.293C327.095 7.58999 326.963 7.45799 326.963 7.25999V6.20399C326.963 6.00599 327.095 5.87399 327.293 5.87399H328.679V4.20199C328.679 4.02599 328.767 3.89399 328.943 3.82799L330.197 3.36599C330.417 3.27799 330.571 3.38799 330.571 3.62999V5.87399H332.463C332.661 5.87399 332.793 6.00599 332.793 6.20399V7.25999C332.793 7.45799 332.661 7.58999 332.463 7.58999H330.571V13.244C330.571 14.146 330.901 14.806 331.847 14.806C332.045 14.806 332.243 14.762 332.485 14.674C332.705 14.608 332.859 14.652 332.925 14.872L333.277 15.928ZM335.21 16.434C335.012 16.434 334.88 16.302 334.88 16.104V14.74C334.88 14.542 335.012 14.41 335.21 14.41H336.574C336.772 14.41 336.904 14.542 336.904 14.74V16.104C336.904 16.302 336.772 16.434 336.574 16.434H335.21Z" fill="#243746"/>
</svg>
