<svg width="402" height="21" viewBox="0 0 402 21" fill="none" xmlns="http://www.w3.org/2000/svg">
<path d="M9.41602 2.068H1.98002V6.512H7.67802C7.87602 6.512 8.00802 6.644 8.00802 6.842V8.074C8.00802 8.272 7.87602 8.404 7.67802 8.404H1.98002V13.684H9.41602C9.61402 13.684 9.74602 13.816 9.74602 14.014V15.246C9.74602 15.444 9.61402 15.576 9.41602 15.576H0.330022C0.132022 15.576 2.19792e-05 15.444 2.19792e-05 15.246V0.506003C2.19792e-05 0.308004 0.132022 0.176003 0.330022 0.176003H9.41602C9.61402 0.176003 9.74602 0.308004 9.74602 0.506003V1.738C9.74602 1.936 9.61402 2.068 9.41602 2.068ZM12.3131 15.576C12.1151 15.576 11.9831 15.444 11.9831 15.246V5.764C11.9831 5.588 12.0711 5.456 12.2471 5.39L13.5011 4.928C13.7211 4.84 13.8751 4.95 13.8751 5.192V6.314C14.6891 5.126 15.9431 4.752 17.0871 4.752C19.4631 4.752 21.3551 6.358 21.3551 9.482V15.246C21.3551 15.444 21.2231 15.576 21.0251 15.576H19.7931C19.5951 15.576 19.4631 15.444 19.4631 15.246V9.548C19.4631 7.656 18.3631 6.622 16.7351 6.622C15.0851 6.622 13.8751 7.678 13.8751 9.548V15.246C13.8751 15.444 13.7431 15.576 13.5451 15.576H12.3131ZM28.902 4.752C31.916 4.752 33.764 7.128 33.764 9.768V10.582C33.764 10.78 33.632 10.912 33.434 10.912H25.492C25.734 12.628 26.944 13.992 29.078 13.992C30.266 13.992 31.322 13.574 32.4 12.782C32.598 12.65 32.752 12.672 32.862 12.848L33.478 13.772C33.588 13.926 33.566 14.102 33.412 14.234C32.224 15.29 30.618 15.84 29.056 15.84C25.58 15.84 23.512 13.53 23.512 10.362C23.512 6.886 25.932 4.752 28.902 4.752ZM25.558 9.196H31.762C31.674 7.832 30.706 6.6 28.88 6.6C27.164 6.6 25.932 7.59 25.558 9.196ZM43.1736 6.028C43.2396 6.226 43.1736 6.38 42.9756 6.468L37.9376 8.558V15.246C37.9376 15.444 37.8056 15.576 37.6076 15.576H36.3756C36.1776 15.576 36.0456 15.444 36.0456 15.246V5.764C36.0456 5.588 36.1336 5.456 36.3096 5.39L37.5636 4.928C37.7836 4.84 37.9376 4.95 37.9376 5.192V6.71L42.3376 4.884C42.5356 4.796 42.6896 4.862 42.7776 5.06L43.1736 6.028ZM49.2006 20.24C47.6386 20.24 46.0766 19.866 44.5586 18.722C44.4046 18.59 44.3826 18.436 44.4706 18.26L45.1086 17.16C45.2186 16.962 45.3726 16.94 45.5706 17.072C46.6046 17.864 47.8806 18.392 49.2226 18.392C51.5766 18.392 52.8526 16.896 52.8526 14.52V14.388C52.2806 15.092 50.9386 15.84 49.2006 15.84C45.9666 15.84 43.9866 13.288 43.9866 10.296C43.9866 6.908 46.4946 4.752 49.3766 4.752C50.8286 4.752 52.1706 5.302 52.8526 6.226V5.764C52.8526 5.588 52.9406 5.456 53.1166 5.39L54.3706 4.928C54.5906 4.84 54.7446 4.928 54.7446 5.17V14.124C54.7446 18.392 52.5886 20.24 49.2006 20.24ZM49.4206 13.97C51.3346 13.97 52.8746 12.716 52.8746 10.274C52.8746 7.854 51.3346 6.6 49.4206 6.6C47.5066 6.6 45.9226 7.854 45.9226 10.274C45.9226 12.694 47.5066 13.97 49.4206 13.97ZM66.3556 5.016C66.5976 5.016 66.7076 5.17 66.6196 5.39L60.4816 19.734C60.4156 19.91 60.2836 19.976 60.1076 19.976H58.7216C58.4796 19.976 58.3696 19.822 58.4576 19.602L60.5696 14.652L56.6096 5.39C56.5216 5.17 56.6316 5.016 56.8736 5.016H58.2816C58.4576 5.016 58.6116 5.104 58.6776 5.28L61.6036 12.232L64.5516 5.28C64.6176 5.104 64.7496 5.016 64.9256 5.016H66.3556ZM77.2534 15.84C75.6914 15.84 74.1074 15.334 73.1614 14.234C73.0294 14.102 73.0514 13.926 73.1614 13.772L73.8654 12.87C73.9974 12.694 74.1514 12.694 74.3274 12.826C74.9874 13.398 75.8674 13.992 77.2974 13.992C78.6614 13.992 79.4094 13.552 79.4094 12.694C79.4094 11.814 78.6394 11.462 77.2094 11.11C75.4274 10.67 73.4694 10.142 73.4694 7.986C73.4694 6.094 74.9654 4.752 77.3194 4.752C78.8374 4.752 79.9154 5.28 80.6194 5.852C80.7734 6.006 80.7734 6.138 80.6414 6.314L79.9374 7.194C79.8054 7.348 79.6514 7.392 79.4754 7.26C78.9694 6.908 78.2654 6.6 77.3634 6.6C76.2854 6.6 75.3614 7.018 75.3614 7.876C75.3614 8.668 76.1534 8.976 77.6494 9.328C79.8274 9.834 81.2574 10.648 81.2574 12.562C81.2574 15.246 78.8594 15.84 77.2534 15.84ZM88.4997 4.752C91.5137 4.752 93.3617 7.128 93.3617 9.768V10.582C93.3617 10.78 93.2297 10.912 93.0317 10.912H85.0897C85.3317 12.628 86.5417 13.992 88.6757 13.992C89.8637 13.992 90.9197 13.574 91.9977 12.782C92.1957 12.65 92.3497 12.672 92.4597 12.848L93.0757 13.772C93.1857 13.926 93.1637 14.102 93.0097 14.234C91.8217 15.29 90.2157 15.84 88.6537 15.84C85.1777 15.84 83.1097 13.53 83.1097 10.362C83.1097 6.886 85.5297 4.752 88.4997 4.752ZM85.1557 9.196H91.3597C91.2717 7.832 90.3037 6.6 88.4777 6.6C86.7617 6.6 85.5297 7.59 85.1557 9.196ZM100.747 15.84C97.6013 15.84 95.2913 13.486 95.2913 10.296C95.2913 7.106 97.6013 4.752 100.747 4.752C102.155 4.752 103.299 5.126 104.135 5.742C104.311 5.874 104.311 6.028 104.223 6.204L103.651 7.194C103.541 7.392 103.387 7.436 103.211 7.326C102.727 7.018 102.067 6.6 100.879 6.6C98.5693 6.6 97.2273 8.228 97.2273 10.296C97.2273 12.364 98.5693 13.992 100.879 13.992C102.045 13.992 102.727 13.618 103.255 13.288C103.431 13.2 103.585 13.244 103.695 13.42L104.223 14.388C104.311 14.564 104.333 14.696 104.267 14.762C103.607 15.29 102.287 15.84 100.747 15.84ZM110.736 15.84C108.36 15.84 106.468 14.234 106.468 11.11V5.764C106.468 5.588 106.556 5.456 106.732 5.39L107.986 4.928C108.206 4.84 108.36 4.95 108.36 5.192V11.044C108.36 12.936 109.46 13.97 111.088 13.97C112.738 13.97 113.948 12.914 113.948 11.044V5.764C113.948 5.588 114.036 5.456 114.212 5.39L115.466 4.928C115.686 4.84 115.84 4.95 115.84 5.192V15.246C115.84 15.444 115.708 15.576 115.51 15.576H114.278C114.08 15.576 113.948 15.444 113.948 15.246V14.278C113.134 15.466 111.88 15.84 110.736 15.84ZM125.609 6.028C125.675 6.226 125.609 6.38 125.411 6.468L120.373 8.558V15.246C120.373 15.444 120.241 15.576 120.043 15.576H118.811C118.613 15.576 118.481 15.444 118.481 15.246V5.764C118.481 5.588 118.569 5.456 118.745 5.39L119.999 4.928C120.219 4.84 120.373 4.95 120.373 5.192V6.71L124.773 4.884C124.971 4.796 125.125 4.862 125.213 5.06L125.609 6.028ZM127.791 3.806C127.571 3.872 127.417 3.784 127.417 3.542V1.98C127.417 1.804 127.505 1.672 127.681 1.606L129.067 1.078C129.287 0.990003 129.441 1.1 129.441 1.342V2.97C129.441 3.146 129.353 3.278 129.177 3.344L127.791 3.806ZM127.813 15.576C127.615 15.576 127.483 15.444 127.483 15.246V5.764C127.483 5.588 127.571 5.456 127.747 5.39L129.001 4.928C129.221 4.84 129.375 4.95 129.375 5.192V15.246C129.375 15.444 129.243 15.576 129.045 15.576H127.813ZM137.45 15.07C137.516 15.246 137.45 15.422 137.23 15.532C136.746 15.752 136.328 15.84 135.866 15.84C133.424 15.84 132.852 14.256 132.852 12.364V6.732H131.466C131.268 6.732 131.136 6.6 131.136 6.402V5.346C131.136 5.148 131.268 5.016 131.466 5.016H132.852V3.344C132.852 3.168 132.94 3.036 133.116 2.97L134.37 2.508C134.59 2.42 134.744 2.53 134.744 2.772V5.016H136.636C136.834 5.016 136.966 5.148 136.966 5.346V6.402C136.966 6.6 136.834 6.732 136.636 6.732H134.744V12.386C134.744 13.288 135.074 13.948 136.02 13.948C136.218 13.948 136.416 13.904 136.658 13.816C136.878 13.75 137.032 13.794 137.098 14.014L137.45 15.07ZM148.469 5.016C148.711 5.016 148.821 5.17 148.733 5.39L142.595 19.734C142.529 19.91 142.397 19.976 142.221 19.976H140.835C140.593 19.976 140.483 19.822 140.571 19.602L142.683 14.652L138.723 5.39C138.635 5.17 138.745 5.016 138.987 5.016H140.395C140.571 5.016 140.725 5.104 140.791 5.28L143.717 12.232L146.665 5.28C146.731 5.104 146.863 5.016 147.039 5.016H148.469ZM162.799 6.028C162.865 6.226 162.799 6.38 162.601 6.468L157.563 8.558V15.246C157.563 15.444 157.431 15.576 157.233 15.576H156.001C155.803 15.576 155.671 15.444 155.671 15.246V5.764C155.671 5.588 155.759 5.456 155.935 5.39L157.189 4.928C157.409 4.84 157.563 4.95 157.563 5.192V6.71L161.963 4.884C162.161 4.796 162.315 4.862 162.403 5.06L162.799 6.028ZM169.002 4.752C172.016 4.752 173.864 7.128 173.864 9.768V10.582C173.864 10.78 173.732 10.912 173.534 10.912H165.592C165.834 12.628 167.044 13.992 169.178 13.992C170.366 13.992 171.422 13.574 172.5 12.782C172.698 12.65 172.852 12.672 172.962 12.848L173.578 13.772C173.688 13.926 173.666 14.102 173.512 14.234C172.324 15.29 170.718 15.84 169.156 15.84C165.68 15.84 163.612 13.53 163.612 10.362C163.612 6.886 166.032 4.752 169.002 4.752ZM165.658 9.196H171.862C171.774 7.832 170.806 6.6 168.98 6.6C167.264 6.6 166.032 7.59 165.658 9.196ZM184.989 19.976C184.791 19.976 184.659 19.844 184.659 19.646V14.388C184.043 15.158 182.591 15.84 181.073 15.84C177.729 15.84 175.793 13.288 175.793 10.274C175.793 6.908 178.301 4.752 181.183 4.752C182.635 4.752 183.977 5.302 184.659 6.226V5.764C184.659 5.588 184.747 5.456 184.923 5.39L186.177 4.928C186.397 4.84 186.551 4.928 186.551 5.17V19.646C186.551 19.844 186.419 19.976 186.221 19.976H184.989ZM181.205 13.97C183.163 13.97 184.681 12.716 184.681 10.274C184.681 7.854 183.163 6.6 181.205 6.6C179.335 6.6 177.729 7.854 177.729 10.274C177.729 12.694 179.335 13.97 181.205 13.97ZM193.322 15.84C190.946 15.84 189.054 14.234 189.054 11.11V5.764C189.054 5.588 189.142 5.456 189.318 5.39L190.572 4.928C190.792 4.84 190.946 4.95 190.946 5.192V11.044C190.946 12.936 192.046 13.97 193.674 13.97C195.324 13.97 196.534 12.914 196.534 11.044V5.764C196.534 5.588 196.622 5.456 196.798 5.39L198.052 4.928C198.272 4.84 198.426 4.95 198.426 5.192V15.246C198.426 15.444 198.294 15.576 198.096 15.576H196.864C196.666 15.576 196.534 15.444 196.534 15.246V14.278C195.72 15.466 194.466 15.84 193.322 15.84ZM201.375 3.806C201.155 3.872 201.001 3.784 201.001 3.542V1.98C201.001 1.804 201.089 1.672 201.265 1.606L202.651 1.078C202.871 0.990003 203.025 1.1 203.025 1.342V2.97C203.025 3.146 202.937 3.278 202.761 3.344L201.375 3.806ZM201.397 15.576C201.199 15.576 201.067 15.444 201.067 15.246V5.764C201.067 5.588 201.155 5.456 201.331 5.39L202.585 4.928C202.805 4.84 202.959 4.95 202.959 5.192V15.246C202.959 15.444 202.827 15.576 202.629 15.576H201.397ZM212.728 6.028C212.794 6.226 212.728 6.38 212.53 6.468L207.492 8.558V15.246C207.492 15.444 207.36 15.576 207.162 15.576H205.93C205.732 15.576 205.6 15.444 205.6 15.246V5.764C205.6 5.588 205.688 5.456 205.864 5.39L207.118 4.928C207.338 4.84 207.492 4.95 207.492 5.192V6.71L211.892 4.884C212.09 4.796 212.244 4.862 212.332 5.06L212.728 6.028ZM218.931 4.752C221.945 4.752 223.793 7.128 223.793 9.768V10.582C223.793 10.78 223.661 10.912 223.463 10.912H215.521C215.763 12.628 216.973 13.992 219.107 13.992C220.295 13.992 221.351 13.574 222.429 12.782C222.627 12.65 222.781 12.672 222.891 12.848L223.507 13.772C223.617 13.926 223.595 14.102 223.441 14.234C222.253 15.29 220.647 15.84 219.085 15.84C215.609 15.84 213.541 13.53 213.541 10.362C213.541 6.886 215.961 4.752 218.931 4.752ZM215.587 9.196H221.791C221.703 7.832 220.735 6.6 218.909 6.6C217.193 6.6 215.961 7.59 215.587 9.196ZM229.771 15.84C228.209 15.84 226.625 15.334 225.679 14.234C225.547 14.102 225.569 13.926 225.679 13.772L226.383 12.87C226.515 12.694 226.669 12.694 226.845 12.826C227.505 13.398 228.385 13.992 229.815 13.992C231.179 13.992 231.927 13.552 231.927 12.694C231.927 11.814 231.157 11.462 229.727 11.11C227.945 10.67 225.987 10.142 225.987 7.986C225.987 6.094 227.483 4.752 229.837 4.752C231.355 4.752 232.433 5.28 233.137 5.852C233.291 6.006 233.291 6.138 233.159 6.314L232.455 7.194C232.323 7.348 232.169 7.392 231.993 7.26C231.487 6.908 230.783 6.6 229.881 6.6C228.803 6.6 227.879 7.018 227.879 7.876C227.879 8.668 228.671 8.976 230.167 9.328C232.345 9.834 233.775 10.648 233.775 12.562C233.775 15.246 231.377 15.84 229.771 15.84ZM245.978 15.84C242.634 15.84 240.698 13.288 240.698 10.274C240.698 6.908 243.206 4.752 246.088 4.752C247.54 4.752 248.882 5.302 249.564 6.226V5.764C249.564 5.588 249.652 5.456 249.828 5.39L251.082 4.928C251.302 4.84 251.456 4.928 251.456 5.17V15.246C251.456 15.444 251.324 15.576 251.126 15.576H249.894C249.696 15.576 249.564 15.444 249.564 15.246V14.388C248.948 15.158 247.496 15.84 245.978 15.84ZM246.11 13.97C248.068 13.97 249.586 12.716 249.586 10.274C249.586 7.854 248.068 6.6 246.11 6.6C244.24 6.6 242.634 7.854 242.634 10.274C242.634 12.694 244.24 13.97 246.11 13.97ZM254.421 15.576C254.223 15.576 254.091 15.444 254.091 15.246V0.924004C254.091 0.748003 254.179 0.616004 254.355 0.550003L255.609 0.0880028C255.829 3.93391e-06 255.983 0.110004 255.983 0.352003V15.246C255.983 15.444 255.851 15.576 255.653 15.576H254.421ZM258.954 15.576C258.756 15.576 258.624 15.444 258.624 15.246V0.924004C258.624 0.748003 258.712 0.616004 258.888 0.550003L260.142 0.0880028C260.362 3.93391e-06 260.516 0.110004 260.516 0.352003V15.246C260.516 15.444 260.384 15.576 260.186 15.576H258.954ZM273.309 15.84C270.141 15.84 267.875 13.486 267.875 10.296C267.875 7.106 270.141 4.752 273.309 4.752C276.477 4.752 278.721 7.106 278.721 10.296C278.721 13.486 276.477 15.84 273.309 15.84ZM273.309 13.992C275.465 13.992 276.785 12.364 276.785 10.296C276.785 8.228 275.465 6.6 273.309 6.6C271.131 6.6 269.811 8.228 269.811 10.296C269.811 12.364 271.131 13.992 273.309 13.992ZM285.985 0.396003C286.183 0.506003 286.249 0.638004 286.183 0.814004L285.809 1.892C285.743 2.09 285.589 2.156 285.369 2.046C285.105 1.936 284.951 1.936 284.731 1.936C283.785 1.936 283.455 2.596 283.455 3.498V5.016H285.259C285.457 5.016 285.589 5.148 285.589 5.346V6.402C285.589 6.6 285.457 6.732 285.259 6.732H283.455V15.246C283.455 15.444 283.323 15.576 283.125 15.576H281.893C281.695 15.576 281.563 15.444 281.563 15.246V6.732H280.639C280.441 6.732 280.309 6.6 280.309 6.402V5.346C280.309 5.148 280.441 5.016 280.639 5.016H281.563V3.52C281.563 2.024 281.915 0.0440034 284.511 0.0440034C285.039 0.0440034 285.545 0.154003 285.985 0.396003ZM297.844 15.84C294.676 15.84 292.41 13.486 292.41 10.296C292.41 7.106 294.676 4.752 297.844 4.752C301.012 4.752 303.256 7.106 303.256 10.296C303.256 13.486 301.012 15.84 297.844 15.84ZM297.844 13.992C300 13.992 301.32 12.364 301.32 10.296C301.32 8.228 300 6.6 297.844 6.6C295.666 6.6 294.346 8.228 294.346 10.296C294.346 12.364 295.666 13.992 297.844 13.992ZM309.682 15.84C307.306 15.84 305.414 14.234 305.414 11.11V5.764C305.414 5.588 305.502 5.456 305.678 5.39L306.932 4.928C307.152 4.84 307.306 4.95 307.306 5.192V11.044C307.306 12.936 308.406 13.97 310.034 13.97C311.684 13.97 312.894 12.914 312.894 11.044V5.764C312.894 5.588 312.982 5.456 313.158 5.39L314.412 4.928C314.632 4.84 314.786 4.95 314.786 5.192V15.246C314.786 15.444 314.654 15.576 314.456 15.576H313.224C313.026 15.576 312.894 15.444 312.894 15.246V14.278C312.08 15.466 310.826 15.84 309.682 15.84ZM324.555 6.028C324.621 6.226 324.555 6.38 324.357 6.468L319.319 8.558V15.246C319.319 15.444 319.187 15.576 318.989 15.576H317.757C317.559 15.576 317.427 15.444 317.427 15.246V5.764C317.427 5.588 317.515 5.456 317.691 5.39L318.945 4.928C319.165 4.84 319.319 4.95 319.319 5.192V6.71L323.719 4.884C323.917 4.796 324.071 4.862 324.159 5.06L324.555 6.028ZM336.537 4.752C339.551 4.752 341.399 7.128 341.399 9.768V10.582C341.399 10.78 341.267 10.912 341.069 10.912H333.127C333.369 12.628 334.579 13.992 336.713 13.992C337.901 13.992 338.957 13.574 340.035 12.782C340.233 12.65 340.387 12.672 340.497 12.848L341.113 13.772C341.223 13.926 341.201 14.102 341.047 14.234C339.859 15.29 338.253 15.84 336.691 15.84C333.215 15.84 331.147 13.53 331.147 10.362C331.147 6.886 333.567 4.752 336.537 4.752ZM333.193 9.196H339.397C339.309 7.832 338.341 6.6 336.515 6.6C334.799 6.6 333.567 7.59 333.193 9.196ZM344.01 15.576C343.812 15.576 343.68 15.444 343.68 15.246V5.764C343.68 5.588 343.768 5.456 343.944 5.39L345.198 4.928C345.418 4.84 345.572 4.95 345.572 5.192V6.314C346.386 5.126 347.64 4.752 348.784 4.752C351.16 4.752 353.052 6.358 353.052 9.482V15.246C353.052 15.444 352.92 15.576 352.722 15.576H351.49C351.292 15.576 351.16 15.444 351.16 15.246V9.548C351.16 7.656 350.06 6.622 348.432 6.622C346.782 6.622 345.572 7.678 345.572 9.548V15.246C345.572 15.444 345.44 15.576 345.242 15.576H344.01ZM360.599 4.752C363.613 4.752 365.461 7.128 365.461 9.768V10.582C365.461 10.78 365.329 10.912 365.131 10.912H357.189C357.431 12.628 358.641 13.992 360.775 13.992C361.963 13.992 363.019 13.574 364.097 12.782C364.295 12.65 364.449 12.672 364.559 12.848L365.175 13.772C365.285 13.926 365.263 14.102 365.109 14.234C363.921 15.29 362.315 15.84 360.753 15.84C357.277 15.84 355.209 13.53 355.209 10.362C355.209 6.886 357.629 4.752 360.599 4.752ZM357.255 9.196H363.459C363.371 7.832 362.403 6.6 360.577 6.6C358.861 6.6 357.629 7.59 357.255 9.196ZM374.871 6.028C374.937 6.226 374.871 6.38 374.673 6.468L369.635 8.558V15.246C369.635 15.444 369.503 15.576 369.305 15.576H368.073C367.875 15.576 367.743 15.444 367.743 15.246V5.764C367.743 5.588 367.831 5.456 368.007 5.39L369.261 4.928C369.481 4.84 369.635 4.95 369.635 5.192V6.71L374.035 4.884C374.233 4.796 374.387 4.862 374.475 5.06L374.871 6.028ZM380.898 20.24C379.336 20.24 377.774 19.866 376.256 18.722C376.102 18.59 376.08 18.436 376.168 18.26L376.806 17.16C376.916 16.962 377.07 16.94 377.268 17.072C378.302 17.864 379.578 18.392 380.92 18.392C383.274 18.392 384.55 16.896 384.55 14.52V14.388C383.978 15.092 382.636 15.84 380.898 15.84C377.664 15.84 375.684 13.288 375.684 10.296C375.684 6.908 378.192 4.752 381.074 4.752C382.526 4.752 383.868 5.302 384.55 6.226V5.764C384.55 5.588 384.638 5.456 384.814 5.39L386.068 4.928C386.288 4.84 386.442 4.928 386.442 5.17V14.124C386.442 18.392 384.286 20.24 380.898 20.24ZM381.118 13.97C383.032 13.97 384.572 12.716 384.572 10.274C384.572 7.854 383.032 6.6 381.118 6.6C379.204 6.6 377.62 7.854 377.62 10.274C377.62 12.694 379.204 13.97 381.118 13.97ZM398.053 5.016C398.295 5.016 398.405 5.17 398.317 5.39L392.179 19.734C392.113 19.91 391.981 19.976 391.805 19.976H390.419C390.177 19.976 390.067 19.822 390.155 19.602L392.267 14.652L388.307 5.39C388.219 5.17 388.329 5.016 388.571 5.016H389.979C390.155 5.016 390.309 5.104 390.375 5.28L393.301 12.232L396.249 5.28C396.315 5.104 396.447 5.016 396.623 5.016H398.053ZM399.413 15.576C399.215 15.576 399.083 15.444 399.083 15.246V13.882C399.083 13.684 399.215 13.552 399.413 13.552H400.777C400.975 13.552 401.107 13.684 401.107 13.882V15.246C401.107 15.444 400.975 15.576 400.777 15.576H399.413Z" fill="#243746"/>
</svg>
