<svg width="249" height="16" viewBox="0 0 249 16" fill="none" xmlns="http://www.w3.org/2000/svg">
<path d="M3.60721 15.5181C3.43121 15.5181 3.29921 15.4521 3.23321 15.2541L0.0212143 5.3321C-0.0447857 5.1121 0.0432143 4.9581 0.285214 4.9581H1.53921C1.71521 4.9581 1.86921 5.0461 1.91321 5.2221L4.17921 12.5921L6.37921 5.2441C6.42321 5.0681 6.57721 4.9581 6.75321 4.9581H8.00721C8.18321 4.9581 8.33722 5.0681 8.38122 5.2441L10.5812 12.5921L12.8472 5.2221C12.8912 5.0461 13.0452 4.9581 13.2212 4.9581H14.4312C14.6732 4.9581 14.7832 5.0901 14.7172 5.3321L11.5272 15.2541C11.4612 15.4521 11.3292 15.5181 11.1532 15.5181H10.0092C9.83321 15.5181 9.67921 15.4301 9.63521 15.2541L7.39121 7.9281L5.12521 15.2541C5.08121 15.4301 4.92721 15.5181 4.75121 15.5181H3.60721Z" fill="#243746"/>
<path d="M16.6922 15.5181C16.4942 15.5181 16.3622 15.3861 16.3622 15.1881V0.866103C16.3622 0.690102 16.4502 0.558103 16.6262 0.492102L17.8802 0.0301003C18.1002 -0.0578985 18.2542 0.0521027 18.2542 0.294102V6.2561C19.0022 5.1561 20.3662 4.6941 21.5542 4.6941C23.8862 4.6941 25.7342 6.3001 25.7342 9.4241V15.1881C25.7342 15.3861 25.6022 15.5181 25.4042 15.5181H24.1722C23.9742 15.5181 23.8422 15.3861 23.8422 15.1881V9.4901C23.8422 7.5981 22.7422 6.5641 21.1142 6.5641C19.4642 6.5641 18.2542 7.6201 18.2542 9.4901V15.1881C18.2542 15.3861 18.1222 15.5181 17.9242 15.5181H16.6922Z" fill="#243746"/>
<path d="M32.9511 15.7821C29.6071 15.7821 27.6711 13.2301 27.6711 10.2161C27.6711 6.8501 30.1791 4.6941 33.0611 4.6941C34.5131 4.6941 35.8551 5.2441 36.5371 6.1681V5.7061C36.5371 5.5301 36.6251 5.3981 36.8011 5.3321L38.0551 4.8701C38.2751 4.7821 38.4291 4.8701 38.4291 5.1121V15.1881C38.4291 15.3861 38.2971 15.5181 38.0991 15.5181H36.8671C36.6691 15.5181 36.5371 15.3861 36.5371 15.1881V14.3301C35.9211 15.1001 34.4691 15.7821 32.9511 15.7821ZM33.0831 13.9121C35.0411 13.9121 36.5591 12.6581 36.5591 10.2161C36.5591 7.7961 35.0411 6.5421 33.0831 6.5421C31.2131 6.5421 29.6071 7.7961 29.6071 10.2161C29.6071 12.6361 31.2131 13.9121 33.0831 13.9121Z" fill="#243746"/>
<path d="M46.2781 15.0121C46.3441 15.1881 46.2781 15.3641 46.0581 15.4741C45.5741 15.6941 45.1561 15.7821 44.6941 15.7821C42.2521 15.7821 41.6801 14.1981 41.6801 12.3061V6.6741H40.2941C40.0961 6.6741 39.9641 6.5421 39.9641 6.3441V5.2881C39.9641 5.0901 40.0961 4.9581 40.2941 4.9581H41.6801V3.2861C41.6801 3.1101 41.7681 2.9781 41.9441 2.9121L43.1981 2.4501C43.4181 2.3621 43.5721 2.4721 43.5721 2.7141V4.9581H45.4641C45.6621 4.9581 45.7941 5.0901 45.7941 5.2881V6.3441C45.7941 6.5421 45.6621 6.6741 45.4641 6.6741H43.5721V12.3281C43.5721 13.2301 43.9021 13.8901 44.8481 13.8901C45.0461 13.8901 45.2441 13.8461 45.4861 13.7581C45.7061 13.6921 45.8601 13.7361 45.9261 13.9561L46.2781 15.0121Z" fill="#243746"/>
<path d="M52.7519 4.6941C55.7659 4.6941 57.6139 7.0701 57.6139 9.7101V10.5241C57.6139 10.7221 57.4819 10.8541 57.2839 10.8541H49.3419C49.5839 12.5701 50.7939 13.9341 52.9279 13.9341C54.1159 13.9341 55.1719 13.5161 56.2499 12.7241C56.4479 12.5921 56.6019 12.6141 56.7119 12.7901L57.3279 13.7141C57.438 13.8681 57.4159 14.0441 57.2619 14.1761C56.0739 15.2321 54.4679 15.7821 52.9059 15.7821C49.4299 15.7821 47.3619 13.4721 47.3619 10.3041C47.3619 6.8281 49.7819 4.6941 52.7519 4.6941ZM49.4079 9.1381H55.6119C55.5239 7.7741 54.5559 6.5421 52.7299 6.5421C51.0139 6.5421 49.7819 7.5321 49.4079 9.1381Z" fill="#243746"/>
<path d="M62.944 15.5181C62.768 15.5181 62.614 15.4301 62.548 15.2541L58.39 5.3321C58.302 5.1121 58.412 4.9581 58.654 4.9581H60.062C60.238 4.9581 60.392 5.0461 60.458 5.2221L63.604 13.1861L66.75 5.2221C66.816 5.0461 66.97 4.9581 67.146 4.9581H68.554C68.796 4.9581 68.906 5.1121 68.818 5.3321L64.66 15.2541C64.594 15.4301 64.44 15.5181 64.264 15.5181H62.944Z" fill="#243746"/>
<path d="M74.9995 4.6941C78.0135 4.6941 79.8615 7.0701 79.8615 9.7101V10.5241C79.8615 10.7221 79.7294 10.8541 79.5314 10.8541H71.5894C71.8314 12.5701 73.0415 13.9341 75.1755 13.9341C76.3635 13.9341 77.4195 13.5161 78.4975 12.7241C78.6955 12.5921 78.8494 12.6141 78.9594 12.7901L79.5754 13.7141C79.6854 13.8681 79.6635 14.0441 79.5095 14.1761C78.3215 15.2321 76.7155 15.7821 75.1535 15.7821C71.6775 15.7821 69.6095 13.4721 69.6095 10.3041C69.6095 6.8281 72.0295 4.6941 74.9995 4.6941ZM71.6554 9.1381H77.8595C77.7715 7.7741 76.8034 6.5421 74.9774 6.5421C73.2614 6.5421 72.0294 7.5321 71.6554 9.1381Z" fill="#243746"/>
<path d="M89.0511 5.9701C89.1171 6.1681 89.0511 6.3221 88.8531 6.4101L83.8151 8.5001V15.1881C83.8151 15.3861 83.6831 15.5181 83.4851 15.5181H82.2531C82.0551 15.5181 81.9231 15.3861 81.9231 15.1881V5.7061C81.9231 5.5301 82.0111 5.3981 82.1871 5.3321L83.4411 4.8701C83.6611 4.7821 83.8151 4.8921 83.8151 5.1341V6.6521L88.2151 4.8261C88.4131 4.7381 88.5671 4.8041 88.6551 5.0021L89.0511 5.9701Z" fill="#243746"/>
<path d="M100.593 4.6941C103.607 4.6941 105.455 7.0701 105.455 9.7101V10.5241C105.455 10.7221 105.323 10.8541 105.125 10.8541H97.1833C97.4253 12.5701 98.6354 13.9341 100.769 13.9341C101.957 13.9341 103.013 13.5161 104.091 12.7241C104.289 12.5921 104.443 12.6141 104.553 12.7901L105.169 13.7141C105.279 13.8681 105.257 14.0441 105.103 14.1761C103.915 15.2321 102.309 15.7821 100.747 15.7821C97.2714 15.7821 95.2034 13.4721 95.2034 10.3041C95.2034 6.8281 97.6234 4.6941 100.593 4.6941ZM97.2494 9.1381H103.453C103.365 7.7741 102.397 6.5421 100.571 6.5421C98.8553 6.5421 97.6234 7.5321 97.2494 9.1381Z" fill="#243746"/>
<path d="M107.847 15.5181C107.649 15.5181 107.517 15.3861 107.517 15.1881V0.866103C107.517 0.690102 107.605 0.558103 107.781 0.492102L109.035 0.0301003C109.255 -0.0578985 109.409 0.0521027 109.409 0.294102V15.1881C109.409 15.3861 109.277 15.5181 109.079 15.5181H107.847Z" fill="#243746"/>
<path d="M115.526 15.7821C113.964 15.7821 112.38 15.2761 111.434 14.1761C111.302 14.0441 111.324 13.8681 111.434 13.7141L112.138 12.8121C112.27 12.6361 112.424 12.6361 112.6 12.7681C113.26 13.3401 114.14 13.9341 115.57 13.9341C116.934 13.9341 117.682 13.4941 117.682 12.6361C117.682 11.7561 116.912 11.4041 115.482 11.0521C113.7 10.6121 111.742 10.0841 111.742 7.9281C111.742 6.0361 113.238 4.6941 115.592 4.6941C117.11 4.6941 118.188 5.2221 118.892 5.7941C119.046 5.9481 119.046 6.0801 118.914 6.2561L118.21 7.1361C118.078 7.2901 117.924 7.3341 117.748 7.2021C117.242 6.8501 116.538 6.5421 115.636 6.5421C114.558 6.5421 113.634 6.9601 113.634 7.8181C113.634 8.6101 114.426 8.9181 115.922 9.2701C118.1 9.7761 119.53 10.5901 119.53 12.5041C119.53 15.1881 117.132 15.7821 115.526 15.7821Z" fill="#243746"/>
<path d="M126.552 4.6941C129.566 4.6941 131.414 7.0701 131.414 9.7101V10.5241C131.414 10.7221 131.283 10.8541 131.085 10.8541H123.142C123.384 12.5701 124.595 13.9341 126.729 13.9341C127.917 13.9341 128.972 13.5161 130.05 12.7241C130.248 12.5921 130.402 12.6141 130.512 12.7901L131.128 13.7141C131.238 13.8681 131.217 14.0441 131.062 14.1761C129.875 15.2321 128.268 15.7821 126.706 15.7821C123.23 15.7821 121.162 13.4721 121.162 10.3041C121.162 6.8281 123.582 4.6941 126.552 4.6941ZM123.208 9.1381H129.412C129.324 7.7741 128.356 6.5421 126.53 6.5421C124.814 6.5421 123.582 7.5321 123.208 9.1381Z" fill="#243746"/>
<path d="M143.43 15.7821C140.284 15.7821 137.974 13.4281 137.974 10.2381C137.974 7.0481 140.284 4.6941 143.43 4.6941C144.838 4.6941 145.982 5.0681 146.818 5.6841C146.994 5.8161 146.994 5.9701 146.906 6.1461L146.334 7.1361C146.224 7.3341 146.07 7.3781 145.894 7.2681C145.41 6.9601 144.75 6.5421 143.562 6.5421C141.252 6.5421 139.91 8.1701 139.91 10.2381C139.91 12.3061 141.252 13.9341 143.562 13.9341C144.728 13.9341 145.41 13.5601 145.938 13.2301C146.114 13.1421 146.268 13.1861 146.378 13.3621L146.906 14.3301C146.994 14.5061 147.016 14.6381 146.95 14.7041C146.29 15.2321 144.97 15.7821 143.43 15.7821Z" fill="#243746"/>
<path d="M154.017 15.7821C150.849 15.7821 148.583 13.4281 148.583 10.2381C148.583 7.0481 150.849 4.6941 154.017 4.6941C157.185 4.6941 159.429 7.0481 159.429 10.2381C159.429 13.4281 157.185 15.7821 154.017 15.7821ZM154.017 13.9341C156.173 13.9341 157.493 12.3061 157.493 10.2381C157.493 8.1701 156.173 6.5421 154.017 6.5421C151.839 6.5421 150.519 8.1701 150.519 10.2381C150.519 12.3061 151.839 13.9341 154.017 13.9341Z" fill="#243746"/>
<path d="M161.828 15.5181C161.63 15.5181 161.498 15.3861 161.498 15.1881V5.7061C161.498 5.5301 161.586 5.3981 161.762 5.3321L163.016 4.8701C163.236 4.7821 163.39 4.8921 163.39 5.1341V6.2561C164.094 5.2221 165.216 4.6941 166.404 4.6941C167.592 4.6941 168.736 5.2661 169.396 6.4981C170.298 5.0901 171.618 4.6941 172.762 4.6941C175.072 4.6941 176.59 6.0801 176.59 9.2041V15.1881C176.59 15.3861 176.458 15.5181 176.26 15.5181H175.028C174.83 15.5181 174.698 15.3861 174.698 15.1881V9.4461C174.698 7.5981 173.84 6.5641 172.344 6.5641C170.848 6.5641 169.99 7.5981 169.99 9.4461V15.1881C169.99 15.3861 169.858 15.5181 169.66 15.5181H168.428C168.23 15.5181 168.098 15.3861 168.098 15.1881V9.4461C168.098 7.5981 167.24 6.5641 165.744 6.5641C164.248 6.5641 163.39 7.5981 163.39 9.4461V15.1881C163.39 15.3861 163.258 15.5181 163.06 15.5181H161.828Z" fill="#243746"/>
<path d="M183.911 4.6941C186.925 4.6941 188.773 7.0701 188.773 9.7101V10.5241C188.773 10.7221 188.641 10.8541 188.443 10.8541H180.501C180.743 12.5701 181.953 13.9341 184.087 13.9341C185.275 13.9341 186.331 13.5161 187.409 12.7241C187.607 12.5921 187.761 12.6141 187.871 12.7901L188.487 13.7141C188.597 13.8681 188.575 14.0441 188.421 14.1761C187.233 15.2321 185.627 15.7821 184.065 15.7821C180.589 15.7821 178.521 13.4721 178.521 10.3041C178.521 6.8281 180.941 4.6941 183.911 4.6941ZM180.567 9.1381H186.771C186.683 7.7741 185.715 6.5421 183.889 6.5421C182.173 6.5421 180.941 7.5321 180.567 9.1381Z" fill="#243746"/>
<path d="M194.531 15.7821C192.969 15.7821 191.385 15.2761 190.439 14.1761C190.307 14.0441 190.329 13.8681 190.439 13.7141L191.143 12.8121C191.275 12.6361 191.429 12.6361 191.605 12.7681C192.265 13.3401 193.145 13.9341 194.575 13.9341C195.939 13.9341 196.687 13.4941 196.687 12.6361C196.687 11.7561 195.917 11.4041 194.487 11.0521C192.705 10.6121 190.747 10.0841 190.747 7.9281C190.747 6.0361 192.243 4.6941 194.597 4.6941C196.115 4.6941 197.193 5.2221 197.897 5.7941C198.051 5.9481 198.051 6.0801 197.919 6.2561L197.215 7.1361C197.083 7.2901 196.929 7.3341 196.753 7.2021C196.247 6.8501 195.543 6.5421 194.641 6.5421C193.563 6.5421 192.639 6.9601 192.639 7.8181C192.639 8.6101 193.431 8.9181 194.927 9.2701C197.105 9.7761 198.535 10.5901 198.535 12.5041C198.535 15.1881 196.137 15.7821 194.531 15.7821Z" fill="#243746"/>
<path d="M205.7 15.5181C205.502 15.5181 205.37 15.3861 205.37 15.1881V5.7061C205.37 5.5301 205.458 5.3981 205.634 5.3321L206.888 4.8701C207.108 4.7821 207.262 4.8921 207.262 5.1341V6.2561C208.076 5.0681 209.33 4.6941 210.474 4.6941C212.85 4.6941 214.742 6.3001 214.742 9.4241V15.1881C214.742 15.3861 214.61 15.5181 214.412 15.5181H213.18C212.982 15.5181 212.85 15.3861 212.85 15.1881V9.4901C212.85 7.5981 211.75 6.5641 210.122 6.5641C208.472 6.5641 207.262 7.6201 207.262 9.4901V15.1881C207.262 15.3861 207.13 15.5181 206.932 15.5181H205.7Z" fill="#243746"/>
<path d="M222.069 4.6941C225.083 4.6941 226.931 7.0701 226.931 9.7101V10.5241C226.931 10.7221 226.799 10.8541 226.601 10.8541H218.659C218.901 12.5701 220.111 13.9341 222.245 13.9341C223.433 13.9341 224.489 13.5161 225.567 12.7241C225.765 12.5921 225.919 12.6141 226.029 12.7901L226.645 13.7141C226.755 13.8681 226.733 14.0441 226.579 14.1761C225.391 15.2321 223.785 15.7821 222.223 15.7821C218.747 15.7821 216.679 13.4721 216.679 10.3041C216.679 6.8281 219.099 4.6941 222.069 4.6941ZM218.725 9.1381H224.929C224.841 7.7741 223.873 6.5421 222.047 6.5421C220.331 6.5421 219.099 7.5321 218.725 9.1381Z" fill="#243746"/>
<path d="M237.27 15.1221C237.424 15.3641 237.336 15.5181 237.072 15.5181H235.62C235.444 15.5181 235.29 15.4521 235.202 15.3201L232.672 11.7341L230.142 15.3201C230.054 15.4521 229.9 15.5181 229.724 15.5181H228.272C228.008 15.5181 227.92 15.3421 228.074 15.1221L231.572 10.1501L228.184 5.3541C228.03 5.1121 228.118 4.9581 228.382 4.9581H229.834C230.01 4.9581 230.164 5.0241 230.252 5.1561L232.672 8.5881L235.092 5.1561C235.18 5.0241 235.334 4.9581 235.51 4.9581H236.962C237.226 4.9581 237.314 5.1341 237.16 5.3541L233.772 10.1501L237.27 15.1221Z" fill="#243746"/>
<path d="M244.798 15.0121C244.864 15.1881 244.798 15.3641 244.578 15.4741C244.094 15.6941 243.676 15.7821 243.214 15.7821C240.772 15.7821 240.2 14.1981 240.2 12.3061V6.6741H238.814C238.616 6.6741 238.484 6.5421 238.484 6.3441V5.2881C238.484 5.0901 238.616 4.9581 238.814 4.9581H240.2V3.2861C240.2 3.1101 240.288 2.9781 240.464 2.9121L241.718 2.4501C241.938 2.3621 242.092 2.4721 242.092 2.7141V4.9581H243.984C244.182 4.9581 244.314 5.0901 244.314 5.2881V6.3441C244.314 6.5421 244.182 6.6741 243.984 6.6741H242.092V12.3281C242.092 13.2301 242.422 13.8901 243.368 13.8901C243.566 13.8901 243.764 13.8461 244.006 13.7581C244.226 13.6921 244.38 13.7361 244.446 13.9561L244.798 15.0121Z" fill="#243746"/>
<path d="M246.731 15.5181C246.533 15.5181 246.401 15.3861 246.401 15.1881V13.8241C246.401 13.6261 246.533 13.4941 246.731 13.4941H248.095C248.293 13.4941 248.425 13.6261 248.425 13.8241V15.1881C248.425 15.3861 248.293 15.5181 248.095 15.5181H246.731Z" fill="#243746"/>
</svg>
