<svg width="117" height="15" viewBox="0 0 117 15" fill="none" xmlns="http://www.w3.org/2000/svg">
<path d="M3.84 11.488C1.408 11.488 0 9.632 0 7.44C0 4.992 1.824 3.424 3.92 3.424C4.976 3.424 5.952 3.824 6.448 4.496V4.16C6.448 4.032 6.512 3.936 6.64 3.888L7.552 3.552C7.712 3.488 7.824 3.552 7.824 3.728V11.056C7.824 11.2 7.728 11.296 7.584 11.296H6.688C6.544 11.296 6.448 11.2 6.448 11.056V10.432C6 10.992 4.944 11.488 3.84 11.488ZM3.936 10.128C5.36 10.128 6.464 9.216 6.464 7.44C6.464 5.68 5.36 4.768 3.936 4.768C2.576 4.768 1.408 5.68 1.408 7.44C1.408 9.2 2.576 10.128 3.936 10.128Z" fill="#243746"/>
<path d="M9.98038 11.296C9.83638 11.296 9.74037 11.2 9.74037 11.056V0.64C9.74037 0.512 9.80437 0.415999 9.93237 0.367999L10.8444 0.0319996C11.0044 -0.0319996 11.1164 0.0480003 11.1164 0.224V11.056C11.1164 11.2 11.0204 11.296 10.8764 11.296H9.98038Z" fill="#243746"/>
<path d="M13.2773 11.296C13.1333 11.296 13.0372 11.2 13.0372 11.056V0.64C13.0372 0.512 13.1012 0.415999 13.2292 0.367999L14.1412 0.0319996C14.3012 -0.0319996 14.4132 0.0480003 14.4132 0.224V11.056C14.4132 11.2 14.3173 11.296 14.1733 11.296H13.2773Z" fill="#243746"/>
<path d="M23.7176 11.488C21.4136 11.488 19.7656 9.776 19.7656 7.456C19.7656 5.136 21.4136 3.424 23.7176 3.424C26.0216 3.424 27.6536 5.136 27.6536 7.456C27.6536 9.776 26.0216 11.488 23.7176 11.488ZM23.7176 10.144C25.2856 10.144 26.2456 8.96 26.2456 7.456C26.2456 5.952 25.2856 4.768 23.7176 4.768C22.1336 4.768 21.1736 5.952 21.1736 7.456C21.1736 8.96 22.1336 10.144 23.7176 10.144Z" fill="#243746"/>
<path d="M32.936 0.256C33.08 0.335999 33.128 0.432 33.08 0.56L32.808 1.344C32.76 1.488 32.648 1.536 32.488 1.456C32.296 1.376 32.184 1.376 32.024 1.376C31.336 1.376 31.096 1.856 31.096 2.512V3.616H32.408C32.552 3.616 32.648 3.712 32.648 3.856V4.624C32.648 4.768 32.552 4.864 32.408 4.864H31.096V11.056C31.096 11.2 31 11.296 30.856 11.296H29.96C29.816 11.296 29.72 11.2 29.72 11.056V4.864H29.048C28.904 4.864 28.808 4.768 28.808 4.624V3.856C28.808 3.712 28.904 3.616 29.048 3.616H29.72V2.528C29.72 1.44 29.976 0 31.864 0C32.248 0 32.616 0.0799999 32.936 0.256Z" fill="#243746"/>
<path d="M41.5614 11.488C39.2574 11.488 37.6094 9.776 37.6094 7.456C37.6094 5.136 39.2574 3.424 41.5614 3.424C43.8654 3.424 45.4974 5.136 45.4974 7.456C45.4974 9.776 43.8654 11.488 41.5614 11.488ZM41.5614 10.144C43.1294 10.144 44.0894 8.96 44.0894 7.456C44.0894 5.952 43.1294 4.768 41.5614 4.768C39.9774 4.768 39.0174 5.952 39.0174 7.456C39.0174 8.96 39.9774 10.144 41.5614 10.144Z" fill="#243746"/>
<path d="M50.1702 11.488C48.4422 11.488 47.0662 10.32 47.0662 8.048V4.16C47.0662 4.032 47.1303 3.936 47.2583 3.888L48.1702 3.552C48.3302 3.488 48.4422 3.568 48.4422 3.744V8C48.4422 9.376 49.2423 10.128 50.4263 10.128C51.6263 10.128 52.5062 9.36 52.5062 8V4.16C52.5062 4.032 52.5703 3.936 52.6982 3.888L53.6102 3.552C53.7702 3.488 53.8823 3.568 53.8823 3.744V11.056C53.8823 11.2 53.7863 11.296 53.6423 11.296H52.7463C52.6023 11.296 52.5062 11.2 52.5062 11.056V10.352C51.9142 11.216 51.0022 11.488 50.1702 11.488Z" fill="#243746"/>
<path d="M60.9869 4.352C61.0349 4.496 60.9869 4.608 60.8429 4.672L57.1789 6.192V11.056C57.1789 11.2 57.0829 11.296 56.9389 11.296H56.0429C55.8989 11.296 55.8029 11.2 55.8029 11.056V4.16C55.8029 4.032 55.8669 3.936 55.9949 3.888L56.9069 3.552C57.0669 3.488 57.1789 3.568 57.1789 3.744V4.848L60.3789 3.52C60.5229 3.456 60.6349 3.504 60.6989 3.648L60.9869 4.352Z" fill="#243746"/>
<path d="M69.7012 3.424C71.8932 3.424 73.2373 5.152 73.2373 7.072V7.664C73.2373 7.808 73.1413 7.904 72.9973 7.904H67.2213C67.3973 9.152 68.2772 10.144 69.8292 10.144C70.6932 10.144 71.4612 9.84 72.2452 9.264C72.3892 9.168 72.5013 9.184 72.5813 9.312L73.0293 9.984C73.1093 10.096 73.0932 10.224 72.9812 10.32C72.1172 11.088 70.9492 11.488 69.8132 11.488C67.2852 11.488 65.7812 9.808 65.7812 7.504C65.7812 4.976 67.5412 3.424 69.7012 3.424ZM67.2692 6.656H71.7812C71.7172 5.664 71.0132 4.768 69.6852 4.768C68.4372 4.768 67.5412 5.488 67.2692 6.656Z" fill="#243746"/>
<path d="M75.1366 11.296C74.9926 11.296 74.8966 11.2 74.8966 11.056V4.16C74.8966 4.032 74.9606 3.936 75.0886 3.888L76.0006 3.552C76.1606 3.488 76.2726 3.568 76.2726 3.744V4.56C76.8646 3.696 77.7766 3.424 78.6086 3.424C80.3366 3.424 81.7126 4.592 81.7126 6.864V11.056C81.7126 11.2 81.6166 11.296 81.4726 11.296H80.5766C80.4326 11.296 80.3366 11.2 80.3366 11.056V6.912C80.3366 5.536 79.5366 4.784 78.3526 4.784C77.1526 4.784 76.2726 5.552 76.2726 6.912V11.056C76.2726 11.2 76.1766 11.296 76.0326 11.296H75.1366Z" fill="#243746"/>
<path d="M87.2012 3.424C89.3932 3.424 90.7373 5.152 90.7373 7.072V7.664C90.7373 7.808 90.6413 7.904 90.4973 7.904H84.7213C84.8973 9.152 85.7772 10.144 87.3292 10.144C88.1932 10.144 88.9612 9.84 89.7452 9.264C89.8892 9.168 90.0013 9.184 90.0813 9.312L90.5293 9.984C90.6093 10.096 90.5932 10.224 90.4812 10.32C89.6172 11.088 88.4492 11.488 87.3132 11.488C84.7852 11.488 83.2812 9.808 83.2812 7.504C83.2812 4.976 85.0412 3.424 87.2012 3.424ZM84.7692 6.656H89.2812C89.2172 5.664 88.5132 4.768 87.1852 4.768C85.9372 4.768 85.0412 5.488 84.7692 6.656Z" fill="#243746"/>
<path d="M97.5806 4.352C97.6286 4.496 97.5806 4.608 97.4366 4.672L93.7726 6.192V11.056C93.7726 11.2 93.6766 11.296 93.5326 11.296H92.6366C92.4926 11.296 92.3966 11.2 92.3966 11.056V4.16C92.3966 4.032 92.4606 3.936 92.5886 3.888L93.5006 3.552C93.6606 3.488 93.7726 3.568 93.7726 3.744V4.848L96.9726 3.52C97.1166 3.456 97.2286 3.504 97.2926 3.648L97.5806 4.352Z" fill="#243746"/>
<path d="M101.964 14.688C100.828 14.688 99.6919 14.416 98.5879 13.584C98.4759 13.488 98.4599 13.376 98.5239 13.248L98.9879 12.448C99.0679 12.304 99.1799 12.288 99.3239 12.384C100.076 12.96 101.004 13.344 101.98 13.344C103.692 13.344 104.62 12.256 104.62 10.528V10.432C104.204 10.944 103.228 11.488 101.964 11.488C99.6119 11.488 98.1719 9.632 98.1719 7.456C98.1719 4.992 99.9959 3.424 102.092 3.424C103.148 3.424 104.124 3.824 104.62 4.496V4.16C104.62 4.032 104.684 3.936 104.812 3.888L105.724 3.552C105.884 3.488 105.996 3.552 105.996 3.728V10.24C105.996 13.344 104.428 14.688 101.964 14.688ZM102.124 10.128C103.516 10.128 104.636 9.216 104.636 7.44C104.636 5.68 103.516 4.768 102.124 4.768C100.732 4.768 99.5799 5.68 99.5799 7.44C99.5799 9.2 100.732 10.128 102.124 10.128Z" fill="#243746"/>
<path d="M114.44 3.616C114.616 3.616 114.696 3.728 114.632 3.888L110.168 14.32C110.12 14.448 110.024 14.496 109.896 14.496H108.888C108.712 14.496 108.632 14.384 108.696 14.224L110.232 10.624L107.352 3.888C107.288 3.728 107.368 3.616 107.544 3.616H108.568C108.696 3.616 108.808 3.68 108.856 3.808L110.984 8.864L113.128 3.808C113.176 3.68 113.272 3.616 113.4 3.616H114.44Z" fill="#243746"/>
<path d="M115.43 11.296C115.286 11.296 115.19 11.2 115.19 11.056V10.064C115.19 9.92 115.286 9.824 115.43 9.824H116.422C116.566 9.824 116.662 9.92 116.662 10.064V11.056C116.662 11.2 116.566 11.296 116.422 11.296H115.43Z" fill="#243746"/>
</svg>
