<svg width="171" height="15" viewBox="0 0 171 15" fill="none" xmlns="http://www.w3.org/2000/svg">
<path d="M6.848 1.376H1.44V4.608H5.584C5.728 4.608 5.824 4.704 5.824 4.848V5.744C5.824 5.888 5.728 5.984 5.584 5.984H1.44V9.824H6.848C6.992 9.824 7.088 9.92 7.088 10.064V10.96C7.088 11.104 6.992 11.2 6.848 11.2H0.24C0.0960001 11.2 0 11.104 0 10.96V0.24C0 0.0960007 0.0960001 0 0.24 0H6.848C6.992 0 7.088 0.0960007 7.088 0.24V1.136C7.088 1.28 6.992 1.376 6.848 1.376Z" fill="#243746"/>
<path d="M8.955 11.2C8.811 11.2 8.715 11.104 8.715 10.96V4.064C8.715 3.936 8.779 3.84 8.907 3.792L9.819 3.456C9.979 3.392 10.091 3.472 10.091 3.648V4.464C10.683 3.6 11.595 3.328 12.427 3.328C14.155 3.328 15.531 4.496 15.531 6.768V10.96C15.531 11.104 15.435 11.2 15.291 11.2H14.395C14.251 11.2 14.155 11.104 14.155 10.96V6.816C14.155 5.44 13.355 4.688 12.171 4.688C10.971 4.688 10.091 5.456 10.091 6.816V10.96C10.091 11.104 9.995 11.2 9.851 11.2H8.955Z" fill="#243746"/>
<path d="M21.0196 3.328C23.2116 3.328 24.5556 5.056 24.5556 6.976V7.568C24.5556 7.712 24.4596 7.808 24.3156 7.808H18.5396C18.7156 9.056 19.5956 10.048 21.1476 10.048C22.0116 10.048 22.7796 9.744 23.5636 9.168C23.7076 9.072 23.8196 9.088 23.8996 9.216L24.3476 9.888C24.4276 10 24.4116 10.128 24.2996 10.224C23.4356 10.992 22.2676 11.392 21.1316 11.392C18.6036 11.392 17.0996 9.712 17.0996 7.408C17.0996 4.88 18.8596 3.328 21.0196 3.328ZM18.5876 6.56H23.0996C23.0356 5.568 22.3316 4.672 21.0036 4.672C19.7556 4.672 18.8596 5.392 18.5876 6.56Z" fill="#243746"/>
<path d="M31.399 4.256C31.447 4.4 31.399 4.512 31.255 4.576L27.591 6.096V10.96C27.591 11.104 27.495 11.2 27.351 11.2H26.455C26.311 11.2 26.215 11.104 26.215 10.96V4.064C26.215 3.936 26.279 3.84 26.407 3.792L27.319 3.456C27.479 3.392 27.591 3.472 27.591 3.648V4.752L30.791 3.424C30.935 3.36 31.047 3.408 31.111 3.552L31.399 4.256Z" fill="#243746"/>
<path d="M35.7822 14.592C34.6462 14.592 33.5103 14.32 32.4062 13.488C32.2943 13.392 32.2783 13.28 32.3423 13.152L32.8063 12.352C32.8863 12.208 32.9983 12.192 33.1423 12.288C33.8943 12.864 34.8222 13.248 35.7982 13.248C37.5102 13.248 38.4383 12.16 38.4383 10.432V10.336C38.0223 10.848 37.0462 11.392 35.7822 11.392C33.4302 11.392 31.9902 9.536 31.9902 7.36C31.9902 4.896 33.8142 3.328 35.9102 3.328C36.9662 3.328 37.9423 3.728 38.4383 4.4V4.064C38.4383 3.936 38.5022 3.84 38.6302 3.792L39.5423 3.456C39.7023 3.392 39.8143 3.456 39.8143 3.632V10.144C39.8143 13.248 38.2462 14.592 35.7822 14.592ZM35.9422 10.032C37.3342 10.032 38.4543 9.12 38.4543 7.344C38.4543 5.584 37.3342 4.672 35.9422 4.672C34.5502 4.672 33.3983 5.584 33.3983 7.344C33.3983 9.104 34.5502 10.032 35.9422 10.032Z" fill="#243746"/>
<path d="M48.2586 3.52C48.4346 3.52 48.5146 3.632 48.4506 3.792L43.9866 14.224C43.9386 14.352 43.8426 14.4 43.7146 14.4H42.7066C42.5306 14.4 42.4506 14.288 42.5146 14.128L44.0506 10.528L41.1706 3.792C41.1066 3.632 41.1866 3.52 41.3626 3.52H42.3866C42.5146 3.52 42.6266 3.584 42.6746 3.712L44.8026 8.768L46.9466 3.712C46.9946 3.584 47.0906 3.52 47.2186 3.52H48.2586Z" fill="#243746"/>
<path d="M56.1842 11.392C55.0482 11.392 53.8962 11.024 53.2082 10.224C53.1122 10.128 53.1282 10 53.2082 9.888L53.7202 9.232C53.8162 9.104 53.9283 9.104 54.0563 9.2C54.5363 9.616 55.1763 10.048 56.2163 10.048C57.2083 10.048 57.7523 9.728 57.7523 9.104C57.7523 8.464 57.1922 8.208 56.1522 7.952C54.8562 7.632 53.4323 7.248 53.4323 5.68C53.4323 4.304 54.5203 3.328 56.2323 3.328C57.3363 3.328 58.1202 3.712 58.6322 4.128C58.7442 4.24 58.7443 4.336 58.6483 4.464L58.1362 5.104C58.0402 5.216 57.9283 5.248 57.8003 5.152C57.4323 4.896 56.9202 4.672 56.2642 4.672C55.4802 4.672 54.8083 4.976 54.8083 5.6C54.8083 6.176 55.3842 6.4 56.4722 6.656C58.0562 7.024 59.0962 7.616 59.0962 9.008C59.0962 10.96 57.3523 11.392 56.1842 11.392Z" fill="#243746"/>
<path d="M64.3634 3.328C66.5554 3.328 67.8994 5.056 67.8994 6.976V7.568C67.8994 7.712 67.8034 7.808 67.6594 7.808H61.8834C62.0594 9.056 62.9394 10.048 64.4914 10.048C65.3554 10.048 66.1234 9.744 66.9074 9.168C67.0514 9.072 67.1634 9.088 67.2434 9.216L67.6914 9.888C67.7714 10 67.7554 10.128 67.6434 10.224C66.7794 10.992 65.6114 11.392 64.4754 11.392C61.9474 11.392 60.4434 9.712 60.4434 7.408C60.4434 4.88 62.2034 3.328 64.3634 3.328ZM61.9314 6.56H66.4434C66.3794 5.568 65.6754 4.672 64.3474 4.672C63.0994 4.672 62.2034 5.392 61.9314 6.56Z" fill="#243746"/>
<path d="M73.2708 11.392C70.9828 11.392 69.3027 9.68 69.3027 7.36C69.3027 5.04 70.9828 3.328 73.2708 3.328C74.2948 3.328 75.1267 3.6 75.7347 4.048C75.8627 4.144 75.8628 4.256 75.7988 4.384L75.3828 5.104C75.3028 5.248 75.1908 5.28 75.0628 5.2C74.7108 4.976 74.2308 4.672 73.3668 4.672C71.6868 4.672 70.7107 5.856 70.7107 7.36C70.7107 8.864 71.6868 10.048 73.3668 10.048C74.2148 10.048 74.7107 9.776 75.0947 9.536C75.2227 9.472 75.3347 9.504 75.4147 9.632L75.7988 10.336C75.8628 10.464 75.8787 10.56 75.8307 10.608C75.3507 10.992 74.3908 11.392 73.2708 11.392Z" fill="#243746"/>
<path d="M80.5355 11.392C78.8075 11.392 77.4315 10.224 77.4315 7.952V4.064C77.4315 3.936 77.4955 3.84 77.6235 3.792L78.5355 3.456C78.6955 3.392 78.8075 3.472 78.8075 3.648V7.904C78.8075 9.28 79.6075 10.032 80.7915 10.032C81.9915 10.032 82.8715 9.264 82.8715 7.904V4.064C82.8715 3.936 82.9355 3.84 83.0635 3.792L83.9755 3.456C84.1355 3.392 84.2475 3.472 84.2475 3.648V10.96C84.2475 11.104 84.1515 11.2 84.0075 11.2H83.1115C82.9675 11.2 82.8715 11.104 82.8715 10.96V10.256C82.2795 11.12 81.3675 11.392 80.5355 11.392Z" fill="#243746"/>
<path d="M91.3521 4.256C91.4001 4.4 91.3521 4.512 91.2081 4.576L87.5441 6.096V10.96C87.5441 11.104 87.4481 11.2 87.3041 11.2H86.4081C86.2641 11.2 86.1681 11.104 86.1681 10.96V4.064C86.1681 3.936 86.2321 3.84 86.3601 3.792L87.2721 3.456C87.4321 3.392 87.5441 3.472 87.5441 3.648V4.752L90.7441 3.424C90.8881 3.36 91.0001 3.408 91.0641 3.552L91.3521 4.256Z" fill="#243746"/>
<path d="M92.939 2.64C92.779 2.688 92.667 2.624 92.667 2.448V1.312C92.667 1.184 92.731 1.088 92.859 1.04L93.867 0.656C94.027 0.592 94.139 0.672 94.139 0.848001V2.032C94.139 2.16 94.075 2.256 93.947 2.304L92.939 2.64ZM92.955 11.2C92.811 11.2 92.715 11.104 92.715 10.96V4.064C92.715 3.936 92.779 3.84 92.907 3.792L93.819 3.456C93.979 3.392 94.091 3.472 94.091 3.648V10.96C94.091 11.104 93.995 11.2 93.851 11.2H92.955Z" fill="#243746"/>
<path d="M99.9639 10.832C100.012 10.96 99.9639 11.088 99.8039 11.168C99.4519 11.328 99.1479 11.392 98.8119 11.392C97.0359 11.392 96.6199 10.24 96.6199 8.864V4.768H95.6119C95.4679 4.768 95.3719 4.672 95.3719 4.528V3.76C95.3719 3.616 95.4679 3.52 95.6119 3.52H96.6199V2.304C96.6199 2.176 96.6839 2.08 96.8119 2.032L97.7239 1.696C97.8839 1.632 97.9959 1.712 97.9959 1.888V3.52H99.3719C99.5159 3.52 99.6119 3.616 99.6119 3.76V4.528C99.6119 4.672 99.5159 4.768 99.3719 4.768H97.9959V8.88C97.9959 9.536 98.2359 10.016 98.9239 10.016C99.0679 10.016 99.2119 9.984 99.3879 9.92C99.5479 9.872 99.6599 9.904 99.7079 10.064L99.9639 10.832Z" fill="#243746"/>
<path d="M107.977 3.52C108.153 3.52 108.233 3.632 108.169 3.792L103.705 14.224C103.657 14.352 103.561 14.4 103.433 14.4H102.425C102.249 14.4 102.169 14.288 102.233 14.128L103.769 10.528L100.889 3.792C100.825 3.632 100.905 3.52 101.081 3.52H102.105C102.233 3.52 102.345 3.584 102.393 3.712L104.521 8.768L106.665 3.712C106.713 3.584 106.809 3.52 106.937 3.52H107.977Z" fill="#243746"/>
<path d="M118.399 4.256C118.447 4.4 118.399 4.512 118.255 4.576L114.591 6.096V10.96C114.591 11.104 114.495 11.2 114.351 11.2H113.455C113.311 11.2 113.215 11.104 113.215 10.96V4.064C113.215 3.936 113.279 3.84 113.407 3.792L114.319 3.456C114.479 3.392 114.591 3.472 114.591 3.648V4.752L117.791 3.424C117.935 3.36 118.047 3.408 118.111 3.552L118.399 4.256Z" fill="#243746"/>
<path d="M122.91 3.328C125.102 3.328 126.446 5.056 126.446 6.976V7.568C126.446 7.712 126.35 7.808 126.206 7.808H120.43C120.606 9.056 121.486 10.048 123.038 10.048C123.902 10.048 124.67 9.744 125.454 9.168C125.598 9.072 125.71 9.088 125.79 9.216L126.238 9.888C126.318 10 126.302 10.128 126.19 10.224C125.326 10.992 124.158 11.392 123.022 11.392C120.494 11.392 118.99 9.712 118.99 7.408C118.99 4.88 120.75 3.328 122.91 3.328ZM120.478 6.56H124.99C124.926 5.568 124.222 4.672 122.894 4.672C121.646 4.672 120.75 5.392 120.478 6.56Z" fill="#243746"/>
<path d="M134.538 14.4C134.394 14.4 134.298 14.304 134.298 14.16V10.336C133.85 10.896 132.794 11.392 131.69 11.392C129.258 11.392 127.85 9.536 127.85 7.344C127.85 4.896 129.674 3.328 131.77 3.328C132.826 3.328 133.802 3.728 134.298 4.4V4.064C134.298 3.936 134.362 3.84 134.49 3.792L135.402 3.456C135.562 3.392 135.674 3.456 135.674 3.632V14.16C135.674 14.304 135.578 14.4 135.434 14.4H134.538ZM131.786 10.032C133.21 10.032 134.314 9.12 134.314 7.344C134.314 5.584 133.21 4.672 131.786 4.672C130.426 4.672 129.258 5.584 129.258 7.344C129.258 9.104 130.426 10.032 131.786 10.032Z" fill="#243746"/>
<path d="M140.598 11.392C138.87 11.392 137.494 10.224 137.494 7.952V4.064C137.494 3.936 137.558 3.84 137.686 3.792L138.598 3.456C138.758 3.392 138.87 3.472 138.87 3.648V7.904C138.87 9.28 139.67 10.032 140.854 10.032C142.054 10.032 142.934 9.264 142.934 7.904V4.064C142.934 3.936 142.998 3.84 143.126 3.792L144.038 3.456C144.198 3.392 144.31 3.472 144.31 3.648V10.96C144.31 11.104 144.214 11.2 144.07 11.2H143.174C143.03 11.2 142.934 11.104 142.934 10.96V10.256C142.342 11.12 141.43 11.392 140.598 11.392Z" fill="#243746"/>
<path d="M146.455 2.64C146.295 2.688 146.183 2.624 146.183 2.448V1.312C146.183 1.184 146.247 1.088 146.375 1.04L147.383 0.656C147.543 0.592 147.655 0.672 147.655 0.848001V2.032C147.655 2.16 147.591 2.256 147.463 2.304L146.455 2.64ZM146.471 11.2C146.327 11.2 146.231 11.104 146.231 10.96V4.064C146.231 3.936 146.295 3.84 146.423 3.792L147.335 3.456C147.495 3.392 147.607 3.472 147.607 3.648V10.96C147.607 11.104 147.511 11.2 147.367 11.2H146.471Z" fill="#243746"/>
<path d="M154.712 4.256C154.76 4.4 154.712 4.512 154.568 4.576L150.904 6.096V10.96C150.904 11.104 150.807 11.2 150.663 11.2H149.768C149.624 11.2 149.527 11.104 149.527 10.96V4.064C149.527 3.936 149.591 3.84 149.719 3.792L150.632 3.456C150.792 3.392 150.904 3.472 150.904 3.648V4.752L154.104 3.424C154.248 3.36 154.359 3.408 154.423 3.552L154.712 4.256Z" fill="#243746"/>
<path d="M159.223 3.328C161.415 3.328 162.759 5.056 162.759 6.976V7.568C162.759 7.712 162.663 7.808 162.519 7.808H156.743C156.919 9.056 157.799 10.048 159.351 10.048C160.215 10.048 160.983 9.744 161.767 9.168C161.911 9.072 162.023 9.088 162.103 9.216L162.551 9.888C162.631 10 162.615 10.128 162.503 10.224C161.639 10.992 160.471 11.392 159.335 11.392C156.807 11.392 155.303 9.712 155.303 7.408C155.303 4.88 157.063 3.328 159.223 3.328ZM156.791 6.56H161.303C161.239 5.568 160.535 4.672 159.207 4.672C157.959 4.672 157.063 5.392 156.791 6.56Z" fill="#243746"/>
<path d="M167.106 11.392C165.97 11.392 164.818 11.024 164.13 10.224C164.034 10.128 164.05 10 164.13 9.888L164.642 9.232C164.738 9.104 164.85 9.104 164.978 9.2C165.458 9.616 166.098 10.048 167.138 10.048C168.13 10.048 168.674 9.728 168.674 9.104C168.674 8.464 168.114 8.208 167.074 7.952C165.778 7.632 164.354 7.248 164.354 5.68C164.354 4.304 165.442 3.328 167.154 3.328C168.258 3.328 169.042 3.712 169.554 4.128C169.666 4.24 169.666 4.336 169.57 4.464L169.058 5.104C168.962 5.216 168.85 5.248 168.722 5.152C168.354 4.896 167.842 4.672 167.186 4.672C166.402 4.672 165.73 4.976 165.73 5.6C165.73 6.176 166.306 6.4 167.394 6.656C168.978 7.024 170.018 7.616 170.018 9.008C170.018 10.96 168.274 11.392 167.106 11.392Z" fill="#243746"/>
</svg>
