<svg width="17" height="12" viewBox="0 0 17 12" fill="none" xmlns="http://www.w3.org/2000/svg">
<path d="M0.753021 4.79215C0.337144 4.79215 9.17912e-06 5.12929 9.17912e-06 5.54517C9.17912e-06 5.96104 0.337144 6.29818 0.753021 6.29818V5.54517V4.79215ZM16.3457 6.07763C16.6398 5.78356 16.6398 5.30678 16.3457 5.01271L11.5536 0.220567C11.2595 -0.073503 10.7827 -0.073503 10.4887 0.220567C10.1946 0.514636 10.1946 0.991417 10.4887 1.28549L14.7483 5.54517L10.4887 9.80485C10.1946 10.0989 10.1946 10.5757 10.4887 10.8698C10.7827 11.1638 11.2595 11.1638 11.5536 10.8698L16.3457 6.07763ZM0.753021 5.54517V6.29818H15.8133V5.54517V4.79215H0.753021V5.54517Z" fill="#FF1243"/>
</svg>
