<svg width="188" height="17" viewBox="0 0 188 17" fill="none" xmlns="http://www.w3.org/2000/svg">
<g clip-path="url(#clip0_16_137)">
<path d="M11.056 12.664C11.136 12.872 11.056 13 10.832 13H9.216C9.056 13 8.944 12.92 8.896 12.792L8.016 10.568H3.504L2.624 12.792C2.56 12.936 2.448 13 2.288 13H0.672C0.464 13 0.368 12.872 0.448 12.664L4.816 2.024C4.864 1.864 4.992 1.8 5.152 1.8H6.352C6.512 1.8 6.64 1.864 6.704 2.024L11.056 12.664ZM4.224 8.76H7.296L5.76 4.872L4.224 8.76ZM12.668 13C12.476 13 12.364 12.888 12.364 12.712V6.04C12.364 5.88 12.444 5.768 12.604 5.704L13.916 5.256C14.124 5.176 14.252 5.288 14.252 5.496V6.264C14.796 5.496 15.644 5.128 16.652 5.128C18.284 5.128 19.692 6.296 19.692 8.568V12.712C19.692 12.888 19.596 13 19.404 13H18.108C17.916 13 17.804 12.888 17.804 12.712V8.792C17.804 7.592 17.116 6.936 16.076 6.936C15.02 6.936 14.252 7.608 14.252 8.792V12.712C14.252 12.888 14.156 13 13.964 13H12.668ZM28.7806 5.128C31.0366 5.128 32.3806 6.888 32.3806 8.776V9.448C32.3806 9.64 32.2686 9.736 32.0766 9.736H26.6686C26.8766 10.712 27.6446 11.464 28.9086 11.464C29.7566 11.464 30.4606 11.192 31.0686 10.808C31.2446 10.712 31.3886 10.744 31.4686 10.92L31.9806 11.848C32.0606 12.008 32.0446 12.152 31.9326 12.232C31.1326 12.84 30.1566 13.192 28.8926 13.192C26.3326 13.192 24.8126 11.496 24.8126 9.208C24.8126 6.728 26.5886 5.128 28.7806 5.128ZM26.7166 8.344H30.6046C30.4926 7.544 29.9006 6.856 28.7806 6.856C27.7406 6.856 26.9726 7.416 26.7166 8.344ZM34.2149 13C34.0229 13 33.9109 12.888 33.9109 12.712V6.04C33.9109 5.88 33.9909 5.768 34.1509 5.704L35.4629 5.256C35.6709 5.176 35.7989 5.288 35.7989 5.496V6.264C36.3429 5.496 37.1909 5.128 38.1989 5.128C39.8309 5.128 41.2389 6.296 41.2389 8.568V12.712C41.2389 12.888 41.1429 13 40.9509 13H39.6549C39.4629 13 39.3509 12.888 39.3509 12.712V8.792C39.3509 7.592 38.6629 6.936 37.6229 6.936C36.5669 6.936 35.7989 7.608 35.7989 8.792V12.712C35.7989 12.888 35.7029 13 35.5109 13H34.2149ZM46.64 5.128C48.896 5.128 50.24 6.888 50.24 8.776V9.448C50.24 9.64 50.128 9.736 49.936 9.736H44.528C44.736 10.712 45.504 11.464 46.768 11.464C47.616 11.464 48.32 11.192 48.928 10.808C49.104 10.712 49.248 10.744 49.328 10.92L49.84 11.848C49.92 12.008 49.904 12.152 49.792 12.232C48.992 12.84 48.016 13.192 46.752 13.192C44.192 13.192 42.672 11.496 42.672 9.208C42.672 6.728 44.448 5.128 46.64 5.128ZM44.576 8.344H48.464C48.352 7.544 47.76 6.856 46.64 6.856C45.6 6.856 44.832 7.416 44.576 8.344ZM57.5623 6.408C57.6263 6.584 57.5783 6.728 57.4023 6.792L53.6583 8.328V12.712C53.6583 12.888 53.5623 13 53.3703 13H52.0743C51.8823 13 51.7703 12.888 51.7703 12.712V6.04C51.7703 5.88 51.8503 5.768 52.0103 5.704L53.3223 5.256C53.5303 5.176 53.6583 5.288 53.6583 5.496V6.536L56.7463 5.24C56.9383 5.176 57.0663 5.224 57.1463 5.4L57.5623 6.408ZM62.0913 16.392C60.7953 16.392 59.7233 16.088 58.6673 15.32C58.5233 15.208 58.4913 15.064 58.5872 14.92L59.1793 13.848C59.2753 13.672 59.4353 13.64 59.5953 13.784C60.3953 14.392 61.2113 14.648 61.9953 14.648C63.5313 14.648 64.4273 13.752 64.4273 12.392V12.184C64.0753 12.632 63.1633 13.064 62.0753 13.064C59.6113 13.064 58.2033 11.288 58.2033 9.112C58.2033 6.856 59.8673 5.128 62.1553 5.128C63.0993 5.128 64.0113 5.464 64.4273 6.168V6.072C64.4273 5.896 64.5073 5.784 64.6673 5.72L65.9792 5.256C66.1873 5.176 66.3153 5.272 66.3153 5.48V12.216C66.3153 14.888 64.6193 16.392 62.0913 16.392ZM62.2993 11.304C63.5153 11.304 64.4433 10.504 64.4433 9.096C64.4433 7.688 63.5153 6.872 62.2993 6.872C61.0673 6.872 60.1393 7.688 60.1393 9.096C60.1393 10.488 61.0673 11.304 62.2993 11.304ZM74.9639 5.32C75.1879 5.32 75.2679 5.448 75.1879 5.656L70.7719 15.976C70.7239 16.136 70.5959 16.2 70.4199 16.2H69.0119C68.8039 16.2 68.7079 16.072 68.7879 15.864L70.3559 12.184L67.5559 5.656C67.4759 5.448 67.5719 5.32 67.7799 5.32H69.2199C69.3799 5.32 69.5079 5.384 69.5719 5.544L71.3479 9.848L73.1719 5.544C73.2359 5.384 73.3639 5.32 73.5239 5.32H74.9639ZM84.1296 13.192C81.6176 13.192 79.9376 11.48 79.9376 9.16C79.9376 6.84 81.6176 5.128 84.1296 5.128C85.1216 5.128 86.0496 5.384 86.6896 5.976C86.8336 6.104 86.8656 6.248 86.7696 6.408L86.1616 7.4C86.0656 7.56 85.9376 7.592 85.7776 7.48C85.3456 7.144 84.8656 6.92 84.1616 6.92C82.7696 6.92 81.9216 7.88 81.9216 9.16C81.9216 10.488 82.7696 11.4 84.1616 11.4C84.8656 11.4 85.3456 11.192 85.7936 10.84C85.9376 10.744 86.0816 10.776 86.1776 10.936L86.7696 11.912C86.8656 12.072 86.8336 12.2 86.7216 12.312C86.1136 12.904 85.1536 13.192 84.1296 13.192ZM92.1263 13.192C89.7423 13.192 88.0783 11.48 88.0783 9.16C88.0783 6.84 89.7423 5.128 92.1263 5.128C94.5103 5.128 96.1743 6.84 96.1743 9.16C96.1743 11.48 94.5103 13.192 92.1263 13.192ZM92.1263 11.4C93.4703 11.4 94.2223 10.424 94.2223 9.16C94.2223 7.896 93.4703 6.92 92.1263 6.92C90.7823 6.92 90.0303 7.896 90.0303 9.16C90.0303 10.424 90.7823 11.4 92.1263 11.4ZM98.0118 13C97.8198 13 97.7078 12.888 97.7078 12.712V6.04C97.7078 5.88 97.7878 5.768 97.9478 5.704L99.2598 5.256C99.4678 5.176 99.5958 5.288 99.5958 5.496V6.152C99.9158 5.64 100.796 5.128 101.772 5.128C102.748 5.128 103.484 5.624 103.836 6.328C104.332 5.512 105.228 5.128 106.172 5.128C107.644 5.128 109.004 6.136 109.004 8.408V12.712C109.004 12.888 108.892 13 108.7 13H107.404C107.212 13 107.116 12.888 107.116 12.712V8.584C107.116 7.512 106.588 6.936 105.756 6.936C104.908 6.936 104.3 7.496 104.3 8.584V12.712C104.3 12.888 104.204 13 104.012 13H102.716C102.524 13 102.412 12.888 102.412 12.712V8.584C102.412 7.464 101.916 6.936 101.052 6.936C100.284 6.936 99.5958 7.512 99.5958 8.584V12.712C99.5958 12.888 99.4998 13 99.3078 13H98.0118ZM110.934 16.2C110.742 16.2 110.63 16.088 110.63 15.912V6.072C110.63 5.896 110.71 5.784 110.87 5.72L112.182 5.256C112.39 5.176 112.518 5.272 112.518 5.48V6.152C112.95 5.592 113.862 5.128 114.966 5.128C117.158 5.128 118.758 6.696 118.758 9.16C118.758 11.336 117.366 13.192 114.966 13.192C113.846 13.192 112.934 12.712 112.518 12.184V15.912C112.518 16.088 112.422 16.2 112.23 16.2H110.934ZM114.662 11.448C115.878 11.448 116.822 10.632 116.822 9.16C116.822 7.656 115.878 6.872 114.662 6.872C113.446 6.872 112.518 7.656 112.518 9.16C112.518 10.648 113.446 11.448 114.662 11.448ZM123.966 13.192C121.502 13.192 120.094 11.4 120.094 9.112C120.094 6.856 121.758 5.128 124.046 5.128C124.99 5.128 125.902 5.464 126.318 6.168V6.072C126.318 5.896 126.398 5.784 126.558 5.72L127.87 5.256C128.078 5.176 128.206 5.272 128.206 5.48V12.712C128.206 12.888 128.094 13 127.902 13H126.606C126.43 13 126.318 12.888 126.318 12.712V12.296C125.966 12.744 125.054 13.192 123.966 13.192ZM124.19 11.416C125.406 11.416 126.334 10.616 126.334 9.096C126.334 7.688 125.406 6.872 124.19 6.872C122.958 6.872 122.03 7.688 122.03 9.096C122.03 10.6 122.958 11.416 124.19 11.416ZM130.231 13C130.039 13 129.927 12.888 129.927 12.712V6.04C129.927 5.88 130.007 5.768 130.167 5.704L131.479 5.256C131.687 5.176 131.815 5.288 131.815 5.496V6.264C132.359 5.496 133.207 5.128 134.215 5.128C135.847 5.128 137.255 6.296 137.255 8.568V12.712C137.255 12.888 137.159 13 136.967 13H135.671C135.479 13 135.367 12.888 135.367 12.712V8.792C135.367 7.592 134.679 6.936 133.639 6.936C132.583 6.936 131.815 7.608 131.815 8.792V12.712C131.815 12.888 131.719 13 131.527 13H130.231ZM145.62 5.32C145.844 5.32 145.924 5.448 145.844 5.656L141.428 15.976C141.38 16.136 141.252 16.2 141.076 16.2H139.668C139.46 16.2 139.364 16.072 139.444 15.864L141.012 12.184L138.212 5.656C138.132 5.448 138.228 5.32 138.436 5.32H139.876C140.036 5.32 140.164 5.384 140.228 5.544L142.004 9.848L143.828 5.544C143.892 5.384 144.02 5.32 144.18 5.32H145.62ZM3.744 29.192C2.496 29.192 1.36 28.84 0.672 28.072C0.56 27.944 0.576 27.784 0.672 27.656L1.28 26.84C1.408 26.68 1.552 26.68 1.696 26.808C2.208 27.24 2.896 27.576 3.68 27.576C4.528 27.576 4.912 27.32 4.912 26.856C4.912 26.392 4.496 26.168 3.52 25.976C1.968 25.688 0.848 25 0.848 23.608C0.848 22.12 2.096 21.128 3.776 21.128C4.944 21.128 5.728 21.496 6.224 21.896C6.368 22.024 6.368 22.152 6.256 22.312L5.584 23.16C5.472 23.32 5.344 23.32 5.168 23.224C4.8 22.968 4.272 22.776 3.728 22.776C3.104 22.776 2.704 23.016 2.704 23.4C2.704 23.832 3.2 23.992 4.096 24.184C5.808 24.52 6.768 25.192 6.768 26.68C6.768 28.408 5.36 29.192 3.744 29.192ZM11.9681 21.128C14.2241 21.128 15.5681 22.888 15.5681 24.776V25.448C15.5681 25.64 15.4561 25.736 15.2641 25.736H9.85613C10.0641 26.712 10.8321 27.464 12.0961 27.464C12.9441 27.464 13.6481 27.192 14.2561 26.808C14.4321 26.712 14.5761 26.744 14.6561 26.92L15.1681 27.848C15.2481 28.008 15.2321 28.152 15.1201 28.232C14.3201 28.84 13.3441 29.192 12.0801 29.192C9.52013 29.192 8.00013 27.496 8.00013 25.208C8.00013 22.728 9.77613 21.128 11.9681 21.128ZM9.90413 24.344H13.7921C13.6801 23.544 13.0881 22.856 11.9681 22.856C10.9281 22.856 10.1601 23.416 9.90413 24.344ZM20.7784 29.192C18.3144 29.192 16.9064 27.4 16.9064 25.112C16.9064 22.856 18.5704 21.128 20.8584 21.128C21.8024 21.128 22.7144 21.464 23.1304 22.168V22.072C23.1304 21.896 23.2104 21.784 23.3704 21.72L24.6824 21.256C24.8904 21.176 25.0184 21.272 25.0184 21.48V28.712C25.0184 28.888 24.9064 29 24.7144 29H23.4184C23.2424 29 23.1304 28.888 23.1304 28.712V28.296C22.7784 28.744 21.8664 29.192 20.7784 29.192ZM21.0024 27.416C22.2184 27.416 23.1464 26.616 23.1464 25.096C23.1464 23.688 22.2184 22.872 21.0024 22.872C19.7704 22.872 18.8424 23.688 18.8424 25.096C18.8424 26.6 19.7704 27.416 21.0024 27.416ZM32.531 22.408C32.595 22.584 32.547 22.728 32.371 22.792L28.627 24.328V28.712C28.627 28.888 28.531 29 28.339 29H27.043C26.851 29 26.739 28.888 26.739 28.712V22.04C26.739 21.88 26.819 21.768 26.979 21.704L28.291 21.256C28.499 21.176 28.627 21.288 28.627 21.496V22.536L31.715 21.24C31.907 21.176 32.035 21.224 32.115 21.4L32.531 22.408ZM37.3328 29.192C34.8207 29.192 33.1408 27.48 33.1408 25.16C33.1408 22.84 34.8207 21.128 37.3328 21.128C38.3248 21.128 39.2528 21.384 39.8928 21.976C40.0368 22.104 40.0688 22.248 39.9728 22.408L39.3648 23.4C39.2688 23.56 39.1408 23.592 38.9808 23.48C38.5488 23.144 38.0688 22.92 37.3648 22.92C35.9728 22.92 35.1248 23.88 35.1248 25.16C35.1248 26.488 35.9728 27.4 37.3648 27.4C38.0688 27.4 38.5488 27.192 38.9968 26.84C39.1408 26.744 39.2848 26.776 39.3808 26.936L39.9728 27.912C40.0688 28.072 40.0368 28.2 39.9248 28.312C39.3168 28.904 38.3568 29.192 37.3328 29.192ZM41.8086 29C41.6166 29 41.5046 28.888 41.5046 28.712V18.504C41.5046 18.344 41.5846 18.248 41.7446 18.184L43.0566 17.736C43.2646 17.656 43.3926 17.768 43.3926 17.976V22.264C43.9206 21.512 44.7846 21.128 45.8086 21.128C47.4406 21.128 48.8326 22.296 48.8326 24.568V28.712C48.8326 28.888 48.7366 29 48.5446 29H47.2486C47.0566 29 46.9446 28.888 46.9446 28.712V24.792C46.9446 23.592 46.2566 22.936 45.2166 22.936C44.1606 22.936 43.3926 23.608 43.3926 24.792V28.712C43.3926 28.888 43.2966 29 43.1046 29H41.8086ZM50.7458 20.776C50.5378 20.84 50.3938 20.744 50.3938 20.536V19.112C50.3938 18.952 50.4738 18.84 50.6338 18.776L52.0738 18.264C52.2818 18.184 52.4098 18.296 52.4098 18.504V19.96C52.4098 20.12 52.3458 20.232 52.1698 20.296L50.7458 20.776ZM50.7458 29C50.5698 29 50.4578 28.888 50.4578 28.712V22.04C50.4578 21.88 50.5378 21.768 50.6978 21.704L52.0098 21.256C52.2178 21.176 52.3458 21.288 52.3458 21.496V28.712C52.3458 28.888 52.2338 29 52.0418 29H50.7458ZM54.3711 29C54.1791 29 54.0671 28.888 54.0671 28.712V22.04C54.0671 21.88 54.1471 21.768 54.3071 21.704L55.6191 21.256C55.8271 21.176 55.9551 21.288 55.9551 21.496V22.264C56.4991 21.496 57.3471 21.128 58.3551 21.128C59.9871 21.128 61.3951 22.296 61.3951 24.568V28.712C61.3951 28.888 61.2991 29 61.1071 29H59.8111C59.6191 29 59.5071 28.888 59.5071 28.712V24.792C59.5071 23.592 58.8191 22.936 57.7791 22.936C56.7231 22.936 55.9551 23.608 55.9551 24.792V28.712C55.9551 28.888 55.8591 29 55.6671 29H54.3711ZM66.7163 32.392C65.4203 32.392 64.3483 32.088 63.2923 31.32C63.1483 31.208 63.1163 31.064 63.2122 30.92L63.8043 29.848C63.9003 29.672 64.0603 29.64 64.2203 29.784C65.0203 30.392 65.8363 30.648 66.6203 30.648C68.1563 30.648 69.0523 29.752 69.0523 28.392V28.184C68.7003 28.632 67.7883 29.064 66.7003 29.064C64.2363 29.064 62.8283 27.288 62.8283 25.112C62.8283 22.856 64.4923 21.128 66.7803 21.128C67.7243 21.128 68.6363 21.464 69.0523 22.168V22.072C69.0523 21.896 69.1323 21.784 69.2923 21.72L70.6042 21.256C70.8123 21.176 70.9403 21.272 70.9403 21.48V28.216C70.9403 30.888 69.2443 32.392 66.7163 32.392ZM66.9243 27.304C68.1403 27.304 69.0683 26.504 69.0683 25.096C69.0683 23.688 68.1403 22.872 66.9243 22.872C65.6923 22.872 64.7643 23.688 64.7643 25.096C64.7643 26.488 65.6923 27.304 66.9243 27.304ZM80.7644 18.024C80.9244 18.104 80.9724 18.232 80.9244 18.392L80.5884 19.512C80.5244 19.704 80.3964 19.752 80.2044 19.656C79.9964 19.56 79.8364 19.528 79.6284 19.528C79.0204 19.528 78.8444 19.944 78.8444 20.52V21.32H80.1564C80.3484 21.32 80.4604 21.432 80.4604 21.608V22.728C80.4604 22.92 80.3484 23.016 80.1564 23.016H78.8444V28.712C78.8444 28.888 78.7484 29 78.5564 29H77.2604C77.0684 29 76.9564 28.888 76.9564 28.712V23.016H76.2524C76.0604 23.016 75.9484 22.92 75.9484 22.728V21.608C75.9484 21.432 76.0604 21.32 76.2524 21.32H76.9564V20.232C76.9564 18.936 77.5484 17.704 79.3724 17.704C79.9644 17.704 80.3644 17.816 80.7644 18.024ZM85.4544 29.192C83.0704 29.192 81.4064 27.48 81.4064 25.16C81.4064 22.84 83.0704 21.128 85.4544 21.128C87.8384 21.128 89.5024 22.84 89.5024 25.16C89.5024 27.48 87.8384 29.192 85.4544 29.192ZM85.4544 27.4C86.7984 27.4 87.5504 26.424 87.5504 25.16C87.5504 23.896 86.7984 22.92 85.4544 22.92C84.1104 22.92 83.3584 23.896 83.3584 25.16C83.3584 26.424 84.1104 27.4 85.4544 27.4ZM96.8279 22.408C96.8919 22.584 96.8439 22.728 96.6679 22.792L92.9239 24.328V28.712C92.9239 28.888 92.8279 29 92.6359 29H91.3399C91.1479 29 91.0359 28.888 91.0359 28.712V22.04C91.0359 21.88 91.1159 21.768 91.2759 21.704L92.5879 21.256C92.7959 21.176 92.9239 21.288 92.9239 21.496V22.536L96.0119 21.24C96.2039 21.176 96.3319 21.224 96.4119 21.4L96.8279 22.408ZM106.106 29.192C104.986 29.192 104.074 28.712 103.658 28.184V28.712C103.658 28.888 103.562 29 103.37 29H102.074C101.882 29 101.77 28.888 101.77 28.712V18.536C101.77 18.376 101.85 18.264 102.01 18.2L103.322 17.736C103.53 17.656 103.658 17.752 103.658 17.96V22.152C104.09 21.592 105.002 21.128 106.106 21.128C108.298 21.128 109.898 22.696 109.898 25.16C109.898 27.336 108.506 29.192 106.106 29.192ZM105.802 27.448C107.018 27.448 107.962 26.632 107.962 25.16C107.962 23.656 107.018 22.872 105.802 22.872C104.586 22.872 103.658 23.656 103.658 25.16C103.658 26.648 104.586 27.448 105.802 27.448ZM115.203 21.128C117.459 21.128 118.803 22.888 118.803 24.776V25.448C118.803 25.64 118.691 25.736 118.499 25.736H113.091C113.299 26.712 114.067 27.464 115.331 27.464C116.179 27.464 116.883 27.192 117.491 26.808C117.667 26.712 117.811 26.744 117.891 26.92L118.403 27.848C118.483 28.008 118.467 28.152 118.355 28.232C117.555 28.84 116.579 29.192 115.315 29.192C112.755 29.192 111.235 27.496 111.235 25.208C111.235 22.728 113.011 21.128 115.203 21.128ZM113.139 24.344H117.027C116.915 23.544 116.323 22.856 115.203 22.856C114.163 22.856 113.395 23.416 113.139 24.344ZM124.861 28.504C124.909 28.664 124.877 28.792 124.717 28.872C124.301 29.08 123.917 29.192 123.325 29.192C121.549 29.192 120.909 28.04 120.909 26.664V23.016H120.061C119.869 23.016 119.773 22.904 119.773 22.712V21.608C119.773 21.432 119.869 21.32 120.061 21.32H120.909V20.28C120.909 20.12 120.973 20.008 121.133 19.944L122.445 19.464C122.653 19.384 122.797 19.496 122.797 19.704V21.32H124.125C124.317 21.32 124.413 21.432 124.413 21.608V22.712C124.413 22.904 124.317 23.016 124.125 23.016H122.797V26.376C122.797 26.952 122.957 27.368 123.581 27.368C123.773 27.368 123.933 27.32 124.141 27.24C124.333 27.144 124.461 27.192 124.525 27.4L124.861 28.504ZM130.517 28.504C130.565 28.664 130.533 28.792 130.373 28.872C129.957 29.08 129.573 29.192 128.981 29.192C127.205 29.192 126.565 28.04 126.565 26.664V23.016H125.717C125.525 23.016 125.429 22.904 125.429 22.712V21.608C125.429 21.432 125.525 21.32 125.717 21.32H126.565V20.28C126.565 20.12 126.629 20.008 126.789 19.944L128.101 19.464C128.309 19.384 128.453 19.496 128.453 19.704V21.32H129.781C129.973 21.32 130.069 21.432 130.069 21.608V22.712C130.069 22.904 129.973 23.016 129.781 23.016H128.453V26.376C128.453 26.952 128.613 27.368 129.237 27.368C129.429 27.368 129.589 27.32 129.797 27.24C129.989 27.144 130.117 27.192 130.181 27.4L130.517 28.504ZM135.406 21.128C137.662 21.128 139.006 22.888 139.006 24.776V25.448C139.006 25.64 138.894 25.736 138.702 25.736H133.294C133.502 26.712 134.27 27.464 135.534 27.464C136.382 27.464 137.086 27.192 137.694 26.808C137.87 26.712 138.014 26.744 138.094 26.92L138.606 27.848C138.686 28.008 138.67 28.152 138.558 28.232C137.758 28.84 136.782 29.192 135.518 29.192C132.958 29.192 131.438 27.496 131.438 25.208C131.438 22.728 133.214 21.128 135.406 21.128ZM133.342 24.344H137.23C137.118 23.544 136.526 22.856 135.406 22.856C134.366 22.856 133.598 23.416 133.342 24.344ZM146.328 22.408C146.392 22.584 146.344 22.728 146.168 22.792L142.424 24.328V28.712C142.424 28.888 142.328 29 142.136 29H140.84C140.648 29 140.536 28.888 140.536 28.712V22.04C140.536 21.88 140.616 21.768 140.776 21.704L142.088 21.256C142.296 21.176 142.424 21.288 142.424 21.496V22.536L145.512 21.24C145.704 21.176 145.832 21.224 145.912 21.4L146.328 22.408ZM146.337 29C146.145 29 146.049 28.888 146.049 28.712V27.272C146.049 27.08 146.145 26.968 146.337 26.968H147.777C147.969 26.968 148.065 27.08 148.065 27.272V28.712C148.065 28.888 147.969 29 147.777 29H146.337Z" fill="#FF1243"/>
</g>
<defs>
<clipPath id="clip0_16_137">
<rect width="188" height="17" fill="white"/>
</clipPath>
</defs>
</svg>
