<?xml version="1.0" encoding="UTF-8"?><svg id="Layer_2" xmlns="http://www.w3.org/2000/svg" width="143.47" height="13.66" viewBox="0 0 143.47 13.66"><defs><style>.cls-1{fill:#243746;}</style></defs><g id="Layer_1-2"><path class="cls-1" d="M5.17,13.03c.05.14,0,.29-.18.38-.4.18-.74.25-1.12.25-2,0-2.47-1.3-2.47-2.84v-4.61H.27c-.16,0-.27-.11-.27-.27v-.86c0-.16.11-.27.27-.27h1.13v-1.37c0-.14.07-.25.22-.31l1.03-.38c.18-.07.31.02.31.22v1.84h1.55c.16,0,.27.11.27.27v.86c0,.16-.11.27-.27.27h-1.55v4.63c0,.74.27,1.28,1.04,1.28.16,0,.32-.04.52-.11.18-.05.31-.02.36.16l.29.86Z"/><path class="cls-1" d="M10.5,13.66c-2.59,0-4.45-1.93-4.45-4.54s1.85-4.54,4.45-4.54,4.43,1.93,4.43,4.54-1.84,4.54-4.43,4.54ZM10.5,12.15c1.76,0,2.84-1.33,2.84-3.02s-1.08-3.02-2.84-3.02-2.86,1.33-2.86,3.02,1.08,3.02,2.86,3.02Z"/><path class="cls-1" d="M22.89,13.45c-.14,0-.25-.05-.31-.22l-2.63-8.12c-.05-.18.02-.31.22-.31h1.03c.14,0,.27.07.31.22l1.85,6.03,1.8-6.01c.04-.14.16-.23.31-.23h1.03c.14,0,.27.09.31.23l1.8,6.01,1.85-6.03c.04-.14.16-.22.31-.22h.99c.2,0,.29.11.23.31l-2.61,8.12c-.05.16-.16.22-.31.22h-.94c-.14,0-.27-.07-.31-.22l-1.84-5.99-1.85,5.99c-.04.14-.16.22-.31.22h-.94Z"/><path class="cls-1" d="M33.6,13.45c-.16,0-.27-.11-.27-.27V1.46c0-.14.07-.25.22-.31l1.03-.38c.18-.07.31.02.31.22v4.88c.61-.9,1.73-1.28,2.7-1.28,1.91,0,3.42,1.31,3.42,3.87v4.72c0,.16-.11.27-.27.27h-1.01c-.16,0-.27-.11-.27-.27v-4.66c0-1.55-.9-2.39-2.23-2.39s-2.34.86-2.34,2.39v4.66c0,.16-.11.27-.27.27h-1.01Z"/><path class="cls-1" d="M46.9,13.66c-2.74,0-4.32-2.09-4.32-4.55,0-2.75,2.05-4.52,4.41-4.52,1.19,0,2.29.45,2.84,1.21v-.38c0-.14.07-.25.22-.31l1.03-.38c.18-.07.31,0,.31.2v8.24c0,.16-.11.27-.27.27h-1.01c-.16,0-.27-.11-.27-.27v-.7c-.5.63-1.69,1.19-2.93,1.19ZM47.01,12.13c1.6,0,2.84-1.03,2.84-3.02s-1.24-3.01-2.84-3.01-2.84,1.03-2.84,3.01,1.31,3.02,2.84,3.02Z"/><path class="cls-1" d="M57.8,13.03c.05.14,0,.29-.18.38-.4.18-.74.25-1.12.25-2,0-2.47-1.3-2.47-2.84v-4.61h-1.13c-.16,0-.27-.11-.27-.27v-.86c0-.16.11-.27.27-.27h1.13v-1.37c0-.14.07-.25.22-.31l1.03-.38c.18-.07.31.02.31.22v1.84h1.55c.16,0,.27.11.27.27v.86c0,.16-.11.27-.27.27h-1.55v4.63c0,.74.27,1.28,1.04,1.28.16,0,.32-.04.52-.11.18-.05.31-.02.36.16l.29.86Z"/><path class="cls-1" d="M63.1,4.59c2.47,0,3.98,1.94,3.98,4.1v.67c0,.16-.11.27-.27.27h-6.5c.2,1.4,1.19,2.52,2.93,2.52.97,0,1.84-.34,2.72-.99.16-.11.29-.09.38.05l.5.76c.09.13.07.27-.05.38-.97.86-2.29,1.31-3.56,1.31-2.84,0-4.54-1.89-4.54-4.48,0-2.84,1.98-4.59,4.41-4.59ZM60.37,8.23h5.08c-.07-1.12-.86-2.12-2.36-2.12-1.4,0-2.41.81-2.72,2.12Z"/><path class="cls-1" d="M71.44,13.45c-.14,0-.27-.07-.32-.22l-3.4-8.12c-.07-.18.02-.31.22-.31h1.15c.14,0,.27.07.32.22l2.57,6.52,2.57-6.52c.05-.14.18-.22.32-.22h1.15c.2,0,.29.13.22.31l-3.4,8.12c-.05.14-.18.22-.32.22h-1.08Z"/><path class="cls-1" d="M81.3,4.59c2.47,0,3.98,1.94,3.98,4.1v.67c0,.16-.11.27-.27.27h-6.5c.2,1.4,1.19,2.52,2.93,2.52.97,0,1.84-.34,2.72-.99.16-.11.29-.09.38.05l.5.76c.09.13.07.27-.05.38-.97.86-2.29,1.31-3.56,1.31-2.84,0-4.54-1.89-4.54-4.48,0-2.84,1.98-4.59,4.41-4.59ZM78.57,8.23h5.08c-.07-1.12-.86-2.12-2.36-2.12-1.4,0-2.41.81-2.72,2.12Z"/><path class="cls-1" d="M92.8,5.63c.05.16,0,.29-.16.36l-4.12,1.71v5.47c0,.16-.11.27-.27.27h-1.01c-.16,0-.27-.11-.27-.27v-7.76c0-.14.07-.25.22-.31l1.03-.38c.18-.07.31.02.31.22v1.24l3.6-1.49c.16-.07.29-.02.36.14l.32.79Z"/><path class="cls-1" d="M93.78,2.99c-.2,0-.29-.11-.22-.31l.97-2.47c.05-.14.18-.22.32-.22h.9c.2,0,.27.14.2.32l-1.1,2.47c-.05.14-.16.2-.31.2h-.77Z"/><path class="cls-1" d="M99.37,13.66c-1.28,0-2.57-.41-3.35-1.31-.11-.11-.09-.25,0-.38l.58-.74c.11-.14.23-.14.38-.04.54.47,1.26.95,2.43.95s1.73-.36,1.73-1.06-.63-1.01-1.8-1.3c-1.46-.36-3.06-.79-3.06-2.56,0-1.55,1.22-2.65,3.15-2.65,1.24,0,2.12.43,2.7.9.13.13.13.23.02.38l-.58.72c-.11.13-.23.16-.38.05-.41-.29-.99-.54-1.73-.54-.88,0-1.64.34-1.64,1.04,0,.65.65.9,1.87,1.19,1.78.41,2.95,1.08,2.95,2.65,0,2.2-1.96,2.68-3.28,2.68Z"/><path class="cls-1" d="M108.51,13.45c-.16,0-.27-.11-.27-.27v-7.76c0-.14.07-.25.22-.31l1.03-.38c.18-.07.31.02.31.22v.92c.67-.97,1.69-1.28,2.63-1.28,1.94,0,3.49,1.31,3.49,3.87v4.72c0,.16-.11.27-.27.27h-1.01c-.16,0-.27-.11-.27-.27v-4.66c0-1.55-.9-2.39-2.23-2.39s-2.34.86-2.34,2.39v4.66c0,.16-.11.27-.27.27h-1.01Z"/><path class="cls-1" d="M121.9,4.59c2.47,0,3.98,1.94,3.98,4.1v.67c0,.16-.11.27-.27.27h-6.5c.2,1.4,1.19,2.52,2.93,2.52.97,0,1.84-.34,2.72-.99.16-.11.29-.09.38.05l.5.76c.09.13.07.27-.05.38-.97.86-2.29,1.31-3.56,1.31-2.84,0-4.54-1.89-4.54-4.48,0-2.84,1.98-4.59,4.41-4.59ZM119.17,8.23h5.08c-.07-1.12-.86-2.12-2.36-2.12-1.4,0-2.41.81-2.72,2.12Z"/><path class="cls-1" d="M134.34,13.12c.13.2.05.32-.16.32h-1.19c-.14,0-.27-.05-.34-.16l-2.07-2.93-2.07,2.93c-.07.11-.2.16-.34.16h-1.19c-.22,0-.29-.14-.16-.32l2.86-4.07-2.77-3.92c-.13-.2-.05-.32.16-.32h1.19c.14,0,.27.05.34.16l1.98,2.81,1.98-2.81c.07-.11.2-.16.34-.16h1.19c.22,0,.29.14.16.32l-2.77,3.92,2.86,4.07Z"/><path class="cls-1" d="M140.5,13.03c.05.14,0,.29-.18.38-.4.18-.74.25-1.12.25-2,0-2.47-1.3-2.47-2.84v-4.61h-1.13c-.16,0-.27-.11-.27-.27v-.86c0-.16.11-.27.27-.27h1.13v-1.37c0-.14.07-.25.22-.31l1.03-.38c.18-.07.31.02.31.22v1.84h1.55c.16,0,.27.11.27.27v.86c0,.16-.11.27-.27.27h-1.55v4.63c0,.74.27,1.28,1.04,1.28.16,0,.32-.04.52-.11.18-.05.31-.02.36.16l.29.86Z"/><path class="cls-1" d="M142.08,13.45c-.16,0-.27-.11-.27-.27v-1.12c0-.16.11-.27.27-.27h1.12c.16,0,.27.11.27.27v1.12c0,.16-.11.27-.27.27h-1.12Z"/></g></svg>