<?xml version="1.0" encoding="UTF-8"?><svg id="Layer_2" xmlns="http://www.w3.org/2000/svg" width="126.24" height="12.85" viewBox="0 0 126.24 12.85"><defs><style>.cls-1{fill:#ff1243;}</style></defs><g id="Layer_1-2"><path class="cls-1" d="M2.76,10.05c-1.09,0-2.09-.31-2.69-.98-.1-.11-.08-.25,0-.36l.53-.71c.11-.14.24-.14.36-.03.45.38,1.05.67,1.74.67.74,0,1.08-.22,1.08-.63s-.36-.6-1.22-.77c-1.36-.25-2.34-.85-2.34-2.07C.22,3.86,1.31,3,2.78,3c1.02,0,1.71.32,2.14.67.13.11.13.22.03.36l-.59.74c-.1.14-.21.14-.36.06-.32-.22-.78-.39-1.26-.39-.55,0-.9.21-.9.55,0,.38.43.52,1.22.69,1.5.29,2.34.88,2.34,2.18,0,1.51-1.23,2.2-2.65,2.2Z"/><path class="cls-1" d="M9.81,3c1.97,0,3.15,1.54,3.15,3.19v.59c0,.17-.1.25-.27.25h-4.73c.18.85.85,1.51,1.96,1.51.74,0,1.36-.24,1.89-.57.15-.08.28-.06.35.1l.45.81c.07.14.06.27-.04.34-.7.53-1.55.84-2.66.84-2.24,0-3.57-1.48-3.57-3.49,0-2.17,1.55-3.57,3.47-3.57ZM8.01,5.81h3.4c-.1-.7-.62-1.3-1.6-1.3-.91,0-1.58.49-1.81,1.3Z"/><path class="cls-1" d="M17.38,10.05c-2.16,0-3.39-1.57-3.39-3.57s1.46-3.49,3.46-3.49c.83,0,1.62.29,1.99.91v-.08c0-.15.07-.25.21-.31l1.15-.41c.18-.07.29.01.29.2v6.33c0,.15-.1.25-.27.25h-1.13c-.15,0-.25-.1-.25-.25v-.36c-.31.39-1.11.78-2.06.78ZM17.58,8.5c1.06,0,1.88-.7,1.88-2.03,0-1.23-.81-1.95-1.88-1.95s-1.89.71-1.89,1.95c0,1.32.81,2.03,1.89,2.03Z"/><path class="cls-1" d="M27.52,4.12c.06.15.01.28-.14.34l-3.28,1.34v3.84c0,.15-.08.25-.25.25h-1.13c-.17,0-.27-.1-.27-.25V3.79c0-.14.07-.24.21-.29l1.15-.39c.18-.07.29.03.29.21v.91l2.7-1.13c.17-.06.28-.01.35.14l.36.88Z"/><path class="cls-1" d="M31.59,10.05c-2.2,0-3.67-1.5-3.67-3.53s1.47-3.53,3.67-3.53c.87,0,1.68.22,2.24.74.13.11.15.24.07.38l-.53.87c-.08.14-.2.17-.34.07-.38-.29-.8-.49-1.41-.49-1.22,0-1.96.84-1.96,1.96s.74,1.96,1.96,1.96c.62,0,1.04-.18,1.43-.49.13-.08.25-.06.34.08l.52.85c.08.14.06.25-.04.35-.53.52-1.37.77-2.27.77Z"/><path class="cls-1" d="M35.36,9.88c-.17,0-.27-.1-.27-.25V.7c0-.14.07-.22.21-.28l1.15-.39c.18-.07.29.03.29.21v3.75c.46-.66,1.22-.99,2.11-.99,1.43,0,2.65,1.02,2.65,3.01v3.63c0,.15-.08.25-.25.25h-1.13c-.17,0-.27-.1-.27-.25v-3.43c0-1.05-.6-1.62-1.51-1.62s-1.6.59-1.6,1.62v3.43c0,.15-.08.25-.25.25h-1.13Z"/><path class="cls-1" d="M43.04,2.69c-.18.06-.31-.03-.31-.21v-1.25c0-.14.07-.24.21-.29l1.26-.45c.18-.07.29.03.29.21v1.27c0,.14-.06.24-.21.29l-1.25.42ZM43.04,9.88c-.15,0-.25-.1-.25-.25V3.79c0-.14.07-.24.21-.29l1.15-.39c.18-.07.29.03.29.21v6.31c0,.15-.1.25-.27.25h-1.13Z"/><path class="cls-1" d="M46.08,9.88c-.17,0-.27-.1-.27-.25V3.79c0-.14.07-.24.21-.29l1.15-.39c.18-.07.29.03.29.21v.67c.48-.67,1.22-.99,2.1-.99,1.43,0,2.66,1.02,2.66,3.01v3.63c0,.15-.08.25-.25.25h-1.13c-.17,0-.27-.1-.27-.25v-3.43c0-1.05-.6-1.62-1.51-1.62s-1.6.59-1.6,1.62v3.43c0,.15-.08.25-.25.25h-1.13Z"/><path class="cls-1" d="M56.74,12.85c-1.13,0-2.07-.27-3-.94-.13-.1-.15-.22-.07-.35l.52-.94c.08-.15.22-.18.36-.06.7.53,1.41.76,2.1.76,1.34,0,2.13-.78,2.13-1.97v-.18c-.31.39-1.11.77-2.06.77-2.16,0-3.39-1.55-3.39-3.46s1.46-3.49,3.46-3.49c.83,0,1.62.29,1.99.91v-.08c0-.15.07-.25.21-.31l1.15-.41c.18-.07.29.01.29.2v5.89c0,2.34-1.48,3.65-3.7,3.65ZM56.92,8.4c1.06,0,1.88-.7,1.88-1.93s-.81-1.95-1.88-1.95-1.89.71-1.89,1.95.81,1.93,1.89,1.93Z"/><path class="cls-1" d="M68.75.28c.14.07.18.18.14.32l-.29.98c-.06.17-.17.21-.34.13-.18-.08-.32-.11-.5-.11-.53,0-.69.36-.69.87v.7h1.15c.17,0,.27.1.27.25v.98c0,.17-.1.25-.27.25h-1.15v4.98c0,.15-.08.25-.25.25h-1.13c-.17,0-.27-.1-.27-.25v-4.98h-.62c-.17,0-.27-.08-.27-.25v-.98c0-.15.1-.25.27-.25h.62v-.95c0-1.13.52-2.21,2.11-2.21.52,0,.87.1,1.22.28Z"/><path class="cls-1" d="M72.71,10.05c-2.09,0-3.54-1.5-3.54-3.53s1.46-3.53,3.54-3.53,3.54,1.5,3.54,3.53-1.46,3.53-3.54,3.53ZM72.71,8.48c1.18,0,1.83-.85,1.83-1.96s-.66-1.96-1.83-1.96-1.83.85-1.83,1.96.66,1.96,1.83,1.96Z"/><path class="cls-1" d="M82.52,4.12c.06.15.01.28-.14.34l-3.28,1.34v3.84c0,.15-.08.25-.25.25h-1.13c-.17,0-.27-.1-.27-.25V3.79c0-.14.07-.24.21-.29l1.15-.39c.18-.07.29.03.29.21v.91l2.7-1.13c.17-.06.28-.01.35.14l.36.88Z"/><path class="cls-1" d="M90.36,10.05c-.98,0-1.78-.42-2.14-.88v.46c0,.15-.08.25-.25.25h-1.13c-.17,0-.27-.1-.27-.25V.73c0-.14.07-.24.21-.29l1.15-.41c.18-.07.29.01.29.2v3.67c.38-.49,1.18-.9,2.14-.9,1.92,0,3.32,1.37,3.32,3.53,0,1.9-1.22,3.53-3.32,3.53ZM90.1,8.53c1.06,0,1.89-.71,1.89-2s-.83-2-1.89-2-1.88.69-1.88,2,.81,2,1.88,2Z"/><path class="cls-1" d="M98.18,3c1.97,0,3.15,1.54,3.15,3.19v.59c0,.17-.1.25-.27.25h-4.73c.18.85.85,1.51,1.96,1.51.74,0,1.36-.24,1.89-.57.15-.08.28-.06.35.1l.45.81c.07.14.06.27-.04.34-.7.53-1.55.84-2.66.84-2.24,0-3.57-1.48-3.57-3.49,0-2.17,1.55-3.57,3.47-3.57ZM96.38,5.81h3.4c-.1-.7-.62-1.3-1.6-1.3-.91,0-1.58.49-1.81,1.3Z"/><path class="cls-1" d="M106.49,9.45c.04.14.01.25-.13.32-.36.18-.7.28-1.22.28-1.55,0-2.11-1.01-2.11-2.21v-3.19h-.74c-.17,0-.25-.1-.25-.27v-.97c0-.15.08-.25.25-.25h.74v-.91c0-.14.06-.24.2-.29l1.15-.42c.18-.07.31.03.31.21v1.41h1.16c.17,0,.25.1.25.25v.97c0,.17-.08.27-.25.27h-1.16v2.94c0,.5.14.87.69.87.17,0,.31-.04.49-.11.17-.08.28-.04.34.14l.29.97Z"/><path class="cls-1" d="M111.3,9.45c.04.14.01.25-.13.32-.36.18-.7.28-1.22.28-1.55,0-2.11-1.01-2.11-2.21v-3.19h-.74c-.17,0-.25-.1-.25-.27v-.97c0-.15.08-.25.25-.25h.74v-.91c0-.14.06-.24.2-.29l1.15-.42c.18-.07.31.03.31.21v1.41h1.16c.17,0,.25.1.25.25v.97c0,.17-.08.27-.25.27h-1.16v2.94c0,.5.14.87.69.87.17,0,.31-.04.49-.11.17-.08.28-.04.34.14l.29.97Z"/><path class="cls-1" d="M115.44,3c1.97,0,3.15,1.54,3.15,3.19v.59c0,.17-.1.25-.27.25h-4.73c.18.85.85,1.51,1.96,1.51.74,0,1.36-.24,1.89-.57.15-.08.28-.06.35.1l.45.81c.07.14.06.27-.04.34-.7.53-1.55.84-2.66.84-2.24,0-3.57-1.48-3.57-3.49,0-2.17,1.55-3.57,3.47-3.57ZM113.63,5.81h3.4c-.1-.7-.62-1.3-1.6-1.3-.91,0-1.58.49-1.81,1.3Z"/><path class="cls-1" d="M124.86,4.12c.06.15.01.28-.14.34l-3.28,1.34v3.84c0,.15-.08.25-.25.25h-1.13c-.17,0-.27-.1-.27-.25V3.79c0-.14.07-.24.21-.29l1.15-.39c.18-.07.29.03.29.21v.91l2.7-1.13c.17-.06.28-.01.35.14l.36.88Z"/><path class="cls-1" d="M124.72,9.88c-.17,0-.25-.1-.25-.25v-1.26c0-.17.08-.27.25-.27h1.26c.17,0,.25.1.25.27v1.26c0,.15-.08.25-.25.25h-1.26Z"/></g></svg>