<?xml version="1.0" encoding="UTF-8"?><svg id="Layer_2" xmlns="http://www.w3.org/2000/svg" width="178.45" height="22.93" viewBox="0 0 178.45 22.93"><defs><style>.cls-1{fill:#243746;}</style></defs><g id="Layer_1-2"><path class="cls-1" d="M10.7,2.28H2.25v5.05h6.48c.22,0,.38.15.38.38v1.4c0,.23-.15.38-.38.38H2.25v6h8.45c.23,0,.38.15.38.38v1.4c0,.23-.15.38-.38.38H.38c-.22,0-.38-.15-.38-.38V.51C0,.28.15.13.38.13h10.32c.23,0,.38.15.38.37v1.4c0,.23-.15.38-.38.38Z"/><path class="cls-1" d="M13.99,17.63c-.22,0-.38-.15-.38-.38V6.48c0-.2.1-.35.3-.43l1.43-.52c.25-.1.43.02.43.3v1.28c.92-1.35,2.35-1.78,3.65-1.78,2.7,0,4.85,1.83,4.85,5.37v6.55c0,.23-.15.38-.38.38h-1.4c-.23,0-.38-.15-.38-.38v-6.47c0-2.15-1.25-3.32-3.1-3.32s-3.25,1.2-3.25,3.32v6.47c0,.23-.15.38-.38.38h-1.4Z"/><path class="cls-1" d="M32.84,5.33c3.42,0,5.52,2.7,5.52,5.7v.93c0,.23-.15.38-.38.38h-9.02c.27,1.95,1.65,3.5,4.08,3.5,1.35,0,2.55-.48,3.77-1.38.23-.15.4-.12.53.07l.7,1.05c.12.18.1.38-.08.52-1.35,1.2-3.17,1.83-4.95,1.83-3.95,0-6.3-2.62-6.3-6.23,0-3.95,2.75-6.37,6.12-6.37ZM29.04,10.38h7.05c-.1-1.55-1.2-2.95-3.28-2.95-1.95,0-3.35,1.12-3.77,2.95Z"/><path class="cls-1" d="M49.06,6.78c.07.22,0,.4-.23.5l-5.72,2.38v7.6c0,.23-.15.38-.38.38h-1.4c-.22,0-.38-.15-.38-.38V6.48c0-.2.1-.35.3-.43l1.43-.52c.25-.1.42.02.42.3v1.72l5-2.07c.22-.1.4-.03.5.2l.45,1.1Z"/><path class="cls-1" d="M55.91,22.93c-1.78,0-3.55-.43-5.28-1.73-.17-.15-.2-.33-.1-.52l.72-1.25c.12-.23.3-.25.53-.1,1.17.9,2.62,1.5,4.15,1.5,2.67,0,4.12-1.7,4.12-4.4v-.15c-.65.8-2.17,1.65-4.15,1.65-3.68,0-5.93-2.9-5.93-6.3,0-3.85,2.85-6.3,6.12-6.3,1.65,0,3.18.62,3.95,1.68v-.53c0-.2.1-.35.3-.43l1.43-.52c.25-.1.42,0,.42.27v10.17c0,4.85-2.45,6.95-6.3,6.95ZM56.16,15.81c2.17,0,3.92-1.43,3.92-4.2s-1.75-4.17-3.92-4.17-3.98,1.43-3.98,4.17,1.8,4.2,3.98,4.2Z"/><path class="cls-1" d="M75.4,5.63c.28,0,.4.17.3.42l-6.97,16.3c-.08.2-.23.27-.43.27h-1.57c-.28,0-.4-.17-.3-.42l2.4-5.62-4.5-10.52c-.1-.25.03-.42.3-.42h1.6c.2,0,.38.1.45.3l3.32,7.9,3.35-7.9c.07-.2.22-.3.42-.3h1.62Z"/><path class="cls-1" d="M87.79,17.93c-1.78,0-3.58-.58-4.65-1.83-.15-.15-.12-.35,0-.52l.8-1.02c.15-.2.33-.2.53-.05.75.65,1.75,1.32,3.38,1.32s2.4-.5,2.4-1.48-.88-1.4-2.5-1.8c-2.03-.5-4.25-1.1-4.25-3.55,0-2.15,1.7-3.67,4.38-3.67,1.72,0,2.95.6,3.75,1.25.18.18.18.33.03.53l-.8,1c-.15.18-.32.23-.53.07-.57-.4-1.38-.75-2.4-.75-1.23,0-2.28.48-2.28,1.45,0,.9.9,1.25,2.6,1.65,2.47.57,4.1,1.5,4.1,3.68,0,3.05-2.72,3.73-4.55,3.73Z"/><path class="cls-1" d="M100.62,17.93c-3.6,0-6.18-2.68-6.18-6.3s2.57-6.3,6.18-6.3,6.15,2.67,6.15,6.3-2.55,6.3-6.15,6.3ZM100.62,15.83c2.45,0,3.95-1.85,3.95-4.2s-1.5-4.2-3.95-4.2-3.98,1.85-3.98,4.2,1.5,4.2,3.98,4.2Z"/><path class="cls-1" d="M109.74,17.63c-.23,0-.38-.15-.38-.38V.98c0-.2.1-.35.3-.43l1.43-.53c.25-.1.42.03.42.3v16.92c0,.23-.15.38-.38.38h-1.4Z"/><path class="cls-1" d="M119.22,17.93c-2.7,0-4.85-1.83-4.85-5.38v-6.07c0-.2.1-.35.3-.43l1.43-.52c.25-.1.43.02.43.3v6.65c0,2.15,1.25,3.33,3.1,3.33s3.25-1.2,3.25-3.33v-6c0-.2.1-.35.3-.43l1.43-.52c.25-.1.43.02.43.3v11.42c0,.23-.15.38-.38.38h-1.4c-.22,0-.38-.15-.38-.38v-1.1c-.93,1.35-2.35,1.77-3.65,1.77Z"/><path class="cls-1" d="M134.2,17.06c.07.2,0,.4-.25.52-.55.25-1.02.35-1.55.35-2.77,0-3.43-1.8-3.43-3.95v-6.4h-1.57c-.23,0-.38-.15-.38-.38v-1.2c0-.22.15-.38.38-.38h1.57v-1.9c0-.2.1-.35.3-.42l1.43-.53c.25-.1.43.03.43.3v2.55h2.15c.23,0,.38.15.38.38v1.2c0,.22-.15.38-.38.38h-2.15v6.42c0,1.02.38,1.77,1.45,1.77.23,0,.45-.05.73-.15.25-.07.42-.03.5.22l.4,1.2Z"/><path class="cls-1" d="M136.87,4.26c-.25.07-.43-.03-.43-.3v-1.77c0-.2.1-.35.3-.43l1.57-.6c.25-.1.43.02.43.3v1.85c0,.2-.1.35-.3.42l-1.57.53ZM136.89,17.63c-.23,0-.38-.15-.38-.38V6.48c0-.2.1-.35.3-.43l1.43-.52c.25-.1.43.02.43.3v11.42c0,.23-.15.38-.38.38h-1.4Z"/><path class="cls-1" d="M147.44,17.93c-3.6,0-6.18-2.68-6.18-6.3s2.57-6.3,6.18-6.3,6.15,2.67,6.15,6.3-2.55,6.3-6.15,6.3ZM147.44,15.83c2.45,0,3.95-1.85,3.95-4.2s-1.5-4.2-3.95-4.2-3.98,1.85-3.98,4.2,1.5,4.2,3.98,4.2Z"/><path class="cls-1" d="M156.57,17.63c-.23,0-.38-.15-.38-.38V6.48c0-.2.1-.35.3-.43l1.43-.52c.25-.1.43.02.43.3v1.28c.93-1.35,2.35-1.78,3.65-1.78,2.7,0,4.85,1.83,4.85,5.37v6.55c0,.23-.15.38-.38.38h-1.4c-.23,0-.38-.15-.38-.38v-6.47c0-2.15-1.25-3.32-3.1-3.32s-3.25,1.2-3.25,3.32v6.47c0,.23-.15.38-.38.38h-1.4Z"/><path class="cls-1" d="M173.9,17.93c-1.77,0-3.57-.58-4.65-1.83-.15-.15-.12-.35,0-.52l.8-1.02c.15-.2.32-.2.52-.05.75.65,1.75,1.32,3.38,1.32s2.4-.5,2.4-1.48-.88-1.4-2.5-1.8c-2.02-.5-4.25-1.1-4.25-3.55,0-2.15,1.7-3.67,4.38-3.67,1.73,0,2.95.6,3.75,1.25.18.18.18.33.03.53l-.8,1c-.15.18-.32.23-.52.07-.58-.4-1.38-.75-2.4-.75-1.22,0-2.27.48-2.27,1.45,0,.9.9,1.25,2.6,1.65,2.48.57,4.1,1.5,4.1,3.68,0,3.05-2.73,3.73-4.55,3.73Z"/></g></svg>