<?xml version="1.0" encoding="UTF-8"?><svg id="Layer_2" xmlns="http://www.w3.org/2000/svg" width="111.59" height="17.93" viewBox="0 0 111.59 17.93"><defs><style>.cls-1{fill:#243746;}</style></defs><g id="Layer_1-2"><path class="cls-1" d="M4.75,17.93c-1.77,0-3.57-.58-4.65-1.83-.15-.15-.12-.35,0-.52l.8-1.02c.15-.2.33-.2.53-.05.75.65,1.75,1.32,3.38,1.32s2.4-.5,2.4-1.48-.88-1.4-2.5-1.8c-2.03-.5-4.25-1.1-4.25-3.55,0-2.15,1.7-3.67,4.38-3.67,1.72,0,2.95.6,3.75,1.25.18.18.18.33.03.53l-.8,1c-.15.18-.32.23-.53.07-.57-.4-1.38-.75-2.4-.75-1.22,0-2.27.48-2.27,1.45,0,.9.9,1.25,2.6,1.65,2.47.57,4.1,1.5,4.1,3.68,0,3.05-2.72,3.73-4.55,3.73Z"/><path class="cls-1" d="M17.74,17.06c.08.2,0,.4-.25.52-.55.25-1.02.35-1.55.35-2.78,0-3.43-1.8-3.43-3.95v-6.4h-1.57c-.23,0-.38-.15-.38-.38v-1.2c0-.22.15-.38.38-.38h1.57v-1.9c0-.2.1-.35.3-.42l1.43-.53c.25-.1.42.03.42.3v2.55h2.15c.23,0,.38.15.38.38v1.2c0,.22-.15.38-.38.38h-2.15v6.42c0,1.02.38,1.77,1.45,1.77.23,0,.45-.05.73-.15.25-.07.42-.03.5.22l.4,1.2Z"/><path class="cls-1" d="M25.22,17.93c-3.8,0-6-2.9-6-6.33,0-3.82,2.85-6.27,6.12-6.27,1.65,0,3.18.62,3.95,1.68v-.53c0-.2.1-.35.3-.43l1.43-.52c.25-.1.42,0,.42.27v11.45c0,.23-.15.38-.38.38h-1.4c-.23,0-.38-.15-.38-.38v-.97c-.7.88-2.35,1.65-4.08,1.65ZM25.37,15.81c2.22,0,3.95-1.43,3.95-4.2s-1.73-4.17-3.95-4.17-3.95,1.43-3.95,4.17,1.83,4.2,3.95,4.2Z"/><path class="cls-1" d="M42.54,6.78c.08.22,0,.4-.22.5l-5.73,2.38v7.6c0,.23-.15.38-.38.38h-1.4c-.23,0-.38-.15-.38-.38V6.48c0-.2.1-.35.3-.43l1.42-.52c.25-.1.42.02.42.3v1.72l5-2.07c.23-.1.4-.03.5.2l.45,1.1Z"/><path class="cls-1" d="M50.84,17.06c.07.2,0,.4-.25.52-.55.25-1.03.35-1.55.35-2.77,0-3.42-1.8-3.42-3.95v-6.4h-1.58c-.22,0-.38-.15-.38-.38v-1.2c0-.22.15-.38.38-.38h1.58v-1.9c0-.2.1-.35.3-.42l1.43-.53c.25-.1.43.03.43.3v2.55h2.15c.23,0,.38.15.38.38v1.2c0,.22-.15.38-.38.38h-2.15v6.42c0,1.02.37,1.77,1.45,1.77.22,0,.45-.05.72-.15.25-.07.42-.03.5.22l.4,1.2Z"/><path class="cls-1" d="M59.3,17.63c-.22,0-.38-.15-.38-.38V.98c0-.2.1-.35.3-.43l1.42-.53c.25-.1.42.03.42.3v6.78c.85-1.25,2.4-1.78,3.75-1.78,2.65,0,4.75,1.83,4.75,5.37v6.55c0,.23-.15.38-.38.38h-1.4c-.22,0-.38-.15-.38-.38v-6.47c0-2.15-1.25-3.32-3.1-3.32s-3.25,1.2-3.25,3.32v6.47c0,.23-.15.38-.38.38h-1.4Z"/><path class="cls-1" d="M78.15,5.33c3.43,0,5.53,2.7,5.53,5.7v.93c0,.23-.15.38-.38.38h-9.03c.28,1.95,1.65,3.5,4.08,3.5,1.35,0,2.55-.48,3.78-1.38.22-.15.4-.12.52.07l.7,1.05c.12.18.1.38-.08.52-1.35,1.2-3.17,1.83-4.95,1.83-3.95,0-6.3-2.62-6.3-6.23,0-3.95,2.75-6.37,6.12-6.37ZM74.35,10.38h7.05c-.1-1.55-1.2-2.95-3.27-2.95-1.95,0-3.35,1.13-3.78,2.95Z"/><path class="cls-1" d="M94.37,6.78c.07.22,0,.4-.22.5l-5.73,2.38v7.6c0,.23-.15.38-.38.38h-1.4c-.23,0-.38-.15-.38-.38V6.48c0-.2.1-.35.3-.43l1.43-.52c.25-.1.42.02.42.3v1.72l5-2.07c.23-.1.4-.03.5.2l.45,1.1Z"/><path class="cls-1" d="M101.42,5.33c3.43,0,5.53,2.7,5.53,5.7v.93c0,.23-.15.38-.38.38h-9.03c.28,1.95,1.65,3.5,4.08,3.5,1.35,0,2.55-.48,3.77-1.38.23-.15.4-.12.53.07l.7,1.05c.12.18.1.38-.08.52-1.35,1.2-3.17,1.83-4.95,1.83-3.95,0-6.3-2.62-6.3-6.23,0-3.95,2.75-6.37,6.13-6.37ZM97.62,10.38h7.05c-.1-1.55-1.2-2.95-3.28-2.95-1.95,0-3.35,1.13-3.78,2.95Z"/><path class="cls-1" d="M109.66,17.63c-.22,0-.38-.15-.38-.38v-1.55c0-.23.15-.38.38-.38h1.55c.23,0,.38.15.38.38v1.55c0,.23-.15.38-.38.38h-1.55Z"/></g></svg>