<svg width="112" height="18" viewBox="0 0 112 18" fill="none" xmlns="http://www.w3.org/2000/svg">
<path d="M4.75334 17.9342C2.97834 17.9342 1.17834 17.3592 0.103337 16.1092C-0.0466628 15.9592 -0.0216628 15.7592 0.103337 15.5842L0.903337 14.5592C1.05334 14.3592 1.22834 14.3592 1.42834 14.5092C2.17834 15.1592 3.17834 15.8342 4.80334 15.8342C6.35334 15.8342 7.20334 15.3342 7.20334 14.3592C7.20334 13.3592 6.32834 12.9592 4.70334 12.5592C2.67834 12.0592 0.453337 11.4592 0.453337 9.00921C0.453337 6.85921 2.15334 5.33421 4.82834 5.33421C6.55334 5.33421 7.77834 5.93421 8.57834 6.58421C8.75334 6.75921 8.75334 6.90921 8.60334 7.10921L7.80334 8.10921C7.65334 8.28421 7.47834 8.33421 7.27834 8.18421C6.70334 7.7842 5.90334 7.4342 4.87834 7.4342C3.65334 7.4342 2.60334 7.90921 2.60334 8.88421C2.60334 9.78421 3.50334 10.1342 5.20334 10.5342C7.67834 11.1092 9.30334 12.0342 9.30334 14.2092C9.30334 17.2592 6.57834 17.9342 4.75334 17.9342Z" fill="#243746"/>
<path d="M17.7391 17.0592C17.8141 17.2592 17.7391 17.4592 17.4891 17.5842C16.9391 17.8342 16.4641 17.9342 15.9391 17.9342C13.1641 17.9342 12.5141 16.1342 12.5141 13.9842V7.58421H10.9391C10.7141 7.58421 10.5641 7.43421 10.5641 7.20921V6.00921C10.5641 5.78421 10.7141 5.63421 10.9391 5.63421H12.5141V3.73421C12.5141 3.53421 12.6141 3.38421 12.8141 3.30921L14.2391 2.78421C14.4891 2.68421 14.6641 2.80921 14.6641 3.08421V5.63421H16.8141C17.0391 5.63421 17.1891 5.78421 17.1891 6.00921V7.20921C17.1891 7.43421 17.0391 7.58421 16.8141 7.58421H14.6641V14.0092C14.6641 15.0342 15.0391 15.7842 16.1141 15.7842C16.3391 15.7842 16.5641 15.7342 16.8391 15.6342C17.0891 15.5592 17.2641 15.6092 17.3391 15.8592L17.7391 17.0592Z" fill="#243746"/>
<path d="M25.2207 17.9342C21.4207 17.9342 19.2207 15.0342 19.2207 11.6092C19.2207 7.78421 22.0707 5.33421 25.3457 5.33421C26.9957 5.33421 28.5207 5.95921 29.2957 7.00921V6.48421C29.2957 6.28421 29.3957 6.13421 29.5957 6.0592L31.0207 5.53421C31.2707 5.43421 31.4457 5.53421 31.4457 5.80921V17.2592C31.4457 17.4842 31.2957 17.6342 31.0707 17.6342H29.6707C29.4457 17.6342 29.2957 17.4842 29.2957 17.2592V16.2842C28.5957 17.1592 26.9457 17.9342 25.2207 17.9342ZM25.3707 15.8092C27.5957 15.8092 29.3207 14.3842 29.3207 11.6092C29.3207 8.85921 27.5957 7.4342 25.3707 7.4342C23.2457 7.4342 21.4207 8.85921 21.4207 11.6092C21.4207 14.3592 23.2457 15.8092 25.3707 15.8092Z" fill="#243746"/>
<path d="M42.5401 6.78421C42.6151 7.00921 42.5401 7.18421 42.3151 7.28421L36.5901 9.65921V17.2592C36.5901 17.4842 36.4401 17.6342 36.2151 17.6342H34.8151C34.5901 17.6342 34.4401 17.4842 34.4401 17.2592V6.48421C34.4401 6.28421 34.5401 6.13421 34.7401 6.0592L36.1651 5.53421C36.4151 5.43421 36.5901 5.55921 36.5901 5.83421V7.5592L41.5901 5.48421C41.8151 5.38421 41.9901 5.45921 42.0901 5.68421L42.5401 6.78421Z" fill="#243746"/>
<path d="M50.8445 17.0592C50.9195 17.2592 50.8445 17.4592 50.5945 17.5842C50.0445 17.8342 49.5695 17.9342 49.0445 17.9342C46.2695 17.9342 45.6195 16.1342 45.6195 13.9842V7.58421H44.0445C43.8195 7.58421 43.6695 7.43421 43.6695 7.20921V6.00921C43.6695 5.78421 43.8195 5.63421 44.0445 5.63421H45.6195V3.73421C45.6195 3.53421 45.7195 3.38421 45.9195 3.30921L47.3445 2.78421C47.5945 2.68421 47.7696 2.80921 47.7696 3.08421V5.63421H49.9195C50.1445 5.63421 50.2945 5.78421 50.2945 6.00921V7.20921C50.2945 7.43421 50.1445 7.58421 49.9195 7.58421H47.7696V14.0092C47.7696 15.0342 48.1445 15.7842 49.2195 15.7842C49.4445 15.7842 49.6695 15.7342 49.9445 15.6342C50.1945 15.5592 50.3695 15.6092 50.4445 15.8592L50.8445 17.0592Z" fill="#243746"/>
<path d="M59.3024 17.6342C59.0774 17.6342 58.9274 17.4842 58.9274 17.2592V0.984208C58.9274 0.784207 59.0274 0.634207 59.2274 0.559207L60.6524 0.0342051C60.9024 -0.0657937 61.0774 0.0592068 61.0774 0.334206V7.10921C61.9274 5.85921 63.4774 5.33421 64.8274 5.33421C67.4774 5.33421 69.5774 7.15921 69.5774 10.7092V17.2592C69.5774 17.4842 69.4274 17.6342 69.2024 17.6342H67.8024C67.5774 17.6342 67.4274 17.4842 67.4274 17.2592V10.7842C67.4274 8.63421 66.1774 7.45921 64.3274 7.45921C62.4524 7.45921 61.0774 8.65921 61.0774 10.7842V17.2592C61.0774 17.4842 60.9274 17.6342 60.7024 17.6342H59.3024Z" fill="#243746"/>
<path d="M78.1533 5.33421C81.5783 5.33421 83.6783 8.03421 83.6783 11.0342V11.9592C83.6783 12.1842 83.5283 12.3342 83.3033 12.3342H74.2783C74.5533 14.2842 75.9283 15.8342 78.3533 15.8342C79.7033 15.8342 80.9033 15.3592 82.1283 14.4592C82.3533 14.3092 82.5283 14.3342 82.6533 14.5342L83.3533 15.5842C83.4783 15.7592 83.4533 15.9592 83.2783 16.1092C81.9283 17.3092 80.1033 17.9342 78.3283 17.9342C74.3783 17.9342 72.0283 15.3092 72.0283 11.7092C72.0283 7.75921 74.7783 5.33421 78.1533 5.33421ZM74.3533 10.3842H81.4033C81.3033 8.83421 80.2033 7.4342 78.1283 7.4342C76.1783 7.4342 74.7783 8.55921 74.3533 10.3842Z" fill="#243746"/>
<path d="M94.3711 6.78421C94.4461 7.00921 94.3711 7.18421 94.1461 7.28421L88.4211 9.65921V17.2592C88.4211 17.4842 88.2711 17.6342 88.0461 17.6342H86.6461C86.4211 17.6342 86.2711 17.4842 86.2711 17.2592V6.48421C86.2711 6.28421 86.3711 6.13421 86.5711 6.0592L87.9961 5.53421C88.2461 5.43421 88.4211 5.55921 88.4211 5.83421V7.5592L93.4211 5.48421C93.6461 5.38421 93.8211 5.45921 93.9211 5.68421L94.3711 6.78421Z" fill="#243746"/>
<path d="M101.42 5.33421C104.845 5.33421 106.945 8.03421 106.945 11.0342V11.9592C106.945 12.1842 106.795 12.3342 106.57 12.3342H97.5449C97.8199 14.2842 99.1949 15.8342 101.62 15.8342C102.97 15.8342 104.17 15.3592 105.395 14.4592C105.62 14.3092 105.795 14.3342 105.92 14.5342L106.62 15.5842C106.745 15.7592 106.72 15.9592 106.545 16.1092C105.195 17.3092 103.37 17.9342 101.595 17.9342C97.6449 17.9342 95.2949 15.3092 95.2949 11.7092C95.2949 7.75921 98.0449 5.33421 101.42 5.33421ZM97.6199 10.3842H104.67C104.57 8.83421 103.47 7.4342 101.395 7.4342C99.4449 7.4342 98.0449 8.55921 97.6199 10.3842Z" fill="#243746"/>
<path d="M109.663 17.6342C109.438 17.6342 109.288 17.4842 109.288 17.2592V15.7092C109.288 15.4842 109.438 15.3342 109.663 15.3342H111.213C111.438 15.3342 111.588 15.4842 111.588 15.7092V17.2592C111.588 17.4842 111.438 17.6342 111.213 17.6342H109.663Z" fill="#243746"/>
</svg>
